  0
SECTION
  2
HEADER
  9
$ANGBASE
  50
0.0
  9
$ANGDIR
  70
1
  9
$MEASUREMENT
  70
0
  0
ENDSEC
  0
SECTION
  2
TABLES
  0
TABLE
  2
LTYPE
  70
4
  0
LTYPE
  5
40F
  2
CONTINUOUS
  70
0
  3
Solid line
  72
65
  73
0
  40
0.0
  0
LTYPE
  5
410
  2
DASHDOT
 70
0
  3
Dash Dot ____ _ ____ _
 72
65
 73
4
 40
2.0
 49
1.25
 49
-0.25
 49
0.25
 49
-0.25
  0
LTYPE
  5
411
  2
DASHED
 70
0
  3
Dashed __ __ __ __ __
 72
65
 73
2
 40
0.75
 49
0.5
 49
-0.25
  0
LTYPE
  5
43B
  2
DOTTED
 70
0
  3
Dotted .  .  .  .
 72
65
 73
2
 40
0.2
 49
0.0
 49
-0.2
  0
ENDTAB
  0
TABLE
  2
STYLE
  70
4
  0
STYLE
  2
KICAD
  70
0
  40
0
  41
1
  42
1
  50
0
  71
0
  3
isocp.shx
  0
STYLE
  2
KICADB
  70
0
  40
0
  41
1
  42
1
  50
0
  71
0
  3
isocp.shx
  0
STYLE
  2
KICADI
  70
0
  40
0
  41
1
  42
1
  50
15
  71
0
  3
isocp.shx
  0
STYLE
  2
KICADBI
  70
0
  40
0
  41
1
  42
1
  50
15
  71
0
  3
isocp.shx
  0
ENDTAB
  0
TABLE
  2
LAYER
  70
1
  0
LAYER
  2
BLACK
  70
0
  62
7
  6
CONTINUOUS
  0
ENDTAB
  0
ENDSEC
  0
SECTION
  2
ENTITIES
0
LINE
8
BLACK
6
CONTINUOUS
10
6.19038
20
-2.60711
11
6.19051
21
-2.60709
0
LINE
8
BLACK
6
CONTINUOUS
10
6.19051
20
-2.60709
11
6.19063
21
-2.60716
0
LINE
8
BLACK
6
CONTINUOUS
10
6.19063
20
-2.60716
11
6.19101
21
-2.60723
0
LINE
8
BLACK
6
CONTINUOUS
10
6.19101
20
-2.60723
11
6.1916
21
-2.60772
0
LINE
8
BLACK
6
CONTINUOUS
10
6.1916
20
-2.60772
11
6.19226
21
-2.6081
0
LINE
8
BLACK
6
CONTINUOUS
10
6.19226
20
-2.6081
11
6.19235
21
-2.60835
0
LINE
8
BLACK
6
CONTINUOUS
10
6.19235
20
-2.60835
11
6.19256
21
-2.60852
0
LINE
8
BLACK
6
CONTINUOUS
10
6.19256
20
-2.60852
11
6.19269
21
-2.60928
0
LINE
8
BLACK
6
CONTINUOUS
10
6.19269
20
-2.60928
11
6.19295
21
-2.61
0
LINE
8
BLACK
6
CONTINUOUS
10
6.19295
20
-2.61
11
6.19295
21
-4.19
0
LINE
8
BLACK
6
CONTINUOUS
10
6.19295
20
-4.19
11
6.19289
21
-4.19038
0
LINE
8
BLACK
6
CONTINUOUS
10
6.19289
20
-4.19038
11
6.19291
21
-4.19051
0
LINE
8
BLACK
6
CONTINUOUS
10
6.19291
20
-4.19051
11
6.19284
21
-4.19063
0
LINE
8
BLACK
6
CONTINUOUS
10
6.19284
20
-4.19063
11
6.19277
21
-4.19101
0
LINE
8
BLACK
6
CONTINUOUS
10
6.19277
20
-4.19101
11
6.19228
21
-4.1916
0
LINE
8
BLACK
6
CONTINUOUS
10
6.19228
20
-4.1916
11
6.1919
21
-4.19226
0
LINE
8
BLACK
6
CONTINUOUS
10
6.1919
20
-4.19226
11
6.19165
21
-4.19235
0
LINE
8
BLACK
6
CONTINUOUS
10
6.19165
20
-4.19235
11
6.19148
21
-4.19256
0
LINE
8
BLACK
6
CONTINUOUS
10
6.19148
20
-4.19256
11
6.19072
21
-4.19269
0
LINE
8
BLACK
6
CONTINUOUS
10
6.19072
20
-4.19269
11
6.19
21
-4.19295
0
LINE
8
BLACK
6
CONTINUOUS
10
6.19
20
-4.19295
11
4.61
21
-4.19295
0
LINE
8
BLACK
6
CONTINUOUS
10
4.61
20
-4.19295
11
4.60962
21
-4.19289
0
LINE
8
BLACK
6
CONTINUOUS
10
4.60962
20
-4.19289
11
4.60949
21
-4.19291
0
LINE
8
BLACK
6
CONTINUOUS
10
4.60949
20
-4.19291
11
4.60937
21
-4.19284
0
LINE
8
BLACK
6
CONTINUOUS
10
4.60937
20
-4.19284
11
4.60899
21
-4.19277
0
LINE
8
BLACK
6
CONTINUOUS
10
4.60899
20
-4.19277
11
4.6084
21
-4.19228
0
LINE
8
BLACK
6
CONTINUOUS
10
4.6084
20
-4.19228
11
4.60774
21
-4.1919
0
LINE
8
BLACK
6
CONTINUOUS
10
4.60774
20
-4.1919
11
4.60765
21
-4.19165
0
LINE
8
BLACK
6
CONTINUOUS
10
4.60765
20
-4.19165
11
4.60744
21
-4.19148
0
LINE
8
BLACK
6
CONTINUOUS
10
4.60744
20
-4.19148
11
4.60731
21
-4.19072
0
LINE
8
BLACK
6
CONTINUOUS
10
4.60731
20
-4.19072
11
4.60705
21
-4.19
0
LINE
8
BLACK
6
CONTINUOUS
10
4.60705
20
-4.19
11
4.60705
21
-2.61
0
LINE
8
BLACK
6
CONTINUOUS
10
4.60705
20
-2.61
11
4.60711
21
-2.60962
0
LINE
8
BLACK
6
CONTINUOUS
10
4.60711
20
-2.60962
11
4.60709
21
-2.60949
0
LINE
8
BLACK
6
CONTINUOUS
10
4.60709
20
-2.60949
11
4.60716
21
-2.60937
0
LINE
8
BLACK
6
CONTINUOUS
10
4.60716
20
-2.60937
11
4.60723
21
-2.60899
0
LINE
8
BLACK
6
CONTINUOUS
10
4.60723
20
-2.60899
11
4.60772
21
-2.6084
0
LINE
8
BLACK
6
CONTINUOUS
10
4.60772
20
-2.6084
11
4.6081
21
-2.60774
0
LINE
8
BLACK
6
CONTINUOUS
10
4.6081
20
-2.60774
11
4.60835
21
-2.60765
0
LINE
8
BLACK
6
CONTINUOUS
10
4.60835
20
-2.60765
11
4.60852
21
-2.60744
0
LINE
8
BLACK
6
CONTINUOUS
10
4.60852
20
-2.60744
11
4.60928
21
-2.60731
0
LINE
8
BLACK
6
CONTINUOUS
10
4.60928
20
-2.60731
11
4.61
21
-2.60705
0
LINE
8
BLACK
6
CONTINUOUS
10
4.61
20
-2.60705
11
6.19
21
-2.60705
0
LINE
8
BLACK
6
CONTINUOUS
10
6.19
20
-2.60705
11
6.19038
21
-2.60711
0
LINE
8
BLACK
6
CONTINUOUS
10
4.61295
20
-2.61295
11
4.61295
21
-4.18705
0
LINE
8
BLACK
6
CONTINUOUS
10
4.61295
20
-4.18705
11
6.18705
21
-4.18705
0
LINE
8
BLACK
6
CONTINUOUS
10
6.18705
20
-4.18705
11
6.18705
21
-2.61295
0
LINE
8
BLACK
6
CONTINUOUS
10
6.18705
20
-2.61295
11
4.61295
21
-2.61295
  0
ENDSEC
  0
EOF
