  0
SECTION
  2
HEADER
  9
$ANGBASE
  50
0.0
  9
$ANGDIR
  70
1
  9
$MEASUREMENT
  70
0
  0
ENDSEC
  0
SECTION
  2
TABLES
  0
TABLE
  2
LTYPE
  70
4
  0
LTYPE
  5
40F
  2
CONTINUOUS
  70
0
  3
Solid line
  72
65
  73
0
  40
0.0
  0
LTYPE
  5
410
  2
DASHDOT
 70
0
  3
Dash Dot ____ _ ____ _
 72
65
 73
4
 40
2.0
 49
1.25
 49
-0.25
 49
0.25
 49
-0.25
  0
LTYPE
  5
411
  2
DASHED
 70
0
  3
Dashed __ __ __ __ __
 72
65
 73
2
 40
0.75
 49
0.5
 49
-0.25
  0
LTYPE
  5
43B
  2
DOTTED
 70
0
  3
Dotted .  .  .  .
 72
65
 73
2
 40
0.2
 49
0.0
 49
-0.2
  0
ENDTAB
  0
TABLE
  2
STYLE
  70
4
  0
STYLE
  2
KICAD
  70
0
  40
0
  41
1
  42
1
  50
0
  71
0
  3
isocp.shx
  0
STYLE
  2
KICADB
  70
0
  40
0
  41
1
  42
1
  50
0
  71
0
  3
isocp.shx
  0
STYLE
  2
KICADI
  70
0
  40
0
  41
1
  42
1
  50
15
  71
0
  3
isocp.shx
  0
STYLE
  2
KICADBI
  70
0
  40
0
  41
1
  42
1
  50
15
  71
0
  3
isocp.shx
  0
ENDTAB
  0
TABLE
  2
LAYER
  70
1
  0
LAYER
  2
BLACK
  70
0
  62
7
  6
CONTINUOUS
  0
ENDTAB
  0
ENDSEC
  0
SECTION
  2
ENTITIES
0
LINE
8
BLACK
6
CONTINUOUS
10
4.82051
20
-3.88368
11
4.83387
21
-3.88685
0
LINE
8
BLACK
6
CONTINUOUS
10
4.83387
20
-3.88685
11
4.84678
21
-3.89155
0
LINE
8
BLACK
6
CONTINUOUS
10
4.84678
20
-3.89155
11
4.85906
21
-3.89771
0
LINE
8
BLACK
6
CONTINUOUS
10
4.85906
20
-3.89771
11
4.87053
21
-3.90526
0
LINE
8
BLACK
6
CONTINUOUS
10
4.87053
20
-3.90526
11
4.88105
21
-3.91409
0
LINE
8
BLACK
6
CONTINUOUS
10
4.88105
20
-3.91409
11
4.89048
21
-3.92408
0
LINE
8
BLACK
6
CONTINUOUS
10
4.89048
20
-3.92408
11
4.89868
21
-3.9351
0
LINE
8
BLACK
6
CONTINUOUS
10
4.89868
20
-3.9351
11
4.90555
21
-3.94699
0
LINE
8
BLACK
6
CONTINUOUS
10
4.90555
20
-3.94699
11
4.91099
21
-3.9596
0
LINE
8
BLACK
6
CONTINUOUS
10
4.91099
20
-3.9596
11
4.91493
21
-3.97276
0
LINE
8
BLACK
6
CONTINUOUS
10
4.91493
20
-3.97276
11
4.91731
21
-3.98629
0
LINE
8
BLACK
6
CONTINUOUS
10
4.91731
20
-3.98629
11
4.91811
21
-4
0
LINE
8
BLACK
6
CONTINUOUS
10
4.91811
20
-4
11
4.91731
21
-4.01371
0
LINE
8
BLACK
6
CONTINUOUS
10
4.91731
20
-4.01371
11
4.91493
21
-4.02724
0
LINE
8
BLACK
6
CONTINUOUS
10
4.91493
20
-4.02724
11
4.91099
21
-4.0404
0
LINE
8
BLACK
6
CONTINUOUS
10
4.91099
20
-4.0404
11
4.90555
21
-4.05301
0
LINE
8
BLACK
6
CONTINUOUS
10
4.90555
20
-4.05301
11
4.89868
21
-4.0649
0
LINE
8
BLACK
6
CONTINUOUS
10
4.89868
20
-4.0649
11
4.89048
21
-4.07592
0
LINE
8
BLACK
6
CONTINUOUS
10
4.89048
20
-4.07592
11
4.88105
21
-4.08591
0
LINE
8
BLACK
6
CONTINUOUS
10
4.88105
20
-4.08591
11
4.87053
21
-4.09474
0
LINE
8
BLACK
6
CONTINUOUS
10
4.87053
20
-4.09474
11
4.85906
21
-4.10229
0
LINE
8
BLACK
6
CONTINUOUS
10
4.85906
20
-4.10229
11
4.84678
21
-4.10845
0
LINE
8
BLACK
6
CONTINUOUS
10
4.84678
20
-4.10845
11
4.83387
21
-4.11315
0
LINE
8
BLACK
6
CONTINUOUS
10
4.83387
20
-4.11315
11
4.82051
21
-4.11632
0
LINE
8
BLACK
6
CONTINUOUS
10
4.82051
20
-4.11632
11
4.80687
21
-4.11791
0
LINE
8
BLACK
6
CONTINUOUS
10
4.80687
20
-4.11791
11
4.79313
21
-4.11791
0
LINE
8
BLACK
6
CONTINUOUS
10
4.79313
20
-4.11791
11
4.77949
21
-4.11632
0
LINE
8
BLACK
6
CONTINUOUS
10
4.77949
20
-4.11632
11
4.76613
21
-4.11315
0
LINE
8
BLACK
6
CONTINUOUS
10
4.76613
20
-4.11315
11
4.75322
21
-4.10845
0
LINE
8
BLACK
6
CONTINUOUS
10
4.75322
20
-4.10845
11
4.74094
21
-4.10229
0
LINE
8
BLACK
6
CONTINUOUS
10
4.74094
20
-4.10229
11
4.72947
21
-4.09474
0
LINE
8
BLACK
6
CONTINUOUS
10
4.72947
20
-4.09474
11
4.71895
21
-4.08591
0
LINE
8
BLACK
6
CONTINUOUS
10
4.71895
20
-4.08591
11
4.70952
21
-4.07592
0
LINE
8
BLACK
6
CONTINUOUS
10
4.70952
20
-4.07592
11
4.70132
21
-4.0649
0
LINE
8
BLACK
6
CONTINUOUS
10
4.70132
20
-4.0649
11
4.69445
21
-4.05301
0
LINE
8
BLACK
6
CONTINUOUS
10
4.69445
20
-4.05301
11
4.68901
21
-4.0404
0
LINE
8
BLACK
6
CONTINUOUS
10
4.68901
20
-4.0404
11
4.68507
21
-4.02724
0
LINE
8
BLACK
6
CONTINUOUS
10
4.68507
20
-4.02724
11
4.68269
21
-4.01371
0
LINE
8
BLACK
6
CONTINUOUS
10
4.68269
20
-4.01371
11
4.68189
21
-4
0
LINE
8
BLACK
6
CONTINUOUS
10
4.68189
20
-4
11
4.68269
21
-3.98629
0
LINE
8
BLACK
6
CONTINUOUS
10
4.68269
20
-3.98629
11
4.68507
21
-3.97276
0
LINE
8
BLACK
6
CONTINUOUS
10
4.68507
20
-3.97276
11
4.68901
21
-3.9596
0
LINE
8
BLACK
6
CONTINUOUS
10
4.68901
20
-3.9596
11
4.69445
21
-3.94699
0
LINE
8
BLACK
6
CONTINUOUS
10
4.69445
20
-3.94699
11
4.70132
21
-3.9351
0
LINE
8
BLACK
6
CONTINUOUS
10
4.70132
20
-3.9351
11
4.70952
21
-3.92408
0
LINE
8
BLACK
6
CONTINUOUS
10
4.70952
20
-3.92408
11
4.71895
21
-3.91409
0
LINE
8
BLACK
6
CONTINUOUS
10
4.71895
20
-3.91409
11
4.72947
21
-3.90526
0
LINE
8
BLACK
6
CONTINUOUS
10
4.72947
20
-3.90526
11
4.74094
21
-3.89771
0
LINE
8
BLACK
6
CONTINUOUS
10
4.74094
20
-3.89771
11
4.75322
21
-3.89155
0
LINE
8
BLACK
6
CONTINUOUS
10
4.75322
20
-3.89155
11
4.76613
21
-3.88685
0
LINE
8
BLACK
6
CONTINUOUS
10
4.76613
20
-3.88685
11
4.77949
21
-3.88368
0
LINE
8
BLACK
6
CONTINUOUS
10
4.77949
20
-3.88368
11
4.79313
21
-3.88209
0
LINE
8
BLACK
6
CONTINUOUS
10
4.79313
20
-3.88209
11
4.80687
21
-3.88209
0
LINE
8
BLACK
6
CONTINUOUS
10
4.80687
20
-3.88209
11
4.82051
21
-3.88368
0
LINE
8
BLACK
6
CONTINUOUS
10
6.02051
20
-3.88368
11
6.03387
21
-3.88685
0
LINE
8
BLACK
6
CONTINUOUS
10
6.03387
20
-3.88685
11
6.04678
21
-3.89155
0
LINE
8
BLACK
6
CONTINUOUS
10
6.04678
20
-3.89155
11
6.05906
21
-3.89771
0
LINE
8
BLACK
6
CONTINUOUS
10
6.05906
20
-3.89771
11
6.07053
21
-3.90526
0
LINE
8
BLACK
6
CONTINUOUS
10
6.07053
20
-3.90526
11
6.08105
21
-3.91409
0
LINE
8
BLACK
6
CONTINUOUS
10
6.08105
20
-3.91409
11
6.09048
21
-3.92408
0
LINE
8
BLACK
6
CONTINUOUS
10
6.09048
20
-3.92408
11
6.09868
21
-3.9351
0
LINE
8
BLACK
6
CONTINUOUS
10
6.09868
20
-3.9351
11
6.10555
21
-3.94699
0
LINE
8
BLACK
6
CONTINUOUS
10
6.10555
20
-3.94699
11
6.11099
21
-3.9596
0
LINE
8
BLACK
6
CONTINUOUS
10
6.11099
20
-3.9596
11
6.11493
21
-3.97276
0
LINE
8
BLACK
6
CONTINUOUS
10
6.11493
20
-3.97276
11
6.11731
21
-3.98629
0
LINE
8
BLACK
6
CONTINUOUS
10
6.11731
20
-3.98629
11
6.11811
21
-4
0
LINE
8
BLACK
6
CONTINUOUS
10
6.11811
20
-4
11
6.11731
21
-4.01371
0
LINE
8
BLACK
6
CONTINUOUS
10
6.11731
20
-4.01371
11
6.11493
21
-4.02724
0
LINE
8
BLACK
6
CONTINUOUS
10
6.11493
20
-4.02724
11
6.11099
21
-4.0404
0
LINE
8
BLACK
6
CONTINUOUS
10
6.11099
20
-4.0404
11
6.10555
21
-4.05301
0
LINE
8
BLACK
6
CONTINUOUS
10
6.10555
20
-4.05301
11
6.09868
21
-4.0649
0
LINE
8
BLACK
6
CONTINUOUS
10
6.09868
20
-4.0649
11
6.09048
21
-4.07592
0
LINE
8
BLACK
6
CONTINUOUS
10
6.09048
20
-4.07592
11
6.08105
21
-4.08591
0
LINE
8
BLACK
6
CONTINUOUS
10
6.08105
20
-4.08591
11
6.07053
21
-4.09474
0
LINE
8
BLACK
6
CONTINUOUS
10
6.07053
20
-4.09474
11
6.05906
21
-4.10229
0
LINE
8
BLACK
6
CONTINUOUS
10
6.05906
20
-4.10229
11
6.04678
21
-4.10845
0
LINE
8
BLACK
6
CONTINUOUS
10
6.04678
20
-4.10845
11
6.03387
21
-4.11315
0
LINE
8
BLACK
6
CONTINUOUS
10
6.03387
20
-4.11315
11
6.02051
21
-4.11632
0
LINE
8
BLACK
6
CONTINUOUS
10
6.02051
20
-4.11632
11
6.00687
21
-4.11791
0
LINE
8
BLACK
6
CONTINUOUS
10
6.00687
20
-4.11791
11
5.99313
21
-4.11791
0
LINE
8
BLACK
6
CONTINUOUS
10
5.99313
20
-4.11791
11
5.97949
21
-4.11632
0
LINE
8
BLACK
6
CONTINUOUS
10
5.97949
20
-4.11632
11
5.96613
21
-4.11315
0
LINE
8
BLACK
6
CONTINUOUS
10
5.96613
20
-4.11315
11
5.95322
21
-4.10845
0
LINE
8
BLACK
6
CONTINUOUS
10
5.95322
20
-4.10845
11
5.94094
21
-4.10229
0
LINE
8
BLACK
6
CONTINUOUS
10
5.94094
20
-4.10229
11
5.92947
21
-4.09474
0
LINE
8
BLACK
6
CONTINUOUS
10
5.92947
20
-4.09474
11
5.91895
21
-4.08591
0
LINE
8
BLACK
6
CONTINUOUS
10
5.91895
20
-4.08591
11
5.90952
21
-4.07592
0
LINE
8
BLACK
6
CONTINUOUS
10
5.90952
20
-4.07592
11
5.90132
21
-4.0649
0
LINE
8
BLACK
6
CONTINUOUS
10
5.90132
20
-4.0649
11
5.89445
21
-4.05301
0
LINE
8
BLACK
6
CONTINUOUS
10
5.89445
20
-4.05301
11
5.88901
21
-4.0404
0
LINE
8
BLACK
6
CONTINUOUS
10
5.88901
20
-4.0404
11
5.88507
21
-4.02724
0
LINE
8
BLACK
6
CONTINUOUS
10
5.88507
20
-4.02724
11
5.88269
21
-4.01371
0
LINE
8
BLACK
6
CONTINUOUS
10
5.88269
20
-4.01371
11
5.88189
21
-4
0
LINE
8
BLACK
6
CONTINUOUS
10
5.88189
20
-4
11
5.88269
21
-3.98629
0
LINE
8
BLACK
6
CONTINUOUS
10
5.88269
20
-3.98629
11
5.88507
21
-3.97276
0
LINE
8
BLACK
6
CONTINUOUS
10
5.88507
20
-3.97276
11
5.88901
21
-3.9596
0
LINE
8
BLACK
6
CONTINUOUS
10
5.88901
20
-3.9596
11
5.89445
21
-3.94699
0
LINE
8
BLACK
6
CONTINUOUS
10
5.89445
20
-3.94699
11
5.90132
21
-3.9351
0
LINE
8
BLACK
6
CONTINUOUS
10
5.90132
20
-3.9351
11
5.90952
21
-3.92408
0
LINE
8
BLACK
6
CONTINUOUS
10
5.90952
20
-3.92408
11
5.91895
21
-3.91409
0
LINE
8
BLACK
6
CONTINUOUS
10
5.91895
20
-3.91409
11
5.92947
21
-3.90526
0
LINE
8
BLACK
6
CONTINUOUS
10
5.92947
20
-3.90526
11
5.94094
21
-3.89771
0
LINE
8
BLACK
6
CONTINUOUS
10
5.94094
20
-3.89771
11
5.95322
21
-3.89155
0
LINE
8
BLACK
6
CONTINUOUS
10
5.95322
20
-3.89155
11
5.96613
21
-3.88685
0
LINE
8
BLACK
6
CONTINUOUS
10
5.96613
20
-3.88685
11
5.97949
21
-3.88368
0
LINE
8
BLACK
6
CONTINUOUS
10
5.97949
20
-3.88368
11
5.99313
21
-3.88209
0
LINE
8
BLACK
6
CONTINUOUS
10
5.99313
20
-3.88209
11
6.00687
21
-3.88209
0
LINE
8
BLACK
6
CONTINUOUS
10
6.00687
20
-3.88209
11
6.02051
21
-3.88368
0
LINE
8
BLACK
6
CONTINUOUS
10
5.18201
20
-3.94373
11
5.18457
21
-3.94543
0
LINE
8
BLACK
6
CONTINUOUS
10
5.18457
20
-3.94543
11
5.18627
21
-3.94799
0
LINE
8
BLACK
6
CONTINUOUS
10
5.18627
20
-3.94799
11
5.18687
21
-3.951
0
LINE
8
BLACK
6
CONTINUOUS
10
5.18687
20
-3.951
11
5.18687
21
-4.039
0
LINE
8
BLACK
6
CONTINUOUS
10
5.18687
20
-4.039
11
5.18627
21
-4.04201
0
LINE
8
BLACK
6
CONTINUOUS
10
5.18627
20
-4.04201
11
5.18457
21
-4.04457
0
LINE
8
BLACK
6
CONTINUOUS
10
5.18457
20
-4.04457
11
5.18201
21
-4.04627
0
LINE
8
BLACK
6
CONTINUOUS
10
5.18201
20
-4.04627
11
5.179
21
-4.04687
0
LINE
8
BLACK
6
CONTINUOUS
10
5.179
20
-4.04687
11
5.091
21
-4.04687
0
LINE
8
BLACK
6
CONTINUOUS
10
5.091
20
-4.04687
11
5.08799
21
-4.04627
0
LINE
8
BLACK
6
CONTINUOUS
10
5.08799
20
-4.04627
11
5.08543
21
-4.04457
0
LINE
8
BLACK
6
CONTINUOUS
10
5.08543
20
-4.04457
11
5.08373
21
-4.04201
0
LINE
8
BLACK
6
CONTINUOUS
10
5.08373
20
-4.04201
11
5.08313
21
-4.039
0
LINE
8
BLACK
6
CONTINUOUS
10
5.08313
20
-4.039
11
5.08313
21
-3.951
0
LINE
8
BLACK
6
CONTINUOUS
10
5.08313
20
-3.951
11
5.08373
21
-3.94799
0
LINE
8
BLACK
6
CONTINUOUS
10
5.08373
20
-3.94799
11
5.08543
21
-3.94543
0
LINE
8
BLACK
6
CONTINUOUS
10
5.08543
20
-3.94543
11
5.08799
21
-3.94373
0
LINE
8
BLACK
6
CONTINUOUS
10
5.08799
20
-3.94373
11
5.091
21
-3.94313
0
LINE
8
BLACK
6
CONTINUOUS
10
5.091
20
-3.94313
11
5.179
21
-3.94313
0
LINE
8
BLACK
6
CONTINUOUS
10
5.179
20
-3.94313
11
5.18201
21
-3.94373
0
LINE
8
BLACK
6
CONTINUOUS
10
5.47534
20
-3.9566
11
5.48173
21
-3.95944
0
LINE
8
BLACK
6
CONTINUOUS
10
5.48173
20
-3.95944
11
5.48739
21
-3.96356
0
LINE
8
BLACK
6
CONTINUOUS
10
5.48739
20
-3.96356
11
5.49207
21
-3.96876
0
LINE
8
BLACK
6
CONTINUOUS
10
5.49207
20
-3.96876
11
5.49557
21
-3.97481
0
LINE
8
BLACK
6
CONTINUOUS
10
5.49557
20
-3.97481
11
5.49773
21
-3.98147
0
LINE
8
BLACK
6
CONTINUOUS
10
5.49773
20
-3.98147
11
5.49846
21
-3.98843
0
LINE
8
BLACK
6
CONTINUOUS
10
5.49846
20
-3.98843
11
5.49773
21
-3.99538
0
LINE
8
BLACK
6
CONTINUOUS
10
5.49773
20
-3.99538
11
5.49557
21
-4.00204
0
LINE
8
BLACK
6
CONTINUOUS
10
5.49557
20
-4.00204
11
5.49207
21
-4.0081
0
LINE
8
BLACK
6
CONTINUOUS
10
5.49207
20
-4.0081
11
5.48739
21
-4.01329
0
LINE
8
BLACK
6
CONTINUOUS
10
5.48739
20
-4.01329
11
5.48173
21
-4.01741
0
LINE
8
BLACK
6
CONTINUOUS
10
5.48173
20
-4.01741
11
5.47534
21
-4.02025
0
LINE
8
BLACK
6
CONTINUOUS
10
5.47534
20
-4.02025
11
5.4685
21
-4.02171
0
LINE
8
BLACK
6
CONTINUOUS
10
5.4685
20
-4.02171
11
5.4615
21
-4.02171
0
LINE
8
BLACK
6
CONTINUOUS
10
5.4615
20
-4.02171
11
5.45466
21
-4.02025
0
LINE
8
BLACK
6
CONTINUOUS
10
5.45466
20
-4.02025
11
5.44827
21
-4.01741
0
LINE
8
BLACK
6
CONTINUOUS
10
5.44827
20
-4.01741
11
5.44261
21
-4.01329
0
LINE
8
BLACK
6
CONTINUOUS
10
5.44261
20
-4.01329
11
5.43793
21
-4.0081
0
LINE
8
BLACK
6
CONTINUOUS
10
5.43793
20
-4.0081
11
5.43443
21
-4.00204
0
LINE
8
BLACK
6
CONTINUOUS
10
5.43443
20
-4.00204
11
5.43227
21
-3.99538
0
LINE
8
BLACK
6
CONTINUOUS
10
5.43227
20
-3.99538
11
5.43154
21
-3.98843
0
LINE
8
BLACK
6
CONTINUOUS
10
5.43154
20
-3.98843
11
5.43227
21
-3.98147
0
LINE
8
BLACK
6
CONTINUOUS
10
5.43227
20
-3.98147
11
5.43443
21
-3.97481
0
LINE
8
BLACK
6
CONTINUOUS
10
5.43443
20
-3.97481
11
5.43793
21
-3.96876
0
LINE
8
BLACK
6
CONTINUOUS
10
5.43793
20
-3.96876
11
5.44261
21
-3.96356
0
LINE
8
BLACK
6
CONTINUOUS
10
5.44261
20
-3.96356
11
5.44827
21
-3.95944
0
LINE
8
BLACK
6
CONTINUOUS
10
5.44827
20
-3.95944
11
5.45466
21
-3.9566
0
LINE
8
BLACK
6
CONTINUOUS
10
5.45466
20
-3.9566
11
5.4615
21
-3.95514
0
LINE
8
BLACK
6
CONTINUOUS
10
5.4615
20
-3.95514
11
5.4685
21
-3.95514
0
LINE
8
BLACK
6
CONTINUOUS
10
5.4685
20
-3.95514
11
5.47534
21
-3.9566
0
LINE
8
BLACK
6
CONTINUOUS
10
5.4936
20
-3.85713
11
5.49616
21
-3.85884
0
LINE
8
BLACK
6
CONTINUOUS
10
5.49616
20
-3.85884
11
5.49787
21
-3.8614
0
LINE
8
BLACK
6
CONTINUOUS
10
5.49787
20
-3.8614
11
5.49846
21
-3.86441
0
LINE
8
BLACK
6
CONTINUOUS
10
5.49846
20
-3.86441
11
5.49846
21
-3.91559
0
LINE
8
BLACK
6
CONTINUOUS
10
5.49846
20
-3.91559
11
5.49787
21
-3.9186
0
LINE
8
BLACK
6
CONTINUOUS
10
5.49787
20
-3.9186
11
5.49616
21
-3.92116
0
LINE
8
BLACK
6
CONTINUOUS
10
5.49616
20
-3.92116
11
5.4936
21
-3.92287
0
LINE
8
BLACK
6
CONTINUOUS
10
5.4936
20
-3.92287
11
5.49059
21
-3.92346
0
LINE
8
BLACK
6
CONTINUOUS
10
5.49059
20
-3.92346
11
5.43941
21
-3.92346
0
LINE
8
BLACK
6
CONTINUOUS
10
5.43941
20
-3.92346
11
5.4364
21
-3.92287
0
LINE
8
BLACK
6
CONTINUOUS
10
5.4364
20
-3.92287
11
5.43384
21
-3.92116
0
LINE
8
BLACK
6
CONTINUOUS
10
5.43384
20
-3.92116
11
5.43213
21
-3.9186
0
LINE
8
BLACK
6
CONTINUOUS
10
5.43213
20
-3.9186
11
5.43154
21
-3.91559
0
LINE
8
BLACK
6
CONTINUOUS
10
5.43154
20
-3.91559
11
5.43154
21
-3.86441
0
LINE
8
BLACK
6
CONTINUOUS
10
5.43154
20
-3.86441
11
5.43213
21
-3.8614
0
LINE
8
BLACK
6
CONTINUOUS
10
5.43213
20
-3.8614
11
5.43384
21
-3.85884
0
LINE
8
BLACK
6
CONTINUOUS
10
5.43384
20
-3.85884
11
5.4364
21
-3.85713
0
LINE
8
BLACK
6
CONTINUOUS
10
5.4364
20
-3.85713
11
5.43941
21
-3.85654
0
LINE
8
BLACK
6
CONTINUOUS
10
5.43941
20
-3.85654
11
5.49059
21
-3.85654
0
LINE
8
BLACK
6
CONTINUOUS
10
5.49059
20
-3.85654
11
5.4936
21
-3.85713
0
LINE
8
BLACK
6
CONTINUOUS
10
5.26333
20
-3.83812
11
5.26588
21
-3.83983
0
LINE
8
BLACK
6
CONTINUOUS
10
5.26588
20
-3.83983
11
5.26759
21
-3.84238
0
LINE
8
BLACK
6
CONTINUOUS
10
5.26759
20
-3.84238
11
5.26819
21
-3.84539
0
LINE
8
BLACK
6
CONTINUOUS
10
5.26819
20
-3.84539
11
5.26819
21
-3.89461
0
LINE
8
BLACK
6
CONTINUOUS
10
5.26819
20
-3.89461
11
5.26759
21
-3.89762
0
LINE
8
BLACK
6
CONTINUOUS
10
5.26759
20
-3.89762
11
5.26588
21
-3.90017
0
LINE
8
BLACK
6
CONTINUOUS
10
5.26588
20
-3.90017
11
5.26333
21
-3.90188
0
LINE
8
BLACK
6
CONTINUOUS
10
5.26333
20
-3.90188
11
5.26031
21
-3.90248
0
LINE
8
BLACK
6
CONTINUOUS
10
5.26031
20
-3.90248
11
5.22094
21
-3.90248
0
LINE
8
BLACK
6
CONTINUOUS
10
5.22094
20
-3.90248
11
5.21793
21
-3.90188
0
LINE
8
BLACK
6
CONTINUOUS
10
5.21793
20
-3.90188
11
5.21538
21
-3.90017
0
LINE
8
BLACK
6
CONTINUOUS
10
5.21538
20
-3.90017
11
5.21367
21
-3.89762
0
LINE
8
BLACK
6
CONTINUOUS
10
5.21367
20
-3.89762
11
5.21307
21
-3.89461
0
LINE
8
BLACK
6
CONTINUOUS
10
5.21307
20
-3.89461
11
5.21307
21
-3.84539
0
LINE
8
BLACK
6
CONTINUOUS
10
5.21307
20
-3.84539
11
5.21367
21
-3.84238
0
LINE
8
BLACK
6
CONTINUOUS
10
5.21367
20
-3.84238
11
5.21538
21
-3.83983
0
LINE
8
BLACK
6
CONTINUOUS
10
5.21538
20
-3.83983
11
5.21793
21
-3.83812
0
LINE
8
BLACK
6
CONTINUOUS
10
5.21793
20
-3.83812
11
5.22094
21
-3.83752
0
LINE
8
BLACK
6
CONTINUOUS
10
5.22094
20
-3.83752
11
5.26031
21
-3.83752
0
LINE
8
BLACK
6
CONTINUOUS
10
5.26031
20
-3.83752
11
5.26333
21
-3.83812
0
LINE
8
BLACK
6
CONTINUOUS
10
5.34207
20
-3.83812
11
5.34462
21
-3.83983
0
LINE
8
BLACK
6
CONTINUOUS
10
5.34462
20
-3.83983
11
5.34633
21
-3.84238
0
LINE
8
BLACK
6
CONTINUOUS
10
5.34633
20
-3.84238
11
5.34693
21
-3.84539
0
LINE
8
BLACK
6
CONTINUOUS
10
5.34693
20
-3.84539
11
5.34693
21
-3.89461
0
LINE
8
BLACK
6
CONTINUOUS
10
5.34693
20
-3.89461
11
5.34633
21
-3.89762
0
LINE
8
BLACK
6
CONTINUOUS
10
5.34633
20
-3.89762
11
5.34462
21
-3.90017
0
LINE
8
BLACK
6
CONTINUOUS
10
5.34462
20
-3.90017
11
5.34207
21
-3.90188
0
LINE
8
BLACK
6
CONTINUOUS
10
5.34207
20
-3.90188
11
5.33906
21
-3.90248
0
LINE
8
BLACK
6
CONTINUOUS
10
5.33906
20
-3.90248
11
5.29969
21
-3.90248
0
LINE
8
BLACK
6
CONTINUOUS
10
5.29969
20
-3.90248
11
5.29667
21
-3.90188
0
LINE
8
BLACK
6
CONTINUOUS
10
5.29667
20
-3.90188
11
5.29412
21
-3.90017
0
LINE
8
BLACK
6
CONTINUOUS
10
5.29412
20
-3.90017
11
5.29241
21
-3.89762
0
LINE
8
BLACK
6
CONTINUOUS
10
5.29241
20
-3.89762
11
5.29181
21
-3.89461
0
LINE
8
BLACK
6
CONTINUOUS
10
5.29181
20
-3.89461
11
5.29181
21
-3.84539
0
LINE
8
BLACK
6
CONTINUOUS
10
5.29181
20
-3.84539
11
5.29241
21
-3.84238
0
LINE
8
BLACK
6
CONTINUOUS
10
5.29241
20
-3.84238
11
5.29412
21
-3.83983
0
LINE
8
BLACK
6
CONTINUOUS
10
5.29412
20
-3.83983
11
5.29667
21
-3.83812
0
LINE
8
BLACK
6
CONTINUOUS
10
5.29667
20
-3.83812
11
5.29969
21
-3.83752
0
LINE
8
BLACK
6
CONTINUOUS
10
5.29969
20
-3.83752
11
5.33906
21
-3.83752
0
LINE
8
BLACK
6
CONTINUOUS
10
5.33906
20
-3.83752
11
5.34207
21
-3.83812
0
LINE
8
BLACK
6
CONTINUOUS
10
5.14215
20
-3.76591
11
5.1447
21
-3.76762
0
LINE
8
BLACK
6
CONTINUOUS
10
5.1447
20
-3.76762
11
5.14641
21
-3.77018
0
LINE
8
BLACK
6
CONTINUOUS
10
5.14641
20
-3.77018
11
5.14701
21
-3.77319
0
LINE
8
BLACK
6
CONTINUOUS
10
5.14701
20
-3.77319
11
5.14701
21
-3.79681
0
LINE
8
BLACK
6
CONTINUOUS
10
5.14701
20
-3.79681
11
5.14641
21
-3.79982
0
LINE
8
BLACK
6
CONTINUOUS
10
5.14641
20
-3.79982
11
5.1447
21
-3.80238
0
LINE
8
BLACK
6
CONTINUOUS
10
5.1447
20
-3.80238
11
5.14215
21
-3.80409
0
LINE
8
BLACK
6
CONTINUOUS
10
5.14215
20
-3.80409
11
5.13913
21
-3.80469
0
LINE
8
BLACK
6
CONTINUOUS
10
5.13913
20
-3.80469
11
5.05449
21
-3.80469
0
LINE
8
BLACK
6
CONTINUOUS
10
5.05449
20
-3.80469
11
5.05147
21
-3.80409
0
LINE
8
BLACK
6
CONTINUOUS
10
5.05147
20
-3.80409
11
5.04892
21
-3.80238
0
LINE
8
BLACK
6
CONTINUOUS
10
5.04892
20
-3.80238
11
5.04721
21
-3.79982
0
LINE
8
BLACK
6
CONTINUOUS
10
5.04721
20
-3.79982
11
5.04661
21
-3.79681
0
LINE
8
BLACK
6
CONTINUOUS
10
5.04661
20
-3.79681
11
5.04661
21
-3.77319
0
LINE
8
BLACK
6
CONTINUOUS
10
5.04661
20
-3.77319
11
5.04721
21
-3.77018
0
LINE
8
BLACK
6
CONTINUOUS
10
5.04721
20
-3.77018
11
5.04892
21
-3.76762
0
LINE
8
BLACK
6
CONTINUOUS
10
5.04892
20
-3.76762
11
5.05147
21
-3.76591
0
LINE
8
BLACK
6
CONTINUOUS
10
5.05147
20
-3.76591
11
5.05449
21
-3.76531
0
LINE
8
BLACK
6
CONTINUOUS
10
5.05449
20
-3.76531
11
5.13913
21
-3.76531
0
LINE
8
BLACK
6
CONTINUOUS
10
5.13913
20
-3.76531
11
5.14215
21
-3.76591
0
LINE
8
BLACK
6
CONTINUOUS
10
5.36853
20
-3.76591
11
5.37108
21
-3.76762
0
LINE
8
BLACK
6
CONTINUOUS
10
5.37108
20
-3.76762
11
5.37279
21
-3.77018
0
LINE
8
BLACK
6
CONTINUOUS
10
5.37279
20
-3.77018
11
5.37339
21
-3.77319
0
LINE
8
BLACK
6
CONTINUOUS
10
5.37339
20
-3.77319
11
5.37339
21
-3.79681
0
LINE
8
BLACK
6
CONTINUOUS
10
5.37339
20
-3.79681
11
5.37279
21
-3.79982
0
LINE
8
BLACK
6
CONTINUOUS
10
5.37279
20
-3.79982
11
5.37108
21
-3.80238
0
LINE
8
BLACK
6
CONTINUOUS
10
5.37108
20
-3.80238
11
5.36853
21
-3.80409
0
LINE
8
BLACK
6
CONTINUOUS
10
5.36853
20
-3.80409
11
5.36551
21
-3.80469
0
LINE
8
BLACK
6
CONTINUOUS
10
5.36551
20
-3.80469
11
5.28087
21
-3.80469
0
LINE
8
BLACK
6
CONTINUOUS
10
5.28087
20
-3.80469
11
5.27785
21
-3.80409
0
LINE
8
BLACK
6
CONTINUOUS
10
5.27785
20
-3.80409
11
5.2753
21
-3.80238
0
LINE
8
BLACK
6
CONTINUOUS
10
5.2753
20
-3.80238
11
5.27359
21
-3.79982
0
LINE
8
BLACK
6
CONTINUOUS
10
5.27359
20
-3.79982
11
5.27299
21
-3.79681
0
LINE
8
BLACK
6
CONTINUOUS
10
5.27299
20
-3.79681
11
5.27299
21
-3.77319
0
LINE
8
BLACK
6
CONTINUOUS
10
5.27299
20
-3.77319
11
5.27359
21
-3.77018
0
LINE
8
BLACK
6
CONTINUOUS
10
5.27359
20
-3.77018
11
5.2753
21
-3.76762
0
LINE
8
BLACK
6
CONTINUOUS
10
5.2753
20
-3.76762
11
5.27785
21
-3.76591
0
LINE
8
BLACK
6
CONTINUOUS
10
5.27785
20
-3.76591
11
5.28087
21
-3.76531
0
LINE
8
BLACK
6
CONTINUOUS
10
5.28087
20
-3.76531
11
5.36551
21
-3.76531
0
LINE
8
BLACK
6
CONTINUOUS
10
5.36551
20
-3.76531
11
5.36853
21
-3.76591
0
LINE
8
BLACK
6
CONTINUOUS
10
5.00762
20
-3.74241
11
5.01017
21
-3.74412
0
LINE
8
BLACK
6
CONTINUOUS
10
5.01017
20
-3.74412
11
5.01188
21
-3.74667
0
LINE
8
BLACK
6
CONTINUOUS
10
5.01188
20
-3.74667
11
5.01248
21
-3.74969
0
LINE
8
BLACK
6
CONTINUOUS
10
5.01248
20
-3.74969
11
5.01248
21
-3.78906
0
LINE
8
BLACK
6
CONTINUOUS
10
5.01248
20
-3.78906
11
5.01188
21
-3.79207
0
LINE
8
BLACK
6
CONTINUOUS
10
5.01188
20
-3.79207
11
5.01017
21
-3.79462
0
LINE
8
BLACK
6
CONTINUOUS
10
5.01017
20
-3.79462
11
5.00762
21
-3.79633
0
LINE
8
BLACK
6
CONTINUOUS
10
5.00762
20
-3.79633
11
5.00461
21
-3.79693
0
LINE
8
BLACK
6
CONTINUOUS
10
5.00461
20
-3.79693
11
4.95539
21
-3.79693
0
LINE
8
BLACK
6
CONTINUOUS
10
4.95539
20
-3.79693
11
4.95238
21
-3.79633
0
LINE
8
BLACK
6
CONTINUOUS
10
4.95238
20
-3.79633
11
4.94983
21
-3.79462
0
LINE
8
BLACK
6
CONTINUOUS
10
4.94983
20
-3.79462
11
4.94812
21
-3.79207
0
LINE
8
BLACK
6
CONTINUOUS
10
4.94812
20
-3.79207
11
4.94752
21
-3.78906
0
LINE
8
BLACK
6
CONTINUOUS
10
4.94752
20
-3.78906
11
4.94752
21
-3.74969
0
LINE
8
BLACK
6
CONTINUOUS
10
4.94752
20
-3.74969
11
4.94812
21
-3.74667
0
LINE
8
BLACK
6
CONTINUOUS
10
4.94812
20
-3.74667
11
4.94983
21
-3.74412
0
LINE
8
BLACK
6
CONTINUOUS
10
4.94983
20
-3.74412
11
4.95238
21
-3.74241
0
LINE
8
BLACK
6
CONTINUOUS
10
4.95238
20
-3.74241
11
4.95539
21
-3.74181
0
LINE
8
BLACK
6
CONTINUOUS
10
4.95539
20
-3.74181
11
5.00461
21
-3.74181
0
LINE
8
BLACK
6
CONTINUOUS
10
5.00461
20
-3.74181
11
5.00762
21
-3.74241
0
LINE
8
BLACK
6
CONTINUOUS
10
4.84939
20
-3.72713
11
4.85195
21
-3.72884
0
LINE
8
BLACK
6
CONTINUOUS
10
4.85195
20
-3.72884
11
4.85365
21
-3.7314
0
LINE
8
BLACK
6
CONTINUOUS
10
4.85365
20
-3.7314
11
4.85425
21
-3.73441
0
LINE
8
BLACK
6
CONTINUOUS
10
4.85425
20
-3.73441
11
4.85425
21
-3.78559
0
LINE
8
BLACK
6
CONTINUOUS
10
4.85425
20
-3.78559
11
4.85365
21
-3.7886
0
LINE
8
BLACK
6
CONTINUOUS
10
4.85365
20
-3.7886
11
4.85195
21
-3.79116
0
LINE
8
BLACK
6
CONTINUOUS
10
4.85195
20
-3.79116
11
4.84939
21
-3.79287
0
LINE
8
BLACK
6
CONTINUOUS
10
4.84939
20
-3.79287
11
4.84638
21
-3.79346
0
LINE
8
BLACK
6
CONTINUOUS
10
4.84638
20
-3.79346
11
4.81882
21
-3.79346
0
LINE
8
BLACK
6
CONTINUOUS
10
4.81882
20
-3.79346
11
4.81581
21
-3.79287
0
LINE
8
BLACK
6
CONTINUOUS
10
4.81581
20
-3.79287
11
4.81325
21
-3.79116
0
LINE
8
BLACK
6
CONTINUOUS
10
4.81325
20
-3.79116
11
4.81154
21
-3.7886
0
LINE
8
BLACK
6
CONTINUOUS
10
4.81154
20
-3.7886
11
4.81094
21
-3.78559
0
LINE
8
BLACK
6
CONTINUOUS
10
4.81094
20
-3.78559
11
4.81094
21
-3.73441
0
LINE
8
BLACK
6
CONTINUOUS
10
4.81094
20
-3.73441
11
4.81154
21
-3.7314
0
LINE
8
BLACK
6
CONTINUOUS
10
4.81154
20
-3.7314
11
4.81325
21
-3.72884
0
LINE
8
BLACK
6
CONTINUOUS
10
4.81325
20
-3.72884
11
4.81581
21
-3.72713
0
LINE
8
BLACK
6
CONTINUOUS
10
4.81581
20
-3.72713
11
4.81882
21
-3.72654
0
LINE
8
BLACK
6
CONTINUOUS
10
4.81882
20
-3.72654
11
4.84638
21
-3.72654
0
LINE
8
BLACK
6
CONTINUOUS
10
4.84638
20
-3.72654
11
4.84939
21
-3.72713
0
LINE
8
BLACK
6
CONTINUOUS
10
4.92419
20
-3.72713
11
4.92675
21
-3.72884
0
LINE
8
BLACK
6
CONTINUOUS
10
4.92675
20
-3.72884
11
4.92846
21
-3.7314
0
LINE
8
BLACK
6
CONTINUOUS
10
4.92846
20
-3.7314
11
4.92906
21
-3.73441
0
LINE
8
BLACK
6
CONTINUOUS
10
4.92906
20
-3.73441
11
4.92906
21
-3.78559
0
LINE
8
BLACK
6
CONTINUOUS
10
4.92906
20
-3.78559
11
4.92846
21
-3.7886
0
LINE
8
BLACK
6
CONTINUOUS
10
4.92846
20
-3.7886
11
4.92675
21
-3.79116
0
LINE
8
BLACK
6
CONTINUOUS
10
4.92675
20
-3.79116
11
4.92419
21
-3.79287
0
LINE
8
BLACK
6
CONTINUOUS
10
4.92419
20
-3.79287
11
4.92118
21
-3.79346
0
LINE
8
BLACK
6
CONTINUOUS
10
4.92118
20
-3.79346
11
4.89362
21
-3.79346
0
LINE
8
BLACK
6
CONTINUOUS
10
4.89362
20
-3.79346
11
4.89061
21
-3.79287
0
LINE
8
BLACK
6
CONTINUOUS
10
4.89061
20
-3.79287
11
4.88805
21
-3.79116
0
LINE
8
BLACK
6
CONTINUOUS
10
4.88805
20
-3.79116
11
4.88635
21
-3.7886
0
LINE
8
BLACK
6
CONTINUOUS
10
4.88635
20
-3.7886
11
4.88575
21
-3.78559
0
LINE
8
BLACK
6
CONTINUOUS
10
4.88575
20
-3.78559
11
4.88575
21
-3.73441
0
LINE
8
BLACK
6
CONTINUOUS
10
4.88575
20
-3.73441
11
4.88635
21
-3.7314
0
LINE
8
BLACK
6
CONTINUOUS
10
4.88635
20
-3.7314
11
4.88805
21
-3.72884
0
LINE
8
BLACK
6
CONTINUOUS
10
4.88805
20
-3.72884
11
4.89061
21
-3.72713
0
LINE
8
BLACK
6
CONTINUOUS
10
4.89061
20
-3.72713
11
4.89362
21
-3.72654
0
LINE
8
BLACK
6
CONTINUOUS
10
4.89362
20
-3.72654
11
4.92118
21
-3.72654
0
LINE
8
BLACK
6
CONTINUOUS
10
4.92118
20
-3.72654
11
4.92419
21
-3.72713
0
LINE
8
BLACK
6
CONTINUOUS
10
4.70939
20
-3.72213
11
4.71195
21
-3.72384
0
LINE
8
BLACK
6
CONTINUOUS
10
4.71195
20
-3.72384
11
4.71365
21
-3.7264
0
LINE
8
BLACK
6
CONTINUOUS
10
4.71365
20
-3.7264
11
4.71425
21
-3.72941
0
LINE
8
BLACK
6
CONTINUOUS
10
4.71425
20
-3.72941
11
4.71425
21
-3.78059
0
LINE
8
BLACK
6
CONTINUOUS
10
4.71425
20
-3.78059
11
4.71365
21
-3.7836
0
LINE
8
BLACK
6
CONTINUOUS
10
4.71365
20
-3.7836
11
4.71195
21
-3.78616
0
LINE
8
BLACK
6
CONTINUOUS
10
4.71195
20
-3.78616
11
4.70939
21
-3.78787
0
LINE
8
BLACK
6
CONTINUOUS
10
4.70939
20
-3.78787
11
4.70638
21
-3.78846
0
LINE
8
BLACK
6
CONTINUOUS
10
4.70638
20
-3.78846
11
4.67882
21
-3.78846
0
LINE
8
BLACK
6
CONTINUOUS
10
4.67882
20
-3.78846
11
4.67581
21
-3.78787
0
LINE
8
BLACK
6
CONTINUOUS
10
4.67581
20
-3.78787
11
4.67325
21
-3.78616
0
LINE
8
BLACK
6
CONTINUOUS
10
4.67325
20
-3.78616
11
4.67154
21
-3.7836
0
LINE
8
BLACK
6
CONTINUOUS
10
4.67154
20
-3.7836
11
4.67094
21
-3.78059
0
LINE
8
BLACK
6
CONTINUOUS
10
4.67094
20
-3.78059
11
4.67094
21
-3.72941
0
LINE
8
BLACK
6
CONTINUOUS
10
4.67094
20
-3.72941
11
4.67154
21
-3.7264
0
LINE
8
BLACK
6
CONTINUOUS
10
4.67154
20
-3.7264
11
4.67325
21
-3.72384
0
LINE
8
BLACK
6
CONTINUOUS
10
4.67325
20
-3.72384
11
4.67581
21
-3.72213
0
LINE
8
BLACK
6
CONTINUOUS
10
4.67581
20
-3.72213
11
4.67882
21
-3.72154
0
LINE
8
BLACK
6
CONTINUOUS
10
4.67882
20
-3.72154
11
4.70638
21
-3.72154
0
LINE
8
BLACK
6
CONTINUOUS
10
4.70638
20
-3.72154
11
4.70939
21
-3.72213
0
LINE
8
BLACK
6
CONTINUOUS
10
4.78419
20
-3.72213
11
4.78675
21
-3.72384
0
LINE
8
BLACK
6
CONTINUOUS
10
4.78675
20
-3.72384
11
4.78846
21
-3.7264
0
LINE
8
BLACK
6
CONTINUOUS
10
4.78846
20
-3.7264
11
4.78906
21
-3.72941
0
LINE
8
BLACK
6
CONTINUOUS
10
4.78906
20
-3.72941
11
4.78906
21
-3.78059
0
LINE
8
BLACK
6
CONTINUOUS
10
4.78906
20
-3.78059
11
4.78846
21
-3.7836
0
LINE
8
BLACK
6
CONTINUOUS
10
4.78846
20
-3.7836
11
4.78675
21
-3.78616
0
LINE
8
BLACK
6
CONTINUOUS
10
4.78675
20
-3.78616
11
4.78419
21
-3.78787
0
LINE
8
BLACK
6
CONTINUOUS
10
4.78419
20
-3.78787
11
4.78118
21
-3.78846
0
LINE
8
BLACK
6
CONTINUOUS
10
4.78118
20
-3.78846
11
4.75362
21
-3.78846
0
LINE
8
BLACK
6
CONTINUOUS
10
4.75362
20
-3.78846
11
4.75061
21
-3.78787
0
LINE
8
BLACK
6
CONTINUOUS
10
4.75061
20
-3.78787
11
4.74805
21
-3.78616
0
LINE
8
BLACK
6
CONTINUOUS
10
4.74805
20
-3.78616
11
4.74635
21
-3.7836
0
LINE
8
BLACK
6
CONTINUOUS
10
4.74635
20
-3.7836
11
4.74575
21
-3.78059
0
LINE
8
BLACK
6
CONTINUOUS
10
4.74575
20
-3.78059
11
4.74575
21
-3.72941
0
LINE
8
BLACK
6
CONTINUOUS
10
4.74575
20
-3.72941
11
4.74635
21
-3.7264
0
LINE
8
BLACK
6
CONTINUOUS
10
4.74635
20
-3.7264
11
4.74805
21
-3.72384
0
LINE
8
BLACK
6
CONTINUOUS
10
4.74805
20
-3.72384
11
4.75061
21
-3.72213
0
LINE
8
BLACK
6
CONTINUOUS
10
4.75061
20
-3.72213
11
4.75362
21
-3.72154
0
LINE
8
BLACK
6
CONTINUOUS
10
4.75362
20
-3.72154
11
4.78118
21
-3.72154
0
LINE
8
BLACK
6
CONTINUOUS
10
4.78118
20
-3.72154
11
4.78419
21
-3.72213
0
LINE
8
BLACK
6
CONTINUOUS
10
5.21005
20
-3.6326
11
5.21007
21
-3.6326
0
LINE
8
BLACK
6
CONTINUOUS
10
5.21007
20
-3.6326
11
5.25633
21
-3.6326
0
LINE
8
BLACK
6
CONTINUOUS
10
5.25633
20
-3.6326
11
5.25934
21
-3.6332
0
LINE
8
BLACK
6
CONTINUOUS
10
5.25934
20
-3.6332
11
5.2619
21
-3.6349
0
LINE
8
BLACK
6
CONTINUOUS
10
5.2619
20
-3.6349
11
5.2636
21
-3.63746
0
LINE
8
BLACK
6
CONTINUOUS
10
5.2636
20
-3.63746
11
5.2642
21
-3.64047
0
LINE
8
BLACK
6
CONTINUOUS
10
5.2642
20
-3.64047
11
5.2642
21
-3.68673
0
LINE
8
BLACK
6
CONTINUOUS
10
5.2642
20
-3.68673
11
5.26413
21
-3.68708
0
LINE
8
BLACK
6
CONTINUOUS
10
5.26413
20
-3.68708
11
5.26413
21
-3.733
0
LINE
8
BLACK
6
CONTINUOUS
10
5.26413
20
-3.733
11
5.26413
21
-3.733
0
LINE
8
BLACK
6
CONTINUOUS
10
5.26413
20
-3.733
11
5.26413
21
-3.77926
0
LINE
8
BLACK
6
CONTINUOUS
10
5.26413
20
-3.77926
11
5.26353
21
-3.78227
0
LINE
8
BLACK
6
CONTINUOUS
10
5.26353
20
-3.78227
11
5.26183
21
-3.78483
0
LINE
8
BLACK
6
CONTINUOUS
10
5.26183
20
-3.78483
11
5.25927
21
-3.78653
0
LINE
8
BLACK
6
CONTINUOUS
10
5.25927
20
-3.78653
11
5.25626
21
-3.78713
0
LINE
8
BLACK
6
CONTINUOUS
10
5.25626
20
-3.78713
11
5.21
21
-3.78713
0
LINE
8
BLACK
6
CONTINUOUS
10
5.21
20
-3.78713
11
5.16374
21
-3.78713
0
LINE
8
BLACK
6
CONTINUOUS
10
5.16374
20
-3.78713
11
5.16073
21
-3.78653
0
LINE
8
BLACK
6
CONTINUOUS
10
5.16073
20
-3.78653
11
5.15817
21
-3.78483
0
LINE
8
BLACK
6
CONTINUOUS
10
5.15817
20
-3.78483
11
5.15647
21
-3.78227
0
LINE
8
BLACK
6
CONTINUOUS
10
5.15647
20
-3.78227
11
5.15587
21
-3.77926
0
LINE
8
BLACK
6
CONTINUOUS
10
5.15587
20
-3.77926
11
5.15587
21
-3.733
0
LINE
8
BLACK
6
CONTINUOUS
10
5.15587
20
-3.733
11
5.15587
21
-3.68674
0
LINE
8
BLACK
6
CONTINUOUS
10
5.15587
20
-3.68674
11
5.1559
21
-3.68659
0
LINE
8
BLACK
6
CONTINUOUS
10
5.1559
20
-3.68659
11
5.1559
21
-3.64047
0
LINE
8
BLACK
6
CONTINUOUS
10
5.1559
20
-3.64047
11
5.1565
21
-3.63746
0
LINE
8
BLACK
6
CONTINUOUS
10
5.1565
20
-3.63746
11
5.1582
21
-3.6349
0
LINE
8
BLACK
6
CONTINUOUS
10
5.1582
20
-3.6349
11
5.16076
21
-3.6332
0
LINE
8
BLACK
6
CONTINUOUS
10
5.16076
20
-3.6332
11
5.16377
21
-3.6326
0
LINE
8
BLACK
6
CONTINUOUS
10
5.16377
20
-3.6326
11
5.21003
21
-3.6326
0
LINE
8
BLACK
6
CONTINUOUS
10
5.21003
20
-3.6326
11
5.21005
21
-3.6326
0
LINE
8
BLACK
6
CONTINUOUS
10
5.84801
20
-3.61773
11
5.85057
21
-3.61943
0
LINE
8
BLACK
6
CONTINUOUS
10
5.85057
20
-3.61943
11
5.85227
21
-3.62199
0
LINE
8
BLACK
6
CONTINUOUS
10
5.85227
20
-3.62199
11
5.85287
21
-3.625
0
LINE
8
BLACK
6
CONTINUOUS
10
5.85287
20
-3.625
11
5.85287
21
-3.775
0
LINE
8
BLACK
6
CONTINUOUS
10
5.85287
20
-3.775
11
5.85227
21
-3.77801
0
LINE
8
BLACK
6
CONTINUOUS
10
5.85227
20
-3.77801
11
5.85057
21
-3.78057
0
LINE
8
BLACK
6
CONTINUOUS
10
5.85057
20
-3.78057
11
5.84801
21
-3.78227
0
LINE
8
BLACK
6
CONTINUOUS
10
5.84801
20
-3.78227
11
5.845
21
-3.78287
0
LINE
8
BLACK
6
CONTINUOUS
10
5.845
20
-3.78287
11
5.695
21
-3.78287
0
LINE
8
BLACK
6
CONTINUOUS
10
5.695
20
-3.78287
11
5.69199
21
-3.78227
0
LINE
8
BLACK
6
CONTINUOUS
10
5.69199
20
-3.78227
11
5.68943
21
-3.78057
0
LINE
8
BLACK
6
CONTINUOUS
10
5.68943
20
-3.78057
11
5.68773
21
-3.77801
0
LINE
8
BLACK
6
CONTINUOUS
10
5.68773
20
-3.77801
11
5.68713
21
-3.775
0
LINE
8
BLACK
6
CONTINUOUS
10
5.68713
20
-3.775
11
5.68713
21
-3.625
0
LINE
8
BLACK
6
CONTINUOUS
10
5.68713
20
-3.625
11
5.68773
21
-3.62199
0
LINE
8
BLACK
6
CONTINUOUS
10
5.68773
20
-3.62199
11
5.68943
21
-3.61943
0
LINE
8
BLACK
6
CONTINUOUS
10
5.68943
20
-3.61943
11
5.69199
21
-3.61773
0
LINE
8
BLACK
6
CONTINUOUS
10
5.69199
20
-3.61773
11
5.695
21
-3.61713
0
LINE
8
BLACK
6
CONTINUOUS
10
5.695
20
-3.61713
11
5.845
21
-3.61713
0
LINE
8
BLACK
6
CONTINUOUS
10
5.845
20
-3.61713
11
5.84801
21
-3.61773
0
LINE
8
BLACK
6
CONTINUOUS
10
6.04486
20
-3.61773
11
6.04742
21
-3.61943
0
LINE
8
BLACK
6
CONTINUOUS
10
6.04742
20
-3.61943
11
6.04913
21
-3.62199
0
LINE
8
BLACK
6
CONTINUOUS
10
6.04913
20
-3.62199
11
6.04972
21
-3.625
0
LINE
8
BLACK
6
CONTINUOUS
10
6.04972
20
-3.625
11
6.04972
21
-3.775
0
LINE
8
BLACK
6
CONTINUOUS
10
6.04972
20
-3.775
11
6.04913
21
-3.77801
0
LINE
8
BLACK
6
CONTINUOUS
10
6.04913
20
-3.77801
11
6.04742
21
-3.78057
0
LINE
8
BLACK
6
CONTINUOUS
10
6.04742
20
-3.78057
11
6.04486
21
-3.78227
0
LINE
8
BLACK
6
CONTINUOUS
10
6.04486
20
-3.78227
11
6.04185
21
-3.78287
0
LINE
8
BLACK
6
CONTINUOUS
10
6.04185
20
-3.78287
11
5.89185
21
-3.78287
0
LINE
8
BLACK
6
CONTINUOUS
10
5.89185
20
-3.78287
11
5.88884
21
-3.78227
0
LINE
8
BLACK
6
CONTINUOUS
10
5.88884
20
-3.78227
11
5.88628
21
-3.78057
0
LINE
8
BLACK
6
CONTINUOUS
10
5.88628
20
-3.78057
11
5.88458
21
-3.77801
0
LINE
8
BLACK
6
CONTINUOUS
10
5.88458
20
-3.77801
11
5.88398
21
-3.775
0
LINE
8
BLACK
6
CONTINUOUS
10
5.88398
20
-3.775
11
5.88398
21
-3.625
0
LINE
8
BLACK
6
CONTINUOUS
10
5.88398
20
-3.625
11
5.88458
21
-3.62199
0
LINE
8
BLACK
6
CONTINUOUS
10
5.88458
20
-3.62199
11
5.88628
21
-3.61943
0
LINE
8
BLACK
6
CONTINUOUS
10
5.88628
20
-3.61943
11
5.88884
21
-3.61773
0
LINE
8
BLACK
6
CONTINUOUS
10
5.88884
20
-3.61773
11
5.89185
21
-3.61713
0
LINE
8
BLACK
6
CONTINUOUS
10
5.89185
20
-3.61713
11
6.04185
21
-3.61713
0
LINE
8
BLACK
6
CONTINUOUS
10
6.04185
20
-3.61713
11
6.04486
21
-3.61773
0
LINE
8
BLACK
6
CONTINUOUS
10
5.14215
20
-3.71591
11
5.1447
21
-3.71762
0
LINE
8
BLACK
6
CONTINUOUS
10
5.1447
20
-3.71762
11
5.14641
21
-3.72018
0
LINE
8
BLACK
6
CONTINUOUS
10
5.14641
20
-3.72018
11
5.14701
21
-3.72319
0
LINE
8
BLACK
6
CONTINUOUS
10
5.14701
20
-3.72319
11
5.14701
21
-3.74681
0
LINE
8
BLACK
6
CONTINUOUS
10
5.14701
20
-3.74681
11
5.14641
21
-3.74982
0
LINE
8
BLACK
6
CONTINUOUS
10
5.14641
20
-3.74982
11
5.1447
21
-3.75238
0
LINE
8
BLACK
6
CONTINUOUS
10
5.1447
20
-3.75238
11
5.14215
21
-3.75409
0
LINE
8
BLACK
6
CONTINUOUS
10
5.14215
20
-3.75409
11
5.13913
21
-3.75469
0
LINE
8
BLACK
6
CONTINUOUS
10
5.13913
20
-3.75469
11
5.05449
21
-3.75469
0
LINE
8
BLACK
6
CONTINUOUS
10
5.05449
20
-3.75469
11
5.05147
21
-3.75409
0
LINE
8
BLACK
6
CONTINUOUS
10
5.05147
20
-3.75409
11
5.04892
21
-3.75238
0
LINE
8
BLACK
6
CONTINUOUS
10
5.04892
20
-3.75238
11
5.04721
21
-3.74982
0
LINE
8
BLACK
6
CONTINUOUS
10
5.04721
20
-3.74982
11
5.04661
21
-3.74681
0
LINE
8
BLACK
6
CONTINUOUS
10
5.04661
20
-3.74681
11
5.04661
21
-3.72319
0
LINE
8
BLACK
6
CONTINUOUS
10
5.04661
20
-3.72319
11
5.04721
21
-3.72018
0
LINE
8
BLACK
6
CONTINUOUS
10
5.04721
20
-3.72018
11
5.04892
21
-3.71762
0
LINE
8
BLACK
6
CONTINUOUS
10
5.04892
20
-3.71762
11
5.05147
21
-3.71591
0
LINE
8
BLACK
6
CONTINUOUS
10
5.05147
20
-3.71591
11
5.05449
21
-3.71531
0
LINE
8
BLACK
6
CONTINUOUS
10
5.05449
20
-3.71531
11
5.13913
21
-3.71531
0
LINE
8
BLACK
6
CONTINUOUS
10
5.13913
20
-3.71531
11
5.14215
21
-3.71591
0
LINE
8
BLACK
6
CONTINUOUS
10
5.36853
20
-3.71591
11
5.37108
21
-3.71762
0
LINE
8
BLACK
6
CONTINUOUS
10
5.37108
20
-3.71762
11
5.37279
21
-3.72018
0
LINE
8
BLACK
6
CONTINUOUS
10
5.37279
20
-3.72018
11
5.37339
21
-3.72319
0
LINE
8
BLACK
6
CONTINUOUS
10
5.37339
20
-3.72319
11
5.37339
21
-3.74681
0
LINE
8
BLACK
6
CONTINUOUS
10
5.37339
20
-3.74681
11
5.37279
21
-3.74982
0
LINE
8
BLACK
6
CONTINUOUS
10
5.37279
20
-3.74982
11
5.37108
21
-3.75238
0
LINE
8
BLACK
6
CONTINUOUS
10
5.37108
20
-3.75238
11
5.36853
21
-3.75409
0
LINE
8
BLACK
6
CONTINUOUS
10
5.36853
20
-3.75409
11
5.36551
21
-3.75469
0
LINE
8
BLACK
6
CONTINUOUS
10
5.36551
20
-3.75469
11
5.28087
21
-3.75469
0
LINE
8
BLACK
6
CONTINUOUS
10
5.28087
20
-3.75469
11
5.27785
21
-3.75409
0
LINE
8
BLACK
6
CONTINUOUS
10
5.27785
20
-3.75409
11
5.2753
21
-3.75238
0
LINE
8
BLACK
6
CONTINUOUS
10
5.2753
20
-3.75238
11
5.27359
21
-3.74982
0
LINE
8
BLACK
6
CONTINUOUS
10
5.27359
20
-3.74982
11
5.27299
21
-3.74681
0
LINE
8
BLACK
6
CONTINUOUS
10
5.27299
20
-3.74681
11
5.27299
21
-3.72319
0
LINE
8
BLACK
6
CONTINUOUS
10
5.27299
20
-3.72319
11
5.27359
21
-3.72018
0
LINE
8
BLACK
6
CONTINUOUS
10
5.27359
20
-3.72018
11
5.2753
21
-3.71762
0
LINE
8
BLACK
6
CONTINUOUS
10
5.2753
20
-3.71762
11
5.27785
21
-3.71591
0
LINE
8
BLACK
6
CONTINUOUS
10
5.27785
20
-3.71591
11
5.28087
21
-3.71531
0
LINE
8
BLACK
6
CONTINUOUS
10
5.28087
20
-3.71531
11
5.36551
21
-3.71531
0
LINE
8
BLACK
6
CONTINUOUS
10
5.36551
20
-3.71531
11
5.36853
21
-3.71591
0
LINE
8
BLACK
6
CONTINUOUS
10
5.53085
20
-3.61891
11
5.5334
21
-3.62061
0
LINE
8
BLACK
6
CONTINUOUS
10
5.5334
20
-3.62061
11
5.53511
21
-3.62317
0
LINE
8
BLACK
6
CONTINUOUS
10
5.53511
20
-3.62317
11
5.53571
21
-3.62618
0
LINE
8
BLACK
6
CONTINUOUS
10
5.53571
20
-3.62618
11
5.53571
21
-3.71949
0
LINE
8
BLACK
6
CONTINUOUS
10
5.53571
20
-3.71949
11
5.53511
21
-3.7225
0
LINE
8
BLACK
6
CONTINUOUS
10
5.53511
20
-3.7225
11
5.5334
21
-3.72506
0
LINE
8
BLACK
6
CONTINUOUS
10
5.5334
20
-3.72506
11
5.53085
21
-3.72676
0
LINE
8
BLACK
6
CONTINUOUS
10
5.53085
20
-3.72676
11
5.52783
21
-3.72736
0
LINE
8
BLACK
6
CONTINUOUS
10
5.52783
20
-3.72736
11
5.43217
21
-3.72736
0
LINE
8
BLACK
6
CONTINUOUS
10
5.43217
20
-3.72736
11
5.42915
21
-3.72676
0
LINE
8
BLACK
6
CONTINUOUS
10
5.42915
20
-3.72676
11
5.4266
21
-3.72506
0
LINE
8
BLACK
6
CONTINUOUS
10
5.4266
20
-3.72506
11
5.42489
21
-3.7225
0
LINE
8
BLACK
6
CONTINUOUS
10
5.42489
20
-3.7225
11
5.42429
21
-3.71949
0
LINE
8
BLACK
6
CONTINUOUS
10
5.42429
20
-3.71949
11
5.42429
21
-3.62618
0
LINE
8
BLACK
6
CONTINUOUS
10
5.42429
20
-3.62618
11
5.42489
21
-3.62317
0
LINE
8
BLACK
6
CONTINUOUS
10
5.42489
20
-3.62317
11
5.4266
21
-3.62061
0
LINE
8
BLACK
6
CONTINUOUS
10
5.4266
20
-3.62061
11
5.42915
21
-3.61891
0
LINE
8
BLACK
6
CONTINUOUS
10
5.42915
20
-3.61891
11
5.43217
21
-3.61831
0
LINE
8
BLACK
6
CONTINUOUS
10
5.43217
20
-3.61831
11
5.52783
21
-3.61831
0
LINE
8
BLACK
6
CONTINUOUS
10
5.52783
20
-3.61831
11
5.53085
21
-3.61891
0
LINE
8
BLACK
6
CONTINUOUS
10
5.00762
20
-3.66367
11
5.01017
21
-3.66538
0
LINE
8
BLACK
6
CONTINUOUS
10
5.01017
20
-3.66538
11
5.01188
21
-3.66793
0
LINE
8
BLACK
6
CONTINUOUS
10
5.01188
20
-3.66793
11
5.01248
21
-3.67094
0
LINE
8
BLACK
6
CONTINUOUS
10
5.01248
20
-3.67094
11
5.01248
21
-3.71031
0
LINE
8
BLACK
6
CONTINUOUS
10
5.01248
20
-3.71031
11
5.01188
21
-3.71333
0
LINE
8
BLACK
6
CONTINUOUS
10
5.01188
20
-3.71333
11
5.01017
21
-3.71588
0
LINE
8
BLACK
6
CONTINUOUS
10
5.01017
20
-3.71588
11
5.00762
21
-3.71759
0
LINE
8
BLACK
6
CONTINUOUS
10
5.00762
20
-3.71759
11
5.00461
21
-3.71819
0
LINE
8
BLACK
6
CONTINUOUS
10
5.00461
20
-3.71819
11
4.95539
21
-3.71819
0
LINE
8
BLACK
6
CONTINUOUS
10
4.95539
20
-3.71819
11
4.95238
21
-3.71759
0
LINE
8
BLACK
6
CONTINUOUS
10
4.95238
20
-3.71759
11
4.94983
21
-3.71588
0
LINE
8
BLACK
6
CONTINUOUS
10
4.94983
20
-3.71588
11
4.94812
21
-3.71333
0
LINE
8
BLACK
6
CONTINUOUS
10
4.94812
20
-3.71333
11
4.94752
21
-3.71031
0
LINE
8
BLACK
6
CONTINUOUS
10
4.94752
20
-3.71031
11
4.94752
21
-3.67094
0
LINE
8
BLACK
6
CONTINUOUS
10
4.94752
20
-3.67094
11
4.94812
21
-3.66793
0
LINE
8
BLACK
6
CONTINUOUS
10
4.94812
20
-3.66793
11
4.94983
21
-3.66538
0
LINE
8
BLACK
6
CONTINUOUS
10
4.94983
20
-3.66538
11
4.95238
21
-3.66367
0
LINE
8
BLACK
6
CONTINUOUS
10
4.95238
20
-3.66367
11
4.95539
21
-3.66307
0
LINE
8
BLACK
6
CONTINUOUS
10
4.95539
20
-3.66307
11
5.00461
21
-3.66307
0
LINE
8
BLACK
6
CONTINUOUS
10
5.00461
20
-3.66307
11
5.00762
21
-3.66367
0
LINE
8
BLACK
6
CONTINUOUS
10
4.85762
20
-3.66241
11
4.86017
21
-3.66412
0
LINE
8
BLACK
6
CONTINUOUS
10
4.86017
20
-3.66412
11
4.86188
21
-3.66667
0
LINE
8
BLACK
6
CONTINUOUS
10
4.86188
20
-3.66667
11
4.86248
21
-3.66969
0
LINE
8
BLACK
6
CONTINUOUS
10
4.86248
20
-3.66969
11
4.86248
21
-3.70906
0
LINE
8
BLACK
6
CONTINUOUS
10
4.86248
20
-3.70906
11
4.86188
21
-3.71207
0
LINE
8
BLACK
6
CONTINUOUS
10
4.86188
20
-3.71207
11
4.86017
21
-3.71462
0
LINE
8
BLACK
6
CONTINUOUS
10
4.86017
20
-3.71462
11
4.85762
21
-3.71633
0
LINE
8
BLACK
6
CONTINUOUS
10
4.85762
20
-3.71633
11
4.85461
21
-3.71693
0
LINE
8
BLACK
6
CONTINUOUS
10
4.85461
20
-3.71693
11
4.80539
21
-3.71693
0
LINE
8
BLACK
6
CONTINUOUS
10
4.80539
20
-3.71693
11
4.80238
21
-3.71633
0
LINE
8
BLACK
6
CONTINUOUS
10
4.80238
20
-3.71633
11
4.79983
21
-3.71462
0
LINE
8
BLACK
6
CONTINUOUS
10
4.79983
20
-3.71462
11
4.79812
21
-3.71207
0
LINE
8
BLACK
6
CONTINUOUS
10
4.79812
20
-3.71207
11
4.79752
21
-3.70906
0
LINE
8
BLACK
6
CONTINUOUS
10
4.79752
20
-3.70906
11
4.79752
21
-3.66969
0
LINE
8
BLACK
6
CONTINUOUS
10
4.79752
20
-3.66969
11
4.79812
21
-3.66667
0
LINE
8
BLACK
6
CONTINUOUS
10
4.79812
20
-3.66667
11
4.79983
21
-3.66412
0
LINE
8
BLACK
6
CONTINUOUS
10
4.79983
20
-3.66412
11
4.80238
21
-3.66241
0
LINE
8
BLACK
6
CONTINUOUS
10
4.80238
20
-3.66241
11
4.80539
21
-3.66181
0
LINE
8
BLACK
6
CONTINUOUS
10
4.80539
20
-3.66181
11
4.85461
21
-3.66181
0
LINE
8
BLACK
6
CONTINUOUS
10
4.85461
20
-3.66181
11
4.85762
21
-3.66241
0
LINE
8
BLACK
6
CONTINUOUS
10
5.14215
20
-3.66591
11
5.1447
21
-3.66762
0
LINE
8
BLACK
6
CONTINUOUS
10
5.1447
20
-3.66762
11
5.14641
21
-3.67018
0
LINE
8
BLACK
6
CONTINUOUS
10
5.14641
20
-3.67018
11
5.14701
21
-3.67319
0
LINE
8
BLACK
6
CONTINUOUS
10
5.14701
20
-3.67319
11
5.14701
21
-3.69681
0
LINE
8
BLACK
6
CONTINUOUS
10
5.14701
20
-3.69681
11
5.14641
21
-3.69982
0
LINE
8
BLACK
6
CONTINUOUS
10
5.14641
20
-3.69982
11
5.1447
21
-3.70238
0
LINE
8
BLACK
6
CONTINUOUS
10
5.1447
20
-3.70238
11
5.14215
21
-3.70409
0
LINE
8
BLACK
6
CONTINUOUS
10
5.14215
20
-3.70409
11
5.13913
21
-3.70469
0
LINE
8
BLACK
6
CONTINUOUS
10
5.13913
20
-3.70469
11
5.05449
21
-3.70469
0
LINE
8
BLACK
6
CONTINUOUS
10
5.05449
20
-3.70469
11
5.05147
21
-3.70409
0
LINE
8
BLACK
6
CONTINUOUS
10
5.05147
20
-3.70409
11
5.04892
21
-3.70238
0
LINE
8
BLACK
6
CONTINUOUS
10
5.04892
20
-3.70238
11
5.04721
21
-3.69982
0
LINE
8
BLACK
6
CONTINUOUS
10
5.04721
20
-3.69982
11
5.04661
21
-3.69681
0
LINE
8
BLACK
6
CONTINUOUS
10
5.04661
20
-3.69681
11
5.04661
21
-3.67319
0
LINE
8
BLACK
6
CONTINUOUS
10
5.04661
20
-3.67319
11
5.04721
21
-3.67018
0
LINE
8
BLACK
6
CONTINUOUS
10
5.04721
20
-3.67018
11
5.04892
21
-3.66762
0
LINE
8
BLACK
6
CONTINUOUS
10
5.04892
20
-3.66762
11
5.05147
21
-3.66591
0
LINE
8
BLACK
6
CONTINUOUS
10
5.05147
20
-3.66591
11
5.05449
21
-3.66531
0
LINE
8
BLACK
6
CONTINUOUS
10
5.05449
20
-3.66531
11
5.13913
21
-3.66531
0
LINE
8
BLACK
6
CONTINUOUS
10
5.13913
20
-3.66531
11
5.14215
21
-3.66591
0
LINE
8
BLACK
6
CONTINUOUS
10
5.36853
20
-3.66591
11
5.37108
21
-3.66762
0
LINE
8
BLACK
6
CONTINUOUS
10
5.37108
20
-3.66762
11
5.37279
21
-3.67018
0
LINE
8
BLACK
6
CONTINUOUS
10
5.37279
20
-3.67018
11
5.37339
21
-3.67319
0
LINE
8
BLACK
6
CONTINUOUS
10
5.37339
20
-3.67319
11
5.37339
21
-3.69681
0
LINE
8
BLACK
6
CONTINUOUS
10
5.37339
20
-3.69681
11
5.37279
21
-3.69982
0
LINE
8
BLACK
6
CONTINUOUS
10
5.37279
20
-3.69982
11
5.37108
21
-3.70238
0
LINE
8
BLACK
6
CONTINUOUS
10
5.37108
20
-3.70238
11
5.36853
21
-3.70409
0
LINE
8
BLACK
6
CONTINUOUS
10
5.36853
20
-3.70409
11
5.36551
21
-3.70469
0
LINE
8
BLACK
6
CONTINUOUS
10
5.36551
20
-3.70469
11
5.28087
21
-3.70469
0
LINE
8
BLACK
6
CONTINUOUS
10
5.28087
20
-3.70469
11
5.27785
21
-3.70409
0
LINE
8
BLACK
6
CONTINUOUS
10
5.27785
20
-3.70409
11
5.2753
21
-3.70238
0
LINE
8
BLACK
6
CONTINUOUS
10
5.2753
20
-3.70238
11
5.27359
21
-3.69982
0
LINE
8
BLACK
6
CONTINUOUS
10
5.27359
20
-3.69982
11
5.27299
21
-3.69681
0
LINE
8
BLACK
6
CONTINUOUS
10
5.27299
20
-3.69681
11
5.27299
21
-3.67319
0
LINE
8
BLACK
6
CONTINUOUS
10
5.27299
20
-3.67319
11
5.27359
21
-3.67018
0
LINE
8
BLACK
6
CONTINUOUS
10
5.27359
20
-3.67018
11
5.2753
21
-3.66762
0
LINE
8
BLACK
6
CONTINUOUS
10
5.2753
20
-3.66762
11
5.27785
21
-3.66591
0
LINE
8
BLACK
6
CONTINUOUS
10
5.27785
20
-3.66591
11
5.28087
21
-3.66531
0
LINE
8
BLACK
6
CONTINUOUS
10
5.28087
20
-3.66531
11
5.36551
21
-3.66531
0
LINE
8
BLACK
6
CONTINUOUS
10
5.36551
20
-3.66531
11
5.36853
21
-3.66591
0
LINE
8
BLACK
6
CONTINUOUS
10
4.70939
20
-3.62213
11
4.71195
21
-3.62384
0
LINE
8
BLACK
6
CONTINUOUS
10
4.71195
20
-3.62384
11
4.71365
21
-3.6264
0
LINE
8
BLACK
6
CONTINUOUS
10
4.71365
20
-3.6264
11
4.71425
21
-3.62941
0
LINE
8
BLACK
6
CONTINUOUS
10
4.71425
20
-3.62941
11
4.71425
21
-3.68059
0
LINE
8
BLACK
6
CONTINUOUS
10
4.71425
20
-3.68059
11
4.71365
21
-3.6836
0
LINE
8
BLACK
6
CONTINUOUS
10
4.71365
20
-3.6836
11
4.71195
21
-3.68616
0
LINE
8
BLACK
6
CONTINUOUS
10
4.71195
20
-3.68616
11
4.70939
21
-3.68787
0
LINE
8
BLACK
6
CONTINUOUS
10
4.70939
20
-3.68787
11
4.70638
21
-3.68846
0
LINE
8
BLACK
6
CONTINUOUS
10
4.70638
20
-3.68846
11
4.67882
21
-3.68846
0
LINE
8
BLACK
6
CONTINUOUS
10
4.67882
20
-3.68846
11
4.67581
21
-3.68787
0
LINE
8
BLACK
6
CONTINUOUS
10
4.67581
20
-3.68787
11
4.67325
21
-3.68616
0
LINE
8
BLACK
6
CONTINUOUS
10
4.67325
20
-3.68616
11
4.67154
21
-3.6836
0
LINE
8
BLACK
6
CONTINUOUS
10
4.67154
20
-3.6836
11
4.67094
21
-3.68059
0
LINE
8
BLACK
6
CONTINUOUS
10
4.67094
20
-3.68059
11
4.67094
21
-3.62941
0
LINE
8
BLACK
6
CONTINUOUS
10
4.67094
20
-3.62941
11
4.67154
21
-3.6264
0
LINE
8
BLACK
6
CONTINUOUS
10
4.67154
20
-3.6264
11
4.67325
21
-3.62384
0
LINE
8
BLACK
6
CONTINUOUS
10
4.67325
20
-3.62384
11
4.67581
21
-3.62213
0
LINE
8
BLACK
6
CONTINUOUS
10
4.67581
20
-3.62213
11
4.67882
21
-3.62154
0
LINE
8
BLACK
6
CONTINUOUS
10
4.67882
20
-3.62154
11
4.70638
21
-3.62154
0
LINE
8
BLACK
6
CONTINUOUS
10
4.70638
20
-3.62154
11
4.70939
21
-3.62213
0
LINE
8
BLACK
6
CONTINUOUS
10
4.78419
20
-3.62213
11
4.78675
21
-3.62384
0
LINE
8
BLACK
6
CONTINUOUS
10
4.78675
20
-3.62384
11
4.78846
21
-3.6264
0
LINE
8
BLACK
6
CONTINUOUS
10
4.78846
20
-3.6264
11
4.78906
21
-3.62941
0
LINE
8
BLACK
6
CONTINUOUS
10
4.78906
20
-3.62941
11
4.78906
21
-3.68059
0
LINE
8
BLACK
6
CONTINUOUS
10
4.78906
20
-3.68059
11
4.78846
21
-3.6836
0
LINE
8
BLACK
6
CONTINUOUS
10
4.78846
20
-3.6836
11
4.78675
21
-3.68616
0
LINE
8
BLACK
6
CONTINUOUS
10
4.78675
20
-3.68616
11
4.78419
21
-3.68787
0
LINE
8
BLACK
6
CONTINUOUS
10
4.78419
20
-3.68787
11
4.78118
21
-3.68846
0
LINE
8
BLACK
6
CONTINUOUS
10
4.78118
20
-3.68846
11
4.75362
21
-3.68846
0
LINE
8
BLACK
6
CONTINUOUS
10
4.75362
20
-3.68846
11
4.75061
21
-3.68787
0
LINE
8
BLACK
6
CONTINUOUS
10
4.75061
20
-3.68787
11
4.74805
21
-3.68616
0
LINE
8
BLACK
6
CONTINUOUS
10
4.74805
20
-3.68616
11
4.74635
21
-3.6836
0
LINE
8
BLACK
6
CONTINUOUS
10
4.74635
20
-3.6836
11
4.74575
21
-3.68059
0
LINE
8
BLACK
6
CONTINUOUS
10
4.74575
20
-3.68059
11
4.74575
21
-3.62941
0
LINE
8
BLACK
6
CONTINUOUS
10
4.74575
20
-3.62941
11
4.74635
21
-3.6264
0
LINE
8
BLACK
6
CONTINUOUS
10
4.74635
20
-3.6264
11
4.74805
21
-3.62384
0
LINE
8
BLACK
6
CONTINUOUS
10
4.74805
20
-3.62384
11
4.75061
21
-3.62213
0
LINE
8
BLACK
6
CONTINUOUS
10
4.75061
20
-3.62213
11
4.75362
21
-3.62154
0
LINE
8
BLACK
6
CONTINUOUS
10
4.75362
20
-3.62154
11
4.78118
21
-3.62154
0
LINE
8
BLACK
6
CONTINUOUS
10
4.78118
20
-3.62154
11
4.78419
21
-3.62213
0
LINE
8
BLACK
6
CONTINUOUS
10
5.59762
20
-3.61741
11
5.60017
21
-3.61912
0
LINE
8
BLACK
6
CONTINUOUS
10
5.60017
20
-3.61912
11
5.60188
21
-3.62167
0
LINE
8
BLACK
6
CONTINUOUS
10
5.60188
20
-3.62167
11
5.60248
21
-3.62469
0
LINE
8
BLACK
6
CONTINUOUS
10
5.60248
20
-3.62469
11
5.60248
21
-3.66406
0
LINE
8
BLACK
6
CONTINUOUS
10
5.60248
20
-3.66406
11
5.60188
21
-3.66707
0
LINE
8
BLACK
6
CONTINUOUS
10
5.60188
20
-3.66707
11
5.60017
21
-3.66962
0
LINE
8
BLACK
6
CONTINUOUS
10
5.60017
20
-3.66962
11
5.59762
21
-3.67133
0
LINE
8
BLACK
6
CONTINUOUS
10
5.59762
20
-3.67133
11
5.59461
21
-3.67193
0
LINE
8
BLACK
6
CONTINUOUS
10
5.59461
20
-3.67193
11
5.54539
21
-3.67193
0
LINE
8
BLACK
6
CONTINUOUS
10
5.54539
20
-3.67193
11
5.54238
21
-3.67133
0
LINE
8
BLACK
6
CONTINUOUS
10
5.54238
20
-3.67133
11
5.53983
21
-3.66962
0
LINE
8
BLACK
6
CONTINUOUS
10
5.53983
20
-3.66962
11
5.53812
21
-3.66707
0
LINE
8
BLACK
6
CONTINUOUS
10
5.53812
20
-3.66707
11
5.53752
21
-3.66406
0
LINE
8
BLACK
6
CONTINUOUS
10
5.53752
20
-3.66406
11
5.53752
21
-3.62469
0
LINE
8
BLACK
6
CONTINUOUS
10
5.53752
20
-3.62469
11
5.53812
21
-3.62167
0
LINE
8
BLACK
6
CONTINUOUS
10
5.53812
20
-3.62167
11
5.53983
21
-3.61912
0
LINE
8
BLACK
6
CONTINUOUS
10
5.53983
20
-3.61912
11
5.54238
21
-3.61741
0
LINE
8
BLACK
6
CONTINUOUS
10
5.54238
20
-3.61741
11
5.54539
21
-3.61681
0
LINE
8
BLACK
6
CONTINUOUS
10
5.54539
20
-3.61681
11
5.59461
21
-3.61681
0
LINE
8
BLACK
6
CONTINUOUS
10
5.59461
20
-3.61681
11
5.59762
21
-3.61741
0
LINE
8
BLACK
6
CONTINUOUS
10
5.67262
20
-3.61741
11
5.67517
21
-3.61912
0
LINE
8
BLACK
6
CONTINUOUS
10
5.67517
20
-3.61912
11
5.67688
21
-3.62167
0
LINE
8
BLACK
6
CONTINUOUS
10
5.67688
20
-3.62167
11
5.67748
21
-3.62469
0
LINE
8
BLACK
6
CONTINUOUS
10
5.67748
20
-3.62469
11
5.67748
21
-3.66406
0
LINE
8
BLACK
6
CONTINUOUS
10
5.67748
20
-3.66406
11
5.67688
21
-3.66707
0
LINE
8
BLACK
6
CONTINUOUS
10
5.67688
20
-3.66707
11
5.67517
21
-3.66962
0
LINE
8
BLACK
6
CONTINUOUS
10
5.67517
20
-3.66962
11
5.67262
21
-3.67133
0
LINE
8
BLACK
6
CONTINUOUS
10
5.67262
20
-3.67133
11
5.66961
21
-3.67193
0
LINE
8
BLACK
6
CONTINUOUS
10
5.66961
20
-3.67193
11
5.62039
21
-3.67193
0
LINE
8
BLACK
6
CONTINUOUS
10
5.62039
20
-3.67193
11
5.61738
21
-3.67133
0
LINE
8
BLACK
6
CONTINUOUS
10
5.61738
20
-3.67133
11
5.61483
21
-3.66962
0
LINE
8
BLACK
6
CONTINUOUS
10
5.61483
20
-3.66962
11
5.61312
21
-3.66707
0
LINE
8
BLACK
6
CONTINUOUS
10
5.61312
20
-3.66707
11
5.61252
21
-3.66406
0
LINE
8
BLACK
6
CONTINUOUS
10
5.61252
20
-3.66406
11
5.61252
21
-3.62469
0
LINE
8
BLACK
6
CONTINUOUS
10
5.61252
20
-3.62469
11
5.61312
21
-3.62167
0
LINE
8
BLACK
6
CONTINUOUS
10
5.61312
20
-3.62167
11
5.61483
21
-3.61912
0
LINE
8
BLACK
6
CONTINUOUS
10
5.61483
20
-3.61912
11
5.61738
21
-3.61741
0
LINE
8
BLACK
6
CONTINUOUS
10
5.61738
20
-3.61741
11
5.62039
21
-3.61681
0
LINE
8
BLACK
6
CONTINUOUS
10
5.62039
20
-3.61681
11
5.66961
21
-3.61681
0
LINE
8
BLACK
6
CONTINUOUS
10
5.66961
20
-3.61681
11
5.67262
21
-3.61741
0
LINE
8
BLACK
6
CONTINUOUS
10
5.14215
20
-3.61591
11
5.1447
21
-3.61762
0
LINE
8
BLACK
6
CONTINUOUS
10
5.1447
20
-3.61762
11
5.14641
21
-3.62018
0
LINE
8
BLACK
6
CONTINUOUS
10
5.14641
20
-3.62018
11
5.14701
21
-3.62319
0
LINE
8
BLACK
6
CONTINUOUS
10
5.14701
20
-3.62319
11
5.14701
21
-3.64681
0
LINE
8
BLACK
6
CONTINUOUS
10
5.14701
20
-3.64681
11
5.14641
21
-3.64982
0
LINE
8
BLACK
6
CONTINUOUS
10
5.14641
20
-3.64982
11
5.1447
21
-3.65238
0
LINE
8
BLACK
6
CONTINUOUS
10
5.1447
20
-3.65238
11
5.14215
21
-3.65409
0
LINE
8
BLACK
6
CONTINUOUS
10
5.14215
20
-3.65409
11
5.13913
21
-3.65469
0
LINE
8
BLACK
6
CONTINUOUS
10
5.13913
20
-3.65469
11
5.05449
21
-3.65469
0
LINE
8
BLACK
6
CONTINUOUS
10
5.05449
20
-3.65469
11
5.05147
21
-3.65409
0
LINE
8
BLACK
6
CONTINUOUS
10
5.05147
20
-3.65409
11
5.04892
21
-3.65238
0
LINE
8
BLACK
6
CONTINUOUS
10
5.04892
20
-3.65238
11
5.04721
21
-3.64982
0
LINE
8
BLACK
6
CONTINUOUS
10
5.04721
20
-3.64982
11
5.04661
21
-3.64681
0
LINE
8
BLACK
6
CONTINUOUS
10
5.04661
20
-3.64681
11
5.04661
21
-3.62319
0
LINE
8
BLACK
6
CONTINUOUS
10
5.04661
20
-3.62319
11
5.04721
21
-3.62018
0
LINE
8
BLACK
6
CONTINUOUS
10
5.04721
20
-3.62018
11
5.04892
21
-3.61762
0
LINE
8
BLACK
6
CONTINUOUS
10
5.04892
20
-3.61762
11
5.05147
21
-3.61591
0
LINE
8
BLACK
6
CONTINUOUS
10
5.05147
20
-3.61591
11
5.05449
21
-3.61531
0
LINE
8
BLACK
6
CONTINUOUS
10
5.05449
20
-3.61531
11
5.13913
21
-3.61531
0
LINE
8
BLACK
6
CONTINUOUS
10
5.13913
20
-3.61531
11
5.14215
21
-3.61591
0
LINE
8
BLACK
6
CONTINUOUS
10
5.36853
20
-3.61591
11
5.37108
21
-3.61762
0
LINE
8
BLACK
6
CONTINUOUS
10
5.37108
20
-3.61762
11
5.37279
21
-3.62018
0
LINE
8
BLACK
6
CONTINUOUS
10
5.37279
20
-3.62018
11
5.37339
21
-3.62319
0
LINE
8
BLACK
6
CONTINUOUS
10
5.37339
20
-3.62319
11
5.37339
21
-3.64681
0
LINE
8
BLACK
6
CONTINUOUS
10
5.37339
20
-3.64681
11
5.37279
21
-3.64982
0
LINE
8
BLACK
6
CONTINUOUS
10
5.37279
20
-3.64982
11
5.37108
21
-3.65238
0
LINE
8
BLACK
6
CONTINUOUS
10
5.37108
20
-3.65238
11
5.36853
21
-3.65409
0
LINE
8
BLACK
6
CONTINUOUS
10
5.36853
20
-3.65409
11
5.36551
21
-3.65469
0
LINE
8
BLACK
6
CONTINUOUS
10
5.36551
20
-3.65469
11
5.28087
21
-3.65469
0
LINE
8
BLACK
6
CONTINUOUS
10
5.28087
20
-3.65469
11
5.27785
21
-3.65409
0
LINE
8
BLACK
6
CONTINUOUS
10
5.27785
20
-3.65409
11
5.2753
21
-3.65238
0
LINE
8
BLACK
6
CONTINUOUS
10
5.2753
20
-3.65238
11
5.27359
21
-3.64982
0
LINE
8
BLACK
6
CONTINUOUS
10
5.27359
20
-3.64982
11
5.27299
21
-3.64681
0
LINE
8
BLACK
6
CONTINUOUS
10
5.27299
20
-3.64681
11
5.27299
21
-3.62319
0
LINE
8
BLACK
6
CONTINUOUS
10
5.27299
20
-3.62319
11
5.27359
21
-3.62018
0
LINE
8
BLACK
6
CONTINUOUS
10
5.27359
20
-3.62018
11
5.2753
21
-3.61762
0
LINE
8
BLACK
6
CONTINUOUS
10
5.2753
20
-3.61762
11
5.27785
21
-3.61591
0
LINE
8
BLACK
6
CONTINUOUS
10
5.27785
20
-3.61591
11
5.28087
21
-3.61531
0
LINE
8
BLACK
6
CONTINUOUS
10
5.28087
20
-3.61531
11
5.36551
21
-3.61531
0
LINE
8
BLACK
6
CONTINUOUS
10
5.36551
20
-3.61531
11
5.36853
21
-3.61591
0
LINE
8
BLACK
6
CONTINUOUS
10
4.85762
20
-3.58367
11
4.86017
21
-3.58538
0
LINE
8
BLACK
6
CONTINUOUS
10
4.86017
20
-3.58538
11
4.86188
21
-3.58793
0
LINE
8
BLACK
6
CONTINUOUS
10
4.86188
20
-3.58793
11
4.86248
21
-3.59094
0
LINE
8
BLACK
6
CONTINUOUS
10
4.86248
20
-3.59094
11
4.86248
21
-3.63031
0
LINE
8
BLACK
6
CONTINUOUS
10
4.86248
20
-3.63031
11
4.86188
21
-3.63333
0
LINE
8
BLACK
6
CONTINUOUS
10
4.86188
20
-3.63333
11
4.86017
21
-3.63588
0
LINE
8
BLACK
6
CONTINUOUS
10
4.86017
20
-3.63588
11
4.85762
21
-3.63759
0
LINE
8
BLACK
6
CONTINUOUS
10
4.85762
20
-3.63759
11
4.85461
21
-3.63819
0
LINE
8
BLACK
6
CONTINUOUS
10
4.85461
20
-3.63819
11
4.80539
21
-3.63819
0
LINE
8
BLACK
6
CONTINUOUS
10
4.80539
20
-3.63819
11
4.80238
21
-3.63759
0
LINE
8
BLACK
6
CONTINUOUS
10
4.80238
20
-3.63759
11
4.79983
21
-3.63588
0
LINE
8
BLACK
6
CONTINUOUS
10
4.79983
20
-3.63588
11
4.79812
21
-3.63333
0
LINE
8
BLACK
6
CONTINUOUS
10
4.79812
20
-3.63333
11
4.79752
21
-3.63031
0
LINE
8
BLACK
6
CONTINUOUS
10
4.79752
20
-3.63031
11
4.79752
21
-3.59094
0
LINE
8
BLACK
6
CONTINUOUS
10
4.79752
20
-3.59094
11
4.79812
21
-3.58793
0
LINE
8
BLACK
6
CONTINUOUS
10
4.79812
20
-3.58793
11
4.79983
21
-3.58538
0
LINE
8
BLACK
6
CONTINUOUS
10
4.79983
20
-3.58538
11
4.80238
21
-3.58367
0
LINE
8
BLACK
6
CONTINUOUS
10
4.80238
20
-3.58367
11
4.80539
21
-3.58307
0
LINE
8
BLACK
6
CONTINUOUS
10
4.80539
20
-3.58307
11
4.85461
21
-3.58307
0
LINE
8
BLACK
6
CONTINUOUS
10
4.85461
20
-3.58307
11
4.85762
21
-3.58367
0
LINE
8
BLACK
6
CONTINUOUS
10
5.01833
20
-3.54812
11
5.02088
21
-3.54983
0
LINE
8
BLACK
6
CONTINUOUS
10
5.02088
20
-3.54983
11
5.02259
21
-3.55238
0
LINE
8
BLACK
6
CONTINUOUS
10
5.02259
20
-3.55238
11
5.02319
21
-3.55539
0
LINE
8
BLACK
6
CONTINUOUS
10
5.02319
20
-3.55539
11
5.02319
21
-3.60461
0
LINE
8
BLACK
6
CONTINUOUS
10
5.02319
20
-3.60461
11
5.02259
21
-3.60762
0
LINE
8
BLACK
6
CONTINUOUS
10
5.02259
20
-3.60762
11
5.02088
21
-3.61017
0
LINE
8
BLACK
6
CONTINUOUS
10
5.02088
20
-3.61017
11
5.01833
21
-3.61188
0
LINE
8
BLACK
6
CONTINUOUS
10
5.01833
20
-3.61188
11
5.01531
21
-3.61248
0
LINE
8
BLACK
6
CONTINUOUS
10
5.01531
20
-3.61248
11
4.97594
21
-3.61248
0
LINE
8
BLACK
6
CONTINUOUS
10
4.97594
20
-3.61248
11
4.97293
21
-3.61188
0
LINE
8
BLACK
6
CONTINUOUS
10
4.97293
20
-3.61188
11
4.97038
21
-3.61017
0
LINE
8
BLACK
6
CONTINUOUS
10
4.97038
20
-3.61017
11
4.96867
21
-3.60762
0
LINE
8
BLACK
6
CONTINUOUS
10
4.96867
20
-3.60762
11
4.96807
21
-3.60461
0
LINE
8
BLACK
6
CONTINUOUS
10
4.96807
20
-3.60461
11
4.96807
21
-3.55539
0
LINE
8
BLACK
6
CONTINUOUS
10
4.96807
20
-3.55539
11
4.96867
21
-3.55238
0
LINE
8
BLACK
6
CONTINUOUS
10
4.96867
20
-3.55238
11
4.97038
21
-3.54983
0
LINE
8
BLACK
6
CONTINUOUS
10
4.97038
20
-3.54983
11
4.97293
21
-3.54812
0
LINE
8
BLACK
6
CONTINUOUS
10
4.97293
20
-3.54812
11
4.97594
21
-3.54752
0
LINE
8
BLACK
6
CONTINUOUS
10
4.97594
20
-3.54752
11
5.01531
21
-3.54752
0
LINE
8
BLACK
6
CONTINUOUS
10
5.01531
20
-3.54752
11
5.01833
21
-3.54812
0
LINE
8
BLACK
6
CONTINUOUS
10
5.09707
20
-3.54812
11
5.09962
21
-3.54983
0
LINE
8
BLACK
6
CONTINUOUS
10
5.09962
20
-3.54983
11
5.10133
21
-3.55238
0
LINE
8
BLACK
6
CONTINUOUS
10
5.10133
20
-3.55238
11
5.10193
21
-3.55539
0
LINE
8
BLACK
6
CONTINUOUS
10
5.10193
20
-3.55539
11
5.10193
21
-3.60461
0
LINE
8
BLACK
6
CONTINUOUS
10
5.10193
20
-3.60461
11
5.10133
21
-3.60762
0
LINE
8
BLACK
6
CONTINUOUS
10
5.10133
20
-3.60762
11
5.09962
21
-3.61017
0
LINE
8
BLACK
6
CONTINUOUS
10
5.09962
20
-3.61017
11
5.09707
21
-3.61188
0
LINE
8
BLACK
6
CONTINUOUS
10
5.09707
20
-3.61188
11
5.09406
21
-3.61248
0
LINE
8
BLACK
6
CONTINUOUS
10
5.09406
20
-3.61248
11
5.05469
21
-3.61248
0
LINE
8
BLACK
6
CONTINUOUS
10
5.05469
20
-3.61248
11
5.05167
21
-3.61188
0
LINE
8
BLACK
6
CONTINUOUS
10
5.05167
20
-3.61188
11
5.04912
21
-3.61017
0
LINE
8
BLACK
6
CONTINUOUS
10
5.04912
20
-3.61017
11
5.04741
21
-3.60762
0
LINE
8
BLACK
6
CONTINUOUS
10
5.04741
20
-3.60762
11
5.04681
21
-3.60461
0
LINE
8
BLACK
6
CONTINUOUS
10
5.04681
20
-3.60461
11
5.04681
21
-3.55539
0
LINE
8
BLACK
6
CONTINUOUS
10
5.04681
20
-3.55539
11
5.04741
21
-3.55238
0
LINE
8
BLACK
6
CONTINUOUS
10
5.04741
20
-3.55238
11
5.04912
21
-3.54983
0
LINE
8
BLACK
6
CONTINUOUS
10
5.04912
20
-3.54983
11
5.05167
21
-3.54812
0
LINE
8
BLACK
6
CONTINUOUS
10
5.05167
20
-3.54812
11
5.05469
21
-3.54752
0
LINE
8
BLACK
6
CONTINUOUS
10
5.05469
20
-3.54752
11
5.09406
21
-3.54752
0
LINE
8
BLACK
6
CONTINUOUS
10
5.09406
20
-3.54752
11
5.09707
21
-3.54812
0
LINE
8
BLACK
6
CONTINUOUS
10
5.59762
20
-3.53867
11
5.60017
21
-3.54038
0
LINE
8
BLACK
6
CONTINUOUS
10
5.60017
20
-3.54038
11
5.60188
21
-3.54293
0
LINE
8
BLACK
6
CONTINUOUS
10
5.60188
20
-3.54293
11
5.60248
21
-3.54594
0
LINE
8
BLACK
6
CONTINUOUS
10
5.60248
20
-3.54594
11
5.60248
21
-3.58531
0
LINE
8
BLACK
6
CONTINUOUS
10
5.60248
20
-3.58531
11
5.60188
21
-3.58833
0
LINE
8
BLACK
6
CONTINUOUS
10
5.60188
20
-3.58833
11
5.60017
21
-3.59088
0
LINE
8
BLACK
6
CONTINUOUS
10
5.60017
20
-3.59088
11
5.59762
21
-3.59259
0
LINE
8
BLACK
6
CONTINUOUS
10
5.59762
20
-3.59259
11
5.59461
21
-3.59319
0
LINE
8
BLACK
6
CONTINUOUS
10
5.59461
20
-3.59319
11
5.54539
21
-3.59319
0
LINE
8
BLACK
6
CONTINUOUS
10
5.54539
20
-3.59319
11
5.54238
21
-3.59259
0
LINE
8
BLACK
6
CONTINUOUS
10
5.54238
20
-3.59259
11
5.53983
21
-3.59088
0
LINE
8
BLACK
6
CONTINUOUS
10
5.53983
20
-3.59088
11
5.53812
21
-3.58833
0
LINE
8
BLACK
6
CONTINUOUS
10
5.53812
20
-3.58833
11
5.53752
21
-3.58531
0
LINE
8
BLACK
6
CONTINUOUS
10
5.53752
20
-3.58531
11
5.53752
21
-3.54594
0
LINE
8
BLACK
6
CONTINUOUS
10
5.53752
20
-3.54594
11
5.53812
21
-3.54293
0
LINE
8
BLACK
6
CONTINUOUS
10
5.53812
20
-3.54293
11
5.53983
21
-3.54038
0
LINE
8
BLACK
6
CONTINUOUS
10
5.53983
20
-3.54038
11
5.54238
21
-3.53867
0
LINE
8
BLACK
6
CONTINUOUS
10
5.54238
20
-3.53867
11
5.54539
21
-3.53807
0
LINE
8
BLACK
6
CONTINUOUS
10
5.54539
20
-3.53807
11
5.59461
21
-3.53807
0
LINE
8
BLACK
6
CONTINUOUS
10
5.59461
20
-3.53807
11
5.59762
21
-3.53867
0
LINE
8
BLACK
6
CONTINUOUS
10
5.67262
20
-3.53867
11
5.67517
21
-3.54038
0
LINE
8
BLACK
6
CONTINUOUS
10
5.67517
20
-3.54038
11
5.67688
21
-3.54293
0
LINE
8
BLACK
6
CONTINUOUS
10
5.67688
20
-3.54293
11
5.67748
21
-3.54594
0
LINE
8
BLACK
6
CONTINUOUS
10
5.67748
20
-3.54594
11
5.67748
21
-3.58531
0
LINE
8
BLACK
6
CONTINUOUS
10
5.67748
20
-3.58531
11
5.67688
21
-3.58833
0
LINE
8
BLACK
6
CONTINUOUS
10
5.67688
20
-3.58833
11
5.67517
21
-3.59088
0
LINE
8
BLACK
6
CONTINUOUS
10
5.67517
20
-3.59088
11
5.67262
21
-3.59259
0
LINE
8
BLACK
6
CONTINUOUS
10
5.67262
20
-3.59259
11
5.66961
21
-3.59319
0
LINE
8
BLACK
6
CONTINUOUS
10
5.66961
20
-3.59319
11
5.62039
21
-3.59319
0
LINE
8
BLACK
6
CONTINUOUS
10
5.62039
20
-3.59319
11
5.61738
21
-3.59259
0
LINE
8
BLACK
6
CONTINUOUS
10
5.61738
20
-3.59259
11
5.61483
21
-3.59088
0
LINE
8
BLACK
6
CONTINUOUS
10
5.61483
20
-3.59088
11
5.61312
21
-3.58833
0
LINE
8
BLACK
6
CONTINUOUS
10
5.61312
20
-3.58833
11
5.61252
21
-3.58531
0
LINE
8
BLACK
6
CONTINUOUS
10
5.61252
20
-3.58531
11
5.61252
21
-3.54594
0
LINE
8
BLACK
6
CONTINUOUS
10
5.61252
20
-3.54594
11
5.61312
21
-3.54293
0
LINE
8
BLACK
6
CONTINUOUS
10
5.61312
20
-3.54293
11
5.61483
21
-3.54038
0
LINE
8
BLACK
6
CONTINUOUS
10
5.61483
20
-3.54038
11
5.61738
21
-3.53867
0
LINE
8
BLACK
6
CONTINUOUS
10
5.61738
20
-3.53867
11
5.62039
21
-3.53807
0
LINE
8
BLACK
6
CONTINUOUS
10
5.62039
20
-3.53807
11
5.66961
21
-3.53807
0
LINE
8
BLACK
6
CONTINUOUS
10
5.66961
20
-3.53807
11
5.67262
21
-3.53867
0
LINE
8
BLACK
6
CONTINUOUS
10
5.84801
20
-3.41773
11
5.85057
21
-3.41943
0
LINE
8
BLACK
6
CONTINUOUS
10
5.85057
20
-3.41943
11
5.85227
21
-3.42199
0
LINE
8
BLACK
6
CONTINUOUS
10
5.85227
20
-3.42199
11
5.85287
21
-3.425
0
LINE
8
BLACK
6
CONTINUOUS
10
5.85287
20
-3.425
11
5.85287
21
-3.575
0
LINE
8
BLACK
6
CONTINUOUS
10
5.85287
20
-3.575
11
5.85227
21
-3.57801
0
LINE
8
BLACK
6
CONTINUOUS
10
5.85227
20
-3.57801
11
5.85057
21
-3.58057
0
LINE
8
BLACK
6
CONTINUOUS
10
5.85057
20
-3.58057
11
5.84801
21
-3.58227
0
LINE
8
BLACK
6
CONTINUOUS
10
5.84801
20
-3.58227
11
5.845
21
-3.58287
0
LINE
8
BLACK
6
CONTINUOUS
10
5.845
20
-3.58287
11
5.695
21
-3.58287
0
LINE
8
BLACK
6
CONTINUOUS
10
5.695
20
-3.58287
11
5.69199
21
-3.58227
0
LINE
8
BLACK
6
CONTINUOUS
10
5.69199
20
-3.58227
11
5.68943
21
-3.58057
0
LINE
8
BLACK
6
CONTINUOUS
10
5.68943
20
-3.58057
11
5.68773
21
-3.57801
0
LINE
8
BLACK
6
CONTINUOUS
10
5.68773
20
-3.57801
11
5.68713
21
-3.575
0
LINE
8
BLACK
6
CONTINUOUS
10
5.68713
20
-3.575
11
5.68713
21
-3.425
0
LINE
8
BLACK
6
CONTINUOUS
10
5.68713
20
-3.425
11
5.68773
21
-3.42199
0
LINE
8
BLACK
6
CONTINUOUS
10
5.68773
20
-3.42199
11
5.68943
21
-3.41943
0
LINE
8
BLACK
6
CONTINUOUS
10
5.68943
20
-3.41943
11
5.69199
21
-3.41773
0
LINE
8
BLACK
6
CONTINUOUS
10
5.69199
20
-3.41773
11
5.695
21
-3.41713
0
LINE
8
BLACK
6
CONTINUOUS
10
5.695
20
-3.41713
11
5.845
21
-3.41713
0
LINE
8
BLACK
6
CONTINUOUS
10
5.845
20
-3.41713
11
5.84801
21
-3.41773
0
LINE
8
BLACK
6
CONTINUOUS
10
6.04486
20
-3.41773
11
6.04742
21
-3.41943
0
LINE
8
BLACK
6
CONTINUOUS
10
6.04742
20
-3.41943
11
6.04913
21
-3.42199
0
LINE
8
BLACK
6
CONTINUOUS
10
6.04913
20
-3.42199
11
6.04972
21
-3.425
0
LINE
8
BLACK
6
CONTINUOUS
10
6.04972
20
-3.425
11
6.04972
21
-3.575
0
LINE
8
BLACK
6
CONTINUOUS
10
6.04972
20
-3.575
11
6.04913
21
-3.57801
0
LINE
8
BLACK
6
CONTINUOUS
10
6.04913
20
-3.57801
11
6.04742
21
-3.58057
0
LINE
8
BLACK
6
CONTINUOUS
10
6.04742
20
-3.58057
11
6.04486
21
-3.58227
0
LINE
8
BLACK
6
CONTINUOUS
10
6.04486
20
-3.58227
11
6.04185
21
-3.58287
0
LINE
8
BLACK
6
CONTINUOUS
10
6.04185
20
-3.58287
11
5.89185
21
-3.58287
0
LINE
8
BLACK
6
CONTINUOUS
10
5.89185
20
-3.58287
11
5.88884
21
-3.58227
0
LINE
8
BLACK
6
CONTINUOUS
10
5.88884
20
-3.58227
11
5.88628
21
-3.58057
0
LINE
8
BLACK
6
CONTINUOUS
10
5.88628
20
-3.58057
11
5.88458
21
-3.57801
0
LINE
8
BLACK
6
CONTINUOUS
10
5.88458
20
-3.57801
11
5.88398
21
-3.575
0
LINE
8
BLACK
6
CONTINUOUS
10
5.88398
20
-3.575
11
5.88398
21
-3.425
0
LINE
8
BLACK
6
CONTINUOUS
10
5.88398
20
-3.425
11
5.88458
21
-3.42199
0
LINE
8
BLACK
6
CONTINUOUS
10
5.88458
20
-3.42199
11
5.88628
21
-3.41943
0
LINE
8
BLACK
6
CONTINUOUS
10
5.88628
20
-3.41943
11
5.88884
21
-3.41773
0
LINE
8
BLACK
6
CONTINUOUS
10
5.88884
20
-3.41773
11
5.89185
21
-3.41713
0
LINE
8
BLACK
6
CONTINUOUS
10
5.89185
20
-3.41713
11
6.04185
21
-3.41713
0
LINE
8
BLACK
6
CONTINUOUS
10
6.04185
20
-3.41713
11
6.04486
21
-3.41773
0
LINE
8
BLACK
6
CONTINUOUS
10
4.92585
20
-3.47633
11
4.9284
21
-3.47803
0
LINE
8
BLACK
6
CONTINUOUS
10
4.9284
20
-3.47803
11
4.93011
21
-3.48059
0
LINE
8
BLACK
6
CONTINUOUS
10
4.93011
20
-3.48059
11
4.93071
21
-3.4836
0
LINE
8
BLACK
6
CONTINUOUS
10
4.93071
20
-3.4836
11
4.93071
21
-3.523
0
LINE
8
BLACK
6
CONTINUOUS
10
4.93071
20
-3.523
11
4.93011
21
-3.52601
0
LINE
8
BLACK
6
CONTINUOUS
10
4.93011
20
-3.52601
11
4.9284
21
-3.52857
0
LINE
8
BLACK
6
CONTINUOUS
10
4.9284
20
-3.52857
11
4.92585
21
-3.53027
0
LINE
8
BLACK
6
CONTINUOUS
10
4.92585
20
-3.53027
11
4.92284
21
-3.53087
0
LINE
8
BLACK
6
CONTINUOUS
10
4.92284
20
-3.53087
11
4.77716
21
-3.53087
0
LINE
8
BLACK
6
CONTINUOUS
10
4.77716
20
-3.53087
11
4.77415
21
-3.53027
0
LINE
8
BLACK
6
CONTINUOUS
10
4.77415
20
-3.53027
11
4.7716
21
-3.52857
0
LINE
8
BLACK
6
CONTINUOUS
10
4.7716
20
-3.52857
11
4.76989
21
-3.52601
0
LINE
8
BLACK
6
CONTINUOUS
10
4.76989
20
-3.52601
11
4.76929
21
-3.523
0
LINE
8
BLACK
6
CONTINUOUS
10
4.76929
20
-3.523
11
4.76929
21
-3.4836
0
LINE
8
BLACK
6
CONTINUOUS
10
4.76929
20
-3.4836
11
4.76989
21
-3.48059
0
LINE
8
BLACK
6
CONTINUOUS
10
4.76989
20
-3.48059
11
4.7716
21
-3.47803
0
LINE
8
BLACK
6
CONTINUOUS
10
4.7716
20
-3.47803
11
4.77415
21
-3.47633
0
LINE
8
BLACK
6
CONTINUOUS
10
4.77415
20
-3.47633
11
4.77716
21
-3.47573
0
LINE
8
BLACK
6
CONTINUOUS
10
4.77716
20
-3.47573
11
4.92284
21
-3.47573
0
LINE
8
BLACK
6
CONTINUOUS
10
4.92284
20
-3.47573
11
4.92585
21
-3.47633
0
LINE
8
BLACK
6
CONTINUOUS
10
5.09746
20
-3.34473
11
5.10002
21
-3.34644
0
LINE
8
BLACK
6
CONTINUOUS
10
5.10002
20
-3.34644
11
5.10172
21
-3.34899
0
LINE
8
BLACK
6
CONTINUOUS
10
5.10172
20
-3.34899
11
5.10232
21
-3.35201
0
LINE
8
BLACK
6
CONTINUOUS
10
5.10232
20
-3.35201
11
5.10232
21
-3.47799
0
LINE
8
BLACK
6
CONTINUOUS
10
5.10232
20
-3.47799
11
5.10172
21
-3.48101
0
LINE
8
BLACK
6
CONTINUOUS
10
5.10172
20
-3.48101
11
5.10002
21
-3.48356
0
LINE
8
BLACK
6
CONTINUOUS
10
5.10002
20
-3.48356
11
5.09746
21
-3.48527
0
LINE
8
BLACK
6
CONTINUOUS
10
5.09746
20
-3.48527
11
5.09445
21
-3.48587
0
LINE
8
BLACK
6
CONTINUOUS
10
5.09445
20
-3.48587
11
4.99209
21
-3.48587
0
LINE
8
BLACK
6
CONTINUOUS
10
4.99209
20
-3.48587
11
4.98907
21
-3.48527
0
LINE
8
BLACK
6
CONTINUOUS
10
4.98907
20
-3.48527
11
4.98652
21
-3.48356
0
LINE
8
BLACK
6
CONTINUOUS
10
4.98652
20
-3.48356
11
4.98481
21
-3.48101
0
LINE
8
BLACK
6
CONTINUOUS
10
4.98481
20
-3.48101
11
4.98421
21
-3.47799
0
LINE
8
BLACK
6
CONTINUOUS
10
4.98421
20
-3.47799
11
4.98421
21
-3.35201
0
LINE
8
BLACK
6
CONTINUOUS
10
4.98421
20
-3.35201
11
4.98481
21
-3.34899
0
LINE
8
BLACK
6
CONTINUOUS
10
4.98481
20
-3.34899
11
4.98652
21
-3.34644
0
LINE
8
BLACK
6
CONTINUOUS
10
4.98652
20
-3.34644
11
4.98907
21
-3.34473
0
LINE
8
BLACK
6
CONTINUOUS
10
4.98907
20
-3.34473
11
4.99209
21
-3.34413
0
LINE
8
BLACK
6
CONTINUOUS
10
4.99209
20
-3.34413
11
5.09445
21
-3.34413
0
LINE
8
BLACK
6
CONTINUOUS
10
5.09445
20
-3.34413
11
5.09746
21
-3.34473
0
LINE
8
BLACK
6
CONTINUOUS
10
5.38093
20
-3.34473
11
5.38348
21
-3.34644
0
LINE
8
BLACK
6
CONTINUOUS
10
5.38348
20
-3.34644
11
5.38519
21
-3.34899
0
LINE
8
BLACK
6
CONTINUOUS
10
5.38519
20
-3.34899
11
5.38579
21
-3.35201
0
LINE
8
BLACK
6
CONTINUOUS
10
5.38579
20
-3.35201
11
5.38579
21
-3.47799
0
LINE
8
BLACK
6
CONTINUOUS
10
5.38579
20
-3.47799
11
5.38519
21
-3.48101
0
LINE
8
BLACK
6
CONTINUOUS
10
5.38519
20
-3.48101
11
5.38348
21
-3.48356
0
LINE
8
BLACK
6
CONTINUOUS
10
5.38348
20
-3.48356
11
5.38093
21
-3.48527
0
LINE
8
BLACK
6
CONTINUOUS
10
5.38093
20
-3.48527
11
5.37791
21
-3.48587
0
LINE
8
BLACK
6
CONTINUOUS
10
5.37791
20
-3.48587
11
5.27555
21
-3.48587
0
LINE
8
BLACK
6
CONTINUOUS
10
5.27555
20
-3.48587
11
5.27254
21
-3.48527
0
LINE
8
BLACK
6
CONTINUOUS
10
5.27254
20
-3.48527
11
5.26998
21
-3.48356
0
LINE
8
BLACK
6
CONTINUOUS
10
5.26998
20
-3.48356
11
5.26828
21
-3.48101
0
LINE
8
BLACK
6
CONTINUOUS
10
5.26828
20
-3.48101
11
5.26768
21
-3.47799
0
LINE
8
BLACK
6
CONTINUOUS
10
5.26768
20
-3.47799
11
5.26768
21
-3.35201
0
LINE
8
BLACK
6
CONTINUOUS
10
5.26768
20
-3.35201
11
5.26828
21
-3.34899
0
LINE
8
BLACK
6
CONTINUOUS
10
5.26828
20
-3.34899
11
5.26998
21
-3.34644
0
LINE
8
BLACK
6
CONTINUOUS
10
5.26998
20
-3.34644
11
5.27254
21
-3.34473
0
LINE
8
BLACK
6
CONTINUOUS
10
5.27254
20
-3.34473
11
5.27555
21
-3.34413
0
LINE
8
BLACK
6
CONTINUOUS
10
5.27555
20
-3.34413
11
5.37791
21
-3.34413
0
LINE
8
BLACK
6
CONTINUOUS
10
5.37791
20
-3.34413
11
5.38093
21
-3.34473
0
LINE
8
BLACK
6
CONTINUOUS
10
5.53085
20
-3.37324
11
5.5334
21
-3.37494
0
LINE
8
BLACK
6
CONTINUOUS
10
5.5334
20
-3.37494
11
5.53511
21
-3.3775
0
LINE
8
BLACK
6
CONTINUOUS
10
5.53511
20
-3.3775
11
5.53571
21
-3.38051
0
LINE
8
BLACK
6
CONTINUOUS
10
5.53571
20
-3.38051
11
5.53571
21
-3.47382
0
LINE
8
BLACK
6
CONTINUOUS
10
5.53571
20
-3.47382
11
5.53511
21
-3.47683
0
LINE
8
BLACK
6
CONTINUOUS
10
5.53511
20
-3.47683
11
5.5334
21
-3.47939
0
LINE
8
BLACK
6
CONTINUOUS
10
5.5334
20
-3.47939
11
5.53085
21
-3.48109
0
LINE
8
BLACK
6
CONTINUOUS
10
5.53085
20
-3.48109
11
5.52783
21
-3.48169
0
LINE
8
BLACK
6
CONTINUOUS
10
5.52783
20
-3.48169
11
5.43217
21
-3.48169
0
LINE
8
BLACK
6
CONTINUOUS
10
5.43217
20
-3.48169
11
5.42915
21
-3.48109
0
LINE
8
BLACK
6
CONTINUOUS
10
5.42915
20
-3.48109
11
5.4266
21
-3.47939
0
LINE
8
BLACK
6
CONTINUOUS
10
5.4266
20
-3.47939
11
5.42489
21
-3.47683
0
LINE
8
BLACK
6
CONTINUOUS
10
5.42489
20
-3.47683
11
5.42429
21
-3.47382
0
LINE
8
BLACK
6
CONTINUOUS
10
5.42429
20
-3.47382
11
5.42429
21
-3.38051
0
LINE
8
BLACK
6
CONTINUOUS
10
5.42429
20
-3.38051
11
5.42489
21
-3.3775
0
LINE
8
BLACK
6
CONTINUOUS
10
5.42489
20
-3.3775
11
5.4266
21
-3.37494
0
LINE
8
BLACK
6
CONTINUOUS
10
5.4266
20
-3.37494
11
5.42915
21
-3.37324
0
LINE
8
BLACK
6
CONTINUOUS
10
5.42915
20
-3.37324
11
5.43217
21
-3.37264
0
LINE
8
BLACK
6
CONTINUOUS
10
5.43217
20
-3.37264
11
5.52783
21
-3.37264
0
LINE
8
BLACK
6
CONTINUOUS
10
5.52783
20
-3.37264
11
5.53085
21
-3.37324
0
LINE
8
BLACK
6
CONTINUOUS
10
4.92585
20
-3.38973
11
4.9284
21
-3.39143
0
LINE
8
BLACK
6
CONTINUOUS
10
4.9284
20
-3.39143
11
4.93011
21
-3.39399
0
LINE
8
BLACK
6
CONTINUOUS
10
4.93011
20
-3.39399
11
4.93071
21
-3.397
0
LINE
8
BLACK
6
CONTINUOUS
10
4.93071
20
-3.397
11
4.93071
21
-3.4364
0
LINE
8
BLACK
6
CONTINUOUS
10
4.93071
20
-3.4364
11
4.93011
21
-3.43941
0
LINE
8
BLACK
6
CONTINUOUS
10
4.93011
20
-3.43941
11
4.9284
21
-3.44197
0
LINE
8
BLACK
6
CONTINUOUS
10
4.9284
20
-3.44197
11
4.92585
21
-3.44367
0
LINE
8
BLACK
6
CONTINUOUS
10
4.92585
20
-3.44367
11
4.92284
21
-3.44427
0
LINE
8
BLACK
6
CONTINUOUS
10
4.92284
20
-3.44427
11
4.77716
21
-3.44427
0
LINE
8
BLACK
6
CONTINUOUS
10
4.77716
20
-3.44427
11
4.77415
21
-3.44367
0
LINE
8
BLACK
6
CONTINUOUS
10
4.77415
20
-3.44367
11
4.7716
21
-3.44197
0
LINE
8
BLACK
6
CONTINUOUS
10
4.7716
20
-3.44197
11
4.76989
21
-3.43941
0
LINE
8
BLACK
6
CONTINUOUS
10
4.76989
20
-3.43941
11
4.76929
21
-3.4364
0
LINE
8
BLACK
6
CONTINUOUS
10
4.76929
20
-3.4364
11
4.76929
21
-3.397
0
LINE
8
BLACK
6
CONTINUOUS
10
4.76929
20
-3.397
11
4.76989
21
-3.39399
0
LINE
8
BLACK
6
CONTINUOUS
10
4.76989
20
-3.39399
11
4.7716
21
-3.39143
0
LINE
8
BLACK
6
CONTINUOUS
10
4.7716
20
-3.39143
11
4.77415
21
-3.38973
0
LINE
8
BLACK
6
CONTINUOUS
10
4.77415
20
-3.38973
11
4.77716
21
-3.38913
0
LINE
8
BLACK
6
CONTINUOUS
10
4.77716
20
-3.38913
11
4.92284
21
-3.38913
0
LINE
8
BLACK
6
CONTINUOUS
10
4.92284
20
-3.38913
11
4.92585
21
-3.38973
0
LINE
8
BLACK
6
CONTINUOUS
10
5.84801
20
-3.21773
11
5.85057
21
-3.21943
0
LINE
8
BLACK
6
CONTINUOUS
10
5.85057
20
-3.21943
11
5.85227
21
-3.22199
0
LINE
8
BLACK
6
CONTINUOUS
10
5.85227
20
-3.22199
11
5.85287
21
-3.225
0
LINE
8
BLACK
6
CONTINUOUS
10
5.85287
20
-3.225
11
5.85287
21
-3.375
0
LINE
8
BLACK
6
CONTINUOUS
10
5.85287
20
-3.375
11
5.85227
21
-3.37801
0
LINE
8
BLACK
6
CONTINUOUS
10
5.85227
20
-3.37801
11
5.85057
21
-3.38057
0
LINE
8
BLACK
6
CONTINUOUS
10
5.85057
20
-3.38057
11
5.84801
21
-3.38227
0
LINE
8
BLACK
6
CONTINUOUS
10
5.84801
20
-3.38227
11
5.845
21
-3.38287
0
LINE
8
BLACK
6
CONTINUOUS
10
5.845
20
-3.38287
11
5.695
21
-3.38287
0
LINE
8
BLACK
6
CONTINUOUS
10
5.695
20
-3.38287
11
5.69199
21
-3.38227
0
LINE
8
BLACK
6
CONTINUOUS
10
5.69199
20
-3.38227
11
5.68943
21
-3.38057
0
LINE
8
BLACK
6
CONTINUOUS
10
5.68943
20
-3.38057
11
5.68773
21
-3.37801
0
LINE
8
BLACK
6
CONTINUOUS
10
5.68773
20
-3.37801
11
5.68713
21
-3.375
0
LINE
8
BLACK
6
CONTINUOUS
10
5.68713
20
-3.375
11
5.68713
21
-3.225
0
LINE
8
BLACK
6
CONTINUOUS
10
5.68713
20
-3.225
11
5.68773
21
-3.22199
0
LINE
8
BLACK
6
CONTINUOUS
10
5.68773
20
-3.22199
11
5.68943
21
-3.21943
0
LINE
8
BLACK
6
CONTINUOUS
10
5.68943
20
-3.21943
11
5.69199
21
-3.21773
0
LINE
8
BLACK
6
CONTINUOUS
10
5.69199
20
-3.21773
11
5.695
21
-3.21713
0
LINE
8
BLACK
6
CONTINUOUS
10
5.695
20
-3.21713
11
5.845
21
-3.21713
0
LINE
8
BLACK
6
CONTINUOUS
10
5.845
20
-3.21713
11
5.84801
21
-3.21773
0
LINE
8
BLACK
6
CONTINUOUS
10
6.04486
20
-3.21773
11
6.04742
21
-3.21943
0
LINE
8
BLACK
6
CONTINUOUS
10
6.04742
20
-3.21943
11
6.04913
21
-3.22199
0
LINE
8
BLACK
6
CONTINUOUS
10
6.04913
20
-3.22199
11
6.04972
21
-3.225
0
LINE
8
BLACK
6
CONTINUOUS
10
6.04972
20
-3.225
11
6.04972
21
-3.375
0
LINE
8
BLACK
6
CONTINUOUS
10
6.04972
20
-3.375
11
6.04913
21
-3.37801
0
LINE
8
BLACK
6
CONTINUOUS
10
6.04913
20
-3.37801
11
6.04742
21
-3.38057
0
LINE
8
BLACK
6
CONTINUOUS
10
6.04742
20
-3.38057
11
6.04486
21
-3.38227
0
LINE
8
BLACK
6
CONTINUOUS
10
6.04486
20
-3.38227
11
6.04185
21
-3.38287
0
LINE
8
BLACK
6
CONTINUOUS
10
6.04185
20
-3.38287
11
5.89185
21
-3.38287
0
LINE
8
BLACK
6
CONTINUOUS
10
5.89185
20
-3.38287
11
5.88884
21
-3.38227
0
LINE
8
BLACK
6
CONTINUOUS
10
5.88884
20
-3.38227
11
5.88628
21
-3.38057
0
LINE
8
BLACK
6
CONTINUOUS
10
5.88628
20
-3.38057
11
5.88458
21
-3.37801
0
LINE
8
BLACK
6
CONTINUOUS
10
5.88458
20
-3.37801
11
5.88398
21
-3.375
0
LINE
8
BLACK
6
CONTINUOUS
10
5.88398
20
-3.375
11
5.88398
21
-3.225
0
LINE
8
BLACK
6
CONTINUOUS
10
5.88398
20
-3.225
11
5.88458
21
-3.22199
0
LINE
8
BLACK
6
CONTINUOUS
10
5.88458
20
-3.22199
11
5.88628
21
-3.21943
0
LINE
8
BLACK
6
CONTINUOUS
10
5.88628
20
-3.21943
11
5.88884
21
-3.21773
0
LINE
8
BLACK
6
CONTINUOUS
10
5.88884
20
-3.21773
11
5.89185
21
-3.21713
0
LINE
8
BLACK
6
CONTINUOUS
10
5.89185
20
-3.21713
11
6.04185
21
-3.21713
0
LINE
8
BLACK
6
CONTINUOUS
10
6.04185
20
-3.21713
11
6.04486
21
-3.21773
0
LINE
8
BLACK
6
CONTINUOUS
10
4.81364
20
-3.23123
11
4.8162
21
-3.23294
0
LINE
8
BLACK
6
CONTINUOUS
10
4.8162
20
-3.23294
11
4.8179
21
-3.23549
0
LINE
8
BLACK
6
CONTINUOUS
10
4.8179
20
-3.23549
11
4.8185
21
-3.2385
0
LINE
8
BLACK
6
CONTINUOUS
10
4.8185
20
-3.2385
11
4.8185
21
-3.3015
0
LINE
8
BLACK
6
CONTINUOUS
10
4.8185
20
-3.3015
11
4.8179
21
-3.30451
0
LINE
8
BLACK
6
CONTINUOUS
10
4.8179
20
-3.30451
11
4.8162
21
-3.30706
0
LINE
8
BLACK
6
CONTINUOUS
10
4.8162
20
-3.30706
11
4.81364
21
-3.30877
0
LINE
8
BLACK
6
CONTINUOUS
10
4.81364
20
-3.30877
11
4.81063
21
-3.30937
0
LINE
8
BLACK
6
CONTINUOUS
10
4.81063
20
-3.30937
11
4.77126
21
-3.30937
0
LINE
8
BLACK
6
CONTINUOUS
10
4.77126
20
-3.30937
11
4.76825
21
-3.30877
0
LINE
8
BLACK
6
CONTINUOUS
10
4.76825
20
-3.30877
11
4.76569
21
-3.30706
0
LINE
8
BLACK
6
CONTINUOUS
10
4.76569
20
-3.30706
11
4.76399
21
-3.30451
0
LINE
8
BLACK
6
CONTINUOUS
10
4.76399
20
-3.30451
11
4.76339
21
-3.3015
0
LINE
8
BLACK
6
CONTINUOUS
10
4.76339
20
-3.3015
11
4.76339
21
-3.2385
0
LINE
8
BLACK
6
CONTINUOUS
10
4.76339
20
-3.2385
11
4.76399
21
-3.23549
0
LINE
8
BLACK
6
CONTINUOUS
10
4.76399
20
-3.23549
11
4.76569
21
-3.23294
0
LINE
8
BLACK
6
CONTINUOUS
10
4.76569
20
-3.23294
11
4.76825
21
-3.23123
0
LINE
8
BLACK
6
CONTINUOUS
10
4.76825
20
-3.23123
11
4.77126
21
-3.23063
0
LINE
8
BLACK
6
CONTINUOUS
10
4.77126
20
-3.23063
11
4.81063
21
-3.23063
0
LINE
8
BLACK
6
CONTINUOUS
10
4.81063
20
-3.23063
11
4.81364
21
-3.23123
0
LINE
8
BLACK
6
CONTINUOUS
10
4.93175
20
-3.23123
11
4.93431
21
-3.23294
0
LINE
8
BLACK
6
CONTINUOUS
10
4.93431
20
-3.23294
11
4.93601
21
-3.23549
0
LINE
8
BLACK
6
CONTINUOUS
10
4.93601
20
-3.23549
11
4.93661
21
-3.2385
0
LINE
8
BLACK
6
CONTINUOUS
10
4.93661
20
-3.2385
11
4.93661
21
-3.3015
0
LINE
8
BLACK
6
CONTINUOUS
10
4.93661
20
-3.3015
11
4.93601
21
-3.30451
0
LINE
8
BLACK
6
CONTINUOUS
10
4.93601
20
-3.30451
11
4.93431
21
-3.30706
0
LINE
8
BLACK
6
CONTINUOUS
10
4.93431
20
-3.30706
11
4.93175
21
-3.30877
0
LINE
8
BLACK
6
CONTINUOUS
10
4.93175
20
-3.30877
11
4.92874
21
-3.30937
0
LINE
8
BLACK
6
CONTINUOUS
10
4.92874
20
-3.30937
11
4.88937
21
-3.30937
0
LINE
8
BLACK
6
CONTINUOUS
10
4.88937
20
-3.30937
11
4.88636
21
-3.30877
0
LINE
8
BLACK
6
CONTINUOUS
10
4.88636
20
-3.30877
11
4.8838
21
-3.30706
0
LINE
8
BLACK
6
CONTINUOUS
10
4.8838
20
-3.30706
11
4.8821
21
-3.30451
0
LINE
8
BLACK
6
CONTINUOUS
10
4.8821
20
-3.30451
11
4.8815
21
-3.3015
0
LINE
8
BLACK
6
CONTINUOUS
10
4.8815
20
-3.3015
11
4.8815
21
-3.2385
0
LINE
8
BLACK
6
CONTINUOUS
10
4.8815
20
-3.2385
11
4.8821
21
-3.23549
0
LINE
8
BLACK
6
CONTINUOUS
10
4.8821
20
-3.23549
11
4.8838
21
-3.23294
0
LINE
8
BLACK
6
CONTINUOUS
10
4.8838
20
-3.23294
11
4.88636
21
-3.23123
0
LINE
8
BLACK
6
CONTINUOUS
10
4.88636
20
-3.23123
11
4.88937
21
-3.23063
0
LINE
8
BLACK
6
CONTINUOUS
10
4.88937
20
-3.23063
11
4.92874
21
-3.23063
0
LINE
8
BLACK
6
CONTINUOUS
10
4.92874
20
-3.23063
11
4.93175
21
-3.23123
0
LINE
8
BLACK
6
CONTINUOUS
10
5.62451
20
-3.2171
11
5.62706
21
-3.2188
0
LINE
8
BLACK
6
CONTINUOUS
10
5.62706
20
-3.2188
11
5.62877
21
-3.22136
0
LINE
8
BLACK
6
CONTINUOUS
10
5.62877
20
-3.22136
11
5.62937
21
-3.22437
0
LINE
8
BLACK
6
CONTINUOUS
10
5.62937
20
-3.22437
11
5.62937
21
-3.26374
0
LINE
8
BLACK
6
CONTINUOUS
10
5.62937
20
-3.26374
11
5.62877
21
-3.26675
0
LINE
8
BLACK
6
CONTINUOUS
10
5.62877
20
-3.26675
11
5.62706
21
-3.26931
0
LINE
8
BLACK
6
CONTINUOUS
10
5.62706
20
-3.26931
11
5.62451
21
-3.27101
0
LINE
8
BLACK
6
CONTINUOUS
10
5.62451
20
-3.27101
11
5.6215
21
-3.27161
0
LINE
8
BLACK
6
CONTINUOUS
10
5.6215
20
-3.27161
11
5.5585
21
-3.27161
0
LINE
8
BLACK
6
CONTINUOUS
10
5.5585
20
-3.27161
11
5.55549
21
-3.27101
0
LINE
8
BLACK
6
CONTINUOUS
10
5.55549
20
-3.27101
11
5.55294
21
-3.26931
0
LINE
8
BLACK
6
CONTINUOUS
10
5.55294
20
-3.26931
11
5.55123
21
-3.26675
0
LINE
8
BLACK
6
CONTINUOUS
10
5.55123
20
-3.26675
11
5.55063
21
-3.26374
0
LINE
8
BLACK
6
CONTINUOUS
10
5.55063
20
-3.26374
11
5.55063
21
-3.22437
0
LINE
8
BLACK
6
CONTINUOUS
10
5.55063
20
-3.22437
11
5.55123
21
-3.22136
0
LINE
8
BLACK
6
CONTINUOUS
10
5.55123
20
-3.22136
11
5.55294
21
-3.2188
0
LINE
8
BLACK
6
CONTINUOUS
10
5.55294
20
-3.2188
11
5.55549
21
-3.2171
0
LINE
8
BLACK
6
CONTINUOUS
10
5.55549
20
-3.2171
11
5.5585
21
-3.2165
0
LINE
8
BLACK
6
CONTINUOUS
10
5.5585
20
-3.2165
11
5.6215
21
-3.2165
0
LINE
8
BLACK
6
CONTINUOUS
10
5.6215
20
-3.2165
11
5.62451
21
-3.2171
0
LINE
8
BLACK
6
CONTINUOUS
10
5.49691
20
-3.18477
11
5.49947
21
-3.18648
0
LINE
8
BLACK
6
CONTINUOUS
10
5.49947
20
-3.18648
11
5.50117
21
-3.18903
0
LINE
8
BLACK
6
CONTINUOUS
10
5.50117
20
-3.18903
11
5.50177
21
-3.19205
0
LINE
8
BLACK
6
CONTINUOUS
10
5.50177
20
-3.19205
11
5.50177
21
-3.26291
0
LINE
8
BLACK
6
CONTINUOUS
10
5.50177
20
-3.26291
11
5.50117
21
-3.26593
0
LINE
8
BLACK
6
CONTINUOUS
10
5.50117
20
-3.26593
11
5.49947
21
-3.26848
0
LINE
8
BLACK
6
CONTINUOUS
10
5.49947
20
-3.26848
11
5.49691
21
-3.27019
0
LINE
8
BLACK
6
CONTINUOUS
10
5.49691
20
-3.27019
11
5.4939
21
-3.27079
0
LINE
8
BLACK
6
CONTINUOUS
10
5.4939
20
-3.27079
11
5.4061
21
-3.27079
0
LINE
8
BLACK
6
CONTINUOUS
10
5.4061
20
-3.27079
11
5.40309
21
-3.27019
0
LINE
8
BLACK
6
CONTINUOUS
10
5.40309
20
-3.27019
11
5.40053
21
-3.26848
0
LINE
8
BLACK
6
CONTINUOUS
10
5.40053
20
-3.26848
11
5.39883
21
-3.26593
0
LINE
8
BLACK
6
CONTINUOUS
10
5.39883
20
-3.26593
11
5.39823
21
-3.26291
0
LINE
8
BLACK
6
CONTINUOUS
10
5.39823
20
-3.26291
11
5.39823
21
-3.19205
0
LINE
8
BLACK
6
CONTINUOUS
10
5.39823
20
-3.19205
11
5.39883
21
-3.18903
0
LINE
8
BLACK
6
CONTINUOUS
10
5.39883
20
-3.18903
11
5.40053
21
-3.18648
0
LINE
8
BLACK
6
CONTINUOUS
10
5.40053
20
-3.18648
11
5.40309
21
-3.18477
0
LINE
8
BLACK
6
CONTINUOUS
10
5.40309
20
-3.18477
11
5.4061
21
-3.18417
0
LINE
8
BLACK
6
CONTINUOUS
10
5.4061
20
-3.18417
11
5.4939
21
-3.18417
0
LINE
8
BLACK
6
CONTINUOUS
10
5.4939
20
-3.18417
11
5.49691
21
-3.18477
0
LINE
8
BLACK
6
CONTINUOUS
10
5.12242
20
-3.15883
11
5.12498
21
-3.16053
0
LINE
8
BLACK
6
CONTINUOUS
10
5.12498
20
-3.16053
11
5.12668
21
-3.16309
0
LINE
8
BLACK
6
CONTINUOUS
10
5.12668
20
-3.16309
11
5.12728
21
-3.1661
0
LINE
8
BLACK
6
CONTINUOUS
10
5.12728
20
-3.1661
11
5.12728
21
-3.2539
0
LINE
8
BLACK
6
CONTINUOUS
10
5.12728
20
-3.2539
11
5.12668
21
-3.25691
0
LINE
8
BLACK
6
CONTINUOUS
10
5.12668
20
-3.25691
11
5.12498
21
-3.25947
0
LINE
8
BLACK
6
CONTINUOUS
10
5.12498
20
-3.25947
11
5.12242
21
-3.26117
0
LINE
8
BLACK
6
CONTINUOUS
10
5.12242
20
-3.26117
11
5.11941
21
-3.26177
0
LINE
8
BLACK
6
CONTINUOUS
10
5.11941
20
-3.26177
11
5.0261
21
-3.26177
0
LINE
8
BLACK
6
CONTINUOUS
10
5.0261
20
-3.26177
11
5.02309
21
-3.26117
0
LINE
8
BLACK
6
CONTINUOUS
10
5.02309
20
-3.26117
11
5.02053
21
-3.25947
0
LINE
8
BLACK
6
CONTINUOUS
10
5.02053
20
-3.25947
11
5.01883
21
-3.25691
0
LINE
8
BLACK
6
CONTINUOUS
10
5.01883
20
-3.25691
11
5.01823
21
-3.2539
0
LINE
8
BLACK
6
CONTINUOUS
10
5.01823
20
-3.2539
11
5.01823
21
-3.1661
0
LINE
8
BLACK
6
CONTINUOUS
10
5.01823
20
-3.1661
11
5.01883
21
-3.16309
0
LINE
8
BLACK
6
CONTINUOUS
10
5.01883
20
-3.16309
11
5.02053
21
-3.16053
0
LINE
8
BLACK
6
CONTINUOUS
10
5.02053
20
-3.16053
11
5.02309
21
-3.15883
0
LINE
8
BLACK
6
CONTINUOUS
10
5.02309
20
-3.15883
11
5.0261
21
-3.15823
0
LINE
8
BLACK
6
CONTINUOUS
10
5.0261
20
-3.15823
11
5.11941
21
-3.15823
0
LINE
8
BLACK
6
CONTINUOUS
10
5.11941
20
-3.15823
11
5.12242
21
-3.15883
0
LINE
8
BLACK
6
CONTINUOUS
10
5.31691
20
-3.15883
11
5.31947
21
-3.16053
0
LINE
8
BLACK
6
CONTINUOUS
10
5.31947
20
-3.16053
11
5.32117
21
-3.16309
0
LINE
8
BLACK
6
CONTINUOUS
10
5.32117
20
-3.16309
11
5.32177
21
-3.1661
0
LINE
8
BLACK
6
CONTINUOUS
10
5.32177
20
-3.1661
11
5.32177
21
-3.2539
0
LINE
8
BLACK
6
CONTINUOUS
10
5.32177
20
-3.2539
11
5.32117
21
-3.25691
0
LINE
8
BLACK
6
CONTINUOUS
10
5.32117
20
-3.25691
11
5.31947
21
-3.25947
0
LINE
8
BLACK
6
CONTINUOUS
10
5.31947
20
-3.25947
11
5.31691
21
-3.26117
0
LINE
8
BLACK
6
CONTINUOUS
10
5.31691
20
-3.26117
11
5.3139
21
-3.26177
0
LINE
8
BLACK
6
CONTINUOUS
10
5.3139
20
-3.26177
11
5.22059
21
-3.26177
0
LINE
8
BLACK
6
CONTINUOUS
10
5.22059
20
-3.26177
11
5.21758
21
-3.26117
0
LINE
8
BLACK
6
CONTINUOUS
10
5.21758
20
-3.26117
11
5.21502
21
-3.25947
0
LINE
8
BLACK
6
CONTINUOUS
10
5.21502
20
-3.25947
11
5.21332
21
-3.25691
0
LINE
8
BLACK
6
CONTINUOUS
10
5.21332
20
-3.25691
11
5.21272
21
-3.2539
0
LINE
8
BLACK
6
CONTINUOUS
10
5.21272
20
-3.2539
11
5.21272
21
-3.1661
0
LINE
8
BLACK
6
CONTINUOUS
10
5.21272
20
-3.1661
11
5.21332
21
-3.16309
0
LINE
8
BLACK
6
CONTINUOUS
10
5.21332
20
-3.16309
11
5.21502
21
-3.16053
0
LINE
8
BLACK
6
CONTINUOUS
10
5.21502
20
-3.16053
11
5.21758
21
-3.15883
0
LINE
8
BLACK
6
CONTINUOUS
10
5.21758
20
-3.15883
11
5.22059
21
-3.15823
0
LINE
8
BLACK
6
CONTINUOUS
10
5.22059
20
-3.15823
11
5.3139
21
-3.15823
0
LINE
8
BLACK
6
CONTINUOUS
10
5.3139
20
-3.15823
11
5.31691
21
-3.15883
0
LINE
8
BLACK
6
CONTINUOUS
10
5.84801
20
-3.01773
11
5.85057
21
-3.01943
0
LINE
8
BLACK
6
CONTINUOUS
10
5.85057
20
-3.01943
11
5.85227
21
-3.02199
0
LINE
8
BLACK
6
CONTINUOUS
10
5.85227
20
-3.02199
11
5.85287
21
-3.025
0
LINE
8
BLACK
6
CONTINUOUS
10
5.85287
20
-3.025
11
5.85287
21
-3.175
0
LINE
8
BLACK
6
CONTINUOUS
10
5.85287
20
-3.175
11
5.85227
21
-3.17801
0
LINE
8
BLACK
6
CONTINUOUS
10
5.85227
20
-3.17801
11
5.85057
21
-3.18057
0
LINE
8
BLACK
6
CONTINUOUS
10
5.85057
20
-3.18057
11
5.84801
21
-3.18227
0
LINE
8
BLACK
6
CONTINUOUS
10
5.84801
20
-3.18227
11
5.845
21
-3.18287
0
LINE
8
BLACK
6
CONTINUOUS
10
5.845
20
-3.18287
11
5.695
21
-3.18287
0
LINE
8
BLACK
6
CONTINUOUS
10
5.695
20
-3.18287
11
5.69199
21
-3.18227
0
LINE
8
BLACK
6
CONTINUOUS
10
5.69199
20
-3.18227
11
5.68943
21
-3.18057
0
LINE
8
BLACK
6
CONTINUOUS
10
5.68943
20
-3.18057
11
5.68773
21
-3.17801
0
LINE
8
BLACK
6
CONTINUOUS
10
5.68773
20
-3.17801
11
5.68713
21
-3.175
0
LINE
8
BLACK
6
CONTINUOUS
10
5.68713
20
-3.175
11
5.68713
21
-3.025
0
LINE
8
BLACK
6
CONTINUOUS
10
5.68713
20
-3.025
11
5.68773
21
-3.02199
0
LINE
8
BLACK
6
CONTINUOUS
10
5.68773
20
-3.02199
11
5.68943
21
-3.01943
0
LINE
8
BLACK
6
CONTINUOUS
10
5.68943
20
-3.01943
11
5.69199
21
-3.01773
0
LINE
8
BLACK
6
CONTINUOUS
10
5.69199
20
-3.01773
11
5.695
21
-3.01713
0
LINE
8
BLACK
6
CONTINUOUS
10
5.695
20
-3.01713
11
5.845
21
-3.01713
0
LINE
8
BLACK
6
CONTINUOUS
10
5.845
20
-3.01713
11
5.84801
21
-3.01773
0
LINE
8
BLACK
6
CONTINUOUS
10
6.04486
20
-3.01773
11
6.04742
21
-3.01943
0
LINE
8
BLACK
6
CONTINUOUS
10
6.04742
20
-3.01943
11
6.04913
21
-3.02199
0
LINE
8
BLACK
6
CONTINUOUS
10
6.04913
20
-3.02199
11
6.04972
21
-3.025
0
LINE
8
BLACK
6
CONTINUOUS
10
6.04972
20
-3.025
11
6.04972
21
-3.175
0
LINE
8
BLACK
6
CONTINUOUS
10
6.04972
20
-3.175
11
6.04913
21
-3.17801
0
LINE
8
BLACK
6
CONTINUOUS
10
6.04913
20
-3.17801
11
6.04742
21
-3.18057
0
LINE
8
BLACK
6
CONTINUOUS
10
6.04742
20
-3.18057
11
6.04486
21
-3.18227
0
LINE
8
BLACK
6
CONTINUOUS
10
6.04486
20
-3.18227
11
6.04185
21
-3.18287
0
LINE
8
BLACK
6
CONTINUOUS
10
6.04185
20
-3.18287
11
5.89185
21
-3.18287
0
LINE
8
BLACK
6
CONTINUOUS
10
5.89185
20
-3.18287
11
5.88884
21
-3.18227
0
LINE
8
BLACK
6
CONTINUOUS
10
5.88884
20
-3.18227
11
5.88628
21
-3.18057
0
LINE
8
BLACK
6
CONTINUOUS
10
5.88628
20
-3.18057
11
5.88458
21
-3.17801
0
LINE
8
BLACK
6
CONTINUOUS
10
5.88458
20
-3.17801
11
5.88398
21
-3.175
0
LINE
8
BLACK
6
CONTINUOUS
10
5.88398
20
-3.175
11
5.88398
21
-3.025
0
LINE
8
BLACK
6
CONTINUOUS
10
5.88398
20
-3.025
11
5.88458
21
-3.02199
0
LINE
8
BLACK
6
CONTINUOUS
10
5.88458
20
-3.02199
11
5.88628
21
-3.01943
0
LINE
8
BLACK
6
CONTINUOUS
10
5.88628
20
-3.01943
11
5.88884
21
-3.01773
0
LINE
8
BLACK
6
CONTINUOUS
10
5.88884
20
-3.01773
11
5.89185
21
-3.01713
0
LINE
8
BLACK
6
CONTINUOUS
10
5.89185
20
-3.01713
11
6.04185
21
-3.01713
0
LINE
8
BLACK
6
CONTINUOUS
10
6.04185
20
-3.01713
11
6.04486
21
-3.01773
0
LINE
8
BLACK
6
CONTINUOUS
10
5.49691
20
-3.06981
11
5.49947
21
-3.07152
0
LINE
8
BLACK
6
CONTINUOUS
10
5.49947
20
-3.07152
11
5.50117
21
-3.07407
0
LINE
8
BLACK
6
CONTINUOUS
10
5.50117
20
-3.07407
11
5.50177
21
-3.07709
0
LINE
8
BLACK
6
CONTINUOUS
10
5.50177
20
-3.07709
11
5.50177
21
-3.14795
0
LINE
8
BLACK
6
CONTINUOUS
10
5.50177
20
-3.14795
11
5.50117
21
-3.15097
0
LINE
8
BLACK
6
CONTINUOUS
10
5.50117
20
-3.15097
11
5.49947
21
-3.15352
0
LINE
8
BLACK
6
CONTINUOUS
10
5.49947
20
-3.15352
11
5.49691
21
-3.15523
0
LINE
8
BLACK
6
CONTINUOUS
10
5.49691
20
-3.15523
11
5.4939
21
-3.15583
0
LINE
8
BLACK
6
CONTINUOUS
10
5.4939
20
-3.15583
11
5.4061
21
-3.15583
0
LINE
8
BLACK
6
CONTINUOUS
10
5.4061
20
-3.15583
11
5.40309
21
-3.15523
0
LINE
8
BLACK
6
CONTINUOUS
10
5.40309
20
-3.15523
11
5.40053
21
-3.15352
0
LINE
8
BLACK
6
CONTINUOUS
10
5.40053
20
-3.15352
11
5.39883
21
-3.15097
0
LINE
8
BLACK
6
CONTINUOUS
10
5.39883
20
-3.15097
11
5.39823
21
-3.14795
0
LINE
8
BLACK
6
CONTINUOUS
10
5.39823
20
-3.14795
11
5.39823
21
-3.07709
0
LINE
8
BLACK
6
CONTINUOUS
10
5.39823
20
-3.07709
11
5.39883
21
-3.07407
0
LINE
8
BLACK
6
CONTINUOUS
10
5.39883
20
-3.07407
11
5.40053
21
-3.07152
0
LINE
8
BLACK
6
CONTINUOUS
10
5.40053
20
-3.07152
11
5.40309
21
-3.06981
0
LINE
8
BLACK
6
CONTINUOUS
10
5.40309
20
-3.06981
11
5.4061
21
-3.06921
0
LINE
8
BLACK
6
CONTINUOUS
10
5.4061
20
-3.06921
11
5.4939
21
-3.06921
0
LINE
8
BLACK
6
CONTINUOUS
10
5.4939
20
-3.06921
11
5.49691
21
-3.06981
0
LINE
8
BLACK
6
CONTINUOUS
10
5.62451
20
-3.09899
11
5.62706
21
-3.10069
0
LINE
8
BLACK
6
CONTINUOUS
10
5.62706
20
-3.10069
11
5.62877
21
-3.10325
0
LINE
8
BLACK
6
CONTINUOUS
10
5.62877
20
-3.10325
11
5.62937
21
-3.10626
0
LINE
8
BLACK
6
CONTINUOUS
10
5.62937
20
-3.10626
11
5.62937
21
-3.14563
0
LINE
8
BLACK
6
CONTINUOUS
10
5.62937
20
-3.14563
11
5.62877
21
-3.14864
0
LINE
8
BLACK
6
CONTINUOUS
10
5.62877
20
-3.14864
11
5.62706
21
-3.1512
0
LINE
8
BLACK
6
CONTINUOUS
10
5.62706
20
-3.1512
11
5.62451
21
-3.1529
0
LINE
8
BLACK
6
CONTINUOUS
10
5.62451
20
-3.1529
11
5.6215
21
-3.1535
0
LINE
8
BLACK
6
CONTINUOUS
10
5.6215
20
-3.1535
11
5.5585
21
-3.1535
0
LINE
8
BLACK
6
CONTINUOUS
10
5.5585
20
-3.1535
11
5.55549
21
-3.1529
0
LINE
8
BLACK
6
CONTINUOUS
10
5.55549
20
-3.1529
11
5.55294
21
-3.1512
0
LINE
8
BLACK
6
CONTINUOUS
10
5.55294
20
-3.1512
11
5.55123
21
-3.14864
0
LINE
8
BLACK
6
CONTINUOUS
10
5.55123
20
-3.14864
11
5.55063
21
-3.14563
0
LINE
8
BLACK
6
CONTINUOUS
10
5.55063
20
-3.14563
11
5.55063
21
-3.10626
0
LINE
8
BLACK
6
CONTINUOUS
10
5.55063
20
-3.10626
11
5.55123
21
-3.10325
0
LINE
8
BLACK
6
CONTINUOUS
10
5.55123
20
-3.10325
11
5.55294
21
-3.10069
0
LINE
8
BLACK
6
CONTINUOUS
10
5.55294
20
-3.10069
11
5.55549
21
-3.09899
0
LINE
8
BLACK
6
CONTINUOUS
10
5.55549
20
-3.09899
11
5.5585
21
-3.09839
0
LINE
8
BLACK
6
CONTINUOUS
10
5.5585
20
-3.09839
11
5.6215
21
-3.09839
0
LINE
8
BLACK
6
CONTINUOUS
10
5.6215
20
-3.09839
11
5.62451
21
-3.09899
0
LINE
8
BLACK
6
CONTINUOUS
10
5.25939
20
-3.04713
11
5.26195
21
-3.04884
0
LINE
8
BLACK
6
CONTINUOUS
10
5.26195
20
-3.04884
11
5.26365
21
-3.0514
0
LINE
8
BLACK
6
CONTINUOUS
10
5.26365
20
-3.0514
11
5.26425
21
-3.05441
0
LINE
8
BLACK
6
CONTINUOUS
10
5.26425
20
-3.05441
11
5.26425
21
-3.10559
0
LINE
8
BLACK
6
CONTINUOUS
10
5.26425
20
-3.10559
11
5.26365
21
-3.1086
0
LINE
8
BLACK
6
CONTINUOUS
10
5.26365
20
-3.1086
11
5.26195
21
-3.11116
0
LINE
8
BLACK
6
CONTINUOUS
10
5.26195
20
-3.11116
11
5.25939
21
-3.11287
0
LINE
8
BLACK
6
CONTINUOUS
10
5.25939
20
-3.11287
11
5.25638
21
-3.11346
0
LINE
8
BLACK
6
CONTINUOUS
10
5.25638
20
-3.11346
11
5.22882
21
-3.11346
0
LINE
8
BLACK
6
CONTINUOUS
10
5.22882
20
-3.11346
11
5.22581
21
-3.11287
0
LINE
8
BLACK
6
CONTINUOUS
10
5.22581
20
-3.11287
11
5.22325
21
-3.11116
0
LINE
8
BLACK
6
CONTINUOUS
10
5.22325
20
-3.11116
11
5.22154
21
-3.1086
0
LINE
8
BLACK
6
CONTINUOUS
10
5.22154
20
-3.1086
11
5.22094
21
-3.10559
0
LINE
8
BLACK
6
CONTINUOUS
10
5.22094
20
-3.10559
11
5.22094
21
-3.05441
0
LINE
8
BLACK
6
CONTINUOUS
10
5.22094
20
-3.05441
11
5.22154
21
-3.0514
0
LINE
8
BLACK
6
CONTINUOUS
10
5.22154
20
-3.0514
11
5.22325
21
-3.04884
0
LINE
8
BLACK
6
CONTINUOUS
10
5.22325
20
-3.04884
11
5.22581
21
-3.04713
0
LINE
8
BLACK
6
CONTINUOUS
10
5.22581
20
-3.04713
11
5.22882
21
-3.04654
0
LINE
8
BLACK
6
CONTINUOUS
10
5.22882
20
-3.04654
11
5.25638
21
-3.04654
0
LINE
8
BLACK
6
CONTINUOUS
10
5.25638
20
-3.04654
11
5.25939
21
-3.04713
0
LINE
8
BLACK
6
CONTINUOUS
10
5.33419
20
-3.04713
11
5.33675
21
-3.04884
0
LINE
8
BLACK
6
CONTINUOUS
10
5.33675
20
-3.04884
11
5.33846
21
-3.0514
0
LINE
8
BLACK
6
CONTINUOUS
10
5.33846
20
-3.0514
11
5.33906
21
-3.05441
0
LINE
8
BLACK
6
CONTINUOUS
10
5.33906
20
-3.05441
11
5.33906
21
-3.10559
0
LINE
8
BLACK
6
CONTINUOUS
10
5.33906
20
-3.10559
11
5.33846
21
-3.1086
0
LINE
8
BLACK
6
CONTINUOUS
10
5.33846
20
-3.1086
11
5.33675
21
-3.11116
0
LINE
8
BLACK
6
CONTINUOUS
10
5.33675
20
-3.11116
11
5.33419
21
-3.11287
0
LINE
8
BLACK
6
CONTINUOUS
10
5.33419
20
-3.11287
11
5.33118
21
-3.11346
0
LINE
8
BLACK
6
CONTINUOUS
10
5.33118
20
-3.11346
11
5.30362
21
-3.11346
0
LINE
8
BLACK
6
CONTINUOUS
10
5.30362
20
-3.11346
11
5.30061
21
-3.11287
0
LINE
8
BLACK
6
CONTINUOUS
10
5.30061
20
-3.11287
11
5.29805
21
-3.11116
0
LINE
8
BLACK
6
CONTINUOUS
10
5.29805
20
-3.11116
11
5.29635
21
-3.1086
0
LINE
8
BLACK
6
CONTINUOUS
10
5.29635
20
-3.1086
11
5.29575
21
-3.10559
0
LINE
8
BLACK
6
CONTINUOUS
10
5.29575
20
-3.10559
11
5.29575
21
-3.05441
0
LINE
8
BLACK
6
CONTINUOUS
10
5.29575
20
-3.05441
11
5.29635
21
-3.0514
0
LINE
8
BLACK
6
CONTINUOUS
10
5.29635
20
-3.0514
11
5.29805
21
-3.04884
0
LINE
8
BLACK
6
CONTINUOUS
10
5.29805
20
-3.04884
11
5.30061
21
-3.04713
0
LINE
8
BLACK
6
CONTINUOUS
10
5.30061
20
-3.04713
11
5.30362
21
-3.04654
0
LINE
8
BLACK
6
CONTINUOUS
10
5.30362
20
-3.04654
11
5.33118
21
-3.04654
0
LINE
8
BLACK
6
CONTINUOUS
10
5.33118
20
-3.04654
11
5.33419
21
-3.04713
0
LINE
8
BLACK
6
CONTINUOUS
10
5.5136
20
-2.96135
11
5.51616
21
-2.96305
0
LINE
8
BLACK
6
CONTINUOUS
10
5.51616
20
-2.96305
11
5.51787
21
-2.96561
0
LINE
8
BLACK
6
CONTINUOUS
10
5.51787
20
-2.96561
11
5.51846
21
-2.96862
0
LINE
8
BLACK
6
CONTINUOUS
10
5.51846
20
-2.96862
11
5.51846
21
-2.99618
0
LINE
8
BLACK
6
CONTINUOUS
10
5.51846
20
-2.99618
11
5.51787
21
-2.99919
0
LINE
8
BLACK
6
CONTINUOUS
10
5.51787
20
-2.99919
11
5.51616
21
-3.00175
0
LINE
8
BLACK
6
CONTINUOUS
10
5.51616
20
-3.00175
11
5.5136
21
-3.00346
0
LINE
8
BLACK
6
CONTINUOUS
10
5.5136
20
-3.00346
11
5.51059
21
-3.00406
0
LINE
8
BLACK
6
CONTINUOUS
10
5.51059
20
-3.00406
11
5.45941
21
-3.00406
0
LINE
8
BLACK
6
CONTINUOUS
10
5.45941
20
-3.00406
11
5.4564
21
-3.00346
0
LINE
8
BLACK
6
CONTINUOUS
10
5.4564
20
-3.00346
11
5.45384
21
-3.00175
0
LINE
8
BLACK
6
CONTINUOUS
10
5.45384
20
-3.00175
11
5.45213
21
-2.99919
0
LINE
8
BLACK
6
CONTINUOUS
10
5.45213
20
-2.99919
11
5.45154
21
-2.99618
0
LINE
8
BLACK
6
CONTINUOUS
10
5.45154
20
-2.99618
11
5.45154
21
-2.96862
0
LINE
8
BLACK
6
CONTINUOUS
10
5.45154
20
-2.96862
11
5.45213
21
-2.96561
0
LINE
8
BLACK
6
CONTINUOUS
10
5.45213
20
-2.96561
11
5.45384
21
-2.96305
0
LINE
8
BLACK
6
CONTINUOUS
10
5.45384
20
-2.96305
11
5.4564
21
-2.96135
0
LINE
8
BLACK
6
CONTINUOUS
10
5.4564
20
-2.96135
11
5.45941
21
-2.96075
0
LINE
8
BLACK
6
CONTINUOUS
10
5.45941
20
-2.96075
11
5.51059
21
-2.96075
0
LINE
8
BLACK
6
CONTINUOUS
10
5.51059
20
-2.96075
11
5.5136
21
-2.96135
0
LINE
8
BLACK
6
CONTINUOUS
10
5.5136
20
-2.88654
11
5.51616
21
-2.88825
0
LINE
8
BLACK
6
CONTINUOUS
10
5.51616
20
-2.88825
11
5.51787
21
-2.89081
0
LINE
8
BLACK
6
CONTINUOUS
10
5.51787
20
-2.89081
11
5.51846
21
-2.89382
0
LINE
8
BLACK
6
CONTINUOUS
10
5.51846
20
-2.89382
11
5.51846
21
-2.92138
0
LINE
8
BLACK
6
CONTINUOUS
10
5.51846
20
-2.92138
11
5.51787
21
-2.92439
0
LINE
8
BLACK
6
CONTINUOUS
10
5.51787
20
-2.92439
11
5.51616
21
-2.92695
0
LINE
8
BLACK
6
CONTINUOUS
10
5.51616
20
-2.92695
11
5.5136
21
-2.92865
0
LINE
8
BLACK
6
CONTINUOUS
10
5.5136
20
-2.92865
11
5.51059
21
-2.92925
0
LINE
8
BLACK
6
CONTINUOUS
10
5.51059
20
-2.92925
11
5.45941
21
-2.92925
0
LINE
8
BLACK
6
CONTINUOUS
10
5.45941
20
-2.92925
11
5.4564
21
-2.92865
0
LINE
8
BLACK
6
CONTINUOUS
10
5.4564
20
-2.92865
11
5.45384
21
-2.92695
0
LINE
8
BLACK
6
CONTINUOUS
10
5.45384
20
-2.92695
11
5.45213
21
-2.92439
0
LINE
8
BLACK
6
CONTINUOUS
10
5.45213
20
-2.92439
11
5.45154
21
-2.92138
0
LINE
8
BLACK
6
CONTINUOUS
10
5.45154
20
-2.92138
11
5.45154
21
-2.89382
0
LINE
8
BLACK
6
CONTINUOUS
10
5.45154
20
-2.89382
11
5.45213
21
-2.89081
0
LINE
8
BLACK
6
CONTINUOUS
10
5.45213
20
-2.89081
11
5.45384
21
-2.88825
0
LINE
8
BLACK
6
CONTINUOUS
10
5.45384
20
-2.88825
11
5.4564
21
-2.88654
0
LINE
8
BLACK
6
CONTINUOUS
10
5.4564
20
-2.88654
11
5.45941
21
-2.88594
0
LINE
8
BLACK
6
CONTINUOUS
10
5.45941
20
-2.88594
11
5.51059
21
-2.88594
0
LINE
8
BLACK
6
CONTINUOUS
10
5.51059
20
-2.88594
11
5.5136
21
-2.88654
0
LINE
8
BLACK
6
CONTINUOUS
10
4.82051
20
-2.68368
11
4.83387
21
-2.68685
0
LINE
8
BLACK
6
CONTINUOUS
10
4.83387
20
-2.68685
11
4.84678
21
-2.69155
0
LINE
8
BLACK
6
CONTINUOUS
10
4.84678
20
-2.69155
11
4.85906
21
-2.69771
0
LINE
8
BLACK
6
CONTINUOUS
10
4.85906
20
-2.69771
11
4.87053
21
-2.70526
0
LINE
8
BLACK
6
CONTINUOUS
10
4.87053
20
-2.70526
11
4.88105
21
-2.71409
0
LINE
8
BLACK
6
CONTINUOUS
10
4.88105
20
-2.71409
11
4.89048
21
-2.72408
0
LINE
8
BLACK
6
CONTINUOUS
10
4.89048
20
-2.72408
11
4.89868
21
-2.7351
0
LINE
8
BLACK
6
CONTINUOUS
10
4.89868
20
-2.7351
11
4.90555
21
-2.74699
0
LINE
8
BLACK
6
CONTINUOUS
10
4.90555
20
-2.74699
11
4.91099
21
-2.7596
0
LINE
8
BLACK
6
CONTINUOUS
10
4.91099
20
-2.7596
11
4.91493
21
-2.77276
0
LINE
8
BLACK
6
CONTINUOUS
10
4.91493
20
-2.77276
11
4.91731
21
-2.78629
0
LINE
8
BLACK
6
CONTINUOUS
10
4.91731
20
-2.78629
11
4.91811
21
-2.8
0
LINE
8
BLACK
6
CONTINUOUS
10
4.91811
20
-2.8
11
4.91731
21
-2.81371
0
LINE
8
BLACK
6
CONTINUOUS
10
4.91731
20
-2.81371
11
4.91493
21
-2.82724
0
LINE
8
BLACK
6
CONTINUOUS
10
4.91493
20
-2.82724
11
4.91099
21
-2.8404
0
LINE
8
BLACK
6
CONTINUOUS
10
4.91099
20
-2.8404
11
4.90555
21
-2.85301
0
LINE
8
BLACK
6
CONTINUOUS
10
4.90555
20
-2.85301
11
4.89868
21
-2.8649
0
LINE
8
BLACK
6
CONTINUOUS
10
4.89868
20
-2.8649
11
4.89048
21
-2.87592
0
LINE
8
BLACK
6
CONTINUOUS
10
4.89048
20
-2.87592
11
4.88105
21
-2.88591
0
LINE
8
BLACK
6
CONTINUOUS
10
4.88105
20
-2.88591
11
4.87053
21
-2.89474
0
LINE
8
BLACK
6
CONTINUOUS
10
4.87053
20
-2.89474
11
4.85906
21
-2.90229
0
LINE
8
BLACK
6
CONTINUOUS
10
4.85906
20
-2.90229
11
4.84678
21
-2.90845
0
LINE
8
BLACK
6
CONTINUOUS
10
4.84678
20
-2.90845
11
4.83387
21
-2.91315
0
LINE
8
BLACK
6
CONTINUOUS
10
4.83387
20
-2.91315
11
4.82051
21
-2.91632
0
LINE
8
BLACK
6
CONTINUOUS
10
4.82051
20
-2.91632
11
4.80687
21
-2.91791
0
LINE
8
BLACK
6
CONTINUOUS
10
4.80687
20
-2.91791
11
4.79313
21
-2.91791
0
LINE
8
BLACK
6
CONTINUOUS
10
4.79313
20
-2.91791
11
4.77949
21
-2.91632
0
LINE
8
BLACK
6
CONTINUOUS
10
4.77949
20
-2.91632
11
4.76613
21
-2.91315
0
LINE
8
BLACK
6
CONTINUOUS
10
4.76613
20
-2.91315
11
4.75322
21
-2.90845
0
LINE
8
BLACK
6
CONTINUOUS
10
4.75322
20
-2.90845
11
4.74094
21
-2.90229
0
LINE
8
BLACK
6
CONTINUOUS
10
4.74094
20
-2.90229
11
4.72947
21
-2.89474
0
LINE
8
BLACK
6
CONTINUOUS
10
4.72947
20
-2.89474
11
4.71895
21
-2.88591
0
LINE
8
BLACK
6
CONTINUOUS
10
4.71895
20
-2.88591
11
4.70952
21
-2.87592
0
LINE
8
BLACK
6
CONTINUOUS
10
4.70952
20
-2.87592
11
4.70132
21
-2.8649
0
LINE
8
BLACK
6
CONTINUOUS
10
4.70132
20
-2.8649
11
4.69445
21
-2.85301
0
LINE
8
BLACK
6
CONTINUOUS
10
4.69445
20
-2.85301
11
4.68901
21
-2.8404
0
LINE
8
BLACK
6
CONTINUOUS
10
4.68901
20
-2.8404
11
4.68507
21
-2.82724
0
LINE
8
BLACK
6
CONTINUOUS
10
4.68507
20
-2.82724
11
4.68269
21
-2.81371
0
LINE
8
BLACK
6
CONTINUOUS
10
4.68269
20
-2.81371
11
4.68189
21
-2.8
0
LINE
8
BLACK
6
CONTINUOUS
10
4.68189
20
-2.8
11
4.68269
21
-2.78629
0
LINE
8
BLACK
6
CONTINUOUS
10
4.68269
20
-2.78629
11
4.68507
21
-2.77276
0
LINE
8
BLACK
6
CONTINUOUS
10
4.68507
20
-2.77276
11
4.68901
21
-2.7596
0
LINE
8
BLACK
6
CONTINUOUS
10
4.68901
20
-2.7596
11
4.69445
21
-2.74699
0
LINE
8
BLACK
6
CONTINUOUS
10
4.69445
20
-2.74699
11
4.70132
21
-2.7351
0
LINE
8
BLACK
6
CONTINUOUS
10
4.70132
20
-2.7351
11
4.70952
21
-2.72408
0
LINE
8
BLACK
6
CONTINUOUS
10
4.70952
20
-2.72408
11
4.71895
21
-2.71409
0
LINE
8
BLACK
6
CONTINUOUS
10
4.71895
20
-2.71409
11
4.72947
21
-2.70526
0
LINE
8
BLACK
6
CONTINUOUS
10
4.72947
20
-2.70526
11
4.74094
21
-2.69771
0
LINE
8
BLACK
6
CONTINUOUS
10
4.74094
20
-2.69771
11
4.75322
21
-2.69155
0
LINE
8
BLACK
6
CONTINUOUS
10
4.75322
20
-2.69155
11
4.76613
21
-2.68685
0
LINE
8
BLACK
6
CONTINUOUS
10
4.76613
20
-2.68685
11
4.77949
21
-2.68368
0
LINE
8
BLACK
6
CONTINUOUS
10
4.77949
20
-2.68368
11
4.79313
21
-2.68209
0
LINE
8
BLACK
6
CONTINUOUS
10
4.79313
20
-2.68209
11
4.80687
21
-2.68209
0
LINE
8
BLACK
6
CONTINUOUS
10
4.80687
20
-2.68209
11
4.82051
21
-2.68368
0
LINE
8
BLACK
6
CONTINUOUS
10
6.02051
20
-2.68368
11
6.03387
21
-2.68685
0
LINE
8
BLACK
6
CONTINUOUS
10
6.03387
20
-2.68685
11
6.04678
21
-2.69155
0
LINE
8
BLACK
6
CONTINUOUS
10
6.04678
20
-2.69155
11
6.05906
21
-2.69771
0
LINE
8
BLACK
6
CONTINUOUS
10
6.05906
20
-2.69771
11
6.07053
21
-2.70526
0
LINE
8
BLACK
6
CONTINUOUS
10
6.07053
20
-2.70526
11
6.08105
21
-2.71409
0
LINE
8
BLACK
6
CONTINUOUS
10
6.08105
20
-2.71409
11
6.09048
21
-2.72408
0
LINE
8
BLACK
6
CONTINUOUS
10
6.09048
20
-2.72408
11
6.09868
21
-2.7351
0
LINE
8
BLACK
6
CONTINUOUS
10
6.09868
20
-2.7351
11
6.10555
21
-2.74699
0
LINE
8
BLACK
6
CONTINUOUS
10
6.10555
20
-2.74699
11
6.11099
21
-2.7596
0
LINE
8
BLACK
6
CONTINUOUS
10
6.11099
20
-2.7596
11
6.11493
21
-2.77276
0
LINE
8
BLACK
6
CONTINUOUS
10
6.11493
20
-2.77276
11
6.11731
21
-2.78629
0
LINE
8
BLACK
6
CONTINUOUS
10
6.11731
20
-2.78629
11
6.11811
21
-2.8
0
LINE
8
BLACK
6
CONTINUOUS
10
6.11811
20
-2.8
11
6.11731
21
-2.81371
0
LINE
8
BLACK
6
CONTINUOUS
10
6.11731
20
-2.81371
11
6.11493
21
-2.82724
0
LINE
8
BLACK
6
CONTINUOUS
10
6.11493
20
-2.82724
11
6.11099
21
-2.8404
0
LINE
8
BLACK
6
CONTINUOUS
10
6.11099
20
-2.8404
11
6.10555
21
-2.85301
0
LINE
8
BLACK
6
CONTINUOUS
10
6.10555
20
-2.85301
11
6.09868
21
-2.8649
0
LINE
8
BLACK
6
CONTINUOUS
10
6.09868
20
-2.8649
11
6.09048
21
-2.87592
0
LINE
8
BLACK
6
CONTINUOUS
10
6.09048
20
-2.87592
11
6.08105
21
-2.88591
0
LINE
8
BLACK
6
CONTINUOUS
10
6.08105
20
-2.88591
11
6.07053
21
-2.89474
0
LINE
8
BLACK
6
CONTINUOUS
10
6.07053
20
-2.89474
11
6.05906
21
-2.90229
0
LINE
8
BLACK
6
CONTINUOUS
10
6.05906
20
-2.90229
11
6.04678
21
-2.90845
0
LINE
8
BLACK
6
CONTINUOUS
10
6.04678
20
-2.90845
11
6.03387
21
-2.91315
0
LINE
8
BLACK
6
CONTINUOUS
10
6.03387
20
-2.91315
11
6.02051
21
-2.91632
0
LINE
8
BLACK
6
CONTINUOUS
10
6.02051
20
-2.91632
11
6.00687
21
-2.91791
0
LINE
8
BLACK
6
CONTINUOUS
10
6.00687
20
-2.91791
11
5.99313
21
-2.91791
0
LINE
8
BLACK
6
CONTINUOUS
10
5.99313
20
-2.91791
11
5.97949
21
-2.91632
0
LINE
8
BLACK
6
CONTINUOUS
10
5.97949
20
-2.91632
11
5.96613
21
-2.91315
0
LINE
8
BLACK
6
CONTINUOUS
10
5.96613
20
-2.91315
11
5.95322
21
-2.90845
0
LINE
8
BLACK
6
CONTINUOUS
10
5.95322
20
-2.90845
11
5.94094
21
-2.90229
0
LINE
8
BLACK
6
CONTINUOUS
10
5.94094
20
-2.90229
11
5.92947
21
-2.89474
0
LINE
8
BLACK
6
CONTINUOUS
10
5.92947
20
-2.89474
11
5.91895
21
-2.88591
0
LINE
8
BLACK
6
CONTINUOUS
10
5.91895
20
-2.88591
11
5.90952
21
-2.87592
0
LINE
8
BLACK
6
CONTINUOUS
10
5.90952
20
-2.87592
11
5.90132
21
-2.8649
0
LINE
8
BLACK
6
CONTINUOUS
10
5.90132
20
-2.8649
11
5.89445
21
-2.85301
0
LINE
8
BLACK
6
CONTINUOUS
10
5.89445
20
-2.85301
11
5.88901
21
-2.8404
0
LINE
8
BLACK
6
CONTINUOUS
10
5.88901
20
-2.8404
11
5.88507
21
-2.82724
0
LINE
8
BLACK
6
CONTINUOUS
10
5.88507
20
-2.82724
11
5.88269
21
-2.81371
0
LINE
8
BLACK
6
CONTINUOUS
10
5.88269
20
-2.81371
11
5.88189
21
-2.8
0
LINE
8
BLACK
6
CONTINUOUS
10
5.88189
20
-2.8
11
5.88269
21
-2.78629
0
LINE
8
BLACK
6
CONTINUOUS
10
5.88269
20
-2.78629
11
5.88507
21
-2.77276
0
LINE
8
BLACK
6
CONTINUOUS
10
5.88507
20
-2.77276
11
5.88901
21
-2.7596
0
LINE
8
BLACK
6
CONTINUOUS
10
5.88901
20
-2.7596
11
5.89445
21
-2.74699
0
LINE
8
BLACK
6
CONTINUOUS
10
5.89445
20
-2.74699
11
5.90132
21
-2.7351
0
LINE
8
BLACK
6
CONTINUOUS
10
5.90132
20
-2.7351
11
5.90952
21
-2.72408
0
LINE
8
BLACK
6
CONTINUOUS
10
5.90952
20
-2.72408
11
5.91895
21
-2.71409
0
LINE
8
BLACK
6
CONTINUOUS
10
5.91895
20
-2.71409
11
5.92947
21
-2.70526
0
LINE
8
BLACK
6
CONTINUOUS
10
5.92947
20
-2.70526
11
5.94094
21
-2.69771
0
LINE
8
BLACK
6
CONTINUOUS
10
5.94094
20
-2.69771
11
5.95322
21
-2.69155
0
LINE
8
BLACK
6
CONTINUOUS
10
5.95322
20
-2.69155
11
5.96613
21
-2.68685
0
LINE
8
BLACK
6
CONTINUOUS
10
5.96613
20
-2.68685
11
5.97949
21
-2.68368
0
LINE
8
BLACK
6
CONTINUOUS
10
5.97949
20
-2.68368
11
5.99313
21
-2.68209
0
LINE
8
BLACK
6
CONTINUOUS
10
5.99313
20
-2.68209
11
6.00687
21
-2.68209
0
LINE
8
BLACK
6
CONTINUOUS
10
6.00687
20
-2.68209
11
6.02051
21
-2.68368
  0
ENDSEC
  0
EOF
