  0
SECTION
  2
HEADER
  9
$ANGBASE
  50
0.0
  9
$ANGDIR
  70
1
  9
$MEASUREMENT
  70
0
  0
ENDSEC
  0
SECTION
  2
TABLES
  0
TABLE
  2
LTYPE
  70
4
  0
LTYPE
  5
40F
  2
CONTINUOUS
  70
0
  3
Solid line
  72
65
  73
0
  40
0.0
  0
LTYPE
  5
410
  2
DASHDOT
 70
0
  3
Dash Dot ____ _ ____ _
 72
65
 73
4
 40
2.0
 49
1.25
 49
-0.25
 49
0.25
 49
-0.25
  0
LTYPE
  5
411
  2
DASHED
 70
0
  3
Dashed __ __ __ __ __
 72
65
 73
2
 40
0.75
 49
0.5
 49
-0.25
  0
LTYPE
  5
43B
  2
DOTTED
 70
0
  3
Dotted .  .  .  .
 72
65
 73
2
 40
0.2
 49
0.0
 49
-0.2
  0
ENDTAB
  0
TABLE
  2
STYLE
  70
4
  0
STYLE
  2
KICAD
  70
0
  40
0
  41
1
  42
1
  50
0
  71
0
  3
isocp.shx
  0
STYLE
  2
KICADB
  70
0
  40
0
  41
1
  42
1
  50
0
  71
0
  3
isocp.shx
  0
STYLE
  2
KICADI
  70
0
  40
0
  41
1
  42
1
  50
15
  71
0
  3
isocp.shx
  0
STYLE
  2
KICADBI
  70
0
  40
0
  41
1
  42
1
  50
15
  71
0
  3
isocp.shx
  0
ENDTAB
  0
TABLE
  2
LAYER
  70
1
  0
LAYER
  2
BLACK
  70
0
  62
7
  6
CONTINUOUS
  0
ENDTAB
  0
ENDSEC
  0
SECTION
  2
ENTITIES
0
LINE
8
BLACK
6
CONTINUOUS
10
5.1790000000000003
20
-4.0389999999999997
11
5.0910000000000002
21
-4.0389999999999997
0
LINE
8
BLACK
6
CONTINUOUS
10
5.0910000000000002
20
-4.0389999999999997
11
5.0910000000000002
21
-3.9510000000000001
0
LINE
8
BLACK
6
CONTINUOUS
10
5.0910000000000002
20
-3.9510000000000001
11
5.1790000000000003
21
-3.9510000000000001
0
LINE
8
BLACK
6
CONTINUOUS
10
5.1790000000000003
20
-3.9510000000000001
11
5.1790000000000003
21
-4.0389999999999997
0
LINE
8
BLACK
6
CONTINUOUS
10
5.4905905511811026
20
-3.9155905511811024
11
5.4394094488188971
21
-3.9155905511811024
0
LINE
8
BLACK
6
CONTINUOUS
10
5.4394094488188971
20
-3.9155905511811024
11
5.4394094488188971
21
-3.8644094488188974
0
LINE
8
BLACK
6
CONTINUOUS
10
5.4394094488188971
20
-3.8644094488188974
11
5.4905905511811026
21
-3.8644094488188974
0
LINE
8
BLACK
6
CONTINUOUS
10
5.4905905511811026
20
-3.8644094488188974
11
5.4905905511811026
21
-3.9155905511811024
0
LINE
8
BLACK
6
CONTINUOUS
10
5.8449999999999998
20
-3.7749999999999999
11
5.6950000000000003
21
-3.7749999999999999
0
LINE
8
BLACK
6
CONTINUOUS
10
5.6950000000000003
20
-3.7749999999999999
11
5.6950000000000003
21
-3.625
0
LINE
8
BLACK
6
CONTINUOUS
10
5.6950000000000003
20
-3.625
11
5.8449999999999998
21
-3.625
0
LINE
8
BLACK
6
CONTINUOUS
10
5.8449999999999998
20
-3.625
11
5.8449999999999998
21
-3.7749999999999999
0
LINE
8
BLACK
6
CONTINUOUS
10
6.0418503937007877
20
-3.7749999999999999
11
5.8918503937007873
21
-3.7749999999999999
0
LINE
8
BLACK
6
CONTINUOUS
10
5.8918503937007873
20
-3.7749999999999999
11
5.8918503937007873
21
-3.625
0
LINE
8
BLACK
6
CONTINUOUS
10
5.8918503937007873
20
-3.625
11
6.0418503937007877
21
-3.625
0
LINE
8
BLACK
6
CONTINUOUS
10
6.0418503937007877
20
-3.625
11
6.0418503937007877
21
-3.7749999999999999
0
LINE
8
BLACK
6
CONTINUOUS
10
5.1309055118110232
20
-3.5697713385826773
11
5.1340477559055113
21
-3.5724080314960629
0
LINE
8
BLACK
6
CONTINUOUS
10
5.1340477559055113
20
-3.5724080314960629
11
5.1350826377952759
21
-3.5742004724409449
0
LINE
8
BLACK
6
CONTINUOUS
10
5.1350826377952759
20
-3.5742004724409449
11
5.2849746850393702
21
-3.5741011023622047
0
LINE
8
BLACK
6
CONTINUOUS
10
5.2849746850393702
20
-3.5741011023622047
11
5.2859522440944877
21
-3.5724080314960629
0
LINE
8
BLACK
6
CONTINUOUS
10
5.2859522440944877
20
-3.5724080314960629
11
5.2890944881889759
21
-3.5697713385826773
0
LINE
8
BLACK
6
CONTINUOUS
10
5.2890944881889759
20
-3.5697713385826773
11
5.2929490551181102
21
-3.5683684251968502
0
LINE
8
BLACK
6
CONTINUOUS
10
5.2929490551181102
20
-3.5683684251968502
11
5.2970509448818897
21
-3.5683684251968502
0
LINE
8
BLACK
6
CONTINUOUS
10
5.2970509448818897
20
-3.5683684251968502
11
5.3009055118110231
21
-3.5697713385826773
0
LINE
8
BLACK
6
CONTINUOUS
10
5.3009055118110231
20
-3.5697713385826773
11
5.3040477559055113
21
-3.5724080314960629
0
LINE
8
BLACK
6
CONTINUOUS
10
5.3040477559055113
20
-3.5724080314960629
11
5.3060987401574806
21
-3.5759603937007873
0
LINE
8
BLACK
6
CONTINUOUS
10
5.3060987401574806
20
-3.5759603937007873
11
5.3068110236220472
21
-3.5800000000000001
0
LINE
8
BLACK
6
CONTINUOUS
10
5.3068110236220472
20
-3.5800000000000001
11
5.3060987401574806
21
-3.5840396062992124
0
LINE
8
BLACK
6
CONTINUOUS
10
5.3060987401574806
20
-3.5840396062992124
11
5.3040477559055113
21
-3.5875919685039368
0
LINE
8
BLACK
6
CONTINUOUS
10
5.3040477559055113
20
-3.5875919685039368
11
5.3009055118110231
21
-3.5902286614173229
0
LINE
8
BLACK
6
CONTINUOUS
10
5.3009055118110231
20
-3.5902286614173229
11
5.2970509448818897
21
-3.5916315748031495
0
LINE
8
BLACK
6
CONTINUOUS
10
5.2970509448818897
20
-3.5916315748031495
11
5.2929490551181102
21
-3.5916315748031495
0
LINE
8
BLACK
6
CONTINUOUS
10
5.2929490551181102
20
-3.5916315748031495
11
5.2890944881889759
21
-3.5902286614173229
0
LINE
8
BLACK
6
CONTINUOUS
10
5.2890944881889759
20
-3.5902286614173229
11
5.2859522440944877
21
-3.5875919685039368
0
LINE
8
BLACK
6
CONTINUOUS
10
5.2859522440944877
20
-3.5875919685039368
11
5.2849173228346453
21
-3.5857994881889761
0
LINE
8
BLACK
6
CONTINUOUS
10
5.2849173228346453
20
-3.5857994881889761
11
5.135025275590551
21
-3.5858988582677163
0
LINE
8
BLACK
6
CONTINUOUS
10
5.135025275590551
20
-3.5858988582677163
11
5.1340477559055113
21
-3.5875919685039368
0
LINE
8
BLACK
6
CONTINUOUS
10
5.1340477559055113
20
-3.5875919685039368
11
5.1309055118110232
21
-3.5902286614173229
0
LINE
8
BLACK
6
CONTINUOUS
10
5.1309055118110232
20
-3.5902286614173229
11
5.1270509448818897
21
-3.5916315748031495
0
LINE
8
BLACK
6
CONTINUOUS
10
5.1270509448818897
20
-3.5916315748031495
11
5.1229490551181103
21
-3.5916315748031495
0
LINE
8
BLACK
6
CONTINUOUS
10
5.1229490551181103
20
-3.5916315748031495
11
5.1190944881889759
21
-3.5902286614173229
0
LINE
8
BLACK
6
CONTINUOUS
10
5.1190944881889759
20
-3.5902286614173229
11
5.1159522440944878
21
-3.5875919685039368
0
LINE
8
BLACK
6
CONTINUOUS
10
5.1159522440944878
20
-3.5875919685039368
11
5.1139012598425193
21
-3.5840396062992124
0
LINE
8
BLACK
6
CONTINUOUS
10
5.1139012598425193
20
-3.5840396062992124
11
5.1131889763779528
21
-3.5800000000000001
0
LINE
8
BLACK
6
CONTINUOUS
10
5.1131889763779528
20
-3.5800000000000001
11
5.1139012598425193
21
-3.5759603937007873
0
LINE
8
BLACK
6
CONTINUOUS
10
5.1139012598425193
20
-3.5759603937007873
11
5.1159522440944878
21
-3.5724080314960629
0
LINE
8
BLACK
6
CONTINUOUS
10
5.1159522440944878
20
-3.5724080314960629
11
5.1190944881889759
21
-3.5697713385826773
0
LINE
8
BLACK
6
CONTINUOUS
10
5.1190944881889759
20
-3.5697713385826773
11
5.1229490551181103
21
-3.5683684251968502
0
LINE
8
BLACK
6
CONTINUOUS
10
5.1229490551181103
20
-3.5683684251968502
11
5.1270509448818897
21
-3.5683684251968502
0
LINE
8
BLACK
6
CONTINUOUS
10
5.1270509448818897
20
-3.5683684251968502
11
5.1309055118110232
21
-3.5697713385826773
0
LINE
8
BLACK
6
CONTINUOUS
10
5.8449999999999998
20
-3.1749999999999998
11
5.6950000000000003
21
-3.1749999999999998
0
LINE
8
BLACK
6
CONTINUOUS
10
5.6950000000000003
20
-3.1749999999999998
11
5.6950000000000003
21
-3.0249999999999999
0
LINE
8
BLACK
6
CONTINUOUS
10
5.6950000000000003
20
-3.0249999999999999
11
5.8449999999999998
21
-3.0249999999999999
0
LINE
8
BLACK
6
CONTINUOUS
10
5.8449999999999998
20
-3.0249999999999999
11
5.8449999999999998
21
-3.1749999999999998
0
LINE
8
BLACK
6
CONTINUOUS
10
6.0418503937007877
20
-3.1749999999999998
11
5.8918503937007873
21
-3.1749999999999998
0
LINE
8
BLACK
6
CONTINUOUS
10
5.8918503937007873
20
-3.1749999999999998
11
5.8918503937007873
21
-3.0249999999999999
0
LINE
8
BLACK
6
CONTINUOUS
10
5.8918503937007873
20
-3.0249999999999999
11
6.0418503937007877
21
-3.0249999999999999
0
LINE
8
BLACK
6
CONTINUOUS
10
6.0418503937007877
20
-3.0249999999999999
11
6.0418503937007877
21
-3.1749999999999998
0
LINE
8
BLACK
6
CONTINUOUS
10
5.4448999999999996
20
-2.794137440944882
11
5.46
21
-2.7940944881889762
0
LINE
8
BLACK
6
CONTINUOUS
10
5.46
20
-2.7940944881889762
11
5.4611521259842517
21
-2.7942079527559054
0
LINE
8
BLACK
6
CONTINUOUS
10
5.4611521259842517
20
-2.7942079527559054
11
5.4620338976377951
21
-2.7945731889763779
0
LINE
8
BLACK
6
CONTINUOUS
10
5.4620338976377951
20
-2.7945731889763779
11
5.4632809055118106
21
-2.7950897244094488
0
LINE
8
BLACK
6
CONTINUOUS
10
5.4632809055118106
20
-2.7950897244094488
11
5.4841758267716534
21
-2.8158241732283464
0
LINE
8
BLACK
6
CONTINUOUS
10
5.4841758267716534
20
-2.8158241732283464
11
5.4849102755905514
21
-2.81671905511811
0
LINE
8
BLACK
6
CONTINUOUS
10
5.4849102755905514
20
-2.81671905511811
11
5.4852754724409447
21
-2.8176008267716535
0
LINE
8
BLACK
6
CONTINUOUS
10
5.4852754724409447
20
-2.8176008267716535
11
5.485792047244094
21
-2.8188478740157481
0
LINE
8
BLACK
6
CONTINUOUS
10
5.485792047244094
20
-2.8188478740157481
11
5.4858681889763776
21
-2.8397577559055116
0
LINE
8
BLACK
6
CONTINUOUS
10
5.4858681889763776
20
-2.8397577559055116
11
5.4859055118110236
21
-2.8397713385826773
0
LINE
8
BLACK
6
CONTINUOUS
10
5.4859055118110236
20
-2.8397713385826773
11
5.4890477559055117
21
-2.8424080314960629
0
LINE
8
BLACK
6
CONTINUOUS
10
5.4890477559055117
20
-2.8424080314960629
11
5.4910987401574802
21
-2.8459603937007873
0
LINE
8
BLACK
6
CONTINUOUS
10
5.4910987401574802
20
-2.8459603937007873
11
5.4918110236220468
21
-2.8500000000000001
0
LINE
8
BLACK
6
CONTINUOUS
10
5.4918110236220468
20
-2.8500000000000001
11
5.4910987401574802
21
-2.8540396062992124
0
LINE
8
BLACK
6
CONTINUOUS
10
5.4910987401574802
20
-2.8540396062992124
11
5.4890477559055117
21
-2.8575919685039368
0
LINE
8
BLACK
6
CONTINUOUS
10
5.4890477559055117
20
-2.8575919685039368
11
5.4859055118110236
21
-2.8602286614173229
0
LINE
8
BLACK
6
CONTINUOUS
10
5.4859055118110236
20
-2.8602286614173229
11
5.4820509448818893
21
-2.8616315748031496
0
LINE
8
BLACK
6
CONTINUOUS
10
5.4820509448818893
20
-2.8616315748031496
11
5.4779490551181098
21
-2.8616315748031496
0
LINE
8
BLACK
6
CONTINUOUS
10
5.4779490551181098
20
-2.8616315748031496
11
5.4740944881889764
21
-2.8602286614173229
0
LINE
8
BLACK
6
CONTINUOUS
10
5.4740944881889764
20
-2.8602286614173229
11
5.4709522440944882
21
-2.8575919685039368
0
LINE
8
BLACK
6
CONTINUOUS
10
5.4709522440944882
20
-2.8575919685039368
11
5.4689012598425197
21
-2.8540396062992124
0
LINE
8
BLACK
6
CONTINUOUS
10
5.4689012598425197
20
-2.8540396062992124
11
5.4681889763779523
21
-2.8500000000000001
0
LINE
8
BLACK
6
CONTINUOUS
10
5.4681889763779523
20
-2.8500000000000001
11
5.4689012598425197
21
-2.8459603937007873
0
LINE
8
BLACK
6
CONTINUOUS
10
5.4689012598425197
20
-2.8459603937007873
11
5.4709522440944882
21
-2.8424080314960629
0
LINE
8
BLACK
6
CONTINUOUS
10
5.4709522440944882
20
-2.8424080314960629
11
5.4740944881889764
21
-2.8397713385826773
0
LINE
8
BLACK
6
CONTINUOUS
10
5.4740944881889764
20
-2.8397713385826773
11
5.4741663779527556
21
-2.8397451574803148
0
LINE
8
BLACK
6
CONTINUOUS
10
5.4741663779527556
20
-2.8397451574803148
11
5.4741029133858268
21
-2.8223142125984251
0
LINE
8
BLACK
6
CONTINUOUS
10
5.4741029133858268
20
-2.8223142125984251
11
5.4574634645669287
21
-2.8058025196850394
0
LINE
8
BLACK
6
CONTINUOUS
10
5.4574634645669287
20
-2.8058025196850394
11
5.4448999999999996
21
-2.805838307086614
0
LINE
8
BLACK
6
CONTINUOUS
10
5.4448999999999996
20
-2.805838307086614
11
5.4448999999999996
21
-2.8235999999999999
0
LINE
8
BLACK
6
CONTINUOUS
10
5.4448999999999996
20
-2.8235999999999999
11
5.3976999999999995
21
-2.8235999999999999
0
LINE
8
BLACK
6
CONTINUOUS
10
5.3976999999999995
20
-2.8235999999999999
11
5.3976999999999995
21
-2.7763999999999998
0
LINE
8
BLACK
6
CONTINUOUS
10
5.3976999999999995
20
-2.7763999999999998
11
5.4448999999999996
21
-2.7763999999999998
0
LINE
8
BLACK
6
CONTINUOUS
10
5.4448999999999996
20
-2.7763999999999998
11
5.4448999999999996
21
-2.794137440944882
0
LINE
8
BLACK
6
CONTINUOUS
10
6.1840944881889763
20
-2.6137583464566929
11
6.1862416535433074
21
-2.6159055118110235
0
LINE
8
BLACK
6
CONTINUOUS
10
6.1862416535433074
20
-2.6159055118110235
11
6.1870275590551183
21
-2.6188385826771654
0
LINE
8
BLACK
6
CONTINUOUS
10
6.1870275590551183
20
-2.6188385826771654
11
6.1870275590551183
21
-4.1811614173228344
0
LINE
8
BLACK
6
CONTINUOUS
10
6.1870275590551183
20
-4.1811614173228344
11
6.1862416535433074
21
-4.1840944881889763
0
LINE
8
BLACK
6
CONTINUOUS
10
6.1862416535433074
20
-4.1840944881889763
11
6.1840944881889763
21
-4.1862416535433074
0
LINE
8
BLACK
6
CONTINUOUS
10
6.1840944881889763
20
-4.1862416535433074
11
6.1811614173228344
21
-4.1870275590551183
0
LINE
8
BLACK
6
CONTINUOUS
10
6.1811614173228344
20
-4.1870275590551183
11
4.6188385826771654
21
-4.1870275590551183
0
LINE
8
BLACK
6
CONTINUOUS
10
4.6188385826771654
20
-4.1870275590551183
11
4.6159055118110235
21
-4.1862416535433074
0
LINE
8
BLACK
6
CONTINUOUS
10
4.6159055118110235
20
-4.1862416535433074
11
4.6137583464566925
21
-4.1840944881889763
0
LINE
8
BLACK
6
CONTINUOUS
10
4.6137583464566925
20
-4.1840944881889763
11
4.6129724409448816
21
-4.1811614173228344
0
LINE
8
BLACK
6
CONTINUOUS
10
4.6129724409448816
20
-4.1811614173228344
11
4.6129724409448816
21
-3.9500130708661416
0
LINE
8
BLACK
6
CONTINUOUS
10
4.6129724409448816
20
-3.9500130708661416
11
4.6129724409448816
21
-3.8634225196850394
0
LINE
8
BLACK
6
CONTINUOUS
10
4.6129724409448816
20
-3.8634225196850394
11
4.6129724409448816
21
-3.6240130708661416
0
LINE
8
BLACK
6
CONTINUOUS
10
4.6129724409448816
20
-3.6240130708661416
11
4.6129724409448816
21
-3.5799998818897638
0
LINE
8
BLACK
6
CONTINUOUS
10
4.6129724409448816
20
-3.5799998818897638
11
4.6129724409448816
21
-3.0240130708661415
0
LINE
8
BLACK
6
CONTINUOUS
10
4.6129724409448816
20
-3.0240130708661415
11
4.6129724409448816
21
-2.7754130708661418
0
LINE
8
BLACK
6
CONTINUOUS
10
4.6129724409448816
20
-2.7754130708661418
11
4.6129724409448816
21
-2.6188385826771654
0
LINE
8
BLACK
6
CONTINUOUS
10
4.6129724409448816
20
-2.6188385826771654
11
4.6137583464566925
21
-2.6159055118110235
0
LINE
8
BLACK
6
CONTINUOUS
10
4.6137583464566925
20
-2.6159055118110235
11
4.6159055118110235
21
-2.6137583464566929
0
LINE
8
BLACK
6
CONTINUOUS
10
4.6159055118110235
20
-2.6137583464566929
11
4.6188385826771654
21
-2.612972440944882
0
LINE
8
BLACK
6
CONTINUOUS
10
4.6188385826771654
20
-2.612972440944882
11
6.1811614173228344
21
-2.612972440944882
0
LINE
8
BLACK
6
CONTINUOUS
10
6.1811614173228344
20
-2.612972440944882
11
6.1840944881889763
21
-2.6137583464566929
0
LINE
8
BLACK
6
CONTINUOUS
10
5.0870905118110237
20
-3.9415616141732284
11
5.0837762204724406
21
-3.9437761811023622
0
LINE
8
BLACK
6
CONTINUOUS
10
5.0837762204724406
20
-3.9437761811023622
11
5.0837761417322831
21
-3.9437762598425197
0
LINE
8
BLACK
6
CONTINUOUS
10
5.0837761417322831
20
-3.9437762598425197
11
5.0815616535433072
21
-3.947090433070866
0
LINE
8
BLACK
6
CONTINUOUS
10
5.0815616535433072
20
-3.947090433070866
11
5.0809803149606294
21
-3.9500130708661416
0
LINE
8
BLACK
6
CONTINUOUS
10
5.0809803149606294
20
-3.9500130708661416
11
5.0809803149606294
21
-4.0399866929133861
0
LINE
8
BLACK
6
CONTINUOUS
10
5.0809803149606294
20
-4.0399866929133861
11
5.0815616141732285
21
-4.0429094488188975
0
LINE
8
BLACK
6
CONTINUOUS
10
5.0815616141732285
20
-4.0429094488188975
11
5.0837761811023618
21
-4.0462237401574805
0
LINE
8
BLACK
6
CONTINUOUS
10
5.0837761811023618
20
-4.0462237401574805
11
5.0837762598425194
21
-4.046223818897638
0
LINE
8
BLACK
6
CONTINUOUS
10
5.0837762598425194
20
-4.046223818897638
11
5.0870904330708662
21
-4.0484383070866139
0
LINE
8
BLACK
6
CONTINUOUS
10
5.0870904330708662
20
-4.0484383070866139
11
5.0870905118110237
21
-4.0484383464566926
0
LINE
8
BLACK
6
CONTINUOUS
10
5.0870905118110237
20
-4.0484383464566926
11
5.0900131102362201
21
-4.0490196850393696
0
LINE
8
BLACK
6
CONTINUOUS
10
5.0900131102362201
20
-4.0490196850393696
11
5.1799868503937008
21
-4.0490196456692908
0
LINE
8
BLACK
6
CONTINUOUS
10
5.1799868503937008
20
-4.0490196456692908
11
5.1829094881889759
21
-4.0484383464566926
0
LINE
8
BLACK
6
CONTINUOUS
10
5.1829094881889759
20
-4.0484383464566926
11
5.186223779527559
21
-4.0462237795275593
0
LINE
8
BLACK
6
CONTINUOUS
10
5.186223779527559
20
-4.0462237795275593
11
5.1884383464566932
21
-4.0429094881889762
0
LINE
8
BLACK
6
CONTINUOUS
10
5.1884383464566932
20
-4.0429094881889762
11
5.1890196850393702
21
-4.0399868897637798
0
LINE
8
BLACK
6
CONTINUOUS
10
5.1890196850393702
20
-4.0399868897637798
11
5.1890196456692914
21
-3.9500131496062991
0
LINE
8
BLACK
6
CONTINUOUS
10
5.1890196456692914
20
-3.9500131496062991
11
5.1884383464566932
21
-3.9470905118110235
0
LINE
8
BLACK
6
CONTINUOUS
10
5.1884383464566932
20
-3.9470905118110235
11
5.186223779527559
21
-3.9437762204724409
0
LINE
8
BLACK
6
CONTINUOUS
10
5.186223779527559
20
-3.9437762204724409
11
5.1862237401574802
21
-3.9437761811023622
0
LINE
8
BLACK
6
CONTINUOUS
10
5.1862237401574802
20
-3.9437761811023622
11
5.1862237007874015
21
-3.9437761417322834
0
LINE
8
BLACK
6
CONTINUOUS
10
5.1862237007874015
20
-3.9437761417322834
11
5.1829095275590547
21
-3.9415616535433071
0
LINE
8
BLACK
6
CONTINUOUS
10
5.1829095275590547
20
-3.9415616535433071
11
5.1799868897637795
21
-3.9409803149606297
0
LINE
8
BLACK
6
CONTINUOUS
10
5.1799868897637795
20
-3.9409803149606297
11
5.0900132677165351
21
-3.9409803149606297
0
LINE
8
BLACK
6
CONTINUOUS
10
5.0900132677165351
20
-3.9409803149606297
11
5.0870905118110237
21
-3.9415616141732284
0
LINE
8
BLACK
6
CONTINUOUS
10
5.4354999606299215
20
-3.8549710629921261
11
5.4321856692913384
21
-3.8571856299212599
0
LINE
8
BLACK
6
CONTINUOUS
10
5.4321856692913384
20
-3.8571856299212599
11
5.4321855905511809
21
-3.8571857086614174
0
LINE
8
BLACK
6
CONTINUOUS
10
5.4321855905511809
20
-3.8571857086614174
11
5.429971102362205
21
-3.8604998818897638
0
LINE
8
BLACK
6
CONTINUOUS
10
5.429971102362205
20
-3.8604998818897638
11
5.4293897637795272
21
-3.8634225196850394
0
LINE
8
BLACK
6
CONTINUOUS
10
5.4293897637795272
20
-3.8634225196850394
11
5.4293897637795272
21
-3.9165772440944879
0
LINE
8
BLACK
6
CONTINUOUS
10
5.4293897637795272
20
-3.9165772440944879
11
5.4299710629921263
21
-3.9194999999999998
0
LINE
8
BLACK
6
CONTINUOUS
10
5.4299710629921263
20
-3.9194999999999998
11
5.4321856299212596
21
-3.9228142913385824
0
LINE
8
BLACK
6
CONTINUOUS
10
5.4321856299212596
20
-3.9228142913385824
11
5.4321857086614171
21
-3.9228143700787399
0
LINE
8
BLACK
6
CONTINUOUS
10
5.4321857086614171
20
-3.9228143700787399
11
5.435499881889764
21
-3.9250288582677166
0
LINE
8
BLACK
6
CONTINUOUS
10
5.435499881889764
20
-3.9250288582677166
11
5.4354999606299215
21
-3.9250288976377954
0
LINE
8
BLACK
6
CONTINUOUS
10
5.4354999606299215
20
-3.9250288976377954
11
5.4384225590551178
21
-3.9256102362204723
0
LINE
8
BLACK
6
CONTINUOUS
10
5.4384225590551178
20
-3.9256102362204723
11
5.4915774015748031
21
-3.9256101968503936
0
LINE
8
BLACK
6
CONTINUOUS
10
5.4915774015748031
20
-3.9256101968503936
11
5.4945000393700782
21
-3.9250288976377954
0
LINE
8
BLACK
6
CONTINUOUS
10
5.4945000393700782
20
-3.9250288976377954
11
5.4978143307086613
21
-3.9228143307086611
0
LINE
8
BLACK
6
CONTINUOUS
10
5.4978143307086613
20
-3.9228143307086611
11
5.5000288976377956
21
-3.9195000393700785
0
LINE
8
BLACK
6
CONTINUOUS
10
5.5000288976377956
20
-3.9195000393700785
11
5.5006102362204725
21
-3.9165774409448817
0
LINE
8
BLACK
6
CONTINUOUS
10
5.5006102362204725
20
-3.9165774409448817
11
5.5006101968503938
21
-3.8634225984251969
0
LINE
8
BLACK
6
CONTINUOUS
10
5.5006101968503938
20
-3.8634225984251969
11
5.5000288976377956
21
-3.8604999606299213
0
LINE
8
BLACK
6
CONTINUOUS
10
5.5000288976377956
20
-3.8604999606299213
11
5.4978143307086613
21
-3.8571856692913387
0
LINE
8
BLACK
6
CONTINUOUS
10
5.4978143307086613
20
-3.8571856692913387
11
5.4978142913385826
21
-3.8571856299212599
0
LINE
8
BLACK
6
CONTINUOUS
10
5.4978142913385826
20
-3.8571856299212599
11
5.4978142519685038
21
-3.8571855905511812
0
LINE
8
BLACK
6
CONTINUOUS
10
5.4978142519685038
20
-3.8571855905511812
11
5.494500078740157
21
-3.8549711023622044
0
LINE
8
BLACK
6
CONTINUOUS
10
5.494500078740157
20
-3.8549711023622044
11
5.4915774409448819
21
-3.8543897637795275
0
LINE
8
BLACK
6
CONTINUOUS
10
5.4915774409448819
20
-3.8543897637795275
11
5.4384227165354329
21
-3.8543897637795275
0
LINE
8
BLACK
6
CONTINUOUS
10
5.4384227165354329
20
-3.8543897637795275
11
5.4354999606299215
21
-3.8549710629921261
0
LINE
8
BLACK
6
CONTINUOUS
10
5.6910905118110238
20
-3.6155616141732283
11
5.6877762204724407
21
-3.6177761811023621
0
LINE
8
BLACK
6
CONTINUOUS
10
5.6877762204724407
20
-3.6177761811023621
11
5.6877761417322832
21
-3.6177762598425196
0
LINE
8
BLACK
6
CONTINUOUS
10
5.6877761417322832
20
-3.6177762598425196
11
5.6855616535433073
21
-3.621090433070866
0
LINE
8
BLACK
6
CONTINUOUS
10
5.6855616535433073
20
-3.621090433070866
11
5.6849803149606295
21
-3.6240130708661416
0
LINE
8
BLACK
6
CONTINUOUS
10
5.6849803149606295
20
-3.6240130708661416
11
5.6849803149606295
21
-3.7759866929133858
0
LINE
8
BLACK
6
CONTINUOUS
10
5.6849803149606295
20
-3.7759866929133858
11
5.6855616141732286
21
-3.7789094488188977
0
LINE
8
BLACK
6
CONTINUOUS
10
5.6855616141732286
20
-3.7789094488188977
11
5.6877761811023619
21
-3.7822237401574803
0
LINE
8
BLACK
6
CONTINUOUS
10
5.6877761811023619
20
-3.7822237401574803
11
5.6877762598425194
21
-3.7822238188976378
0
LINE
8
BLACK
6
CONTINUOUS
10
5.6877762598425194
20
-3.7822238188976378
11
5.6910904330708663
21
-3.7844383070866141
0
LINE
8
BLACK
6
CONTINUOUS
10
5.6910904330708663
20
-3.7844383070866141
11
5.6910905118110238
21
-3.7844383464566929
0
LINE
8
BLACK
6
CONTINUOUS
10
5.6910905118110238
20
-3.7844383464566929
11
5.6940131102362201
21
-3.7850196850393698
0
LINE
8
BLACK
6
CONTINUOUS
10
5.6940131102362201
20
-3.7850196850393698
11
5.8459868503937003
21
-3.7850196456692911
0
LINE
8
BLACK
6
CONTINUOUS
10
5.8459868503937003
20
-3.7850196456692911
11
5.8489094881889763
21
-3.7844383464566929
0
LINE
8
BLACK
6
CONTINUOUS
10
5.8489094881889763
20
-3.7844383464566929
11
5.8522237795275593
21
-3.7822237795275591
0
LINE
8
BLACK
6
CONTINUOUS
10
5.8522237795275593
20
-3.7822237795275591
11
5.8544383464566927
21
-3.7789094881889764
0
LINE
8
BLACK
6
CONTINUOUS
10
5.8544383464566927
20
-3.7789094881889764
11
5.8550196850393696
21
-3.7759868897637796
0
LINE
8
BLACK
6
CONTINUOUS
10
5.8550196850393696
20
-3.7759868897637796
11
5.8550196456692909
21
-3.6240131496062991
0
LINE
8
BLACK
6
CONTINUOUS
10
5.8550196456692909
20
-3.6240131496062991
11
5.8550196456692909
21
-3.6240130708661416
0
LINE
8
BLACK
6
CONTINUOUS
10
5.8550196456692909
20
-3.6240130708661416
11
5.8544383464566927
21
-3.6210905118110235
0
LINE
8
BLACK
6
CONTINUOUS
10
5.8544383464566927
20
-3.6210905118110235
11
5.8522237795275593
21
-3.6177762204724409
0
LINE
8
BLACK
6
CONTINUOUS
10
5.8522237795275593
20
-3.6177762204724409
11
5.8522237401574806
21
-3.6177761811023621
0
LINE
8
BLACK
6
CONTINUOUS
10
5.8522237401574806
20
-3.6177761811023621
11
5.8522237007874018
21
-3.6177761417322833
0
LINE
8
BLACK
6
CONTINUOUS
10
5.8522237007874018
20
-3.6177761417322833
11
5.848909527559055
21
-3.6155616535433071
0
LINE
8
BLACK
6
CONTINUOUS
10
5.848909527559055
20
-3.6155616535433071
11
5.845986889763779
21
-3.6149803149606297
0
LINE
8
BLACK
6
CONTINUOUS
10
5.845986889763779
20
-3.6149803149606297
11
5.6940132677165352
21
-3.6149803149606297
0
LINE
8
BLACK
6
CONTINUOUS
10
5.6940132677165352
20
-3.6149803149606297
11
5.6910905118110238
21
-3.6155616141732283
0
LINE
8
BLACK
6
CONTINUOUS
10
5.8818307086614174
20
-3.7759866929133858
11
5.8824120078740156
21
-3.7789094488188977
0
LINE
8
BLACK
6
CONTINUOUS
10
5.8824120078740156
20
-3.7789094488188977
11
5.8846265748031499
21
-3.7822237401574803
0
LINE
8
BLACK
6
CONTINUOUS
10
5.8846265748031499
20
-3.7822237401574803
11
5.8846266535433074
21
-3.7822238188976378
0
LINE
8
BLACK
6
CONTINUOUS
10
5.8846266535433074
20
-3.7822238188976378
11
5.8879408267716533
21
-3.7844383070866141
0
LINE
8
BLACK
6
CONTINUOUS
10
5.8879408267716533
20
-3.7844383070866141
11
5.8879409055118108
21
-3.7844383464566929
0
LINE
8
BLACK
6
CONTINUOUS
10
5.8879409055118108
20
-3.7844383464566929
11
5.8908635039370081
21
-3.7850196850393698
0
LINE
8
BLACK
6
CONTINUOUS
10
5.8908635039370081
20
-3.7850196850393698
11
6.0428372440944882
21
-3.7850196456692911
0
LINE
8
BLACK
6
CONTINUOUS
10
6.0428372440944882
20
-3.7850196456692911
11
6.0457598818897633
21
-3.7844383464566929
0
LINE
8
BLACK
6
CONTINUOUS
10
6.0457598818897633
20
-3.7844383464566929
11
6.0490741732283464
21
-3.7822237795275591
0
LINE
8
BLACK
6
CONTINUOUS
10
6.0490741732283464
20
-3.7822237795275591
11
6.0512887401574798
21
-3.7789094881889764
0
LINE
8
BLACK
6
CONTINUOUS
10
6.0512887401574798
20
-3.7789094881889764
11
6.0518700787401576
21
-3.7759868897637796
0
LINE
8
BLACK
6
CONTINUOUS
10
6.0518700787401576
20
-3.7759868897637796
11
6.0518700393700788
21
-3.6240131496062991
0
LINE
8
BLACK
6
CONTINUOUS
10
6.0518700393700788
20
-3.6240131496062991
11
6.0512887401574798
21
-3.6210905118110235
0
LINE
8
BLACK
6
CONTINUOUS
10
6.0512887401574798
20
-3.6210905118110235
11
6.0490741732283464
21
-3.6177762204724409
0
LINE
8
BLACK
6
CONTINUOUS
10
6.0490741732283464
20
-3.6177762204724409
11
6.0490741338582676
21
-3.6177761811023621
0
LINE
8
BLACK
6
CONTINUOUS
10
6.0490741338582676
20
-3.6177761811023621
11
6.0490740944881889
21
-3.6177761417322833
0
LINE
8
BLACK
6
CONTINUOUS
10
6.0490740944881889
20
-3.6177761417322833
11
6.0457599212598421
21
-3.6155616535433071
0
LINE
8
BLACK
6
CONTINUOUS
10
6.0457599212598421
20
-3.6155616535433071
11
6.0428372834645669
21
-3.6149803149606297
0
LINE
8
BLACK
6
CONTINUOUS
10
6.0428372834645669
20
-3.6149803149606297
11
5.8908636614173231
21
-3.6149803149606297
0
LINE
8
BLACK
6
CONTINUOUS
10
5.8908636614173231
20
-3.6149803149606297
11
5.8879409055118108
21
-3.6155616141732283
0
LINE
8
BLACK
6
CONTINUOUS
10
5.8879409055118108
20
-3.6155616141732283
11
5.8846266141732286
21
-3.6177761811023621
0
LINE
8
BLACK
6
CONTINUOUS
10
5.8846266141732286
20
-3.6177761811023621
11
5.8846265354330711
21
-3.6177762598425196
0
LINE
8
BLACK
6
CONTINUOUS
10
5.8846265354330711
20
-3.6177762598425196
11
5.8824120472440944
21
-3.621090433070866
0
LINE
8
BLACK
6
CONTINUOUS
10
5.8824120472440944
20
-3.621090433070866
11
5.8818307086614174
21
-3.6240130708661416
0
LINE
8
BLACK
6
CONTINUOUS
10
5.8818307086614174
20
-3.6240130708661416
11
5.8818307086614174
21
-3.7759866929133858
0
LINE
8
BLACK
6
CONTINUOUS
10
5.1029809055118109
20
-3.5800000787401576
11
5.1037311023622047
21
-3.5856988582677163
0
LINE
8
BLACK
6
CONTINUOUS
10
5.1037311023622047
20
-3.5856988582677163
11
5.1059308661417324
21
-3.5910095275590552
0
LINE
8
BLACK
6
CONTINUOUS
10
5.1059308661417324
20
-3.5910095275590552
11
5.1094300787401572
21
-3.5955697637795274
0
LINE
8
BLACK
6
CONTINUOUS
10
5.1094300787401572
20
-3.5955697637795274
11
5.1094301968503935
21
-3.5955698818897637
0
LINE
8
BLACK
6
CONTINUOUS
10
5.1094301968503935
20
-3.5955698818897637
11
5.1139904330708656
21
-3.5990690944881889
0
LINE
8
BLACK
6
CONTINUOUS
10
5.1139904330708656
20
-3.5990690944881889
11
5.1139904330708656
21
-3.5990691338582677
0
LINE
8
BLACK
6
CONTINUOUS
10
5.1139904330708656
20
-3.5990691338582677
11
5.119301102362205
21
-3.6012688582677166
0
LINE
8
BLACK
6
CONTINUOUS
10
5.119301102362205
20
-3.6012688582677166
11
5.1249998818897637
21
-3.6020190944881887
0
LINE
8
BLACK
6
CONTINUOUS
10
5.1249998818897637
20
-3.6020190944881887
11
5.125
21
-3.6020190944881887
0
LINE
8
BLACK
6
CONTINUOUS
10
5.125
20
-3.6020190944881887
11
5.1250001181102363
21
-3.6020190944881887
0
LINE
8
BLACK
6
CONTINUOUS
10
5.1250001181102363
20
-3.6020190944881887
11
5.1306988582677162
21
-3.6012688582677166
0
LINE
8
BLACK
6
CONTINUOUS
10
5.1306988582677162
20
-3.6012688582677166
11
5.1306989370078737
21
-3.6012688188976378
0
LINE
8
BLACK
6
CONTINUOUS
10
5.1306989370078737
20
-3.6012688188976378
11
5.1306989763779525
21
-3.6012688188976378
0
LINE
8
BLACK
6
CONTINUOUS
10
5.1306989763779525
20
-3.6012688188976378
11
5.1324002362204721
21
-3.6005640944881887
0
LINE
8
BLACK
6
CONTINUOUS
10
5.1324002362204721
20
-3.6005640944881887
11
5.1360093307086609
21
-3.5990692125984252
0
LINE
8
BLACK
6
CONTINUOUS
10
5.1360093307086609
20
-3.5990692125984252
11
5.1360093700787397
21
-3.5990691338582677
0
LINE
8
BLACK
6
CONTINUOUS
10
5.1360093700787397
20
-3.5990691338582677
11
5.1360095669291335
21
-3.5990690944881889
0
LINE
8
BLACK
6
CONTINUOUS
10
5.1360095669291335
20
-3.5990690944881889
11
5.138527007874016
21
-3.5971373622047245
0
LINE
8
BLACK
6
CONTINUOUS
10
5.138527007874016
20
-3.5971373622047245
11
5.1413323228346455
21
-3.5959753937007872
0
LINE
8
BLACK
6
CONTINUOUS
10
5.1413323228346455
20
-3.5959753937007872
11
5.1420980314960625
21
-3.5959251968503936
0
LINE
8
BLACK
6
CONTINUOUS
10
5.1420980314960625
20
-3.5959251968503936
11
5.2779019685039366
21
-3.5959251968503936
0
LINE
8
BLACK
6
CONTINUOUS
10
5.2779019685039366
20
-3.5959251968503936
11
5.2808350393700785
21
-3.5967111023622045
0
LINE
8
BLACK
6
CONTINUOUS
10
5.2808350393700785
20
-3.5967111023622045
11
5.2814727165354327
21
-3.5971371653543307
0
LINE
8
BLACK
6
CONTINUOUS
10
5.2814727165354327
20
-3.5971371653543307
11
5.2839904330708656
21
-3.5990690944881889
0
LINE
8
BLACK
6
CONTINUOUS
10
5.2839904330708656
20
-3.5990690944881889
11
5.2839905118110231
21
-3.5990690944881889
0
LINE
8
BLACK
6
CONTINUOUS
10
5.2839905118110231
20
-3.5990690944881889
11
5.2839906299212593
21
-3.5990692125984252
0
LINE
8
BLACK
6
CONTINUOUS
10
5.2839906299212593
20
-3.5990692125984252
11
5.289301102362205
21
-3.6012688582677166
0
LINE
8
BLACK
6
CONTINUOUS
10
5.289301102362205
20
-3.6012688582677166
11
5.2949998818897637
21
-3.6020190944881887
0
LINE
8
BLACK
6
CONTINUOUS
10
5.2949998818897637
20
-3.6020190944881887
11
5.2949999999999999
21
-3.6020190944881887
0
LINE
8
BLACK
6
CONTINUOUS
10
5.2949999999999999
20
-3.6020190944881887
11
5.2950001181102362
21
-3.6020190944881887
0
LINE
8
BLACK
6
CONTINUOUS
10
5.2950001181102362
20
-3.6020190944881887
11
5.3006988582677161
21
-3.6012688582677166
0
LINE
8
BLACK
6
CONTINUOUS
10
5.3006988582677161
20
-3.6012688582677166
11
5.3006989370078736
21
-3.6012688188976378
0
LINE
8
BLACK
6
CONTINUOUS
10
5.3006989370078736
20
-3.6012688188976378
11
5.3006989763779524
21
-3.6012688188976378
0
LINE
8
BLACK
6
CONTINUOUS
10
5.3006989763779524
20
-3.6012688188976378
11
5.3022543307086609
21
-3.6006245669291337
0
LINE
8
BLACK
6
CONTINUOUS
10
5.3022543307086609
20
-3.6006245669291337
11
5.3060095275590546
21
-3.5990691338582677
0
LINE
8
BLACK
6
CONTINUOUS
10
5.3060095275590546
20
-3.5990691338582677
11
5.3060095275590546
21
-3.5990690944881889
0
LINE
8
BLACK
6
CONTINUOUS
10
5.3060095275590546
20
-3.5990690944881889
11
5.3060095669291334
21
-3.5990690944881889
0
LINE
8
BLACK
6
CONTINUOUS
10
5.3060095669291334
20
-3.5990690944881889
11
5.3105698425196852
21
-3.5955698425196849
0
LINE
8
BLACK
6
CONTINUOUS
10
5.3105698425196852
20
-3.5955698425196849
11
5.3140690944881888
21
-3.591009566929134
0
LINE
8
BLACK
6
CONTINUOUS
10
5.3140690944881888
20
-3.591009566929134
11
5.3140690944881888
21
-3.5910095275590552
0
LINE
8
BLACK
6
CONTINUOUS
10
5.3140690944881888
20
-3.5910095275590552
11
5.3140691338582675
21
-3.5910095275590552
0
LINE
8
BLACK
6
CONTINUOUS
10
5.3140691338582675
20
-3.5910095275590552
11
5.3162688582677164
21
-3.5856988582677163
0
LINE
8
BLACK
6
CONTINUOUS
10
5.3162688582677164
20
-3.5856988582677163
11
5.317019094488189
21
-3.5800000787401576
0
LINE
8
BLACK
6
CONTINUOUS
10
5.317019094488189
20
-3.5800000787401576
11
5.317019094488189
21
-3.5799998818897638
0
LINE
8
BLACK
6
CONTINUOUS
10
5.317019094488189
20
-3.5799998818897638
11
5.3162688582677164
21
-3.5743012204724409
0
LINE
8
BLACK
6
CONTINUOUS
10
5.3162688582677164
20
-3.5743012204724409
11
5.3162688188976377
21
-3.5743010236220472
0
LINE
8
BLACK
6
CONTINUOUS
10
5.3162688188976377
20
-3.5743010236220472
11
5.3140691338582675
21
-3.5689905511811024
0
LINE
8
BLACK
6
CONTINUOUS
10
5.3140691338582675
20
-3.5689905511811024
11
5.3140690944881888
21
-3.5689905118110237
0
LINE
8
BLACK
6
CONTINUOUS
10
5.3140690944881888
20
-3.5689905118110237
11
5.3140690944881888
21
-3.5689904724409449
0
LINE
8
BLACK
6
CONTINUOUS
10
5.3140690944881888
20
-3.5689904724409449
11
5.3105698425196852
21
-3.5644301574803148
0
LINE
8
BLACK
6
CONTINUOUS
10
5.3105698425196852
20
-3.5644301574803148
11
5.3105697637795277
21
-3.564430118110236
0
LINE
8
BLACK
6
CONTINUOUS
10
5.3105697637795277
20
-3.564430118110236
11
5.3105697637795277
21
-3.5644300787401573
0
LINE
8
BLACK
6
CONTINUOUS
10
5.3105697637795277
20
-3.5644300787401573
11
5.3060095275590546
21
-3.560930866141732
0
LINE
8
BLACK
6
CONTINUOUS
10
5.3060095275590546
20
-3.560930866141732
11
5.3060095275590546
21
-3.5609308267716533
0
LINE
8
BLACK
6
CONTINUOUS
10
5.3060095275590546
20
-3.5609308267716533
11
5.3006988582677161
21
-3.5587311023622048
0
LINE
8
BLACK
6
CONTINUOUS
10
5.3006988582677161
20
-3.5587311023622048
11
5.2950001181102362
21
-3.557980905511811
0
LINE
8
BLACK
6
CONTINUOUS
10
5.2950001181102362
20
-3.557980905511811
11
5.2949998818897637
21
-3.557980905511811
0
LINE
8
BLACK
6
CONTINUOUS
10
5.2949998818897637
20
-3.557980905511811
11
5.2893012204724412
21
-3.5587311023622048
0
LINE
8
BLACK
6
CONTINUOUS
10
5.2893012204724412
20
-3.5587311023622048
11
5.2893010236220475
21
-3.5587311417322836
0
LINE
8
BLACK
6
CONTINUOUS
10
5.2893010236220475
20
-3.5587311417322836
11
5.2839904330708656
21
-3.560930866141732
0
LINE
8
BLACK
6
CONTINUOUS
10
5.2839904330708656
20
-3.560930866141732
11
5.2814730708661415
21
-3.5628625590551182
0
LINE
8
BLACK
6
CONTINUOUS
10
5.2814730708661415
20
-3.5628625590551182
11
5.2786676771653545
21
-3.5640246062992125
0
LINE
8
BLACK
6
CONTINUOUS
10
5.2786676771653545
20
-3.5640246062992125
11
5.2779019685039366
21
-3.5640748031496061
0
LINE
8
BLACK
6
CONTINUOUS
10
5.2779019685039366
20
-3.5640748031496061
11
5.1420980314960625
21
-3.5640748031496061
0
LINE
8
BLACK
6
CONTINUOUS
10
5.1420980314960625
20
-3.5640748031496061
11
5.1391649606299215
21
-3.5632888976377952
0
LINE
8
BLACK
6
CONTINUOUS
10
5.1391649606299215
20
-3.5632888976377952
11
5.1385272440944885
21
-3.5628627952755907
0
LINE
8
BLACK
6
CONTINUOUS
10
5.1385272440944885
20
-3.5628627952755907
11
5.1360095669291335
21
-3.5609309055118108
0
LINE
8
BLACK
6
CONTINUOUS
10
5.1360095669291335
20
-3.5609309055118108
11
5.136009488188976
21
-3.560930866141732
0
LINE
8
BLACK
6
CONTINUOUS
10
5.136009488188976
20
-3.560930866141732
11
5.1360093307086609
21
-3.5609307480314958
0
LINE
8
BLACK
6
CONTINUOUS
10
5.1360093307086609
20
-3.5609307480314958
11
5.1306988582677162
21
-3.5587311023622048
0
LINE
8
BLACK
6
CONTINUOUS
10
5.1306988582677162
20
-3.5587311023622048
11
5.1250001181102363
21
-3.557980905511811
0
LINE
8
BLACK
6
CONTINUOUS
10
5.1250001181102363
20
-3.557980905511811
11
5.1249998818897637
21
-3.557980905511811
0
LINE
8
BLACK
6
CONTINUOUS
10
5.1249998818897637
20
-3.557980905511811
11
5.1193012204724404
21
-3.5587311023622048
0
LINE
8
BLACK
6
CONTINUOUS
10
5.1193012204724404
20
-3.5587311023622048
11
5.1193010236220475
21
-3.5587311417322836
0
LINE
8
BLACK
6
CONTINUOUS
10
5.1193010236220475
20
-3.5587311417322836
11
5.1139905511811019
21
-3.5609308267716533
0
LINE
8
BLACK
6
CONTINUOUS
10
5.1139905511811019
20
-3.5609308267716533
11
5.1094301574803147
21
-3.5644301574803148
0
LINE
8
BLACK
6
CONTINUOUS
10
5.1094301574803147
20
-3.5644301574803148
11
5.1059308267716537
21
-3.5689905511811024
0
LINE
8
BLACK
6
CONTINUOUS
10
5.1059308267716537
20
-3.5689905511811024
11
5.1037311417322835
21
-3.5743010236220472
0
LINE
8
BLACK
6
CONTINUOUS
10
5.1037311417322835
20
-3.5743010236220472
11
5.1037311023622047
21
-3.5743012204724409
0
LINE
8
BLACK
6
CONTINUOUS
10
5.1037311023622047
20
-3.5743012204724409
11
5.1029809055118109
21
-3.5799998818897638
0
LINE
8
BLACK
6
CONTINUOUS
10
5.1029809055118109
20
-3.5799998818897638
11
5.1029809055118109
21
-3.5800000787401576
0
LINE
8
BLACK
6
CONTINUOUS
10
5.6849803149606295
20
-3.1759866929133858
11
5.6855616141732286
21
-3.1789094488188976
0
LINE
8
BLACK
6
CONTINUOUS
10
5.6855616141732286
20
-3.1789094488188976
11
5.6877761811023619
21
-3.1822237401574802
0
LINE
8
BLACK
6
CONTINUOUS
10
5.6877761811023619
20
-3.1822237401574802
11
5.6877762598425194
21
-3.1822238188976377
0
LINE
8
BLACK
6
CONTINUOUS
10
5.6877762598425194
20
-3.1822238188976377
11
5.6910904330708663
21
-3.184438307086614
0
LINE
8
BLACK
6
CONTINUOUS
10
5.6910904330708663
20
-3.184438307086614
11
5.6910905118110238
21
-3.1844383464566928
0
LINE
8
BLACK
6
CONTINUOUS
10
5.6910905118110238
20
-3.1844383464566928
11
5.6940131102362201
21
-3.1850196850393702
0
LINE
8
BLACK
6
CONTINUOUS
10
5.6940131102362201
20
-3.1850196850393702
11
5.8459868503937003
21
-3.1850196456692914
0
LINE
8
BLACK
6
CONTINUOUS
10
5.8459868503937003
20
-3.1850196456692914
11
5.8489094881889763
21
-3.1844383464566928
0
LINE
8
BLACK
6
CONTINUOUS
10
5.8489094881889763
20
-3.1844383464566928
11
5.8522237795275593
21
-3.182223779527559
0
LINE
8
BLACK
6
CONTINUOUS
10
5.8522237795275593
20
-3.182223779527559
11
5.8544383464566927
21
-3.1789094881889763
0
LINE
8
BLACK
6
CONTINUOUS
10
5.8544383464566927
20
-3.1789094881889763
11
5.8550196850393696
21
-3.1759868897637795
0
LINE
8
BLACK
6
CONTINUOUS
10
5.8550196850393696
20
-3.1759868897637795
11
5.8550196456692909
21
-3.024013149606299
0
LINE
8
BLACK
6
CONTINUOUS
10
5.8550196456692909
20
-3.024013149606299
11
5.8550196456692909
21
-3.0240130708661415
0
LINE
8
BLACK
6
CONTINUOUS
10
5.8550196456692909
20
-3.0240130708661415
11
5.8544383464566927
21
-3.0210905118110234
0
LINE
8
BLACK
6
CONTINUOUS
10
5.8544383464566927
20
-3.0210905118110234
11
5.8522237795275593
21
-3.0177762204724408
0
LINE
8
BLACK
6
CONTINUOUS
10
5.8522237795275593
20
-3.0177762204724408
11
5.8522237401574806
21
-3.017776181102362
0
LINE
8
BLACK
6
CONTINUOUS
10
5.8522237401574806
20
-3.017776181102362
11
5.8522237007874018
21
-3.0177761417322833
0
LINE
8
BLACK
6
CONTINUOUS
10
5.8522237007874018
20
-3.0177761417322833
11
5.848909527559055
21
-3.015561653543307
0
LINE
8
BLACK
6
CONTINUOUS
10
5.848909527559055
20
-3.015561653543307
11
5.845986889763779
21
-3.01498031496063
0
LINE
8
BLACK
6
CONTINUOUS
10
5.845986889763779
20
-3.01498031496063
11
5.6940132677165352
21
-3.01498031496063
0
LINE
8
BLACK
6
CONTINUOUS
10
5.6940132677165352
20
-3.01498031496063
11
5.6910905118110238
21
-3.0155616141732282
0
LINE
8
BLACK
6
CONTINUOUS
10
5.6910905118110238
20
-3.0155616141732282
11
5.6877762204724407
21
-3.017776181102362
0
LINE
8
BLACK
6
CONTINUOUS
10
5.6877762204724407
20
-3.017776181102362
11
5.6877761417322832
21
-3.0177762598425195
0
LINE
8
BLACK
6
CONTINUOUS
10
5.6877761417322832
20
-3.0177762598425195
11
5.6855616535433073
21
-3.0210904330708659
0
LINE
8
BLACK
6
CONTINUOUS
10
5.6855616535433073
20
-3.0210904330708659
11
5.6849803149606295
21
-3.0240130708661415
0
LINE
8
BLACK
6
CONTINUOUS
10
5.6849803149606295
20
-3.0240130708661415
11
5.6849803149606295
21
-3.1759866929133858
0
LINE
8
BLACK
6
CONTINUOUS
10
5.8818307086614174
20
-3.1759866929133858
11
5.8824120078740156
21
-3.1789094488188976
0
LINE
8
BLACK
6
CONTINUOUS
10
5.8824120078740156
20
-3.1789094488188976
11
5.8846265748031499
21
-3.1822237401574802
0
LINE
8
BLACK
6
CONTINUOUS
10
5.8846265748031499
20
-3.1822237401574802
11
5.8846266535433074
21
-3.1822238188976377
0
LINE
8
BLACK
6
CONTINUOUS
10
5.8846266535433074
20
-3.1822238188976377
11
5.8879408267716533
21
-3.184438307086614
0
LINE
8
BLACK
6
CONTINUOUS
10
5.8879408267716533
20
-3.184438307086614
11
5.8879409055118108
21
-3.1844383464566928
0
LINE
8
BLACK
6
CONTINUOUS
10
5.8879409055118108
20
-3.1844383464566928
11
5.8908635039370081
21
-3.1850196850393702
0
LINE
8
BLACK
6
CONTINUOUS
10
5.8908635039370081
20
-3.1850196850393702
11
6.0428372440944882
21
-3.1850196456692914
0
LINE
8
BLACK
6
CONTINUOUS
10
6.0428372440944882
20
-3.1850196456692914
11
6.0457598818897633
21
-3.1844383464566928
0
LINE
8
BLACK
6
CONTINUOUS
10
6.0457598818897633
20
-3.1844383464566928
11
6.0490741732283464
21
-3.182223779527559
0
LINE
8
BLACK
6
CONTINUOUS
10
6.0490741732283464
20
-3.182223779527559
11
6.0512887401574798
21
-3.1789094881889763
0
LINE
8
BLACK
6
CONTINUOUS
10
6.0512887401574798
20
-3.1789094881889763
11
6.0518700787401576
21
-3.1759868897637795
0
LINE
8
BLACK
6
CONTINUOUS
10
6.0518700787401576
20
-3.1759868897637795
11
6.0518700393700788
21
-3.024013149606299
0
LINE
8
BLACK
6
CONTINUOUS
10
6.0518700393700788
20
-3.024013149606299
11
6.0512887401574798
21
-3.0210905118110234
0
LINE
8
BLACK
6
CONTINUOUS
10
6.0512887401574798
20
-3.0210905118110234
11
6.0490741732283464
21
-3.0177762204724408
0
LINE
8
BLACK
6
CONTINUOUS
10
6.0490741732283464
20
-3.0177762204724408
11
6.0490741338582676
21
-3.017776181102362
0
LINE
8
BLACK
6
CONTINUOUS
10
6.0490741338582676
20
-3.017776181102362
11
6.0490740944881889
21
-3.0177761417322833
0
LINE
8
BLACK
6
CONTINUOUS
10
6.0490740944881889
20
-3.0177761417322833
11
6.0457599212598421
21
-3.015561653543307
0
LINE
8
BLACK
6
CONTINUOUS
10
6.0457599212598421
20
-3.015561653543307
11
6.0428372834645669
21
-3.01498031496063
0
LINE
8
BLACK
6
CONTINUOUS
10
6.0428372834645669
20
-3.01498031496063
11
5.8908636614173231
21
-3.01498031496063
0
LINE
8
BLACK
6
CONTINUOUS
10
5.8908636614173231
20
-3.01498031496063
11
5.8879409055118108
21
-3.0155616141732282
0
LINE
8
BLACK
6
CONTINUOUS
10
5.8879409055118108
20
-3.0155616141732282
11
5.8846266141732286
21
-3.017776181102362
0
LINE
8
BLACK
6
CONTINUOUS
10
5.8846266141732286
20
-3.017776181102362
11
5.8846265354330711
21
-3.0177762598425195
0
LINE
8
BLACK
6
CONTINUOUS
10
5.8846265354330711
20
-3.0177762598425195
11
5.8824120472440944
21
-3.0210904330708659
0
LINE
8
BLACK
6
CONTINUOUS
10
5.8824120472440944
20
-3.0210904330708659
11
5.8818307086614174
21
-3.0240130708661415
0
LINE
8
BLACK
6
CONTINUOUS
10
5.8818307086614174
20
-3.0240130708661415
11
5.8818307086614174
21
-3.1759866929133858
0
LINE
8
BLACK
6
CONTINUOUS
10
5.3937905118110239
20
-2.7669616141732285
11
5.3904762204724408
21
-2.7691761811023623
0
LINE
8
BLACK
6
CONTINUOUS
10
5.3904762204724408
20
-2.7691761811023623
11
5.3904761417322833
21
-2.7691762598425198
0
LINE
8
BLACK
6
CONTINUOUS
10
5.3904761417322833
20
-2.7691762598425198
11
5.3882616535433066
21
-2.7724904330708662
0
LINE
8
BLACK
6
CONTINUOUS
10
5.3882616535433066
20
-2.7724904330708662
11
5.3876803149606296
21
-2.7754130708661418
0
LINE
8
BLACK
6
CONTINUOUS
10
5.3876803149606296
20
-2.7754130708661418
11
5.3876803149606296
21
-2.8245866929133858
0
LINE
8
BLACK
6
CONTINUOUS
10
5.3876803149606296
20
-2.8245866929133858
11
5.3882616141732278
21
-2.8275094488188977
0
LINE
8
BLACK
6
CONTINUOUS
10
5.3882616141732278
20
-2.8275094488188977
11
5.390476181102362
21
-2.8308237401574803
0
LINE
8
BLACK
6
CONTINUOUS
10
5.390476181102362
20
-2.8308237401574803
11
5.3904762598425195
21
-2.8308238188976378
0
LINE
8
BLACK
6
CONTINUOUS
10
5.3904762598425195
20
-2.8308238188976378
11
5.3937904330708664
21
-2.8330383070866141
0
LINE
8
BLACK
6
CONTINUOUS
10
5.3937904330708664
20
-2.8330383070866141
11
5.3937905118110239
21
-2.8330383464566928
0
LINE
8
BLACK
6
CONTINUOUS
10
5.3937905118110239
20
-2.8330383464566928
11
5.3967131102362202
21
-2.8336196850393702
0
LINE
8
BLACK
6
CONTINUOUS
10
5.3967131102362202
20
-2.8336196850393702
11
5.445886850393701
21
-2.8336196456692915
0
LINE
8
BLACK
6
CONTINUOUS
10
5.445886850393701
20
-2.8336196456692915
11
5.4488094881889761
21
-2.8330383464566928
0
LINE
8
BLACK
6
CONTINUOUS
10
5.4488094881889761
20
-2.8330383464566928
11
5.4521237795275592
21
-2.830823779527559
0
LINE
8
BLACK
6
CONTINUOUS
10
5.4521237795275592
20
-2.830823779527559
11
5.4533311417322832
21
-2.8290168110236218
0
LINE
8
BLACK
6
CONTINUOUS
10
5.4533311417322832
20
-2.8290168110236218
11
5.4556141338582673
21
-2.8270147244094486
0
LINE
8
BLACK
6
CONTINUOUS
10
5.4556141338582673
20
-2.8270147244094486
11
5.4585923228346456
21
-2.8264223228346457
0
LINE
8
BLACK
6
CONTINUOUS
10
5.4585923228346456
20
-2.8264223228346457
11
5.4614677165354326
21
-2.8273983858267715
0
LINE
8
BLACK
6
CONTINUOUS
10
5.4614677165354326
20
-2.8273983858267715
11
5.463469842519685
21
-2.8296813779527556
0
LINE
8
BLACK
6
CONTINUOUS
10
5.463469842519685
20
-2.8296813779527556
11
5.4640748031496065
21
-2.832275905511811
0
LINE
8
BLACK
6
CONTINUOUS
10
5.4640748031496065
20
-2.832275905511811
11
5.4640748031496065
21
-2.8329019291338584
0
LINE
8
BLACK
6
CONTINUOUS
10
5.4640748031496065
20
-2.8329019291338584
11
5.4632888976377956
21
-2.8358349999999999
0
LINE
8
BLACK
6
CONTINUOUS
10
5.4632888976377956
20
-2.8358349999999999
11
5.4628626377952756
21
-2.8364729527559054
0
LINE
8
BLACK
6
CONTINUOUS
10
5.4628626377952756
20
-2.8364729527559054
11
5.4609308267716532
21
-2.8389905511811024
0
LINE
8
BLACK
6
CONTINUOUS
10
5.4609308267716532
20
-2.8389905511811024
11
5.458731141732283
21
-2.8443010236220472
0
LINE
8
BLACK
6
CONTINUOUS
10
5.458731141732283
20
-2.8443010236220472
11
5.4587311023622043
21
-2.8443012204724409
0
LINE
8
BLACK
6
CONTINUOUS
10
5.4587311023622043
20
-2.8443012204724409
11
5.4579809055118105
21
-2.8499998818897638
0
LINE
8
BLACK
6
CONTINUOUS
10
5.4579809055118105
20
-2.8499998818897638
11
5.4579809055118105
21
-2.8500000787401576
0
LINE
8
BLACK
6
CONTINUOUS
10
5.4579809055118105
20
-2.8500000787401576
11
5.4587311023622043
21
-2.8556988582677163
0
LINE
8
BLACK
6
CONTINUOUS
10
5.4587311023622043
20
-2.8556988582677163
11
5.460930866141732
21
-2.8610095275590552
0
LINE
8
BLACK
6
CONTINUOUS
10
5.460930866141732
20
-2.8610095275590552
11
5.4644300787401576
21
-2.8655697637795274
0
LINE
8
BLACK
6
CONTINUOUS
10
5.4644300787401576
20
-2.8655697637795274
11
5.4644301968503939
21
-2.8655698818897637
0
LINE
8
BLACK
6
CONTINUOUS
10
5.4644301968503939
20
-2.8655698818897637
11
5.4689904330708661
21
-2.8690690944881889
0
LINE
8
BLACK
6
CONTINUOUS
10
5.4689904330708661
20
-2.8690690944881889
11
5.4689904330708661
21
-2.8690691338582677
0
LINE
8
BLACK
6
CONTINUOUS
10
5.4689904330708661
20
-2.8690691338582677
11
5.4743011023622046
21
-2.8712688582677166
0
LINE
8
BLACK
6
CONTINUOUS
10
5.4743011023622046
20
-2.8712688582677166
11
5.4799998818897633
21
-2.8720190944881887
0
LINE
8
BLACK
6
CONTINUOUS
10
5.4799998818897633
20
-2.8720190944881887
11
5.4799999999999995
21
-2.8720190944881887
0
LINE
8
BLACK
6
CONTINUOUS
10
5.4799999999999995
20
-2.8720190944881887
11
5.4800001181102358
21
-2.8720190944881887
0
LINE
8
BLACK
6
CONTINUOUS
10
5.4800001181102358
20
-2.8720190944881887
11
5.4856988582677166
21
-2.8712688582677166
0
LINE
8
BLACK
6
CONTINUOUS
10
5.4856988582677166
20
-2.8712688582677166
11
5.4856989370078741
21
-2.8712688188976379
0
LINE
8
BLACK
6
CONTINUOUS
10
5.4856989370078741
20
-2.8712688188976379
11
5.4856989763779529
21
-2.8712688188976379
0
LINE
8
BLACK
6
CONTINUOUS
10
5.4856989763779529
20
-2.8712688188976379
11
5.4872543307086614
21
-2.8706245669291337
0
LINE
8
BLACK
6
CONTINUOUS
10
5.4872543307086614
20
-2.8706245669291337
11
5.4910095275590551
21
-2.8690691338582677
0
LINE
8
BLACK
6
CONTINUOUS
10
5.4910095275590551
20
-2.8690691338582677
11
5.4910095275590551
21
-2.8690690944881889
0
LINE
8
BLACK
6
CONTINUOUS
10
5.4910095275590551
20
-2.8690690944881889
11
5.4910095669291339
21
-2.8690690944881889
0
LINE
8
BLACK
6
CONTINUOUS
10
5.4910095669291339
20
-2.8690690944881889
11
5.4955698425196848
21
-2.8655698425196849
0
LINE
8
BLACK
6
CONTINUOUS
10
5.4955698425196848
20
-2.8655698425196849
11
5.4990690944881893
21
-2.861009566929134
0
LINE
8
BLACK
6
CONTINUOUS
10
5.4990690944881893
20
-2.861009566929134
11
5.4990690944881893
21
-2.8610095275590552
0
LINE
8
BLACK
6
CONTINUOUS
10
5.4990690944881893
20
-2.8610095275590552
11
5.499069133858268
21
-2.8610095275590552
0
LINE
8
BLACK
6
CONTINUOUS
10
5.499069133858268
20
-2.8610095275590552
11
5.5012688582677161
21
-2.8556988582677163
0
LINE
8
BLACK
6
CONTINUOUS
10
5.5012688582677161
20
-2.8556988582677163
11
5.5020190944881886
21
-2.8500000787401576
0
LINE
8
BLACK
6
CONTINUOUS
10
5.5020190944881886
20
-2.8500000787401576
11
5.5020190944881886
21
-2.8499998818897638
0
LINE
8
BLACK
6
CONTINUOUS
10
5.5020190944881886
20
-2.8499998818897638
11
5.5012688582677161
21
-2.8443012204724409
0
LINE
8
BLACK
6
CONTINUOUS
10
5.5012688582677161
20
-2.8443012204724409
11
5.5012688188976373
21
-2.8443010236220472
0
LINE
8
BLACK
6
CONTINUOUS
10
5.5012688188976373
20
-2.8443010236220472
11
5.499069133858268
21
-2.8389905511811024
0
LINE
8
BLACK
6
CONTINUOUS
10
5.499069133858268
20
-2.8389905511811024
11
5.4990690944881893
21
-2.8389905118110237
0
LINE
8
BLACK
6
CONTINUOUS
10
5.4990690944881893
20
-2.8389905118110237
11
5.4990690944881893
21
-2.8389904724409449
0
LINE
8
BLACK
6
CONTINUOUS
10
5.4990690944881893
20
-2.8389904724409449
11
5.4971373622047244
21
-2.8364729527559054
0
LINE
8
BLACK
6
CONTINUOUS
10
5.4971373622047244
20
-2.8364729527559054
11
5.4959753937007871
21
-2.8336675590551179
0
LINE
8
BLACK
6
CONTINUOUS
10
5.4959753937007871
20
-2.8336675590551179
11
5.4959251968503935
21
-2.8329019291338584
0
LINE
8
BLACK
6
CONTINUOUS
10
5.4959251968503935
20
-2.8329019291338584
11
5.4959251968503935
21
-2.8179034251968504
0
LINE
8
BLACK
6
CONTINUOUS
10
5.4959251968503935
20
-2.8179034251968504
11
5.4959251574803147
21
-2.8179032677165354
0
LINE
8
BLACK
6
CONTINUOUS
10
5.4959251574803147
20
-2.8179032677165354
11
5.4950398031496066
21
-2.8145990157480316
0
LINE
8
BLACK
6
CONTINUOUS
10
5.4950398031496066
20
-2.8145990157480316
11
5.4950398031496066
21
-2.8145989763779529
0
LINE
8
BLACK
6
CONTINUOUS
10
5.4950398031496066
20
-2.8145989763779529
11
5.4948399212598424
21
-2.8138531102362205
0
LINE
8
BLACK
6
CONTINUOUS
10
5.4948399212598424
20
-2.8138531102362205
11
5.4948399212598424
21
-2.8138530708661418
0
LINE
8
BLACK
6
CONTINUOUS
10
5.4948399212598424
20
-2.8138530708661418
11
5.4927433070866138
21
-2.8102216929133856
0
LINE
8
BLACK
6
CONTINUOUS
10
5.4927433070866138
20
-2.8102216929133856
11
5.4697783070866137
21
-2.787256692913386
0
LINE
8
BLACK
6
CONTINUOUS
10
5.4697783070866137
20
-2.787256692913386
11
5.4697781889763775
21
-2.7872566141732285
0
LINE
8
BLACK
6
CONTINUOUS
10
5.4697781889763775
20
-2.7872566141732285
11
5.4697781496062987
21
-2.7872565748031497
0
LINE
8
BLACK
6
CONTINUOUS
10
5.4697781496062987
20
-2.7872565748031497
11
5.4661470078740155
21
-2.7851601181102361
0
LINE
8
BLACK
6
CONTINUOUS
10
5.4661470078740155
20
-2.7851601181102361
11
5.4661468897637793
21
-2.7851600787401574
0
LINE
8
BLACK
6
CONTINUOUS
10
5.4661468897637793
20
-2.7851600787401574
11
5.4620965748031498
21
-2.7840748031496063
0
LINE
8
BLACK
6
CONTINUOUS
10
5.4620965748031498
20
-2.7840748031496063
11
5.4607857874015746
21
-2.7840748031496063
0
LINE
8
BLACK
6
CONTINUOUS
10
5.4607857874015746
20
-2.7840748031496063
11
5.4578527165354327
21
-2.7832888976377954
0
LINE
8
BLACK
6
CONTINUOUS
10
5.4578527165354327
20
-2.7832888976377954
11
5.4557055511811026
21
-2.7811417322834644
0
LINE
8
BLACK
6
CONTINUOUS
10
5.4557055511811026
20
-2.7811417322834644
11
5.4549196456692908
21
-2.7782086614173229
0
LINE
8
BLACK
6
CONTINUOUS
10
5.4549196456692908
20
-2.7782086614173229
11
5.4549196456692908
21
-2.7754132677165355
0
LINE
8
BLACK
6
CONTINUOUS
10
5.4549196456692908
20
-2.7754132677165355
11
5.4549196456692908
21
-2.7754131496062993
0
LINE
8
BLACK
6
CONTINUOUS
10
5.4549196456692908
20
-2.7754131496062993
11
5.4543383464566926
21
-2.7724905118110237
0
LINE
8
BLACK
6
CONTINUOUS
10
5.4543383464566926
20
-2.7724905118110237
11
5.4521237795275592
21
-2.7691762204724411
0
LINE
8
BLACK
6
CONTINUOUS
10
5.4521237795275592
20
-2.7691762204724411
11
5.4521237401574805
21
-2.7691761811023623
0
LINE
8
BLACK
6
CONTINUOUS
10
5.4521237401574805
20
-2.7691761811023623
11
5.4521237007874017
21
-2.7691761417322835
0
LINE
8
BLACK
6
CONTINUOUS
10
5.4521237007874017
20
-2.7691761417322835
11
5.4488095275590549
21
-2.7669616535433068
0
LINE
8
BLACK
6
CONTINUOUS
10
5.4488095275590549
20
-2.7669616535433068
11
5.4458868897637798
21
-2.7663803149606299
0
LINE
8
BLACK
6
CONTINUOUS
10
5.4458868897637798
20
-2.7663803149606299
11
5.3967132677165353
21
-2.7663803149606299
0
LINE
8
BLACK
6
CONTINUOUS
10
5.3967132677165353
20
-2.7663803149606299
11
5.3937905118110239
21
-2.7669616141732285
0
CIRCLE
8
BLACK
10
4.7999999999999998
20
-2.7999999999999998
40
0.0068897637795276
0
CIRCLE
8
BLACK
10
6.
20
-2.7999999999999998
40
0.0068897637795276
0
CIRCLE
8
BLACK
10
4.7999999999999998
20
-4.
40
0.0068897637795276
0
CIRCLE
8
BLACK
10
6.
20
-4.
40
0.0068897637795276
0
CIRCLE
8
BLACK
10
5.9668503937007875
20
-3.6999999999999997
40
0.0068897637795276
0
CIRCLE
8
BLACK
10
5.7699999999999996
20
-3.6999999999999997
40
0.0068897637795276
0
CIRCLE
8
BLACK
10
5.9668503937007875
20
-3.5
40
0.0068897637795276
0
CIRCLE
8
BLACK
10
5.7699999999999996
20
-3.5
40
0.0068897637795276
0
CIRCLE
8
BLACK
10
5.9668503937007875
20
-3.1000000000000001
40
0.0068897637795276
0
CIRCLE
8
BLACK
10
5.7699999999999996
20
-3.1000000000000001
40
0.0068897637795276
0
CIRCLE
8
BLACK
10
5.9668503937007875
20
-3.2999999999999998
40
0.0068897637795276
0
CIRCLE
8
BLACK
10
5.7699999999999996
20
-3.2999999999999998
40
0.0068897637795276
0
CIRCLE
8
BLACK
10
5.1349999999999998
20
-3.9950000000000001
40
0.0068897637795276
0
CIRCLE
8
BLACK
10
5.4649999999999999
20
-3.8900000000000001
40
0.0068897637795276
0
CIRCLE
8
BLACK
10
5.4649999999999999
20
-3.9884251968503937
40
0.0068897637795276
0
CIRCLE
8
BLACK
10
5.2324999999999999
20
-3.6625000000000001
40
0.0059055118110236
0
CIRCLE
8
BLACK
10
5.2299999999999995
20
-3.7549999999999999
40
0.0059055118110236
0
CIRCLE
8
BLACK
10
5.2299999999999995
20
-3.71
40
0.0059055118110236
0
CIRCLE
8
BLACK
10
5.1875
20
-3.7549999999999999
40
0.0059055118110236
0
CIRCLE
8
BLACK
10
5.1875
20
-3.71
40
0.0059055118110236
0
CIRCLE
8
BLACK
10
5.1875
20
-3.6625000000000001
40
0.0059055118110236
0
CIRCLE
8
BLACK
10
5.3999999999999995
20
-3.2949999999999999
40
0.0059055118110236
0
CIRCLE
8
BLACK
10
5.2400000000000002
20
-3.4699999999999998
40
0.0059055118110236
0
CIRCLE
8
BLACK
10
5.4050000000000002
20
-3.415
40
0.0059055118110236
0
CIRCLE
8
BLACK
10
4.7909448818897635
20
-3.27
40
0.0059055118110236
0
CIRCLE
8
BLACK
10
5.6449999999999996
20
-3.5699999999999998
40
0.0059055118110236
0
CIRCLE
8
BLACK
10
5.3549999999999995
20
-3.25
40
0.0059055118110236
0
CIRCLE
8
BLACK
10
5.2400000000000002
20
-3.4199999999999999
40
0.0059055118110236
0
CIRCLE
8
BLACK
10
5.3149999999999995
20
-3.29
40
0.0059055118110236
0
CIRCLE
8
BLACK
10
5.4050000000000002
20
-3.4750000000000001
40
0.0059055118110236
0
CIRCLE
8
BLACK
10
5.5
20
-3.2949999999999999
40
0.0059055118110236
0
CIRCLE
8
BLACK
10
5.2699999999999996
20
-3.29
40
0.0059055118110236
0
CIRCLE
8
BLACK
10
5.2400000000000002
20
-3.375
40
0.0059055118110236
0
CIRCLE
8
BLACK
10
5.5599999999999996
20
-3.3999999999999999
40
0.0059055118110236
0
CIRCLE
8
BLACK
10
5.5700000000000003
20
-3.5656299212598426
40
0.0059055118110236
0
CIRCLE
8
BLACK
10
5.5599999999999996
20
-3.4350000000000001
40
0.0059055118110236
0
CIRCLE
8
BLACK
10
5.3549999999999995
20
-3.21
40
0.0059055118110236
0
CIRCLE
8
BLACK
10
4.9799999999999995
20
-3.6899999999999999
40
0.0059055118110236
0
CIRCLE
8
BLACK
10
5.4050000000000002
20
-3.3700000000000001
40
0.0059055118110236
0
CIRCLE
8
BLACK
10
5.4500000000000002
20
-3.2949999999999999
40
0.0059055118110236
0
CIRCLE
8
BLACK
10
4.6925984251968504
20
-3.7549999999999999
40
0.0059055118110236
0
CIRCLE
8
BLACK
10
5.5599999999999996
20
-3.4750000000000001
40
0.0059055118110236
0
CIRCLE
8
BLACK
10
5.5899999999999999
20
-3.2440551181102362
40
0.0059055118110236
0
CIRCLE
8
BLACK
10
5.2199999999999998
20
-3.29
40
0.0059055118110236
0
CIRCLE
8
BLACK
10
5.2406299212598428
20
-3.8700000000000001
40
0.0059055118110236
0
CIRCLE
8
BLACK
10
4.8300000000000001
20
-3.6106299212598425
40
0.0059055118110236
0
CIRCLE
8
BLACK
10
5.125
20
-3.5800000000000001
40
0.0059055118110236
0
CIRCLE
8
BLACK
10
5.2949999999999999
20
-3.5800000000000001
40
0.0059055118110236
0
CIRCLE
8
BLACK
10
5.4799999999999995
20
-2.8500000000000001
40
0.0059055118110236
  0
ENDSEC
  0
EOF
