  0
SECTION
  2
HEADER
  9
$ANGBASE
  50
0.0
  9
$ANGDIR
  70
1
  9
$MEASUREMENT
  70
0
  0
ENDSEC
  0
SECTION
  2
TABLES
  0
TABLE
  2
LTYPE
  70
4
  0
LTYPE
  5
40F
  2
CONTINUOUS
  70
0
  3
Solid line
  72
65
  73
0
  40
0.0
  0
LTYPE
  5
410
  2
DASHDOT
 70
0
  3
Dash Dot ____ _ ____ _
 72
65
 73
4
 40
2.0
 49
1.25
 49
-0.25
 49
0.25
 49
-0.25
  0
LTYPE
  5
411
  2
DASHED
 70
0
  3
Dashed __ __ __ __ __
 72
65
 73
2
 40
0.75
 49
0.5
 49
-0.25
  0
LTYPE
  5
43B
  2
DOTTED
 70
0
  3
Dotted .  .  .  .
 72
65
 73
2
 40
0.2
 49
0.0
 49
-0.2
  0
ENDTAB
  0
TABLE
  2
STYLE
  70
4
  0
STYLE
  2
KICAD
  70
0
  40
0
  41
1
  42
1
  50
0
  71
0
  3
isocp.shx
  0
STYLE
  2
KICADB
  70
0
  40
0
  41
1
  42
1
  50
0
  71
0
  3
isocp.shx
  0
STYLE
  2
KICADI
  70
0
  40
0
  41
1
  42
1
  50
15
  71
0
  3
isocp.shx
  0
STYLE
  2
KICADBI
  70
0
  40
0
  41
1
  42
1
  50
15
  71
0
  3
isocp.shx
  0
ENDTAB
  0
TABLE
  2
LAYER
  70
1
  0
LAYER
  2
BLACK
  70
0
  62
7
  6
CONTINUOUS
  0
ENDTAB
  0
ENDSEC
  0
SECTION
  2
ENTITIES
0
LINE
8
BLACK
6
CONTINUOUS
10
4.8205096456692909
20
-3.8836841338582677
11
4.8338744094488186
21
-3.8868516141732283
0
LINE
8
BLACK
6
CONTINUOUS
10
4.8338744094488186
20
-3.8868516141732283
11
4.8467810629921262
21
-3.8915492913385825
0
LINE
8
BLACK
6
CONTINUOUS
10
4.8467810629921262
20
-3.8915492913385825
11
4.8590551181102359
21
-3.8977135433070864
0
LINE
8
BLACK
6
CONTINUOUS
10
4.8590551181102359
20
-3.8977135433070864
11
4.8705305511811021
21
-3.9052610236220473
0
LINE
8
BLACK
6
CONTINUOUS
10
4.8705305511811021
20
-3.9052610236220473
11
4.8810521653543306
21
-3.9140897244094486
0
LINE
8
BLACK
6
CONTINUOUS
10
4.8810521653543306
20
-3.9140897244094486
11
4.8904776771653546
21
-3.9240801968503938
0
LINE
8
BLACK
6
CONTINUOUS
10
4.8904776771653546
20
-3.9240801968503938
11
4.8986796456692909
21
-3.9350973622047243
0
LINE
8
BLACK
6
CONTINUOUS
10
4.8986796456692909
20
-3.9350973622047243
11
4.9055471653543306
21
-3.9469922047244093
0
LINE
8
BLACK
6
CONTINUOUS
10
4.9055471653543306
20
-3.9469922047244093
11
4.9109873228346457
21
-3.9596039370078739
0
LINE
8
BLACK
6
CONTINUOUS
10
4.9109873228346457
20
-3.9596039370078739
11
4.9149265748031494
21
-3.9727618897637793
0
LINE
8
BLACK
6
CONTINUOUS
10
4.9149265748031494
20
-3.9727618897637793
11
4.9173116141732285
21
-3.9862882283464565
0
LINE
8
BLACK
6
CONTINUOUS
10
4.9173116141732285
20
-3.9862882283464565
11
4.9181102362204721
21
-4.
0
LINE
8
BLACK
6
CONTINUOUS
10
4.9181102362204721
20
-4.
11
4.9173116141732285
21
-4.0137117716535435
0
LINE
8
BLACK
6
CONTINUOUS
10
4.9173116141732285
20
-4.0137117716535435
11
4.9149265748031494
21
-4.0272381102362207
0
LINE
8
BLACK
6
CONTINUOUS
10
4.9149265748031494
20
-4.0272381102362207
11
4.9109873228346457
21
-4.0403960629921256
0
LINE
8
BLACK
6
CONTINUOUS
10
4.9109873228346457
20
-4.0403960629921256
11
4.9055471653543306
21
-4.0530077952755903
0
LINE
8
BLACK
6
CONTINUOUS
10
4.9055471653543306
20
-4.0530077952755903
11
4.8986796456692909
21
-4.0649026377952753
0
LINE
8
BLACK
6
CONTINUOUS
10
4.8986796456692909
20
-4.0649026377952753
11
4.8904776771653546
21
-4.0759198031496062
0
LINE
8
BLACK
6
CONTINUOUS
10
4.8904776771653546
20
-4.0759198031496062
11
4.8810521653543306
21
-4.0859102755905514
0
LINE
8
BLACK
6
CONTINUOUS
10
4.8810521653543306
20
-4.0859102755905514
11
4.8705305511811021
21
-4.0947389763779523
0
LINE
8
BLACK
6
CONTINUOUS
10
4.8705305511811021
20
-4.0947389763779523
11
4.8590551181102359
21
-4.1022864566929131
0
LINE
8
BLACK
6
CONTINUOUS
10
4.8590551181102359
20
-4.1022864566929131
11
4.8467810629921262
21
-4.108450708661417
0
LINE
8
BLACK
6
CONTINUOUS
10
4.8467810629921262
20
-4.108450708661417
11
4.8338744094488186
21
-4.1131483858267712
0
LINE
8
BLACK
6
CONTINUOUS
10
4.8338744094488186
20
-4.1131483858267712
11
4.8205096456692909
21
-4.1163158661417318
0
LINE
8
BLACK
6
CONTINUOUS
10
4.8205096456692909
20
-4.1163158661417318
11
4.8068674803149607
21
-4.1179103937007877
0
LINE
8
BLACK
6
CONTINUOUS
10
4.8068674803149607
20
-4.1179103937007877
11
4.793132519685039
21
-4.1179103937007877
0
LINE
8
BLACK
6
CONTINUOUS
10
4.793132519685039
20
-4.1179103937007877
11
4.7794903543307088
21
-4.1163158661417318
0
LINE
8
BLACK
6
CONTINUOUS
10
4.7794903543307088
20
-4.1163158661417318
11
4.766125590551181
21
-4.1131483858267712
0
LINE
8
BLACK
6
CONTINUOUS
10
4.766125590551181
20
-4.1131483858267712
11
4.7532189370078743
21
-4.108450708661417
0
LINE
8
BLACK
6
CONTINUOUS
10
4.7532189370078743
20
-4.108450708661417
11
4.7409448818897637
21
-4.1022864566929131
0
LINE
8
BLACK
6
CONTINUOUS
10
4.7409448818897637
20
-4.1022864566929131
11
4.7294694488188975
21
-4.0947389763779523
0
LINE
8
BLACK
6
CONTINUOUS
10
4.7294694488188975
20
-4.0947389763779523
11
4.718947834645669
21
-4.0859102755905514
0
LINE
8
BLACK
6
CONTINUOUS
10
4.718947834645669
20
-4.0859102755905514
11
4.7095223228346459
21
-4.0759198031496062
0
LINE
8
BLACK
6
CONTINUOUS
10
4.7095223228346459
20
-4.0759198031496062
11
4.7013203543307087
21
-4.0649026377952753
0
LINE
8
BLACK
6
CONTINUOUS
10
4.7013203543307087
20
-4.0649026377952753
11
4.6944528346456691
21
-4.0530077952755903
0
LINE
8
BLACK
6
CONTINUOUS
10
4.6944528346456691
20
-4.0530077952755903
11
4.689012677165354
21
-4.0403960629921256
0
LINE
8
BLACK
6
CONTINUOUS
10
4.689012677165354
20
-4.0403960629921256
11
4.6850734251968502
21
-4.0272381102362207
0
LINE
8
BLACK
6
CONTINUOUS
10
4.6850734251968502
20
-4.0272381102362207
11
4.6826883858267712
21
-4.0137117716535435
0
LINE
8
BLACK
6
CONTINUOUS
10
4.6826883858267712
20
-4.0137117716535435
11
4.6818897637795276
21
-4.
0
LINE
8
BLACK
6
CONTINUOUS
10
4.6818897637795276
20
-4.
11
4.6826883858267712
21
-3.9862882283464565
0
LINE
8
BLACK
6
CONTINUOUS
10
4.6826883858267712
20
-3.9862882283464565
11
4.6850734251968502
21
-3.9727618897637793
0
LINE
8
BLACK
6
CONTINUOUS
10
4.6850734251968502
20
-3.9727618897637793
11
4.689012677165354
21
-3.9596039370078739
0
LINE
8
BLACK
6
CONTINUOUS
10
4.689012677165354
20
-3.9596039370078739
11
4.6944528346456691
21
-3.9469922047244093
0
LINE
8
BLACK
6
CONTINUOUS
10
4.6944528346456691
20
-3.9469922047244093
11
4.7013203543307087
21
-3.9350973622047243
0
LINE
8
BLACK
6
CONTINUOUS
10
4.7013203543307087
20
-3.9350973622047243
11
4.7095223228346459
21
-3.9240801968503938
0
LINE
8
BLACK
6
CONTINUOUS
10
4.7095223228346459
20
-3.9240801968503938
11
4.718947834645669
21
-3.9140897244094486
0
LINE
8
BLACK
6
CONTINUOUS
10
4.718947834645669
20
-3.9140897244094486
11
4.7294694488188975
21
-3.9052610236220473
0
LINE
8
BLACK
6
CONTINUOUS
10
4.7294694488188975
20
-3.9052610236220473
11
4.7409448818897637
21
-3.8977135433070864
0
LINE
8
BLACK
6
CONTINUOUS
10
4.7409448818897637
20
-3.8977135433070864
11
4.7532189370078743
21
-3.8915492913385825
0
LINE
8
BLACK
6
CONTINUOUS
10
4.7532189370078743
20
-3.8915492913385825
11
4.766125590551181
21
-3.8868516141732283
0
LINE
8
BLACK
6
CONTINUOUS
10
4.766125590551181
20
-3.8868516141732283
11
4.7794903543307088
21
-3.8836841338582677
0
LINE
8
BLACK
6
CONTINUOUS
10
4.7794903543307088
20
-3.8836841338582677
11
4.793132519685039
21
-3.8820896062992123
0
LINE
8
BLACK
6
CONTINUOUS
10
4.793132519685039
20
-3.8820896062992123
11
4.8068674803149607
21
-3.8820896062992123
0
LINE
8
BLACK
6
CONTINUOUS
10
4.8068674803149607
20
-3.8820896062992123
11
4.8205096456692909
21
-3.8836841338582677
0
LINE
8
BLACK
6
CONTINUOUS
10
6.020509645669291
20
-3.8836841338582677
11
6.0338744094488188
21
-3.8868516141732283
0
LINE
8
BLACK
6
CONTINUOUS
10
6.0338744094488188
20
-3.8868516141732283
11
6.0467810629921255
21
-3.8915492913385825
0
LINE
8
BLACK
6
CONTINUOUS
10
6.0467810629921255
20
-3.8915492913385825
11
6.0590551181102361
21
-3.8977135433070864
0
LINE
8
BLACK
6
CONTINUOUS
10
6.0590551181102361
20
-3.8977135433070864
11
6.0705305511811023
21
-3.9052610236220473
0
LINE
8
BLACK
6
CONTINUOUS
10
6.0705305511811023
20
-3.9052610236220473
11
6.0810521653543308
21
-3.9140897244094486
0
LINE
8
BLACK
6
CONTINUOUS
10
6.0810521653543308
20
-3.9140897244094486
11
6.0904776771653539
21
-3.9240801968503938
0
LINE
8
BLACK
6
CONTINUOUS
10
6.0904776771653539
20
-3.9240801968503938
11
6.0986796456692911
21
-3.9350973622047243
0
LINE
8
BLACK
6
CONTINUOUS
10
6.0986796456692911
20
-3.9350973622047243
11
6.1055471653543307
21
-3.9469922047244093
0
LINE
8
BLACK
6
CONTINUOUS
10
6.1055471653543307
20
-3.9469922047244093
11
6.1109873228346459
21
-3.9596039370078739
0
LINE
8
BLACK
6
CONTINUOUS
10
6.1109873228346459
20
-3.9596039370078739
11
6.1149265748031496
21
-3.9727618897637793
0
LINE
8
BLACK
6
CONTINUOUS
10
6.1149265748031496
20
-3.9727618897637793
11
6.1173116141732278
21
-3.9862882283464565
0
LINE
8
BLACK
6
CONTINUOUS
10
6.1173116141732278
20
-3.9862882283464565
11
6.1181102362204722
21
-4.
0
LINE
8
BLACK
6
CONTINUOUS
10
6.1181102362204722
20
-4.
11
6.1173116141732278
21
-4.0137117716535435
0
LINE
8
BLACK
6
CONTINUOUS
10
6.1173116141732278
20
-4.0137117716535435
11
6.1149265748031496
21
-4.0272381102362207
0
LINE
8
BLACK
6
CONTINUOUS
10
6.1149265748031496
20
-4.0272381102362207
11
6.1109873228346459
21
-4.0403960629921256
0
LINE
8
BLACK
6
CONTINUOUS
10
6.1109873228346459
20
-4.0403960629921256
11
6.1055471653543307
21
-4.0530077952755903
0
LINE
8
BLACK
6
CONTINUOUS
10
6.1055471653543307
20
-4.0530077952755903
11
6.0986796456692911
21
-4.0649026377952753
0
LINE
8
BLACK
6
CONTINUOUS
10
6.0986796456692911
20
-4.0649026377952753
11
6.0904776771653539
21
-4.0759198031496062
0
LINE
8
BLACK
6
CONTINUOUS
10
6.0904776771653539
20
-4.0759198031496062
11
6.0810521653543308
21
-4.0859102755905514
0
LINE
8
BLACK
6
CONTINUOUS
10
6.0810521653543308
20
-4.0859102755905514
11
6.0705305511811023
21
-4.0947389763779523
0
LINE
8
BLACK
6
CONTINUOUS
10
6.0705305511811023
20
-4.0947389763779523
11
6.0590551181102361
21
-4.1022864566929131
0
LINE
8
BLACK
6
CONTINUOUS
10
6.0590551181102361
20
-4.1022864566929131
11
6.0467810629921255
21
-4.108450708661417
0
LINE
8
BLACK
6
CONTINUOUS
10
6.0467810629921255
20
-4.108450708661417
11
6.0338744094488188
21
-4.1131483858267712
0
LINE
8
BLACK
6
CONTINUOUS
10
6.0338744094488188
20
-4.1131483858267712
11
6.020509645669291
21
-4.1163158661417318
0
LINE
8
BLACK
6
CONTINUOUS
10
6.020509645669291
20
-4.1163158661417318
11
6.0068674803149609
21
-4.1179103937007877
0
LINE
8
BLACK
6
CONTINUOUS
10
6.0068674803149609
20
-4.1179103937007877
11
5.9931325196850391
21
-4.1179103937007877
0
LINE
8
BLACK
6
CONTINUOUS
10
5.9931325196850391
20
-4.1179103937007877
11
5.979490354330709
21
-4.1163158661417318
0
LINE
8
BLACK
6
CONTINUOUS
10
5.979490354330709
20
-4.1163158661417318
11
5.9661255905511812
21
-4.1131483858267712
0
LINE
8
BLACK
6
CONTINUOUS
10
5.9661255905511812
20
-4.1131483858267712
11
5.9532189370078736
21
-4.108450708661417
0
LINE
8
BLACK
6
CONTINUOUS
10
5.9532189370078736
20
-4.108450708661417
11
5.9409448818897639
21
-4.1022864566929131
0
LINE
8
BLACK
6
CONTINUOUS
10
5.9409448818897639
20
-4.1022864566929131
11
5.9294694488188977
21
-4.0947389763779523
0
LINE
8
BLACK
6
CONTINUOUS
10
5.9294694488188977
20
-4.0947389763779523
11
5.9189478346456692
21
-4.0859102755905514
0
LINE
8
BLACK
6
CONTINUOUS
10
5.9189478346456692
20
-4.0859102755905514
11
5.9095223228346452
21
-4.0759198031496062
0
LINE
8
BLACK
6
CONTINUOUS
10
5.9095223228346452
20
-4.0759198031496062
11
5.9013203543307089
21
-4.0649026377952753
0
LINE
8
BLACK
6
CONTINUOUS
10
5.9013203543307089
20
-4.0649026377952753
11
5.8944528346456693
21
-4.0530077952755903
0
LINE
8
BLACK
6
CONTINUOUS
10
5.8944528346456693
20
-4.0530077952755903
11
5.8890126771653541
21
-4.0403960629921256
0
LINE
8
BLACK
6
CONTINUOUS
10
5.8890126771653541
20
-4.0403960629921256
11
5.8850734251968504
21
-4.0272381102362207
0
LINE
8
BLACK
6
CONTINUOUS
10
5.8850734251968504
20
-4.0272381102362207
11
5.8826883858267713
21
-4.0137117716535435
0
LINE
8
BLACK
6
CONTINUOUS
10
5.8826883858267713
20
-4.0137117716535435
11
5.8818897637795278
21
-4.
0
LINE
8
BLACK
6
CONTINUOUS
10
5.8818897637795278
20
-4.
11
5.8826883858267713
21
-3.9862882283464565
0
LINE
8
BLACK
6
CONTINUOUS
10
5.8826883858267713
20
-3.9862882283464565
11
5.8850734251968504
21
-3.9727618897637793
0
LINE
8
BLACK
6
CONTINUOUS
10
5.8850734251968504
20
-3.9727618897637793
11
5.8890126771653541
21
-3.9596039370078739
0
LINE
8
BLACK
6
CONTINUOUS
10
5.8890126771653541
20
-3.9596039370078739
11
5.8944528346456693
21
-3.9469922047244093
0
LINE
8
BLACK
6
CONTINUOUS
10
5.8944528346456693
20
-3.9469922047244093
11
5.9013203543307089
21
-3.9350973622047243
0
LINE
8
BLACK
6
CONTINUOUS
10
5.9013203543307089
20
-3.9350973622047243
11
5.9095223228346452
21
-3.9240801968503938
0
LINE
8
BLACK
6
CONTINUOUS
10
5.9095223228346452
20
-3.9240801968503938
11
5.9189478346456692
21
-3.9140897244094486
0
LINE
8
BLACK
6
CONTINUOUS
10
5.9189478346456692
20
-3.9140897244094486
11
5.9294694488188977
21
-3.9052610236220473
0
LINE
8
BLACK
6
CONTINUOUS
10
5.9294694488188977
20
-3.9052610236220473
11
5.9409448818897639
21
-3.8977135433070864
0
LINE
8
BLACK
6
CONTINUOUS
10
5.9409448818897639
20
-3.8977135433070864
11
5.9532189370078736
21
-3.8915492913385825
0
LINE
8
BLACK
6
CONTINUOUS
10
5.9532189370078736
20
-3.8915492913385825
11
5.9661255905511812
21
-3.8868516141732283
0
LINE
8
BLACK
6
CONTINUOUS
10
5.9661255905511812
20
-3.8868516141732283
11
5.979490354330709
21
-3.8836841338582677
0
LINE
8
BLACK
6
CONTINUOUS
10
5.979490354330709
20
-3.8836841338582677
11
5.9931325196850391
21
-3.8820896062992123
0
LINE
8
BLACK
6
CONTINUOUS
10
5.9931325196850391
20
-3.8820896062992123
11
6.0068674803149609
21
-3.8820896062992123
0
LINE
8
BLACK
6
CONTINUOUS
10
6.0068674803149609
20
-3.8820896062992123
11
6.020509645669291
21
-3.8836841338582677
0
LINE
8
BLACK
6
CONTINUOUS
10
5.1820132677165356
20
-3.9437253543307085
11
5.1845677559055119
21
-3.945432244094488
0
LINE
8
BLACK
6
CONTINUOUS
10
5.1845677559055119
20
-3.945432244094488
11
5.1862746456692914
21
-3.9479867322834643
0
LINE
8
BLACK
6
CONTINUOUS
10
5.1862746456692914
20
-3.9479867322834643
11
5.1868740157480318
21
-3.9510000000000001
0
LINE
8
BLACK
6
CONTINUOUS
10
5.1868740157480318
20
-3.9510000000000001
11
5.1868740157480318
21
-4.0389999999999997
0
LINE
8
BLACK
6
CONTINUOUS
10
5.1868740157480318
20
-4.0389999999999997
11
5.1862746456692914
21
-4.042013267716535
0
LINE
8
BLACK
6
CONTINUOUS
10
5.1862746456692914
20
-4.042013267716535
11
5.1845677559055119
21
-4.0445677559055113
0
LINE
8
BLACK
6
CONTINUOUS
10
5.1845677559055119
20
-4.0445677559055113
11
5.1820132677165356
21
-4.0462746456692908
0
LINE
8
BLACK
6
CONTINUOUS
10
5.1820132677165356
20
-4.0462746456692908
11
5.1790000000000003
21
-4.0468740157480312
0
LINE
8
BLACK
6
CONTINUOUS
10
5.1790000000000003
20
-4.0468740157480312
11
5.0910000000000002
21
-4.0468740157480312
0
LINE
8
BLACK
6
CONTINUOUS
10
5.0910000000000002
20
-4.0468740157480312
11
5.0879867322834649
21
-4.0462746456692908
0
LINE
8
BLACK
6
CONTINUOUS
10
5.0879867322834649
20
-4.0462746456692908
11
5.0854322440944877
21
-4.0445677559055113
0
LINE
8
BLACK
6
CONTINUOUS
10
5.0854322440944877
20
-4.0445677559055113
11
5.0837253543307082
21
-4.042013267716535
0
LINE
8
BLACK
6
CONTINUOUS
10
5.0837253543307082
20
-4.042013267716535
11
5.0831259842519687
21
-4.0389999999999997
0
LINE
8
BLACK
6
CONTINUOUS
10
5.0831259842519687
20
-4.0389999999999997
11
5.0831259842519687
21
-3.9510000000000001
0
LINE
8
BLACK
6
CONTINUOUS
10
5.0831259842519687
20
-3.9510000000000001
11
5.0837253543307082
21
-3.9479867322834643
0
LINE
8
BLACK
6
CONTINUOUS
10
5.0837253543307082
20
-3.9479867322834643
11
5.0854322440944877
21
-3.945432244094488
0
LINE
8
BLACK
6
CONTINUOUS
10
5.0854322440944877
20
-3.945432244094488
11
5.0879867322834649
21
-3.9437253543307085
0
LINE
8
BLACK
6
CONTINUOUS
10
5.0879867322834649
20
-3.9437253543307085
11
5.0910000000000002
21
-3.9431259842519686
0
LINE
8
BLACK
6
CONTINUOUS
10
5.0910000000000002
20
-3.9431259842519686
11
5.1790000000000003
21
-3.9431259842519686
0
LINE
8
BLACK
6
CONTINUOUS
10
5.1790000000000003
20
-3.9431259842519686
11
5.1820132677165356
21
-3.9437253543307085
0
LINE
8
BLACK
6
CONTINUOUS
10
5.4753411023622043
20
-3.9565985039370077
11
5.4817322834645665
21
-3.9594440157480313
0
LINE
8
BLACK
6
CONTINUOUS
10
5.4817322834645665
20
-3.9594440157480313
11
5.4873921653543309
21
-3.9635561811023621
0
LINE
8
BLACK
6
CONTINUOUS
10
5.4873921653543309
20
-3.9635561811023621
11
5.4920733858267718
21
-3.9687552362204723
0
LINE
8
BLACK
6
CONTINUOUS
10
5.4920733858267718
20
-3.9687552362204723
11
5.4955714173228349
21
-3.9748139370078741
0
LINE
8
BLACK
6
CONTINUOUS
10
5.4955714173228349
20
-3.9748139370078741
11
5.4977332677165354
21
-3.9814675196850393
0
LINE
8
BLACK
6
CONTINUOUS
10
5.4977332677165354
20
-3.9814675196850393
11
5.4984645669291341
21
-3.9884251968503937
0
LINE
8
BLACK
6
CONTINUOUS
10
5.4984645669291341
20
-3.9884251968503937
11
5.4977332677165354
21
-3.995382874015748
0
LINE
8
BLACK
6
CONTINUOUS
10
5.4977332677165354
20
-3.995382874015748
11
5.4955714173228349
21
-4.0020364566929132
0
LINE
8
BLACK
6
CONTINUOUS
10
5.4955714173228349
20
-4.0020364566929132
11
5.4920733858267718
21
-4.008095157480315
0
LINE
8
BLACK
6
CONTINUOUS
10
5.4920733858267718
20
-4.008095157480315
11
5.4873921653543309
21
-4.0132942125984252
0
LINE
8
BLACK
6
CONTINUOUS
10
5.4873921653543309
20
-4.0132942125984252
11
5.4817322834645665
21
-4.0174063779527556
0
LINE
8
BLACK
6
CONTINUOUS
10
5.4817322834645665
20
-4.0174063779527556
11
5.4753411023622043
21
-4.0202518897637791
0
LINE
8
BLACK
6
CONTINUOUS
10
5.4753411023622043
20
-4.0202518897637791
11
5.4684979921259842
21
-4.0217064566929137
0
LINE
8
BLACK
6
CONTINUOUS
10
5.4684979921259842
20
-4.0217064566929137
11
5.4615020078740155
21
-4.0217064566929137
0
LINE
8
BLACK
6
CONTINUOUS
10
5.4615020078740155
20
-4.0217064566929137
11
5.4546588976377954
21
-4.0202518897637791
0
LINE
8
BLACK
6
CONTINUOUS
10
5.4546588976377954
20
-4.0202518897637791
11
5.4482677165354332
21
-4.0174063779527556
0
LINE
8
BLACK
6
CONTINUOUS
10
5.4482677165354332
20
-4.0174063779527556
11
5.4426078346456688
21
-4.0132942125984252
0
LINE
8
BLACK
6
CONTINUOUS
10
5.4426078346456688
20
-4.0132942125984252
11
5.4379266141732279
21
-4.008095157480315
0
LINE
8
BLACK
6
CONTINUOUS
10
5.4379266141732279
20
-4.008095157480315
11
5.4344285826771657
21
-4.0020364566929132
0
LINE
8
BLACK
6
CONTINUOUS
10
5.4344285826771657
20
-4.0020364566929132
11
5.4322667322834643
21
-3.995382874015748
0
LINE
8
BLACK
6
CONTINUOUS
10
5.4322667322834643
20
-3.995382874015748
11
5.4315354330708656
21
-3.9884251968503937
0
LINE
8
BLACK
6
CONTINUOUS
10
5.4315354330708656
20
-3.9884251968503937
11
5.4322667322834643
21
-3.9814675196850393
0
LINE
8
BLACK
6
CONTINUOUS
10
5.4322667322834643
20
-3.9814675196850393
11
5.4344285826771657
21
-3.9748139370078741
0
LINE
8
BLACK
6
CONTINUOUS
10
5.4344285826771657
20
-3.9748139370078741
11
5.4379266141732279
21
-3.9687552362204723
0
LINE
8
BLACK
6
CONTINUOUS
10
5.4379266141732279
20
-3.9687552362204723
11
5.4426078346456688
21
-3.9635561811023621
0
LINE
8
BLACK
6
CONTINUOUS
10
5.4426078346456688
20
-3.9635561811023621
11
5.4482677165354332
21
-3.9594440157480313
0
LINE
8
BLACK
6
CONTINUOUS
10
5.4482677165354332
20
-3.9594440157480313
11
5.4546588976377954
21
-3.9565985039370077
0
LINE
8
BLACK
6
CONTINUOUS
10
5.4546588976377954
20
-3.9565985039370077
11
5.4615020078740155
21
-3.955143937007874
0
LINE
8
BLACK
6
CONTINUOUS
10
5.4615020078740155
20
-3.955143937007874
11
5.4684979921259842
21
-3.955143937007874
0
LINE
8
BLACK
6
CONTINUOUS
10
5.4684979921259842
20
-3.955143937007874
11
5.4753411023622043
21
-3.9565985039370077
0
LINE
8
BLACK
6
CONTINUOUS
10
5.4936038188976379
20
-3.8571348031496062
11
5.4961583070866142
21
-3.8588416929133857
0
LINE
8
BLACK
6
CONTINUOUS
10
5.4961583070866142
20
-3.8588416929133857
11
5.4978651968503938
21
-3.861396181102362
0
LINE
8
BLACK
6
CONTINUOUS
10
5.4978651968503938
20
-3.861396181102362
11
5.4984645669291341
21
-3.8644094488188974
0
LINE
8
BLACK
6
CONTINUOUS
10
5.4984645669291341
20
-3.8644094488188974
11
5.4984645669291341
21
-3.9155905511811024
0
LINE
8
BLACK
6
CONTINUOUS
10
5.4984645669291341
20
-3.9155905511811024
11
5.4978651968503938
21
-3.9186038188976378
0
LINE
8
BLACK
6
CONTINUOUS
10
5.4978651968503938
20
-3.9186038188976378
11
5.4961583070866142
21
-3.9211583070866141
0
LINE
8
BLACK
6
CONTINUOUS
10
5.4961583070866142
20
-3.9211583070866141
11
5.4936038188976379
21
-3.9228651968503936
0
LINE
8
BLACK
6
CONTINUOUS
10
5.4936038188976379
20
-3.9228651968503936
11
5.4905905511811026
21
-3.9234645669291339
0
LINE
8
BLACK
6
CONTINUOUS
10
5.4905905511811026
20
-3.9234645669291339
11
5.4394094488188971
21
-3.9234645669291339
0
LINE
8
BLACK
6
CONTINUOUS
10
5.4394094488188971
20
-3.9234645669291339
11
5.4363961811023618
21
-3.9228651968503936
0
LINE
8
BLACK
6
CONTINUOUS
10
5.4363961811023618
20
-3.9228651968503936
11
5.4338416929133855
21
-3.9211583070866141
0
LINE
8
BLACK
6
CONTINUOUS
10
5.4338416929133855
20
-3.9211583070866141
11
5.432134803149606
21
-3.9186038188976378
0
LINE
8
BLACK
6
CONTINUOUS
10
5.432134803149606
20
-3.9186038188976378
11
5.4315354330708656
21
-3.9155905511811024
0
LINE
8
BLACK
6
CONTINUOUS
10
5.4315354330708656
20
-3.9155905511811024
11
5.4315354330708656
21
-3.8644094488188974
0
LINE
8
BLACK
6
CONTINUOUS
10
5.4315354330708656
20
-3.8644094488188974
11
5.432134803149606
21
-3.861396181102362
0
LINE
8
BLACK
6
CONTINUOUS
10
5.432134803149606
20
-3.861396181102362
11
5.4338416929133855
21
-3.8588416929133857
0
LINE
8
BLACK
6
CONTINUOUS
10
5.4338416929133855
20
-3.8588416929133857
11
5.4363961811023618
21
-3.8571348031496062
0
LINE
8
BLACK
6
CONTINUOUS
10
5.4363961811023618
20
-3.8571348031496062
11
5.4394094488188971
21
-3.8565354330708659
0
LINE
8
BLACK
6
CONTINUOUS
10
5.4394094488188971
20
-3.8565354330708659
11
5.4905905511811026
21
-3.8565354330708659
0
LINE
8
BLACK
6
CONTINUOUS
10
5.4905905511811026
20
-3.8565354330708659
11
5.4936038188976379
21
-3.8571348031496062
0
LINE
8
BLACK
6
CONTINUOUS
10
5.2633282283464569
20
-3.8381190551181104
11
5.2658827165354332
21
-3.8398259448818899
0
LINE
8
BLACK
6
CONTINUOUS
10
5.2658827165354332
20
-3.8398259448818899
11
5.2675896062992127
21
-3.8423804330708662
0
LINE
8
BLACK
6
CONTINUOUS
10
5.2675896062992127
20
-3.8423804330708662
11
5.268188976377953
21
-3.8453937007874015
0
LINE
8
BLACK
6
CONTINUOUS
10
5.268188976377953
20
-3.8453937007874015
11
5.268188976377953
21
-3.8946062992125983
0
LINE
8
BLACK
6
CONTINUOUS
10
5.268188976377953
20
-3.8946062992125983
11
5.2675896062992127
21
-3.8976195669291336
0
LINE
8
BLACK
6
CONTINUOUS
10
5.2675896062992127
20
-3.8976195669291336
11
5.2658827165354332
21
-3.9001740551181103
0
LINE
8
BLACK
6
CONTINUOUS
10
5.2658827165354332
20
-3.9001740551181103
11
5.2633282283464569
21
-3.9018809448818899
0
LINE
8
BLACK
6
CONTINUOUS
10
5.2633282283464569
20
-3.9018809448818899
11
5.2603149606299215
21
-3.9024803149606297
0
LINE
8
BLACK
6
CONTINUOUS
10
5.2603149606299215
20
-3.9024803149606297
11
5.2209448818897632
21
-3.9024803149606297
0
LINE
8
BLACK
6
CONTINUOUS
10
5.2209448818897632
20
-3.9024803149606297
11
5.2179316141732279
21
-3.9018809448818899
0
LINE
8
BLACK
6
CONTINUOUS
10
5.2179316141732279
20
-3.9018809448818899
11
5.2153771259842516
21
-3.9001740551181103
0
LINE
8
BLACK
6
CONTINUOUS
10
5.2153771259842516
20
-3.9001740551181103
11
5.2136702362204721
21
-3.8976195669291336
0
LINE
8
BLACK
6
CONTINUOUS
10
5.2136702362204721
20
-3.8976195669291336
11
5.2130708661417318
21
-3.8946062992125983
0
LINE
8
BLACK
6
CONTINUOUS
10
5.2130708661417318
20
-3.8946062992125983
11
5.2130708661417318
21
-3.8453937007874015
0
LINE
8
BLACK
6
CONTINUOUS
10
5.2130708661417318
20
-3.8453937007874015
11
5.2136702362204721
21
-3.8423804330708662
0
LINE
8
BLACK
6
CONTINUOUS
10
5.2136702362204721
20
-3.8423804330708662
11
5.2153771259842516
21
-3.8398259448818899
0
LINE
8
BLACK
6
CONTINUOUS
10
5.2153771259842516
20
-3.8398259448818899
11
5.2179316141732279
21
-3.8381190551181104
0
LINE
8
BLACK
6
CONTINUOUS
10
5.2179316141732279
20
-3.8381190551181104
11
5.2209448818897632
21
-3.83751968503937
0
LINE
8
BLACK
6
CONTINUOUS
10
5.2209448818897632
20
-3.83751968503937
11
5.2603149606299215
21
-3.83751968503937
0
LINE
8
BLACK
6
CONTINUOUS
10
5.2603149606299215
20
-3.83751968503937
11
5.2633282283464569
21
-3.8381190551181104
0
LINE
8
BLACK
6
CONTINUOUS
10
5.3420683858267717
20
-3.8381190551181104
11
5.344622874015748
21
-3.8398259448818899
0
LINE
8
BLACK
6
CONTINUOUS
10
5.344622874015748
20
-3.8398259448818899
11
5.3463297637795275
21
-3.8423804330708662
0
LINE
8
BLACK
6
CONTINUOUS
10
5.3463297637795275
20
-3.8423804330708662
11
5.3469291338582678
21
-3.8453937007874015
0
LINE
8
BLACK
6
CONTINUOUS
10
5.3469291338582678
20
-3.8453937007874015
11
5.3469291338582678
21
-3.8946062992125983
0
LINE
8
BLACK
6
CONTINUOUS
10
5.3469291338582678
20
-3.8946062992125983
11
5.3463297637795275
21
-3.8976195669291336
0
LINE
8
BLACK
6
CONTINUOUS
10
5.3463297637795275
20
-3.8976195669291336
11
5.344622874015748
21
-3.9001740551181103
0
LINE
8
BLACK
6
CONTINUOUS
10
5.344622874015748
20
-3.9001740551181103
11
5.3420683858267717
21
-3.9018809448818899
0
LINE
8
BLACK
6
CONTINUOUS
10
5.3420683858267717
20
-3.9018809448818899
11
5.3390551181102364
21
-3.9024803149606297
0
LINE
8
BLACK
6
CONTINUOUS
10
5.3390551181102364
20
-3.9024803149606297
11
5.299685039370079
21
-3.9024803149606297
0
LINE
8
BLACK
6
CONTINUOUS
10
5.299685039370079
20
-3.9024803149606297
11
5.2966717716535427
21
-3.9018809448818899
0
LINE
8
BLACK
6
CONTINUOUS
10
5.2966717716535427
20
-3.9018809448818899
11
5.2941172834645664
21
-3.9001740551181103
0
LINE
8
BLACK
6
CONTINUOUS
10
5.2941172834645664
20
-3.9001740551181103
11
5.2924103937007869
21
-3.8976195669291336
0
LINE
8
BLACK
6
CONTINUOUS
10
5.2924103937007869
20
-3.8976195669291336
11
5.2918110236220475
21
-3.8946062992125983
0
LINE
8
BLACK
6
CONTINUOUS
10
5.2918110236220475
20
-3.8946062992125983
11
5.2918110236220475
21
-3.8453937007874015
0
LINE
8
BLACK
6
CONTINUOUS
10
5.2918110236220475
20
-3.8453937007874015
11
5.2924103937007869
21
-3.8423804330708662
0
LINE
8
BLACK
6
CONTINUOUS
10
5.2924103937007869
20
-3.8423804330708662
11
5.2941172834645664
21
-3.8398259448818899
0
LINE
8
BLACK
6
CONTINUOUS
10
5.2941172834645664
20
-3.8398259448818899
11
5.2966717716535427
21
-3.8381190551181104
0
LINE
8
BLACK
6
CONTINUOUS
10
5.2966717716535427
20
-3.8381190551181104
11
5.299685039370079
21
-3.83751968503937
0
LINE
8
BLACK
6
CONTINUOUS
10
5.299685039370079
20
-3.83751968503937
11
5.3390551181102364
21
-3.83751968503937
0
LINE
8
BLACK
6
CONTINUOUS
10
5.3390551181102364
20
-3.83751968503937
11
5.3420683858267717
21
-3.8381190551181104
0
LINE
8
BLACK
6
CONTINUOUS
10
5.1421471259842519
20
-3.7659143307086613
11
5.1447016141732282
21
-3.7676212204724409
0
LINE
8
BLACK
6
CONTINUOUS
10
5.1447016141732282
20
-3.7676212204724409
11
5.1464085039370078
21
-3.7701757086614172
0
LINE
8
BLACK
6
CONTINUOUS
10
5.1464085039370078
20
-3.7701757086614172
11
5.1470078740157481
21
-3.7731889763779525
0
LINE
8
BLACK
6
CONTINUOUS
10
5.1470078740157481
20
-3.7731889763779525
11
5.1470078740157481
21
-3.7968110236220474
0
LINE
8
BLACK
6
CONTINUOUS
10
5.1470078740157481
20
-3.7968110236220474
11
5.1464085039370078
21
-3.7998242913385827
0
LINE
8
BLACK
6
CONTINUOUS
10
5.1464085039370078
20
-3.7998242913385827
11
5.1447016141732282
21
-3.802378779527559
0
LINE
8
BLACK
6
CONTINUOUS
10
5.1447016141732282
20
-3.802378779527559
11
5.1421471259842519
21
-3.8040856692913385
0
LINE
8
BLACK
6
CONTINUOUS
10
5.1421471259842519
20
-3.8040856692913385
11
5.1391338582677166
21
-3.8046850393700788
0
LINE
8
BLACK
6
CONTINUOUS
10
5.1391338582677166
20
-3.8046850393700788
11
5.0544881889763777
21
-3.8046850393700788
0
LINE
8
BLACK
6
CONTINUOUS
10
5.0544881889763777
20
-3.8046850393700788
11
5.0514749212598424
21
-3.8040856692913385
0
LINE
8
BLACK
6
CONTINUOUS
10
5.0514749212598424
20
-3.8040856692913385
11
5.0489204330708661
21
-3.802378779527559
0
LINE
8
BLACK
6
CONTINUOUS
10
5.0489204330708661
20
-3.802378779527559
11
5.0472135433070866
21
-3.7998242913385827
0
LINE
8
BLACK
6
CONTINUOUS
10
5.0472135433070866
20
-3.7998242913385827
11
5.0466141732283463
21
-3.7968110236220474
0
LINE
8
BLACK
6
CONTINUOUS
10
5.0466141732283463
20
-3.7968110236220474
11
5.0466141732283463
21
-3.7731889763779525
0
LINE
8
BLACK
6
CONTINUOUS
10
5.0466141732283463
20
-3.7731889763779525
11
5.0472135433070866
21
-3.7701757086614172
0
LINE
8
BLACK
6
CONTINUOUS
10
5.0472135433070866
20
-3.7701757086614172
11
5.0489204330708661
21
-3.7676212204724409
0
LINE
8
BLACK
6
CONTINUOUS
10
5.0489204330708661
20
-3.7676212204724409
11
5.0514749212598424
21
-3.7659143307086613
0
LINE
8
BLACK
6
CONTINUOUS
10
5.0514749212598424
20
-3.7659143307086613
11
5.0544881889763777
21
-3.765314960629921
0
LINE
8
BLACK
6
CONTINUOUS
10
5.0544881889763777
20
-3.765314960629921
11
5.1391338582677166
21
-3.765314960629921
0
LINE
8
BLACK
6
CONTINUOUS
10
5.1391338582677166
20
-3.765314960629921
11
5.1421471259842519
21
-3.7659143307086613
0
LINE
8
BLACK
6
CONTINUOUS
10
5.3685250787401575
20
-3.7659143307086613
11
5.3710795669291338
21
-3.7676212204724409
0
LINE
8
BLACK
6
CONTINUOUS
10
5.3710795669291338
20
-3.7676212204724409
11
5.3727864566929133
21
-3.7701757086614172
0
LINE
8
BLACK
6
CONTINUOUS
10
5.3727864566929133
20
-3.7701757086614172
11
5.3733858267716537
21
-3.7731889763779525
0
LINE
8
BLACK
6
CONTINUOUS
10
5.3733858267716537
20
-3.7731889763779525
11
5.3733858267716537
21
-3.7968110236220474
0
LINE
8
BLACK
6
CONTINUOUS
10
5.3733858267716537
20
-3.7968110236220474
11
5.3727864566929133
21
-3.7998242913385827
0
LINE
8
BLACK
6
CONTINUOUS
10
5.3727864566929133
20
-3.7998242913385827
11
5.3710795669291338
21
-3.802378779527559
0
LINE
8
BLACK
6
CONTINUOUS
10
5.3710795669291338
20
-3.802378779527559
11
5.3685250787401575
21
-3.8040856692913385
0
LINE
8
BLACK
6
CONTINUOUS
10
5.3685250787401575
20
-3.8040856692913385
11
5.3655118110236222
21
-3.8046850393700788
0
LINE
8
BLACK
6
CONTINUOUS
10
5.3655118110236222
20
-3.8046850393700788
11
5.2808661417322833
21
-3.8046850393700788
0
LINE
8
BLACK
6
CONTINUOUS
10
5.2808661417322833
20
-3.8046850393700788
11
5.277852874015748
21
-3.8040856692913385
0
LINE
8
BLACK
6
CONTINUOUS
10
5.277852874015748
20
-3.8040856692913385
11
5.2752983858267717
21
-3.802378779527559
0
LINE
8
BLACK
6
CONTINUOUS
10
5.2752983858267717
20
-3.802378779527559
11
5.2735914960629922
21
-3.7998242913385827
0
LINE
8
BLACK
6
CONTINUOUS
10
5.2735914960629922
20
-3.7998242913385827
11
5.2729921259842518
21
-3.7968110236220474
0
LINE
8
BLACK
6
CONTINUOUS
10
5.2729921259842518
20
-3.7968110236220474
11
5.2729921259842518
21
-3.7731889763779525
0
LINE
8
BLACK
6
CONTINUOUS
10
5.2729921259842518
20
-3.7731889763779525
11
5.2735914960629922
21
-3.7701757086614172
0
LINE
8
BLACK
6
CONTINUOUS
10
5.2735914960629922
20
-3.7701757086614172
11
5.2752983858267717
21
-3.7676212204724409
0
LINE
8
BLACK
6
CONTINUOUS
10
5.2752983858267717
20
-3.7676212204724409
11
5.277852874015748
21
-3.7659143307086613
0
LINE
8
BLACK
6
CONTINUOUS
10
5.277852874015748
20
-3.7659143307086613
11
5.2808661417322833
21
-3.765314960629921
0
LINE
8
BLACK
6
CONTINUOUS
10
5.2808661417322833
20
-3.765314960629921
11
5.3655118110236222
21
-3.765314960629921
0
LINE
8
BLACK
6
CONTINUOUS
10
5.3655118110236222
20
-3.765314960629921
11
5.3685250787401575
21
-3.7659143307086613
0
LINE
8
BLACK
6
CONTINUOUS
10
5.0076195669291339
20
-3.7424103937007871
11
5.0101740551181102
21
-3.7441172834645666
0
LINE
8
BLACK
6
CONTINUOUS
10
5.0101740551181102
20
-3.7441172834645666
11
5.0118809448818897
21
-3.7466717716535434
0
LINE
8
BLACK
6
CONTINUOUS
10
5.0118809448818897
20
-3.7466717716535434
11
5.0124803149606301
21
-3.7496850393700787
0
LINE
8
BLACK
6
CONTINUOUS
10
5.0124803149606301
20
-3.7496850393700787
11
5.0124803149606301
21
-3.7890551181102361
0
LINE
8
BLACK
6
CONTINUOUS
10
5.0124803149606301
20
-3.7890551181102361
11
5.0118809448818897
21
-3.7920683858267714
0
LINE
8
BLACK
6
CONTINUOUS
10
5.0118809448818897
20
-3.7920683858267714
11
5.0101740551181102
21
-3.7946228740157482
0
LINE
8
BLACK
6
CONTINUOUS
10
5.0101740551181102
20
-3.7946228740157482
11
5.0076195669291339
21
-3.7963297637795277
0
LINE
8
BLACK
6
CONTINUOUS
10
5.0076195669291339
20
-3.7963297637795277
11
5.0046062992125986
21
-3.7969291338582676
0
LINE
8
BLACK
6
CONTINUOUS
10
5.0046062992125986
20
-3.7969291338582676
11
4.9553937007874014
21
-3.7969291338582676
0
LINE
8
BLACK
6
CONTINUOUS
10
4.9553937007874014
20
-3.7969291338582676
11
4.9523804330708661
21
-3.7963297637795277
0
LINE
8
BLACK
6
CONTINUOUS
10
4.9523804330708661
20
-3.7963297637795277
11
4.9498259448818898
21
-3.7946228740157482
0
LINE
8
BLACK
6
CONTINUOUS
10
4.9498259448818898
20
-3.7946228740157482
11
4.9481190551181102
21
-3.7920683858267714
0
LINE
8
BLACK
6
CONTINUOUS
10
4.9481190551181102
20
-3.7920683858267714
11
4.9475196850393699
21
-3.7890551181102361
0
LINE
8
BLACK
6
CONTINUOUS
10
4.9475196850393699
20
-3.7890551181102361
11
4.9475196850393699
21
-3.7496850393700787
0
LINE
8
BLACK
6
CONTINUOUS
10
4.9475196850393699
20
-3.7496850393700787
11
4.9481190551181102
21
-3.7466717716535434
0
LINE
8
BLACK
6
CONTINUOUS
10
4.9481190551181102
20
-3.7466717716535434
11
4.9498259448818898
21
-3.7441172834645666
0
LINE
8
BLACK
6
CONTINUOUS
10
4.9498259448818898
20
-3.7441172834645666
11
4.9523804330708661
21
-3.7424103937007871
0
LINE
8
BLACK
6
CONTINUOUS
10
4.9523804330708661
20
-3.7424103937007871
11
4.9553937007874014
21
-3.7418110236220472
0
LINE
8
BLACK
6
CONTINUOUS
10
4.9553937007874014
20
-3.7418110236220472
11
5.0046062992125986
21
-3.7418110236220472
0
LINE
8
BLACK
6
CONTINUOUS
10
5.0046062992125986
20
-3.7418110236220472
11
5.0076195669291339
21
-3.7424103937007871
0
LINE
8
BLACK
6
CONTINUOUS
10
4.849391220472441
20
-3.7271348031496063
11
4.8519457086614173
21
-3.7288416929133859
0
LINE
8
BLACK
6
CONTINUOUS
10
4.8519457086614173
20
-3.7288416929133859
11
4.8536525984251968
21
-3.7313961811023622
0
LINE
8
BLACK
6
CONTINUOUS
10
4.8536525984251968
20
-3.7313961811023622
11
4.8542519685039371
21
-3.7344094488188975
0
LINE
8
BLACK
6
CONTINUOUS
10
4.8542519685039371
20
-3.7344094488188975
11
4.8542519685039371
21
-3.7855905511811021
0
LINE
8
BLACK
6
CONTINUOUS
10
4.8542519685039371
20
-3.7855905511811021
11
4.8536525984251968
21
-3.7886038188976379
0
LINE
8
BLACK
6
CONTINUOUS
10
4.8536525984251968
20
-3.7886038188976379
11
4.8519457086614173
21
-3.7911583070866142
0
LINE
8
BLACK
6
CONTINUOUS
10
4.8519457086614173
20
-3.7911583070866142
11
4.849391220472441
21
-3.7928651968503937
0
LINE
8
BLACK
6
CONTINUOUS
10
4.849391220472441
20
-3.7928651968503937
11
4.8463779527559057
21
-3.7934645669291336
0
LINE
8
BLACK
6
CONTINUOUS
10
4.8463779527559057
20
-3.7934645669291336
11
4.8188188976377955
21
-3.7934645669291336
0
LINE
8
BLACK
6
CONTINUOUS
10
4.8188188976377955
20
-3.7934645669291336
11
4.8158056299212602
21
-3.7928651968503937
0
LINE
8
BLACK
6
CONTINUOUS
10
4.8158056299212602
20
-3.7928651968503937
11
4.813251141732283
21
-3.7911583070866142
0
LINE
8
BLACK
6
CONTINUOUS
10
4.813251141732283
20
-3.7911583070866142
11
4.8115442519685034
21
-3.7886038188976379
0
LINE
8
BLACK
6
CONTINUOUS
10
4.8115442519685034
20
-3.7886038188976379
11
4.810944881889764
21
-3.7855905511811021
0
LINE
8
BLACK
6
CONTINUOUS
10
4.810944881889764
20
-3.7855905511811021
11
4.810944881889764
21
-3.7344094488188975
0
LINE
8
BLACK
6
CONTINUOUS
10
4.810944881889764
20
-3.7344094488188975
11
4.8115442519685034
21
-3.7313961811023622
0
LINE
8
BLACK
6
CONTINUOUS
10
4.8115442519685034
20
-3.7313961811023622
11
4.813251141732283
21
-3.7288416929133859
0
LINE
8
BLACK
6
CONTINUOUS
10
4.813251141732283
20
-3.7288416929133859
11
4.8158056299212602
21
-3.7271348031496063
0
LINE
8
BLACK
6
CONTINUOUS
10
4.8158056299212602
20
-3.7271348031496063
11
4.8188188976377955
21
-3.726535433070866
0
LINE
8
BLACK
6
CONTINUOUS
10
4.8188188976377955
20
-3.726535433070866
11
4.8463779527559057
21
-3.726535433070866
0
LINE
8
BLACK
6
CONTINUOUS
10
4.8463779527559057
20
-3.726535433070866
11
4.849391220472441
21
-3.7271348031496063
0
LINE
8
BLACK
6
CONTINUOUS
10
4.9241943700787401
20
-3.7271348031496063
11
4.9267488582677164
21
-3.7288416929133859
0
LINE
8
BLACK
6
CONTINUOUS
10
4.9267488582677164
20
-3.7288416929133859
11
4.9284557480314959
21
-3.7313961811023622
0
LINE
8
BLACK
6
CONTINUOUS
10
4.9284557480314959
20
-3.7313961811023622
11
4.9290551181102362
21
-3.7344094488188975
0
LINE
8
BLACK
6
CONTINUOUS
10
4.9290551181102362
20
-3.7344094488188975
11
4.9290551181102362
21
-3.7855905511811021
0
LINE
8
BLACK
6
CONTINUOUS
10
4.9290551181102362
20
-3.7855905511811021
11
4.9284557480314959
21
-3.7886038188976379
0
LINE
8
BLACK
6
CONTINUOUS
10
4.9284557480314959
20
-3.7886038188976379
11
4.9267488582677164
21
-3.7911583070866142
0
LINE
8
BLACK
6
CONTINUOUS
10
4.9267488582677164
20
-3.7911583070866142
11
4.9241943700787401
21
-3.7928651968503937
0
LINE
8
BLACK
6
CONTINUOUS
10
4.9241943700787401
20
-3.7928651968503937
11
4.9211811023622047
21
-3.7934645669291336
0
LINE
8
BLACK
6
CONTINUOUS
10
4.9211811023622047
20
-3.7934645669291336
11
4.8936220472440946
21
-3.7934645669291336
0
LINE
8
BLACK
6
CONTINUOUS
10
4.8936220472440946
20
-3.7934645669291336
11
4.8906087795275592
21
-3.7928651968503937
0
LINE
8
BLACK
6
CONTINUOUS
10
4.8906087795275592
20
-3.7928651968503937
11
4.8880542913385829
21
-3.7911583070866142
0
LINE
8
BLACK
6
CONTINUOUS
10
4.8880542913385829
20
-3.7911583070866142
11
4.8863474015748034
21
-3.7886038188976379
0
LINE
8
BLACK
6
CONTINUOUS
10
4.8863474015748034
20
-3.7886038188976379
11
4.8857480314960631
21
-3.7855905511811021
0
LINE
8
BLACK
6
CONTINUOUS
10
4.8857480314960631
20
-3.7855905511811021
11
4.8857480314960631
21
-3.7344094488188975
0
LINE
8
BLACK
6
CONTINUOUS
10
4.8857480314960631
20
-3.7344094488188975
11
4.8863474015748034
21
-3.7313961811023622
0
LINE
8
BLACK
6
CONTINUOUS
10
4.8863474015748034
20
-3.7313961811023622
11
4.8880542913385829
21
-3.7288416929133859
0
LINE
8
BLACK
6
CONTINUOUS
10
4.8880542913385829
20
-3.7288416929133859
11
4.8906087795275592
21
-3.7271348031496063
0
LINE
8
BLACK
6
CONTINUOUS
10
4.8906087795275592
20
-3.7271348031496063
11
4.8936220472440946
21
-3.726535433070866
0
LINE
8
BLACK
6
CONTINUOUS
10
4.8936220472440946
20
-3.726535433070866
11
4.9211811023622047
21
-3.726535433070866
0
LINE
8
BLACK
6
CONTINUOUS
10
4.9211811023622047
20
-3.726535433070866
11
4.9241943700787401
21
-3.7271348031496063
0
LINE
8
BLACK
6
CONTINUOUS
10
4.7093912204724404
20
-3.7221348031496064
11
4.7119457086614176
21
-3.723841692913386
0
LINE
8
BLACK
6
CONTINUOUS
10
4.7119457086614176
20
-3.723841692913386
11
4.7136525984251971
21
-3.7263961811023623
0
LINE
8
BLACK
6
CONTINUOUS
10
4.7136525984251971
20
-3.7263961811023623
11
4.7142519685039366
21
-3.7294094488188976
0
LINE
8
BLACK
6
CONTINUOUS
10
4.7142519685039366
20
-3.7294094488188976
11
4.7142519685039366
21
-3.7805905511811022
0
LINE
8
BLACK
6
CONTINUOUS
10
4.7142519685039366
20
-3.7805905511811022
11
4.7136525984251971
21
-3.7836038188976375
0
LINE
8
BLACK
6
CONTINUOUS
10
4.7136525984251971
20
-3.7836038188976375
11
4.7119457086614176
21
-3.7861583070866143
0
LINE
8
BLACK
6
CONTINUOUS
10
4.7119457086614176
20
-3.7861583070866143
11
4.7093912204724404
21
-3.7878651968503938
0
LINE
8
BLACK
6
CONTINUOUS
10
4.7093912204724404
20
-3.7878651968503938
11
4.7063779527559051
21
-3.7884645669291337
0
LINE
8
BLACK
6
CONTINUOUS
10
4.7063779527559051
20
-3.7884645669291337
11
4.6788188976377949
21
-3.7884645669291337
0
LINE
8
BLACK
6
CONTINUOUS
10
4.6788188976377949
20
-3.7884645669291337
11
4.6758056299212596
21
-3.7878651968503938
0
LINE
8
BLACK
6
CONTINUOUS
10
4.6758056299212596
20
-3.7878651968503938
11
4.6732511417322833
21
-3.7861583070866143
0
LINE
8
BLACK
6
CONTINUOUS
10
4.6732511417322833
20
-3.7861583070866143
11
4.6715442519685038
21
-3.7836038188976375
0
LINE
8
BLACK
6
CONTINUOUS
10
4.6715442519685038
20
-3.7836038188976375
11
4.6709448818897634
21
-3.7805905511811022
0
LINE
8
BLACK
6
CONTINUOUS
10
4.6709448818897634
20
-3.7805905511811022
11
4.6709448818897634
21
-3.7294094488188976
0
LINE
8
BLACK
6
CONTINUOUS
10
4.6709448818897634
20
-3.7294094488188976
11
4.6715442519685038
21
-3.7263961811023623
0
LINE
8
BLACK
6
CONTINUOUS
10
4.6715442519685038
20
-3.7263961811023623
11
4.6732511417322833
21
-3.723841692913386
0
LINE
8
BLACK
6
CONTINUOUS
10
4.6732511417322833
20
-3.723841692913386
11
4.6758056299212596
21
-3.7221348031496064
0
LINE
8
BLACK
6
CONTINUOUS
10
4.6758056299212596
20
-3.7221348031496064
11
4.6788188976377949
21
-3.7215354330708661
0
LINE
8
BLACK
6
CONTINUOUS
10
4.6788188976377949
20
-3.7215354330708661
11
4.7063779527559051
21
-3.7215354330708661
0
LINE
8
BLACK
6
CONTINUOUS
10
4.7063779527559051
20
-3.7215354330708661
11
4.7093912204724404
21
-3.7221348031496064
0
LINE
8
BLACK
6
CONTINUOUS
10
4.7841943700787404
20
-3.7221348031496064
11
4.7867488582677167
21
-3.723841692913386
0
LINE
8
BLACK
6
CONTINUOUS
10
4.7867488582677167
20
-3.723841692913386
11
4.7884557480314962
21
-3.7263961811023623
0
LINE
8
BLACK
6
CONTINUOUS
10
4.7884557480314962
20
-3.7263961811023623
11
4.7890551181102365
21
-3.7294094488188976
0
LINE
8
BLACK
6
CONTINUOUS
10
4.7890551181102365
20
-3.7294094488188976
11
4.7890551181102365
21
-3.7805905511811022
0
LINE
8
BLACK
6
CONTINUOUS
10
4.7890551181102365
20
-3.7805905511811022
11
4.7884557480314962
21
-3.7836038188976375
0
LINE
8
BLACK
6
CONTINUOUS
10
4.7884557480314962
20
-3.7836038188976375
11
4.7867488582677167
21
-3.7861583070866143
0
LINE
8
BLACK
6
CONTINUOUS
10
4.7867488582677167
20
-3.7861583070866143
11
4.7841943700787404
21
-3.7878651968503938
0
LINE
8
BLACK
6
CONTINUOUS
10
4.7841943700787404
20
-3.7878651968503938
11
4.7811811023622042
21
-3.7884645669291337
0
LINE
8
BLACK
6
CONTINUOUS
10
4.7811811023622042
20
-3.7884645669291337
11
4.753622047244094
21
-3.7884645669291337
0
LINE
8
BLACK
6
CONTINUOUS
10
4.753622047244094
20
-3.7884645669291337
11
4.7506087795275587
21
-3.7878651968503938
0
LINE
8
BLACK
6
CONTINUOUS
10
4.7506087795275587
20
-3.7878651968503938
11
4.7480542913385824
21
-3.7861583070866143
0
LINE
8
BLACK
6
CONTINUOUS
10
4.7480542913385824
20
-3.7861583070866143
11
4.7463474015748028
21
-3.7836038188976375
0
LINE
8
BLACK
6
CONTINUOUS
10
4.7463474015748028
20
-3.7836038188976375
11
4.7457480314960625
21
-3.7805905511811022
0
LINE
8
BLACK
6
CONTINUOUS
10
4.7457480314960625
20
-3.7805905511811022
11
4.7457480314960625
21
-3.7294094488188976
0
LINE
8
BLACK
6
CONTINUOUS
10
4.7457480314960625
20
-3.7294094488188976
11
4.7463474015748028
21
-3.7263961811023623
0
LINE
8
BLACK
6
CONTINUOUS
10
4.7463474015748028
20
-3.7263961811023623
11
4.7480542913385824
21
-3.723841692913386
0
LINE
8
BLACK
6
CONTINUOUS
10
4.7480542913385824
20
-3.723841692913386
11
4.7506087795275587
21
-3.7221348031496064
0
LINE
8
BLACK
6
CONTINUOUS
10
4.7506087795275587
20
-3.7221348031496064
11
4.753622047244094
21
-3.7215354330708661
0
LINE
8
BLACK
6
CONTINUOUS
10
4.753622047244094
20
-3.7215354330708661
11
4.7811811023622042
21
-3.7215354330708661
0
LINE
8
BLACK
6
CONTINUOUS
10
4.7811811023622042
20
-3.7215354330708661
11
4.7841943700787404
21
-3.7221348031496064
0
LINE
8
BLACK
6
CONTINUOUS
10
5.2100499999999998
20
-3.6326000393700788
11
5.2100700787401575
21
-3.6325960629921261
0
LINE
8
BLACK
6
CONTINUOUS
10
5.2100700787401575
20
-3.6325960629921261
11
5.2563299212598427
21
-3.6325960629921261
0
LINE
8
BLACK
6
CONTINUOUS
10
5.2563299212598427
20
-3.6325960629921261
11
5.259343188976378
21
-3.633195433070866
0
LINE
8
BLACK
6
CONTINUOUS
10
5.259343188976378
20
-3.633195433070866
11
5.2618976771653543
21
-3.6349023228346455
0
LINE
8
BLACK
6
CONTINUOUS
10
5.2618976771653543
20
-3.6349023228346455
11
5.2636045669291338
21
-3.6374568110236218
0
LINE
8
BLACK
6
CONTINUOUS
10
5.2636045669291338
20
-3.6374568110236218
11
5.2642039370078741
21
-3.6404700787401576
0
LINE
8
BLACK
6
CONTINUOUS
10
5.2642039370078741
20
-3.6404700787401576
11
5.2642039370078741
21
-3.6867299212598423
0
LINE
8
BLACK
6
CONTINUOUS
10
5.2642039370078741
20
-3.6867299212598423
11
5.2641338582677166
21
-3.6870822047244092
0
LINE
8
BLACK
6
CONTINUOUS
10
5.2641338582677166
20
-3.6870822047244092
11
5.2641338582677166
21
-3.7330000000000001
0
LINE
8
BLACK
6
CONTINUOUS
10
5.2641338582677166
20
-3.7330000000000001
11
5.2641338582677166
21
-3.7792598425196848
0
LINE
8
BLACK
6
CONTINUOUS
10
5.2641338582677166
20
-3.7792598425196848
11
5.2635344881889763
21
-3.7822731102362206
0
LINE
8
BLACK
6
CONTINUOUS
10
5.2635344881889763
20
-3.7822731102362206
11
5.2618275984251968
21
-3.7848275984251969
0
LINE
8
BLACK
6
CONTINUOUS
10
5.2618275984251968
20
-3.7848275984251969
11
5.2592731102362205
21
-3.7865344881889764
0
LINE
8
BLACK
6
CONTINUOUS
10
5.2592731102362205
20
-3.7865344881889764
11
5.2562598425196851
21
-3.7871338582677163
0
LINE
8
BLACK
6
CONTINUOUS
10
5.2562598425196851
20
-3.7871338582677163
11
5.21
21
-3.7871338582677163
0
LINE
8
BLACK
6
CONTINUOUS
10
5.21
20
-3.7871338582677163
11
5.1637401574803148
21
-3.7871338582677163
0
LINE
8
BLACK
6
CONTINUOUS
10
5.1637401574803148
20
-3.7871338582677163
11
5.1607268897637795
21
-3.7865344881889764
0
LINE
8
BLACK
6
CONTINUOUS
10
5.1607268897637795
20
-3.7865344881889764
11
5.1581724015748032
21
-3.7848275984251969
0
LINE
8
BLACK
6
CONTINUOUS
10
5.1581724015748032
20
-3.7848275984251969
11
5.1564655118110236
21
-3.7822731102362206
0
LINE
8
BLACK
6
CONTINUOUS
10
5.1564655118110236
20
-3.7822731102362206
11
5.1558661417322833
21
-3.7792598425196848
0
LINE
8
BLACK
6
CONTINUOUS
10
5.1558661417322833
20
-3.7792598425196848
11
5.1558661417322833
21
-3.7330000000000001
0
LINE
8
BLACK
6
CONTINUOUS
10
5.1558661417322833
20
-3.7330000000000001
11
5.1558661417322833
21
-3.6867401574803149
0
LINE
8
BLACK
6
CONTINUOUS
10
5.1558661417322833
20
-3.6867401574803149
11
5.1558960629921256
21
-3.6865897244094485
0
LINE
8
BLACK
6
CONTINUOUS
10
5.1558960629921256
20
-3.6865897244094485
11
5.1558960629921256
21
-3.6404700787401576
0
LINE
8
BLACK
6
CONTINUOUS
10
5.1558960629921256
20
-3.6404700787401576
11
5.1564954330708659
21
-3.6374568110236218
0
LINE
8
BLACK
6
CONTINUOUS
10
5.1564954330708659
20
-3.6374568110236218
11
5.1582023228346454
21
-3.6349023228346455
0
LINE
8
BLACK
6
CONTINUOUS
10
5.1582023228346454
20
-3.6349023228346455
11
5.1607568110236217
21
-3.633195433070866
0
LINE
8
BLACK
6
CONTINUOUS
10
5.1607568110236217
20
-3.633195433070866
11
5.163770078740157
21
-3.6325960629921261
0
LINE
8
BLACK
6
CONTINUOUS
10
5.163770078740157
20
-3.6325960629921261
11
5.2100299212598422
21
-3.6325960629921261
0
LINE
8
BLACK
6
CONTINUOUS
10
5.2100299212598422
20
-3.6325960629921261
11
5.2100499999999998
21
-3.6326000393700788
0
LINE
8
BLACK
6
CONTINUOUS
10
5.8480132677165351
20
-3.6177253543307084
11
5.8505677559055114
21
-3.6194322440944879
0
LINE
8
BLACK
6
CONTINUOUS
10
5.8505677559055114
20
-3.6194322440944879
11
5.8522746456692909
21
-3.6219867322834647
0
LINE
8
BLACK
6
CONTINUOUS
10
5.8522746456692909
20
-3.6219867322834647
11
5.8528740157480312
21
-3.625
0
LINE
8
BLACK
6
CONTINUOUS
10
5.8528740157480312
20
-3.625
11
5.8528740157480312
21
-3.7749999999999999
0
LINE
8
BLACK
6
CONTINUOUS
10
5.8528740157480312
20
-3.7749999999999999
11
5.8522746456692909
21
-3.7780132677165352
0
LINE
8
BLACK
6
CONTINUOUS
10
5.8522746456692909
20
-3.7780132677165352
11
5.8505677559055114
21
-3.7805677559055115
0
LINE
8
BLACK
6
CONTINUOUS
10
5.8505677559055114
20
-3.7805677559055115
11
5.8480132677165351
21
-3.7822746456692911
0
LINE
8
BLACK
6
CONTINUOUS
10
5.8480132677165351
20
-3.7822746456692911
11
5.8449999999999998
21
-3.7828740157480314
0
LINE
8
BLACK
6
CONTINUOUS
10
5.8449999999999998
20
-3.7828740157480314
11
5.6950000000000003
21
-3.7828740157480314
0
LINE
8
BLACK
6
CONTINUOUS
10
5.6950000000000003
20
-3.7828740157480314
11
5.6919867322834641
21
-3.7822746456692911
0
LINE
8
BLACK
6
CONTINUOUS
10
5.6919867322834641
20
-3.7822746456692911
11
5.6894322440944878
21
-3.7805677559055115
0
LINE
8
BLACK
6
CONTINUOUS
10
5.6894322440944878
20
-3.7805677559055115
11
5.6877253543307082
21
-3.7780132677165352
0
LINE
8
BLACK
6
CONTINUOUS
10
5.6877253543307082
20
-3.7780132677165352
11
5.6871259842519688
21
-3.7749999999999999
0
LINE
8
BLACK
6
CONTINUOUS
10
5.6871259842519688
20
-3.7749999999999999
11
5.6871259842519688
21
-3.625
0
LINE
8
BLACK
6
CONTINUOUS
10
5.6871259842519688
20
-3.625
11
5.6877253543307082
21
-3.6219867322834647
0
LINE
8
BLACK
6
CONTINUOUS
10
5.6877253543307082
20
-3.6219867322834647
11
5.6894322440944878
21
-3.6194322440944879
0
LINE
8
BLACK
6
CONTINUOUS
10
5.6894322440944878
20
-3.6194322440944879
11
5.6919867322834641
21
-3.6177253543307084
0
LINE
8
BLACK
6
CONTINUOUS
10
5.6919867322834641
20
-3.6177253543307084
11
5.6950000000000003
21
-3.6171259842519685
0
LINE
8
BLACK
6
CONTINUOUS
10
5.6950000000000003
20
-3.6171259842519685
11
5.8449999999999998
21
-3.6171259842519685
0
LINE
8
BLACK
6
CONTINUOUS
10
5.8449999999999998
20
-3.6171259842519685
11
5.8480132677165351
21
-3.6177253543307084
0
LINE
8
BLACK
6
CONTINUOUS
10
6.044863661417323
20
-3.6177253543307084
11
6.0474181496062993
21
-3.6194322440944879
0
LINE
8
BLACK
6
CONTINUOUS
10
6.0474181496062993
20
-3.6194322440944879
11
6.0491250393700788
21
-3.6219867322834647
0
LINE
8
BLACK
6
CONTINUOUS
10
6.0491250393700788
20
-3.6219867322834647
11
6.0497244094488192
21
-3.625
0
LINE
8
BLACK
6
CONTINUOUS
10
6.0497244094488192
20
-3.625
11
6.0497244094488192
21
-3.7749999999999999
0
LINE
8
BLACK
6
CONTINUOUS
10
6.0497244094488192
20
-3.7749999999999999
11
6.0491250393700788
21
-3.7780132677165352
0
LINE
8
BLACK
6
CONTINUOUS
10
6.0491250393700788
20
-3.7780132677165352
11
6.0474181496062993
21
-3.7805677559055115
0
LINE
8
BLACK
6
CONTINUOUS
10
6.0474181496062993
20
-3.7805677559055115
11
6.044863661417323
21
-3.7822746456692911
0
LINE
8
BLACK
6
CONTINUOUS
10
6.044863661417323
20
-3.7822746456692911
11
6.0418503937007877
21
-3.7828740157480314
0
LINE
8
BLACK
6
CONTINUOUS
10
6.0418503937007877
20
-3.7828740157480314
11
5.8918503937007873
21
-3.7828740157480314
0
LINE
8
BLACK
6
CONTINUOUS
10
5.8918503937007873
20
-3.7828740157480314
11
5.888837125984252
21
-3.7822746456692911
0
LINE
8
BLACK
6
CONTINUOUS
10
5.888837125984252
20
-3.7822746456692911
11
5.8862826377952757
21
-3.7805677559055115
0
LINE
8
BLACK
6
CONTINUOUS
10
5.8862826377952757
20
-3.7805677559055115
11
5.8845757480314962
21
-3.7780132677165352
0
LINE
8
BLACK
6
CONTINUOUS
10
5.8845757480314962
20
-3.7780132677165352
11
5.8839763779527559
21
-3.7749999999999999
0
LINE
8
BLACK
6
CONTINUOUS
10
5.8839763779527559
20
-3.7749999999999999
11
5.8839763779527559
21
-3.625
0
LINE
8
BLACK
6
CONTINUOUS
10
5.8839763779527559
20
-3.625
11
5.8845757480314962
21
-3.6219867322834647
0
LINE
8
BLACK
6
CONTINUOUS
10
5.8845757480314962
20
-3.6219867322834647
11
5.8862826377952757
21
-3.6194322440944879
0
LINE
8
BLACK
6
CONTINUOUS
10
5.8862826377952757
20
-3.6194322440944879
11
5.888837125984252
21
-3.6177253543307084
0
LINE
8
BLACK
6
CONTINUOUS
10
5.888837125984252
20
-3.6177253543307084
11
5.8918503937007873
21
-3.6171259842519685
0
LINE
8
BLACK
6
CONTINUOUS
10
5.8918503937007873
20
-3.6171259842519685
11
6.0418503937007877
21
-3.6171259842519685
0
LINE
8
BLACK
6
CONTINUOUS
10
6.0418503937007877
20
-3.6171259842519685
11
6.044863661417323
21
-3.6177253543307084
0
LINE
8
BLACK
6
CONTINUOUS
10
5.1421471259842519
20
-3.7159143307086615
11
5.1447016141732282
21
-3.717621220472441
0
LINE
8
BLACK
6
CONTINUOUS
10
5.1447016141732282
20
-3.717621220472441
11
5.1464085039370078
21
-3.7201757086614173
0
LINE
8
BLACK
6
CONTINUOUS
10
5.1464085039370078
20
-3.7201757086614173
11
5.1470078740157481
21
-3.7231889763779527
0
LINE
8
BLACK
6
CONTINUOUS
10
5.1470078740157481
20
-3.7231889763779527
11
5.1470078740157481
21
-3.7468110236220471
0
LINE
8
BLACK
6
CONTINUOUS
10
5.1470078740157481
20
-3.7468110236220471
11
5.1464085039370078
21
-3.7498242913385824
0
LINE
8
BLACK
6
CONTINUOUS
10
5.1464085039370078
20
-3.7498242913385824
11
5.1447016141732282
21
-3.7523787795275592
0
LINE
8
BLACK
6
CONTINUOUS
10
5.1447016141732282
20
-3.7523787795275592
11
5.1421471259842519
21
-3.7540856692913387
0
LINE
8
BLACK
6
CONTINUOUS
10
5.1421471259842519
20
-3.7540856692913387
11
5.1391338582677166
21
-3.7546850393700786
0
LINE
8
BLACK
6
CONTINUOUS
10
5.1391338582677166
20
-3.7546850393700786
11
5.0544881889763777
21
-3.7546850393700786
0
LINE
8
BLACK
6
CONTINUOUS
10
5.0544881889763777
20
-3.7546850393700786
11
5.0514749212598424
21
-3.7540856692913387
0
LINE
8
BLACK
6
CONTINUOUS
10
5.0514749212598424
20
-3.7540856692913387
11
5.0489204330708661
21
-3.7523787795275592
0
LINE
8
BLACK
6
CONTINUOUS
10
5.0489204330708661
20
-3.7523787795275592
11
5.0472135433070866
21
-3.7498242913385824
0
LINE
8
BLACK
6
CONTINUOUS
10
5.0472135433070866
20
-3.7498242913385824
11
5.0466141732283463
21
-3.7468110236220471
0
LINE
8
BLACK
6
CONTINUOUS
10
5.0466141732283463
20
-3.7468110236220471
11
5.0466141732283463
21
-3.7231889763779527
0
LINE
8
BLACK
6
CONTINUOUS
10
5.0466141732283463
20
-3.7231889763779527
11
5.0472135433070866
21
-3.7201757086614173
0
LINE
8
BLACK
6
CONTINUOUS
10
5.0472135433070866
20
-3.7201757086614173
11
5.0489204330708661
21
-3.717621220472441
0
LINE
8
BLACK
6
CONTINUOUS
10
5.0489204330708661
20
-3.717621220472441
11
5.0514749212598424
21
-3.7159143307086615
0
LINE
8
BLACK
6
CONTINUOUS
10
5.0514749212598424
20
-3.7159143307086615
11
5.0544881889763777
21
-3.7153149606299212
0
LINE
8
BLACK
6
CONTINUOUS
10
5.0544881889763777
20
-3.7153149606299212
11
5.1391338582677166
21
-3.7153149606299212
0
LINE
8
BLACK
6
CONTINUOUS
10
5.1391338582677166
20
-3.7153149606299212
11
5.1421471259842519
21
-3.7159143307086615
0
LINE
8
BLACK
6
CONTINUOUS
10
5.3685250787401575
20
-3.7159143307086615
11
5.3710795669291338
21
-3.717621220472441
0
LINE
8
BLACK
6
CONTINUOUS
10
5.3710795669291338
20
-3.717621220472441
11
5.3727864566929133
21
-3.7201757086614173
0
LINE
8
BLACK
6
CONTINUOUS
10
5.3727864566929133
20
-3.7201757086614173
11
5.3733858267716537
21
-3.7231889763779527
0
LINE
8
BLACK
6
CONTINUOUS
10
5.3733858267716537
20
-3.7231889763779527
11
5.3733858267716537
21
-3.7468110236220471
0
LINE
8
BLACK
6
CONTINUOUS
10
5.3733858267716537
20
-3.7468110236220471
11
5.3727864566929133
21
-3.7498242913385824
0
LINE
8
BLACK
6
CONTINUOUS
10
5.3727864566929133
20
-3.7498242913385824
11
5.3710795669291338
21
-3.7523787795275592
0
LINE
8
BLACK
6
CONTINUOUS
10
5.3710795669291338
20
-3.7523787795275592
11
5.3685250787401575
21
-3.7540856692913387
0
LINE
8
BLACK
6
CONTINUOUS
10
5.3685250787401575
20
-3.7540856692913387
11
5.3655118110236222
21
-3.7546850393700786
0
LINE
8
BLACK
6
CONTINUOUS
10
5.3655118110236222
20
-3.7546850393700786
11
5.2808661417322833
21
-3.7546850393700786
0
LINE
8
BLACK
6
CONTINUOUS
10
5.2808661417322833
20
-3.7546850393700786
11
5.277852874015748
21
-3.7540856692913387
0
LINE
8
BLACK
6
CONTINUOUS
10
5.277852874015748
20
-3.7540856692913387
11
5.2752983858267717
21
-3.7523787795275592
0
LINE
8
BLACK
6
CONTINUOUS
10
5.2752983858267717
20
-3.7523787795275592
11
5.2735914960629922
21
-3.7498242913385824
0
LINE
8
BLACK
6
CONTINUOUS
10
5.2735914960629922
20
-3.7498242913385824
11
5.2729921259842518
21
-3.7468110236220471
0
LINE
8
BLACK
6
CONTINUOUS
10
5.2729921259842518
20
-3.7468110236220471
11
5.2729921259842518
21
-3.7231889763779527
0
LINE
8
BLACK
6
CONTINUOUS
10
5.2729921259842518
20
-3.7231889763779527
11
5.2735914960629922
21
-3.7201757086614173
0
LINE
8
BLACK
6
CONTINUOUS
10
5.2735914960629922
20
-3.7201757086614173
11
5.2752983858267717
21
-3.717621220472441
0
LINE
8
BLACK
6
CONTINUOUS
10
5.2752983858267717
20
-3.717621220472441
11
5.277852874015748
21
-3.7159143307086615
0
LINE
8
BLACK
6
CONTINUOUS
10
5.277852874015748
20
-3.7159143307086615
11
5.2808661417322833
21
-3.7153149606299212
0
LINE
8
BLACK
6
CONTINUOUS
10
5.2808661417322833
20
-3.7153149606299212
11
5.3655118110236222
21
-3.7153149606299212
0
LINE
8
BLACK
6
CONTINUOUS
10
5.3655118110236222
20
-3.7153149606299212
11
5.3685250787401575
21
-3.7159143307086615
0
LINE
8
BLACK
6
CONTINUOUS
10
5.530847913385827
20
-3.6189064566929132
11
5.5334024015748033
21
-3.6206133464566927
0
LINE
8
BLACK
6
CONTINUOUS
10
5.5334024015748033
20
-3.6206133464566927
11
5.5351092913385829
21
-3.623167834645669
0
LINE
8
BLACK
6
CONTINUOUS
10
5.5351092913385829
20
-3.623167834645669
11
5.5357086614173223
21
-3.6261811023622048
0
LINE
8
BLACK
6
CONTINUOUS
10
5.5357086614173223
20
-3.6261811023622048
11
5.5357086614173223
21
-3.7194881889763778
0
LINE
8
BLACK
6
CONTINUOUS
10
5.5357086614173223
20
-3.7194881889763778
11
5.5351092913385829
21
-3.7225014566929131
0
LINE
8
BLACK
6
CONTINUOUS
10
5.5351092913385829
20
-3.7225014566929131
11
5.5334024015748033
21
-3.7250559448818898
0
LINE
8
BLACK
6
CONTINUOUS
10
5.5334024015748033
20
-3.7250559448818898
11
5.530847913385827
21
-3.7267628346456694
0
LINE
8
BLACK
6
CONTINUOUS
10
5.530847913385827
20
-3.7267628346456694
11
5.5278346456692908
21
-3.7273622047244093
0
LINE
8
BLACK
6
CONTINUOUS
10
5.5278346456692908
20
-3.7273622047244093
11
5.4321653543307082
21
-3.7273622047244093
0
LINE
8
BLACK
6
CONTINUOUS
10
5.4321653543307082
20
-3.7273622047244093
11
5.4291520866141729
21
-3.7267628346456694
0
LINE
8
BLACK
6
CONTINUOUS
10
5.4291520866141729
20
-3.7267628346456694
11
5.4265975984251966
21
-3.7250559448818898
0
LINE
8
BLACK
6
CONTINUOUS
10
5.4265975984251966
20
-3.7250559448818898
11
5.4248907086614171
21
-3.7225014566929131
0
LINE
8
BLACK
6
CONTINUOUS
10
5.4248907086614171
20
-3.7225014566929131
11
5.4242913385826768
21
-3.7194881889763778
0
LINE
8
BLACK
6
CONTINUOUS
10
5.4242913385826768
20
-3.7194881889763778
11
5.4242913385826768
21
-3.6261811023622048
0
LINE
8
BLACK
6
CONTINUOUS
10
5.4242913385826768
20
-3.6261811023622048
11
5.4248907086614171
21
-3.623167834645669
0
LINE
8
BLACK
6
CONTINUOUS
10
5.4248907086614171
20
-3.623167834645669
11
5.4265975984251966
21
-3.6206133464566927
0
LINE
8
BLACK
6
CONTINUOUS
10
5.4265975984251966
20
-3.6206133464566927
11
5.4291520866141729
21
-3.6189064566929132
0
LINE
8
BLACK
6
CONTINUOUS
10
5.4291520866141729
20
-3.6189064566929132
11
5.4321653543307082
21
-3.6183070866141733
0
LINE
8
BLACK
6
CONTINUOUS
10
5.4321653543307082
20
-3.6183070866141733
11
5.5278346456692908
21
-3.6183070866141733
0
LINE
8
BLACK
6
CONTINUOUS
10
5.5278346456692908
20
-3.6183070866141733
11
5.530847913385827
21
-3.6189064566929132
0
LINE
8
BLACK
6
CONTINUOUS
10
5.0076195669291339
20
-3.6636702362204723
11
5.0101740551181102
21
-3.6653771259842518
0
LINE
8
BLACK
6
CONTINUOUS
10
5.0101740551181102
20
-3.6653771259842518
11
5.0118809448818897
21
-3.6679316141732281
0
LINE
8
BLACK
6
CONTINUOUS
10
5.0118809448818897
20
-3.6679316141732281
11
5.0124803149606301
21
-3.6709448818897639
0
LINE
8
BLACK
6
CONTINUOUS
10
5.0124803149606301
20
-3.6709448818897639
11
5.0124803149606301
21
-3.7103149606299213
0
LINE
8
BLACK
6
CONTINUOUS
10
5.0124803149606301
20
-3.7103149606299213
11
5.0118809448818897
21
-3.7133282283464566
0
LINE
8
BLACK
6
CONTINUOUS
10
5.0118809448818897
20
-3.7133282283464566
11
5.0101740551181102
21
-3.7158827165354329
0
LINE
8
BLACK
6
CONTINUOUS
10
5.0101740551181102
20
-3.7158827165354329
11
5.0076195669291339
21
-3.7175896062992124
0
LINE
8
BLACK
6
CONTINUOUS
10
5.0076195669291339
20
-3.7175896062992124
11
5.0046062992125986
21
-3.7181889763779528
0
LINE
8
BLACK
6
CONTINUOUS
10
5.0046062992125986
20
-3.7181889763779528
11
4.9553937007874014
21
-3.7181889763779528
0
LINE
8
BLACK
6
CONTINUOUS
10
4.9553937007874014
20
-3.7181889763779528
11
4.9523804330708661
21
-3.7175896062992124
0
LINE
8
BLACK
6
CONTINUOUS
10
4.9523804330708661
20
-3.7175896062992124
11
4.9498259448818898
21
-3.7158827165354329
0
LINE
8
BLACK
6
CONTINUOUS
10
4.9498259448818898
20
-3.7158827165354329
11
4.9481190551181102
21
-3.7133282283464566
0
LINE
8
BLACK
6
CONTINUOUS
10
4.9481190551181102
20
-3.7133282283464566
11
4.9475196850393699
21
-3.7103149606299213
0
LINE
8
BLACK
6
CONTINUOUS
10
4.9475196850393699
20
-3.7103149606299213
11
4.9475196850393699
21
-3.6709448818897639
0
LINE
8
BLACK
6
CONTINUOUS
10
4.9475196850393699
20
-3.6709448818897639
11
4.9481190551181102
21
-3.6679316141732281
0
LINE
8
BLACK
6
CONTINUOUS
10
4.9481190551181102
20
-3.6679316141732281
11
4.9498259448818898
21
-3.6653771259842518
0
LINE
8
BLACK
6
CONTINUOUS
10
4.9498259448818898
20
-3.6653771259842518
11
4.9523804330708661
21
-3.6636702362204723
0
LINE
8
BLACK
6
CONTINUOUS
10
4.9523804330708661
20
-3.6636702362204723
11
4.9553937007874014
21
-3.6630708661417324
0
LINE
8
BLACK
6
CONTINUOUS
10
4.9553937007874014
20
-3.6630708661417324
11
5.0046062992125986
21
-3.6630708661417324
0
LINE
8
BLACK
6
CONTINUOUS
10
5.0046062992125986
20
-3.6630708661417324
11
5.0076195669291339
21
-3.6636702362204723
0
LINE
8
BLACK
6
CONTINUOUS
10
4.8576195669291335
20
-3.6624103937007875
11
4.8601740551181098
21
-3.664117283464567
0
LINE
8
BLACK
6
CONTINUOUS
10
4.8601740551181098
20
-3.664117283464567
11
4.8618809448818894
21
-3.6666717716535433
0
LINE
8
BLACK
6
CONTINUOUS
10
4.8618809448818894
20
-3.6666717716535433
11
4.8624803149606297
21
-3.6696850393700786
0
LINE
8
BLACK
6
CONTINUOUS
10
4.8624803149606297
20
-3.6696850393700786
11
4.8624803149606297
21
-3.709055118110236
0
LINE
8
BLACK
6
CONTINUOUS
10
4.8624803149606297
20
-3.709055118110236
11
4.8618809448818894
21
-3.7120683858267718
0
LINE
8
BLACK
6
CONTINUOUS
10
4.8618809448818894
20
-3.7120683858267718
11
4.8601740551181098
21
-3.7146228740157481
0
LINE
8
BLACK
6
CONTINUOUS
10
4.8601740551181098
20
-3.7146228740157481
11
4.8576195669291335
21
-3.7163297637795276
0
LINE
8
BLACK
6
CONTINUOUS
10
4.8576195669291335
20
-3.7163297637795276
11
4.8546062992125982
21
-3.7169291338582675
0
LINE
8
BLACK
6
CONTINUOUS
10
4.8546062992125982
20
-3.7169291338582675
11
4.805393700787401
21
-3.7169291338582675
0
LINE
8
BLACK
6
CONTINUOUS
10
4.805393700787401
20
-3.7169291338582675
11
4.8023804330708657
21
-3.7163297637795276
0
LINE
8
BLACK
6
CONTINUOUS
10
4.8023804330708657
20
-3.7163297637795276
11
4.7998259448818894
21
-3.7146228740157481
0
LINE
8
BLACK
6
CONTINUOUS
10
4.7998259448818894
20
-3.7146228740157481
11
4.7981190551181099
21
-3.7120683858267718
0
LINE
8
BLACK
6
CONTINUOUS
10
4.7981190551181099
20
-3.7120683858267718
11
4.7975196850393695
21
-3.709055118110236
0
LINE
8
BLACK
6
CONTINUOUS
10
4.7975196850393695
20
-3.709055118110236
11
4.7975196850393695
21
-3.6696850393700786
0
LINE
8
BLACK
6
CONTINUOUS
10
4.7975196850393695
20
-3.6696850393700786
11
4.7981190551181099
21
-3.6666717716535433
0
LINE
8
BLACK
6
CONTINUOUS
10
4.7981190551181099
20
-3.6666717716535433
11
4.7998259448818894
21
-3.664117283464567
0
LINE
8
BLACK
6
CONTINUOUS
10
4.7998259448818894
20
-3.664117283464567
11
4.8023804330708657
21
-3.6624103937007875
0
LINE
8
BLACK
6
CONTINUOUS
10
4.8023804330708657
20
-3.6624103937007875
11
4.805393700787401
21
-3.6618110236220471
0
LINE
8
BLACK
6
CONTINUOUS
10
4.805393700787401
20
-3.6618110236220471
11
4.8546062992125982
21
-3.6618110236220471
0
LINE
8
BLACK
6
CONTINUOUS
10
4.8546062992125982
20
-3.6618110236220471
11
4.8576195669291335
21
-3.6624103937007875
0
LINE
8
BLACK
6
CONTINUOUS
10
5.1421471259842519
20
-3.6659143307086612
11
5.1447016141732282
21
-3.6676212204724408
0
LINE
8
BLACK
6
CONTINUOUS
10
5.1447016141732282
20
-3.6676212204724408
11
5.1464085039370078
21
-3.6701757086614171
0
LINE
8
BLACK
6
CONTINUOUS
10
5.1464085039370078
20
-3.6701757086614171
11
5.1470078740157481
21
-3.6731889763779528
0
LINE
8
BLACK
6
CONTINUOUS
10
5.1470078740157481
20
-3.6731889763779528
11
5.1470078740157481
21
-3.6968110236220473
0
LINE
8
BLACK
6
CONTINUOUS
10
5.1470078740157481
20
-3.6968110236220473
11
5.1464085039370078
21
-3.6998242913385826
0
LINE
8
BLACK
6
CONTINUOUS
10
5.1464085039370078
20
-3.6998242913385826
11
5.1447016141732282
21
-3.7023787795275589
0
LINE
8
BLACK
6
CONTINUOUS
10
5.1447016141732282
20
-3.7023787795275589
11
5.1421471259842519
21
-3.7040856692913384
0
LINE
8
BLACK
6
CONTINUOUS
10
5.1421471259842519
20
-3.7040856692913384
11
5.1391338582677166
21
-3.7046850393700788
0
LINE
8
BLACK
6
CONTINUOUS
10
5.1391338582677166
20
-3.7046850393700788
11
5.0544881889763777
21
-3.7046850393700788
0
LINE
8
BLACK
6
CONTINUOUS
10
5.0544881889763777
20
-3.7046850393700788
11
5.0514749212598424
21
-3.7040856692913384
0
LINE
8
BLACK
6
CONTINUOUS
10
5.0514749212598424
20
-3.7040856692913384
11
5.0489204330708661
21
-3.7023787795275589
0
LINE
8
BLACK
6
CONTINUOUS
10
5.0489204330708661
20
-3.7023787795275589
11
5.0472135433070866
21
-3.6998242913385826
0
LINE
8
BLACK
6
CONTINUOUS
10
5.0472135433070866
20
-3.6998242913385826
11
5.0466141732283463
21
-3.6968110236220473
0
LINE
8
BLACK
6
CONTINUOUS
10
5.0466141732283463
20
-3.6968110236220473
11
5.0466141732283463
21
-3.6731889763779528
0
LINE
8
BLACK
6
CONTINUOUS
10
5.0466141732283463
20
-3.6731889763779528
11
5.0472135433070866
21
-3.6701757086614171
0
LINE
8
BLACK
6
CONTINUOUS
10
5.0472135433070866
20
-3.6701757086614171
11
5.0489204330708661
21
-3.6676212204724408
0
LINE
8
BLACK
6
CONTINUOUS
10
5.0489204330708661
20
-3.6676212204724408
11
5.0514749212598424
21
-3.6659143307086612
0
LINE
8
BLACK
6
CONTINUOUS
10
5.0514749212598424
20
-3.6659143307086612
11
5.0544881889763777
21
-3.6653149606299213
0
LINE
8
BLACK
6
CONTINUOUS
10
5.0544881889763777
20
-3.6653149606299213
11
5.1391338582677166
21
-3.6653149606299213
0
LINE
8
BLACK
6
CONTINUOUS
10
5.1391338582677166
20
-3.6653149606299213
11
5.1421471259842519
21
-3.6659143307086612
0
LINE
8
BLACK
6
CONTINUOUS
10
5.3685250787401575
20
-3.6659143307086612
11
5.3710795669291338
21
-3.6676212204724408
0
LINE
8
BLACK
6
CONTINUOUS
10
5.3710795669291338
20
-3.6676212204724408
11
5.3727864566929133
21
-3.6701757086614171
0
LINE
8
BLACK
6
CONTINUOUS
10
5.3727864566929133
20
-3.6701757086614171
11
5.3733858267716537
21
-3.6731889763779528
0
LINE
8
BLACK
6
CONTINUOUS
10
5.3733858267716537
20
-3.6731889763779528
11
5.3733858267716537
21
-3.6968110236220473
0
LINE
8
BLACK
6
CONTINUOUS
10
5.3733858267716537
20
-3.6968110236220473
11
5.3727864566929133
21
-3.6998242913385826
0
LINE
8
BLACK
6
CONTINUOUS
10
5.3727864566929133
20
-3.6998242913385826
11
5.3710795669291338
21
-3.7023787795275589
0
LINE
8
BLACK
6
CONTINUOUS
10
5.3710795669291338
20
-3.7023787795275589
11
5.3685250787401575
21
-3.7040856692913384
0
LINE
8
BLACK
6
CONTINUOUS
10
5.3685250787401575
20
-3.7040856692913384
11
5.3655118110236222
21
-3.7046850393700788
0
LINE
8
BLACK
6
CONTINUOUS
10
5.3655118110236222
20
-3.7046850393700788
11
5.2808661417322833
21
-3.7046850393700788
0
LINE
8
BLACK
6
CONTINUOUS
10
5.2808661417322833
20
-3.7046850393700788
11
5.277852874015748
21
-3.7040856692913384
0
LINE
8
BLACK
6
CONTINUOUS
10
5.277852874015748
20
-3.7040856692913384
11
5.2752983858267717
21
-3.7023787795275589
0
LINE
8
BLACK
6
CONTINUOUS
10
5.2752983858267717
20
-3.7023787795275589
11
5.2735914960629922
21
-3.6998242913385826
0
LINE
8
BLACK
6
CONTINUOUS
10
5.2735914960629922
20
-3.6998242913385826
11
5.2729921259842518
21
-3.6968110236220473
0
LINE
8
BLACK
6
CONTINUOUS
10
5.2729921259842518
20
-3.6968110236220473
11
5.2729921259842518
21
-3.6731889763779528
0
LINE
8
BLACK
6
CONTINUOUS
10
5.2729921259842518
20
-3.6731889763779528
11
5.2735914960629922
21
-3.6701757086614171
0
LINE
8
BLACK
6
CONTINUOUS
10
5.2735914960629922
20
-3.6701757086614171
11
5.2752983858267717
21
-3.6676212204724408
0
LINE
8
BLACK
6
CONTINUOUS
10
5.2752983858267717
20
-3.6676212204724408
11
5.277852874015748
21
-3.6659143307086612
0
LINE
8
BLACK
6
CONTINUOUS
10
5.277852874015748
20
-3.6659143307086612
11
5.2808661417322833
21
-3.6653149606299213
0
LINE
8
BLACK
6
CONTINUOUS
10
5.2808661417322833
20
-3.6653149606299213
11
5.3655118110236222
21
-3.6653149606299213
0
LINE
8
BLACK
6
CONTINUOUS
10
5.3655118110236222
20
-3.6653149606299213
11
5.3685250787401575
21
-3.6659143307086612
0
LINE
8
BLACK
6
CONTINUOUS
10
4.7093912204724404
20
-3.6221348031496063
11
4.7119457086614176
21
-3.6238416929133859
0
LINE
8
BLACK
6
CONTINUOUS
10
4.7119457086614176
20
-3.6238416929133859
11
4.7136525984251971
21
-3.6263961811023622
0
LINE
8
BLACK
6
CONTINUOUS
10
4.7136525984251971
20
-3.6263961811023622
11
4.7142519685039366
21
-3.6294094488188975
0
LINE
8
BLACK
6
CONTINUOUS
10
4.7142519685039366
20
-3.6294094488188975
11
4.7142519685039366
21
-3.6805905511811021
0
LINE
8
BLACK
6
CONTINUOUS
10
4.7142519685039366
20
-3.6805905511811021
11
4.7136525984251971
21
-3.6836038188976379
0
LINE
8
BLACK
6
CONTINUOUS
10
4.7136525984251971
20
-3.6836038188976379
11
4.7119457086614176
21
-3.6861583070866142
0
LINE
8
BLACK
6
CONTINUOUS
10
4.7119457086614176
20
-3.6861583070866142
11
4.7093912204724404
21
-3.6878651968503937
0
LINE
8
BLACK
6
CONTINUOUS
10
4.7093912204724404
20
-3.6878651968503937
11
4.7063779527559051
21
-3.6884645669291336
0
LINE
8
BLACK
6
CONTINUOUS
10
4.7063779527559051
20
-3.6884645669291336
11
4.6788188976377949
21
-3.6884645669291336
0
LINE
8
BLACK
6
CONTINUOUS
10
4.6788188976377949
20
-3.6884645669291336
11
4.6758056299212596
21
-3.6878651968503937
0
LINE
8
BLACK
6
CONTINUOUS
10
4.6758056299212596
20
-3.6878651968503937
11
4.6732511417322833
21
-3.6861583070866142
0
LINE
8
BLACK
6
CONTINUOUS
10
4.6732511417322833
20
-3.6861583070866142
11
4.6715442519685038
21
-3.6836038188976379
0
LINE
8
BLACK
6
CONTINUOUS
10
4.6715442519685038
20
-3.6836038188976379
11
4.6709448818897634
21
-3.6805905511811021
0
LINE
8
BLACK
6
CONTINUOUS
10
4.6709448818897634
20
-3.6805905511811021
11
4.6709448818897634
21
-3.6294094488188975
0
LINE
8
BLACK
6
CONTINUOUS
10
4.6709448818897634
20
-3.6294094488188975
11
4.6715442519685038
21
-3.6263961811023622
0
LINE
8
BLACK
6
CONTINUOUS
10
4.6715442519685038
20
-3.6263961811023622
11
4.6732511417322833
21
-3.6238416929133859
0
LINE
8
BLACK
6
CONTINUOUS
10
4.6732511417322833
20
-3.6238416929133859
11
4.6758056299212596
21
-3.6221348031496063
0
LINE
8
BLACK
6
CONTINUOUS
10
4.6758056299212596
20
-3.6221348031496063
11
4.6788188976377949
21
-3.621535433070866
0
LINE
8
BLACK
6
CONTINUOUS
10
4.6788188976377949
20
-3.621535433070866
11
4.7063779527559051
21
-3.621535433070866
0
LINE
8
BLACK
6
CONTINUOUS
10
4.7063779527559051
20
-3.621535433070866
11
4.7093912204724404
21
-3.6221348031496063
0
LINE
8
BLACK
6
CONTINUOUS
10
4.7841943700787404
20
-3.6221348031496063
11
4.7867488582677167
21
-3.6238416929133859
0
LINE
8
BLACK
6
CONTINUOUS
10
4.7867488582677167
20
-3.6238416929133859
11
4.7884557480314962
21
-3.6263961811023622
0
LINE
8
BLACK
6
CONTINUOUS
10
4.7884557480314962
20
-3.6263961811023622
11
4.7890551181102365
21
-3.6294094488188975
0
LINE
8
BLACK
6
CONTINUOUS
10
4.7890551181102365
20
-3.6294094488188975
11
4.7890551181102365
21
-3.6805905511811021
0
LINE
8
BLACK
6
CONTINUOUS
10
4.7890551181102365
20
-3.6805905511811021
11
4.7884557480314962
21
-3.6836038188976379
0
LINE
8
BLACK
6
CONTINUOUS
10
4.7884557480314962
20
-3.6836038188976379
11
4.7867488582677167
21
-3.6861583070866142
0
LINE
8
BLACK
6
CONTINUOUS
10
4.7867488582677167
20
-3.6861583070866142
11
4.7841943700787404
21
-3.6878651968503937
0
LINE
8
BLACK
6
CONTINUOUS
10
4.7841943700787404
20
-3.6878651968503937
11
4.7811811023622042
21
-3.6884645669291336
0
LINE
8
BLACK
6
CONTINUOUS
10
4.7811811023622042
20
-3.6884645669291336
11
4.753622047244094
21
-3.6884645669291336
0
LINE
8
BLACK
6
CONTINUOUS
10
4.753622047244094
20
-3.6884645669291336
11
4.7506087795275587
21
-3.6878651968503937
0
LINE
8
BLACK
6
CONTINUOUS
10
4.7506087795275587
20
-3.6878651968503937
11
4.7480542913385824
21
-3.6861583070866142
0
LINE
8
BLACK
6
CONTINUOUS
10
4.7480542913385824
20
-3.6861583070866142
11
4.7463474015748028
21
-3.6836038188976379
0
LINE
8
BLACK
6
CONTINUOUS
10
4.7463474015748028
20
-3.6836038188976379
11
4.7457480314960625
21
-3.6805905511811021
0
LINE
8
BLACK
6
CONTINUOUS
10
4.7457480314960625
20
-3.6805905511811021
11
4.7457480314960625
21
-3.6294094488188975
0
LINE
8
BLACK
6
CONTINUOUS
10
4.7457480314960625
20
-3.6294094488188975
11
4.7463474015748028
21
-3.6263961811023622
0
LINE
8
BLACK
6
CONTINUOUS
10
4.7463474015748028
20
-3.6263961811023622
11
4.7480542913385824
21
-3.6238416929133859
0
LINE
8
BLACK
6
CONTINUOUS
10
4.7480542913385824
20
-3.6238416929133859
11
4.7506087795275587
21
-3.6221348031496063
0
LINE
8
BLACK
6
CONTINUOUS
10
4.7506087795275587
20
-3.6221348031496063
11
4.753622047244094
21
-3.621535433070866
0
LINE
8
BLACK
6
CONTINUOUS
10
4.753622047244094
20
-3.621535433070866
11
4.7811811023622042
21
-3.621535433070866
0
LINE
8
BLACK
6
CONTINUOUS
10
4.7811811023622042
20
-3.621535433070866
11
4.7841943700787404
21
-3.6221348031496063
0
LINE
8
BLACK
6
CONTINUOUS
10
5.5976195669291338
20
-3.6174103937007875
11
5.6001740551181101
21
-3.6191172834645666
0
LINE
8
BLACK
6
CONTINUOUS
10
5.6001740551181101
20
-3.6191172834645666
11
5.6018809448818896
21
-3.6216717716535434
0
LINE
8
BLACK
6
CONTINUOUS
10
5.6018809448818896
20
-3.6216717716535434
11
5.6024803149606299
21
-3.6246850393700787
0
LINE
8
BLACK
6
CONTINUOUS
10
5.6024803149606299
20
-3.6246850393700787
11
5.6024803149606299
21
-3.6640551181102361
0
LINE
8
BLACK
6
CONTINUOUS
10
5.6024803149606299
20
-3.6640551181102361
11
5.6018809448818896
21
-3.6670683858267714
0
LINE
8
BLACK
6
CONTINUOUS
10
5.6018809448818896
20
-3.6670683858267714
11
5.6001740551181101
21
-3.6696228740157482
0
LINE
8
BLACK
6
CONTINUOUS
10
5.6001740551181101
20
-3.6696228740157482
11
5.5976195669291338
21
-3.6713297637795277
0
LINE
8
BLACK
6
CONTINUOUS
10
5.5976195669291338
20
-3.6713297637795277
11
5.5946062992125984
21
-3.6719291338582676
0
LINE
8
BLACK
6
CONTINUOUS
10
5.5946062992125984
20
-3.6719291338582676
11
5.5453937007874012
21
-3.6719291338582676
0
LINE
8
BLACK
6
CONTINUOUS
10
5.5453937007874012
20
-3.6719291338582676
11
5.5423804330708659
21
-3.6713297637795277
0
LINE
8
BLACK
6
CONTINUOUS
10
5.5423804330708659
20
-3.6713297637795277
11
5.5398259448818896
21
-3.6696228740157482
0
LINE
8
BLACK
6
CONTINUOUS
10
5.5398259448818896
20
-3.6696228740157482
11
5.5381190551181101
21
-3.6670683858267714
0
LINE
8
BLACK
6
CONTINUOUS
10
5.5381190551181101
20
-3.6670683858267714
11
5.5375196850393698
21
-3.6640551181102361
0
LINE
8
BLACK
6
CONTINUOUS
10
5.5375196850393698
20
-3.6640551181102361
11
5.5375196850393698
21
-3.6246850393700787
0
LINE
8
BLACK
6
CONTINUOUS
10
5.5375196850393698
20
-3.6246850393700787
11
5.5381190551181101
21
-3.6216717716535434
0
LINE
8
BLACK
6
CONTINUOUS
10
5.5381190551181101
20
-3.6216717716535434
11
5.5398259448818896
21
-3.6191172834645666
0
LINE
8
BLACK
6
CONTINUOUS
10
5.5398259448818896
20
-3.6191172834645666
11
5.5423804330708659
21
-3.6174103937007875
0
LINE
8
BLACK
6
CONTINUOUS
10
5.5423804330708659
20
-3.6174103937007875
11
5.5453937007874012
21
-3.6168110236220472
0
LINE
8
BLACK
6
CONTINUOUS
10
5.5453937007874012
20
-3.6168110236220472
11
5.5946062992125984
21
-3.6168110236220472
0
LINE
8
BLACK
6
CONTINUOUS
10
5.5946062992125984
20
-3.6168110236220472
11
5.5976195669291338
21
-3.6174103937007875
0
LINE
8
BLACK
6
CONTINUOUS
10
5.6726195669291339
20
-3.6174103937007875
11
5.6751740551181102
21
-3.6191172834645666
0
LINE
8
BLACK
6
CONTINUOUS
10
5.6751740551181102
20
-3.6191172834645666
11
5.6768809448818898
21
-3.6216717716535434
0
LINE
8
BLACK
6
CONTINUOUS
10
5.6768809448818898
20
-3.6216717716535434
11
5.6774803149606301
21
-3.6246850393700787
0
LINE
8
BLACK
6
CONTINUOUS
10
5.6774803149606301
20
-3.6246850393700787
11
5.6774803149606301
21
-3.6640551181102361
0
LINE
8
BLACK
6
CONTINUOUS
10
5.6774803149606301
20
-3.6640551181102361
11
5.6768809448818898
21
-3.6670683858267714
0
LINE
8
BLACK
6
CONTINUOUS
10
5.6768809448818898
20
-3.6670683858267714
11
5.6751740551181102
21
-3.6696228740157482
0
LINE
8
BLACK
6
CONTINUOUS
10
5.6751740551181102
20
-3.6696228740157482
11
5.6726195669291339
21
-3.6713297637795277
0
LINE
8
BLACK
6
CONTINUOUS
10
5.6726195669291339
20
-3.6713297637795277
11
5.6696062992125986
21
-3.6719291338582676
0
LINE
8
BLACK
6
CONTINUOUS
10
5.6696062992125986
20
-3.6719291338582676
11
5.6203937007874014
21
-3.6719291338582676
0
LINE
8
BLACK
6
CONTINUOUS
10
5.6203937007874014
20
-3.6719291338582676
11
5.6173804330708661
21
-3.6713297637795277
0
LINE
8
BLACK
6
CONTINUOUS
10
5.6173804330708661
20
-3.6713297637795277
11
5.6148259448818898
21
-3.6696228740157482
0
LINE
8
BLACK
6
CONTINUOUS
10
5.6148259448818898
20
-3.6696228740157482
11
5.6131190551181103
21
-3.6670683858267714
0
LINE
8
BLACK
6
CONTINUOUS
10
5.6131190551181103
20
-3.6670683858267714
11
5.6125196850393699
21
-3.6640551181102361
0
LINE
8
BLACK
6
CONTINUOUS
10
5.6125196850393699
20
-3.6640551181102361
11
5.6125196850393699
21
-3.6246850393700787
0
LINE
8
BLACK
6
CONTINUOUS
10
5.6125196850393699
20
-3.6246850393700787
11
5.6131190551181103
21
-3.6216717716535434
0
LINE
8
BLACK
6
CONTINUOUS
10
5.6131190551181103
20
-3.6216717716535434
11
5.6148259448818898
21
-3.6191172834645666
0
LINE
8
BLACK
6
CONTINUOUS
10
5.6148259448818898
20
-3.6191172834645666
11
5.6173804330708661
21
-3.6174103937007875
0
LINE
8
BLACK
6
CONTINUOUS
10
5.6173804330708661
20
-3.6174103937007875
11
5.6203937007874014
21
-3.6168110236220472
0
LINE
8
BLACK
6
CONTINUOUS
10
5.6203937007874014
20
-3.6168110236220472
11
5.6696062992125986
21
-3.6168110236220472
0
LINE
8
BLACK
6
CONTINUOUS
10
5.6696062992125986
20
-3.6168110236220472
11
5.6726195669291339
21
-3.6174103937007875
0
LINE
8
BLACK
6
CONTINUOUS
10
5.1421471259842519
20
-3.6159143307086614
11
5.1447016141732282
21
-3.6176212204724409
0
LINE
8
BLACK
6
CONTINUOUS
10
5.1447016141732282
20
-3.6176212204724409
11
5.1464085039370078
21
-3.6201757086614172
0
LINE
8
BLACK
6
CONTINUOUS
10
5.1464085039370078
20
-3.6201757086614172
11
5.1470078740157481
21
-3.6231889763779526
0
LINE
8
BLACK
6
CONTINUOUS
10
5.1470078740157481
20
-3.6231889763779526
11
5.1470078740157481
21
-3.646811023622047
0
LINE
8
BLACK
6
CONTINUOUS
10
5.1470078740157481
20
-3.646811023622047
11
5.1464085039370078
21
-3.6498242913385828
0
LINE
8
BLACK
6
CONTINUOUS
10
5.1464085039370078
20
-3.6498242913385828
11
5.1447016141732282
21
-3.6523787795275591
0
LINE
8
BLACK
6
CONTINUOUS
10
5.1447016141732282
20
-3.6523787795275591
11
5.1421471259842519
21
-3.6540856692913386
0
LINE
8
BLACK
6
CONTINUOUS
10
5.1421471259842519
20
-3.6540856692913386
11
5.1391338582677166
21
-3.6546850393700785
0
LINE
8
BLACK
6
CONTINUOUS
10
5.1391338582677166
20
-3.6546850393700785
11
5.0544881889763777
21
-3.6546850393700785
0
LINE
8
BLACK
6
CONTINUOUS
10
5.0544881889763777
20
-3.6546850393700785
11
5.0514749212598424
21
-3.6540856692913386
0
LINE
8
BLACK
6
CONTINUOUS
10
5.0514749212598424
20
-3.6540856692913386
11
5.0489204330708661
21
-3.6523787795275591
0
LINE
8
BLACK
6
CONTINUOUS
10
5.0489204330708661
20
-3.6523787795275591
11
5.0472135433070866
21
-3.6498242913385828
0
LINE
8
BLACK
6
CONTINUOUS
10
5.0472135433070866
20
-3.6498242913385828
11
5.0466141732283463
21
-3.646811023622047
0
LINE
8
BLACK
6
CONTINUOUS
10
5.0466141732283463
20
-3.646811023622047
11
5.0466141732283463
21
-3.6231889763779526
0
LINE
8
BLACK
6
CONTINUOUS
10
5.0466141732283463
20
-3.6231889763779526
11
5.0472135433070866
21
-3.6201757086614172
0
LINE
8
BLACK
6
CONTINUOUS
10
5.0472135433070866
20
-3.6201757086614172
11
5.0489204330708661
21
-3.6176212204724409
0
LINE
8
BLACK
6
CONTINUOUS
10
5.0489204330708661
20
-3.6176212204724409
11
5.0514749212598424
21
-3.6159143307086614
0
LINE
8
BLACK
6
CONTINUOUS
10
5.0514749212598424
20
-3.6159143307086614
11
5.0544881889763777
21
-3.6153149606299211
0
LINE
8
BLACK
6
CONTINUOUS
10
5.0544881889763777
20
-3.6153149606299211
11
5.1391338582677166
21
-3.6153149606299211
0
LINE
8
BLACK
6
CONTINUOUS
10
5.1391338582677166
20
-3.6153149606299211
11
5.1421471259842519
21
-3.6159143307086614
0
LINE
8
BLACK
6
CONTINUOUS
10
5.3685250787401575
20
-3.6159143307086614
11
5.3710795669291338
21
-3.6176212204724409
0
LINE
8
BLACK
6
CONTINUOUS
10
5.3710795669291338
20
-3.6176212204724409
11
5.3727864566929133
21
-3.6201757086614172
0
LINE
8
BLACK
6
CONTINUOUS
10
5.3727864566929133
20
-3.6201757086614172
11
5.3733858267716537
21
-3.6231889763779526
0
LINE
8
BLACK
6
CONTINUOUS
10
5.3733858267716537
20
-3.6231889763779526
11
5.3733858267716537
21
-3.646811023622047
0
LINE
8
BLACK
6
CONTINUOUS
10
5.3733858267716537
20
-3.646811023622047
11
5.3727864566929133
21
-3.6498242913385828
0
LINE
8
BLACK
6
CONTINUOUS
10
5.3727864566929133
20
-3.6498242913385828
11
5.3710795669291338
21
-3.6523787795275591
0
LINE
8
BLACK
6
CONTINUOUS
10
5.3710795669291338
20
-3.6523787795275591
11
5.3685250787401575
21
-3.6540856692913386
0
LINE
8
BLACK
6
CONTINUOUS
10
5.3685250787401575
20
-3.6540856692913386
11
5.3655118110236222
21
-3.6546850393700785
0
LINE
8
BLACK
6
CONTINUOUS
10
5.3655118110236222
20
-3.6546850393700785
11
5.2808661417322833
21
-3.6546850393700785
0
LINE
8
BLACK
6
CONTINUOUS
10
5.2808661417322833
20
-3.6546850393700785
11
5.277852874015748
21
-3.6540856692913386
0
LINE
8
BLACK
6
CONTINUOUS
10
5.277852874015748
20
-3.6540856692913386
11
5.2752983858267717
21
-3.6523787795275591
0
LINE
8
BLACK
6
CONTINUOUS
10
5.2752983858267717
20
-3.6523787795275591
11
5.2735914960629922
21
-3.6498242913385828
0
LINE
8
BLACK
6
CONTINUOUS
10
5.2735914960629922
20
-3.6498242913385828
11
5.2729921259842518
21
-3.646811023622047
0
LINE
8
BLACK
6
CONTINUOUS
10
5.2729921259842518
20
-3.646811023622047
11
5.2729921259842518
21
-3.6231889763779526
0
LINE
8
BLACK
6
CONTINUOUS
10
5.2729921259842518
20
-3.6231889763779526
11
5.2735914960629922
21
-3.6201757086614172
0
LINE
8
BLACK
6
CONTINUOUS
10
5.2735914960629922
20
-3.6201757086614172
11
5.2752983858267717
21
-3.6176212204724409
0
LINE
8
BLACK
6
CONTINUOUS
10
5.2752983858267717
20
-3.6176212204724409
11
5.277852874015748
21
-3.6159143307086614
0
LINE
8
BLACK
6
CONTINUOUS
10
5.277852874015748
20
-3.6159143307086614
11
5.2808661417322833
21
-3.6153149606299211
0
LINE
8
BLACK
6
CONTINUOUS
10
5.2808661417322833
20
-3.6153149606299211
11
5.3655118110236222
21
-3.6153149606299211
0
LINE
8
BLACK
6
CONTINUOUS
10
5.3655118110236222
20
-3.6153149606299211
11
5.3685250787401575
21
-3.6159143307086614
0
LINE
8
BLACK
6
CONTINUOUS
10
4.8576195669291335
20
-3.5836702362204722
11
4.8601740551181098
21
-3.5853771259842517
0
LINE
8
BLACK
6
CONTINUOUS
10
4.8601740551181098
20
-3.5853771259842517
11
4.8618809448818894
21
-3.5879316141732285
0
LINE
8
BLACK
6
CONTINUOUS
10
4.8618809448818894
20
-3.5879316141732285
11
4.8624803149606297
21
-3.5909448818897638
0
LINE
8
BLACK
6
CONTINUOUS
10
4.8624803149606297
20
-3.5909448818897638
11
4.8624803149606297
21
-3.6303149606299212
0
LINE
8
BLACK
6
CONTINUOUS
10
4.8624803149606297
20
-3.6303149606299212
11
4.8618809448818894
21
-3.6333282283464565
0
LINE
8
BLACK
6
CONTINUOUS
10
4.8618809448818894
20
-3.6333282283464565
11
4.8601740551181098
21
-3.6358827165354328
0
LINE
8
BLACK
6
CONTINUOUS
10
4.8601740551181098
20
-3.6358827165354328
11
4.8576195669291335
21
-3.6375896062992124
0
LINE
8
BLACK
6
CONTINUOUS
10
4.8576195669291335
20
-3.6375896062992124
11
4.8546062992125982
21
-3.6381889763779527
0
LINE
8
BLACK
6
CONTINUOUS
10
4.8546062992125982
20
-3.6381889763779527
11
4.805393700787401
21
-3.6381889763779527
0
LINE
8
BLACK
6
CONTINUOUS
10
4.805393700787401
20
-3.6381889763779527
11
4.8023804330708657
21
-3.6375896062992124
0
LINE
8
BLACK
6
CONTINUOUS
10
4.8023804330708657
20
-3.6375896062992124
11
4.7998259448818894
21
-3.6358827165354328
0
LINE
8
BLACK
6
CONTINUOUS
10
4.7998259448818894
20
-3.6358827165354328
11
4.7981190551181099
21
-3.6333282283464565
0
LINE
8
BLACK
6
CONTINUOUS
10
4.7981190551181099
20
-3.6333282283464565
11
4.7975196850393695
21
-3.6303149606299212
0
LINE
8
BLACK
6
CONTINUOUS
10
4.7975196850393695
20
-3.6303149606299212
11
4.7975196850393695
21
-3.5909448818897638
0
LINE
8
BLACK
6
CONTINUOUS
10
4.7975196850393695
20
-3.5909448818897638
11
4.7981190551181099
21
-3.5879316141732285
0
LINE
8
BLACK
6
CONTINUOUS
10
4.7981190551181099
20
-3.5879316141732285
11
4.7998259448818894
21
-3.5853771259842517
0
LINE
8
BLACK
6
CONTINUOUS
10
4.7998259448818894
20
-3.5853771259842517
11
4.8023804330708657
21
-3.5836702362204722
0
LINE
8
BLACK
6
CONTINUOUS
10
4.8023804330708657
20
-3.5836702362204722
11
4.805393700787401
21
-3.5830708661417323
0
LINE
8
BLACK
6
CONTINUOUS
10
4.805393700787401
20
-3.5830708661417323
11
4.8546062992125982
21
-3.5830708661417323
0
LINE
8
BLACK
6
CONTINUOUS
10
4.8546062992125982
20
-3.5830708661417323
11
4.8576195669291335
21
-3.5836702362204722
0
LINE
8
BLACK
6
CONTINUOUS
10
5.0183282283464568
20
-3.5481190551181103
11
5.0208827165354331
21
-3.5498259448818898
0
LINE
8
BLACK
6
CONTINUOUS
10
5.0208827165354331
20
-3.5498259448818898
11
5.0225896062992126
21
-3.5523804330708662
0
LINE
8
BLACK
6
CONTINUOUS
10
5.0225896062992126
20
-3.5523804330708662
11
5.0231889763779529
21
-3.5553937007874015
0
LINE
8
BLACK
6
CONTINUOUS
10
5.0231889763779529
20
-3.5553937007874015
11
5.0231889763779529
21
-3.6046062992125982
0
LINE
8
BLACK
6
CONTINUOUS
10
5.0231889763779529
20
-3.6046062992125982
11
5.0225896062992126
21
-3.607619566929134
0
LINE
8
BLACK
6
CONTINUOUS
10
5.0225896062992126
20
-3.607619566929134
11
5.0208827165354331
21
-3.6101740551181103
0
LINE
8
BLACK
6
CONTINUOUS
10
5.0208827165354331
20
-3.6101740551181103
11
5.0183282283464568
21
-3.6118809448818898
0
LINE
8
BLACK
6
CONTINUOUS
10
5.0183282283464568
20
-3.6118809448818898
11
5.0153149606299214
21
-3.6124803149606297
0
LINE
8
BLACK
6
CONTINUOUS
10
5.0153149606299214
20
-3.6124803149606297
11
4.975944881889764
21
-3.6124803149606297
0
LINE
8
BLACK
6
CONTINUOUS
10
4.975944881889764
20
-3.6124803149606297
11
4.9729316141732278
21
-3.6118809448818898
0
LINE
8
BLACK
6
CONTINUOUS
10
4.9729316141732278
20
-3.6118809448818898
11
4.9703771259842515
21
-3.6101740551181103
0
LINE
8
BLACK
6
CONTINUOUS
10
4.9703771259842515
20
-3.6101740551181103
11
4.968670236220472
21
-3.607619566929134
0
LINE
8
BLACK
6
CONTINUOUS
10
4.968670236220472
20
-3.607619566929134
11
4.9680708661417325
21
-3.6046062992125982
0
LINE
8
BLACK
6
CONTINUOUS
10
4.9680708661417325
20
-3.6046062992125982
11
4.9680708661417325
21
-3.5553937007874015
0
LINE
8
BLACK
6
CONTINUOUS
10
4.9680708661417325
20
-3.5553937007874015
11
4.968670236220472
21
-3.5523804330708662
0
LINE
8
BLACK
6
CONTINUOUS
10
4.968670236220472
20
-3.5523804330708662
11
4.9703771259842515
21
-3.5498259448818898
0
LINE
8
BLACK
6
CONTINUOUS
10
4.9703771259842515
20
-3.5498259448818898
11
4.9729316141732278
21
-3.5481190551181103
0
LINE
8
BLACK
6
CONTINUOUS
10
4.9729316141732278
20
-3.5481190551181103
11
4.975944881889764
21
-3.54751968503937
0
LINE
8
BLACK
6
CONTINUOUS
10
4.975944881889764
20
-3.54751968503937
11
5.0153149606299214
21
-3.54751968503937
0
LINE
8
BLACK
6
CONTINUOUS
10
5.0153149606299214
20
-3.54751968503937
11
5.0183282283464568
21
-3.5481190551181103
0
LINE
8
BLACK
6
CONTINUOUS
10
5.0970683858267716
20
-3.5481190551181103
11
5.0996228740157479
21
-3.5498259448818898
0
LINE
8
BLACK
6
CONTINUOUS
10
5.0996228740157479
20
-3.5498259448818898
11
5.1013297637795274
21
-3.5523804330708662
0
LINE
8
BLACK
6
CONTINUOUS
10
5.1013297637795274
20
-3.5523804330708662
11
5.1019291338582677
21
-3.5553937007874015
0
LINE
8
BLACK
6
CONTINUOUS
10
5.1019291338582677
20
-3.5553937007874015
11
5.1019291338582677
21
-3.6046062992125982
0
LINE
8
BLACK
6
CONTINUOUS
10
5.1019291338582677
20
-3.6046062992125982
11
5.1013297637795274
21
-3.607619566929134
0
LINE
8
BLACK
6
CONTINUOUS
10
5.1013297637795274
20
-3.607619566929134
11
5.0996228740157479
21
-3.6101740551181103
0
LINE
8
BLACK
6
CONTINUOUS
10
5.0996228740157479
20
-3.6101740551181103
11
5.0970683858267716
21
-3.6118809448818898
0
LINE
8
BLACK
6
CONTINUOUS
10
5.0970683858267716
20
-3.6118809448818898
11
5.0940551181102363
21
-3.6124803149606297
0
LINE
8
BLACK
6
CONTINUOUS
10
5.0940551181102363
20
-3.6124803149606297
11
5.0546850393700788
21
-3.6124803149606297
0
LINE
8
BLACK
6
CONTINUOUS
10
5.0546850393700788
20
-3.6124803149606297
11
5.0516717716535435
21
-3.6118809448818898
0
LINE
8
BLACK
6
CONTINUOUS
10
5.0516717716535435
20
-3.6118809448818898
11
5.0491172834645672
21
-3.6101740551181103
0
LINE
8
BLACK
6
CONTINUOUS
10
5.0491172834645672
20
-3.6101740551181103
11
5.0474103937007877
21
-3.607619566929134
0
LINE
8
BLACK
6
CONTINUOUS
10
5.0474103937007877
20
-3.607619566929134
11
5.0468110236220474
21
-3.6046062992125982
0
LINE
8
BLACK
6
CONTINUOUS
10
5.0468110236220474
20
-3.6046062992125982
11
5.0468110236220474
21
-3.5553937007874015
0
LINE
8
BLACK
6
CONTINUOUS
10
5.0468110236220474
20
-3.5553937007874015
11
5.0474103937007877
21
-3.5523804330708662
0
LINE
8
BLACK
6
CONTINUOUS
10
5.0474103937007877
20
-3.5523804330708662
11
5.0491172834645672
21
-3.5498259448818898
0
LINE
8
BLACK
6
CONTINUOUS
10
5.0491172834645672
20
-3.5498259448818898
11
5.0516717716535435
21
-3.5481190551181103
0
LINE
8
BLACK
6
CONTINUOUS
10
5.0516717716535435
20
-3.5481190551181103
11
5.0546850393700788
21
-3.54751968503937
0
LINE
8
BLACK
6
CONTINUOUS
10
5.0546850393700788
20
-3.54751968503937
11
5.0940551181102363
21
-3.54751968503937
0
LINE
8
BLACK
6
CONTINUOUS
10
5.0940551181102363
20
-3.54751968503937
11
5.0970683858267716
21
-3.5481190551181103
0
LINE
8
BLACK
6
CONTINUOUS
10
5.5976195669291338
20
-3.5386702362204723
11
5.6001740551181101
21
-3.5403771259842518
0
LINE
8
BLACK
6
CONTINUOUS
10
5.6001740551181101
20
-3.5403771259842518
11
5.6018809448818896
21
-3.5429316141732281
0
LINE
8
BLACK
6
CONTINUOUS
10
5.6018809448818896
20
-3.5429316141732281
11
5.6024803149606299
21
-3.5459448818897639
0
LINE
8
BLACK
6
CONTINUOUS
10
5.6024803149606299
20
-3.5459448818897639
11
5.6024803149606299
21
-3.5853149606299213
0
LINE
8
BLACK
6
CONTINUOUS
10
5.6024803149606299
20
-3.5853149606299213
11
5.6018809448818896
21
-3.5883282283464566
0
LINE
8
BLACK
6
CONTINUOUS
10
5.6018809448818896
20
-3.5883282283464566
11
5.6001740551181101
21
-3.5908827165354329
0
LINE
8
BLACK
6
CONTINUOUS
10
5.6001740551181101
20
-3.5908827165354329
11
5.5976195669291338
21
-3.5925896062992124
0
LINE
8
BLACK
6
CONTINUOUS
10
5.5976195669291338
20
-3.5925896062992124
11
5.5946062992125984
21
-3.5931889763779528
0
LINE
8
BLACK
6
CONTINUOUS
10
5.5946062992125984
20
-3.5931889763779528
11
5.5453937007874012
21
-3.5931889763779528
0
LINE
8
BLACK
6
CONTINUOUS
10
5.5453937007874012
20
-3.5931889763779528
11
5.5423804330708659
21
-3.5925896062992124
0
LINE
8
BLACK
6
CONTINUOUS
10
5.5423804330708659
20
-3.5925896062992124
11
5.5398259448818896
21
-3.5908827165354329
0
LINE
8
BLACK
6
CONTINUOUS
10
5.5398259448818896
20
-3.5908827165354329
11
5.5381190551181101
21
-3.5883282283464566
0
LINE
8
BLACK
6
CONTINUOUS
10
5.5381190551181101
20
-3.5883282283464566
11
5.5375196850393698
21
-3.5853149606299213
0
LINE
8
BLACK
6
CONTINUOUS
10
5.5375196850393698
20
-3.5853149606299213
11
5.5375196850393698
21
-3.5459448818897639
0
LINE
8
BLACK
6
CONTINUOUS
10
5.5375196850393698
20
-3.5459448818897639
11
5.5381190551181101
21
-3.5429316141732281
0
LINE
8
BLACK
6
CONTINUOUS
10
5.5381190551181101
20
-3.5429316141732281
11
5.5398259448818896
21
-3.5403771259842518
0
LINE
8
BLACK
6
CONTINUOUS
10
5.5398259448818896
20
-3.5403771259842518
11
5.5423804330708659
21
-3.5386702362204723
0
LINE
8
BLACK
6
CONTINUOUS
10
5.5423804330708659
20
-3.5386702362204723
11
5.5453937007874012
21
-3.5380708661417324
0
LINE
8
BLACK
6
CONTINUOUS
10
5.5453937007874012
20
-3.5380708661417324
11
5.5946062992125984
21
-3.5380708661417324
0
LINE
8
BLACK
6
CONTINUOUS
10
5.5946062992125984
20
-3.5380708661417324
11
5.5976195669291338
21
-3.5386702362204723
0
LINE
8
BLACK
6
CONTINUOUS
10
5.6726195669291339
20
-3.5386702362204723
11
5.6751740551181102
21
-3.5403771259842518
0
LINE
8
BLACK
6
CONTINUOUS
10
5.6751740551181102
20
-3.5403771259842518
11
5.6768809448818898
21
-3.5429316141732281
0
LINE
8
BLACK
6
CONTINUOUS
10
5.6768809448818898
20
-3.5429316141732281
11
5.6774803149606301
21
-3.5459448818897639
0
LINE
8
BLACK
6
CONTINUOUS
10
5.6774803149606301
20
-3.5459448818897639
11
5.6774803149606301
21
-3.5853149606299213
0
LINE
8
BLACK
6
CONTINUOUS
10
5.6774803149606301
20
-3.5853149606299213
11
5.6768809448818898
21
-3.5883282283464566
0
LINE
8
BLACK
6
CONTINUOUS
10
5.6768809448818898
20
-3.5883282283464566
11
5.6751740551181102
21
-3.5908827165354329
0
LINE
8
BLACK
6
CONTINUOUS
10
5.6751740551181102
20
-3.5908827165354329
11
5.6726195669291339
21
-3.5925896062992124
0
LINE
8
BLACK
6
CONTINUOUS
10
5.6726195669291339
20
-3.5925896062992124
11
5.6696062992125986
21
-3.5931889763779528
0
LINE
8
BLACK
6
CONTINUOUS
10
5.6696062992125986
20
-3.5931889763779528
11
5.6203937007874014
21
-3.5931889763779528
0
LINE
8
BLACK
6
CONTINUOUS
10
5.6203937007874014
20
-3.5931889763779528
11
5.6173804330708661
21
-3.5925896062992124
0
LINE
8
BLACK
6
CONTINUOUS
10
5.6173804330708661
20
-3.5925896062992124
11
5.6148259448818898
21
-3.5908827165354329
0
LINE
8
BLACK
6
CONTINUOUS
10
5.6148259448818898
20
-3.5908827165354329
11
5.6131190551181103
21
-3.5883282283464566
0
LINE
8
BLACK
6
CONTINUOUS
10
5.6131190551181103
20
-3.5883282283464566
11
5.6125196850393699
21
-3.5853149606299213
0
LINE
8
BLACK
6
CONTINUOUS
10
5.6125196850393699
20
-3.5853149606299213
11
5.6125196850393699
21
-3.5459448818897639
0
LINE
8
BLACK
6
CONTINUOUS
10
5.6125196850393699
20
-3.5459448818897639
11
5.6131190551181103
21
-3.5429316141732281
0
LINE
8
BLACK
6
CONTINUOUS
10
5.6131190551181103
20
-3.5429316141732281
11
5.6148259448818898
21
-3.5403771259842518
0
LINE
8
BLACK
6
CONTINUOUS
10
5.6148259448818898
20
-3.5403771259842518
11
5.6173804330708661
21
-3.5386702362204723
0
LINE
8
BLACK
6
CONTINUOUS
10
5.6173804330708661
20
-3.5386702362204723
11
5.6203937007874014
21
-3.5380708661417324
0
LINE
8
BLACK
6
CONTINUOUS
10
5.6203937007874014
20
-3.5380708661417324
11
5.6696062992125986
21
-3.5380708661417324
0
LINE
8
BLACK
6
CONTINUOUS
10
5.6696062992125986
20
-3.5380708661417324
11
5.6726195669291339
21
-3.5386702362204723
0
LINE
8
BLACK
6
CONTINUOUS
10
5.8480132677165351
20
-3.4177253543307087
11
5.8505677559055114
21
-3.4194322440944882
0
LINE
8
BLACK
6
CONTINUOUS
10
5.8505677559055114
20
-3.4194322440944882
11
5.8522746456692909
21
-3.4219867322834645
0
LINE
8
BLACK
6
CONTINUOUS
10
5.8522746456692909
20
-3.4219867322834645
11
5.8528740157480312
21
-3.4249999999999998
0
LINE
8
BLACK
6
CONTINUOUS
10
5.8528740157480312
20
-3.4249999999999998
11
5.8528740157480312
21
-3.5749999999999997
0
LINE
8
BLACK
6
CONTINUOUS
10
5.8528740157480312
20
-3.5749999999999997
11
5.8522746456692909
21
-3.5780132677165355
0
LINE
8
BLACK
6
CONTINUOUS
10
5.8522746456692909
20
-3.5780132677165355
11
5.8505677559055114
21
-3.5805677559055118
0
LINE
8
BLACK
6
CONTINUOUS
10
5.8505677559055114
20
-3.5805677559055118
11
5.8480132677165351
21
-3.5822746456692913
0
LINE
8
BLACK
6
CONTINUOUS
10
5.8480132677165351
20
-3.5822746456692913
11
5.8449999999999998
21
-3.5828740157480312
0
LINE
8
BLACK
6
CONTINUOUS
10
5.8449999999999998
20
-3.5828740157480312
11
5.6950000000000003
21
-3.5828740157480312
0
LINE
8
BLACK
6
CONTINUOUS
10
5.6950000000000003
20
-3.5828740157480312
11
5.6919867322834641
21
-3.5822746456692913
0
LINE
8
BLACK
6
CONTINUOUS
10
5.6919867322834641
20
-3.5822746456692913
11
5.6894322440944878
21
-3.5805677559055118
0
LINE
8
BLACK
6
CONTINUOUS
10
5.6894322440944878
20
-3.5805677559055118
11
5.6877253543307082
21
-3.5780132677165355
0
LINE
8
BLACK
6
CONTINUOUS
10
5.6877253543307082
20
-3.5780132677165355
11
5.6871259842519688
21
-3.5749999999999997
0
LINE
8
BLACK
6
CONTINUOUS
10
5.6871259842519688
20
-3.5749999999999997
11
5.6871259842519688
21
-3.4249999999999998
0
LINE
8
BLACK
6
CONTINUOUS
10
5.6871259842519688
20
-3.4249999999999998
11
5.6877253543307082
21
-3.4219867322834645
0
LINE
8
BLACK
6
CONTINUOUS
10
5.6877253543307082
20
-3.4219867322834645
11
5.6894322440944878
21
-3.4194322440944882
0
LINE
8
BLACK
6
CONTINUOUS
10
5.6894322440944878
20
-3.4194322440944882
11
5.6919867322834641
21
-3.4177253543307087
0
LINE
8
BLACK
6
CONTINUOUS
10
5.6919867322834641
20
-3.4177253543307087
11
5.6950000000000003
21
-3.4171259842519683
0
LINE
8
BLACK
6
CONTINUOUS
10
5.6950000000000003
20
-3.4171259842519683
11
5.8449999999999998
21
-3.4171259842519683
0
LINE
8
BLACK
6
CONTINUOUS
10
5.8449999999999998
20
-3.4171259842519683
11
5.8480132677165351
21
-3.4177253543307087
0
LINE
8
BLACK
6
CONTINUOUS
10
6.044863661417323
20
-3.4177253543307087
11
6.0474181496062993
21
-3.4194322440944882
0
LINE
8
BLACK
6
CONTINUOUS
10
6.0474181496062993
20
-3.4194322440944882
11
6.0491250393700788
21
-3.4219867322834645
0
LINE
8
BLACK
6
CONTINUOUS
10
6.0491250393700788
20
-3.4219867322834645
11
6.0497244094488192
21
-3.4249999999999998
0
LINE
8
BLACK
6
CONTINUOUS
10
6.0497244094488192
20
-3.4249999999999998
11
6.0497244094488192
21
-3.5749999999999997
0
LINE
8
BLACK
6
CONTINUOUS
10
6.0497244094488192
20
-3.5749999999999997
11
6.0491250393700788
21
-3.5780132677165355
0
LINE
8
BLACK
6
CONTINUOUS
10
6.0491250393700788
20
-3.5780132677165355
11
6.0474181496062993
21
-3.5805677559055118
0
LINE
8
BLACK
6
CONTINUOUS
10
6.0474181496062993
20
-3.5805677559055118
11
6.044863661417323
21
-3.5822746456692913
0
LINE
8
BLACK
6
CONTINUOUS
10
6.044863661417323
20
-3.5822746456692913
11
6.0418503937007877
21
-3.5828740157480312
0
LINE
8
BLACK
6
CONTINUOUS
10
6.0418503937007877
20
-3.5828740157480312
11
5.8918503937007873
21
-3.5828740157480312
0
LINE
8
BLACK
6
CONTINUOUS
10
5.8918503937007873
20
-3.5828740157480312
11
5.888837125984252
21
-3.5822746456692913
0
LINE
8
BLACK
6
CONTINUOUS
10
5.888837125984252
20
-3.5822746456692913
11
5.8862826377952757
21
-3.5805677559055118
0
LINE
8
BLACK
6
CONTINUOUS
10
5.8862826377952757
20
-3.5805677559055118
11
5.8845757480314962
21
-3.5780132677165355
0
LINE
8
BLACK
6
CONTINUOUS
10
5.8845757480314962
20
-3.5780132677165355
11
5.8839763779527559
21
-3.5749999999999997
0
LINE
8
BLACK
6
CONTINUOUS
10
5.8839763779527559
20
-3.5749999999999997
11
5.8839763779527559
21
-3.4249999999999998
0
LINE
8
BLACK
6
CONTINUOUS
10
5.8839763779527559
20
-3.4249999999999998
11
5.8845757480314962
21
-3.4219867322834645
0
LINE
8
BLACK
6
CONTINUOUS
10
5.8845757480314962
20
-3.4219867322834645
11
5.8862826377952757
21
-3.4194322440944882
0
LINE
8
BLACK
6
CONTINUOUS
10
5.8862826377952757
20
-3.4194322440944882
11
5.888837125984252
21
-3.4177253543307087
0
LINE
8
BLACK
6
CONTINUOUS
10
5.888837125984252
20
-3.4177253543307087
11
5.8918503937007873
21
-3.4171259842519683
0
LINE
8
BLACK
6
CONTINUOUS
10
5.8918503937007873
20
-3.4171259842519683
11
6.0418503937007877
21
-3.4171259842519683
0
LINE
8
BLACK
6
CONTINUOUS
10
6.0418503937007877
20
-3.4171259842519683
11
6.044863661417323
21
-3.4177253543307087
0
LINE
8
BLACK
6
CONTINUOUS
10
4.9258483070866141
20
-3.4763253543307084
11
4.9284027952755904
21
-3.478032244094488
0
LINE
8
BLACK
6
CONTINUOUS
10
4.9284027952755904
20
-3.478032244094488
11
4.93010968503937
21
-3.4805867322834643
0
LINE
8
BLACK
6
CONTINUOUS
10
4.93010968503937
20
-3.4805867322834643
11
4.9307090551181103
21
-3.4836
0
LINE
8
BLACK
6
CONTINUOUS
10
4.9307090551181103
20
-3.4836
11
4.9307090551181103
21
-3.5230000000000001
0
LINE
8
BLACK
6
CONTINUOUS
10
4.9307090551181103
20
-3.5230000000000001
11
4.93010968503937
21
-3.5260132677165354
0
LINE
8
BLACK
6
CONTINUOUS
10
4.93010968503937
20
-3.5260132677165354
11
4.9284027952755904
21
-3.5285677559055117
0
LINE
8
BLACK
6
CONTINUOUS
10
4.9284027952755904
20
-3.5285677559055117
11
4.9258483070866141
21
-3.5302746456692913
0
LINE
8
BLACK
6
CONTINUOUS
10
4.9258483070866141
20
-3.5302746456692913
11
4.9228350393700788
21
-3.5308740157480316
0
LINE
8
BLACK
6
CONTINUOUS
10
4.9228350393700788
20
-3.5308740157480316
11
4.7771649606299214
21
-3.5308740157480316
0
LINE
8
BLACK
6
CONTINUOUS
10
4.7771649606299214
20
-3.5308740157480316
11
4.774151692913386
21
-3.5302746456692913
0
LINE
8
BLACK
6
CONTINUOUS
10
4.774151692913386
20
-3.5302746456692913
11
4.7715972047244097
21
-3.5285677559055117
0
LINE
8
BLACK
6
CONTINUOUS
10
4.7715972047244097
20
-3.5285677559055117
11
4.7698903149606302
21
-3.5260132677165354
0
LINE
8
BLACK
6
CONTINUOUS
10
4.7698903149606302
20
-3.5260132677165354
11
4.7692909448818899
21
-3.5230000000000001
0
LINE
8
BLACK
6
CONTINUOUS
10
4.7692909448818899
20
-3.5230000000000001
11
4.7692909448818899
21
-3.4836
0
LINE
8
BLACK
6
CONTINUOUS
10
4.7692909448818899
20
-3.4836
11
4.7698903149606302
21
-3.4805867322834643
0
LINE
8
BLACK
6
CONTINUOUS
10
4.7698903149606302
20
-3.4805867322834643
11
4.7715972047244097
21
-3.478032244094488
0
LINE
8
BLACK
6
CONTINUOUS
10
4.7715972047244097
20
-3.478032244094488
11
4.774151692913386
21
-3.4763253543307084
0
LINE
8
BLACK
6
CONTINUOUS
10
4.774151692913386
20
-3.4763253543307084
11
4.7771649606299214
21
-3.4757259842519685
0
LINE
8
BLACK
6
CONTINUOUS
10
4.7771649606299214
20
-3.4757259842519685
11
4.9228350393700788
21
-3.4757259842519685
0
LINE
8
BLACK
6
CONTINUOUS
10
4.9228350393700788
20
-3.4757259842519685
11
4.9258483070866141
21
-3.4763253543307084
0
LINE
8
BLACK
6
CONTINUOUS
10
5.0974620866141729
20
-3.3447332283464566
11
5.1000165748031492
21
-3.3464401181102361
0
LINE
8
BLACK
6
CONTINUOUS
10
5.1000165748031492
20
-3.3464401181102361
11
5.1017234645669287
21
-3.3489946062992124
0
LINE
8
BLACK
6
CONTINUOUS
10
5.1017234645669287
20
-3.3489946062992124
11
5.102322834645669
21
-3.3520078740157477
0
LINE
8
BLACK
6
CONTINUOUS
10
5.102322834645669
20
-3.3520078740157477
11
5.102322834645669
21
-3.4779921259842519
0
LINE
8
BLACK
6
CONTINUOUS
10
5.102322834645669
20
-3.4779921259842519
11
5.1017234645669287
21
-3.4810053937007872
0
LINE
8
BLACK
6
CONTINUOUS
10
5.1017234645669287
20
-3.4810053937007872
11
5.1000165748031492
21
-3.4835598818897635
0
LINE
8
BLACK
6
CONTINUOUS
10
5.1000165748031492
20
-3.4835598818897635
11
5.0974620866141729
21
-3.485266771653543
0
LINE
8
BLACK
6
CONTINUOUS
10
5.0974620866141729
20
-3.485266771653543
11
5.0944488188976376
21
-3.4858661417322834
0
LINE
8
BLACK
6
CONTINUOUS
10
5.0944488188976376
20
-3.4858661417322834
11
4.9920866141732283
21
-3.4858661417322834
0
LINE
8
BLACK
6
CONTINUOUS
10
4.9920866141732283
20
-3.4858661417322834
11
4.989073346456693
21
-3.485266771653543
0
LINE
8
BLACK
6
CONTINUOUS
10
4.989073346456693
20
-3.485266771653543
11
4.9865188582677167
21
-3.4835598818897635
0
LINE
8
BLACK
6
CONTINUOUS
10
4.9865188582677167
20
-3.4835598818897635
11
4.9848119685039372
21
-3.4810053937007872
0
LINE
8
BLACK
6
CONTINUOUS
10
4.9848119685039372
20
-3.4810053937007872
11
4.9842125984251968
21
-3.4779921259842519
0
LINE
8
BLACK
6
CONTINUOUS
10
4.9842125984251968
20
-3.4779921259842519
11
4.9842125984251968
21
-3.3520078740157477
0
LINE
8
BLACK
6
CONTINUOUS
10
4.9842125984251968
20
-3.3520078740157477
11
4.9848119685039372
21
-3.3489946062992124
0
LINE
8
BLACK
6
CONTINUOUS
10
4.9848119685039372
20
-3.3489946062992124
11
4.9865188582677167
21
-3.3464401181102361
0
LINE
8
BLACK
6
CONTINUOUS
10
4.9865188582677167
20
-3.3464401181102361
11
4.989073346456693
21
-3.3447332283464566
0
LINE
8
BLACK
6
CONTINUOUS
10
4.989073346456693
20
-3.3447332283464566
11
4.9920866141732283
21
-3.3441338582677163
0
LINE
8
BLACK
6
CONTINUOUS
10
4.9920866141732283
20
-3.3441338582677163
11
5.0944488188976376
21
-3.3441338582677163
0
LINE
8
BLACK
6
CONTINUOUS
10
5.0944488188976376
20
-3.3441338582677163
11
5.0974620866141729
21
-3.3447332283464566
0
LINE
8
BLACK
6
CONTINUOUS
10
5.3809266535433071
20
-3.3447332283464566
11
5.3834811417322834
21
-3.3464401181102361
0
LINE
8
BLACK
6
CONTINUOUS
10
5.3834811417322834
20
-3.3464401181102361
11
5.385188031496063
21
-3.3489946062992124
0
LINE
8
BLACK
6
CONTINUOUS
10
5.385188031496063
20
-3.3489946062992124
11
5.3857874015748033
21
-3.3520078740157477
0
LINE
8
BLACK
6
CONTINUOUS
10
5.3857874015748033
20
-3.3520078740157477
11
5.3857874015748033
21
-3.4779921259842519
0
LINE
8
BLACK
6
CONTINUOUS
10
5.3857874015748033
20
-3.4779921259842519
11
5.385188031496063
21
-3.4810053937007872
0
LINE
8
BLACK
6
CONTINUOUS
10
5.385188031496063
20
-3.4810053937007872
11
5.3834811417322834
21
-3.4835598818897635
0
LINE
8
BLACK
6
CONTINUOUS
10
5.3834811417322834
20
-3.4835598818897635
11
5.3809266535433071
21
-3.485266771653543
0
LINE
8
BLACK
6
CONTINUOUS
10
5.3809266535433071
20
-3.485266771653543
11
5.3779133858267718
21
-3.4858661417322834
0
LINE
8
BLACK
6
CONTINUOUS
10
5.3779133858267718
20
-3.4858661417322834
11
5.2755511811023617
21
-3.4858661417322834
0
LINE
8
BLACK
6
CONTINUOUS
10
5.2755511811023617
20
-3.4858661417322834
11
5.2725379133858263
21
-3.485266771653543
0
LINE
8
BLACK
6
CONTINUOUS
10
5.2725379133858263
20
-3.485266771653543
11
5.26998342519685
21
-3.4835598818897635
0
LINE
8
BLACK
6
CONTINUOUS
10
5.26998342519685
20
-3.4835598818897635
11
5.2682765354330705
21
-3.4810053937007872
0
LINE
8
BLACK
6
CONTINUOUS
10
5.2682765354330705
20
-3.4810053937007872
11
5.2676771653543302
21
-3.4779921259842519
0
LINE
8
BLACK
6
CONTINUOUS
10
5.2676771653543302
20
-3.4779921259842519
11
5.2676771653543302
21
-3.3520078740157477
0
LINE
8
BLACK
6
CONTINUOUS
10
5.2676771653543302
20
-3.3520078740157477
11
5.2682765354330705
21
-3.3489946062992124
0
LINE
8
BLACK
6
CONTINUOUS
10
5.2682765354330705
20
-3.3489946062992124
11
5.26998342519685
21
-3.3464401181102361
0
LINE
8
BLACK
6
CONTINUOUS
10
5.26998342519685
20
-3.3464401181102361
11
5.2725379133858263
21
-3.3447332283464566
0
LINE
8
BLACK
6
CONTINUOUS
10
5.2725379133858263
20
-3.3447332283464566
11
5.2755511811023617
21
-3.3441338582677163
0
LINE
8
BLACK
6
CONTINUOUS
10
5.2755511811023617
20
-3.3441338582677163
11
5.3779133858267718
21
-3.3441338582677163
0
LINE
8
BLACK
6
CONTINUOUS
10
5.3779133858267718
20
-3.3441338582677163
11
5.3809266535433071
21
-3.3447332283464566
0
LINE
8
BLACK
6
CONTINUOUS
10
5.530847913385827
20
-3.3732371653543307
11
5.5334024015748033
21
-3.3749440551181102
0
LINE
8
BLACK
6
CONTINUOUS
10
5.5334024015748033
20
-3.3749440551181102
11
5.5351092913385829
21
-3.3774985433070865
0
LINE
8
BLACK
6
CONTINUOUS
10
5.5351092913385829
20
-3.3774985433070865
11
5.5357086614173223
21
-3.3805118110236219
0
LINE
8
BLACK
6
CONTINUOUS
10
5.5357086614173223
20
-3.3805118110236219
11
5.5357086614173223
21
-3.4738188976377953
0
LINE
8
BLACK
6
CONTINUOUS
10
5.5357086614173223
20
-3.4738188976377953
11
5.5351092913385829
21
-3.4768321653543306
0
LINE
8
BLACK
6
CONTINUOUS
10
5.5351092913385829
20
-3.4768321653543306
11
5.5334024015748033
21
-3.4793866535433069
0
LINE
8
BLACK
6
CONTINUOUS
10
5.5334024015748033
20
-3.4793866535433069
11
5.530847913385827
21
-3.4810935433070864
0
LINE
8
BLACK
6
CONTINUOUS
10
5.530847913385827
20
-3.4810935433070864
11
5.5278346456692908
21
-3.4816929133858268
0
LINE
8
BLACK
6
CONTINUOUS
10
5.5278346456692908
20
-3.4816929133858268
11
5.4321653543307082
21
-3.4816929133858268
0
LINE
8
BLACK
6
CONTINUOUS
10
5.4321653543307082
20
-3.4816929133858268
11
5.4291520866141729
21
-3.4810935433070864
0
LINE
8
BLACK
6
CONTINUOUS
10
5.4291520866141729
20
-3.4810935433070864
11
5.4265975984251966
21
-3.4793866535433069
0
LINE
8
BLACK
6
CONTINUOUS
10
5.4265975984251966
20
-3.4793866535433069
11
5.4248907086614171
21
-3.4768321653543306
0
LINE
8
BLACK
6
CONTINUOUS
10
5.4248907086614171
20
-3.4768321653543306
11
5.4242913385826768
21
-3.4738188976377953
0
LINE
8
BLACK
6
CONTINUOUS
10
5.4242913385826768
20
-3.4738188976377953
11
5.4242913385826768
21
-3.3805118110236219
0
LINE
8
BLACK
6
CONTINUOUS
10
5.4242913385826768
20
-3.3805118110236219
11
5.4248907086614171
21
-3.3774985433070865
0
LINE
8
BLACK
6
CONTINUOUS
10
5.4248907086614171
20
-3.3774985433070865
11
5.4265975984251966
21
-3.3749440551181102
0
LINE
8
BLACK
6
CONTINUOUS
10
5.4265975984251966
20
-3.3749440551181102
11
5.4291520866141729
21
-3.3732371653543307
0
LINE
8
BLACK
6
CONTINUOUS
10
5.4291520866141729
20
-3.3732371653543307
11
5.4321653543307082
21
-3.3726377952755904
0
LINE
8
BLACK
6
CONTINUOUS
10
5.4321653543307082
20
-3.3726377952755904
11
5.5278346456692908
21
-3.3726377952755904
0
LINE
8
BLACK
6
CONTINUOUS
10
5.5278346456692908
20
-3.3726377952755904
11
5.530847913385827
21
-3.3732371653543307
0
LINE
8
BLACK
6
CONTINUOUS
10
4.9258483070866141
20
-3.3897253543307087
11
4.9284027952755904
21
-3.3914322440944882
0
LINE
8
BLACK
6
CONTINUOUS
10
4.9284027952755904
20
-3.3914322440944882
11
4.93010968503937
21
-3.3939867322834645
0
LINE
8
BLACK
6
CONTINUOUS
10
4.93010968503937
20
-3.3939867322834645
11
4.9307090551181103
21
-3.3969999999999998
0
LINE
8
BLACK
6
CONTINUOUS
10
4.9307090551181103
20
-3.3969999999999998
11
4.9307090551181103
21
-3.4363999999999999
0
LINE
8
BLACK
6
CONTINUOUS
10
4.9307090551181103
20
-3.4363999999999999
11
4.93010968503937
21
-3.4394132677165352
0
LINE
8
BLACK
6
CONTINUOUS
10
4.93010968503937
20
-3.4394132677165352
11
4.9284027952755904
21
-3.4419677559055115
0
LINE
8
BLACK
6
CONTINUOUS
10
4.9284027952755904
20
-3.4419677559055115
11
4.9258483070866141
21
-3.443674645669291
0
LINE
8
BLACK
6
CONTINUOUS
10
4.9258483070866141
20
-3.443674645669291
11
4.9228350393700788
21
-3.4442740157480314
0
LINE
8
BLACK
6
CONTINUOUS
10
4.9228350393700788
20
-3.4442740157480314
11
4.7771649606299214
21
-3.4442740157480314
0
LINE
8
BLACK
6
CONTINUOUS
10
4.7771649606299214
20
-3.4442740157480314
11
4.774151692913386
21
-3.443674645669291
0
LINE
8
BLACK
6
CONTINUOUS
10
4.774151692913386
20
-3.443674645669291
11
4.7715972047244097
21
-3.4419677559055115
0
LINE
8
BLACK
6
CONTINUOUS
10
4.7715972047244097
20
-3.4419677559055115
11
4.7698903149606302
21
-3.4394132677165352
0
LINE
8
BLACK
6
CONTINUOUS
10
4.7698903149606302
20
-3.4394132677165352
11
4.7692909448818899
21
-3.4363999999999999
0
LINE
8
BLACK
6
CONTINUOUS
10
4.7692909448818899
20
-3.4363999999999999
11
4.7692909448818899
21
-3.3969999999999998
0
LINE
8
BLACK
6
CONTINUOUS
10
4.7692909448818899
20
-3.3969999999999998
11
4.7698903149606302
21
-3.3939867322834645
0
LINE
8
BLACK
6
CONTINUOUS
10
4.7698903149606302
20
-3.3939867322834645
11
4.7715972047244097
21
-3.3914322440944882
0
LINE
8
BLACK
6
CONTINUOUS
10
4.7715972047244097
20
-3.3914322440944882
11
4.774151692913386
21
-3.3897253543307087
0
LINE
8
BLACK
6
CONTINUOUS
10
4.774151692913386
20
-3.3897253543307087
11
4.7771649606299214
21
-3.3891259842519683
0
LINE
8
BLACK
6
CONTINUOUS
10
4.7771649606299214
20
-3.3891259842519683
11
4.9228350393700788
21
-3.3891259842519683
0
LINE
8
BLACK
6
CONTINUOUS
10
4.9228350393700788
20
-3.3891259842519683
11
4.9258483070866141
21
-3.3897253543307087
0
LINE
8
BLACK
6
CONTINUOUS
10
5.8480132677165351
20
-3.2177253543307085
11
5.8505677559055114
21
-3.219432244094488
0
LINE
8
BLACK
6
CONTINUOUS
10
5.8505677559055114
20
-3.219432244094488
11
5.8522746456692909
21
-3.2219867322834643
0
LINE
8
BLACK
6
CONTINUOUS
10
5.8522746456692909
20
-3.2219867322834643
11
5.8528740157480312
21
-3.2250000000000001
0
LINE
8
BLACK
6
CONTINUOUS
10
5.8528740157480312
20
-3.2250000000000001
11
5.8528740157480312
21
-3.375
0
LINE
8
BLACK
6
CONTINUOUS
10
5.8528740157480312
20
-3.375
11
5.8522746456692909
21
-3.3780132677165353
0
LINE
8
BLACK
6
CONTINUOUS
10
5.8522746456692909
20
-3.3780132677165353
11
5.8505677559055114
21
-3.3805677559055116
0
LINE
8
BLACK
6
CONTINUOUS
10
5.8505677559055114
20
-3.3805677559055116
11
5.8480132677165351
21
-3.3822746456692911
0
LINE
8
BLACK
6
CONTINUOUS
10
5.8480132677165351
20
-3.3822746456692911
11
5.8449999999999998
21
-3.3828740157480315
0
LINE
8
BLACK
6
CONTINUOUS
10
5.8449999999999998
20
-3.3828740157480315
11
5.6950000000000003
21
-3.3828740157480315
0
LINE
8
BLACK
6
CONTINUOUS
10
5.6950000000000003
20
-3.3828740157480315
11
5.6919867322834641
21
-3.3822746456692911
0
LINE
8
BLACK
6
CONTINUOUS
10
5.6919867322834641
20
-3.3822746456692911
11
5.6894322440944878
21
-3.3805677559055116
0
LINE
8
BLACK
6
CONTINUOUS
10
5.6894322440944878
20
-3.3805677559055116
11
5.6877253543307082
21
-3.3780132677165353
0
LINE
8
BLACK
6
CONTINUOUS
10
5.6877253543307082
20
-3.3780132677165353
11
5.6871259842519688
21
-3.375
0
LINE
8
BLACK
6
CONTINUOUS
10
5.6871259842519688
20
-3.375
11
5.6871259842519688
21
-3.2250000000000001
0
LINE
8
BLACK
6
CONTINUOUS
10
5.6871259842519688
20
-3.2250000000000001
11
5.6877253543307082
21
-3.2219867322834643
0
LINE
8
BLACK
6
CONTINUOUS
10
5.6877253543307082
20
-3.2219867322834643
11
5.6894322440944878
21
-3.219432244094488
0
LINE
8
BLACK
6
CONTINUOUS
10
5.6894322440944878
20
-3.219432244094488
11
5.6919867322834641
21
-3.2177253543307085
0
LINE
8
BLACK
6
CONTINUOUS
10
5.6919867322834641
20
-3.2177253543307085
11
5.6950000000000003
21
-3.2171259842519686
0
LINE
8
BLACK
6
CONTINUOUS
10
5.6950000000000003
20
-3.2171259842519686
11
5.8449999999999998
21
-3.2171259842519686
0
LINE
8
BLACK
6
CONTINUOUS
10
5.8449999999999998
20
-3.2171259842519686
11
5.8480132677165351
21
-3.2177253543307085
0
LINE
8
BLACK
6
CONTINUOUS
10
6.044863661417323
20
-3.2177253543307085
11
6.0474181496062993
21
-3.219432244094488
0
LINE
8
BLACK
6
CONTINUOUS
10
6.0474181496062993
20
-3.219432244094488
11
6.0491250393700788
21
-3.2219867322834643
0
LINE
8
BLACK
6
CONTINUOUS
10
6.0491250393700788
20
-3.2219867322834643
11
6.0497244094488192
21
-3.2250000000000001
0
LINE
8
BLACK
6
CONTINUOUS
10
6.0497244094488192
20
-3.2250000000000001
11
6.0497244094488192
21
-3.375
0
LINE
8
BLACK
6
CONTINUOUS
10
6.0497244094488192
20
-3.375
11
6.0491250393700788
21
-3.3780132677165353
0
LINE
8
BLACK
6
CONTINUOUS
10
6.0491250393700788
20
-3.3780132677165353
11
6.0474181496062993
21
-3.3805677559055116
0
LINE
8
BLACK
6
CONTINUOUS
10
6.0474181496062993
20
-3.3805677559055116
11
6.044863661417323
21
-3.3822746456692911
0
LINE
8
BLACK
6
CONTINUOUS
10
6.044863661417323
20
-3.3822746456692911
11
6.0418503937007877
21
-3.3828740157480315
0
LINE
8
BLACK
6
CONTINUOUS
10
6.0418503937007877
20
-3.3828740157480315
11
5.8918503937007873
21
-3.3828740157480315
0
LINE
8
BLACK
6
CONTINUOUS
10
5.8918503937007873
20
-3.3828740157480315
11
5.888837125984252
21
-3.3822746456692911
0
LINE
8
BLACK
6
CONTINUOUS
10
5.888837125984252
20
-3.3822746456692911
11
5.8862826377952757
21
-3.3805677559055116
0
LINE
8
BLACK
6
CONTINUOUS
10
5.8862826377952757
20
-3.3805677559055116
11
5.8845757480314962
21
-3.3780132677165353
0
LINE
8
BLACK
6
CONTINUOUS
10
5.8845757480314962
20
-3.3780132677165353
11
5.8839763779527559
21
-3.375
0
LINE
8
BLACK
6
CONTINUOUS
10
5.8839763779527559
20
-3.375
11
5.8839763779527559
21
-3.2250000000000001
0
LINE
8
BLACK
6
CONTINUOUS
10
5.8839763779527559
20
-3.2250000000000001
11
5.8845757480314962
21
-3.2219867322834643
0
LINE
8
BLACK
6
CONTINUOUS
10
5.8845757480314962
20
-3.2219867322834643
11
5.8862826377952757
21
-3.219432244094488
0
LINE
8
BLACK
6
CONTINUOUS
10
5.8862826377952757
20
-3.219432244094488
11
5.888837125984252
21
-3.2177253543307085
0
LINE
8
BLACK
6
CONTINUOUS
10
5.888837125984252
20
-3.2177253543307085
11
5.8918503937007873
21
-3.2171259842519686
0
LINE
8
BLACK
6
CONTINUOUS
10
5.8918503937007873
20
-3.2171259842519686
11
6.0418503937007877
21
-3.2171259842519686
0
LINE
8
BLACK
6
CONTINUOUS
10
6.0418503937007877
20
-3.2171259842519686
11
6.044863661417323
21
-3.2177253543307085
0
LINE
8
BLACK
6
CONTINUOUS
10
4.8136431889763776
20
-3.2312292913385825
11
4.8161976771653539
21
-3.232936181102362
0
LINE
8
BLACK
6
CONTINUOUS
10
4.8161976771653539
20
-3.232936181102362
11
4.8179045669291334
21
-3.2354906692913383
0
LINE
8
BLACK
6
CONTINUOUS
10
4.8179045669291334
20
-3.2354906692913383
11
4.8185039370078737
21
-3.2385039370078741
0
LINE
8
BLACK
6
CONTINUOUS
10
4.8185039370078737
20
-3.2385039370078741
11
4.8185039370078737
21
-3.3014960629921259
0
LINE
8
BLACK
6
CONTINUOUS
10
4.8185039370078737
20
-3.3014960629921259
11
4.8179045669291334
21
-3.3045093307086613
0
LINE
8
BLACK
6
CONTINUOUS
10
4.8179045669291334
20
-3.3045093307086613
11
4.8161976771653539
21
-3.3070638188976376
0
LINE
8
BLACK
6
CONTINUOUS
10
4.8161976771653539
20
-3.3070638188976376
11
4.8136431889763776
21
-3.3087707086614171
0
LINE
8
BLACK
6
CONTINUOUS
10
4.8136431889763776
20
-3.3087707086614171
11
4.8106299212598422
21
-3.3093700787401574
0
LINE
8
BLACK
6
CONTINUOUS
10
4.8106299212598422
20
-3.3093700787401574
11
4.7712598425196848
21
-3.3093700787401574
0
LINE
8
BLACK
6
CONTINUOUS
10
4.7712598425196848
20
-3.3093700787401574
11
4.7682465748031495
21
-3.3087707086614171
0
LINE
8
BLACK
6
CONTINUOUS
10
4.7682465748031495
20
-3.3087707086614171
11
4.7656920866141732
21
-3.3070638188976376
0
LINE
8
BLACK
6
CONTINUOUS
10
4.7656920866141732
20
-3.3070638188976376
11
4.7639851968503937
21
-3.3045093307086613
0
LINE
8
BLACK
6
CONTINUOUS
10
4.7639851968503937
20
-3.3045093307086613
11
4.7633858267716533
21
-3.3014960629921259
0
LINE
8
BLACK
6
CONTINUOUS
10
4.7633858267716533
20
-3.3014960629921259
11
4.7633858267716533
21
-3.2385039370078741
0
LINE
8
BLACK
6
CONTINUOUS
10
4.7633858267716533
20
-3.2385039370078741
11
4.7639851968503937
21
-3.2354906692913383
0
LINE
8
BLACK
6
CONTINUOUS
10
4.7639851968503937
20
-3.2354906692913383
11
4.7656920866141732
21
-3.232936181102362
0
LINE
8
BLACK
6
CONTINUOUS
10
4.7656920866141732
20
-3.232936181102362
11
4.7682465748031495
21
-3.2312292913385825
0
LINE
8
BLACK
6
CONTINUOUS
10
4.7682465748031495
20
-3.2312292913385825
11
4.7712598425196848
21
-3.2306299212598426
0
LINE
8
BLACK
6
CONTINUOUS
10
4.7712598425196848
20
-3.2306299212598426
11
4.8106299212598422
21
-3.2306299212598426
0
LINE
8
BLACK
6
CONTINUOUS
10
4.8106299212598422
20
-3.2306299212598426
11
4.8136431889763776
21
-3.2312292913385825
0
LINE
8
BLACK
6
CONTINUOUS
10
4.9317534251968507
20
-3.2312292913385825
11
4.934307913385827
21
-3.232936181102362
0
LINE
8
BLACK
6
CONTINUOUS
10
4.934307913385827
20
-3.232936181102362
11
4.9360148031496065
21
-3.2354906692913383
0
LINE
8
BLACK
6
CONTINUOUS
10
4.9360148031496065
20
-3.2354906692913383
11
4.9366141732283459
21
-3.2385039370078741
0
LINE
8
BLACK
6
CONTINUOUS
10
4.9366141732283459
20
-3.2385039370078741
11
4.9366141732283459
21
-3.3014960629921259
0
LINE
8
BLACK
6
CONTINUOUS
10
4.9366141732283459
20
-3.3014960629921259
11
4.9360148031496065
21
-3.3045093307086613
0
LINE
8
BLACK
6
CONTINUOUS
10
4.9360148031496065
20
-3.3045093307086613
11
4.934307913385827
21
-3.3070638188976376
0
LINE
8
BLACK
6
CONTINUOUS
10
4.934307913385827
20
-3.3070638188976376
11
4.9317534251968507
21
-3.3087707086614171
0
LINE
8
BLACK
6
CONTINUOUS
10
4.9317534251968507
20
-3.3087707086614171
11
4.9287401574803145
21
-3.3093700787401574
0
LINE
8
BLACK
6
CONTINUOUS
10
4.9287401574803145
20
-3.3093700787401574
11
4.8893700787401571
21
-3.3093700787401574
0
LINE
8
BLACK
6
CONTINUOUS
10
4.8893700787401571
20
-3.3093700787401574
11
4.8863568110236217
21
-3.3087707086614171
0
LINE
8
BLACK
6
CONTINUOUS
10
4.8863568110236217
20
-3.3087707086614171
11
4.8838023228346454
21
-3.3070638188976376
0
LINE
8
BLACK
6
CONTINUOUS
10
4.8838023228346454
20
-3.3070638188976376
11
4.8820954330708659
21
-3.3045093307086613
0
LINE
8
BLACK
6
CONTINUOUS
10
4.8820954330708659
20
-3.3045093307086613
11
4.8814960629921256
21
-3.3014960629921259
0
LINE
8
BLACK
6
CONTINUOUS
10
4.8814960629921256
20
-3.3014960629921259
11
4.8814960629921256
21
-3.2385039370078741
0
LINE
8
BLACK
6
CONTINUOUS
10
4.8814960629921256
20
-3.2385039370078741
11
4.8820954330708659
21
-3.2354906692913383
0
LINE
8
BLACK
6
CONTINUOUS
10
4.8820954330708659
20
-3.2354906692913383
11
4.8838023228346454
21
-3.232936181102362
0
LINE
8
BLACK
6
CONTINUOUS
10
4.8838023228346454
20
-3.232936181102362
11
4.8863568110236217
21
-3.2312292913385825
0
LINE
8
BLACK
6
CONTINUOUS
10
4.8863568110236217
20
-3.2312292913385825
11
4.8893700787401571
21
-3.2306299212598426
0
LINE
8
BLACK
6
CONTINUOUS
10
4.8893700787401571
20
-3.2306299212598426
11
4.9287401574803145
21
-3.2306299212598426
0
LINE
8
BLACK
6
CONTINUOUS
10
4.9287401574803145
20
-3.2306299212598426
11
4.9317534251968507
21
-3.2312292913385825
0
LINE
8
BLACK
6
CONTINUOUS
10
5.6245093307086611
20
-3.2170954330708659
11
5.6270638188976374
21
-3.2188023228346454
0
LINE
8
BLACK
6
CONTINUOUS
10
5.6270638188976374
20
-3.2188023228346454
11
5.6287707086614169
21
-3.2213568110236221
0
LINE
8
BLACK
6
CONTINUOUS
10
5.6287707086614169
20
-3.2213568110236221
11
5.6293700787401573
21
-3.2243700787401575
0
LINE
8
BLACK
6
CONTINUOUS
10
5.6293700787401573
20
-3.2243700787401575
11
5.6293700787401573
21
-3.2637401574803149
0
LINE
8
BLACK
6
CONTINUOUS
10
5.6293700787401573
20
-3.2637401574803149
11
5.6287707086614169
21
-3.2667534251968502
0
LINE
8
BLACK
6
CONTINUOUS
10
5.6287707086614169
20
-3.2667534251968502
11
5.6270638188976374
21
-3.2693079133858265
0
LINE
8
BLACK
6
CONTINUOUS
10
5.6270638188976374
20
-3.2693079133858265
11
5.6245093307086611
21
-3.271014803149606
0
LINE
8
BLACK
6
CONTINUOUS
10
5.6245093307086611
20
-3.271014803149606
11
5.6214960629921258
21
-3.2716141732283464
0
LINE
8
BLACK
6
CONTINUOUS
10
5.6214960629921258
20
-3.2716141732283464
11
5.5585039370078739
21
-3.2716141732283464
0
LINE
8
BLACK
6
CONTINUOUS
10
5.5585039370078739
20
-3.2716141732283464
11
5.5554906692913386
21
-3.271014803149606
0
LINE
8
BLACK
6
CONTINUOUS
10
5.5554906692913386
20
-3.271014803149606
11
5.5529361811023623
21
-3.2693079133858265
0
LINE
8
BLACK
6
CONTINUOUS
10
5.5529361811023623
20
-3.2693079133858265
11
5.5512292913385828
21
-3.2667534251968502
0
LINE
8
BLACK
6
CONTINUOUS
10
5.5512292913385828
20
-3.2667534251968502
11
5.5506299212598424
21
-3.2637401574803149
0
LINE
8
BLACK
6
CONTINUOUS
10
5.5506299212598424
20
-3.2637401574803149
11
5.5506299212598424
21
-3.2243700787401575
0
LINE
8
BLACK
6
CONTINUOUS
10
5.5506299212598424
20
-3.2243700787401575
11
5.5512292913385828
21
-3.2213568110236221
0
LINE
8
BLACK
6
CONTINUOUS
10
5.5512292913385828
20
-3.2213568110236221
11
5.5529361811023623
21
-3.2188023228346454
0
LINE
8
BLACK
6
CONTINUOUS
10
5.5529361811023623
20
-3.2188023228346454
11
5.5554906692913386
21
-3.2170954330708659
0
LINE
8
BLACK
6
CONTINUOUS
10
5.5554906692913386
20
-3.2170954330708659
11
5.5585039370078739
21
-3.216496062992126
0
LINE
8
BLACK
6
CONTINUOUS
10
5.5585039370078739
20
-3.216496062992126
11
5.6214960629921258
21
-3.216496062992126
0
LINE
8
BLACK
6
CONTINUOUS
10
5.6214960629921258
20
-3.216496062992126
11
5.6245093307086611
21
-3.2170954330708659
0
LINE
8
BLACK
6
CONTINUOUS
10
5.4969109055118111
20
-3.1847725984251967
11
5.4994653937007874
21
-3.1864794881889762
0
LINE
8
BLACK
6
CONTINUOUS
10
5.4994653937007874
20
-3.1864794881889762
11
5.5011722834645669
21
-3.1890339763779525
0
LINE
8
BLACK
6
CONTINUOUS
10
5.5011722834645669
20
-3.1890339763779525
11
5.5017716535433072
21
-3.1920472440944883
0
LINE
8
BLACK
6
CONTINUOUS
10
5.5017716535433072
20
-3.1920472440944883
11
5.5017716535433072
21
-3.2629133858267716
0
LINE
8
BLACK
6
CONTINUOUS
10
5.5017716535433072
20
-3.2629133858267716
11
5.5011722834645669
21
-3.2659266535433069
0
LINE
8
BLACK
6
CONTINUOUS
10
5.5011722834645669
20
-3.2659266535433069
11
5.4994653937007874
21
-3.2684811417322832
0
LINE
8
BLACK
6
CONTINUOUS
10
5.4994653937007874
20
-3.2684811417322832
11
5.4969109055118111
21
-3.2701880314960627
0
LINE
8
BLACK
6
CONTINUOUS
10
5.4969109055118111
20
-3.2701880314960627
11
5.4938976377952757
21
-3.2707874015748031
0
LINE
8
BLACK
6
CONTINUOUS
10
5.4938976377952757
20
-3.2707874015748031
11
5.4061023622047246
21
-3.2707874015748031
0
LINE
8
BLACK
6
CONTINUOUS
10
5.4061023622047246
20
-3.2707874015748031
11
5.4030890944881884
21
-3.2701880314960627
0
LINE
8
BLACK
6
CONTINUOUS
10
5.4030890944881884
20
-3.2701880314960627
11
5.4005346062992121
21
-3.2684811417322832
0
LINE
8
BLACK
6
CONTINUOUS
10
5.4005346062992121
20
-3.2684811417322832
11
5.3988277165354326
21
-3.2659266535433069
0
LINE
8
BLACK
6
CONTINUOUS
10
5.3988277165354326
20
-3.2659266535433069
11
5.3982283464566931
21
-3.2629133858267716
0
LINE
8
BLACK
6
CONTINUOUS
10
5.3982283464566931
20
-3.2629133858267716
11
5.3982283464566931
21
-3.1920472440944883
0
LINE
8
BLACK
6
CONTINUOUS
10
5.3982283464566931
20
-3.1920472440944883
11
5.3988277165354326
21
-3.1890339763779525
0
LINE
8
BLACK
6
CONTINUOUS
10
5.3988277165354326
20
-3.1890339763779525
11
5.4005346062992121
21
-3.1864794881889762
0
LINE
8
BLACK
6
CONTINUOUS
10
5.4005346062992121
20
-3.1864794881889762
11
5.4030890944881884
21
-3.1847725984251967
0
LINE
8
BLACK
6
CONTINUOUS
10
5.4030890944881884
20
-3.1847725984251967
11
5.4061023622047246
21
-3.1841732283464568
0
LINE
8
BLACK
6
CONTINUOUS
10
5.4061023622047246
20
-3.1841732283464568
11
5.4938976377952757
21
-3.1841732283464568
0
LINE
8
BLACK
6
CONTINUOUS
10
5.4938976377952757
20
-3.1841732283464568
11
5.4969109055118111
21
-3.1847725984251967
0
LINE
8
BLACK
6
CONTINUOUS
10
5.122422716535433
20
-3.1588277165354328
11
5.1249772047244093
21
-3.1605346062992123
0
LINE
8
BLACK
6
CONTINUOUS
10
5.1249772047244093
20
-3.1605346062992123
11
5.1266840944881888
21
-3.1630890944881891
0
LINE
8
BLACK
6
CONTINUOUS
10
5.1266840944881888
20
-3.1630890944881891
11
5.1272834645669292
21
-3.1661023622047244
0
LINE
8
BLACK
6
CONTINUOUS
10
5.1272834645669292
20
-3.1661023622047244
11
5.1272834645669292
21
-3.2538976377952755
0
LINE
8
BLACK
6
CONTINUOUS
10
5.1272834645669292
20
-3.2538976377952755
11
5.1266840944881888
21
-3.2569109055118108
0
LINE
8
BLACK
6
CONTINUOUS
10
5.1266840944881888
20
-3.2569109055118108
11
5.1249772047244093
21
-3.2594653937007871
0
LINE
8
BLACK
6
CONTINUOUS
10
5.1249772047244093
20
-3.2594653937007871
11
5.122422716535433
21
-3.2611722834645667
0
LINE
8
BLACK
6
CONTINUOUS
10
5.122422716535433
20
-3.2611722834645667
11
5.1194094488188977
21
-3.261771653543307
0
LINE
8
BLACK
6
CONTINUOUS
10
5.1194094488188977
20
-3.261771653543307
11
5.0261023622047247
21
-3.261771653543307
0
LINE
8
BLACK
6
CONTINUOUS
10
5.0261023622047247
20
-3.261771653543307
11
5.0230890944881885
21
-3.2611722834645667
0
LINE
8
BLACK
6
CONTINUOUS
10
5.0230890944881885
20
-3.2611722834645667
11
5.0205346062992122
21
-3.2594653937007871
0
LINE
8
BLACK
6
CONTINUOUS
10
5.0205346062992122
20
-3.2594653937007871
11
5.0188277165354327
21
-3.2569109055118108
0
LINE
8
BLACK
6
CONTINUOUS
10
5.0188277165354327
20
-3.2569109055118108
11
5.0182283464566924
21
-3.2538976377952755
0
LINE
8
BLACK
6
CONTINUOUS
10
5.0182283464566924
20
-3.2538976377952755
11
5.0182283464566924
21
-3.1661023622047244
0
LINE
8
BLACK
6
CONTINUOUS
10
5.0182283464566924
20
-3.1661023622047244
11
5.0188277165354327
21
-3.1630890944881891
0
LINE
8
BLACK
6
CONTINUOUS
10
5.0188277165354327
20
-3.1630890944881891
11
5.0205346062992122
21
-3.1605346062992123
0
LINE
8
BLACK
6
CONTINUOUS
10
5.0205346062992122
20
-3.1605346062992123
11
5.0230890944881885
21
-3.1588277165354328
0
LINE
8
BLACK
6
CONTINUOUS
10
5.0230890944881885
20
-3.1588277165354328
11
5.0261023622047247
21
-3.1582283464566929
0
LINE
8
BLACK
6
CONTINUOUS
10
5.0261023622047247
20
-3.1582283464566929
11
5.1194094488188977
21
-3.1582283464566929
0
LINE
8
BLACK
6
CONTINUOUS
10
5.1194094488188977
20
-3.1582283464566929
11
5.122422716535433
21
-3.1588277165354328
0
LINE
8
BLACK
6
CONTINUOUS
10
5.3169109055118113
20
-3.1588277165354328
11
5.3194653937007876
21
-3.1605346062992123
0
LINE
8
BLACK
6
CONTINUOUS
10
5.3194653937007876
20
-3.1605346062992123
11
5.3211722834645672
21
-3.1630890944881891
0
LINE
8
BLACK
6
CONTINUOUS
10
5.3211722834645672
20
-3.1630890944881891
11
5.3217716535433066
21
-3.1661023622047244
0
LINE
8
BLACK
6
CONTINUOUS
10
5.3217716535433066
20
-3.1661023622047244
11
5.3217716535433066
21
-3.2538976377952755
0
LINE
8
BLACK
6
CONTINUOUS
10
5.3217716535433066
20
-3.2538976377952755
11
5.3211722834645672
21
-3.2569109055118108
0
LINE
8
BLACK
6
CONTINUOUS
10
5.3211722834645672
20
-3.2569109055118108
11
5.3194653937007876
21
-3.2594653937007871
0
LINE
8
BLACK
6
CONTINUOUS
10
5.3194653937007876
20
-3.2594653937007871
11
5.3169109055118113
21
-3.2611722834645667
0
LINE
8
BLACK
6
CONTINUOUS
10
5.3169109055118113
20
-3.2611722834645667
11
5.3138976377952751
21
-3.261771653543307
0
LINE
8
BLACK
6
CONTINUOUS
10
5.3138976377952751
20
-3.261771653543307
11
5.2205905511811022
21
-3.261771653543307
0
LINE
8
BLACK
6
CONTINUOUS
10
5.2205905511811022
20
-3.261771653543307
11
5.2175772834645668
21
-3.2611722834645667
0
LINE
8
BLACK
6
CONTINUOUS
10
5.2175772834645668
20
-3.2611722834645667
11
5.2150227952755905
21
-3.2594653937007871
0
LINE
8
BLACK
6
CONTINUOUS
10
5.2150227952755905
20
-3.2594653937007871
11
5.213315905511811
21
-3.2569109055118108
0
LINE
8
BLACK
6
CONTINUOUS
10
5.213315905511811
20
-3.2569109055118108
11
5.2127165354330707
21
-3.2538976377952755
0
LINE
8
BLACK
6
CONTINUOUS
10
5.2127165354330707
20
-3.2538976377952755
11
5.2127165354330707
21
-3.1661023622047244
0
LINE
8
BLACK
6
CONTINUOUS
10
5.2127165354330707
20
-3.1661023622047244
11
5.213315905511811
21
-3.1630890944881891
0
LINE
8
BLACK
6
CONTINUOUS
10
5.213315905511811
20
-3.1630890944881891
11
5.2150227952755905
21
-3.1605346062992123
0
LINE
8
BLACK
6
CONTINUOUS
10
5.2150227952755905
20
-3.1605346062992123
11
5.2175772834645668
21
-3.1588277165354328
0
LINE
8
BLACK
6
CONTINUOUS
10
5.2175772834645668
20
-3.1588277165354328
11
5.2205905511811022
21
-3.1582283464566929
0
LINE
8
BLACK
6
CONTINUOUS
10
5.2205905511811022
20
-3.1582283464566929
11
5.3138976377952751
21
-3.1582283464566929
0
LINE
8
BLACK
6
CONTINUOUS
10
5.3138976377952751
20
-3.1582283464566929
11
5.3169109055118113
21
-3.1588277165354328
0
LINE
8
BLACK
6
CONTINUOUS
10
5.8480132677165351
20
-3.0177253543307088
11
5.8505677559055114
21
-3.0194322440944883
0
LINE
8
BLACK
6
CONTINUOUS
10
5.8505677559055114
20
-3.0194322440944883
11
5.8522746456692909
21
-3.0219867322834646
0
LINE
8
BLACK
6
CONTINUOUS
10
5.8522746456692909
20
-3.0219867322834646
11
5.8528740157480312
21
-3.0249999999999999
0
LINE
8
BLACK
6
CONTINUOUS
10
5.8528740157480312
20
-3.0249999999999999
11
5.8528740157480312
21
-3.1749999999999998
0
LINE
8
BLACK
6
CONTINUOUS
10
5.8528740157480312
20
-3.1749999999999998
11
5.8522746456692909
21
-3.1780132677165351
0
LINE
8
BLACK
6
CONTINUOUS
10
5.8522746456692909
20
-3.1780132677165351
11
5.8505677559055114
21
-3.1805677559055119
0
LINE
8
BLACK
6
CONTINUOUS
10
5.8505677559055114
20
-3.1805677559055119
11
5.8480132677165351
21
-3.1822746456692914
0
LINE
8
BLACK
6
CONTINUOUS
10
5.8480132677165351
20
-3.1822746456692914
11
5.8449999999999998
21
-3.1828740157480313
0
LINE
8
BLACK
6
CONTINUOUS
10
5.8449999999999998
20
-3.1828740157480313
11
5.6950000000000003
21
-3.1828740157480313
0
LINE
8
BLACK
6
CONTINUOUS
10
5.6950000000000003
20
-3.1828740157480313
11
5.6919867322834641
21
-3.1822746456692914
0
LINE
8
BLACK
6
CONTINUOUS
10
5.6919867322834641
20
-3.1822746456692914
11
5.6894322440944878
21
-3.1805677559055119
0
LINE
8
BLACK
6
CONTINUOUS
10
5.6894322440944878
20
-3.1805677559055119
11
5.6877253543307082
21
-3.1780132677165351
0
LINE
8
BLACK
6
CONTINUOUS
10
5.6877253543307082
20
-3.1780132677165351
11
5.6871259842519688
21
-3.1749999999999998
0
LINE
8
BLACK
6
CONTINUOUS
10
5.6871259842519688
20
-3.1749999999999998
11
5.6871259842519688
21
-3.0249999999999999
0
LINE
8
BLACK
6
CONTINUOUS
10
5.6871259842519688
20
-3.0249999999999999
11
5.6877253543307082
21
-3.0219867322834646
0
LINE
8
BLACK
6
CONTINUOUS
10
5.6877253543307082
20
-3.0219867322834646
11
5.6894322440944878
21
-3.0194322440944883
0
LINE
8
BLACK
6
CONTINUOUS
10
5.6894322440944878
20
-3.0194322440944883
11
5.6919867322834641
21
-3.0177253543307088
0
LINE
8
BLACK
6
CONTINUOUS
10
5.6919867322834641
20
-3.0177253543307088
11
5.6950000000000003
21
-3.0171259842519684
0
LINE
8
BLACK
6
CONTINUOUS
10
5.6950000000000003
20
-3.0171259842519684
11
5.8449999999999998
21
-3.0171259842519684
0
LINE
8
BLACK
6
CONTINUOUS
10
5.8449999999999998
20
-3.0171259842519684
11
5.8480132677165351
21
-3.0177253543307088
0
LINE
8
BLACK
6
CONTINUOUS
10
6.044863661417323
20
-3.0177253543307088
11
6.0474181496062993
21
-3.0194322440944883
0
LINE
8
BLACK
6
CONTINUOUS
10
6.0474181496062993
20
-3.0194322440944883
11
6.0491250393700788
21
-3.0219867322834646
0
LINE
8
BLACK
6
CONTINUOUS
10
6.0491250393700788
20
-3.0219867322834646
11
6.0497244094488192
21
-3.0249999999999999
0
LINE
8
BLACK
6
CONTINUOUS
10
6.0497244094488192
20
-3.0249999999999999
11
6.0497244094488192
21
-3.1749999999999998
0
LINE
8
BLACK
6
CONTINUOUS
10
6.0497244094488192
20
-3.1749999999999998
11
6.0491250393700788
21
-3.1780132677165351
0
LINE
8
BLACK
6
CONTINUOUS
10
6.0491250393700788
20
-3.1780132677165351
11
6.0474181496062993
21
-3.1805677559055119
0
LINE
8
BLACK
6
CONTINUOUS
10
6.0474181496062993
20
-3.1805677559055119
11
6.044863661417323
21
-3.1822746456692914
0
LINE
8
BLACK
6
CONTINUOUS
10
6.044863661417323
20
-3.1822746456692914
11
6.0418503937007877
21
-3.1828740157480313
0
LINE
8
BLACK
6
CONTINUOUS
10
6.0418503937007877
20
-3.1828740157480313
11
5.8918503937007873
21
-3.1828740157480313
0
LINE
8
BLACK
6
CONTINUOUS
10
5.8918503937007873
20
-3.1828740157480313
11
5.888837125984252
21
-3.1822746456692914
0
LINE
8
BLACK
6
CONTINUOUS
10
5.888837125984252
20
-3.1822746456692914
11
5.8862826377952757
21
-3.1805677559055119
0
LINE
8
BLACK
6
CONTINUOUS
10
5.8862826377952757
20
-3.1805677559055119
11
5.8845757480314962
21
-3.1780132677165351
0
LINE
8
BLACK
6
CONTINUOUS
10
5.8845757480314962
20
-3.1780132677165351
11
5.8839763779527559
21
-3.1749999999999998
0
LINE
8
BLACK
6
CONTINUOUS
10
5.8839763779527559
20
-3.1749999999999998
11
5.8839763779527559
21
-3.0249999999999999
0
LINE
8
BLACK
6
CONTINUOUS
10
5.8839763779527559
20
-3.0249999999999999
11
5.8845757480314962
21
-3.0219867322834646
0
LINE
8
BLACK
6
CONTINUOUS
10
5.8845757480314962
20
-3.0219867322834646
11
5.8862826377952757
21
-3.0194322440944883
0
LINE
8
BLACK
6
CONTINUOUS
10
5.8862826377952757
20
-3.0194322440944883
11
5.888837125984252
21
-3.0177253543307088
0
LINE
8
BLACK
6
CONTINUOUS
10
5.888837125984252
20
-3.0177253543307088
11
5.8918503937007873
21
-3.0171259842519684
0
LINE
8
BLACK
6
CONTINUOUS
10
5.8918503937007873
20
-3.0171259842519684
11
6.0418503937007877
21
-3.0171259842519684
0
LINE
8
BLACK
6
CONTINUOUS
10
6.0418503937007877
20
-3.0171259842519684
11
6.044863661417323
21
-3.0177253543307088
0
LINE
8
BLACK
6
CONTINUOUS
10
5.4969109055118111
20
-3.0698119685039371
11
5.4994653937007874
21
-3.0715188582677166
0
LINE
8
BLACK
6
CONTINUOUS
10
5.4994653937007874
20
-3.0715188582677166
11
5.5011722834645669
21
-3.0740733464566929
0
LINE
8
BLACK
6
CONTINUOUS
10
5.5011722834645669
20
-3.0740733464566929
11
5.5017716535433072
21
-3.0770866141732283
0
LINE
8
BLACK
6
CONTINUOUS
10
5.5017716535433072
20
-3.0770866141732283
11
5.5017716535433072
21
-3.1479527559055116
0
LINE
8
BLACK
6
CONTINUOUS
10
5.5017716535433072
20
-3.1479527559055116
11
5.5011722834645669
21
-3.1509660236220474
0
LINE
8
BLACK
6
CONTINUOUS
10
5.5011722834645669
20
-3.1509660236220474
11
5.4994653937007874
21
-3.1535205118110237
0
LINE
8
BLACK
6
CONTINUOUS
10
5.4994653937007874
20
-3.1535205118110237
11
5.4969109055118111
21
-3.1552274015748032
0
LINE
8
BLACK
6
CONTINUOUS
10
5.4969109055118111
20
-3.1552274015748032
11
5.4938976377952757
21
-3.1558267716535431
0
LINE
8
BLACK
6
CONTINUOUS
10
5.4938976377952757
20
-3.1558267716535431
11
5.4061023622047246
21
-3.1558267716535431
0
LINE
8
BLACK
6
CONTINUOUS
10
5.4061023622047246
20
-3.1558267716535431
11
5.4030890944881884
21
-3.1552274015748032
0
LINE
8
BLACK
6
CONTINUOUS
10
5.4030890944881884
20
-3.1552274015748032
11
5.4005346062992121
21
-3.1535205118110237
0
LINE
8
BLACK
6
CONTINUOUS
10
5.4005346062992121
20
-3.1535205118110237
11
5.3988277165354326
21
-3.1509660236220474
0
LINE
8
BLACK
6
CONTINUOUS
10
5.3988277165354326
20
-3.1509660236220474
11
5.3982283464566931
21
-3.1479527559055116
0
LINE
8
BLACK
6
CONTINUOUS
10
5.3982283464566931
20
-3.1479527559055116
11
5.3982283464566931
21
-3.0770866141732283
0
LINE
8
BLACK
6
CONTINUOUS
10
5.3982283464566931
20
-3.0770866141732283
11
5.3988277165354326
21
-3.0740733464566929
0
LINE
8
BLACK
6
CONTINUOUS
10
5.3988277165354326
20
-3.0740733464566929
11
5.4005346062992121
21
-3.0715188582677166
0
LINE
8
BLACK
6
CONTINUOUS
10
5.4005346062992121
20
-3.0715188582677166
11
5.4030890944881884
21
-3.0698119685039371
0
LINE
8
BLACK
6
CONTINUOUS
10
5.4030890944881884
20
-3.0698119685039371
11
5.4061023622047246
21
-3.0692125984251968
0
LINE
8
BLACK
6
CONTINUOUS
10
5.4061023622047246
20
-3.0692125984251968
11
5.4938976377952757
21
-3.0692125984251968
0
LINE
8
BLACK
6
CONTINUOUS
10
5.4938976377952757
20
-3.0692125984251968
11
5.4969109055118111
21
-3.0698119685039371
0
LINE
8
BLACK
6
CONTINUOUS
10
5.6245093307086611
20
-3.0989851968503936
11
5.6270638188976374
21
-3.1006920866141732
0
LINE
8
BLACK
6
CONTINUOUS
10
5.6270638188976374
20
-3.1006920866141732
11
5.6287707086614169
21
-3.1032465748031495
0
LINE
8
BLACK
6
CONTINUOUS
10
5.6287707086614169
20
-3.1032465748031495
11
5.6293700787401573
21
-3.1062598425196848
0
LINE
8
BLACK
6
CONTINUOUS
10
5.6293700787401573
20
-3.1062598425196848
11
5.6293700787401573
21
-3.1456299212598426
0
LINE
8
BLACK
6
CONTINUOUS
10
5.6293700787401573
20
-3.1456299212598426
11
5.6287707086614169
21
-3.148643188976378
0
LINE
8
BLACK
6
CONTINUOUS
10
5.6287707086614169
20
-3.148643188976378
11
5.6270638188976374
21
-3.1511976771653543
0
LINE
8
BLACK
6
CONTINUOUS
10
5.6270638188976374
20
-3.1511976771653543
11
5.6245093307086611
21
-3.1529045669291338
0
LINE
8
BLACK
6
CONTINUOUS
10
5.6245093307086611
20
-3.1529045669291338
11
5.6214960629921258
21
-3.1535039370078741
0
LINE
8
BLACK
6
CONTINUOUS
10
5.6214960629921258
20
-3.1535039370078741
11
5.5585039370078739
21
-3.1535039370078741
0
LINE
8
BLACK
6
CONTINUOUS
10
5.5585039370078739
20
-3.1535039370078741
11
5.5554906692913386
21
-3.1529045669291338
0
LINE
8
BLACK
6
CONTINUOUS
10
5.5554906692913386
20
-3.1529045669291338
11
5.5529361811023623
21
-3.1511976771653543
0
LINE
8
BLACK
6
CONTINUOUS
10
5.5529361811023623
20
-3.1511976771653543
11
5.5512292913385828
21
-3.148643188976378
0
LINE
8
BLACK
6
CONTINUOUS
10
5.5512292913385828
20
-3.148643188976378
11
5.5506299212598424
21
-3.1456299212598426
0
LINE
8
BLACK
6
CONTINUOUS
10
5.5506299212598424
20
-3.1456299212598426
11
5.5506299212598424
21
-3.1062598425196848
0
LINE
8
BLACK
6
CONTINUOUS
10
5.5506299212598424
20
-3.1062598425196848
11
5.5512292913385828
21
-3.1032465748031495
0
LINE
8
BLACK
6
CONTINUOUS
10
5.5512292913385828
20
-3.1032465748031495
11
5.5529361811023623
21
-3.1006920866141732
0
LINE
8
BLACK
6
CONTINUOUS
10
5.5529361811023623
20
-3.1006920866141732
11
5.5554906692913386
21
-3.0989851968503936
0
LINE
8
BLACK
6
CONTINUOUS
10
5.5554906692913386
20
-3.0989851968503936
11
5.5585039370078739
21
-3.0983858267716533
0
LINE
8
BLACK
6
CONTINUOUS
10
5.5585039370078739
20
-3.0983858267716533
11
5.6214960629921258
21
-3.0983858267716533
0
LINE
8
BLACK
6
CONTINUOUS
10
5.6214960629921258
20
-3.0983858267716533
11
5.6245093307086611
21
-3.0989851968503936
0
LINE
8
BLACK
6
CONTINUOUS
10
5.2593912204724411
20
-3.0471348031496062
11
5.2619457086614174
21
-3.0488416929133857
0
LINE
8
BLACK
6
CONTINUOUS
10
5.2619457086614174
20
-3.0488416929133857
11
5.2636525984251969
21
-3.051396181102362
0
LINE
8
BLACK
6
CONTINUOUS
10
5.2636525984251969
20
-3.051396181102362
11
5.2642519685039373
21
-3.0544094488188978
0
LINE
8
BLACK
6
CONTINUOUS
10
5.2642519685039373
20
-3.0544094488188978
11
5.2642519685039373
21
-3.1055905511811024
0
LINE
8
BLACK
6
CONTINUOUS
10
5.2642519685039373
20
-3.1055905511811024
11
5.2636525984251969
21
-3.1086038188976377
0
LINE
8
BLACK
6
CONTINUOUS
10
5.2636525984251969
20
-3.1086038188976377
11
5.2619457086614174
21
-3.111158307086614
0
LINE
8
BLACK
6
CONTINUOUS
10
5.2619457086614174
20
-3.111158307086614
11
5.2593912204724411
21
-3.1128651968503935
0
LINE
8
BLACK
6
CONTINUOUS
10
5.2593912204724411
20
-3.1128651968503935
11
5.2563779527559058
21
-3.1134645669291339
0
LINE
8
BLACK
6
CONTINUOUS
10
5.2563779527559058
20
-3.1134645669291339
11
5.2288188976377947
21
-3.1134645669291339
0
LINE
8
BLACK
6
CONTINUOUS
10
5.2288188976377947
20
-3.1134645669291339
11
5.2258056299212594
21
-3.1128651968503935
0
LINE
8
BLACK
6
CONTINUOUS
10
5.2258056299212594
20
-3.1128651968503935
11
5.2232511417322831
21
-3.111158307086614
0
LINE
8
BLACK
6
CONTINUOUS
10
5.2232511417322831
20
-3.111158307086614
11
5.2215442519685036
21
-3.1086038188976377
0
LINE
8
BLACK
6
CONTINUOUS
10
5.2215442519685036
20
-3.1086038188976377
11
5.2209448818897632
21
-3.1055905511811024
0
LINE
8
BLACK
6
CONTINUOUS
10
5.2209448818897632
20
-3.1055905511811024
11
5.2209448818897632
21
-3.0544094488188978
0
LINE
8
BLACK
6
CONTINUOUS
10
5.2209448818897632
20
-3.0544094488188978
11
5.2215442519685036
21
-3.051396181102362
0
LINE
8
BLACK
6
CONTINUOUS
10
5.2215442519685036
20
-3.051396181102362
11
5.2232511417322831
21
-3.0488416929133857
0
LINE
8
BLACK
6
CONTINUOUS
10
5.2232511417322831
20
-3.0488416929133857
11
5.2258056299212594
21
-3.0471348031496062
0
LINE
8
BLACK
6
CONTINUOUS
10
5.2258056299212594
20
-3.0471348031496062
11
5.2288188976377947
21
-3.0465354330708663
0
LINE
8
BLACK
6
CONTINUOUS
10
5.2288188976377947
20
-3.0465354330708663
11
5.2563779527559058
21
-3.0465354330708663
0
LINE
8
BLACK
6
CONTINUOUS
10
5.2563779527559058
20
-3.0465354330708663
11
5.2593912204724411
21
-3.0471348031496062
0
LINE
8
BLACK
6
CONTINUOUS
10
5.3341943700787402
20
-3.0471348031496062
11
5.3367488582677165
21
-3.0488416929133857
0
LINE
8
BLACK
6
CONTINUOUS
10
5.3367488582677165
20
-3.0488416929133857
11
5.338455748031496
21
-3.051396181102362
0
LINE
8
BLACK
6
CONTINUOUS
10
5.338455748031496
20
-3.051396181102362
11
5.3390551181102364
21
-3.0544094488188978
0
LINE
8
BLACK
6
CONTINUOUS
10
5.3390551181102364
20
-3.0544094488188978
11
5.3390551181102364
21
-3.1055905511811024
0
LINE
8
BLACK
6
CONTINUOUS
10
5.3390551181102364
20
-3.1055905511811024
11
5.338455748031496
21
-3.1086038188976377
0
LINE
8
BLACK
6
CONTINUOUS
10
5.338455748031496
20
-3.1086038188976377
11
5.3367488582677165
21
-3.111158307086614
0
LINE
8
BLACK
6
CONTINUOUS
10
5.3367488582677165
20
-3.111158307086614
11
5.3341943700787402
21
-3.1128651968503935
0
LINE
8
BLACK
6
CONTINUOUS
10
5.3341943700787402
20
-3.1128651968503935
11
5.3311811023622049
21
-3.1134645669291339
0
LINE
8
BLACK
6
CONTINUOUS
10
5.3311811023622049
20
-3.1134645669291339
11
5.3036220472440947
21
-3.1134645669291339
0
LINE
8
BLACK
6
CONTINUOUS
10
5.3036220472440947
20
-3.1134645669291339
11
5.3006087795275594
21
-3.1128651968503935
0
LINE
8
BLACK
6
CONTINUOUS
10
5.3006087795275594
20
-3.1128651968503935
11
5.2980542913385822
21
-3.111158307086614
0
LINE
8
BLACK
6
CONTINUOUS
10
5.2980542913385822
20
-3.111158307086614
11
5.2963474015748027
21
-3.1086038188976377
0
LINE
8
BLACK
6
CONTINUOUS
10
5.2963474015748027
20
-3.1086038188976377
11
5.2957480314960632
21
-3.1055905511811024
0
LINE
8
BLACK
6
CONTINUOUS
10
5.2957480314960632
20
-3.1055905511811024
11
5.2957480314960632
21
-3.0544094488188978
0
LINE
8
BLACK
6
CONTINUOUS
10
5.2957480314960632
20
-3.0544094488188978
11
5.2963474015748027
21
-3.051396181102362
0
LINE
8
BLACK
6
CONTINUOUS
10
5.2963474015748027
20
-3.051396181102362
11
5.2980542913385822
21
-3.0488416929133857
0
LINE
8
BLACK
6
CONTINUOUS
10
5.2980542913385822
20
-3.0488416929133857
11
5.3006087795275594
21
-3.0471348031496062
0
LINE
8
BLACK
6
CONTINUOUS
10
5.3006087795275594
20
-3.0471348031496062
11
5.3036220472440947
21
-3.0465354330708663
0
LINE
8
BLACK
6
CONTINUOUS
10
5.3036220472440947
20
-3.0465354330708663
11
5.3311811023622049
21
-3.0465354330708663
0
LINE
8
BLACK
6
CONTINUOUS
10
5.3311811023622049
20
-3.0465354330708663
11
5.3341943700787402
21
-3.0471348031496062
0
LINE
8
BLACK
6
CONTINUOUS
10
5.5136038188976375
20
-2.9613474015748031
11
5.5161583070866138
21
-2.9630542913385827
0
LINE
8
BLACK
6
CONTINUOUS
10
5.5161583070866138
20
-2.9630542913385827
11
5.5178651968503933
21
-2.965608779527559
0
LINE
8
BLACK
6
CONTINUOUS
10
5.5178651968503933
20
-2.965608779527559
11
5.5184645669291337
21
-2.9686220472440943
0
LINE
8
BLACK
6
CONTINUOUS
10
5.5184645669291337
20
-2.9686220472440943
11
5.5184645669291337
21
-2.9961811023622045
0
LINE
8
BLACK
6
CONTINUOUS
10
5.5184645669291337
20
-2.9961811023622045
11
5.5178651968503933
21
-2.9991943700787402
0
LINE
8
BLACK
6
CONTINUOUS
10
5.5178651968503933
20
-2.9991943700787402
11
5.5161583070866138
21
-3.0017488582677165
0
LINE
8
BLACK
6
CONTINUOUS
10
5.5161583070866138
20
-3.0017488582677165
11
5.5136038188976375
21
-3.0034557480314961
0
LINE
8
BLACK
6
CONTINUOUS
10
5.5136038188976375
20
-3.0034557480314961
11
5.5105905511811022
21
-3.004055118110236
0
LINE
8
BLACK
6
CONTINUOUS
10
5.5105905511811022
20
-3.004055118110236
11
5.4594094488188976
21
-3.004055118110236
0
LINE
8
BLACK
6
CONTINUOUS
10
5.4594094488188976
20
-3.004055118110236
11
5.4563961811023622
21
-3.0034557480314961
0
LINE
8
BLACK
6
CONTINUOUS
10
5.4563961811023622
20
-3.0034557480314961
11
5.4538416929133859
21
-3.0017488582677165
0
LINE
8
BLACK
6
CONTINUOUS
10
5.4538416929133859
20
-3.0017488582677165
11
5.4521348031496064
21
-2.9991943700787402
0
LINE
8
BLACK
6
CONTINUOUS
10
5.4521348031496064
20
-2.9991943700787402
11
5.4515354330708661
21
-2.9961811023622045
0
LINE
8
BLACK
6
CONTINUOUS
10
5.4515354330708661
20
-2.9961811023622045
11
5.4515354330708661
21
-2.9686220472440943
0
LINE
8
BLACK
6
CONTINUOUS
10
5.4515354330708661
20
-2.9686220472440943
11
5.4521348031496064
21
-2.965608779527559
0
LINE
8
BLACK
6
CONTINUOUS
10
5.4521348031496064
20
-2.965608779527559
11
5.4538416929133859
21
-2.9630542913385827
0
LINE
8
BLACK
6
CONTINUOUS
10
5.4538416929133859
20
-2.9630542913385827
11
5.4563961811023622
21
-2.9613474015748031
0
LINE
8
BLACK
6
CONTINUOUS
10
5.4563961811023622
20
-2.9613474015748031
11
5.4594094488188976
21
-2.9607480314960628
0
LINE
8
BLACK
6
CONTINUOUS
10
5.4594094488188976
20
-2.9607480314960628
11
5.5105905511811022
21
-2.9607480314960628
0
LINE
8
BLACK
6
CONTINUOUS
10
5.5105905511811022
20
-2.9607480314960628
11
5.5136038188976375
21
-2.9613474015748031
0
LINE
8
BLACK
6
CONTINUOUS
10
5.5136038188976375
20
-2.8865442519685041
11
5.5161583070866138
21
-2.8882511417322836
0
LINE
8
BLACK
6
CONTINUOUS
10
5.5161583070866138
20
-2.8882511417322836
11
5.5178651968503933
21
-2.8908056299212599
0
LINE
8
BLACK
6
CONTINUOUS
10
5.5178651968503933
20
-2.8908056299212599
11
5.5184645669291337
21
-2.8938188976377952
0
LINE
8
BLACK
6
CONTINUOUS
10
5.5184645669291337
20
-2.8938188976377952
11
5.5184645669291337
21
-2.9213779527559054
0
LINE
8
BLACK
6
CONTINUOUS
10
5.5184645669291337
20
-2.9213779527559054
11
5.5178651968503933
21
-2.9243912204724407
0
LINE
8
BLACK
6
CONTINUOUS
10
5.5178651968503933
20
-2.9243912204724407
11
5.5161583070866138
21
-2.9269457086614175
0
LINE
8
BLACK
6
CONTINUOUS
10
5.5161583070866138
20
-2.9269457086614175
11
5.5136038188976375
21
-2.928652598425197
0
LINE
8
BLACK
6
CONTINUOUS
10
5.5136038188976375
20
-2.928652598425197
11
5.5105905511811022
21
-2.9292519685039369
0
LINE
8
BLACK
6
CONTINUOUS
10
5.5105905511811022
20
-2.9292519685039369
11
5.4594094488188976
21
-2.9292519685039369
0
LINE
8
BLACK
6
CONTINUOUS
10
5.4594094488188976
20
-2.9292519685039369
11
5.4563961811023622
21
-2.928652598425197
0
LINE
8
BLACK
6
CONTINUOUS
10
5.4563961811023622
20
-2.928652598425197
11
5.4538416929133859
21
-2.9269457086614175
0
LINE
8
BLACK
6
CONTINUOUS
10
5.4538416929133859
20
-2.9269457086614175
11
5.4521348031496064
21
-2.9243912204724407
0
LINE
8
BLACK
6
CONTINUOUS
10
5.4521348031496064
20
-2.9243912204724407
11
5.4515354330708661
21
-2.9213779527559054
0
LINE
8
BLACK
6
CONTINUOUS
10
5.4515354330708661
20
-2.9213779527559054
11
5.4515354330708661
21
-2.8938188976377952
0
LINE
8
BLACK
6
CONTINUOUS
10
5.4515354330708661
20
-2.8938188976377952
11
5.4521348031496064
21
-2.8908056299212599
0
LINE
8
BLACK
6
CONTINUOUS
10
5.4521348031496064
20
-2.8908056299212599
11
5.4538416929133859
21
-2.8882511417322836
0
LINE
8
BLACK
6
CONTINUOUS
10
5.4538416929133859
20
-2.8882511417322836
11
5.4563961811023622
21
-2.8865442519685041
0
LINE
8
BLACK
6
CONTINUOUS
10
5.4563961811023622
20
-2.8865442519685041
11
5.4594094488188976
21
-2.8859448818897637
0
LINE
8
BLACK
6
CONTINUOUS
10
5.4594094488188976
20
-2.8859448818897637
11
5.5105905511811022
21
-2.8859448818897637
0
LINE
8
BLACK
6
CONTINUOUS
10
5.5105905511811022
20
-2.8859448818897637
11
5.5136038188976375
21
-2.8865442519685041
0
LINE
8
BLACK
6
CONTINUOUS
10
4.8205096456692909
20
-2.6836841338582675
11
4.8338744094488186
21
-2.6868516141732282
0
LINE
8
BLACK
6
CONTINUOUS
10
4.8338744094488186
20
-2.6868516141732282
11
4.8467810629921262
21
-2.6915492913385828
0
LINE
8
BLACK
6
CONTINUOUS
10
4.8467810629921262
20
-2.6915492913385828
11
4.8590551181102359
21
-2.6977135433070867
0
LINE
8
BLACK
6
CONTINUOUS
10
4.8590551181102359
20
-2.6977135433070867
11
4.8705305511811021
21
-2.7052610236220471
0
LINE
8
BLACK
6
CONTINUOUS
10
4.8705305511811021
20
-2.7052610236220471
11
4.8810521653543306
21
-2.7140897244094488
0
LINE
8
BLACK
6
CONTINUOUS
10
4.8810521653543306
20
-2.7140897244094488
11
4.8904776771653546
21
-2.7240801968503936
0
LINE
8
BLACK
6
CONTINUOUS
10
4.8904776771653546
20
-2.7240801968503936
11
4.8986796456692909
21
-2.7350973622047245
0
LINE
8
BLACK
6
CONTINUOUS
10
4.8986796456692909
20
-2.7350973622047245
11
4.9055471653543306
21
-2.7469922047244095
0
LINE
8
BLACK
6
CONTINUOUS
10
4.9055471653543306
20
-2.7469922047244095
11
4.9109873228346457
21
-2.7596039370078738
0
LINE
8
BLACK
6
CONTINUOUS
10
4.9109873228346457
20
-2.7596039370078738
11
4.9149265748031494
21
-2.7727618897637796
0
LINE
8
BLACK
6
CONTINUOUS
10
4.9149265748031494
20
-2.7727618897637796
11
4.9173116141732285
21
-2.7862882283464567
0
LINE
8
BLACK
6
CONTINUOUS
10
4.9173116141732285
20
-2.7862882283464567
11
4.9181102362204721
21
-2.7999999999999998
0
LINE
8
BLACK
6
CONTINUOUS
10
4.9181102362204721
20
-2.7999999999999998
11
4.9173116141732285
21
-2.8137117716535434
0
LINE
8
BLACK
6
CONTINUOUS
10
4.9173116141732285
20
-2.8137117716535434
11
4.9149265748031494
21
-2.8272381102362205
0
LINE
8
BLACK
6
CONTINUOUS
10
4.9149265748031494
20
-2.8272381102362205
11
4.9109873228346457
21
-2.8403960629921259
0
LINE
8
BLACK
6
CONTINUOUS
10
4.9109873228346457
20
-2.8403960629921259
11
4.9055471653543306
21
-2.8530077952755906
0
LINE
8
BLACK
6
CONTINUOUS
10
4.9055471653543306
20
-2.8530077952755906
11
4.8986796456692909
21
-2.8649026377952755
0
LINE
8
BLACK
6
CONTINUOUS
10
4.8986796456692909
20
-2.8649026377952755
11
4.8904776771653546
21
-2.875919803149606
0
LINE
8
BLACK
6
CONTINUOUS
10
4.8904776771653546
20
-2.875919803149606
11
4.8810521653543306
21
-2.8859102755905512
0
LINE
8
BLACK
6
CONTINUOUS
10
4.8810521653543306
20
-2.8859102755905512
11
4.8705305511811021
21
-2.8947389763779525
0
LINE
8
BLACK
6
CONTINUOUS
10
4.8705305511811021
20
-2.8947389763779525
11
4.8590551181102359
21
-2.9022864566929134
0
LINE
8
BLACK
6
CONTINUOUS
10
4.8590551181102359
20
-2.9022864566929134
11
4.8467810629921262
21
-2.9084507086614173
0
LINE
8
BLACK
6
CONTINUOUS
10
4.8467810629921262
20
-2.9084507086614173
11
4.8338744094488186
21
-2.9131483858267715
0
LINE
8
BLACK
6
CONTINUOUS
10
4.8338744094488186
20
-2.9131483858267715
11
4.8205096456692909
21
-2.9163158661417321
0
LINE
8
BLACK
6
CONTINUOUS
10
4.8205096456692909
20
-2.9163158661417321
11
4.8068674803149607
21
-2.9179103937007875
0
LINE
8
BLACK
6
CONTINUOUS
10
4.8068674803149607
20
-2.9179103937007875
11
4.793132519685039
21
-2.9179103937007875
0
LINE
8
BLACK
6
CONTINUOUS
10
4.793132519685039
20
-2.9179103937007875
11
4.7794903543307088
21
-2.9163158661417321
0
LINE
8
BLACK
6
CONTINUOUS
10
4.7794903543307088
20
-2.9163158661417321
11
4.766125590551181
21
-2.9131483858267715
0
LINE
8
BLACK
6
CONTINUOUS
10
4.766125590551181
20
-2.9131483858267715
11
4.7532189370078743
21
-2.9084507086614173
0
LINE
8
BLACK
6
CONTINUOUS
10
4.7532189370078743
20
-2.9084507086614173
11
4.7409448818897637
21
-2.9022864566929134
0
LINE
8
BLACK
6
CONTINUOUS
10
4.7409448818897637
20
-2.9022864566929134
11
4.7294694488188975
21
-2.8947389763779525
0
LINE
8
BLACK
6
CONTINUOUS
10
4.7294694488188975
20
-2.8947389763779525
11
4.718947834645669
21
-2.8859102755905512
0
LINE
8
BLACK
6
CONTINUOUS
10
4.718947834645669
20
-2.8859102755905512
11
4.7095223228346459
21
-2.875919803149606
0
LINE
8
BLACK
6
CONTINUOUS
10
4.7095223228346459
20
-2.875919803149606
11
4.7013203543307087
21
-2.8649026377952755
0
LINE
8
BLACK
6
CONTINUOUS
10
4.7013203543307087
20
-2.8649026377952755
11
4.6944528346456691
21
-2.8530077952755906
0
LINE
8
BLACK
6
CONTINUOUS
10
4.6944528346456691
20
-2.8530077952755906
11
4.689012677165354
21
-2.8403960629921259
0
LINE
8
BLACK
6
CONTINUOUS
10
4.689012677165354
20
-2.8403960629921259
11
4.6850734251968502
21
-2.8272381102362205
0
LINE
8
BLACK
6
CONTINUOUS
10
4.6850734251968502
20
-2.8272381102362205
11
4.6826883858267712
21
-2.8137117716535434
0
LINE
8
BLACK
6
CONTINUOUS
10
4.6826883858267712
20
-2.8137117716535434
11
4.6818897637795276
21
-2.7999999999999998
0
LINE
8
BLACK
6
CONTINUOUS
10
4.6818897637795276
20
-2.7999999999999998
11
4.6826883858267712
21
-2.7862882283464567
0
LINE
8
BLACK
6
CONTINUOUS
10
4.6826883858267712
20
-2.7862882283464567
11
4.6850734251968502
21
-2.7727618897637796
0
LINE
8
BLACK
6
CONTINUOUS
10
4.6850734251968502
20
-2.7727618897637796
11
4.689012677165354
21
-2.7596039370078738
0
LINE
8
BLACK
6
CONTINUOUS
10
4.689012677165354
20
-2.7596039370078738
11
4.6944528346456691
21
-2.7469922047244095
0
LINE
8
BLACK
6
CONTINUOUS
10
4.6944528346456691
20
-2.7469922047244095
11
4.7013203543307087
21
-2.7350973622047245
0
LINE
8
BLACK
6
CONTINUOUS
10
4.7013203543307087
20
-2.7350973622047245
11
4.7095223228346459
21
-2.7240801968503936
0
LINE
8
BLACK
6
CONTINUOUS
10
4.7095223228346459
20
-2.7240801968503936
11
4.718947834645669
21
-2.7140897244094488
0
LINE
8
BLACK
6
CONTINUOUS
10
4.718947834645669
20
-2.7140897244094488
11
4.7294694488188975
21
-2.7052610236220471
0
LINE
8
BLACK
6
CONTINUOUS
10
4.7294694488188975
20
-2.7052610236220471
11
4.7409448818897637
21
-2.6977135433070867
0
LINE
8
BLACK
6
CONTINUOUS
10
4.7409448818897637
20
-2.6977135433070867
11
4.7532189370078743
21
-2.6915492913385828
0
LINE
8
BLACK
6
CONTINUOUS
10
4.7532189370078743
20
-2.6915492913385828
11
4.766125590551181
21
-2.6868516141732282
0
LINE
8
BLACK
6
CONTINUOUS
10
4.766125590551181
20
-2.6868516141732282
11
4.7794903543307088
21
-2.6836841338582675
0
LINE
8
BLACK
6
CONTINUOUS
10
4.7794903543307088
20
-2.6836841338582675
11
4.793132519685039
21
-2.6820896062992126
0
LINE
8
BLACK
6
CONTINUOUS
10
4.793132519685039
20
-2.6820896062992126
11
4.8068674803149607
21
-2.6820896062992126
0
LINE
8
BLACK
6
CONTINUOUS
10
4.8068674803149607
20
-2.6820896062992126
11
4.8205096456692909
21
-2.6836841338582675
0
LINE
8
BLACK
6
CONTINUOUS
10
6.020509645669291
20
-2.6836841338582675
11
6.0338744094488188
21
-2.6868516141732282
0
LINE
8
BLACK
6
CONTINUOUS
10
6.0338744094488188
20
-2.6868516141732282
11
6.0467810629921255
21
-2.6915492913385828
0
LINE
8
BLACK
6
CONTINUOUS
10
6.0467810629921255
20
-2.6915492913385828
11
6.0590551181102361
21
-2.6977135433070867
0
LINE
8
BLACK
6
CONTINUOUS
10
6.0590551181102361
20
-2.6977135433070867
11
6.0705305511811023
21
-2.7052610236220471
0
LINE
8
BLACK
6
CONTINUOUS
10
6.0705305511811023
20
-2.7052610236220471
11
6.0810521653543308
21
-2.7140897244094488
0
LINE
8
BLACK
6
CONTINUOUS
10
6.0810521653543308
20
-2.7140897244094488
11
6.0904776771653539
21
-2.7240801968503936
0
LINE
8
BLACK
6
CONTINUOUS
10
6.0904776771653539
20
-2.7240801968503936
11
6.0986796456692911
21
-2.7350973622047245
0
LINE
8
BLACK
6
CONTINUOUS
10
6.0986796456692911
20
-2.7350973622047245
11
6.1055471653543307
21
-2.7469922047244095
0
LINE
8
BLACK
6
CONTINUOUS
10
6.1055471653543307
20
-2.7469922047244095
11
6.1109873228346459
21
-2.7596039370078738
0
LINE
8
BLACK
6
CONTINUOUS
10
6.1109873228346459
20
-2.7596039370078738
11
6.1149265748031496
21
-2.7727618897637796
0
LINE
8
BLACK
6
CONTINUOUS
10
6.1149265748031496
20
-2.7727618897637796
11
6.1173116141732278
21
-2.7862882283464567
0
LINE
8
BLACK
6
CONTINUOUS
10
6.1173116141732278
20
-2.7862882283464567
11
6.1181102362204722
21
-2.7999999999999998
0
LINE
8
BLACK
6
CONTINUOUS
10
6.1181102362204722
20
-2.7999999999999998
11
6.1173116141732278
21
-2.8137117716535434
0
LINE
8
BLACK
6
CONTINUOUS
10
6.1173116141732278
20
-2.8137117716535434
11
6.1149265748031496
21
-2.8272381102362205
0
LINE
8
BLACK
6
CONTINUOUS
10
6.1149265748031496
20
-2.8272381102362205
11
6.1109873228346459
21
-2.8403960629921259
0
LINE
8
BLACK
6
CONTINUOUS
10
6.1109873228346459
20
-2.8403960629921259
11
6.1055471653543307
21
-2.8530077952755906
0
LINE
8
BLACK
6
CONTINUOUS
10
6.1055471653543307
20
-2.8530077952755906
11
6.0986796456692911
21
-2.8649026377952755
0
LINE
8
BLACK
6
CONTINUOUS
10
6.0986796456692911
20
-2.8649026377952755
11
6.0904776771653539
21
-2.875919803149606
0
LINE
8
BLACK
6
CONTINUOUS
10
6.0904776771653539
20
-2.875919803149606
11
6.0810521653543308
21
-2.8859102755905512
0
LINE
8
BLACK
6
CONTINUOUS
10
6.0810521653543308
20
-2.8859102755905512
11
6.0705305511811023
21
-2.8947389763779525
0
LINE
8
BLACK
6
CONTINUOUS
10
6.0705305511811023
20
-2.8947389763779525
11
6.0590551181102361
21
-2.9022864566929134
0
LINE
8
BLACK
6
CONTINUOUS
10
6.0590551181102361
20
-2.9022864566929134
11
6.0467810629921255
21
-2.9084507086614173
0
LINE
8
BLACK
6
CONTINUOUS
10
6.0467810629921255
20
-2.9084507086614173
11
6.0338744094488188
21
-2.9131483858267715
0
LINE
8
BLACK
6
CONTINUOUS
10
6.0338744094488188
20
-2.9131483858267715
11
6.020509645669291
21
-2.9163158661417321
0
LINE
8
BLACK
6
CONTINUOUS
10
6.020509645669291
20
-2.9163158661417321
11
6.0068674803149609
21
-2.9179103937007875
0
LINE
8
BLACK
6
CONTINUOUS
10
6.0068674803149609
20
-2.9179103937007875
11
5.9931325196850391
21
-2.9179103937007875
0
LINE
8
BLACK
6
CONTINUOUS
10
5.9931325196850391
20
-2.9179103937007875
11
5.979490354330709
21
-2.9163158661417321
0
LINE
8
BLACK
6
CONTINUOUS
10
5.979490354330709
20
-2.9163158661417321
11
5.9661255905511812
21
-2.9131483858267715
0
LINE
8
BLACK
6
CONTINUOUS
10
5.9661255905511812
20
-2.9131483858267715
11
5.9532189370078736
21
-2.9084507086614173
0
LINE
8
BLACK
6
CONTINUOUS
10
5.9532189370078736
20
-2.9084507086614173
11
5.9409448818897639
21
-2.9022864566929134
0
LINE
8
BLACK
6
CONTINUOUS
10
5.9409448818897639
20
-2.9022864566929134
11
5.9294694488188977
21
-2.8947389763779525
0
LINE
8
BLACK
6
CONTINUOUS
10
5.9294694488188977
20
-2.8947389763779525
11
5.9189478346456692
21
-2.8859102755905512
0
LINE
8
BLACK
6
CONTINUOUS
10
5.9189478346456692
20
-2.8859102755905512
11
5.9095223228346452
21
-2.875919803149606
0
LINE
8
BLACK
6
CONTINUOUS
10
5.9095223228346452
20
-2.875919803149606
11
5.9013203543307089
21
-2.8649026377952755
0
LINE
8
BLACK
6
CONTINUOUS
10
5.9013203543307089
20
-2.8649026377952755
11
5.8944528346456693
21
-2.8530077952755906
0
LINE
8
BLACK
6
CONTINUOUS
10
5.8944528346456693
20
-2.8530077952755906
11
5.8890126771653541
21
-2.8403960629921259
0
LINE
8
BLACK
6
CONTINUOUS
10
5.8890126771653541
20
-2.8403960629921259
11
5.8850734251968504
21
-2.8272381102362205
0
LINE
8
BLACK
6
CONTINUOUS
10
5.8850734251968504
20
-2.8272381102362205
11
5.8826883858267713
21
-2.8137117716535434
0
LINE
8
BLACK
6
CONTINUOUS
10
5.8826883858267713
20
-2.8137117716535434
11
5.8818897637795278
21
-2.7999999999999998
0
LINE
8
BLACK
6
CONTINUOUS
10
5.8818897637795278
20
-2.7999999999999998
11
5.8826883858267713
21
-2.7862882283464567
0
LINE
8
BLACK
6
CONTINUOUS
10
5.8826883858267713
20
-2.7862882283464567
11
5.8850734251968504
21
-2.7727618897637796
0
LINE
8
BLACK
6
CONTINUOUS
10
5.8850734251968504
20
-2.7727618897637796
11
5.8890126771653541
21
-2.7596039370078738
0
LINE
8
BLACK
6
CONTINUOUS
10
5.8890126771653541
20
-2.7596039370078738
11
5.8944528346456693
21
-2.7469922047244095
0
LINE
8
BLACK
6
CONTINUOUS
10
5.8944528346456693
20
-2.7469922047244095
11
5.9013203543307089
21
-2.7350973622047245
0
LINE
8
BLACK
6
CONTINUOUS
10
5.9013203543307089
20
-2.7350973622047245
11
5.9095223228346452
21
-2.7240801968503936
0
LINE
8
BLACK
6
CONTINUOUS
10
5.9095223228346452
20
-2.7240801968503936
11
5.9189478346456692
21
-2.7140897244094488
0
LINE
8
BLACK
6
CONTINUOUS
10
5.9189478346456692
20
-2.7140897244094488
11
5.9294694488188977
21
-2.7052610236220471
0
LINE
8
BLACK
6
CONTINUOUS
10
5.9294694488188977
20
-2.7052610236220471
11
5.9409448818897639
21
-2.6977135433070867
0
LINE
8
BLACK
6
CONTINUOUS
10
5.9409448818897639
20
-2.6977135433070867
11
5.9532189370078736
21
-2.6915492913385828
0
LINE
8
BLACK
6
CONTINUOUS
10
5.9532189370078736
20
-2.6915492913385828
11
5.9661255905511812
21
-2.6868516141732282
0
LINE
8
BLACK
6
CONTINUOUS
10
5.9661255905511812
20
-2.6868516141732282
11
5.979490354330709
21
-2.6836841338582675
0
LINE
8
BLACK
6
CONTINUOUS
10
5.979490354330709
20
-2.6836841338582675
11
5.9931325196850391
21
-2.6820896062992126
0
LINE
8
BLACK
6
CONTINUOUS
10
5.9931325196850391
20
-2.6820896062992126
11
6.0068674803149609
21
-2.6820896062992126
0
LINE
8
BLACK
6
CONTINUOUS
10
6.0068674803149609
20
-2.6820896062992126
11
6.020509645669291
21
-2.6836841338582675
  0
ENDSEC
  0
EOF
