  0
SECTION
  2
HEADER
  9
$ANGBASE
  50
0.0
  9
$ANGDIR
  70
1
  9
$MEASUREMENT
  70
0
  0
ENDSEC
  0
SECTION
  2
TABLES
  0
TABLE
  2
LTYPE
  70
4
  0
LTYPE
  5
40F
  2
CONTINUOUS
  70
0
  3
Solid line
  72
65
  73
0
  40
0.0
  0
LTYPE
  5
410
  2
DASHDOT
 70
0
  3
Dash Dot ____ _ ____ _
 72
65
 73
4
 40
2.0
 49
1.25
 49
-0.25
 49
0.25
 49
-0.25
  0
LTYPE
  5
411
  2
DASHED
 70
0
  3
Dashed __ __ __ __ __
 72
65
 73
2
 40
0.75
 49
0.5
 49
-0.25
  0
LTYPE
  5
43B
  2
DOTTED
 70
0
  3
Dotted .  .  .  .
 72
65
 73
2
 40
0.2
 49
0.0
 49
-0.2
  0
ENDTAB
  0
TABLE
  2
STYLE
  70
4
  0
STYLE
  2
KICAD
  70
0
  40
0
  41
1
  42
1
  50
0
  71
0
  3
isocp.shx
  0
STYLE
  2
KICADB
  70
0
  40
0
  41
1
  42
1
  50
0
  71
0
  3
isocp.shx
  0
STYLE
  2
KICADI
  70
0
  40
0
  41
1
  42
1
  50
15
  71
0
  3
isocp.shx
  0
STYLE
  2
KICADBI
  70
0
  40
0
  41
1
  42
1
  50
15
  71
0
  3
isocp.shx
  0
ENDTAB
  0
TABLE
  2
LAYER
  70
1
  0
LAYER
  2
BLACK
  70
0
  62
7
  6
CONTINUOUS
  0
ENDTAB
  0
ENDSEC
  0
SECTION
  2
ENTITIES
0
LINE
8
BLACK
6
CONTINUOUS
10
6.1903835039370074
20
-2.6071148425196848
11
6.1905127559055115
21
-2.6070920866141734
0
LINE
8
BLACK
6
CONTINUOUS
10
6.1905127559055115
20
-2.6070920866141734
11
6.1906263385826774
21
-2.6071576771653544
0
LINE
8
BLACK
6
CONTINUOUS
10
6.1906263385826774
20
-2.6071576771653544
11
6.191009921259842
21
-2.6072253149606297
0
LINE
8
BLACK
6
CONTINUOUS
10
6.191009921259842
20
-2.6072253149606297
11
6.1915975984251963
21
-2.6077184251968504
0
LINE
8
BLACK
6
CONTINUOUS
10
6.1915975984251963
20
-2.6077184251968504
11
6.1922619291338581
21
-2.6081020078740158
0
LINE
8
BLACK
6
CONTINUOUS
10
6.1922619291338581
20
-2.6081020078740158
11
6.1923530314960624
21
-2.6083523228346457
0
LINE
8
BLACK
6
CONTINUOUS
10
6.1923530314960624
20
-2.6083523228346457
11
6.192557165354331
21
-2.6085236220472439
0
LINE
8
BLACK
6
CONTINUOUS
10
6.192557165354331
20
-2.6085236220472439
11
6.1926903937007873
21
-2.6092791732283462
0
LINE
8
BLACK
6
CONTINUOUS
10
6.1926903937007873
20
-2.6092791732283462
11
6.1929527559055115
21
-2.6099999999999999
0
LINE
8
BLACK
6
CONTINUOUS
10
6.1929527559055115
20
-2.6099999999999999
11
6.1929527559055115
21
-4.1899999999999995
0
LINE
8
BLACK
6
CONTINUOUS
10
6.1929527559055115
20
-4.1899999999999995
11
6.1928851181102358
21
-4.1903835039370074
0
LINE
8
BLACK
6
CONTINUOUS
10
6.1928851181102358
20
-4.1903835039370074
11
6.1929079133858265
21
-4.1905127559055115
0
LINE
8
BLACK
6
CONTINUOUS
10
6.1929079133858265
20
-4.1905127559055115
11
6.1928422834645671
21
-4.1906263385826774
0
LINE
8
BLACK
6
CONTINUOUS
10
6.1928422834645671
20
-4.1906263385826774
11
6.1927746850393701
21
-4.1910099212598428
0
LINE
8
BLACK
6
CONTINUOUS
10
6.1927746850393701
20
-4.1910099212598428
11
6.1922815354330707
21
-4.1915975984251972
0
LINE
8
BLACK
6
CONTINUOUS
10
6.1922815354330707
20
-4.1915975984251972
11
6.191897992125984
21
-4.1922619291338581
0
LINE
8
BLACK
6
CONTINUOUS
10
6.191897992125984
20
-4.1922619291338581
11
6.1916476377952758
21
-4.1923530314960633
0
LINE
8
BLACK
6
CONTINUOUS
10
6.1916476377952758
20
-4.1923530314960633
11
6.191476377952756
21
-4.192557165354331
0
LINE
8
BLACK
6
CONTINUOUS
10
6.191476377952756
20
-4.192557165354331
11
6.1907207874015748
21
-4.1926903937007873
0
LINE
8
BLACK
6
CONTINUOUS
10
6.1907207874015748
20
-4.1926903937007873
11
6.1899999999999995
21
-4.1929527559055115
0
LINE
8
BLACK
6
CONTINUOUS
10
6.1899999999999995
20
-4.1929527559055115
11
4.6100000000000003
21
-4.1929527559055115
0
LINE
8
BLACK
6
CONTINUOUS
10
4.6100000000000003
20
-4.1929527559055115
11
4.6096164566929136
21
-4.1928851181102358
0
LINE
8
BLACK
6
CONTINUOUS
10
4.6096164566929136
20
-4.1928851181102358
11
4.6094872440944883
21
-4.1929079133858265
0
LINE
8
BLACK
6
CONTINUOUS
10
4.6094872440944883
20
-4.1929079133858265
11
4.6093736220472437
21
-4.1928422834645671
0
LINE
8
BLACK
6
CONTINUOUS
10
4.6093736220472437
20
-4.1928422834645671
11
4.608990078740157
21
-4.1927746850393701
0
LINE
8
BLACK
6
CONTINUOUS
10
4.608990078740157
20
-4.1927746850393701
11
4.6084023622047239
21
-4.1922815354330707
0
LINE
8
BLACK
6
CONTINUOUS
10
4.6084023622047239
20
-4.1922815354330707
11
4.6077380708661417
21
-4.191897992125984
0
LINE
8
BLACK
6
CONTINUOUS
10
4.6077380708661417
20
-4.191897992125984
11
4.6076469291338578
21
-4.1916476377952758
0
LINE
8
BLACK
6
CONTINUOUS
10
4.6076469291338578
20
-4.1916476377952758
11
4.6074428346456688
21
-4.191476377952756
0
LINE
8
BLACK
6
CONTINUOUS
10
4.6074428346456688
20
-4.191476377952756
11
4.6073095669291337
21
-4.1907207874015748
0
LINE
8
BLACK
6
CONTINUOUS
10
4.6073095669291337
20
-4.1907207874015748
11
4.6070472440944883
21
-4.1899999999999995
0
LINE
8
BLACK
6
CONTINUOUS
10
4.6070472440944883
20
-4.1899999999999995
11
4.6070472440944883
21
-2.6099999999999999
0
LINE
8
BLACK
6
CONTINUOUS
10
4.6070472440944883
20
-2.6099999999999999
11
4.6071148425196853
21
-2.6096164566929132
0
LINE
8
BLACK
6
CONTINUOUS
10
4.6071148425196853
20
-2.6096164566929132
11
4.6070920866141734
21
-2.6094872440944883
0
LINE
8
BLACK
6
CONTINUOUS
10
4.6070920866141734
20
-2.6094872440944883
11
4.607157677165354
21
-2.6093736220472441
0
LINE
8
BLACK
6
CONTINUOUS
10
4.607157677165354
20
-2.6093736220472441
11
4.6072253149606297
21
-2.6089900787401574
0
LINE
8
BLACK
6
CONTINUOUS
10
4.6072253149606297
20
-2.6089900787401574
11
4.6077184251968504
21
-2.6084023622047243
0
LINE
8
BLACK
6
CONTINUOUS
10
4.6077184251968504
20
-2.6084023622047243
11
4.6081020078740158
21
-2.6077380708661417
0
LINE
8
BLACK
6
CONTINUOUS
10
4.6081020078740158
20
-2.6077380708661417
11
4.6083523228346452
21
-2.6076469291338582
0
LINE
8
BLACK
6
CONTINUOUS
10
4.6083523228346452
20
-2.6076469291338582
11
4.6085236220472439
21
-2.6074428346456693
0
LINE
8
BLACK
6
CONTINUOUS
10
4.6085236220472439
20
-2.6074428346456693
11
4.6092791732283462
21
-2.6073095669291337
0
LINE
8
BLACK
6
CONTINUOUS
10
4.6092791732283462
20
-2.6073095669291337
11
4.6100000000000003
21
-2.6070472440944883
0
LINE
8
BLACK
6
CONTINUOUS
10
4.6100000000000003
20
-2.6070472440944883
11
6.1899999999999995
21
-2.6070472440944883
0
LINE
8
BLACK
6
CONTINUOUS
10
6.1899999999999995
20
-2.6070472440944883
11
6.1903835039370074
21
-2.6071148425196848
0
LINE
8
BLACK
6
CONTINUOUS
10
4.6129527559055115
20
-2.6129527559055119
11
4.6129527559055115
21
-4.1870472440944884
0
LINE
8
BLACK
6
CONTINUOUS
10
4.6129527559055115
20
-4.1870472440944884
11
6.1870472440944884
21
-4.1870472440944884
0
LINE
8
BLACK
6
CONTINUOUS
10
6.1870472440944884
20
-4.1870472440944884
11
6.1870472440944884
21
-2.6129527559055119
0
LINE
8
BLACK
6
CONTINUOUS
10
6.1870472440944884
20
-2.6129527559055119
11
4.6129527559055115
21
-2.6129527559055119
  0
ENDSEC
  0
EOF
