  0
SECTION
  2
HEADER
  9
$ANGBASE
  50
0.0
  9
$ANGDIR
  70
1
  9
$MEASUREMENT
  70
0
  0
ENDSEC
  0
SECTION
  2
TABLES
  0
TABLE
  2
LTYPE
  70
4
  0
LTYPE
  5
40F
  2
CONTINUOUS
  70
0
  3
Solid line
  72
65
  73
0
  40
0.0
  0
LTYPE
  5
410
  2
DASHDOT
 70
0
  3
Dash Dot ____ _ ____ _
 72
65
 73
4
 40
2.0
 49
1.25
 49
-0.25
 49
0.25
 49
-0.25
  0
LTYPE
  5
411
  2
DASHED
 70
0
  3
Dashed __ __ __ __ __
 72
65
 73
2
 40
0.75
 49
0.5
 49
-0.25
  0
LTYPE
  5
43B
  2
DOTTED
 70
0
  3
Dotted .  .  .  .
 72
65
 73
2
 40
0.2
 49
0.0
 49
-0.2
  0
ENDTAB
  0
TABLE
  2
STYLE
  70
4
  0
STYLE
  2
KICAD
  70
0
  40
0
  41
1
  42
1
  50
0
  71
0
  3
isocp.shx
  0
STYLE
  2
KICADB
  70
0
  40
0
  41
1
  42
1
  50
0
  71
0
  3
isocp.shx
  0
STYLE
  2
KICADI
  70
0
  40
0
  41
1
  42
1
  50
15
  71
0
  3
isocp.shx
  0
STYLE
  2
KICADBI
  70
0
  40
0
  41
1
  42
1
  50
15
  71
0
  3
isocp.shx
  0
ENDTAB
  0
TABLE
  2
LAYER
  70
1
  0
LAYER
  2
BLACK
  70
0
  62
7
  6
CONTINUOUS
  0
ENDTAB
  0
ENDSEC
  0
SECTION
  2
ENTITIES
0
LINE
8
BLACK
6
CONTINUOUS
10
5.2603149606299215
20
-3.8946062992125983
11
5.2209448818897632
21
-3.8946062992125983
0
LINE
8
BLACK
6
CONTINUOUS
10
5.2209448818897632
20
-3.8946062992125983
11
5.2209448818897632
21
-3.8453937007874015
0
LINE
8
BLACK
6
CONTINUOUS
10
5.2209448818897632
20
-3.8453937007874015
11
5.2603149606299215
21
-3.8453937007874015
0
LINE
8
BLACK
6
CONTINUOUS
10
5.2603149606299215
20
-3.8453937007874015
11
5.2603149606299215
21
-3.8946062992125983
0
LINE
8
BLACK
6
CONTINUOUS
10
5.3390551181102364
20
-3.8946062992125983
11
5.299685039370079
21
-3.8946062992125983
0
LINE
8
BLACK
6
CONTINUOUS
10
5.299685039370079
20
-3.8946062992125983
11
5.299685039370079
21
-3.8453937007874015
0
LINE
8
BLACK
6
CONTINUOUS
10
5.299685039370079
20
-3.8453937007874015
11
5.3390551181102364
21
-3.8453937007874015
0
LINE
8
BLACK
6
CONTINUOUS
10
5.3390551181102364
20
-3.8453937007874015
11
5.3390551181102364
21
-3.8946062992125983
0
LINE
8
BLACK
6
CONTINUOUS
10
5.1391338582677166
20
-3.7968110236220474
11
5.0544881889763777
21
-3.7968110236220474
0
LINE
8
BLACK
6
CONTINUOUS
10
5.0544881889763777
20
-3.7968110236220474
11
5.0544881889763777
21
-3.7731889763779525
0
LINE
8
BLACK
6
CONTINUOUS
10
5.0544881889763777
20
-3.7731889763779525
11
5.1391338582677166
21
-3.7731889763779525
0
LINE
8
BLACK
6
CONTINUOUS
10
5.1391338582677166
20
-3.7731889763779525
11
5.1391338582677166
21
-3.7968110236220474
0
LINE
8
BLACK
6
CONTINUOUS
10
5.3655118110236222
20
-3.7968110236220474
11
5.2808661417322833
21
-3.7968110236220474
0
LINE
8
BLACK
6
CONTINUOUS
10
5.2808661417322833
20
-3.7968110236220474
11
5.2808661417322833
21
-3.7731889763779525
0
LINE
8
BLACK
6
CONTINUOUS
10
5.2808661417322833
20
-3.7731889763779525
11
5.3655118110236222
21
-3.7731889763779525
0
LINE
8
BLACK
6
CONTINUOUS
10
5.3655118110236222
20
-3.7731889763779525
11
5.3655118110236222
21
-3.7968110236220474
0
LINE
8
BLACK
6
CONTINUOUS
10
5.0046062992125986
20
-3.7890551181102361
11
4.9553937007874014
21
-3.7890551181102361
0
LINE
8
BLACK
6
CONTINUOUS
10
4.9553937007874014
20
-3.7890551181102361
11
4.9553937007874014
21
-3.7496850393700787
0
LINE
8
BLACK
6
CONTINUOUS
10
4.9553937007874014
20
-3.7496850393700787
11
5.0046062992125986
21
-3.7496850393700787
0
LINE
8
BLACK
6
CONTINUOUS
10
5.0046062992125986
20
-3.7496850393700787
11
5.0046062992125986
21
-3.7890551181102361
0
LINE
8
BLACK
6
CONTINUOUS
10
4.8463779527559057
20
-3.7855905511811021
11
4.8188188976377955
21
-3.7855905511811021
0
LINE
8
BLACK
6
CONTINUOUS
10
4.8188188976377955
20
-3.7855905511811021
11
4.8188188976377955
21
-3.7344094488188975
0
LINE
8
BLACK
6
CONTINUOUS
10
4.8188188976377955
20
-3.7344094488188975
11
4.8463779527559057
21
-3.7344094488188975
0
LINE
8
BLACK
6
CONTINUOUS
10
4.8463779527559057
20
-3.7344094488188975
11
4.8463779527559057
21
-3.7855905511811021
0
LINE
8
BLACK
6
CONTINUOUS
10
4.9211811023622047
20
-3.7855905511811021
11
4.8936220472440946
21
-3.7855905511811021
0
LINE
8
BLACK
6
CONTINUOUS
10
4.8936220472440946
20
-3.7855905511811021
11
4.8936220472440946
21
-3.7344094488188975
0
LINE
8
BLACK
6
CONTINUOUS
10
4.8936220472440946
20
-3.7344094488188975
11
4.9211811023622047
21
-3.7344094488188975
0
LINE
8
BLACK
6
CONTINUOUS
10
4.9211811023622047
20
-3.7344094488188975
11
4.9211811023622047
21
-3.7855905511811021
0
LINE
8
BLACK
6
CONTINUOUS
10
4.7063779527559051
20
-3.7805905511811022
11
4.6788188976377949
21
-3.7805905511811022
0
LINE
8
BLACK
6
CONTINUOUS
10
4.6788188976377949
20
-3.7805905511811022
11
4.6788188976377949
21
-3.7294094488188976
0
LINE
8
BLACK
6
CONTINUOUS
10
4.6788188976377949
20
-3.7294094488188976
11
4.7063779527559051
21
-3.7294094488188976
0
LINE
8
BLACK
6
CONTINUOUS
10
4.7063779527559051
20
-3.7294094488188976
11
4.7063779527559051
21
-3.7805905511811022
0
LINE
8
BLACK
6
CONTINUOUS
10
4.7811811023622042
20
-3.7805905511811022
11
4.753622047244094
21
-3.7805905511811022
0
LINE
8
BLACK
6
CONTINUOUS
10
4.753622047244094
20
-3.7805905511811022
11
4.753622047244094
21
-3.7294094488188976
0
LINE
8
BLACK
6
CONTINUOUS
10
4.753622047244094
20
-3.7294094488188976
11
4.7811811023622042
21
-3.7294094488188976
0
LINE
8
BLACK
6
CONTINUOUS
10
4.7811811023622042
20
-3.7294094488188976
11
4.7811811023622042
21
-3.7805905511811022
0
LINE
8
BLACK
6
CONTINUOUS
10
5.2007480314960626
20
-3.7700078740157479
11
5.1729921259842522
21
-3.7700078740157479
0
LINE
8
BLACK
6
CONTINUOUS
10
5.1729921259842522
20
-3.7700078740157479
11
5.1729921259842522
21
-3.742251968503937
0
LINE
8
BLACK
6
CONTINUOUS
10
5.1729921259842522
20
-3.742251968503937
11
5.2007480314960626
21
-3.742251968503937
0
LINE
8
BLACK
6
CONTINUOUS
10
5.2007480314960626
20
-3.742251968503937
11
5.2007480314960626
21
-3.7700078740157479
0
LINE
8
BLACK
6
CONTINUOUS
10
5.2470078740157478
20
-3.7700078740157479
11
5.2192519685039365
21
-3.7700078740157479
0
LINE
8
BLACK
6
CONTINUOUS
10
5.2192519685039365
20
-3.7700078740157479
11
5.2192519685039365
21
-3.742251968503937
0
LINE
8
BLACK
6
CONTINUOUS
10
5.2192519685039365
20
-3.742251968503937
11
5.2470078740157478
21
-3.742251968503937
0
LINE
8
BLACK
6
CONTINUOUS
10
5.2470078740157478
20
-3.742251968503937
11
5.2470078740157478
21
-3.7700078740157479
0
LINE
8
BLACK
6
CONTINUOUS
10
5.1391338582677166
20
-3.7468110236220471
11
5.0544881889763777
21
-3.7468110236220471
0
LINE
8
BLACK
6
CONTINUOUS
10
5.0544881889763777
20
-3.7468110236220471
11
5.0544881889763777
21
-3.7231889763779527
0
LINE
8
BLACK
6
CONTINUOUS
10
5.0544881889763777
20
-3.7231889763779527
11
5.1391338582677166
21
-3.7231889763779527
0
LINE
8
BLACK
6
CONTINUOUS
10
5.1391338582677166
20
-3.7231889763779527
11
5.1391338582677166
21
-3.7468110236220471
0
LINE
8
BLACK
6
CONTINUOUS
10
5.3655118110236222
20
-3.7468110236220471
11
5.2808661417322833
21
-3.7468110236220471
0
LINE
8
BLACK
6
CONTINUOUS
10
5.2808661417322833
20
-3.7468110236220471
11
5.2808661417322833
21
-3.7231889763779527
0
LINE
8
BLACK
6
CONTINUOUS
10
5.2808661417322833
20
-3.7231889763779527
11
5.3655118110236222
21
-3.7231889763779527
0
LINE
8
BLACK
6
CONTINUOUS
10
5.3655118110236222
20
-3.7231889763779527
11
5.3655118110236222
21
-3.7468110236220471
0
LINE
8
BLACK
6
CONTINUOUS
10
5.2007480314960626
20
-3.7237480314960627
11
5.1729921259842522
21
-3.7237480314960627
0
LINE
8
BLACK
6
CONTINUOUS
10
5.1729921259842522
20
-3.7237480314960627
11
5.1729921259842522
21
-3.6959921259842519
0
LINE
8
BLACK
6
CONTINUOUS
10
5.1729921259842522
20
-3.6959921259842519
11
5.2007480314960626
21
-3.6959921259842519
0
LINE
8
BLACK
6
CONTINUOUS
10
5.2007480314960626
20
-3.6959921259842519
11
5.2007480314960626
21
-3.7237480314960627
0
LINE
8
BLACK
6
CONTINUOUS
10
5.2470078740157478
20
-3.7237480314960627
11
5.2192519685039365
21
-3.7237480314960627
0
LINE
8
BLACK
6
CONTINUOUS
10
5.2192519685039365
20
-3.7237480314960627
11
5.2192519685039365
21
-3.6959921259842519
0
LINE
8
BLACK
6
CONTINUOUS
10
5.2192519685039365
20
-3.6959921259842519
11
5.2470078740157478
21
-3.6959921259842519
0
LINE
8
BLACK
6
CONTINUOUS
10
5.2470078740157478
20
-3.6959921259842519
11
5.2470078740157478
21
-3.7237480314960627
0
LINE
8
BLACK
6
CONTINUOUS
10
5.5278346456692908
20
-3.7194881889763778
11
5.4321653543307082
21
-3.7194881889763778
0
LINE
8
BLACK
6
CONTINUOUS
10
5.4321653543307082
20
-3.7194881889763778
11
5.4321653543307082
21
-3.6261811023622048
0
LINE
8
BLACK
6
CONTINUOUS
10
5.4321653543307082
20
-3.6261811023622048
11
5.5278346456692908
21
-3.6261811023622048
0
LINE
8
BLACK
6
CONTINUOUS
10
5.5278346456692908
20
-3.6261811023622048
11
5.5278346456692908
21
-3.7194881889763778
0
LINE
8
BLACK
6
CONTINUOUS
10
5.0046062992125986
20
-3.7103149606299213
11
4.9553937007874014
21
-3.7103149606299213
0
LINE
8
BLACK
6
CONTINUOUS
10
4.9553937007874014
20
-3.7103149606299213
11
4.9553937007874014
21
-3.6709448818897639
0
LINE
8
BLACK
6
CONTINUOUS
10
4.9553937007874014
20
-3.6709448818897639
11
5.0046062992125986
21
-3.6709448818897639
0
LINE
8
BLACK
6
CONTINUOUS
10
5.0046062992125986
20
-3.6709448818897639
11
5.0046062992125986
21
-3.7103149606299213
0
LINE
8
BLACK
6
CONTINUOUS
10
4.8546062992125982
20
-3.709055118110236
11
4.805393700787401
21
-3.709055118110236
0
LINE
8
BLACK
6
CONTINUOUS
10
4.805393700787401
20
-3.709055118110236
11
4.805393700787401
21
-3.6696850393700786
0
LINE
8
BLACK
6
CONTINUOUS
10
4.805393700787401
20
-3.6696850393700786
11
4.8546062992125982
21
-3.6696850393700786
0
LINE
8
BLACK
6
CONTINUOUS
10
4.8546062992125982
20
-3.6696850393700786
11
4.8546062992125982
21
-3.709055118110236
0
LINE
8
BLACK
6
CONTINUOUS
10
5.1391338582677166
20
-3.6968110236220473
11
5.0544881889763777
21
-3.6968110236220473
0
LINE
8
BLACK
6
CONTINUOUS
10
5.0544881889763777
20
-3.6968110236220473
11
5.0544881889763777
21
-3.6731889763779528
0
LINE
8
BLACK
6
CONTINUOUS
10
5.0544881889763777
20
-3.6731889763779528
11
5.1391338582677166
21
-3.6731889763779528
0
LINE
8
BLACK
6
CONTINUOUS
10
5.1391338582677166
20
-3.6731889763779528
11
5.1391338582677166
21
-3.6968110236220473
0
LINE
8
BLACK
6
CONTINUOUS
10
5.3655118110236222
20
-3.6968110236220473
11
5.2808661417322833
21
-3.6968110236220473
0
LINE
8
BLACK
6
CONTINUOUS
10
5.2808661417322833
20
-3.6968110236220473
11
5.2808661417322833
21
-3.6731889763779528
0
LINE
8
BLACK
6
CONTINUOUS
10
5.2808661417322833
20
-3.6731889763779528
11
5.3655118110236222
21
-3.6731889763779528
0
LINE
8
BLACK
6
CONTINUOUS
10
5.3655118110236222
20
-3.6731889763779528
11
5.3655118110236222
21
-3.6968110236220473
0
LINE
8
BLACK
6
CONTINUOUS
10
4.7063779527559051
20
-3.6805905511811021
11
4.6788188976377949
21
-3.6805905511811021
0
LINE
8
BLACK
6
CONTINUOUS
10
4.6788188976377949
20
-3.6805905511811021
11
4.6788188976377949
21
-3.6294094488188975
0
LINE
8
BLACK
6
CONTINUOUS
10
4.6788188976377949
20
-3.6294094488188975
11
4.7063779527559051
21
-3.6294094488188975
0
LINE
8
BLACK
6
CONTINUOUS
10
4.7063779527559051
20
-3.6294094488188975
11
4.7063779527559051
21
-3.6805905511811021
0
LINE
8
BLACK
6
CONTINUOUS
10
4.7811811023622042
20
-3.6805905511811021
11
4.753622047244094
21
-3.6805905511811021
0
LINE
8
BLACK
6
CONTINUOUS
10
4.753622047244094
20
-3.6805905511811021
11
4.753622047244094
21
-3.6294094488188975
0
LINE
8
BLACK
6
CONTINUOUS
10
4.753622047244094
20
-3.6294094488188975
11
4.7811811023622042
21
-3.6294094488188975
0
LINE
8
BLACK
6
CONTINUOUS
10
4.7811811023622042
20
-3.6294094488188975
11
4.7811811023622042
21
-3.6805905511811021
0
LINE
8
BLACK
6
CONTINUOUS
10
5.2007779527559057
20
-3.6774779527559054
11
5.1730220472440944
21
-3.6774779527559054
0
LINE
8
BLACK
6
CONTINUOUS
10
5.1730220472440944
20
-3.6774779527559054
11
5.1730220472440944
21
-3.6497220472440945
0
LINE
8
BLACK
6
CONTINUOUS
10
5.1730220472440944
20
-3.6497220472440945
11
5.2007779527559057
21
-3.6497220472440945
0
LINE
8
BLACK
6
CONTINUOUS
10
5.2007779527559057
20
-3.6497220472440945
11
5.2007779527559057
21
-3.6774779527559054
0
LINE
8
BLACK
6
CONTINUOUS
10
5.2470779527559053
20
-3.6774779527559054
11
5.219322047244094
21
-3.6774779527559054
0
LINE
8
BLACK
6
CONTINUOUS
10
5.219322047244094
20
-3.6774779527559054
11
5.219322047244094
21
-3.6497220472440945
0
LINE
8
BLACK
6
CONTINUOUS
10
5.219322047244094
20
-3.6497220472440945
11
5.2470779527559053
21
-3.6497220472440945
0
LINE
8
BLACK
6
CONTINUOUS
10
5.2470779527559053
20
-3.6497220472440945
11
5.2470779527559053
21
-3.6774779527559054
0
LINE
8
BLACK
6
CONTINUOUS
10
5.5946062992125984
20
-3.6640551181102361
11
5.5453937007874012
21
-3.6640551181102361
0
LINE
8
BLACK
6
CONTINUOUS
10
5.5453937007874012
20
-3.6640551181102361
11
5.5453937007874012
21
-3.6246850393700787
0
LINE
8
BLACK
6
CONTINUOUS
10
5.5453937007874012
20
-3.6246850393700787
11
5.5946062992125984
21
-3.6246850393700787
0
LINE
8
BLACK
6
CONTINUOUS
10
5.5946062992125984
20
-3.6246850393700787
11
5.5946062992125984
21
-3.6640551181102361
0
LINE
8
BLACK
6
CONTINUOUS
10
5.6696062992125986
20
-3.6640551181102361
11
5.6203937007874014
21
-3.6640551181102361
0
LINE
8
BLACK
6
CONTINUOUS
10
5.6203937007874014
20
-3.6640551181102361
11
5.6203937007874014
21
-3.6246850393700787
0
LINE
8
BLACK
6
CONTINUOUS
10
5.6203937007874014
20
-3.6246850393700787
11
5.6696062992125986
21
-3.6246850393700787
0
LINE
8
BLACK
6
CONTINUOUS
10
5.6696062992125986
20
-3.6246850393700787
11
5.6696062992125986
21
-3.6640551181102361
0
LINE
8
BLACK
6
CONTINUOUS
10
5.1391338582677166
20
-3.646811023622047
11
5.0544881889763777
21
-3.646811023622047
0
LINE
8
BLACK
6
CONTINUOUS
10
5.0544881889763777
20
-3.646811023622047
11
5.0544881889763777
21
-3.6231889763779526
0
LINE
8
BLACK
6
CONTINUOUS
10
5.0544881889763777
20
-3.6231889763779526
11
5.1391338582677166
21
-3.6231889763779526
0
LINE
8
BLACK
6
CONTINUOUS
10
5.1391338582677166
20
-3.6231889763779526
11
5.1391338582677166
21
-3.646811023622047
0
LINE
8
BLACK
6
CONTINUOUS
10
5.3655118110236222
20
-3.646811023622047
11
5.2808661417322833
21
-3.646811023622047
0
LINE
8
BLACK
6
CONTINUOUS
10
5.2808661417322833
20
-3.646811023622047
11
5.2808661417322833
21
-3.6231889763779526
0
LINE
8
BLACK
6
CONTINUOUS
10
5.2808661417322833
20
-3.6231889763779526
11
5.3655118110236222
21
-3.6231889763779526
0
LINE
8
BLACK
6
CONTINUOUS
10
5.3655118110236222
20
-3.6231889763779526
11
5.3655118110236222
21
-3.646811023622047
0
LINE
8
BLACK
6
CONTINUOUS
10
4.8546062992125982
20
-3.6303149606299212
11
4.805393700787401
21
-3.6303149606299212
0
LINE
8
BLACK
6
CONTINUOUS
10
4.805393700787401
20
-3.6303149606299212
11
4.805393700787401
21
-3.5909448818897638
0
LINE
8
BLACK
6
CONTINUOUS
10
4.805393700787401
20
-3.5909448818897638
11
4.8546062992125982
21
-3.5909448818897638
0
LINE
8
BLACK
6
CONTINUOUS
10
4.8546062992125982
20
-3.5909448818897638
11
4.8546062992125982
21
-3.6303149606299212
0
LINE
8
BLACK
6
CONTINUOUS
10
5.0153149606299214
20
-3.6046062992125982
11
4.975944881889764
21
-3.6046062992125982
0
LINE
8
BLACK
6
CONTINUOUS
10
4.975944881889764
20
-3.6046062992125982
11
4.975944881889764
21
-3.5553937007874015
0
LINE
8
BLACK
6
CONTINUOUS
10
4.975944881889764
20
-3.5553937007874015
11
5.0153149606299214
21
-3.5553937007874015
0
LINE
8
BLACK
6
CONTINUOUS
10
5.0153149606299214
20
-3.5553937007874015
11
5.0153149606299214
21
-3.6046062992125982
0
LINE
8
BLACK
6
CONTINUOUS
10
5.0940551181102363
20
-3.6046062992125982
11
5.0546850393700788
21
-3.6046062992125982
0
LINE
8
BLACK
6
CONTINUOUS
10
5.0546850393700788
20
-3.6046062992125982
11
5.0546850393700788
21
-3.5553937007874015
0
LINE
8
BLACK
6
CONTINUOUS
10
5.0546850393700788
20
-3.5553937007874015
11
5.0940551181102363
21
-3.5553937007874015
0
LINE
8
BLACK
6
CONTINUOUS
10
5.0940551181102363
20
-3.5553937007874015
11
5.0940551181102363
21
-3.6046062992125982
0
LINE
8
BLACK
6
CONTINUOUS
10
5.5946062992125984
20
-3.5853149606299213
11
5.5453937007874012
21
-3.5853149606299213
0
LINE
8
BLACK
6
CONTINUOUS
10
5.5453937007874012
20
-3.5853149606299213
11
5.5453937007874012
21
-3.5459448818897639
0
LINE
8
BLACK
6
CONTINUOUS
10
5.5453937007874012
20
-3.5459448818897639
11
5.5946062992125984
21
-3.5459448818897639
0
LINE
8
BLACK
6
CONTINUOUS
10
5.5946062992125984
20
-3.5459448818897639
11
5.5946062992125984
21
-3.5853149606299213
0
LINE
8
BLACK
6
CONTINUOUS
10
5.6696062992125986
20
-3.5853149606299213
11
5.6203937007874014
21
-3.5853149606299213
0
LINE
8
BLACK
6
CONTINUOUS
10
5.6203937007874014
20
-3.5853149606299213
11
5.6203937007874014
21
-3.5459448818897639
0
LINE
8
BLACK
6
CONTINUOUS
10
5.6203937007874014
20
-3.5459448818897639
11
5.6696062992125986
21
-3.5459448818897639
0
LINE
8
BLACK
6
CONTINUOUS
10
5.6696062992125986
20
-3.5459448818897639
11
5.6696062992125986
21
-3.5853149606299213
0
LINE
8
BLACK
6
CONTINUOUS
10
4.9228350393700788
20
-3.5230000000000001
11
4.7771649606299214
21
-3.5230000000000001
0
LINE
8
BLACK
6
CONTINUOUS
10
4.7771649606299214
20
-3.5230000000000001
11
4.7771649606299214
21
-3.4836
0
LINE
8
BLACK
6
CONTINUOUS
10
4.7771649606299214
20
-3.4836
11
4.9228350393700788
21
-3.4836
0
LINE
8
BLACK
6
CONTINUOUS
10
4.9228350393700788
20
-3.4836
11
4.9228350393700788
21
-3.5230000000000001
0
LINE
8
BLACK
6
CONTINUOUS
10
5.0944488188976376
20
-3.4779921259842519
11
4.9920866141732283
21
-3.4779921259842519
0
LINE
8
BLACK
6
CONTINUOUS
10
4.9920866141732283
20
-3.4779921259842519
11
4.9920866141732283
21
-3.3520078740157477
0
LINE
8
BLACK
6
CONTINUOUS
10
4.9920866141732283
20
-3.3520078740157477
11
5.0944488188976376
21
-3.3520078740157477
0
LINE
8
BLACK
6
CONTINUOUS
10
5.0944488188976376
20
-3.3520078740157477
11
5.0944488188976376
21
-3.4779921259842519
0
LINE
8
BLACK
6
CONTINUOUS
10
5.3779133858267718
20
-3.4779921259842519
11
5.2755511811023617
21
-3.4779921259842519
0
LINE
8
BLACK
6
CONTINUOUS
10
5.2755511811023617
20
-3.4779921259842519
11
5.2755511811023617
21
-3.3520078740157477
0
LINE
8
BLACK
6
CONTINUOUS
10
5.2755511811023617
20
-3.3520078740157477
11
5.3779133858267718
21
-3.3520078740157477
0
LINE
8
BLACK
6
CONTINUOUS
10
5.3779133858267718
20
-3.3520078740157477
11
5.3779133858267718
21
-3.4779921259842519
0
LINE
8
BLACK
6
CONTINUOUS
10
5.5278346456692908
20
-3.4738188976377953
11
5.4321653543307082
21
-3.4738188976377953
0
LINE
8
BLACK
6
CONTINUOUS
10
5.4321653543307082
20
-3.4738188976377953
11
5.4321653543307082
21
-3.3805118110236219
0
LINE
8
BLACK
6
CONTINUOUS
10
5.4321653543307082
20
-3.3805118110236219
11
5.5278346456692908
21
-3.3805118110236219
0
LINE
8
BLACK
6
CONTINUOUS
10
5.5278346456692908
20
-3.3805118110236219
11
5.5278346456692908
21
-3.4738188976377953
0
LINE
8
BLACK
6
CONTINUOUS
10
4.9228350393700788
20
-3.4363999999999999
11
4.7771649606299214
21
-3.4363999999999999
0
LINE
8
BLACK
6
CONTINUOUS
10
4.7771649606299214
20
-3.4363999999999999
11
4.7771649606299214
21
-3.3969999999999998
0
LINE
8
BLACK
6
CONTINUOUS
10
4.7771649606299214
20
-3.3969999999999998
11
4.9228350393700788
21
-3.3969999999999998
0
LINE
8
BLACK
6
CONTINUOUS
10
4.9228350393700788
20
-3.3969999999999998
11
4.9228350393700788
21
-3.4363999999999999
0
LINE
8
BLACK
6
CONTINUOUS
10
4.8106299212598422
20
-3.3014960629921259
11
4.7712598425196848
21
-3.3014960629921259
0
LINE
8
BLACK
6
CONTINUOUS
10
4.7712598425196848
20
-3.3014960629921259
11
4.7712598425196848
21
-3.2385039370078741
0
LINE
8
BLACK
6
CONTINUOUS
10
4.7712598425196848
20
-3.2385039370078741
11
4.8106299212598422
21
-3.2385039370078741
0
LINE
8
BLACK
6
CONTINUOUS
10
4.8106299212598422
20
-3.2385039370078741
11
4.8106299212598422
21
-3.3014960629921259
0
LINE
8
BLACK
6
CONTINUOUS
10
4.9287401574803145
20
-3.3014960629921259
11
4.8893700787401571
21
-3.3014960629921259
0
LINE
8
BLACK
6
CONTINUOUS
10
4.8893700787401571
20
-3.3014960629921259
11
4.8893700787401571
21
-3.2385039370078741
0
LINE
8
BLACK
6
CONTINUOUS
10
4.8893700787401571
20
-3.2385039370078741
11
4.9287401574803145
21
-3.2385039370078741
0
LINE
8
BLACK
6
CONTINUOUS
10
4.9287401574803145
20
-3.2385039370078741
11
4.9287401574803145
21
-3.3014960629921259
0
LINE
8
BLACK
6
CONTINUOUS
10
5.6214960629921258
20
-3.2637401574803149
11
5.5585039370078739
21
-3.2637401574803149
0
LINE
8
BLACK
6
CONTINUOUS
10
5.5585039370078739
20
-3.2637401574803149
11
5.5585039370078739
21
-3.2243700787401575
0
LINE
8
BLACK
6
CONTINUOUS
10
5.5585039370078739
20
-3.2243700787401575
11
5.6214960629921258
21
-3.2243700787401575
0
LINE
8
BLACK
6
CONTINUOUS
10
5.6214960629921258
20
-3.2243700787401575
11
5.6214960629921258
21
-3.2637401574803149
0
LINE
8
BLACK
6
CONTINUOUS
10
5.4938976377952757
20
-3.2629133858267716
11
5.4061023622047246
21
-3.2629133858267716
0
LINE
8
BLACK
6
CONTINUOUS
10
5.4061023622047246
20
-3.2629133858267716
11
5.4061023622047246
21
-3.1920472440944883
0
LINE
8
BLACK
6
CONTINUOUS
10
5.4061023622047246
20
-3.1920472440944883
11
5.4938976377952757
21
-3.1920472440944883
0
LINE
8
BLACK
6
CONTINUOUS
10
5.4938976377952757
20
-3.1920472440944883
11
5.4938976377952757
21
-3.2629133858267716
0
LINE
8
BLACK
6
CONTINUOUS
10
5.1194094488188977
20
-3.2538976377952755
11
5.0261023622047247
21
-3.2538976377952755
0
LINE
8
BLACK
6
CONTINUOUS
10
5.0261023622047247
20
-3.2538976377952755
11
5.0261023622047247
21
-3.1661023622047244
0
LINE
8
BLACK
6
CONTINUOUS
10
5.0261023622047247
20
-3.1661023622047244
11
5.1194094488188977
21
-3.1661023622047244
0
LINE
8
BLACK
6
CONTINUOUS
10
5.1194094488188977
20
-3.1661023622047244
11
5.1194094488188977
21
-3.2538976377952755
0
LINE
8
BLACK
6
CONTINUOUS
10
5.3138976377952751
20
-3.2538976377952755
11
5.2205905511811022
21
-3.2538976377952755
0
LINE
8
BLACK
6
CONTINUOUS
10
5.2205905511811022
20
-3.2538976377952755
11
5.2205905511811022
21
-3.1661023622047244
0
LINE
8
BLACK
6
CONTINUOUS
10
5.2205905511811022
20
-3.1661023622047244
11
5.3138976377952751
21
-3.1661023622047244
0
LINE
8
BLACK
6
CONTINUOUS
10
5.3138976377952751
20
-3.1661023622047244
11
5.3138976377952751
21
-3.2538976377952755
0
LINE
8
BLACK
6
CONTINUOUS
10
5.4938976377952757
20
-3.1479527559055116
11
5.4061023622047246
21
-3.1479527559055116
0
LINE
8
BLACK
6
CONTINUOUS
10
5.4061023622047246
20
-3.1479527559055116
11
5.4061023622047246
21
-3.0770866141732283
0
LINE
8
BLACK
6
CONTINUOUS
10
5.4061023622047246
20
-3.0770866141732283
11
5.4938976377952757
21
-3.0770866141732283
0
LINE
8
BLACK
6
CONTINUOUS
10
5.4938976377952757
20
-3.0770866141732283
11
5.4938976377952757
21
-3.1479527559055116
0
LINE
8
BLACK
6
CONTINUOUS
10
5.6214960629921258
20
-3.1456299212598426
11
5.5585039370078739
21
-3.1456299212598426
0
LINE
8
BLACK
6
CONTINUOUS
10
5.5585039370078739
20
-3.1456299212598426
11
5.5585039370078739
21
-3.1062598425196848
0
LINE
8
BLACK
6
CONTINUOUS
10
5.5585039370078739
20
-3.1062598425196848
11
5.6214960629921258
21
-3.1062598425196848
0
LINE
8
BLACK
6
CONTINUOUS
10
5.6214960629921258
20
-3.1062598425196848
11
5.6214960629921258
21
-3.1456299212598426
0
LINE
8
BLACK
6
CONTINUOUS
10
5.2563779527559058
20
-3.1055905511811024
11
5.2288188976377947
21
-3.1055905511811024
0
LINE
8
BLACK
6
CONTINUOUS
10
5.2288188976377947
20
-3.1055905511811024
11
5.2288188976377947
21
-3.0544094488188978
0
LINE
8
BLACK
6
CONTINUOUS
10
5.2288188976377947
20
-3.0544094488188978
11
5.2563779527559058
21
-3.0544094488188978
0
LINE
8
BLACK
6
CONTINUOUS
10
5.2563779527559058
20
-3.0544094488188978
11
5.2563779527559058
21
-3.1055905511811024
0
LINE
8
BLACK
6
CONTINUOUS
10
5.3311811023622049
20
-3.1055905511811024
11
5.3036220472440947
21
-3.1055905511811024
0
LINE
8
BLACK
6
CONTINUOUS
10
5.3036220472440947
20
-3.1055905511811024
11
5.3036220472440947
21
-3.0544094488188978
0
LINE
8
BLACK
6
CONTINUOUS
10
5.3036220472440947
20
-3.0544094488188978
11
5.3311811023622049
21
-3.0544094488188978
0
LINE
8
BLACK
6
CONTINUOUS
10
5.3311811023622049
20
-3.0544094488188978
11
5.3311811023622049
21
-3.1055905511811024
0
LINE
8
BLACK
6
CONTINUOUS
10
5.5105905511811022
20
-2.9961811023622045
11
5.4594094488188976
21
-2.9961811023622045
0
LINE
8
BLACK
6
CONTINUOUS
10
5.4594094488188976
20
-2.9961811023622045
11
5.4594094488188976
21
-2.9686220472440943
0
LINE
8
BLACK
6
CONTINUOUS
10
5.4594094488188976
20
-2.9686220472440943
11
5.5105905511811022
21
-2.9686220472440943
0
LINE
8
BLACK
6
CONTINUOUS
10
5.5105905511811022
20
-2.9686220472440943
11
5.5105905511811022
21
-2.9961811023622045
0
LINE
8
BLACK
6
CONTINUOUS
10
5.5105905511811022
20
-2.9213779527559054
11
5.4594094488188976
21
-2.9213779527559054
0
LINE
8
BLACK
6
CONTINUOUS
10
5.4594094488188976
20
-2.9213779527559054
11
5.4594094488188976
21
-2.8938188976377952
0
LINE
8
BLACK
6
CONTINUOUS
10
5.4594094488188976
20
-2.8938188976377952
11
5.5105905511811022
21
-2.8938188976377952
0
LINE
8
BLACK
6
CONTINUOUS
10
5.5105905511811022
20
-2.8938188976377952
11
5.5105905511811022
21
-2.9213779527559054
  0
ENDSEC
  0
EOF
