  0
SECTION
  2
HEADER
  9
$ANGBASE
  50
0.0
  9
$ANGDIR
  70
1
  9
$MEASUREMENT
  70
0
  0
ENDSEC
  0
SECTION
  2
TABLES
  0
TABLE
  2
LTYPE
  70
4
  0
LTYPE
  5
40F
  2
CONTINUOUS
  70
0
  3
Solid line
  72
65
  73
0
  40
0.0
  0
LTYPE
  5
410
  2
DASHDOT
 70
0
  3
Dash Dot ____ _ ____ _
 72
65
 73
4
 40
2.0
 49
1.25
 49
-0.25
 49
0.25
 49
-0.25
  0
LTYPE
  5
411
  2
DASHED
 70
0
  3
Dashed __ __ __ __ __
 72
65
 73
2
 40
0.75
 49
0.5
 49
-0.25
  0
LTYPE
  5
43B
  2
DOTTED
 70
0
  3
Dotted .  .  .  .
 72
65
 73
2
 40
0.2
 49
0.0
 49
-0.2
  0
ENDTAB
  0
TABLE
  2
STYLE
  70
4
  0
STYLE
  2
KICAD
  70
0
  40
0
  41
1
  42
1
  50
0
  71
0
  3
isocp.shx
  0
STYLE
  2
KICADB
  70
0
  40
0
  41
1
  42
1
  50
0
  71
0
  3
isocp.shx
  0
STYLE
  2
KICADI
  70
0
  40
0
  41
1
  42
1
  50
15
  71
0
  3
isocp.shx
  0
STYLE
  2
KICADBI
  70
0
  40
0
  41
1
  42
1
  50
15
  71
0
  3
isocp.shx
  0
ENDTAB
  0
TABLE
  2
LAYER
  70
1
  0
LAYER
  2
BLACK
  70
0
  62
7
  6
CONTINUOUS
  0
ENDTAB
  0
ENDSEC
  0
SECTION
  2
ENTITIES
0
LINE
8
BLACK
6
CONTINUOUS
10
5.26031
20
-3.89461
11
5.22094
21
-3.89461
0
LINE
8
BLACK
6
CONTINUOUS
10
5.22094
20
-3.89461
11
5.22094
21
-3.84539
0
LINE
8
BLACK
6
CONTINUOUS
10
5.22094
20
-3.84539
11
5.26031
21
-3.84539
0
LINE
8
BLACK
6
CONTINUOUS
10
5.26031
20
-3.84539
11
5.26031
21
-3.89461
0
LINE
8
BLACK
6
CONTINUOUS
10
5.33906
20
-3.89461
11
5.29969
21
-3.89461
0
LINE
8
BLACK
6
CONTINUOUS
10
5.29969
20
-3.89461
11
5.29969
21
-3.84539
0
LINE
8
BLACK
6
CONTINUOUS
10
5.29969
20
-3.84539
11
5.33906
21
-3.84539
0
LINE
8
BLACK
6
CONTINUOUS
10
5.33906
20
-3.84539
11
5.33906
21
-3.89461
0
LINE
8
BLACK
6
CONTINUOUS
10
5.13913
20
-3.79681
11
5.05449
21
-3.79681
0
LINE
8
BLACK
6
CONTINUOUS
10
5.05449
20
-3.79681
11
5.05449
21
-3.77319
0
LINE
8
BLACK
6
CONTINUOUS
10
5.05449
20
-3.77319
11
5.13913
21
-3.77319
0
LINE
8
BLACK
6
CONTINUOUS
10
5.13913
20
-3.77319
11
5.13913
21
-3.79681
0
LINE
8
BLACK
6
CONTINUOUS
10
5.36551
20
-3.79681
11
5.28087
21
-3.79681
0
LINE
8
BLACK
6
CONTINUOUS
10
5.28087
20
-3.79681
11
5.28087
21
-3.77319
0
LINE
8
BLACK
6
CONTINUOUS
10
5.28087
20
-3.77319
11
5.36551
21
-3.77319
0
LINE
8
BLACK
6
CONTINUOUS
10
5.36551
20
-3.77319
11
5.36551
21
-3.79681
0
LINE
8
BLACK
6
CONTINUOUS
10
5.00461
20
-3.78906
11
4.95539
21
-3.78906
0
LINE
8
BLACK
6
CONTINUOUS
10
4.95539
20
-3.78906
11
4.95539
21
-3.74969
0
LINE
8
BLACK
6
CONTINUOUS
10
4.95539
20
-3.74969
11
5.00461
21
-3.74969
0
LINE
8
BLACK
6
CONTINUOUS
10
5.00461
20
-3.74969
11
5.00461
21
-3.78906
0
LINE
8
BLACK
6
CONTINUOUS
10
4.84638
20
-3.78559
11
4.81882
21
-3.78559
0
LINE
8
BLACK
6
CONTINUOUS
10
4.81882
20
-3.78559
11
4.81882
21
-3.73441
0
LINE
8
BLACK
6
CONTINUOUS
10
4.81882
20
-3.73441
11
4.84638
21
-3.73441
0
LINE
8
BLACK
6
CONTINUOUS
10
4.84638
20
-3.73441
11
4.84638
21
-3.78559
0
LINE
8
BLACK
6
CONTINUOUS
10
4.92118
20
-3.78559
11
4.89362
21
-3.78559
0
LINE
8
BLACK
6
CONTINUOUS
10
4.89362
20
-3.78559
11
4.89362
21
-3.73441
0
LINE
8
BLACK
6
CONTINUOUS
10
4.89362
20
-3.73441
11
4.92118
21
-3.73441
0
LINE
8
BLACK
6
CONTINUOUS
10
4.92118
20
-3.73441
11
4.92118
21
-3.78559
0
LINE
8
BLACK
6
CONTINUOUS
10
4.70638
20
-3.78059
11
4.67882
21
-3.78059
0
LINE
8
BLACK
6
CONTINUOUS
10
4.67882
20
-3.78059
11
4.67882
21
-3.72941
0
LINE
8
BLACK
6
CONTINUOUS
10
4.67882
20
-3.72941
11
4.70638
21
-3.72941
0
LINE
8
BLACK
6
CONTINUOUS
10
4.70638
20
-3.72941
11
4.70638
21
-3.78059
0
LINE
8
BLACK
6
CONTINUOUS
10
4.78118
20
-3.78059
11
4.75362
21
-3.78059
0
LINE
8
BLACK
6
CONTINUOUS
10
4.75362
20
-3.78059
11
4.75362
21
-3.72941
0
LINE
8
BLACK
6
CONTINUOUS
10
4.75362
20
-3.72941
11
4.78118
21
-3.72941
0
LINE
8
BLACK
6
CONTINUOUS
10
4.78118
20
-3.72941
11
4.78118
21
-3.78059
0
LINE
8
BLACK
6
CONTINUOUS
10
5.20075
20
-3.77001
11
5.17299
21
-3.77001
0
LINE
8
BLACK
6
CONTINUOUS
10
5.17299
20
-3.77001
11
5.17299
21
-3.74225
0
LINE
8
BLACK
6
CONTINUOUS
10
5.17299
20
-3.74225
11
5.20075
21
-3.74225
0
LINE
8
BLACK
6
CONTINUOUS
10
5.20075
20
-3.74225
11
5.20075
21
-3.77001
0
LINE
8
BLACK
6
CONTINUOUS
10
5.24701
20
-3.77001
11
5.21925
21
-3.77001
0
LINE
8
BLACK
6
CONTINUOUS
10
5.21925
20
-3.77001
11
5.21925
21
-3.74225
0
LINE
8
BLACK
6
CONTINUOUS
10
5.21925
20
-3.74225
11
5.24701
21
-3.74225
0
LINE
8
BLACK
6
CONTINUOUS
10
5.24701
20
-3.74225
11
5.24701
21
-3.77001
0
LINE
8
BLACK
6
CONTINUOUS
10
5.13913
20
-3.74681
11
5.05449
21
-3.74681
0
LINE
8
BLACK
6
CONTINUOUS
10
5.05449
20
-3.74681
11
5.05449
21
-3.72319
0
LINE
8
BLACK
6
CONTINUOUS
10
5.05449
20
-3.72319
11
5.13913
21
-3.72319
0
LINE
8
BLACK
6
CONTINUOUS
10
5.13913
20
-3.72319
11
5.13913
21
-3.74681
0
LINE
8
BLACK
6
CONTINUOUS
10
5.36551
20
-3.74681
11
5.28087
21
-3.74681
0
LINE
8
BLACK
6
CONTINUOUS
10
5.28087
20
-3.74681
11
5.28087
21
-3.72319
0
LINE
8
BLACK
6
CONTINUOUS
10
5.28087
20
-3.72319
11
5.36551
21
-3.72319
0
LINE
8
BLACK
6
CONTINUOUS
10
5.36551
20
-3.72319
11
5.36551
21
-3.74681
0
LINE
8
BLACK
6
CONTINUOUS
10
5.20075
20
-3.72375
11
5.17299
21
-3.72375
0
LINE
8
BLACK
6
CONTINUOUS
10
5.17299
20
-3.72375
11
5.17299
21
-3.69599
0
LINE
8
BLACK
6
CONTINUOUS
10
5.17299
20
-3.69599
11
5.20075
21
-3.69599
0
LINE
8
BLACK
6
CONTINUOUS
10
5.20075
20
-3.69599
11
5.20075
21
-3.72375
0
LINE
8
BLACK
6
CONTINUOUS
10
5.24701
20
-3.72375
11
5.21925
21
-3.72375
0
LINE
8
BLACK
6
CONTINUOUS
10
5.21925
20
-3.72375
11
5.21925
21
-3.69599
0
LINE
8
BLACK
6
CONTINUOUS
10
5.21925
20
-3.69599
11
5.24701
21
-3.69599
0
LINE
8
BLACK
6
CONTINUOUS
10
5.24701
20
-3.69599
11
5.24701
21
-3.72375
0
LINE
8
BLACK
6
CONTINUOUS
10
5.52783
20
-3.71949
11
5.43217
21
-3.71949
0
LINE
8
BLACK
6
CONTINUOUS
10
5.43217
20
-3.71949
11
5.43217
21
-3.62618
0
LINE
8
BLACK
6
CONTINUOUS
10
5.43217
20
-3.62618
11
5.52783
21
-3.62618
0
LINE
8
BLACK
6
CONTINUOUS
10
5.52783
20
-3.62618
11
5.52783
21
-3.71949
0
LINE
8
BLACK
6
CONTINUOUS
10
5.00461
20
-3.71031
11
4.95539
21
-3.71031
0
LINE
8
BLACK
6
CONTINUOUS
10
4.95539
20
-3.71031
11
4.95539
21
-3.67094
0
LINE
8
BLACK
6
CONTINUOUS
10
4.95539
20
-3.67094
11
5.00461
21
-3.67094
0
LINE
8
BLACK
6
CONTINUOUS
10
5.00461
20
-3.67094
11
5.00461
21
-3.71031
0
LINE
8
BLACK
6
CONTINUOUS
10
4.85461
20
-3.70906
11
4.80539
21
-3.70906
0
LINE
8
BLACK
6
CONTINUOUS
10
4.80539
20
-3.70906
11
4.80539
21
-3.66969
0
LINE
8
BLACK
6
CONTINUOUS
10
4.80539
20
-3.66969
11
4.85461
21
-3.66969
0
LINE
8
BLACK
6
CONTINUOUS
10
4.85461
20
-3.66969
11
4.85461
21
-3.70906
0
LINE
8
BLACK
6
CONTINUOUS
10
5.13913
20
-3.69681
11
5.05449
21
-3.69681
0
LINE
8
BLACK
6
CONTINUOUS
10
5.05449
20
-3.69681
11
5.05449
21
-3.67319
0
LINE
8
BLACK
6
CONTINUOUS
10
5.05449
20
-3.67319
11
5.13913
21
-3.67319
0
LINE
8
BLACK
6
CONTINUOUS
10
5.13913
20
-3.67319
11
5.13913
21
-3.69681
0
LINE
8
BLACK
6
CONTINUOUS
10
5.36551
20
-3.69681
11
5.28087
21
-3.69681
0
LINE
8
BLACK
6
CONTINUOUS
10
5.28087
20
-3.69681
11
5.28087
21
-3.67319
0
LINE
8
BLACK
6
CONTINUOUS
10
5.28087
20
-3.67319
11
5.36551
21
-3.67319
0
LINE
8
BLACK
6
CONTINUOUS
10
5.36551
20
-3.67319
11
5.36551
21
-3.69681
0
LINE
8
BLACK
6
CONTINUOUS
10
4.70638
20
-3.68059
11
4.67882
21
-3.68059
0
LINE
8
BLACK
6
CONTINUOUS
10
4.67882
20
-3.68059
11
4.67882
21
-3.62941
0
LINE
8
BLACK
6
CONTINUOUS
10
4.67882
20
-3.62941
11
4.70638
21
-3.62941
0
LINE
8
BLACK
6
CONTINUOUS
10
4.70638
20
-3.62941
11
4.70638
21
-3.68059
0
LINE
8
BLACK
6
CONTINUOUS
10
4.78118
20
-3.68059
11
4.75362
21
-3.68059
0
LINE
8
BLACK
6
CONTINUOUS
10
4.75362
20
-3.68059
11
4.75362
21
-3.62941
0
LINE
8
BLACK
6
CONTINUOUS
10
4.75362
20
-3.62941
11
4.78118
21
-3.62941
0
LINE
8
BLACK
6
CONTINUOUS
10
4.78118
20
-3.62941
11
4.78118
21
-3.68059
0
LINE
8
BLACK
6
CONTINUOUS
10
5.20078
20
-3.67748
11
5.17302
21
-3.67748
0
LINE
8
BLACK
6
CONTINUOUS
10
5.17302
20
-3.67748
11
5.17302
21
-3.64972
0
LINE
8
BLACK
6
CONTINUOUS
10
5.17302
20
-3.64972
11
5.20078
21
-3.64972
0
LINE
8
BLACK
6
CONTINUOUS
10
5.20078
20
-3.64972
11
5.20078
21
-3.67748
0
LINE
8
BLACK
6
CONTINUOUS
10
5.24708
20
-3.67748
11
5.21932
21
-3.67748
0
LINE
8
BLACK
6
CONTINUOUS
10
5.21932
20
-3.67748
11
5.21932
21
-3.64972
0
LINE
8
BLACK
6
CONTINUOUS
10
5.21932
20
-3.64972
11
5.24708
21
-3.64972
0
LINE
8
BLACK
6
CONTINUOUS
10
5.24708
20
-3.64972
11
5.24708
21
-3.67748
0
LINE
8
BLACK
6
CONTINUOUS
10
5.59461
20
-3.66406
11
5.54539
21
-3.66406
0
LINE
8
BLACK
6
CONTINUOUS
10
5.54539
20
-3.66406
11
5.54539
21
-3.62469
0
LINE
8
BLACK
6
CONTINUOUS
10
5.54539
20
-3.62469
11
5.59461
21
-3.62469
0
LINE
8
BLACK
6
CONTINUOUS
10
5.59461
20
-3.62469
11
5.59461
21
-3.66406
0
LINE
8
BLACK
6
CONTINUOUS
10
5.66961
20
-3.66406
11
5.62039
21
-3.66406
0
LINE
8
BLACK
6
CONTINUOUS
10
5.62039
20
-3.66406
11
5.62039
21
-3.62469
0
LINE
8
BLACK
6
CONTINUOUS
10
5.62039
20
-3.62469
11
5.66961
21
-3.62469
0
LINE
8
BLACK
6
CONTINUOUS
10
5.66961
20
-3.62469
11
5.66961
21
-3.66406
0
LINE
8
BLACK
6
CONTINUOUS
10
5.13913
20
-3.64681
11
5.05449
21
-3.64681
0
LINE
8
BLACK
6
CONTINUOUS
10
5.05449
20
-3.64681
11
5.05449
21
-3.62319
0
LINE
8
BLACK
6
CONTINUOUS
10
5.05449
20
-3.62319
11
5.13913
21
-3.62319
0
LINE
8
BLACK
6
CONTINUOUS
10
5.13913
20
-3.62319
11
5.13913
21
-3.64681
0
LINE
8
BLACK
6
CONTINUOUS
10
5.36551
20
-3.64681
11
5.28087
21
-3.64681
0
LINE
8
BLACK
6
CONTINUOUS
10
5.28087
20
-3.64681
11
5.28087
21
-3.62319
0
LINE
8
BLACK
6
CONTINUOUS
10
5.28087
20
-3.62319
11
5.36551
21
-3.62319
0
LINE
8
BLACK
6
CONTINUOUS
10
5.36551
20
-3.62319
11
5.36551
21
-3.64681
0
LINE
8
BLACK
6
CONTINUOUS
10
4.85461
20
-3.63031
11
4.80539
21
-3.63031
0
LINE
8
BLACK
6
CONTINUOUS
10
4.80539
20
-3.63031
11
4.80539
21
-3.59094
0
LINE
8
BLACK
6
CONTINUOUS
10
4.80539
20
-3.59094
11
4.85461
21
-3.59094
0
LINE
8
BLACK
6
CONTINUOUS
10
4.85461
20
-3.59094
11
4.85461
21
-3.63031
0
LINE
8
BLACK
6
CONTINUOUS
10
5.01531
20
-3.60461
11
4.97594
21
-3.60461
0
LINE
8
BLACK
6
CONTINUOUS
10
4.97594
20
-3.60461
11
4.97594
21
-3.55539
0
LINE
8
BLACK
6
CONTINUOUS
10
4.97594
20
-3.55539
11
5.01531
21
-3.55539
0
LINE
8
BLACK
6
CONTINUOUS
10
5.01531
20
-3.55539
11
5.01531
21
-3.60461
0
LINE
8
BLACK
6
CONTINUOUS
10
5.09406
20
-3.60461
11
5.05469
21
-3.60461
0
LINE
8
BLACK
6
CONTINUOUS
10
5.05469
20
-3.60461
11
5.05469
21
-3.55539
0
LINE
8
BLACK
6
CONTINUOUS
10
5.05469
20
-3.55539
11
5.09406
21
-3.55539
0
LINE
8
BLACK
6
CONTINUOUS
10
5.09406
20
-3.55539
11
5.09406
21
-3.60461
0
LINE
8
BLACK
6
CONTINUOUS
10
5.59461
20
-3.58531
11
5.54539
21
-3.58531
0
LINE
8
BLACK
6
CONTINUOUS
10
5.54539
20
-3.58531
11
5.54539
21
-3.54594
0
LINE
8
BLACK
6
CONTINUOUS
10
5.54539
20
-3.54594
11
5.59461
21
-3.54594
0
LINE
8
BLACK
6
CONTINUOUS
10
5.59461
20
-3.54594
11
5.59461
21
-3.58531
0
LINE
8
BLACK
6
CONTINUOUS
10
5.66961
20
-3.58531
11
5.62039
21
-3.58531
0
LINE
8
BLACK
6
CONTINUOUS
10
5.62039
20
-3.58531
11
5.62039
21
-3.54594
0
LINE
8
BLACK
6
CONTINUOUS
10
5.62039
20
-3.54594
11
5.66961
21
-3.54594
0
LINE
8
BLACK
6
CONTINUOUS
10
5.66961
20
-3.54594
11
5.66961
21
-3.58531
0
LINE
8
BLACK
6
CONTINUOUS
10
4.92284
20
-3.523
11
4.77716
21
-3.523
0
LINE
8
BLACK
6
CONTINUOUS
10
4.77716
20
-3.523
11
4.77716
21
-3.4836
0
LINE
8
BLACK
6
CONTINUOUS
10
4.77716
20
-3.4836
11
4.92284
21
-3.4836
0
LINE
8
BLACK
6
CONTINUOUS
10
4.92284
20
-3.4836
11
4.92284
21
-3.523
0
LINE
8
BLACK
6
CONTINUOUS
10
5.09445
20
-3.47799
11
4.99209
21
-3.47799
0
LINE
8
BLACK
6
CONTINUOUS
10
4.99209
20
-3.47799
11
4.99209
21
-3.35201
0
LINE
8
BLACK
6
CONTINUOUS
10
4.99209
20
-3.35201
11
5.09445
21
-3.35201
0
LINE
8
BLACK
6
CONTINUOUS
10
5.09445
20
-3.35201
11
5.09445
21
-3.47799
0
LINE
8
BLACK
6
CONTINUOUS
10
5.37791
20
-3.47799
11
5.27555
21
-3.47799
0
LINE
8
BLACK
6
CONTINUOUS
10
5.27555
20
-3.47799
11
5.27555
21
-3.35201
0
LINE
8
BLACK
6
CONTINUOUS
10
5.27555
20
-3.35201
11
5.37791
21
-3.35201
0
LINE
8
BLACK
6
CONTINUOUS
10
5.37791
20
-3.35201
11
5.37791
21
-3.47799
0
LINE
8
BLACK
6
CONTINUOUS
10
5.52783
20
-3.47382
11
5.43217
21
-3.47382
0
LINE
8
BLACK
6
CONTINUOUS
10
5.43217
20
-3.47382
11
5.43217
21
-3.38051
0
LINE
8
BLACK
6
CONTINUOUS
10
5.43217
20
-3.38051
11
5.52783
21
-3.38051
0
LINE
8
BLACK
6
CONTINUOUS
10
5.52783
20
-3.38051
11
5.52783
21
-3.47382
0
LINE
8
BLACK
6
CONTINUOUS
10
4.92284
20
-3.4364
11
4.77716
21
-3.4364
0
LINE
8
BLACK
6
CONTINUOUS
10
4.77716
20
-3.4364
11
4.77716
21
-3.397
0
LINE
8
BLACK
6
CONTINUOUS
10
4.77716
20
-3.397
11
4.92284
21
-3.397
0
LINE
8
BLACK
6
CONTINUOUS
10
4.92284
20
-3.397
11
4.92284
21
-3.4364
0
LINE
8
BLACK
6
CONTINUOUS
10
4.81063
20
-3.3015
11
4.77126
21
-3.3015
0
LINE
8
BLACK
6
CONTINUOUS
10
4.77126
20
-3.3015
11
4.77126
21
-3.2385
0
LINE
8
BLACK
6
CONTINUOUS
10
4.77126
20
-3.2385
11
4.81063
21
-3.2385
0
LINE
8
BLACK
6
CONTINUOUS
10
4.81063
20
-3.2385
11
4.81063
21
-3.3015
0
LINE
8
BLACK
6
CONTINUOUS
10
4.92874
20
-3.3015
11
4.88937
21
-3.3015
0
LINE
8
BLACK
6
CONTINUOUS
10
4.88937
20
-3.3015
11
4.88937
21
-3.2385
0
LINE
8
BLACK
6
CONTINUOUS
10
4.88937
20
-3.2385
11
4.92874
21
-3.2385
0
LINE
8
BLACK
6
CONTINUOUS
10
4.92874
20
-3.2385
11
4.92874
21
-3.3015
0
LINE
8
BLACK
6
CONTINUOUS
10
5.6215
20
-3.26374
11
5.5585
21
-3.26374
0
LINE
8
BLACK
6
CONTINUOUS
10
5.5585
20
-3.26374
11
5.5585
21
-3.22437
0
LINE
8
BLACK
6
CONTINUOUS
10
5.5585
20
-3.22437
11
5.6215
21
-3.22437
0
LINE
8
BLACK
6
CONTINUOUS
10
5.6215
20
-3.22437
11
5.6215
21
-3.26374
0
LINE
8
BLACK
6
CONTINUOUS
10
5.4939
20
-3.26291
11
5.4061
21
-3.26291
0
LINE
8
BLACK
6
CONTINUOUS
10
5.4061
20
-3.26291
11
5.4061
21
-3.19205
0
LINE
8
BLACK
6
CONTINUOUS
10
5.4061
20
-3.19205
11
5.4939
21
-3.19205
0
LINE
8
BLACK
6
CONTINUOUS
10
5.4939
20
-3.19205
11
5.4939
21
-3.26291
0
LINE
8
BLACK
6
CONTINUOUS
10
5.11941
20
-3.2539
11
5.0261
21
-3.2539
0
LINE
8
BLACK
6
CONTINUOUS
10
5.0261
20
-3.2539
11
5.0261
21
-3.1661
0
LINE
8
BLACK
6
CONTINUOUS
10
5.0261
20
-3.1661
11
5.11941
21
-3.1661
0
LINE
8
BLACK
6
CONTINUOUS
10
5.11941
20
-3.1661
11
5.11941
21
-3.2539
0
LINE
8
BLACK
6
CONTINUOUS
10
5.3139
20
-3.2539
11
5.22059
21
-3.2539
0
LINE
8
BLACK
6
CONTINUOUS
10
5.22059
20
-3.2539
11
5.22059
21
-3.1661
0
LINE
8
BLACK
6
CONTINUOUS
10
5.22059
20
-3.1661
11
5.3139
21
-3.1661
0
LINE
8
BLACK
6
CONTINUOUS
10
5.3139
20
-3.1661
11
5.3139
21
-3.2539
0
LINE
8
BLACK
6
CONTINUOUS
10
5.4939
20
-3.14795
11
5.4061
21
-3.14795
0
LINE
8
BLACK
6
CONTINUOUS
10
5.4061
20
-3.14795
11
5.4061
21
-3.07709
0
LINE
8
BLACK
6
CONTINUOUS
10
5.4061
20
-3.07709
11
5.4939
21
-3.07709
0
LINE
8
BLACK
6
CONTINUOUS
10
5.4939
20
-3.07709
11
5.4939
21
-3.14795
0
LINE
8
BLACK
6
CONTINUOUS
10
5.6215
20
-3.14563
11
5.5585
21
-3.14563
0
LINE
8
BLACK
6
CONTINUOUS
10
5.5585
20
-3.14563
11
5.5585
21
-3.10626
0
LINE
8
BLACK
6
CONTINUOUS
10
5.5585
20
-3.10626
11
5.6215
21
-3.10626
0
LINE
8
BLACK
6
CONTINUOUS
10
5.6215
20
-3.10626
11
5.6215
21
-3.14563
0
LINE
8
BLACK
6
CONTINUOUS
10
5.25638
20
-3.10559
11
5.22882
21
-3.10559
0
LINE
8
BLACK
6
CONTINUOUS
10
5.22882
20
-3.10559
11
5.22882
21
-3.05441
0
LINE
8
BLACK
6
CONTINUOUS
10
5.22882
20
-3.05441
11
5.25638
21
-3.05441
0
LINE
8
BLACK
6
CONTINUOUS
10
5.25638
20
-3.05441
11
5.25638
21
-3.10559
0
LINE
8
BLACK
6
CONTINUOUS
10
5.33118
20
-3.10559
11
5.30362
21
-3.10559
0
LINE
8
BLACK
6
CONTINUOUS
10
5.30362
20
-3.10559
11
5.30362
21
-3.05441
0
LINE
8
BLACK
6
CONTINUOUS
10
5.30362
20
-3.05441
11
5.33118
21
-3.05441
0
LINE
8
BLACK
6
CONTINUOUS
10
5.33118
20
-3.05441
11
5.33118
21
-3.10559
0
LINE
8
BLACK
6
CONTINUOUS
10
5.51059
20
-2.99618
11
5.45941
21
-2.99618
0
LINE
8
BLACK
6
CONTINUOUS
10
5.45941
20
-2.99618
11
5.45941
21
-2.96862
0
LINE
8
BLACK
6
CONTINUOUS
10
5.45941
20
-2.96862
11
5.51059
21
-2.96862
0
LINE
8
BLACK
6
CONTINUOUS
10
5.51059
20
-2.96862
11
5.51059
21
-2.99618
0
LINE
8
BLACK
6
CONTINUOUS
10
5.51059
20
-2.92138
11
5.45941
21
-2.92138
0
LINE
8
BLACK
6
CONTINUOUS
10
5.45941
20
-2.92138
11
5.45941
21
-2.89382
0
LINE
8
BLACK
6
CONTINUOUS
10
5.45941
20
-2.89382
11
5.51059
21
-2.89382
0
LINE
8
BLACK
6
CONTINUOUS
10
5.51059
20
-2.89382
11
5.51059
21
-2.92138
  0
ENDSEC
  0
EOF
