  0
SECTION
  2
HEADER
  9
$ANGBASE
  50
0.0
  9
$ANGDIR
  70
1
  9
$MEASUREMENT
  70
0
  0
ENDSEC
  0
SECTION
  2
TABLES
  0
TABLE
  2
LTYPE
  70
4
  0
LTYPE
  5
40F
  2
CONTINUOUS
  70
0
  3
Solid line
  72
65
  73
0
  40
0.0
  0
LTYPE
  5
410
  2
DASHDOT
 70
0
  3
Dash Dot ____ _ ____ _
 72
65
 73
4
 40
2.0
 49
1.25
 49
-0.25
 49
0.25
 49
-0.25
  0
LTYPE
  5
411
  2
DASHED
 70
0
  3
Dashed __ __ __ __ __
 72
65
 73
2
 40
0.75
 49
0.5
 49
-0.25
  0
LTYPE
  5
43B
  2
DOTTED
 70
0
  3
Dotted .  .  .  .
 72
65
 73
2
 40
0.2
 49
0.0
 49
-0.2
  0
ENDTAB
  0
TABLE
  2
STYLE
  70
4
  0
STYLE
  2
KICAD
  70
0
  40
0
  41
1
  42
1
  50
0
  71
0
  3
isocp.shx
  0
STYLE
  2
KICADB
  70
0
  40
0
  41
1
  42
1
  50
0
  71
0
  3
isocp.shx
  0
STYLE
  2
KICADI
  70
0
  40
0
  41
1
  42
1
  50
15
  71
0
  3
isocp.shx
  0
STYLE
  2
KICADBI
  70
0
  40
0
  41
1
  42
1
  50
15
  71
0
  3
isocp.shx
  0
ENDTAB
  0
TABLE
  2
LAYER
  70
1
  0
LAYER
  2
BLACK
  70
0
  62
7
  6
CONTINUOUS
  0
ENDTAB
  0
ENDSEC
  0
SECTION
  2
ENTITIES
0
LINE
8
BLACK
6
CONTINUOUS
10
4.82051
20
-3.88368
11
4.83387
21
-3.88685
0
LINE
8
BLACK
6
CONTINUOUS
10
4.83387
20
-3.88685
11
4.84678
21
-3.89155
0
LINE
8
BLACK
6
CONTINUOUS
10
4.84678
20
-3.89155
11
4.85906
21
-3.89771
0
LINE
8
BLACK
6
CONTINUOUS
10
4.85906
20
-3.89771
11
4.87053
21
-3.90526
0
LINE
8
BLACK
6
CONTINUOUS
10
4.87053
20
-3.90526
11
4.88105
21
-3.91409
0
LINE
8
BLACK
6
CONTINUOUS
10
4.88105
20
-3.91409
11
4.89048
21
-3.92408
0
LINE
8
BLACK
6
CONTINUOUS
10
4.89048
20
-3.92408
11
4.89868
21
-3.9351
0
LINE
8
BLACK
6
CONTINUOUS
10
4.89868
20
-3.9351
11
4.90555
21
-3.94699
0
LINE
8
BLACK
6
CONTINUOUS
10
4.90555
20
-3.94699
11
4.91099
21
-3.9596
0
LINE
8
BLACK
6
CONTINUOUS
10
4.91099
20
-3.9596
11
4.91493
21
-3.97276
0
LINE
8
BLACK
6
CONTINUOUS
10
4.91493
20
-3.97276
11
4.91731
21
-3.98629
0
LINE
8
BLACK
6
CONTINUOUS
10
4.91731
20
-3.98629
11
4.91811
21
-4
0
LINE
8
BLACK
6
CONTINUOUS
10
4.91811
20
-4
11
4.91731
21
-4.01371
0
LINE
8
BLACK
6
CONTINUOUS
10
4.91731
20
-4.01371
11
4.91493
21
-4.02724
0
LINE
8
BLACK
6
CONTINUOUS
10
4.91493
20
-4.02724
11
4.91099
21
-4.0404
0
LINE
8
BLACK
6
CONTINUOUS
10
4.91099
20
-4.0404
11
4.90555
21
-4.05301
0
LINE
8
BLACK
6
CONTINUOUS
10
4.90555
20
-4.05301
11
4.89868
21
-4.0649
0
LINE
8
BLACK
6
CONTINUOUS
10
4.89868
20
-4.0649
11
4.89048
21
-4.07592
0
LINE
8
BLACK
6
CONTINUOUS
10
4.89048
20
-4.07592
11
4.88105
21
-4.08591
0
LINE
8
BLACK
6
CONTINUOUS
10
4.88105
20
-4.08591
11
4.87053
21
-4.09474
0
LINE
8
BLACK
6
CONTINUOUS
10
4.87053
20
-4.09474
11
4.85906
21
-4.10229
0
LINE
8
BLACK
6
CONTINUOUS
10
4.85906
20
-4.10229
11
4.84678
21
-4.10845
0
LINE
8
BLACK
6
CONTINUOUS
10
4.84678
20
-4.10845
11
4.83387
21
-4.11315
0
LINE
8
BLACK
6
CONTINUOUS
10
4.83387
20
-4.11315
11
4.82051
21
-4.11632
0
LINE
8
BLACK
6
CONTINUOUS
10
4.82051
20
-4.11632
11
4.80687
21
-4.11791
0
LINE
8
BLACK
6
CONTINUOUS
10
4.80687
20
-4.11791
11
4.79313
21
-4.11791
0
LINE
8
BLACK
6
CONTINUOUS
10
4.79313
20
-4.11791
11
4.77949
21
-4.11632
0
LINE
8
BLACK
6
CONTINUOUS
10
4.77949
20
-4.11632
11
4.76613
21
-4.11315
0
LINE
8
BLACK
6
CONTINUOUS
10
4.76613
20
-4.11315
11
4.75322
21
-4.10845
0
LINE
8
BLACK
6
CONTINUOUS
10
4.75322
20
-4.10845
11
4.74094
21
-4.10229
0
LINE
8
BLACK
6
CONTINUOUS
10
4.74094
20
-4.10229
11
4.72947
21
-4.09474
0
LINE
8
BLACK
6
CONTINUOUS
10
4.72947
20
-4.09474
11
4.71895
21
-4.08591
0
LINE
8
BLACK
6
CONTINUOUS
10
4.71895
20
-4.08591
11
4.70952
21
-4.07592
0
LINE
8
BLACK
6
CONTINUOUS
10
4.70952
20
-4.07592
11
4.70132
21
-4.0649
0
LINE
8
BLACK
6
CONTINUOUS
10
4.70132
20
-4.0649
11
4.69445
21
-4.05301
0
LINE
8
BLACK
6
CONTINUOUS
10
4.69445
20
-4.05301
11
4.68901
21
-4.0404
0
LINE
8
BLACK
6
CONTINUOUS
10
4.68901
20
-4.0404
11
4.68507
21
-4.02724
0
LINE
8
BLACK
6
CONTINUOUS
10
4.68507
20
-4.02724
11
4.68269
21
-4.01371
0
LINE
8
BLACK
6
CONTINUOUS
10
4.68269
20
-4.01371
11
4.68189
21
-4
0
LINE
8
BLACK
6
CONTINUOUS
10
4.68189
20
-4
11
4.68269
21
-3.98629
0
LINE
8
BLACK
6
CONTINUOUS
10
4.68269
20
-3.98629
11
4.68507
21
-3.97276
0
LINE
8
BLACK
6
CONTINUOUS
10
4.68507
20
-3.97276
11
4.68901
21
-3.9596
0
LINE
8
BLACK
6
CONTINUOUS
10
4.68901
20
-3.9596
11
4.69445
21
-3.94699
0
LINE
8
BLACK
6
CONTINUOUS
10
4.69445
20
-3.94699
11
4.70132
21
-3.9351
0
LINE
8
BLACK
6
CONTINUOUS
10
4.70132
20
-3.9351
11
4.70952
21
-3.92408
0
LINE
8
BLACK
6
CONTINUOUS
10
4.70952
20
-3.92408
11
4.71895
21
-3.91409
0
LINE
8
BLACK
6
CONTINUOUS
10
4.71895
20
-3.91409
11
4.72947
21
-3.90526
0
LINE
8
BLACK
6
CONTINUOUS
10
4.72947
20
-3.90526
11
4.74094
21
-3.89771
0
LINE
8
BLACK
6
CONTINUOUS
10
4.74094
20
-3.89771
11
4.75322
21
-3.89155
0
LINE
8
BLACK
6
CONTINUOUS
10
4.75322
20
-3.89155
11
4.76613
21
-3.88685
0
LINE
8
BLACK
6
CONTINUOUS
10
4.76613
20
-3.88685
11
4.77949
21
-3.88368
0
LINE
8
BLACK
6
CONTINUOUS
10
4.77949
20
-3.88368
11
4.79313
21
-3.88209
0
LINE
8
BLACK
6
CONTINUOUS
10
4.79313
20
-3.88209
11
4.80687
21
-3.88209
0
LINE
8
BLACK
6
CONTINUOUS
10
4.80687
20
-3.88209
11
4.82051
21
-3.88368
0
LINE
8
BLACK
6
CONTINUOUS
10
6.02051
20
-3.88368
11
6.03387
21
-3.88685
0
LINE
8
BLACK
6
CONTINUOUS
10
6.03387
20
-3.88685
11
6.04678
21
-3.89155
0
LINE
8
BLACK
6
CONTINUOUS
10
6.04678
20
-3.89155
11
6.05906
21
-3.89771
0
LINE
8
BLACK
6
CONTINUOUS
10
6.05906
20
-3.89771
11
6.07053
21
-3.90526
0
LINE
8
BLACK
6
CONTINUOUS
10
6.07053
20
-3.90526
11
6.08105
21
-3.91409
0
LINE
8
BLACK
6
CONTINUOUS
10
6.08105
20
-3.91409
11
6.09048
21
-3.92408
0
LINE
8
BLACK
6
CONTINUOUS
10
6.09048
20
-3.92408
11
6.09868
21
-3.9351
0
LINE
8
BLACK
6
CONTINUOUS
10
6.09868
20
-3.9351
11
6.10555
21
-3.94699
0
LINE
8
BLACK
6
CONTINUOUS
10
6.10555
20
-3.94699
11
6.11099
21
-3.9596
0
LINE
8
BLACK
6
CONTINUOUS
10
6.11099
20
-3.9596
11
6.11493
21
-3.97276
0
LINE
8
BLACK
6
CONTINUOUS
10
6.11493
20
-3.97276
11
6.11731
21
-3.98629
0
LINE
8
BLACK
6
CONTINUOUS
10
6.11731
20
-3.98629
11
6.11811
21
-4
0
LINE
8
BLACK
6
CONTINUOUS
10
6.11811
20
-4
11
6.11731
21
-4.01371
0
LINE
8
BLACK
6
CONTINUOUS
10
6.11731
20
-4.01371
11
6.11493
21
-4.02724
0
LINE
8
BLACK
6
CONTINUOUS
10
6.11493
20
-4.02724
11
6.11099
21
-4.0404
0
LINE
8
BLACK
6
CONTINUOUS
10
6.11099
20
-4.0404
11
6.10555
21
-4.05301
0
LINE
8
BLACK
6
CONTINUOUS
10
6.10555
20
-4.05301
11
6.09868
21
-4.0649
0
LINE
8
BLACK
6
CONTINUOUS
10
6.09868
20
-4.0649
11
6.09048
21
-4.07592
0
LINE
8
BLACK
6
CONTINUOUS
10
6.09048
20
-4.07592
11
6.08105
21
-4.08591
0
LINE
8
BLACK
6
CONTINUOUS
10
6.08105
20
-4.08591
11
6.07053
21
-4.09474
0
LINE
8
BLACK
6
CONTINUOUS
10
6.07053
20
-4.09474
11
6.05906
21
-4.10229
0
LINE
8
BLACK
6
CONTINUOUS
10
6.05906
20
-4.10229
11
6.04678
21
-4.10845
0
LINE
8
BLACK
6
CONTINUOUS
10
6.04678
20
-4.10845
11
6.03387
21
-4.11315
0
LINE
8
BLACK
6
CONTINUOUS
10
6.03387
20
-4.11315
11
6.02051
21
-4.11632
0
LINE
8
BLACK
6
CONTINUOUS
10
6.02051
20
-4.11632
11
6.00687
21
-4.11791
0
LINE
8
BLACK
6
CONTINUOUS
10
6.00687
20
-4.11791
11
5.99313
21
-4.11791
0
LINE
8
BLACK
6
CONTINUOUS
10
5.99313
20
-4.11791
11
5.97949
21
-4.11632
0
LINE
8
BLACK
6
CONTINUOUS
10
5.97949
20
-4.11632
11
5.96613
21
-4.11315
0
LINE
8
BLACK
6
CONTINUOUS
10
5.96613
20
-4.11315
11
5.95322
21
-4.10845
0
LINE
8
BLACK
6
CONTINUOUS
10
5.95322
20
-4.10845
11
5.94094
21
-4.10229
0
LINE
8
BLACK
6
CONTINUOUS
10
5.94094
20
-4.10229
11
5.92947
21
-4.09474
0
LINE
8
BLACK
6
CONTINUOUS
10
5.92947
20
-4.09474
11
5.91895
21
-4.08591
0
LINE
8
BLACK
6
CONTINUOUS
10
5.91895
20
-4.08591
11
5.90952
21
-4.07592
0
LINE
8
BLACK
6
CONTINUOUS
10
5.90952
20
-4.07592
11
5.90132
21
-4.0649
0
LINE
8
BLACK
6
CONTINUOUS
10
5.90132
20
-4.0649
11
5.89445
21
-4.05301
0
LINE
8
BLACK
6
CONTINUOUS
10
5.89445
20
-4.05301
11
5.88901
21
-4.0404
0
LINE
8
BLACK
6
CONTINUOUS
10
5.88901
20
-4.0404
11
5.88507
21
-4.02724
0
LINE
8
BLACK
6
CONTINUOUS
10
5.88507
20
-4.02724
11
5.88269
21
-4.01371
0
LINE
8
BLACK
6
CONTINUOUS
10
5.88269
20
-4.01371
11
5.88189
21
-4
0
LINE
8
BLACK
6
CONTINUOUS
10
5.88189
20
-4
11
5.88269
21
-3.98629
0
LINE
8
BLACK
6
CONTINUOUS
10
5.88269
20
-3.98629
11
5.88507
21
-3.97276
0
LINE
8
BLACK
6
CONTINUOUS
10
5.88507
20
-3.97276
11
5.88901
21
-3.9596
0
LINE
8
BLACK
6
CONTINUOUS
10
5.88901
20
-3.9596
11
5.89445
21
-3.94699
0
LINE
8
BLACK
6
CONTINUOUS
10
5.89445
20
-3.94699
11
5.90132
21
-3.9351
0
LINE
8
BLACK
6
CONTINUOUS
10
5.90132
20
-3.9351
11
5.90952
21
-3.92408
0
LINE
8
BLACK
6
CONTINUOUS
10
5.90952
20
-3.92408
11
5.91895
21
-3.91409
0
LINE
8
BLACK
6
CONTINUOUS
10
5.91895
20
-3.91409
11
5.92947
21
-3.90526
0
LINE
8
BLACK
6
CONTINUOUS
10
5.92947
20
-3.90526
11
5.94094
21
-3.89771
0
LINE
8
BLACK
6
CONTINUOUS
10
5.94094
20
-3.89771
11
5.95322
21
-3.89155
0
LINE
8
BLACK
6
CONTINUOUS
10
5.95322
20
-3.89155
11
5.96613
21
-3.88685
0
LINE
8
BLACK
6
CONTINUOUS
10
5.96613
20
-3.88685
11
5.97949
21
-3.88368
0
LINE
8
BLACK
6
CONTINUOUS
10
5.97949
20
-3.88368
11
5.99313
21
-3.88209
0
LINE
8
BLACK
6
CONTINUOUS
10
5.99313
20
-3.88209
11
6.00687
21
-3.88209
0
LINE
8
BLACK
6
CONTINUOUS
10
6.00687
20
-3.88209
11
6.02051
21
-3.88368
0
LINE
8
BLACK
6
CONTINUOUS
10
5.18201
20
-3.94373
11
5.18457
21
-3.94543
0
LINE
8
BLACK
6
CONTINUOUS
10
5.18457
20
-3.94543
11
5.18627
21
-3.94799
0
LINE
8
BLACK
6
CONTINUOUS
10
5.18627
20
-3.94799
11
5.18687
21
-3.951
0
LINE
8
BLACK
6
CONTINUOUS
10
5.18687
20
-3.951
11
5.18687
21
-4.039
0
LINE
8
BLACK
6
CONTINUOUS
10
5.18687
20
-4.039
11
5.18627
21
-4.04201
0
LINE
8
BLACK
6
CONTINUOUS
10
5.18627
20
-4.04201
11
5.18457
21
-4.04457
0
LINE
8
BLACK
6
CONTINUOUS
10
5.18457
20
-4.04457
11
5.18201
21
-4.04627
0
LINE
8
BLACK
6
CONTINUOUS
10
5.18201
20
-4.04627
11
5.179
21
-4.04687
0
LINE
8
BLACK
6
CONTINUOUS
10
5.179
20
-4.04687
11
5.091
21
-4.04687
0
LINE
8
BLACK
6
CONTINUOUS
10
5.091
20
-4.04687
11
5.08799
21
-4.04627
0
LINE
8
BLACK
6
CONTINUOUS
10
5.08799
20
-4.04627
11
5.08543
21
-4.04457
0
LINE
8
BLACK
6
CONTINUOUS
10
5.08543
20
-4.04457
11
5.08373
21
-4.04201
0
LINE
8
BLACK
6
CONTINUOUS
10
5.08373
20
-4.04201
11
5.08313
21
-4.039
0
LINE
8
BLACK
6
CONTINUOUS
10
5.08313
20
-4.039
11
5.08313
21
-3.951
0
LINE
8
BLACK
6
CONTINUOUS
10
5.08313
20
-3.951
11
5.08373
21
-3.94799
0
LINE
8
BLACK
6
CONTINUOUS
10
5.08373
20
-3.94799
11
5.08543
21
-3.94543
0
LINE
8
BLACK
6
CONTINUOUS
10
5.08543
20
-3.94543
11
5.08799
21
-3.94373
0
LINE
8
BLACK
6
CONTINUOUS
10
5.08799
20
-3.94373
11
5.091
21
-3.94313
0
LINE
8
BLACK
6
CONTINUOUS
10
5.091
20
-3.94313
11
5.179
21
-3.94313
0
LINE
8
BLACK
6
CONTINUOUS
10
5.179
20
-3.94313
11
5.18201
21
-3.94373
0
LINE
8
BLACK
6
CONTINUOUS
10
5.47534
20
-3.9566
11
5.48173
21
-3.95944
0
LINE
8
BLACK
6
CONTINUOUS
10
5.48173
20
-3.95944
11
5.48739
21
-3.96356
0
LINE
8
BLACK
6
CONTINUOUS
10
5.48739
20
-3.96356
11
5.49207
21
-3.96876
0
LINE
8
BLACK
6
CONTINUOUS
10
5.49207
20
-3.96876
11
5.49557
21
-3.97481
0
LINE
8
BLACK
6
CONTINUOUS
10
5.49557
20
-3.97481
11
5.49773
21
-3.98147
0
LINE
8
BLACK
6
CONTINUOUS
10
5.49773
20
-3.98147
11
5.49846
21
-3.98843
0
LINE
8
BLACK
6
CONTINUOUS
10
5.49846
20
-3.98843
11
5.49773
21
-3.99538
0
LINE
8
BLACK
6
CONTINUOUS
10
5.49773
20
-3.99538
11
5.49557
21
-4.00204
0
LINE
8
BLACK
6
CONTINUOUS
10
5.49557
20
-4.00204
11
5.49207
21
-4.0081
0
LINE
8
BLACK
6
CONTINUOUS
10
5.49207
20
-4.0081
11
5.48739
21
-4.01329
0
LINE
8
BLACK
6
CONTINUOUS
10
5.48739
20
-4.01329
11
5.48173
21
-4.01741
0
LINE
8
BLACK
6
CONTINUOUS
10
5.48173
20
-4.01741
11
5.47534
21
-4.02025
0
LINE
8
BLACK
6
CONTINUOUS
10
5.47534
20
-4.02025
11
5.4685
21
-4.02171
0
LINE
8
BLACK
6
CONTINUOUS
10
5.4685
20
-4.02171
11
5.4615
21
-4.02171
0
LINE
8
BLACK
6
CONTINUOUS
10
5.4615
20
-4.02171
11
5.45466
21
-4.02025
0
LINE
8
BLACK
6
CONTINUOUS
10
5.45466
20
-4.02025
11
5.44827
21
-4.01741
0
LINE
8
BLACK
6
CONTINUOUS
10
5.44827
20
-4.01741
11
5.44261
21
-4.01329
0
LINE
8
BLACK
6
CONTINUOUS
10
5.44261
20
-4.01329
11
5.43793
21
-4.0081
0
LINE
8
BLACK
6
CONTINUOUS
10
5.43793
20
-4.0081
11
5.43443
21
-4.00204
0
LINE
8
BLACK
6
CONTINUOUS
10
5.43443
20
-4.00204
11
5.43227
21
-3.99538
0
LINE
8
BLACK
6
CONTINUOUS
10
5.43227
20
-3.99538
11
5.43154
21
-3.98843
0
LINE
8
BLACK
6
CONTINUOUS
10
5.43154
20
-3.98843
11
5.43227
21
-3.98147
0
LINE
8
BLACK
6
CONTINUOUS
10
5.43227
20
-3.98147
11
5.43443
21
-3.97481
0
LINE
8
BLACK
6
CONTINUOUS
10
5.43443
20
-3.97481
11
5.43793
21
-3.96876
0
LINE
8
BLACK
6
CONTINUOUS
10
5.43793
20
-3.96876
11
5.44261
21
-3.96356
0
LINE
8
BLACK
6
CONTINUOUS
10
5.44261
20
-3.96356
11
5.44827
21
-3.95944
0
LINE
8
BLACK
6
CONTINUOUS
10
5.44827
20
-3.95944
11
5.45466
21
-3.9566
0
LINE
8
BLACK
6
CONTINUOUS
10
5.45466
20
-3.9566
11
5.4615
21
-3.95514
0
LINE
8
BLACK
6
CONTINUOUS
10
5.4615
20
-3.95514
11
5.4685
21
-3.95514
0
LINE
8
BLACK
6
CONTINUOUS
10
5.4685
20
-3.95514
11
5.47534
21
-3.9566
0
LINE
8
BLACK
6
CONTINUOUS
10
5.4936
20
-3.85713
11
5.49616
21
-3.85884
0
LINE
8
BLACK
6
CONTINUOUS
10
5.49616
20
-3.85884
11
5.49787
21
-3.8614
0
LINE
8
BLACK
6
CONTINUOUS
10
5.49787
20
-3.8614
11
5.49846
21
-3.86441
0
LINE
8
BLACK
6
CONTINUOUS
10
5.49846
20
-3.86441
11
5.49846
21
-3.91559
0
LINE
8
BLACK
6
CONTINUOUS
10
5.49846
20
-3.91559
11
5.49787
21
-3.9186
0
LINE
8
BLACK
6
CONTINUOUS
10
5.49787
20
-3.9186
11
5.49616
21
-3.92116
0
LINE
8
BLACK
6
CONTINUOUS
10
5.49616
20
-3.92116
11
5.4936
21
-3.92287
0
LINE
8
BLACK
6
CONTINUOUS
10
5.4936
20
-3.92287
11
5.49059
21
-3.92346
0
LINE
8
BLACK
6
CONTINUOUS
10
5.49059
20
-3.92346
11
5.43941
21
-3.92346
0
LINE
8
BLACK
6
CONTINUOUS
10
5.43941
20
-3.92346
11
5.4364
21
-3.92287
0
LINE
8
BLACK
6
CONTINUOUS
10
5.4364
20
-3.92287
11
5.43384
21
-3.92116
0
LINE
8
BLACK
6
CONTINUOUS
10
5.43384
20
-3.92116
11
5.43213
21
-3.9186
0
LINE
8
BLACK
6
CONTINUOUS
10
5.43213
20
-3.9186
11
5.43154
21
-3.91559
0
LINE
8
BLACK
6
CONTINUOUS
10
5.43154
20
-3.91559
11
5.43154
21
-3.86441
0
LINE
8
BLACK
6
CONTINUOUS
10
5.43154
20
-3.86441
11
5.43213
21
-3.8614
0
LINE
8
BLACK
6
CONTINUOUS
10
5.43213
20
-3.8614
11
5.43384
21
-3.85884
0
LINE
8
BLACK
6
CONTINUOUS
10
5.43384
20
-3.85884
11
5.4364
21
-3.85713
0
LINE
8
BLACK
6
CONTINUOUS
10
5.4364
20
-3.85713
11
5.43941
21
-3.85654
0
LINE
8
BLACK
6
CONTINUOUS
10
5.43941
20
-3.85654
11
5.49059
21
-3.85654
0
LINE
8
BLACK
6
CONTINUOUS
10
5.49059
20
-3.85654
11
5.4936
21
-3.85713
0
LINE
8
BLACK
6
CONTINUOUS
10
5.84801
20
-3.61773
11
5.85057
21
-3.61943
0
LINE
8
BLACK
6
CONTINUOUS
10
5.85057
20
-3.61943
11
5.85227
21
-3.62199
0
LINE
8
BLACK
6
CONTINUOUS
10
5.85227
20
-3.62199
11
5.85287
21
-3.625
0
LINE
8
BLACK
6
CONTINUOUS
10
5.85287
20
-3.625
11
5.85287
21
-3.775
0
LINE
8
BLACK
6
CONTINUOUS
10
5.85287
20
-3.775
11
5.85227
21
-3.77801
0
LINE
8
BLACK
6
CONTINUOUS
10
5.85227
20
-3.77801
11
5.85057
21
-3.78057
0
LINE
8
BLACK
6
CONTINUOUS
10
5.85057
20
-3.78057
11
5.84801
21
-3.78227
0
LINE
8
BLACK
6
CONTINUOUS
10
5.84801
20
-3.78227
11
5.845
21
-3.78287
0
LINE
8
BLACK
6
CONTINUOUS
10
5.845
20
-3.78287
11
5.695
21
-3.78287
0
LINE
8
BLACK
6
CONTINUOUS
10
5.695
20
-3.78287
11
5.69199
21
-3.78227
0
LINE
8
BLACK
6
CONTINUOUS
10
5.69199
20
-3.78227
11
5.68943
21
-3.78057
0
LINE
8
BLACK
6
CONTINUOUS
10
5.68943
20
-3.78057
11
5.68773
21
-3.77801
0
LINE
8
BLACK
6
CONTINUOUS
10
5.68773
20
-3.77801
11
5.68713
21
-3.775
0
LINE
8
BLACK
6
CONTINUOUS
10
5.68713
20
-3.775
11
5.68713
21
-3.625
0
LINE
8
BLACK
6
CONTINUOUS
10
5.68713
20
-3.625
11
5.68773
21
-3.62199
0
LINE
8
BLACK
6
CONTINUOUS
10
5.68773
20
-3.62199
11
5.68943
21
-3.61943
0
LINE
8
BLACK
6
CONTINUOUS
10
5.68943
20
-3.61943
11
5.69199
21
-3.61773
0
LINE
8
BLACK
6
CONTINUOUS
10
5.69199
20
-3.61773
11
5.695
21
-3.61713
0
LINE
8
BLACK
6
CONTINUOUS
10
5.695
20
-3.61713
11
5.845
21
-3.61713
0
LINE
8
BLACK
6
CONTINUOUS
10
5.845
20
-3.61713
11
5.84801
21
-3.61773
0
LINE
8
BLACK
6
CONTINUOUS
10
6.04486
20
-3.61773
11
6.04742
21
-3.61943
0
LINE
8
BLACK
6
CONTINUOUS
10
6.04742
20
-3.61943
11
6.04913
21
-3.62199
0
LINE
8
BLACK
6
CONTINUOUS
10
6.04913
20
-3.62199
11
6.04972
21
-3.625
0
LINE
8
BLACK
6
CONTINUOUS
10
6.04972
20
-3.625
11
6.04972
21
-3.775
0
LINE
8
BLACK
6
CONTINUOUS
10
6.04972
20
-3.775
11
6.04913
21
-3.77801
0
LINE
8
BLACK
6
CONTINUOUS
10
6.04913
20
-3.77801
11
6.04742
21
-3.78057
0
LINE
8
BLACK
6
CONTINUOUS
10
6.04742
20
-3.78057
11
6.04486
21
-3.78227
0
LINE
8
BLACK
6
CONTINUOUS
10
6.04486
20
-3.78227
11
6.04185
21
-3.78287
0
LINE
8
BLACK
6
CONTINUOUS
10
6.04185
20
-3.78287
11
5.89185
21
-3.78287
0
LINE
8
BLACK
6
CONTINUOUS
10
5.89185
20
-3.78287
11
5.88884
21
-3.78227
0
LINE
8
BLACK
6
CONTINUOUS
10
5.88884
20
-3.78227
11
5.88628
21
-3.78057
0
LINE
8
BLACK
6
CONTINUOUS
10
5.88628
20
-3.78057
11
5.88458
21
-3.77801
0
LINE
8
BLACK
6
CONTINUOUS
10
5.88458
20
-3.77801
11
5.88398
21
-3.775
0
LINE
8
BLACK
6
CONTINUOUS
10
5.88398
20
-3.775
11
5.88398
21
-3.625
0
LINE
8
BLACK
6
CONTINUOUS
10
5.88398
20
-3.625
11
5.88458
21
-3.62199
0
LINE
8
BLACK
6
CONTINUOUS
10
5.88458
20
-3.62199
11
5.88628
21
-3.61943
0
LINE
8
BLACK
6
CONTINUOUS
10
5.88628
20
-3.61943
11
5.88884
21
-3.61773
0
LINE
8
BLACK
6
CONTINUOUS
10
5.88884
20
-3.61773
11
5.89185
21
-3.61713
0
LINE
8
BLACK
6
CONTINUOUS
10
5.89185
20
-3.61713
11
6.04185
21
-3.61713
0
LINE
8
BLACK
6
CONTINUOUS
10
6.04185
20
-3.61713
11
6.04486
21
-3.61773
0
LINE
8
BLACK
6
CONTINUOUS
10
5.19568
20
-3.73709
11
5.20039
21
-3.74012
0
LINE
8
BLACK
6
CONTINUOUS
10
5.20039
20
-3.74012
11
5.20406
21
-3.74436
0
LINE
8
BLACK
6
CONTINUOUS
10
5.20406
20
-3.74436
11
5.20639
21
-3.74945
0
LINE
8
BLACK
6
CONTINUOUS
10
5.20639
20
-3.74945
11
5.20719
21
-3.755
0
LINE
8
BLACK
6
CONTINUOUS
10
5.20719
20
-3.755
11
5.20639
21
-3.76055
0
LINE
8
BLACK
6
CONTINUOUS
10
5.20639
20
-3.76055
11
5.20406
21
-3.76564
0
LINE
8
BLACK
6
CONTINUOUS
10
5.20406
20
-3.76564
11
5.20039
21
-3.76988
0
LINE
8
BLACK
6
CONTINUOUS
10
5.20039
20
-3.76988
11
5.19568
21
-3.77291
0
LINE
8
BLACK
6
CONTINUOUS
10
5.19568
20
-3.77291
11
5.1903
21
-3.77448
0
LINE
8
BLACK
6
CONTINUOUS
10
5.1903
20
-3.77448
11
5.1847
21
-3.77448
0
LINE
8
BLACK
6
CONTINUOUS
10
5.1847
20
-3.77448
11
5.17932
21
-3.77291
0
LINE
8
BLACK
6
CONTINUOUS
10
5.17932
20
-3.77291
11
5.17461
21
-3.76988
0
LINE
8
BLACK
6
CONTINUOUS
10
5.17461
20
-3.76988
11
5.17094
21
-3.76564
0
LINE
8
BLACK
6
CONTINUOUS
10
5.17094
20
-3.76564
11
5.16861
21
-3.76055
0
LINE
8
BLACK
6
CONTINUOUS
10
5.16861
20
-3.76055
11
5.16781
21
-3.755
0
LINE
8
BLACK
6
CONTINUOUS
10
5.16781
20
-3.755
11
5.16861
21
-3.74945
0
LINE
8
BLACK
6
CONTINUOUS
10
5.16861
20
-3.74945
11
5.17094
21
-3.74436
0
LINE
8
BLACK
6
CONTINUOUS
10
5.17094
20
-3.74436
11
5.17461
21
-3.74012
0
LINE
8
BLACK
6
CONTINUOUS
10
5.17461
20
-3.74012
11
5.17932
21
-3.73709
0
LINE
8
BLACK
6
CONTINUOUS
10
5.17932
20
-3.73709
11
5.1847
21
-3.73552
0
LINE
8
BLACK
6
CONTINUOUS
10
5.1847
20
-3.73552
11
5.1903
21
-3.73552
0
LINE
8
BLACK
6
CONTINUOUS
10
5.1903
20
-3.73552
11
5.19568
21
-3.73709
0
LINE
8
BLACK
6
CONTINUOUS
10
5.23818
20
-3.73709
11
5.24289
21
-3.74012
0
LINE
8
BLACK
6
CONTINUOUS
10
5.24289
20
-3.74012
11
5.24656
21
-3.74436
0
LINE
8
BLACK
6
CONTINUOUS
10
5.24656
20
-3.74436
11
5.24889
21
-3.74945
0
LINE
8
BLACK
6
CONTINUOUS
10
5.24889
20
-3.74945
11
5.24969
21
-3.755
0
LINE
8
BLACK
6
CONTINUOUS
10
5.24969
20
-3.755
11
5.24889
21
-3.76055
0
LINE
8
BLACK
6
CONTINUOUS
10
5.24889
20
-3.76055
11
5.24656
21
-3.76564
0
LINE
8
BLACK
6
CONTINUOUS
10
5.24656
20
-3.76564
11
5.24289
21
-3.76988
0
LINE
8
BLACK
6
CONTINUOUS
10
5.24289
20
-3.76988
11
5.23818
21
-3.77291
0
LINE
8
BLACK
6
CONTINUOUS
10
5.23818
20
-3.77291
11
5.2328
21
-3.77448
0
LINE
8
BLACK
6
CONTINUOUS
10
5.2328
20
-3.77448
11
5.2272
21
-3.77448
0
LINE
8
BLACK
6
CONTINUOUS
10
5.2272
20
-3.77448
11
5.22182
21
-3.77291
0
LINE
8
BLACK
6
CONTINUOUS
10
5.22182
20
-3.77291
11
5.21711
21
-3.76988
0
LINE
8
BLACK
6
CONTINUOUS
10
5.21711
20
-3.76988
11
5.21344
21
-3.76564
0
LINE
8
BLACK
6
CONTINUOUS
10
5.21344
20
-3.76564
11
5.21111
21
-3.76055
0
LINE
8
BLACK
6
CONTINUOUS
10
5.21111
20
-3.76055
11
5.21031
21
-3.755
0
LINE
8
BLACK
6
CONTINUOUS
10
5.21031
20
-3.755
11
5.21111
21
-3.74945
0
LINE
8
BLACK
6
CONTINUOUS
10
5.21111
20
-3.74945
11
5.21344
21
-3.74436
0
LINE
8
BLACK
6
CONTINUOUS
10
5.21344
20
-3.74436
11
5.21711
21
-3.74012
0
LINE
8
BLACK
6
CONTINUOUS
10
5.21711
20
-3.74012
11
5.22182
21
-3.73709
0
LINE
8
BLACK
6
CONTINUOUS
10
5.22182
20
-3.73709
11
5.2272
21
-3.73552
0
LINE
8
BLACK
6
CONTINUOUS
10
5.2272
20
-3.73552
11
5.2328
21
-3.73552
0
LINE
8
BLACK
6
CONTINUOUS
10
5.2328
20
-3.73552
11
5.23818
21
-3.73709
0
LINE
8
BLACK
6
CONTINUOUS
10
5.19568
20
-3.69209
11
5.20039
21
-3.69512
0
LINE
8
BLACK
6
CONTINUOUS
10
5.20039
20
-3.69512
11
5.20406
21
-3.69936
0
LINE
8
BLACK
6
CONTINUOUS
10
5.20406
20
-3.69936
11
5.20639
21
-3.70445
0
LINE
8
BLACK
6
CONTINUOUS
10
5.20639
20
-3.70445
11
5.20719
21
-3.71
0
LINE
8
BLACK
6
CONTINUOUS
10
5.20719
20
-3.71
11
5.20639
21
-3.71555
0
LINE
8
BLACK
6
CONTINUOUS
10
5.20639
20
-3.71555
11
5.20406
21
-3.72064
0
LINE
8
BLACK
6
CONTINUOUS
10
5.20406
20
-3.72064
11
5.20039
21
-3.72488
0
LINE
8
BLACK
6
CONTINUOUS
10
5.20039
20
-3.72488
11
5.19568
21
-3.72791
0
LINE
8
BLACK
6
CONTINUOUS
10
5.19568
20
-3.72791
11
5.1903
21
-3.72948
0
LINE
8
BLACK
6
CONTINUOUS
10
5.1903
20
-3.72948
11
5.1847
21
-3.72948
0
LINE
8
BLACK
6
CONTINUOUS
10
5.1847
20
-3.72948
11
5.17932
21
-3.72791
0
LINE
8
BLACK
6
CONTINUOUS
10
5.17932
20
-3.72791
11
5.17461
21
-3.72488
0
LINE
8
BLACK
6
CONTINUOUS
10
5.17461
20
-3.72488
11
5.17094
21
-3.72064
0
LINE
8
BLACK
6
CONTINUOUS
10
5.17094
20
-3.72064
11
5.16861
21
-3.71555
0
LINE
8
BLACK
6
CONTINUOUS
10
5.16861
20
-3.71555
11
5.16781
21
-3.71
0
LINE
8
BLACK
6
CONTINUOUS
10
5.16781
20
-3.71
11
5.16861
21
-3.70445
0
LINE
8
BLACK
6
CONTINUOUS
10
5.16861
20
-3.70445
11
5.17094
21
-3.69936
0
LINE
8
BLACK
6
CONTINUOUS
10
5.17094
20
-3.69936
11
5.17461
21
-3.69512
0
LINE
8
BLACK
6
CONTINUOUS
10
5.17461
20
-3.69512
11
5.17932
21
-3.69209
0
LINE
8
BLACK
6
CONTINUOUS
10
5.17932
20
-3.69209
11
5.1847
21
-3.69052
0
LINE
8
BLACK
6
CONTINUOUS
10
5.1847
20
-3.69052
11
5.1903
21
-3.69052
0
LINE
8
BLACK
6
CONTINUOUS
10
5.1903
20
-3.69052
11
5.19568
21
-3.69209
0
LINE
8
BLACK
6
CONTINUOUS
10
5.23818
20
-3.69209
11
5.24289
21
-3.69512
0
LINE
8
BLACK
6
CONTINUOUS
10
5.24289
20
-3.69512
11
5.24656
21
-3.69936
0
LINE
8
BLACK
6
CONTINUOUS
10
5.24656
20
-3.69936
11
5.24889
21
-3.70445
0
LINE
8
BLACK
6
CONTINUOUS
10
5.24889
20
-3.70445
11
5.24969
21
-3.71
0
LINE
8
BLACK
6
CONTINUOUS
10
5.24969
20
-3.71
11
5.24889
21
-3.71555
0
LINE
8
BLACK
6
CONTINUOUS
10
5.24889
20
-3.71555
11
5.24656
21
-3.72064
0
LINE
8
BLACK
6
CONTINUOUS
10
5.24656
20
-3.72064
11
5.24289
21
-3.72488
0
LINE
8
BLACK
6
CONTINUOUS
10
5.24289
20
-3.72488
11
5.23818
21
-3.72791
0
LINE
8
BLACK
6
CONTINUOUS
10
5.23818
20
-3.72791
11
5.2328
21
-3.72948
0
LINE
8
BLACK
6
CONTINUOUS
10
5.2328
20
-3.72948
11
5.2272
21
-3.72948
0
LINE
8
BLACK
6
CONTINUOUS
10
5.2272
20
-3.72948
11
5.22182
21
-3.72791
0
LINE
8
BLACK
6
CONTINUOUS
10
5.22182
20
-3.72791
11
5.21711
21
-3.72488
0
LINE
8
BLACK
6
CONTINUOUS
10
5.21711
20
-3.72488
11
5.21344
21
-3.72064
0
LINE
8
BLACK
6
CONTINUOUS
10
5.21344
20
-3.72064
11
5.21111
21
-3.71555
0
LINE
8
BLACK
6
CONTINUOUS
10
5.21111
20
-3.71555
11
5.21031
21
-3.71
0
LINE
8
BLACK
6
CONTINUOUS
10
5.21031
20
-3.71
11
5.21111
21
-3.70445
0
LINE
8
BLACK
6
CONTINUOUS
10
5.21111
20
-3.70445
11
5.21344
21
-3.69936
0
LINE
8
BLACK
6
CONTINUOUS
10
5.21344
20
-3.69936
11
5.21711
21
-3.69512
0
LINE
8
BLACK
6
CONTINUOUS
10
5.21711
20
-3.69512
11
5.22182
21
-3.69209
0
LINE
8
BLACK
6
CONTINUOUS
10
5.22182
20
-3.69209
11
5.2272
21
-3.69052
0
LINE
8
BLACK
6
CONTINUOUS
10
5.2272
20
-3.69052
11
5.2328
21
-3.69052
0
LINE
8
BLACK
6
CONTINUOUS
10
5.2328
20
-3.69052
11
5.23818
21
-3.69209
0
LINE
8
BLACK
6
CONTINUOUS
10
5.19568
20
-3.64459
11
5.20039
21
-3.64762
0
LINE
8
BLACK
6
CONTINUOUS
10
5.20039
20
-3.64762
11
5.20406
21
-3.65186
0
LINE
8
BLACK
6
CONTINUOUS
10
5.20406
20
-3.65186
11
5.20639
21
-3.65695
0
LINE
8
BLACK
6
CONTINUOUS
10
5.20639
20
-3.65695
11
5.20719
21
-3.6625
0
LINE
8
BLACK
6
CONTINUOUS
10
5.20719
20
-3.6625
11
5.20639
21
-3.66805
0
LINE
8
BLACK
6
CONTINUOUS
10
5.20639
20
-3.66805
11
5.20406
21
-3.67314
0
LINE
8
BLACK
6
CONTINUOUS
10
5.20406
20
-3.67314
11
5.20039
21
-3.67738
0
LINE
8
BLACK
6
CONTINUOUS
10
5.20039
20
-3.67738
11
5.19568
21
-3.68041
0
LINE
8
BLACK
6
CONTINUOUS
10
5.19568
20
-3.68041
11
5.1903
21
-3.68198
0
LINE
8
BLACK
6
CONTINUOUS
10
5.1903
20
-3.68198
11
5.1847
21
-3.68198
0
LINE
8
BLACK
6
CONTINUOUS
10
5.1847
20
-3.68198
11
5.17932
21
-3.68041
0
LINE
8
BLACK
6
CONTINUOUS
10
5.17932
20
-3.68041
11
5.17461
21
-3.67738
0
LINE
8
BLACK
6
CONTINUOUS
10
5.17461
20
-3.67738
11
5.17094
21
-3.67314
0
LINE
8
BLACK
6
CONTINUOUS
10
5.17094
20
-3.67314
11
5.16861
21
-3.66805
0
LINE
8
BLACK
6
CONTINUOUS
10
5.16861
20
-3.66805
11
5.16781
21
-3.6625
0
LINE
8
BLACK
6
CONTINUOUS
10
5.16781
20
-3.6625
11
5.16861
21
-3.65695
0
LINE
8
BLACK
6
CONTINUOUS
10
5.16861
20
-3.65695
11
5.17094
21
-3.65186
0
LINE
8
BLACK
6
CONTINUOUS
10
5.17094
20
-3.65186
11
5.17461
21
-3.64762
0
LINE
8
BLACK
6
CONTINUOUS
10
5.17461
20
-3.64762
11
5.17932
21
-3.64459
0
LINE
8
BLACK
6
CONTINUOUS
10
5.17932
20
-3.64459
11
5.1847
21
-3.64302
0
LINE
8
BLACK
6
CONTINUOUS
10
5.1847
20
-3.64302
11
5.1903
21
-3.64302
0
LINE
8
BLACK
6
CONTINUOUS
10
5.1903
20
-3.64302
11
5.19568
21
-3.64459
0
LINE
8
BLACK
6
CONTINUOUS
10
5.24068
20
-3.64459
11
5.24539
21
-3.64762
0
LINE
8
BLACK
6
CONTINUOUS
10
5.24539
20
-3.64762
11
5.24906
21
-3.65186
0
LINE
8
BLACK
6
CONTINUOUS
10
5.24906
20
-3.65186
11
5.25139
21
-3.65695
0
LINE
8
BLACK
6
CONTINUOUS
10
5.25139
20
-3.65695
11
5.25219
21
-3.6625
0
LINE
8
BLACK
6
CONTINUOUS
10
5.25219
20
-3.6625
11
5.25139
21
-3.66805
0
LINE
8
BLACK
6
CONTINUOUS
10
5.25139
20
-3.66805
11
5.24906
21
-3.67314
0
LINE
8
BLACK
6
CONTINUOUS
10
5.24906
20
-3.67314
11
5.24539
21
-3.67738
0
LINE
8
BLACK
6
CONTINUOUS
10
5.24539
20
-3.67738
11
5.24068
21
-3.68041
0
LINE
8
BLACK
6
CONTINUOUS
10
5.24068
20
-3.68041
11
5.2353
21
-3.68198
0
LINE
8
BLACK
6
CONTINUOUS
10
5.2353
20
-3.68198
11
5.2297
21
-3.68198
0
LINE
8
BLACK
6
CONTINUOUS
10
5.2297
20
-3.68198
11
5.22432
21
-3.68041
0
LINE
8
BLACK
6
CONTINUOUS
10
5.22432
20
-3.68041
11
5.21961
21
-3.67738
0
LINE
8
BLACK
6
CONTINUOUS
10
5.21961
20
-3.67738
11
5.21594
21
-3.67314
0
LINE
8
BLACK
6
CONTINUOUS
10
5.21594
20
-3.67314
11
5.21361
21
-3.66805
0
LINE
8
BLACK
6
CONTINUOUS
10
5.21361
20
-3.66805
11
5.21281
21
-3.6625
0
LINE
8
BLACK
6
CONTINUOUS
10
5.21281
20
-3.6625
11
5.21361
21
-3.65695
0
LINE
8
BLACK
6
CONTINUOUS
10
5.21361
20
-3.65695
11
5.21594
21
-3.65186
0
LINE
8
BLACK
6
CONTINUOUS
10
5.21594
20
-3.65186
11
5.21961
21
-3.64762
0
LINE
8
BLACK
6
CONTINUOUS
10
5.21961
20
-3.64762
11
5.22432
21
-3.64459
0
LINE
8
BLACK
6
CONTINUOUS
10
5.22432
20
-3.64459
11
5.2297
21
-3.64302
0
LINE
8
BLACK
6
CONTINUOUS
10
5.2297
20
-3.64302
11
5.2353
21
-3.64302
0
LINE
8
BLACK
6
CONTINUOUS
10
5.2353
20
-3.64302
11
5.24068
21
-3.64459
0
LINE
8
BLACK
6
CONTINUOUS
10
5.84801
20
-3.41773
11
5.85057
21
-3.41943
0
LINE
8
BLACK
6
CONTINUOUS
10
5.85057
20
-3.41943
11
5.85227
21
-3.42199
0
LINE
8
BLACK
6
CONTINUOUS
10
5.85227
20
-3.42199
11
5.85287
21
-3.425
0
LINE
8
BLACK
6
CONTINUOUS
10
5.85287
20
-3.425
11
5.85287
21
-3.575
0
LINE
8
BLACK
6
CONTINUOUS
10
5.85287
20
-3.575
11
5.85227
21
-3.57801
0
LINE
8
BLACK
6
CONTINUOUS
10
5.85227
20
-3.57801
11
5.85057
21
-3.58057
0
LINE
8
BLACK
6
CONTINUOUS
10
5.85057
20
-3.58057
11
5.84801
21
-3.58227
0
LINE
8
BLACK
6
CONTINUOUS
10
5.84801
20
-3.58227
11
5.845
21
-3.58287
0
LINE
8
BLACK
6
CONTINUOUS
10
5.845
20
-3.58287
11
5.695
21
-3.58287
0
LINE
8
BLACK
6
CONTINUOUS
10
5.695
20
-3.58287
11
5.69199
21
-3.58227
0
LINE
8
BLACK
6
CONTINUOUS
10
5.69199
20
-3.58227
11
5.68943
21
-3.58057
0
LINE
8
BLACK
6
CONTINUOUS
10
5.68943
20
-3.58057
11
5.68773
21
-3.57801
0
LINE
8
BLACK
6
CONTINUOUS
10
5.68773
20
-3.57801
11
5.68713
21
-3.575
0
LINE
8
BLACK
6
CONTINUOUS
10
5.68713
20
-3.575
11
5.68713
21
-3.425
0
LINE
8
BLACK
6
CONTINUOUS
10
5.68713
20
-3.425
11
5.68773
21
-3.42199
0
LINE
8
BLACK
6
CONTINUOUS
10
5.68773
20
-3.42199
11
5.68943
21
-3.41943
0
LINE
8
BLACK
6
CONTINUOUS
10
5.68943
20
-3.41943
11
5.69199
21
-3.41773
0
LINE
8
BLACK
6
CONTINUOUS
10
5.69199
20
-3.41773
11
5.695
21
-3.41713
0
LINE
8
BLACK
6
CONTINUOUS
10
5.695
20
-3.41713
11
5.845
21
-3.41713
0
LINE
8
BLACK
6
CONTINUOUS
10
5.845
20
-3.41713
11
5.84801
21
-3.41773
0
LINE
8
BLACK
6
CONTINUOUS
10
6.04486
20
-3.41773
11
6.04742
21
-3.41943
0
LINE
8
BLACK
6
CONTINUOUS
10
6.04742
20
-3.41943
11
6.04913
21
-3.42199
0
LINE
8
BLACK
6
CONTINUOUS
10
6.04913
20
-3.42199
11
6.04972
21
-3.425
0
LINE
8
BLACK
6
CONTINUOUS
10
6.04972
20
-3.425
11
6.04972
21
-3.575
0
LINE
8
BLACK
6
CONTINUOUS
10
6.04972
20
-3.575
11
6.04913
21
-3.57801
0
LINE
8
BLACK
6
CONTINUOUS
10
6.04913
20
-3.57801
11
6.04742
21
-3.58057
0
LINE
8
BLACK
6
CONTINUOUS
10
6.04742
20
-3.58057
11
6.04486
21
-3.58227
0
LINE
8
BLACK
6
CONTINUOUS
10
6.04486
20
-3.58227
11
6.04185
21
-3.58287
0
LINE
8
BLACK
6
CONTINUOUS
10
6.04185
20
-3.58287
11
5.89185
21
-3.58287
0
LINE
8
BLACK
6
CONTINUOUS
10
5.89185
20
-3.58287
11
5.88884
21
-3.58227
0
LINE
8
BLACK
6
CONTINUOUS
10
5.88884
20
-3.58227
11
5.88628
21
-3.58057
0
LINE
8
BLACK
6
CONTINUOUS
10
5.88628
20
-3.58057
11
5.88458
21
-3.57801
0
LINE
8
BLACK
6
CONTINUOUS
10
5.88458
20
-3.57801
11
5.88398
21
-3.575
0
LINE
8
BLACK
6
CONTINUOUS
10
5.88398
20
-3.575
11
5.88398
21
-3.425
0
LINE
8
BLACK
6
CONTINUOUS
10
5.88398
20
-3.425
11
5.88458
21
-3.42199
0
LINE
8
BLACK
6
CONTINUOUS
10
5.88458
20
-3.42199
11
5.88628
21
-3.41943
0
LINE
8
BLACK
6
CONTINUOUS
10
5.88628
20
-3.41943
11
5.88884
21
-3.41773
0
LINE
8
BLACK
6
CONTINUOUS
10
5.88884
20
-3.41773
11
5.89185
21
-3.41713
0
LINE
8
BLACK
6
CONTINUOUS
10
5.89185
20
-3.41713
11
6.04185
21
-3.41713
0
LINE
8
BLACK
6
CONTINUOUS
10
6.04185
20
-3.41713
11
6.04486
21
-3.41773
0
LINE
8
BLACK
6
CONTINUOUS
10
5.84801
20
-3.21773
11
5.85057
21
-3.21943
0
LINE
8
BLACK
6
CONTINUOUS
10
5.85057
20
-3.21943
11
5.85227
21
-3.22199
0
LINE
8
BLACK
6
CONTINUOUS
10
5.85227
20
-3.22199
11
5.85287
21
-3.225
0
LINE
8
BLACK
6
CONTINUOUS
10
5.85287
20
-3.225
11
5.85287
21
-3.375
0
LINE
8
BLACK
6
CONTINUOUS
10
5.85287
20
-3.375
11
5.85227
21
-3.37801
0
LINE
8
BLACK
6
CONTINUOUS
10
5.85227
20
-3.37801
11
5.85057
21
-3.38057
0
LINE
8
BLACK
6
CONTINUOUS
10
5.85057
20
-3.38057
11
5.84801
21
-3.38227
0
LINE
8
BLACK
6
CONTINUOUS
10
5.84801
20
-3.38227
11
5.845
21
-3.38287
0
LINE
8
BLACK
6
CONTINUOUS
10
5.845
20
-3.38287
11
5.695
21
-3.38287
0
LINE
8
BLACK
6
CONTINUOUS
10
5.695
20
-3.38287
11
5.69199
21
-3.38227
0
LINE
8
BLACK
6
CONTINUOUS
10
5.69199
20
-3.38227
11
5.68943
21
-3.38057
0
LINE
8
BLACK
6
CONTINUOUS
10
5.68943
20
-3.38057
11
5.68773
21
-3.37801
0
LINE
8
BLACK
6
CONTINUOUS
10
5.68773
20
-3.37801
11
5.68713
21
-3.375
0
LINE
8
BLACK
6
CONTINUOUS
10
5.68713
20
-3.375
11
5.68713
21
-3.225
0
LINE
8
BLACK
6
CONTINUOUS
10
5.68713
20
-3.225
11
5.68773
21
-3.22199
0
LINE
8
BLACK
6
CONTINUOUS
10
5.68773
20
-3.22199
11
5.68943
21
-3.21943
0
LINE
8
BLACK
6
CONTINUOUS
10
5.68943
20
-3.21943
11
5.69199
21
-3.21773
0
LINE
8
BLACK
6
CONTINUOUS
10
5.69199
20
-3.21773
11
5.695
21
-3.21713
0
LINE
8
BLACK
6
CONTINUOUS
10
5.695
20
-3.21713
11
5.845
21
-3.21713
0
LINE
8
BLACK
6
CONTINUOUS
10
5.845
20
-3.21713
11
5.84801
21
-3.21773
0
LINE
8
BLACK
6
CONTINUOUS
10
6.04486
20
-3.21773
11
6.04742
21
-3.21943
0
LINE
8
BLACK
6
CONTINUOUS
10
6.04742
20
-3.21943
11
6.04913
21
-3.22199
0
LINE
8
BLACK
6
CONTINUOUS
10
6.04913
20
-3.22199
11
6.04972
21
-3.225
0
LINE
8
BLACK
6
CONTINUOUS
10
6.04972
20
-3.225
11
6.04972
21
-3.375
0
LINE
8
BLACK
6
CONTINUOUS
10
6.04972
20
-3.375
11
6.04913
21
-3.37801
0
LINE
8
BLACK
6
CONTINUOUS
10
6.04913
20
-3.37801
11
6.04742
21
-3.38057
0
LINE
8
BLACK
6
CONTINUOUS
10
6.04742
20
-3.38057
11
6.04486
21
-3.38227
0
LINE
8
BLACK
6
CONTINUOUS
10
6.04486
20
-3.38227
11
6.04185
21
-3.38287
0
LINE
8
BLACK
6
CONTINUOUS
10
6.04185
20
-3.38287
11
5.89185
21
-3.38287
0
LINE
8
BLACK
6
CONTINUOUS
10
5.89185
20
-3.38287
11
5.88884
21
-3.38227
0
LINE
8
BLACK
6
CONTINUOUS
10
5.88884
20
-3.38227
11
5.88628
21
-3.38057
0
LINE
8
BLACK
6
CONTINUOUS
10
5.88628
20
-3.38057
11
5.88458
21
-3.37801
0
LINE
8
BLACK
6
CONTINUOUS
10
5.88458
20
-3.37801
11
5.88398
21
-3.375
0
LINE
8
BLACK
6
CONTINUOUS
10
5.88398
20
-3.375
11
5.88398
21
-3.225
0
LINE
8
BLACK
6
CONTINUOUS
10
5.88398
20
-3.225
11
5.88458
21
-3.22199
0
LINE
8
BLACK
6
CONTINUOUS
10
5.88458
20
-3.22199
11
5.88628
21
-3.21943
0
LINE
8
BLACK
6
CONTINUOUS
10
5.88628
20
-3.21943
11
5.88884
21
-3.21773
0
LINE
8
BLACK
6
CONTINUOUS
10
5.88884
20
-3.21773
11
5.89185
21
-3.21713
0
LINE
8
BLACK
6
CONTINUOUS
10
5.89185
20
-3.21713
11
6.04185
21
-3.21713
0
LINE
8
BLACK
6
CONTINUOUS
10
6.04185
20
-3.21713
11
6.04486
21
-3.21773
0
LINE
8
BLACK
6
CONTINUOUS
10
5.84801
20
-3.01773
11
5.85057
21
-3.01943
0
LINE
8
BLACK
6
CONTINUOUS
10
5.85057
20
-3.01943
11
5.85227
21
-3.02199
0
LINE
8
BLACK
6
CONTINUOUS
10
5.85227
20
-3.02199
11
5.85287
21
-3.025
0
LINE
8
BLACK
6
CONTINUOUS
10
5.85287
20
-3.025
11
5.85287
21
-3.175
0
LINE
8
BLACK
6
CONTINUOUS
10
5.85287
20
-3.175
11
5.85227
21
-3.17801
0
LINE
8
BLACK
6
CONTINUOUS
10
5.85227
20
-3.17801
11
5.85057
21
-3.18057
0
LINE
8
BLACK
6
CONTINUOUS
10
5.85057
20
-3.18057
11
5.84801
21
-3.18227
0
LINE
8
BLACK
6
CONTINUOUS
10
5.84801
20
-3.18227
11
5.845
21
-3.18287
0
LINE
8
BLACK
6
CONTINUOUS
10
5.845
20
-3.18287
11
5.695
21
-3.18287
0
LINE
8
BLACK
6
CONTINUOUS
10
5.695
20
-3.18287
11
5.69199
21
-3.18227
0
LINE
8
BLACK
6
CONTINUOUS
10
5.69199
20
-3.18227
11
5.68943
21
-3.18057
0
LINE
8
BLACK
6
CONTINUOUS
10
5.68943
20
-3.18057
11
5.68773
21
-3.17801
0
LINE
8
BLACK
6
CONTINUOUS
10
5.68773
20
-3.17801
11
5.68713
21
-3.175
0
LINE
8
BLACK
6
CONTINUOUS
10
5.68713
20
-3.175
11
5.68713
21
-3.025
0
LINE
8
BLACK
6
CONTINUOUS
10
5.68713
20
-3.025
11
5.68773
21
-3.02199
0
LINE
8
BLACK
6
CONTINUOUS
10
5.68773
20
-3.02199
11
5.68943
21
-3.01943
0
LINE
8
BLACK
6
CONTINUOUS
10
5.68943
20
-3.01943
11
5.69199
21
-3.01773
0
LINE
8
BLACK
6
CONTINUOUS
10
5.69199
20
-3.01773
11
5.695
21
-3.01713
0
LINE
8
BLACK
6
CONTINUOUS
10
5.695
20
-3.01713
11
5.845
21
-3.01713
0
LINE
8
BLACK
6
CONTINUOUS
10
5.845
20
-3.01713
11
5.84801
21
-3.01773
0
LINE
8
BLACK
6
CONTINUOUS
10
6.04486
20
-3.01773
11
6.04742
21
-3.01943
0
LINE
8
BLACK
6
CONTINUOUS
10
6.04742
20
-3.01943
11
6.04913
21
-3.02199
0
LINE
8
BLACK
6
CONTINUOUS
10
6.04913
20
-3.02199
11
6.04972
21
-3.025
0
LINE
8
BLACK
6
CONTINUOUS
10
6.04972
20
-3.025
11
6.04972
21
-3.175
0
LINE
8
BLACK
6
CONTINUOUS
10
6.04972
20
-3.175
11
6.04913
21
-3.17801
0
LINE
8
BLACK
6
CONTINUOUS
10
6.04913
20
-3.17801
11
6.04742
21
-3.18057
0
LINE
8
BLACK
6
CONTINUOUS
10
6.04742
20
-3.18057
11
6.04486
21
-3.18227
0
LINE
8
BLACK
6
CONTINUOUS
10
6.04486
20
-3.18227
11
6.04185
21
-3.18287
0
LINE
8
BLACK
6
CONTINUOUS
10
6.04185
20
-3.18287
11
5.89185
21
-3.18287
0
LINE
8
BLACK
6
CONTINUOUS
10
5.89185
20
-3.18287
11
5.88884
21
-3.18227
0
LINE
8
BLACK
6
CONTINUOUS
10
5.88884
20
-3.18227
11
5.88628
21
-3.18057
0
LINE
8
BLACK
6
CONTINUOUS
10
5.88628
20
-3.18057
11
5.88458
21
-3.17801
0
LINE
8
BLACK
6
CONTINUOUS
10
5.88458
20
-3.17801
11
5.88398
21
-3.175
0
LINE
8
BLACK
6
CONTINUOUS
10
5.88398
20
-3.175
11
5.88398
21
-3.025
0
LINE
8
BLACK
6
CONTINUOUS
10
5.88398
20
-3.025
11
5.88458
21
-3.02199
0
LINE
8
BLACK
6
CONTINUOUS
10
5.88458
20
-3.02199
11
5.88628
21
-3.01943
0
LINE
8
BLACK
6
CONTINUOUS
10
5.88628
20
-3.01943
11
5.88884
21
-3.01773
0
LINE
8
BLACK
6
CONTINUOUS
10
5.88884
20
-3.01773
11
5.89185
21
-3.01713
0
LINE
8
BLACK
6
CONTINUOUS
10
5.89185
20
-3.01713
11
6.04185
21
-3.01713
0
LINE
8
BLACK
6
CONTINUOUS
10
6.04185
20
-3.01713
11
6.04486
21
-3.01773
0
LINE
8
BLACK
6
CONTINUOUS
10
4.82051
20
-2.68368
11
4.83387
21
-2.68685
0
LINE
8
BLACK
6
CONTINUOUS
10
4.83387
20
-2.68685
11
4.84678
21
-2.69155
0
LINE
8
BLACK
6
CONTINUOUS
10
4.84678
20
-2.69155
11
4.85906
21
-2.69771
0
LINE
8
BLACK
6
CONTINUOUS
10
4.85906
20
-2.69771
11
4.87053
21
-2.70526
0
LINE
8
BLACK
6
CONTINUOUS
10
4.87053
20
-2.70526
11
4.88105
21
-2.71409
0
LINE
8
BLACK
6
CONTINUOUS
10
4.88105
20
-2.71409
11
4.89048
21
-2.72408
0
LINE
8
BLACK
6
CONTINUOUS
10
4.89048
20
-2.72408
11
4.89868
21
-2.7351
0
LINE
8
BLACK
6
CONTINUOUS
10
4.89868
20
-2.7351
11
4.90555
21
-2.74699
0
LINE
8
BLACK
6
CONTINUOUS
10
4.90555
20
-2.74699
11
4.91099
21
-2.7596
0
LINE
8
BLACK
6
CONTINUOUS
10
4.91099
20
-2.7596
11
4.91493
21
-2.77276
0
LINE
8
BLACK
6
CONTINUOUS
10
4.91493
20
-2.77276
11
4.91731
21
-2.78629
0
LINE
8
BLACK
6
CONTINUOUS
10
4.91731
20
-2.78629
11
4.91811
21
-2.8
0
LINE
8
BLACK
6
CONTINUOUS
10
4.91811
20
-2.8
11
4.91731
21
-2.81371
0
LINE
8
BLACK
6
CONTINUOUS
10
4.91731
20
-2.81371
11
4.91493
21
-2.82724
0
LINE
8
BLACK
6
CONTINUOUS
10
4.91493
20
-2.82724
11
4.91099
21
-2.8404
0
LINE
8
BLACK
6
CONTINUOUS
10
4.91099
20
-2.8404
11
4.90555
21
-2.85301
0
LINE
8
BLACK
6
CONTINUOUS
10
4.90555
20
-2.85301
11
4.89868
21
-2.8649
0
LINE
8
BLACK
6
CONTINUOUS
10
4.89868
20
-2.8649
11
4.89048
21
-2.87592
0
LINE
8
BLACK
6
CONTINUOUS
10
4.89048
20
-2.87592
11
4.88105
21
-2.88591
0
LINE
8
BLACK
6
CONTINUOUS
10
4.88105
20
-2.88591
11
4.87053
21
-2.89474
0
LINE
8
BLACK
6
CONTINUOUS
10
4.87053
20
-2.89474
11
4.85906
21
-2.90229
0
LINE
8
BLACK
6
CONTINUOUS
10
4.85906
20
-2.90229
11
4.84678
21
-2.90845
0
LINE
8
BLACK
6
CONTINUOUS
10
4.84678
20
-2.90845
11
4.83387
21
-2.91315
0
LINE
8
BLACK
6
CONTINUOUS
10
4.83387
20
-2.91315
11
4.82051
21
-2.91632
0
LINE
8
BLACK
6
CONTINUOUS
10
4.82051
20
-2.91632
11
4.80687
21
-2.91791
0
LINE
8
BLACK
6
CONTINUOUS
10
4.80687
20
-2.91791
11
4.79313
21
-2.91791
0
LINE
8
BLACK
6
CONTINUOUS
10
4.79313
20
-2.91791
11
4.77949
21
-2.91632
0
LINE
8
BLACK
6
CONTINUOUS
10
4.77949
20
-2.91632
11
4.76613
21
-2.91315
0
LINE
8
BLACK
6
CONTINUOUS
10
4.76613
20
-2.91315
11
4.75322
21
-2.90845
0
LINE
8
BLACK
6
CONTINUOUS
10
4.75322
20
-2.90845
11
4.74094
21
-2.90229
0
LINE
8
BLACK
6
CONTINUOUS
10
4.74094
20
-2.90229
11
4.72947
21
-2.89474
0
LINE
8
BLACK
6
CONTINUOUS
10
4.72947
20
-2.89474
11
4.71895
21
-2.88591
0
LINE
8
BLACK
6
CONTINUOUS
10
4.71895
20
-2.88591
11
4.70952
21
-2.87592
0
LINE
8
BLACK
6
CONTINUOUS
10
4.70952
20
-2.87592
11
4.70132
21
-2.8649
0
LINE
8
BLACK
6
CONTINUOUS
10
4.70132
20
-2.8649
11
4.69445
21
-2.85301
0
LINE
8
BLACK
6
CONTINUOUS
10
4.69445
20
-2.85301
11
4.68901
21
-2.8404
0
LINE
8
BLACK
6
CONTINUOUS
10
4.68901
20
-2.8404
11
4.68507
21
-2.82724
0
LINE
8
BLACK
6
CONTINUOUS
10
4.68507
20
-2.82724
11
4.68269
21
-2.81371
0
LINE
8
BLACK
6
CONTINUOUS
10
4.68269
20
-2.81371
11
4.68189
21
-2.8
0
LINE
8
BLACK
6
CONTINUOUS
10
4.68189
20
-2.8
11
4.68269
21
-2.78629
0
LINE
8
BLACK
6
CONTINUOUS
10
4.68269
20
-2.78629
11
4.68507
21
-2.77276
0
LINE
8
BLACK
6
CONTINUOUS
10
4.68507
20
-2.77276
11
4.68901
21
-2.7596
0
LINE
8
BLACK
6
CONTINUOUS
10
4.68901
20
-2.7596
11
4.69445
21
-2.74699
0
LINE
8
BLACK
6
CONTINUOUS
10
4.69445
20
-2.74699
11
4.70132
21
-2.7351
0
LINE
8
BLACK
6
CONTINUOUS
10
4.70132
20
-2.7351
11
4.70952
21
-2.72408
0
LINE
8
BLACK
6
CONTINUOUS
10
4.70952
20
-2.72408
11
4.71895
21
-2.71409
0
LINE
8
BLACK
6
CONTINUOUS
10
4.71895
20
-2.71409
11
4.72947
21
-2.70526
0
LINE
8
BLACK
6
CONTINUOUS
10
4.72947
20
-2.70526
11
4.74094
21
-2.69771
0
LINE
8
BLACK
6
CONTINUOUS
10
4.74094
20
-2.69771
11
4.75322
21
-2.69155
0
LINE
8
BLACK
6
CONTINUOUS
10
4.75322
20
-2.69155
11
4.76613
21
-2.68685
0
LINE
8
BLACK
6
CONTINUOUS
10
4.76613
20
-2.68685
11
4.77949
21
-2.68368
0
LINE
8
BLACK
6
CONTINUOUS
10
4.77949
20
-2.68368
11
4.79313
21
-2.68209
0
LINE
8
BLACK
6
CONTINUOUS
10
4.79313
20
-2.68209
11
4.80687
21
-2.68209
0
LINE
8
BLACK
6
CONTINUOUS
10
4.80687
20
-2.68209
11
4.82051
21
-2.68368
0
LINE
8
BLACK
6
CONTINUOUS
10
6.02051
20
-2.68368
11
6.03387
21
-2.68685
0
LINE
8
BLACK
6
CONTINUOUS
10
6.03387
20
-2.68685
11
6.04678
21
-2.69155
0
LINE
8
BLACK
6
CONTINUOUS
10
6.04678
20
-2.69155
11
6.05906
21
-2.69771
0
LINE
8
BLACK
6
CONTINUOUS
10
6.05906
20
-2.69771
11
6.07053
21
-2.70526
0
LINE
8
BLACK
6
CONTINUOUS
10
6.07053
20
-2.70526
11
6.08105
21
-2.71409
0
LINE
8
BLACK
6
CONTINUOUS
10
6.08105
20
-2.71409
11
6.09048
21
-2.72408
0
LINE
8
BLACK
6
CONTINUOUS
10
6.09048
20
-2.72408
11
6.09868
21
-2.7351
0
LINE
8
BLACK
6
CONTINUOUS
10
6.09868
20
-2.7351
11
6.10555
21
-2.74699
0
LINE
8
BLACK
6
CONTINUOUS
10
6.10555
20
-2.74699
11
6.11099
21
-2.7596
0
LINE
8
BLACK
6
CONTINUOUS
10
6.11099
20
-2.7596
11
6.11493
21
-2.77276
0
LINE
8
BLACK
6
CONTINUOUS
10
6.11493
20
-2.77276
11
6.11731
21
-2.78629
0
LINE
8
BLACK
6
CONTINUOUS
10
6.11731
20
-2.78629
11
6.11811
21
-2.8
0
LINE
8
BLACK
6
CONTINUOUS
10
6.11811
20
-2.8
11
6.11731
21
-2.81371
0
LINE
8
BLACK
6
CONTINUOUS
10
6.11731
20
-2.81371
11
6.11493
21
-2.82724
0
LINE
8
BLACK
6
CONTINUOUS
10
6.11493
20
-2.82724
11
6.11099
21
-2.8404
0
LINE
8
BLACK
6
CONTINUOUS
10
6.11099
20
-2.8404
11
6.10555
21
-2.85301
0
LINE
8
BLACK
6
CONTINUOUS
10
6.10555
20
-2.85301
11
6.09868
21
-2.8649
0
LINE
8
BLACK
6
CONTINUOUS
10
6.09868
20
-2.8649
11
6.09048
21
-2.87592
0
LINE
8
BLACK
6
CONTINUOUS
10
6.09048
20
-2.87592
11
6.08105
21
-2.88591
0
LINE
8
BLACK
6
CONTINUOUS
10
6.08105
20
-2.88591
11
6.07053
21
-2.89474
0
LINE
8
BLACK
6
CONTINUOUS
10
6.07053
20
-2.89474
11
6.05906
21
-2.90229
0
LINE
8
BLACK
6
CONTINUOUS
10
6.05906
20
-2.90229
11
6.04678
21
-2.90845
0
LINE
8
BLACK
6
CONTINUOUS
10
6.04678
20
-2.90845
11
6.03387
21
-2.91315
0
LINE
8
BLACK
6
CONTINUOUS
10
6.03387
20
-2.91315
11
6.02051
21
-2.91632
0
LINE
8
BLACK
6
CONTINUOUS
10
6.02051
20
-2.91632
11
6.00687
21
-2.91791
0
LINE
8
BLACK
6
CONTINUOUS
10
6.00687
20
-2.91791
11
5.99313
21
-2.91791
0
LINE
8
BLACK
6
CONTINUOUS
10
5.99313
20
-2.91791
11
5.97949
21
-2.91632
0
LINE
8
BLACK
6
CONTINUOUS
10
5.97949
20
-2.91632
11
5.96613
21
-2.91315
0
LINE
8
BLACK
6
CONTINUOUS
10
5.96613
20
-2.91315
11
5.95322
21
-2.90845
0
LINE
8
BLACK
6
CONTINUOUS
10
5.95322
20
-2.90845
11
5.94094
21
-2.90229
0
LINE
8
BLACK
6
CONTINUOUS
10
5.94094
20
-2.90229
11
5.92947
21
-2.89474
0
LINE
8
BLACK
6
CONTINUOUS
10
5.92947
20
-2.89474
11
5.91895
21
-2.88591
0
LINE
8
BLACK
6
CONTINUOUS
10
5.91895
20
-2.88591
11
5.90952
21
-2.87592
0
LINE
8
BLACK
6
CONTINUOUS
10
5.90952
20
-2.87592
11
5.90132
21
-2.8649
0
LINE
8
BLACK
6
CONTINUOUS
10
5.90132
20
-2.8649
11
5.89445
21
-2.85301
0
LINE
8
BLACK
6
CONTINUOUS
10
5.89445
20
-2.85301
11
5.88901
21
-2.8404
0
LINE
8
BLACK
6
CONTINUOUS
10
5.88901
20
-2.8404
11
5.88507
21
-2.82724
0
LINE
8
BLACK
6
CONTINUOUS
10
5.88507
20
-2.82724
11
5.88269
21
-2.81371
0
LINE
8
BLACK
6
CONTINUOUS
10
5.88269
20
-2.81371
11
5.88189
21
-2.8
0
LINE
8
BLACK
6
CONTINUOUS
10
5.88189
20
-2.8
11
5.88269
21
-2.78629
0
LINE
8
BLACK
6
CONTINUOUS
10
5.88269
20
-2.78629
11
5.88507
21
-2.77276
0
LINE
8
BLACK
6
CONTINUOUS
10
5.88507
20
-2.77276
11
5.88901
21
-2.7596
0
LINE
8
BLACK
6
CONTINUOUS
10
5.88901
20
-2.7596
11
5.89445
21
-2.74699
0
LINE
8
BLACK
6
CONTINUOUS
10
5.89445
20
-2.74699
11
5.90132
21
-2.7351
0
LINE
8
BLACK
6
CONTINUOUS
10
5.90132
20
-2.7351
11
5.90952
21
-2.72408
0
LINE
8
BLACK
6
CONTINUOUS
10
5.90952
20
-2.72408
11
5.91895
21
-2.71409
0
LINE
8
BLACK
6
CONTINUOUS
10
5.91895
20
-2.71409
11
5.92947
21
-2.70526
0
LINE
8
BLACK
6
CONTINUOUS
10
5.92947
20
-2.70526
11
5.94094
21
-2.69771
0
LINE
8
BLACK
6
CONTINUOUS
10
5.94094
20
-2.69771
11
5.95322
21
-2.69155
0
LINE
8
BLACK
6
CONTINUOUS
10
5.95322
20
-2.69155
11
5.96613
21
-2.68685
0
LINE
8
BLACK
6
CONTINUOUS
10
5.96613
20
-2.68685
11
5.97949
21
-2.68368
0
LINE
8
BLACK
6
CONTINUOUS
10
5.97949
20
-2.68368
11
5.99313
21
-2.68209
0
LINE
8
BLACK
6
CONTINUOUS
10
5.99313
20
-2.68209
11
6.00687
21
-2.68209
0
LINE
8
BLACK
6
CONTINUOUS
10
6.00687
20
-2.68209
11
6.02051
21
-2.68368
0
LINE
8
BLACK
6
CONTINUOUS
10
5.36531
20
-2.76913
11
5.36787
21
-2.77083
0
LINE
8
BLACK
6
CONTINUOUS
10
5.36787
20
-2.77083
11
5.36957
21
-2.77339
0
LINE
8
BLACK
6
CONTINUOUS
10
5.36957
20
-2.77339
11
5.37017
21
-2.7764
0
LINE
8
BLACK
6
CONTINUOUS
10
5.37017
20
-2.7764
11
5.37017
21
-2.8236
0
LINE
8
BLACK
6
CONTINUOUS
10
5.37017
20
-2.8236
11
5.36957
21
-2.82661
0
LINE
8
BLACK
6
CONTINUOUS
10
5.36957
20
-2.82661
11
5.36787
21
-2.82917
0
LINE
8
BLACK
6
CONTINUOUS
10
5.36787
20
-2.82917
11
5.36531
21
-2.83087
0
LINE
8
BLACK
6
CONTINUOUS
10
5.36531
20
-2.83087
11
5.3623
21
-2.83147
0
LINE
8
BLACK
6
CONTINUOUS
10
5.3623
20
-2.83147
11
5.3151
21
-2.83147
0
LINE
8
BLACK
6
CONTINUOUS
10
5.3151
20
-2.83147
11
5.31209
21
-2.83087
0
LINE
8
BLACK
6
CONTINUOUS
10
5.31209
20
-2.83087
11
5.30953
21
-2.82917
0
LINE
8
BLACK
6
CONTINUOUS
10
5.30953
20
-2.82917
11
5.30783
21
-2.82661
0
LINE
8
BLACK
6
CONTINUOUS
10
5.30783
20
-2.82661
11
5.30723
21
-2.8236
0
LINE
8
BLACK
6
CONTINUOUS
10
5.30723
20
-2.8236
11
5.30723
21
-2.7764
0
LINE
8
BLACK
6
CONTINUOUS
10
5.30723
20
-2.7764
11
5.30783
21
-2.77339
0
LINE
8
BLACK
6
CONTINUOUS
10
5.30783
20
-2.77339
11
5.30953
21
-2.77083
0
LINE
8
BLACK
6
CONTINUOUS
10
5.30953
20
-2.77083
11
5.31209
21
-2.76913
0
LINE
8
BLACK
6
CONTINUOUS
10
5.31209
20
-2.76913
11
5.3151
21
-2.76853
0
LINE
8
BLACK
6
CONTINUOUS
10
5.3151
20
-2.76853
11
5.3623
21
-2.76853
0
LINE
8
BLACK
6
CONTINUOUS
10
5.3623
20
-2.76853
11
5.36531
21
-2.76913
0
LINE
8
BLACK
6
CONTINUOUS
10
5.44791
20
-2.76913
11
5.45047
21
-2.77083
0
LINE
8
BLACK
6
CONTINUOUS
10
5.45047
20
-2.77083
11
5.45217
21
-2.77339
0
LINE
8
BLACK
6
CONTINUOUS
10
5.45217
20
-2.77339
11
5.45277
21
-2.7764
0
LINE
8
BLACK
6
CONTINUOUS
10
5.45277
20
-2.7764
11
5.45277
21
-2.8236
0
LINE
8
BLACK
6
CONTINUOUS
10
5.45277
20
-2.8236
11
5.45217
21
-2.82661
0
LINE
8
BLACK
6
CONTINUOUS
10
5.45217
20
-2.82661
11
5.45047
21
-2.82917
0
LINE
8
BLACK
6
CONTINUOUS
10
5.45047
20
-2.82917
11
5.44791
21
-2.83087
0
LINE
8
BLACK
6
CONTINUOUS
10
5.44791
20
-2.83087
11
5.4449
21
-2.83147
0
LINE
8
BLACK
6
CONTINUOUS
10
5.4449
20
-2.83147
11
5.3977
21
-2.83147
0
LINE
8
BLACK
6
CONTINUOUS
10
5.3977
20
-2.83147
11
5.39469
21
-2.83087
0
LINE
8
BLACK
6
CONTINUOUS
10
5.39469
20
-2.83087
11
5.39213
21
-2.82917
0
LINE
8
BLACK
6
CONTINUOUS
10
5.39213
20
-2.82917
11
5.39043
21
-2.82661
0
LINE
8
BLACK
6
CONTINUOUS
10
5.39043
20
-2.82661
11
5.38983
21
-2.8236
0
LINE
8
BLACK
6
CONTINUOUS
10
5.38983
20
-2.8236
11
5.38983
21
-2.7764
0
LINE
8
BLACK
6
CONTINUOUS
10
5.38983
20
-2.7764
11
5.39043
21
-2.77339
0
LINE
8
BLACK
6
CONTINUOUS
10
5.39043
20
-2.77339
11
5.39213
21
-2.77083
0
LINE
8
BLACK
6
CONTINUOUS
10
5.39213
20
-2.77083
11
5.39469
21
-2.76913
0
LINE
8
BLACK
6
CONTINUOUS
10
5.39469
20
-2.76913
11
5.3977
21
-2.76853
0
LINE
8
BLACK
6
CONTINUOUS
10
5.3977
20
-2.76853
11
5.4449
21
-2.76853
0
LINE
8
BLACK
6
CONTINUOUS
10
5.4449
20
-2.76853
11
5.44791
21
-2.76913
  0
ENDSEC
  0
EOF
