  0
SECTION
  2
HEADER
  9
$ANGBASE
  50
0.0
  9
$ANGDIR
  70
1
  9
$MEASUREMENT
  70
0
  0
ENDSEC
  0
SECTION
  2
TABLES
  0
TABLE
  2
LTYPE
  70
4
  0
LTYPE
  5
40F
  2
CONTINUOUS
  70
0
  3
Solid line
  72
65
  73
0
  40
0.0
  0
LTYPE
  5
410
  2
DASHDOT
 70
0
  3
Dash Dot ____ _ ____ _
 72
65
 73
4
 40
2.0
 49
1.25
 49
-0.25
 49
0.25
 49
-0.25
  0
LTYPE
  5
411
  2
DASHED
 70
0
  3
Dashed __ __ __ __ __
 72
65
 73
2
 40
0.75
 49
0.5
 49
-0.25
  0
LTYPE
  5
43B
  2
DOTTED
 70
0
  3
Dotted .  .  .  .
 72
65
 73
2
 40
0.2
 49
0.0
 49
-0.2
  0
ENDTAB
  0
TABLE
  2
STYLE
  70
4
  0
STYLE
  2
KICAD
  70
0
  40
0
  41
1
  42
1
  50
0
  71
0
  3
isocp.shx
  0
STYLE
  2
KICADB
  70
0
  40
0
  41
1
  42
1
  50
0
  71
0
  3
isocp.shx
  0
STYLE
  2
KICADI
  70
0
  40
0
  41
1
  42
1
  50
15
  71
0
  3
isocp.shx
  0
STYLE
  2
KICADBI
  70
0
  40
0
  41
1
  42
1
  50
15
  71
0
  3
isocp.shx
  0
ENDTAB
  0
TABLE
  2
LAYER
  70
1
  0
LAYER
  2
BLACK
  70
0
  62
7
  6
CONTINUOUS
  0
ENDTAB
  0
ENDSEC
  0
SECTION
  2
ENTITIES
0
LINE
8
BLACK
6
CONTINUOUS
10
5.179
20
-4.039
11
5.091
21
-4.039
0
LINE
8
BLACK
6
CONTINUOUS
10
5.091
20
-4.039
11
5.091
21
-3.951
0
LINE
8
BLACK
6
CONTINUOUS
10
5.091
20
-3.951
11
5.179
21
-3.951
0
LINE
8
BLACK
6
CONTINUOUS
10
5.179
20
-3.951
11
5.179
21
-4.039
0
LINE
8
BLACK
6
CONTINUOUS
10
5.49059
20
-3.91559
11
5.43941
21
-3.91559
0
LINE
8
BLACK
6
CONTINUOUS
10
5.43941
20
-3.91559
11
5.43941
21
-3.86441
0
LINE
8
BLACK
6
CONTINUOUS
10
5.43941
20
-3.86441
11
5.49059
21
-3.86441
0
LINE
8
BLACK
6
CONTINUOUS
10
5.49059
20
-3.86441
11
5.49059
21
-3.91559
0
LINE
8
BLACK
6
CONTINUOUS
10
5.845
20
-3.775
11
5.695
21
-3.775
0
LINE
8
BLACK
6
CONTINUOUS
10
5.695
20
-3.775
11
5.695
21
-3.625
0
LINE
8
BLACK
6
CONTINUOUS
10
5.695
20
-3.625
11
5.845
21
-3.625
0
LINE
8
BLACK
6
CONTINUOUS
10
5.845
20
-3.625
11
5.845
21
-3.775
0
LINE
8
BLACK
6
CONTINUOUS
10
6.04185
20
-3.775
11
5.89185
21
-3.775
0
LINE
8
BLACK
6
CONTINUOUS
10
5.89185
20
-3.775
11
5.89185
21
-3.625
0
LINE
8
BLACK
6
CONTINUOUS
10
5.89185
20
-3.625
11
6.04185
21
-3.625
0
LINE
8
BLACK
6
CONTINUOUS
10
6.04185
20
-3.625
11
6.04185
21
-3.775
0
LINE
8
BLACK
6
CONTINUOUS
10
5.13091
20
-3.56977
11
5.13405
21
-3.57241
0
LINE
8
BLACK
6
CONTINUOUS
10
5.13405
20
-3.57241
11
5.13502
21
-3.57409
0
LINE
8
BLACK
6
CONTINUOUS
10
5.13502
20
-3.57409
11
5.28498
21
-3.57409
0
LINE
8
BLACK
6
CONTINUOUS
10
5.28498
20
-3.57409
11
5.28595
21
-3.57241
0
LINE
8
BLACK
6
CONTINUOUS
10
5.28595
20
-3.57241
11
5.28909
21
-3.56977
0
LINE
8
BLACK
6
CONTINUOUS
10
5.28909
20
-3.56977
11
5.29295
21
-3.56837
0
LINE
8
BLACK
6
CONTINUOUS
10
5.29295
20
-3.56837
11
5.29705
21
-3.56837
0
LINE
8
BLACK
6
CONTINUOUS
10
5.29705
20
-3.56837
11
5.30091
21
-3.56977
0
LINE
8
BLACK
6
CONTINUOUS
10
5.30091
20
-3.56977
11
5.30405
21
-3.57241
0
LINE
8
BLACK
6
CONTINUOUS
10
5.30405
20
-3.57241
11
5.3061
21
-3.57596
0
LINE
8
BLACK
6
CONTINUOUS
10
5.3061
20
-3.57596
11
5.30681
21
-3.58
0
LINE
8
BLACK
6
CONTINUOUS
10
5.30681
20
-3.58
11
5.3061
21
-3.58404
0
LINE
8
BLACK
6
CONTINUOUS
10
5.3061
20
-3.58404
11
5.30405
21
-3.58759
0
LINE
8
BLACK
6
CONTINUOUS
10
5.30405
20
-3.58759
11
5.30091
21
-3.59023
0
LINE
8
BLACK
6
CONTINUOUS
10
5.30091
20
-3.59023
11
5.29705
21
-3.59163
0
LINE
8
BLACK
6
CONTINUOUS
10
5.29705
20
-3.59163
11
5.29295
21
-3.59163
0
LINE
8
BLACK
6
CONTINUOUS
10
5.29295
20
-3.59163
11
5.28909
21
-3.59023
0
LINE
8
BLACK
6
CONTINUOUS
10
5.28909
20
-3.59023
11
5.28595
21
-3.58759
0
LINE
8
BLACK
6
CONTINUOUS
10
5.28595
20
-3.58759
11
5.28498
21
-3.58591
0
LINE
8
BLACK
6
CONTINUOUS
10
5.28498
20
-3.58591
11
5.13502
21
-3.58591
0
LINE
8
BLACK
6
CONTINUOUS
10
5.13502
20
-3.58591
11
5.13405
21
-3.58759
0
LINE
8
BLACK
6
CONTINUOUS
10
5.13405
20
-3.58759
11
5.13091
21
-3.59023
0
LINE
8
BLACK
6
CONTINUOUS
10
5.13091
20
-3.59023
11
5.12705
21
-3.59163
0
LINE
8
BLACK
6
CONTINUOUS
10
5.12705
20
-3.59163
11
5.12295
21
-3.59163
0
LINE
8
BLACK
6
CONTINUOUS
10
5.12295
20
-3.59163
11
5.11909
21
-3.59023
0
LINE
8
BLACK
6
CONTINUOUS
10
5.11909
20
-3.59023
11
5.11595
21
-3.58759
0
LINE
8
BLACK
6
CONTINUOUS
10
5.11595
20
-3.58759
11
5.1139
21
-3.58404
0
LINE
8
BLACK
6
CONTINUOUS
10
5.1139
20
-3.58404
11
5.11319
21
-3.58
0
LINE
8
BLACK
6
CONTINUOUS
10
5.11319
20
-3.58
11
5.1139
21
-3.57596
0
LINE
8
BLACK
6
CONTINUOUS
10
5.1139
20
-3.57596
11
5.11595
21
-3.57241
0
LINE
8
BLACK
6
CONTINUOUS
10
5.11595
20
-3.57241
11
5.11909
21
-3.56977
0
LINE
8
BLACK
6
CONTINUOUS
10
5.11909
20
-3.56977
11
5.12295
21
-3.56837
0
LINE
8
BLACK
6
CONTINUOUS
10
5.12295
20
-3.56837
11
5.12705
21
-3.56837
0
LINE
8
BLACK
6
CONTINUOUS
10
5.12705
20
-3.56837
11
5.13091
21
-3.56977
0
LINE
8
BLACK
6
CONTINUOUS
10
5.845
20
-3.175
11
5.695
21
-3.175
0
LINE
8
BLACK
6
CONTINUOUS
10
5.695
20
-3.175
11
5.695
21
-3.025
0
LINE
8
BLACK
6
CONTINUOUS
10
5.695
20
-3.025
11
5.845
21
-3.025
0
LINE
8
BLACK
6
CONTINUOUS
10
5.845
20
-3.025
11
5.845
21
-3.175
0
LINE
8
BLACK
6
CONTINUOUS
10
6.04185
20
-3.175
11
5.89185
21
-3.175
0
LINE
8
BLACK
6
CONTINUOUS
10
5.89185
20
-3.175
11
5.89185
21
-3.025
0
LINE
8
BLACK
6
CONTINUOUS
10
5.89185
20
-3.025
11
6.04185
21
-3.025
0
LINE
8
BLACK
6
CONTINUOUS
10
6.04185
20
-3.025
11
6.04185
21
-3.175
0
LINE
8
BLACK
6
CONTINUOUS
10
5.4449
20
-2.79409
11
5.46
21
-2.79409
0
LINE
8
BLACK
6
CONTINUOUS
10
5.46
20
-2.79409
11
5.46075
21
-2.7943
0
LINE
8
BLACK
6
CONTINUOUS
10
5.46075
20
-2.7943
11
5.46153
21
-2.7943
0
LINE
8
BLACK
6
CONTINUOUS
10
5.46153
20
-2.7943
11
5.4622
21
-2.79468
0
LINE
8
BLACK
6
CONTINUOUS
10
5.4622
20
-2.79468
11
5.46295
21
-2.79489
0
LINE
8
BLACK
6
CONTINUOUS
10
5.46295
20
-2.79489
11
5.4635
21
-2.79544
0
LINE
8
BLACK
6
CONTINUOUS
10
5.4635
20
-2.79544
11
5.46418
21
-2.79582
0
LINE
8
BLACK
6
CONTINUOUS
10
5.46418
20
-2.79582
11
5.48418
21
-2.81582
0
LINE
8
BLACK
6
CONTINUOUS
10
5.48418
20
-2.81582
11
5.48456
21
-2.8165
0
LINE
8
BLACK
6
CONTINUOUS
10
5.48456
20
-2.8165
11
5.48511
21
-2.81705
0
LINE
8
BLACK
6
CONTINUOUS
10
5.48511
20
-2.81705
11
5.48532
21
-2.8178
0
LINE
8
BLACK
6
CONTINUOUS
10
5.48532
20
-2.8178
11
5.4857
21
-2.81847
0
LINE
8
BLACK
6
CONTINUOUS
10
5.4857
20
-2.81847
11
5.4857
21
-2.81925
0
LINE
8
BLACK
6
CONTINUOUS
10
5.4857
20
-2.81925
11
5.48591
21
-2.82
0
LINE
8
BLACK
6
CONTINUOUS
10
5.48591
20
-2.82
11
5.48591
21
-2.83977
0
LINE
8
BLACK
6
CONTINUOUS
10
5.48591
20
-2.83977
11
5.48905
21
-2.84241
0
LINE
8
BLACK
6
CONTINUOUS
10
5.48905
20
-2.84241
11
5.4911
21
-2.84596
0
LINE
8
BLACK
6
CONTINUOUS
10
5.4911
20
-2.84596
11
5.49181
21
-2.85
0
LINE
8
BLACK
6
CONTINUOUS
10
5.49181
20
-2.85
11
5.4911
21
-2.85404
0
LINE
8
BLACK
6
CONTINUOUS
10
5.4911
20
-2.85404
11
5.48905
21
-2.85759
0
LINE
8
BLACK
6
CONTINUOUS
10
5.48905
20
-2.85759
11
5.48591
21
-2.86023
0
LINE
8
BLACK
6
CONTINUOUS
10
5.48591
20
-2.86023
11
5.48205
21
-2.86163
0
LINE
8
BLACK
6
CONTINUOUS
10
5.48205
20
-2.86163
11
5.47795
21
-2.86163
0
LINE
8
BLACK
6
CONTINUOUS
10
5.47795
20
-2.86163
11
5.47409
21
-2.86023
0
LINE
8
BLACK
6
CONTINUOUS
10
5.47409
20
-2.86023
11
5.47095
21
-2.85759
0
LINE
8
BLACK
6
CONTINUOUS
10
5.47095
20
-2.85759
11
5.4689
21
-2.85404
0
LINE
8
BLACK
6
CONTINUOUS
10
5.4689
20
-2.85404
11
5.46819
21
-2.85
0
LINE
8
BLACK
6
CONTINUOUS
10
5.46819
20
-2.85
11
5.4689
21
-2.84596
0
LINE
8
BLACK
6
CONTINUOUS
10
5.4689
20
-2.84596
11
5.47095
21
-2.84241
0
LINE
8
BLACK
6
CONTINUOUS
10
5.47095
20
-2.84241
11
5.47409
21
-2.83977
0
LINE
8
BLACK
6
CONTINUOUS
10
5.47409
20
-2.83977
11
5.47409
21
-2.82245
0
LINE
8
BLACK
6
CONTINUOUS
10
5.47409
20
-2.82245
11
5.45755
21
-2.80591
0
LINE
8
BLACK
6
CONTINUOUS
10
5.45755
20
-2.80591
11
5.4449
21
-2.80591
0
LINE
8
BLACK
6
CONTINUOUS
10
5.4449
20
-2.80591
11
5.4449
21
-2.8236
0
LINE
8
BLACK
6
CONTINUOUS
10
5.4449
20
-2.8236
11
5.3977
21
-2.8236
0
LINE
8
BLACK
6
CONTINUOUS
10
5.3977
20
-2.8236
11
5.3977
21
-2.7764
0
LINE
8
BLACK
6
CONTINUOUS
10
5.3977
20
-2.7764
11
5.4449
21
-2.7764
0
LINE
8
BLACK
6
CONTINUOUS
10
5.4449
20
-2.7764
11
5.4449
21
-2.79409
0
LINE
8
BLACK
6
CONTINUOUS
10
6.18409
20
-2.61376
11
6.18624
21
-2.61591
0
LINE
8
BLACK
6
CONTINUOUS
10
6.18624
20
-2.61591
11
6.18703
21
-2.61884
0
LINE
8
BLACK
6
CONTINUOUS
10
6.18703
20
-2.61884
11
6.18703
21
-4.18116
0
LINE
8
BLACK
6
CONTINUOUS
10
6.18703
20
-4.18116
11
6.18624
21
-4.18409
0
LINE
8
BLACK
6
CONTINUOUS
10
6.18624
20
-4.18409
11
6.18409
21
-4.18624
0
LINE
8
BLACK
6
CONTINUOUS
10
6.18409
20
-4.18624
11
6.18116
21
-4.18703
0
LINE
8
BLACK
6
CONTINUOUS
10
6.18116
20
-4.18703
11
4.61884
21
-4.18703
0
LINE
8
BLACK
6
CONTINUOUS
10
4.61884
20
-4.18703
11
4.61591
21
-4.18624
0
LINE
8
BLACK
6
CONTINUOUS
10
4.61591
20
-4.18624
11
4.61376
21
-4.18409
0
LINE
8
BLACK
6
CONTINUOUS
10
4.61376
20
-4.18409
11
4.61297
21
-4.18116
0
LINE
8
BLACK
6
CONTINUOUS
10
4.61297
20
-4.18116
11
4.61297
21
-4.03999
0
LINE
8
BLACK
6
CONTINUOUS
10
4.61297
20
-4.03999
11
4.61297
21
-3.91658
0
LINE
8
BLACK
6
CONTINUOUS
10
4.61297
20
-3.91658
11
4.61297
21
-3.77599
0
LINE
8
BLACK
6
CONTINUOUS
10
4.61297
20
-3.77599
11
4.61297
21
-3.58
0
LINE
8
BLACK
6
CONTINUOUS
10
4.61297
20
-3.58
11
4.61297
21
-3.17599
0
LINE
8
BLACK
6
CONTINUOUS
10
4.61297
20
-3.17599
11
4.61297
21
-2.82459
0
LINE
8
BLACK
6
CONTINUOUS
10
4.61297
20
-2.82459
11
4.61297
21
-2.61884
0
LINE
8
BLACK
6
CONTINUOUS
10
4.61297
20
-2.61884
11
4.61376
21
-2.61591
0
LINE
8
BLACK
6
CONTINUOUS
10
4.61376
20
-2.61591
11
4.61591
21
-2.61376
0
LINE
8
BLACK
6
CONTINUOUS
10
4.61591
20
-2.61376
11
4.61884
21
-2.61297
0
LINE
8
BLACK
6
CONTINUOUS
10
4.61884
20
-2.61297
11
6.18116
21
-2.61297
0
LINE
8
BLACK
6
CONTINUOUS
10
6.18116
20
-2.61297
11
6.18409
21
-2.61376
0
LINE
8
BLACK
6
CONTINUOUS
10
5.08709
20
-3.94156
11
5.08378
21
-3.94378
0
LINE
8
BLACK
6
CONTINUOUS
10
5.08378
20
-3.94378
11
5.08378
21
-3.94378
0
LINE
8
BLACK
6
CONTINUOUS
10
5.08378
20
-3.94378
11
5.08156
21
-3.94709
0
LINE
8
BLACK
6
CONTINUOUS
10
5.08156
20
-3.94709
11
5.08098
21
-3.95001
0
LINE
8
BLACK
6
CONTINUOUS
10
5.08098
20
-3.95001
11
5.08098
21
-4.03999
0
LINE
8
BLACK
6
CONTINUOUS
10
5.08098
20
-4.03999
11
5.08156
21
-4.04291
0
LINE
8
BLACK
6
CONTINUOUS
10
5.08156
20
-4.04291
11
5.08378
21
-4.04622
0
LINE
8
BLACK
6
CONTINUOUS
10
5.08378
20
-4.04622
11
5.08378
21
-4.04622
0
LINE
8
BLACK
6
CONTINUOUS
10
5.08378
20
-4.04622
11
5.08709
21
-4.04844
0
LINE
8
BLACK
6
CONTINUOUS
10
5.08709
20
-4.04844
11
5.08709
21
-4.04844
0
LINE
8
BLACK
6
CONTINUOUS
10
5.08709
20
-4.04844
11
5.09001
21
-4.04902
0
LINE
8
BLACK
6
CONTINUOUS
10
5.09001
20
-4.04902
11
5.17999
21
-4.04902
0
LINE
8
BLACK
6
CONTINUOUS
10
5.17999
20
-4.04902
11
5.18291
21
-4.04844
0
LINE
8
BLACK
6
CONTINUOUS
10
5.18291
20
-4.04844
11
5.18622
21
-4.04622
0
LINE
8
BLACK
6
CONTINUOUS
10
5.18622
20
-4.04622
11
5.18844
21
-4.04291
0
LINE
8
BLACK
6
CONTINUOUS
10
5.18844
20
-4.04291
11
5.18902
21
-4.03999
0
LINE
8
BLACK
6
CONTINUOUS
10
5.18902
20
-4.03999
11
5.18902
21
-3.95001
0
LINE
8
BLACK
6
CONTINUOUS
10
5.18902
20
-3.95001
11
5.18844
21
-3.94709
0
LINE
8
BLACK
6
CONTINUOUS
10
5.18844
20
-3.94709
11
5.18622
21
-3.94378
0
LINE
8
BLACK
6
CONTINUOUS
10
5.18622
20
-3.94378
11
5.18622
21
-3.94378
0
LINE
8
BLACK
6
CONTINUOUS
10
5.18622
20
-3.94378
11
5.18622
21
-3.94378
0
LINE
8
BLACK
6
CONTINUOUS
10
5.18622
20
-3.94378
11
5.18291
21
-3.94156
0
LINE
8
BLACK
6
CONTINUOUS
10
5.18291
20
-3.94156
11
5.17999
21
-3.94098
0
LINE
8
BLACK
6
CONTINUOUS
10
5.17999
20
-3.94098
11
5.09001
21
-3.94098
0
LINE
8
BLACK
6
CONTINUOUS
10
5.09001
20
-3.94098
11
5.08709
21
-3.94156
0
LINE
8
BLACK
6
CONTINUOUS
10
5.4355
20
-3.85497
11
5.43219
21
-3.85719
0
LINE
8
BLACK
6
CONTINUOUS
10
5.43219
20
-3.85719
11
5.43219
21
-3.85719
0
LINE
8
BLACK
6
CONTINUOUS
10
5.43219
20
-3.85719
11
5.42997
21
-3.8605
0
LINE
8
BLACK
6
CONTINUOUS
10
5.42997
20
-3.8605
11
5.42939
21
-3.86342
0
LINE
8
BLACK
6
CONTINUOUS
10
5.42939
20
-3.86342
11
5.42939
21
-3.91658
0
LINE
8
BLACK
6
CONTINUOUS
10
5.42939
20
-3.91658
11
5.42997
21
-3.9195
0
LINE
8
BLACK
6
CONTINUOUS
10
5.42997
20
-3.9195
11
5.43219
21
-3.92281
0
LINE
8
BLACK
6
CONTINUOUS
10
5.43219
20
-3.92281
11
5.43219
21
-3.92281
0
LINE
8
BLACK
6
CONTINUOUS
10
5.43219
20
-3.92281
11
5.4355
21
-3.92503
0
LINE
8
BLACK
6
CONTINUOUS
10
5.4355
20
-3.92503
11
5.4355
21
-3.92503
0
LINE
8
BLACK
6
CONTINUOUS
10
5.4355
20
-3.92503
11
5.43842
21
-3.92561
0
LINE
8
BLACK
6
CONTINUOUS
10
5.43842
20
-3.92561
11
5.49158
21
-3.92561
0
LINE
8
BLACK
6
CONTINUOUS
10
5.49158
20
-3.92561
11
5.4945
21
-3.92503
0
LINE
8
BLACK
6
CONTINUOUS
10
5.4945
20
-3.92503
11
5.49781
21
-3.92281
0
LINE
8
BLACK
6
CONTINUOUS
10
5.49781
20
-3.92281
11
5.50003
21
-3.9195
0
LINE
8
BLACK
6
CONTINUOUS
10
5.50003
20
-3.9195
11
5.50061
21
-3.91658
0
LINE
8
BLACK
6
CONTINUOUS
10
5.50061
20
-3.91658
11
5.50061
21
-3.86342
0
LINE
8
BLACK
6
CONTINUOUS
10
5.50061
20
-3.86342
11
5.50003
21
-3.8605
0
LINE
8
BLACK
6
CONTINUOUS
10
5.50003
20
-3.8605
11
5.49781
21
-3.85719
0
LINE
8
BLACK
6
CONTINUOUS
10
5.49781
20
-3.85719
11
5.49781
21
-3.85719
0
LINE
8
BLACK
6
CONTINUOUS
10
5.49781
20
-3.85719
11
5.49781
21
-3.85719
0
LINE
8
BLACK
6
CONTINUOUS
10
5.49781
20
-3.85719
11
5.4945
21
-3.85497
0
LINE
8
BLACK
6
CONTINUOUS
10
5.4945
20
-3.85497
11
5.49158
21
-3.85439
0
LINE
8
BLACK
6
CONTINUOUS
10
5.49158
20
-3.85439
11
5.43842
21
-3.85439
0
LINE
8
BLACK
6
CONTINUOUS
10
5.43842
20
-3.85439
11
5.4355
21
-3.85497
0
LINE
8
BLACK
6
CONTINUOUS
10
5.68556
20
-3.77891
11
5.68778
21
-3.78222
0
LINE
8
BLACK
6
CONTINUOUS
10
5.68778
20
-3.78222
11
5.68778
21
-3.78222
0
LINE
8
BLACK
6
CONTINUOUS
10
5.68778
20
-3.78222
11
5.69109
21
-3.78444
0
LINE
8
BLACK
6
CONTINUOUS
10
5.69109
20
-3.78444
11
5.69109
21
-3.78444
0
LINE
8
BLACK
6
CONTINUOUS
10
5.69109
20
-3.78444
11
5.69401
21
-3.78502
0
LINE
8
BLACK
6
CONTINUOUS
10
5.69401
20
-3.78502
11
5.84599
21
-3.78502
0
LINE
8
BLACK
6
CONTINUOUS
10
5.84599
20
-3.78502
11
5.84891
21
-3.78444
0
LINE
8
BLACK
6
CONTINUOUS
10
5.84891
20
-3.78444
11
5.85222
21
-3.78222
0
LINE
8
BLACK
6
CONTINUOUS
10
5.85222
20
-3.78222
11
5.85444
21
-3.77891
0
LINE
8
BLACK
6
CONTINUOUS
10
5.85444
20
-3.77891
11
5.85502
21
-3.77599
0
LINE
8
BLACK
6
CONTINUOUS
10
5.85502
20
-3.77599
11
5.85502
21
-3.77599
0
LINE
8
BLACK
6
CONTINUOUS
10
5.85502
20
-3.77599
11
5.85502
21
-3.62401
0
LINE
8
BLACK
6
CONTINUOUS
10
5.85502
20
-3.62401
11
5.85444
21
-3.62109
0
LINE
8
BLACK
6
CONTINUOUS
10
5.85444
20
-3.62109
11
5.85222
21
-3.61778
0
LINE
8
BLACK
6
CONTINUOUS
10
5.85222
20
-3.61778
11
5.85222
21
-3.61778
0
LINE
8
BLACK
6
CONTINUOUS
10
5.85222
20
-3.61778
11
5.85222
21
-3.61778
0
LINE
8
BLACK
6
CONTINUOUS
10
5.85222
20
-3.61778
11
5.84891
21
-3.61556
0
LINE
8
BLACK
6
CONTINUOUS
10
5.84891
20
-3.61556
11
5.84599
21
-3.61498
0
LINE
8
BLACK
6
CONTINUOUS
10
5.84599
20
-3.61498
11
5.69401
21
-3.61498
0
LINE
8
BLACK
6
CONTINUOUS
10
5.69401
20
-3.61498
11
5.69109
21
-3.61556
0
LINE
8
BLACK
6
CONTINUOUS
10
5.69109
20
-3.61556
11
5.68778
21
-3.61778
0
LINE
8
BLACK
6
CONTINUOUS
10
5.68778
20
-3.61778
11
5.68778
21
-3.61778
0
LINE
8
BLACK
6
CONTINUOUS
10
5.68778
20
-3.61778
11
5.68556
21
-3.62109
0
LINE
8
BLACK
6
CONTINUOUS
10
5.68556
20
-3.62109
11
5.68498
21
-3.62401
0
LINE
8
BLACK
6
CONTINUOUS
10
5.68498
20
-3.62401
11
5.68498
21
-3.77599
0
LINE
8
BLACK
6
CONTINUOUS
10
5.68498
20
-3.77599
11
5.68556
21
-3.77891
0
LINE
8
BLACK
6
CONTINUOUS
10
5.88241
20
-3.77891
11
5.88463
21
-3.78222
0
LINE
8
BLACK
6
CONTINUOUS
10
5.88463
20
-3.78222
11
5.88463
21
-3.78222
0
LINE
8
BLACK
6
CONTINUOUS
10
5.88463
20
-3.78222
11
5.88794
21
-3.78444
0
LINE
8
BLACK
6
CONTINUOUS
10
5.88794
20
-3.78444
11
5.88794
21
-3.78444
0
LINE
8
BLACK
6
CONTINUOUS
10
5.88794
20
-3.78444
11
5.89086
21
-3.78502
0
LINE
8
BLACK
6
CONTINUOUS
10
5.89086
20
-3.78502
11
6.04284
21
-3.78502
0
LINE
8
BLACK
6
CONTINUOUS
10
6.04284
20
-3.78502
11
6.04576
21
-3.78444
0
LINE
8
BLACK
6
CONTINUOUS
10
6.04576
20
-3.78444
11
6.04907
21
-3.78222
0
LINE
8
BLACK
6
CONTINUOUS
10
6.04907
20
-3.78222
11
6.05129
21
-3.77891
0
LINE
8
BLACK
6
CONTINUOUS
10
6.05129
20
-3.77891
11
6.05187
21
-3.77599
0
LINE
8
BLACK
6
CONTINUOUS
10
6.05187
20
-3.77599
11
6.05187
21
-3.62401
0
LINE
8
BLACK
6
CONTINUOUS
10
6.05187
20
-3.62401
11
6.05129
21
-3.62109
0
LINE
8
BLACK
6
CONTINUOUS
10
6.05129
20
-3.62109
11
6.04907
21
-3.61778
0
LINE
8
BLACK
6
CONTINUOUS
10
6.04907
20
-3.61778
11
6.04907
21
-3.61778
0
LINE
8
BLACK
6
CONTINUOUS
10
6.04907
20
-3.61778
11
6.04907
21
-3.61778
0
LINE
8
BLACK
6
CONTINUOUS
10
6.04907
20
-3.61778
11
6.04576
21
-3.61556
0
LINE
8
BLACK
6
CONTINUOUS
10
6.04576
20
-3.61556
11
6.04284
21
-3.61498
0
LINE
8
BLACK
6
CONTINUOUS
10
6.04284
20
-3.61498
11
5.89086
21
-3.61498
0
LINE
8
BLACK
6
CONTINUOUS
10
5.89086
20
-3.61498
11
5.88794
21
-3.61556
0
LINE
8
BLACK
6
CONTINUOUS
10
5.88794
20
-3.61556
11
5.88463
21
-3.61778
0
LINE
8
BLACK
6
CONTINUOUS
10
5.88463
20
-3.61778
11
5.88463
21
-3.61778
0
LINE
8
BLACK
6
CONTINUOUS
10
5.88463
20
-3.61778
11
5.88241
21
-3.62109
0
LINE
8
BLACK
6
CONTINUOUS
10
5.88241
20
-3.62109
11
5.88183
21
-3.62401
0
LINE
8
BLACK
6
CONTINUOUS
10
5.88183
20
-3.62401
11
5.88183
21
-3.77599
0
LINE
8
BLACK
6
CONTINUOUS
10
5.88183
20
-3.77599
11
5.88241
21
-3.77891
0
LINE
8
BLACK
6
CONTINUOUS
10
5.10373
20
-3.5857
11
5.10593
21
-3.59101
0
LINE
8
BLACK
6
CONTINUOUS
10
5.10593
20
-3.59101
11
5.10943
21
-3.59557
0
LINE
8
BLACK
6
CONTINUOUS
10
5.10943
20
-3.59557
11
5.10943
21
-3.59557
0
LINE
8
BLACK
6
CONTINUOUS
10
5.10943
20
-3.59557
11
5.11399
21
-3.59907
0
LINE
8
BLACK
6
CONTINUOUS
10
5.11399
20
-3.59907
11
5.11399
21
-3.59907
0
LINE
8
BLACK
6
CONTINUOUS
10
5.11399
20
-3.59907
11
5.1193
21
-3.60127
0
LINE
8
BLACK
6
CONTINUOUS
10
5.1193
20
-3.60127
11
5.125
21
-3.60202
0
LINE
8
BLACK
6
CONTINUOUS
10
5.125
20
-3.60202
11
5.125
21
-3.60202
0
LINE
8
BLACK
6
CONTINUOUS
10
5.125
20
-3.60202
11
5.125
21
-3.60202
0
LINE
8
BLACK
6
CONTINUOUS
10
5.125
20
-3.60202
11
5.1307
21
-3.60127
0
LINE
8
BLACK
6
CONTINUOUS
10
5.1307
20
-3.60127
11
5.1307
21
-3.60127
0
LINE
8
BLACK
6
CONTINUOUS
10
5.1307
20
-3.60127
11
5.1307
21
-3.60127
0
LINE
8
BLACK
6
CONTINUOUS
10
5.1307
20
-3.60127
11
5.1324
21
-3.60056
0
LINE
8
BLACK
6
CONTINUOUS
10
5.1324
20
-3.60056
11
5.13601
21
-3.59907
0
LINE
8
BLACK
6
CONTINUOUS
10
5.13601
20
-3.59907
11
5.13601
21
-3.59907
0
LINE
8
BLACK
6
CONTINUOUS
10
5.13601
20
-3.59907
11
5.13601
21
-3.59907
0
LINE
8
BLACK
6
CONTINUOUS
10
5.13601
20
-3.59907
11
5.13853
21
-3.59714
0
LINE
8
BLACK
6
CONTINUOUS
10
5.13853
20
-3.59714
11
5.14133
21
-3.59598
0
LINE
8
BLACK
6
CONTINUOUS
10
5.14133
20
-3.59598
11
5.1421
21
-3.59593
0
LINE
8
BLACK
6
CONTINUOUS
10
5.1421
20
-3.59593
11
5.2779
21
-3.59593
0
LINE
8
BLACK
6
CONTINUOUS
10
5.2779
20
-3.59593
11
5.28084
21
-3.59671
0
LINE
8
BLACK
6
CONTINUOUS
10
5.28084
20
-3.59671
11
5.28147
21
-3.59714
0
LINE
8
BLACK
6
CONTINUOUS
10
5.28147
20
-3.59714
11
5.28399
21
-3.59907
0
LINE
8
BLACK
6
CONTINUOUS
10
5.28399
20
-3.59907
11
5.28399
21
-3.59907
0
LINE
8
BLACK
6
CONTINUOUS
10
5.28399
20
-3.59907
11
5.28399
21
-3.59907
0
LINE
8
BLACK
6
CONTINUOUS
10
5.28399
20
-3.59907
11
5.2893
21
-3.60127
0
LINE
8
BLACK
6
CONTINUOUS
10
5.2893
20
-3.60127
11
5.295
21
-3.60202
0
LINE
8
BLACK
6
CONTINUOUS
10
5.295
20
-3.60202
11
5.295
21
-3.60202
0
LINE
8
BLACK
6
CONTINUOUS
10
5.295
20
-3.60202
11
5.295
21
-3.60202
0
LINE
8
BLACK
6
CONTINUOUS
10
5.295
20
-3.60202
11
5.3007
21
-3.60127
0
LINE
8
BLACK
6
CONTINUOUS
10
5.3007
20
-3.60127
11
5.3007
21
-3.60127
0
LINE
8
BLACK
6
CONTINUOUS
10
5.3007
20
-3.60127
11
5.3007
21
-3.60127
0
LINE
8
BLACK
6
CONTINUOUS
10
5.3007
20
-3.60127
11
5.30225
21
-3.60062
0
LINE
8
BLACK
6
CONTINUOUS
10
5.30225
20
-3.60062
11
5.30601
21
-3.59907
0
LINE
8
BLACK
6
CONTINUOUS
10
5.30601
20
-3.59907
11
5.30601
21
-3.59907
0
LINE
8
BLACK
6
CONTINUOUS
10
5.30601
20
-3.59907
11
5.30601
21
-3.59907
0
LINE
8
BLACK
6
CONTINUOUS
10
5.30601
20
-3.59907
11
5.31057
21
-3.59557
0
LINE
8
BLACK
6
CONTINUOUS
10
5.31057
20
-3.59557
11
5.31407
21
-3.59101
0
LINE
8
BLACK
6
CONTINUOUS
10
5.31407
20
-3.59101
11
5.31407
21
-3.59101
0
LINE
8
BLACK
6
CONTINUOUS
10
5.31407
20
-3.59101
11
5.31407
21
-3.59101
0
LINE
8
BLACK
6
CONTINUOUS
10
5.31407
20
-3.59101
11
5.31627
21
-3.5857
0
LINE
8
BLACK
6
CONTINUOUS
10
5.31627
20
-3.5857
11
5.31702
21
-3.58
0
LINE
8
BLACK
6
CONTINUOUS
10
5.31702
20
-3.58
11
5.31702
21
-3.58
0
LINE
8
BLACK
6
CONTINUOUS
10
5.31702
20
-3.58
11
5.31627
21
-3.5743
0
LINE
8
BLACK
6
CONTINUOUS
10
5.31627
20
-3.5743
11
5.31627
21
-3.5743
0
LINE
8
BLACK
6
CONTINUOUS
10
5.31627
20
-3.5743
11
5.31407
21
-3.56899
0
LINE
8
BLACK
6
CONTINUOUS
10
5.31407
20
-3.56899
11
5.31407
21
-3.56899
0
LINE
8
BLACK
6
CONTINUOUS
10
5.31407
20
-3.56899
11
5.31407
21
-3.56899
0
LINE
8
BLACK
6
CONTINUOUS
10
5.31407
20
-3.56899
11
5.31057
21
-3.56443
0
LINE
8
BLACK
6
CONTINUOUS
10
5.31057
20
-3.56443
11
5.31057
21
-3.56443
0
LINE
8
BLACK
6
CONTINUOUS
10
5.31057
20
-3.56443
11
5.31057
21
-3.56443
0
LINE
8
BLACK
6
CONTINUOUS
10
5.31057
20
-3.56443
11
5.30601
21
-3.56093
0
LINE
8
BLACK
6
CONTINUOUS
10
5.30601
20
-3.56093
11
5.30601
21
-3.56093
0
LINE
8
BLACK
6
CONTINUOUS
10
5.30601
20
-3.56093
11
5.3007
21
-3.55873
0
LINE
8
BLACK
6
CONTINUOUS
10
5.3007
20
-3.55873
11
5.295
21
-3.55798
0
LINE
8
BLACK
6
CONTINUOUS
10
5.295
20
-3.55798
11
5.295
21
-3.55798
0
LINE
8
BLACK
6
CONTINUOUS
10
5.295
20
-3.55798
11
5.2893
21
-3.55873
0
LINE
8
BLACK
6
CONTINUOUS
10
5.2893
20
-3.55873
11
5.2893
21
-3.55873
0
LINE
8
BLACK
6
CONTINUOUS
10
5.2893
20
-3.55873
11
5.28399
21
-3.56093
0
LINE
8
BLACK
6
CONTINUOUS
10
5.28399
20
-3.56093
11
5.28147
21
-3.56286
0
LINE
8
BLACK
6
CONTINUOUS
10
5.28147
20
-3.56286
11
5.27867
21
-3.56402
0
LINE
8
BLACK
6
CONTINUOUS
10
5.27867
20
-3.56402
11
5.2779
21
-3.56407
0
LINE
8
BLACK
6
CONTINUOUS
10
5.2779
20
-3.56407
11
5.1421
21
-3.56407
0
LINE
8
BLACK
6
CONTINUOUS
10
5.1421
20
-3.56407
11
5.13916
21
-3.56329
0
LINE
8
BLACK
6
CONTINUOUS
10
5.13916
20
-3.56329
11
5.13853
21
-3.56286
0
LINE
8
BLACK
6
CONTINUOUS
10
5.13853
20
-3.56286
11
5.13601
21
-3.56093
0
LINE
8
BLACK
6
CONTINUOUS
10
5.13601
20
-3.56093
11
5.13601
21
-3.56093
0
LINE
8
BLACK
6
CONTINUOUS
10
5.13601
20
-3.56093
11
5.13601
21
-3.56093
0
LINE
8
BLACK
6
CONTINUOUS
10
5.13601
20
-3.56093
11
5.1307
21
-3.55873
0
LINE
8
BLACK
6
CONTINUOUS
10
5.1307
20
-3.55873
11
5.125
21
-3.55798
0
LINE
8
BLACK
6
CONTINUOUS
10
5.125
20
-3.55798
11
5.125
21
-3.55798
0
LINE
8
BLACK
6
CONTINUOUS
10
5.125
20
-3.55798
11
5.1193
21
-3.55873
0
LINE
8
BLACK
6
CONTINUOUS
10
5.1193
20
-3.55873
11
5.1193
21
-3.55873
0
LINE
8
BLACK
6
CONTINUOUS
10
5.1193
20
-3.55873
11
5.11399
21
-3.56093
0
LINE
8
BLACK
6
CONTINUOUS
10
5.11399
20
-3.56093
11
5.10943
21
-3.56443
0
LINE
8
BLACK
6
CONTINUOUS
10
5.10943
20
-3.56443
11
5.10593
21
-3.56899
0
LINE
8
BLACK
6
CONTINUOUS
10
5.10593
20
-3.56899
11
5.10373
21
-3.5743
0
LINE
8
BLACK
6
CONTINUOUS
10
5.10373
20
-3.5743
11
5.10373
21
-3.5743
0
LINE
8
BLACK
6
CONTINUOUS
10
5.10373
20
-3.5743
11
5.10298
21
-3.58
0
LINE
8
BLACK
6
CONTINUOUS
10
5.10298
20
-3.58
11
5.10298
21
-3.58
0
LINE
8
BLACK
6
CONTINUOUS
10
5.10298
20
-3.58
11
5.10373
21
-3.5857
0
LINE
8
BLACK
6
CONTINUOUS
10
5.68556
20
-3.17891
11
5.68778
21
-3.18222
0
LINE
8
BLACK
6
CONTINUOUS
10
5.68778
20
-3.18222
11
5.68778
21
-3.18222
0
LINE
8
BLACK
6
CONTINUOUS
10
5.68778
20
-3.18222
11
5.69109
21
-3.18444
0
LINE
8
BLACK
6
CONTINUOUS
10
5.69109
20
-3.18444
11
5.69109
21
-3.18444
0
LINE
8
BLACK
6
CONTINUOUS
10
5.69109
20
-3.18444
11
5.69401
21
-3.18502
0
LINE
8
BLACK
6
CONTINUOUS
10
5.69401
20
-3.18502
11
5.84599
21
-3.18502
0
LINE
8
BLACK
6
CONTINUOUS
10
5.84599
20
-3.18502
11
5.84891
21
-3.18444
0
LINE
8
BLACK
6
CONTINUOUS
10
5.84891
20
-3.18444
11
5.85222
21
-3.18222
0
LINE
8
BLACK
6
CONTINUOUS
10
5.85222
20
-3.18222
11
5.85444
21
-3.17891
0
LINE
8
BLACK
6
CONTINUOUS
10
5.85444
20
-3.17891
11
5.85502
21
-3.17599
0
LINE
8
BLACK
6
CONTINUOUS
10
5.85502
20
-3.17599
11
5.85502
21
-3.17599
0
LINE
8
BLACK
6
CONTINUOUS
10
5.85502
20
-3.17599
11
5.85502
21
-3.02401
0
LINE
8
BLACK
6
CONTINUOUS
10
5.85502
20
-3.02401
11
5.85444
21
-3.02109
0
LINE
8
BLACK
6
CONTINUOUS
10
5.85444
20
-3.02109
11
5.85222
21
-3.01778
0
LINE
8
BLACK
6
CONTINUOUS
10
5.85222
20
-3.01778
11
5.85222
21
-3.01778
0
LINE
8
BLACK
6
CONTINUOUS
10
5.85222
20
-3.01778
11
5.85222
21
-3.01778
0
LINE
8
BLACK
6
CONTINUOUS
10
5.85222
20
-3.01778
11
5.84891
21
-3.01556
0
LINE
8
BLACK
6
CONTINUOUS
10
5.84891
20
-3.01556
11
5.84599
21
-3.01498
0
LINE
8
BLACK
6
CONTINUOUS
10
5.84599
20
-3.01498
11
5.69401
21
-3.01498
0
LINE
8
BLACK
6
CONTINUOUS
10
5.69401
20
-3.01498
11
5.69109
21
-3.01556
0
LINE
8
BLACK
6
CONTINUOUS
10
5.69109
20
-3.01556
11
5.68778
21
-3.01778
0
LINE
8
BLACK
6
CONTINUOUS
10
5.68778
20
-3.01778
11
5.68778
21
-3.01778
0
LINE
8
BLACK
6
CONTINUOUS
10
5.68778
20
-3.01778
11
5.68556
21
-3.02109
0
LINE
8
BLACK
6
CONTINUOUS
10
5.68556
20
-3.02109
11
5.68498
21
-3.02401
0
LINE
8
BLACK
6
CONTINUOUS
10
5.68498
20
-3.02401
11
5.68498
21
-3.17599
0
LINE
8
BLACK
6
CONTINUOUS
10
5.68498
20
-3.17599
11
5.68556
21
-3.17891
0
LINE
8
BLACK
6
CONTINUOUS
10
5.88241
20
-3.17891
11
5.88463
21
-3.18222
0
LINE
8
BLACK
6
CONTINUOUS
10
5.88463
20
-3.18222
11
5.88463
21
-3.18222
0
LINE
8
BLACK
6
CONTINUOUS
10
5.88463
20
-3.18222
11
5.88794
21
-3.18444
0
LINE
8
BLACK
6
CONTINUOUS
10
5.88794
20
-3.18444
11
5.88794
21
-3.18444
0
LINE
8
BLACK
6
CONTINUOUS
10
5.88794
20
-3.18444
11
5.89086
21
-3.18502
0
LINE
8
BLACK
6
CONTINUOUS
10
5.89086
20
-3.18502
11
6.04284
21
-3.18502
0
LINE
8
BLACK
6
CONTINUOUS
10
6.04284
20
-3.18502
11
6.04576
21
-3.18444
0
LINE
8
BLACK
6
CONTINUOUS
10
6.04576
20
-3.18444
11
6.04907
21
-3.18222
0
LINE
8
BLACK
6
CONTINUOUS
10
6.04907
20
-3.18222
11
6.05129
21
-3.17891
0
LINE
8
BLACK
6
CONTINUOUS
10
6.05129
20
-3.17891
11
6.05187
21
-3.17599
0
LINE
8
BLACK
6
CONTINUOUS
10
6.05187
20
-3.17599
11
6.05187
21
-3.02401
0
LINE
8
BLACK
6
CONTINUOUS
10
6.05187
20
-3.02401
11
6.05129
21
-3.02109
0
LINE
8
BLACK
6
CONTINUOUS
10
6.05129
20
-3.02109
11
6.04907
21
-3.01778
0
LINE
8
BLACK
6
CONTINUOUS
10
6.04907
20
-3.01778
11
6.04907
21
-3.01778
0
LINE
8
BLACK
6
CONTINUOUS
10
6.04907
20
-3.01778
11
6.04907
21
-3.01778
0
LINE
8
BLACK
6
CONTINUOUS
10
6.04907
20
-3.01778
11
6.04576
21
-3.01556
0
LINE
8
BLACK
6
CONTINUOUS
10
6.04576
20
-3.01556
11
6.04284
21
-3.01498
0
LINE
8
BLACK
6
CONTINUOUS
10
6.04284
20
-3.01498
11
5.89086
21
-3.01498
0
LINE
8
BLACK
6
CONTINUOUS
10
5.89086
20
-3.01498
11
5.88794
21
-3.01556
0
LINE
8
BLACK
6
CONTINUOUS
10
5.88794
20
-3.01556
11
5.88463
21
-3.01778
0
LINE
8
BLACK
6
CONTINUOUS
10
5.88463
20
-3.01778
11
5.88463
21
-3.01778
0
LINE
8
BLACK
6
CONTINUOUS
10
5.88463
20
-3.01778
11
5.88241
21
-3.02109
0
LINE
8
BLACK
6
CONTINUOUS
10
5.88241
20
-3.02109
11
5.88183
21
-3.02401
0
LINE
8
BLACK
6
CONTINUOUS
10
5.88183
20
-3.02401
11
5.88183
21
-3.17599
0
LINE
8
BLACK
6
CONTINUOUS
10
5.88183
20
-3.17599
11
5.88241
21
-3.17891
0
LINE
8
BLACK
6
CONTINUOUS
10
5.39379
20
-2.76696
11
5.39048
21
-2.76918
0
LINE
8
BLACK
6
CONTINUOUS
10
5.39048
20
-2.76918
11
5.39048
21
-2.76918
0
LINE
8
BLACK
6
CONTINUOUS
10
5.39048
20
-2.76918
11
5.38826
21
-2.77249
0
LINE
8
BLACK
6
CONTINUOUS
10
5.38826
20
-2.77249
11
5.38768
21
-2.77541
0
LINE
8
BLACK
6
CONTINUOUS
10
5.38768
20
-2.77541
11
5.38768
21
-2.82459
0
LINE
8
BLACK
6
CONTINUOUS
10
5.38768
20
-2.82459
11
5.38826
21
-2.82751
0
LINE
8
BLACK
6
CONTINUOUS
10
5.38826
20
-2.82751
11
5.39048
21
-2.83082
0
LINE
8
BLACK
6
CONTINUOUS
10
5.39048
20
-2.83082
11
5.39048
21
-2.83082
0
LINE
8
BLACK
6
CONTINUOUS
10
5.39048
20
-2.83082
11
5.39379
21
-2.83304
0
LINE
8
BLACK
6
CONTINUOUS
10
5.39379
20
-2.83304
11
5.39379
21
-2.83304
0
LINE
8
BLACK
6
CONTINUOUS
10
5.39379
20
-2.83304
11
5.39671
21
-2.83362
0
LINE
8
BLACK
6
CONTINUOUS
10
5.39671
20
-2.83362
11
5.44589
21
-2.83362
0
LINE
8
BLACK
6
CONTINUOUS
10
5.44589
20
-2.83362
11
5.44881
21
-2.83304
0
LINE
8
BLACK
6
CONTINUOUS
10
5.44881
20
-2.83304
11
5.45212
21
-2.83082
0
LINE
8
BLACK
6
CONTINUOUS
10
5.45212
20
-2.83082
11
5.45333
21
-2.82902
0
LINE
8
BLACK
6
CONTINUOUS
10
5.45333
20
-2.82902
11
5.45561
21
-2.82701
0
LINE
8
BLACK
6
CONTINUOUS
10
5.45561
20
-2.82701
11
5.45859
21
-2.82642
0
LINE
8
BLACK
6
CONTINUOUS
10
5.45859
20
-2.82642
11
5.46147
21
-2.8274
0
LINE
8
BLACK
6
CONTINUOUS
10
5.46147
20
-2.8274
11
5.46347
21
-2.82968
0
LINE
8
BLACK
6
CONTINUOUS
10
5.46347
20
-2.82968
11
5.46407
21
-2.83228
0
LINE
8
BLACK
6
CONTINUOUS
10
5.46407
20
-2.83228
11
5.46407
21
-2.8329
0
LINE
8
BLACK
6
CONTINUOUS
10
5.46407
20
-2.8329
11
5.46329
21
-2.83583
0
LINE
8
BLACK
6
CONTINUOUS
10
5.46329
20
-2.83583
11
5.46286
21
-2.83647
0
LINE
8
BLACK
6
CONTINUOUS
10
5.46286
20
-2.83647
11
5.46093
21
-2.83899
0
LINE
8
BLACK
6
CONTINUOUS
10
5.46093
20
-2.83899
11
5.45873
21
-2.8443
0
LINE
8
BLACK
6
CONTINUOUS
10
5.45873
20
-2.8443
11
5.45873
21
-2.8443
0
LINE
8
BLACK
6
CONTINUOUS
10
5.45873
20
-2.8443
11
5.45798
21
-2.85
0
LINE
8
BLACK
6
CONTINUOUS
10
5.45798
20
-2.85
11
5.45798
21
-2.85
0
LINE
8
BLACK
6
CONTINUOUS
10
5.45798
20
-2.85
11
5.45873
21
-2.8557
0
LINE
8
BLACK
6
CONTINUOUS
10
5.45873
20
-2.8557
11
5.46093
21
-2.86101
0
LINE
8
BLACK
6
CONTINUOUS
10
5.46093
20
-2.86101
11
5.46443
21
-2.86557
0
LINE
8
BLACK
6
CONTINUOUS
10
5.46443
20
-2.86557
11
5.46443
21
-2.86557
0
LINE
8
BLACK
6
CONTINUOUS
10
5.46443
20
-2.86557
11
5.46899
21
-2.86907
0
LINE
8
BLACK
6
CONTINUOUS
10
5.46899
20
-2.86907
11
5.46899
21
-2.86907
0
LINE
8
BLACK
6
CONTINUOUS
10
5.46899
20
-2.86907
11
5.4743
21
-2.87127
0
LINE
8
BLACK
6
CONTINUOUS
10
5.4743
20
-2.87127
11
5.48
21
-2.87202
0
LINE
8
BLACK
6
CONTINUOUS
10
5.48
20
-2.87202
11
5.48
21
-2.87202
0
LINE
8
BLACK
6
CONTINUOUS
10
5.48
20
-2.87202
11
5.48
21
-2.87202
0
LINE
8
BLACK
6
CONTINUOUS
10
5.48
20
-2.87202
11
5.4857
21
-2.87127
0
LINE
8
BLACK
6
CONTINUOUS
10
5.4857
20
-2.87127
11
5.4857
21
-2.87127
0
LINE
8
BLACK
6
CONTINUOUS
10
5.4857
20
-2.87127
11
5.4857
21
-2.87127
0
LINE
8
BLACK
6
CONTINUOUS
10
5.4857
20
-2.87127
11
5.48725
21
-2.87062
0
LINE
8
BLACK
6
CONTINUOUS
10
5.48725
20
-2.87062
11
5.49101
21
-2.86907
0
LINE
8
BLACK
6
CONTINUOUS
10
5.49101
20
-2.86907
11
5.49101
21
-2.86907
0
LINE
8
BLACK
6
CONTINUOUS
10
5.49101
20
-2.86907
11
5.49101
21
-2.86907
0
LINE
8
BLACK
6
CONTINUOUS
10
5.49101
20
-2.86907
11
5.49557
21
-2.86557
0
LINE
8
BLACK
6
CONTINUOUS
10
5.49557
20
-2.86557
11
5.49907
21
-2.86101
0
LINE
8
BLACK
6
CONTINUOUS
10
5.49907
20
-2.86101
11
5.49907
21
-2.86101
0
LINE
8
BLACK
6
CONTINUOUS
10
5.49907
20
-2.86101
11
5.49907
21
-2.86101
0
LINE
8
BLACK
6
CONTINUOUS
10
5.49907
20
-2.86101
11
5.50127
21
-2.8557
0
LINE
8
BLACK
6
CONTINUOUS
10
5.50127
20
-2.8557
11
5.50202
21
-2.85
0
LINE
8
BLACK
6
CONTINUOUS
10
5.50202
20
-2.85
11
5.50202
21
-2.85
0
LINE
8
BLACK
6
CONTINUOUS
10
5.50202
20
-2.85
11
5.50127
21
-2.8443
0
LINE
8
BLACK
6
CONTINUOUS
10
5.50127
20
-2.8443
11
5.50127
21
-2.8443
0
LINE
8
BLACK
6
CONTINUOUS
10
5.50127
20
-2.8443
11
5.49907
21
-2.83899
0
LINE
8
BLACK
6
CONTINUOUS
10
5.49907
20
-2.83899
11
5.49907
21
-2.83899
0
LINE
8
BLACK
6
CONTINUOUS
10
5.49907
20
-2.83899
11
5.49907
21
-2.83899
0
LINE
8
BLACK
6
CONTINUOUS
10
5.49907
20
-2.83899
11
5.49714
21
-2.83647
0
LINE
8
BLACK
6
CONTINUOUS
10
5.49714
20
-2.83647
11
5.49598
21
-2.83367
0
LINE
8
BLACK
6
CONTINUOUS
10
5.49598
20
-2.83367
11
5.49593
21
-2.8329
0
LINE
8
BLACK
6
CONTINUOUS
10
5.49593
20
-2.8329
11
5.49593
21
-2.81864
0
LINE
8
BLACK
6
CONTINUOUS
10
5.49593
20
-2.81864
11
5.49593
21
-2.81864
0
LINE
8
BLACK
6
CONTINUOUS
10
5.49593
20
-2.81864
11
5.49593
21
-2.81748
0
LINE
8
BLACK
6
CONTINUOUS
10
5.49593
20
-2.81748
11
5.49593
21
-2.81748
0
LINE
8
BLACK
6
CONTINUOUS
10
5.49593
20
-2.81748
11
5.49568
21
-2.81671
0
LINE
8
BLACK
6
CONTINUOUS
10
5.49568
20
-2.81671
11
5.49546
21
-2.81582
0
LINE
8
BLACK
6
CONTINUOUS
10
5.49546
20
-2.81582
11
5.49533
21
-2.81502
0
LINE
8
BLACK
6
CONTINUOUS
10
5.49533
20
-2.81502
11
5.49497
21
-2.8143
0
LINE
8
BLACK
6
CONTINUOUS
10
5.49497
20
-2.8143
11
5.49462
21
-2.81345
0
LINE
8
BLACK
6
CONTINUOUS
10
5.49462
20
-2.81345
11
5.49437
21
-2.81268
0
LINE
8
BLACK
6
CONTINUOUS
10
5.49437
20
-2.81268
11
5.49389
21
-2.81203
0
LINE
8
BLACK
6
CONTINUOUS
10
5.49389
20
-2.81203
11
5.49341
21
-2.81124
0
LINE
8
BLACK
6
CONTINUOUS
10
5.49341
20
-2.81124
11
5.49332
21
-2.81106
0
LINE
8
BLACK
6
CONTINUOUS
10
5.49332
20
-2.81106
11
5.49304
21
-2.81052
0
LINE
8
BLACK
6
CONTINUOUS
10
5.49304
20
-2.81052
11
5.48948
21
-2.80696
0
LINE
8
BLACK
6
CONTINUOUS
10
5.48948
20
-2.80696
11
5.47037
21
-2.78785
0
LINE
8
BLACK
6
CONTINUOUS
10
5.47037
20
-2.78785
11
5.47037
21
-2.78785
0
LINE
8
BLACK
6
CONTINUOUS
10
5.47037
20
-2.78785
11
5.47023
21
-2.78771
0
LINE
8
BLACK
6
CONTINUOUS
10
5.47023
20
-2.78771
11
5.47023
21
-2.78771
0
LINE
8
BLACK
6
CONTINUOUS
10
5.47023
20
-2.78771
11
5.46948
21
-2.78696
0
LINE
8
BLACK
6
CONTINUOUS
10
5.46948
20
-2.78696
11
5.46948
21
-2.78696
0
LINE
8
BLACK
6
CONTINUOUS
10
5.46948
20
-2.78696
11
5.46876
21
-2.78659
0
LINE
8
BLACK
6
CONTINUOUS
10
5.46876
20
-2.78659
11
5.46797
21
-2.78611
0
LINE
8
BLACK
6
CONTINUOUS
10
5.46797
20
-2.78611
11
5.46732
21
-2.78563
0
LINE
8
BLACK
6
CONTINUOUS
10
5.46732
20
-2.78563
11
5.46655
21
-2.78538
0
LINE
8
BLACK
6
CONTINUOUS
10
5.46655
20
-2.78538
11
5.4657
21
-2.78503
0
LINE
8
BLACK
6
CONTINUOUS
10
5.4657
20
-2.78503
11
5.46498
21
-2.78467
0
LINE
8
BLACK
6
CONTINUOUS
10
5.46498
20
-2.78467
11
5.46466
21
-2.78462
0
LINE
8
BLACK
6
CONTINUOUS
10
5.46466
20
-2.78462
11
5.46418
21
-2.78454
0
LINE
8
BLACK
6
CONTINUOUS
10
5.46418
20
-2.78454
11
5.46329
21
-2.78432
0
LINE
8
BLACK
6
CONTINUOUS
10
5.46329
20
-2.78432
11
5.46252
21
-2.78407
0
LINE
8
BLACK
6
CONTINUOUS
10
5.46252
20
-2.78407
11
5.46252
21
-2.78407
0
LINE
8
BLACK
6
CONTINUOUS
10
5.46252
20
-2.78407
11
5.46125
21
-2.78407
0
LINE
8
BLACK
6
CONTINUOUS
10
5.46125
20
-2.78407
11
5.46079
21
-2.78407
0
LINE
8
BLACK
6
CONTINUOUS
10
5.46079
20
-2.78407
11
5.45785
21
-2.78329
0
LINE
8
BLACK
6
CONTINUOUS
10
5.45785
20
-2.78329
11
5.45571
21
-2.78114
0
LINE
8
BLACK
6
CONTINUOUS
10
5.45571
20
-2.78114
11
5.45492
21
-2.77821
0
LINE
8
BLACK
6
CONTINUOUS
10
5.45492
20
-2.77821
11
5.45492
21
-2.77541
0
LINE
8
BLACK
6
CONTINUOUS
10
5.45492
20
-2.77541
11
5.45492
21
-2.77541
0
LINE
8
BLACK
6
CONTINUOUS
10
5.45492
20
-2.77541
11
5.45492
21
-2.77541
0
LINE
8
BLACK
6
CONTINUOUS
10
5.45492
20
-2.77541
11
5.45434
21
-2.77249
0
LINE
8
BLACK
6
CONTINUOUS
10
5.45434
20
-2.77249
11
5.45212
21
-2.76918
0
LINE
8
BLACK
6
CONTINUOUS
10
5.45212
20
-2.76918
11
5.45212
21
-2.76918
0
LINE
8
BLACK
6
CONTINUOUS
10
5.45212
20
-2.76918
11
5.45212
21
-2.76918
0
LINE
8
BLACK
6
CONTINUOUS
10
5.45212
20
-2.76918
11
5.44881
21
-2.76696
0
LINE
8
BLACK
6
CONTINUOUS
10
5.44881
20
-2.76696
11
5.44589
21
-2.76638
0
LINE
8
BLACK
6
CONTINUOUS
10
5.44589
20
-2.76638
11
5.39671
21
-2.76638
0
LINE
8
BLACK
6
CONTINUOUS
10
5.39671
20
-2.76638
11
5.39379
21
-2.76696
0
CIRCLE
8
BLACK
10
4.8
20
-2.8
40
0.00688976
0
CIRCLE
8
BLACK
10
6
20
-2.8
40
0.00688976
0
CIRCLE
8
BLACK
10
4.8
20
-4
40
0.00688976
0
CIRCLE
8
BLACK
10
6
20
-4
40
0.00688976
0
CIRCLE
8
BLACK
10
5.96685
20
-3.7
40
0.00688976
0
CIRCLE
8
BLACK
10
5.77
20
-3.7
40
0.00688976
0
CIRCLE
8
BLACK
10
5.96685
20
-3.5
40
0.00688976
0
CIRCLE
8
BLACK
10
5.77
20
-3.5
40
0.00688976
0
CIRCLE
8
BLACK
10
5.96685
20
-3.1
40
0.00688976
0
CIRCLE
8
BLACK
10
5.77
20
-3.1
40
0.00688976
0
CIRCLE
8
BLACK
10
5.96685
20
-3.3
40
0.00688976
0
CIRCLE
8
BLACK
10
5.77
20
-3.3
40
0.00688976
0
CIRCLE
8
BLACK
10
5.135
20
-3.995
40
0.00688976
0
CIRCLE
8
BLACK
10
5.465
20
-3.89
40
0.00688976
0
CIRCLE
8
BLACK
10
5.465
20
-3.98843
40
0.00688976
0
CIRCLE
8
BLACK
10
5.2325
20
-3.6625
40
0.00590551
0
CIRCLE
8
BLACK
10
5.23
20
-3.755
40
0.00590551
0
CIRCLE
8
BLACK
10
5.23
20
-3.71
40
0.00590551
0
CIRCLE
8
BLACK
10
5.1875
20
-3.755
40
0.00590551
0
CIRCLE
8
BLACK
10
5.1875
20
-3.71
40
0.00590551
0
CIRCLE
8
BLACK
10
5.1875
20
-3.6625
40
0.00590551
0
CIRCLE
8
BLACK
10
5.4
20
-3.295
40
0.00590551
0
CIRCLE
8
BLACK
10
5.24
20
-3.47
40
0.00590551
0
CIRCLE
8
BLACK
10
5.405
20
-3.415
40
0.00590551
0
CIRCLE
8
BLACK
10
4.79094
20
-3.27
40
0.00590551
0
CIRCLE
8
BLACK
10
5.645
20
-3.57
40
0.00590551
0
CIRCLE
8
BLACK
10
5.355
20
-3.25
40
0.00590551
0
CIRCLE
8
BLACK
10
5.24
20
-3.42
40
0.00590551
0
CIRCLE
8
BLACK
10
5.315
20
-3.29
40
0.00590551
0
CIRCLE
8
BLACK
10
5.405
20
-3.475
40
0.00590551
0
CIRCLE
8
BLACK
10
5.5
20
-3.295
40
0.00590551
0
CIRCLE
8
BLACK
10
5.27
20
-3.29
40
0.00590551
0
CIRCLE
8
BLACK
10
5.24
20
-3.375
40
0.00590551
0
CIRCLE
8
BLACK
10
5.56
20
-3.4
40
0.00590551
0
CIRCLE
8
BLACK
10
5.57
20
-3.56563
40
0.00590551
0
CIRCLE
8
BLACK
10
5.56
20
-3.435
40
0.00590551
0
CIRCLE
8
BLACK
10
5.355
20
-3.21
40
0.00590551
0
CIRCLE
8
BLACK
10
4.98
20
-3.69
40
0.00590551
0
CIRCLE
8
BLACK
10
5.405
20
-3.37
40
0.00590551
0
CIRCLE
8
BLACK
10
5.45
20
-3.295
40
0.00590551
0
CIRCLE
8
BLACK
10
4.6926
20
-3.755
40
0.00590551
0
CIRCLE
8
BLACK
10
5.56
20
-3.475
40
0.00590551
0
CIRCLE
8
BLACK
10
5.59
20
-3.24406
40
0.00590551
0
CIRCLE
8
BLACK
10
5.22
20
-3.29
40
0.00590551
0
CIRCLE
8
BLACK
10
5.24063
20
-3.87
40
0.00590551
0
CIRCLE
8
BLACK
10
4.83
20
-3.61063
40
0.00590551
0
CIRCLE
8
BLACK
10
5.125
20
-3.58
40
0.00590551
0
CIRCLE
8
BLACK
10
5.295
20
-3.58
40
0.00590551
0
CIRCLE
8
BLACK
10
5.48
20
-2.85
40
0.00590551
  0
ENDSEC
  0
EOF
