  0
SECTION
  2
HEADER
  9
$ANGBASE
  50
0.0
  9
$ANGDIR
  70
1
  9
$MEASUREMENT
  70
0
  0
ENDSEC
  0
SECTION
  2
TABLES
  0
TABLE
  2
LTYPE
  70
4
  0
LTYPE
  5
40F
  2
CONTINUOUS
  70
0
  3
Solid line
  72
65
  73
0
  40
0.0
  0
LTYPE
  5
410
  2
DASHDOT
 70
0
  3
Dash Dot ____ _ ____ _
 72
65
 73
4
 40
2.0
 49
1.25
 49
-0.25
 49
0.25
 49
-0.25
  0
LTYPE
  5
411
  2
DASHED
 70
0
  3
Dashed __ __ __ __ __
 72
65
 73
2
 40
0.75
 49
0.5
 49
-0.25
  0
LTYPE
  5
43B
  2
DOTTED
 70
0
  3
Dotted .  .  .  .
 72
65
 73
2
 40
0.2
 49
0.0
 49
-0.2
  0
ENDTAB
  0
TABLE
  2
STYLE
  70
4
  0
STYLE
  2
KICAD
  70
0
  40
0
  41
1
  42
1
  50
0
  71
0
  3
isocp.shx
  0
STYLE
  2
KICADB
  70
0
  40
0
  41
1
  42
1
  50
0
  71
0
  3
isocp.shx
  0
STYLE
  2
KICADI
  70
0
  40
0
  41
1
  42
1
  50
15
  71
0
  3
isocp.shx
  0
STYLE
  2
KICADBI
  70
0
  40
0
  41
1
  42
1
  50
15
  71
0
  3
isocp.shx
  0
ENDTAB
  0
TABLE
  2
LAYER
  70
1
  0
LAYER
  2
BLACK
  70
0
  62
7
  6
CONTINUOUS
  0
ENDTAB
  0
ENDSEC
  0
SECTION
  2
ENTITIES
0
LINE
8
BLACK
6
CONTINUOUS
10
4.8205096456692909
20
-3.8836841338582677
11
4.8338744094488186
21
-3.8868516141732283
0
LINE
8
BLACK
6
CONTINUOUS
10
4.8338744094488186
20
-3.8868516141732283
11
4.8467810629921262
21
-3.8915492913385825
0
LINE
8
BLACK
6
CONTINUOUS
10
4.8467810629921262
20
-3.8915492913385825
11
4.8590551181102359
21
-3.8977135433070864
0
LINE
8
BLACK
6
CONTINUOUS
10
4.8590551181102359
20
-3.8977135433070864
11
4.8705305511811021
21
-3.9052610236220473
0
LINE
8
BLACK
6
CONTINUOUS
10
4.8705305511811021
20
-3.9052610236220473
11
4.8810521653543306
21
-3.9140897244094486
0
LINE
8
BLACK
6
CONTINUOUS
10
4.8810521653543306
20
-3.9140897244094486
11
4.8904776771653546
21
-3.9240801968503938
0
LINE
8
BLACK
6
CONTINUOUS
10
4.8904776771653546
20
-3.9240801968503938
11
4.8986796456692909
21
-3.9350973622047243
0
LINE
8
BLACK
6
CONTINUOUS
10
4.8986796456692909
20
-3.9350973622047243
11
4.9055471653543306
21
-3.9469922047244093
0
LINE
8
BLACK
6
CONTINUOUS
10
4.9055471653543306
20
-3.9469922047244093
11
4.9109873228346457
21
-3.9596039370078739
0
LINE
8
BLACK
6
CONTINUOUS
10
4.9109873228346457
20
-3.9596039370078739
11
4.9149265748031494
21
-3.9727618897637793
0
LINE
8
BLACK
6
CONTINUOUS
10
4.9149265748031494
20
-3.9727618897637793
11
4.9173116141732285
21
-3.9862882283464565
0
LINE
8
BLACK
6
CONTINUOUS
10
4.9173116141732285
20
-3.9862882283464565
11
4.9181102362204721
21
-4.
0
LINE
8
BLACK
6
CONTINUOUS
10
4.9181102362204721
20
-4.
11
4.9173116141732285
21
-4.0137117716535435
0
LINE
8
BLACK
6
CONTINUOUS
10
4.9173116141732285
20
-4.0137117716535435
11
4.9149265748031494
21
-4.0272381102362207
0
LINE
8
BLACK
6
CONTINUOUS
10
4.9149265748031494
20
-4.0272381102362207
11
4.9109873228346457
21
-4.0403960629921256
0
LINE
8
BLACK
6
CONTINUOUS
10
4.9109873228346457
20
-4.0403960629921256
11
4.9055471653543306
21
-4.0530077952755903
0
LINE
8
BLACK
6
CONTINUOUS
10
4.9055471653543306
20
-4.0530077952755903
11
4.8986796456692909
21
-4.0649026377952753
0
LINE
8
BLACK
6
CONTINUOUS
10
4.8986796456692909
20
-4.0649026377952753
11
4.8904776771653546
21
-4.0759198031496062
0
LINE
8
BLACK
6
CONTINUOUS
10
4.8904776771653546
20
-4.0759198031496062
11
4.8810521653543306
21
-4.0859102755905514
0
LINE
8
BLACK
6
CONTINUOUS
10
4.8810521653543306
20
-4.0859102755905514
11
4.8705305511811021
21
-4.0947389763779523
0
LINE
8
BLACK
6
CONTINUOUS
10
4.8705305511811021
20
-4.0947389763779523
11
4.8590551181102359
21
-4.1022864566929131
0
LINE
8
BLACK
6
CONTINUOUS
10
4.8590551181102359
20
-4.1022864566929131
11
4.8467810629921262
21
-4.108450708661417
0
LINE
8
BLACK
6
CONTINUOUS
10
4.8467810629921262
20
-4.108450708661417
11
4.8338744094488186
21
-4.1131483858267712
0
LINE
8
BLACK
6
CONTINUOUS
10
4.8338744094488186
20
-4.1131483858267712
11
4.8205096456692909
21
-4.1163158661417318
0
LINE
8
BLACK
6
CONTINUOUS
10
4.8205096456692909
20
-4.1163158661417318
11
4.8068674803149607
21
-4.1179103937007877
0
LINE
8
BLACK
6
CONTINUOUS
10
4.8068674803149607
20
-4.1179103937007877
11
4.793132519685039
21
-4.1179103937007877
0
LINE
8
BLACK
6
CONTINUOUS
10
4.793132519685039
20
-4.1179103937007877
11
4.7794903543307088
21
-4.1163158661417318
0
LINE
8
BLACK
6
CONTINUOUS
10
4.7794903543307088
20
-4.1163158661417318
11
4.766125590551181
21
-4.1131483858267712
0
LINE
8
BLACK
6
CONTINUOUS
10
4.766125590551181
20
-4.1131483858267712
11
4.7532189370078743
21
-4.108450708661417
0
LINE
8
BLACK
6
CONTINUOUS
10
4.7532189370078743
20
-4.108450708661417
11
4.7409448818897637
21
-4.1022864566929131
0
LINE
8
BLACK
6
CONTINUOUS
10
4.7409448818897637
20
-4.1022864566929131
11
4.7294694488188975
21
-4.0947389763779523
0
LINE
8
BLACK
6
CONTINUOUS
10
4.7294694488188975
20
-4.0947389763779523
11
4.718947834645669
21
-4.0859102755905514
0
LINE
8
BLACK
6
CONTINUOUS
10
4.718947834645669
20
-4.0859102755905514
11
4.7095223228346459
21
-4.0759198031496062
0
LINE
8
BLACK
6
CONTINUOUS
10
4.7095223228346459
20
-4.0759198031496062
11
4.7013203543307087
21
-4.0649026377952753
0
LINE
8
BLACK
6
CONTINUOUS
10
4.7013203543307087
20
-4.0649026377952753
11
4.6944528346456691
21
-4.0530077952755903
0
LINE
8
BLACK
6
CONTINUOUS
10
4.6944528346456691
20
-4.0530077952755903
11
4.689012677165354
21
-4.0403960629921256
0
LINE
8
BLACK
6
CONTINUOUS
10
4.689012677165354
20
-4.0403960629921256
11
4.6850734251968502
21
-4.0272381102362207
0
LINE
8
BLACK
6
CONTINUOUS
10
4.6850734251968502
20
-4.0272381102362207
11
4.6826883858267712
21
-4.0137117716535435
0
LINE
8
BLACK
6
CONTINUOUS
10
4.6826883858267712
20
-4.0137117716535435
11
4.6818897637795276
21
-4.
0
LINE
8
BLACK
6
CONTINUOUS
10
4.6818897637795276
20
-4.
11
4.6826883858267712
21
-3.9862882283464565
0
LINE
8
BLACK
6
CONTINUOUS
10
4.6826883858267712
20
-3.9862882283464565
11
4.6850734251968502
21
-3.9727618897637793
0
LINE
8
BLACK
6
CONTINUOUS
10
4.6850734251968502
20
-3.9727618897637793
11
4.689012677165354
21
-3.9596039370078739
0
LINE
8
BLACK
6
CONTINUOUS
10
4.689012677165354
20
-3.9596039370078739
11
4.6944528346456691
21
-3.9469922047244093
0
LINE
8
BLACK
6
CONTINUOUS
10
4.6944528346456691
20
-3.9469922047244093
11
4.7013203543307087
21
-3.9350973622047243
0
LINE
8
BLACK
6
CONTINUOUS
10
4.7013203543307087
20
-3.9350973622047243
11
4.7095223228346459
21
-3.9240801968503938
0
LINE
8
BLACK
6
CONTINUOUS
10
4.7095223228346459
20
-3.9240801968503938
11
4.718947834645669
21
-3.9140897244094486
0
LINE
8
BLACK
6
CONTINUOUS
10
4.718947834645669
20
-3.9140897244094486
11
4.7294694488188975
21
-3.9052610236220473
0
LINE
8
BLACK
6
CONTINUOUS
10
4.7294694488188975
20
-3.9052610236220473
11
4.7409448818897637
21
-3.8977135433070864
0
LINE
8
BLACK
6
CONTINUOUS
10
4.7409448818897637
20
-3.8977135433070864
11
4.7532189370078743
21
-3.8915492913385825
0
LINE
8
BLACK
6
CONTINUOUS
10
4.7532189370078743
20
-3.8915492913385825
11
4.766125590551181
21
-3.8868516141732283
0
LINE
8
BLACK
6
CONTINUOUS
10
4.766125590551181
20
-3.8868516141732283
11
4.7794903543307088
21
-3.8836841338582677
0
LINE
8
BLACK
6
CONTINUOUS
10
4.7794903543307088
20
-3.8836841338582677
11
4.793132519685039
21
-3.8820896062992123
0
LINE
8
BLACK
6
CONTINUOUS
10
4.793132519685039
20
-3.8820896062992123
11
4.8068674803149607
21
-3.8820896062992123
0
LINE
8
BLACK
6
CONTINUOUS
10
4.8068674803149607
20
-3.8820896062992123
11
4.8205096456692909
21
-3.8836841338582677
0
LINE
8
BLACK
6
CONTINUOUS
10
6.020509645669291
20
-3.8836841338582677
11
6.0338744094488188
21
-3.8868516141732283
0
LINE
8
BLACK
6
CONTINUOUS
10
6.0338744094488188
20
-3.8868516141732283
11
6.0467810629921255
21
-3.8915492913385825
0
LINE
8
BLACK
6
CONTINUOUS
10
6.0467810629921255
20
-3.8915492913385825
11
6.0590551181102361
21
-3.8977135433070864
0
LINE
8
BLACK
6
CONTINUOUS
10
6.0590551181102361
20
-3.8977135433070864
11
6.0705305511811023
21
-3.9052610236220473
0
LINE
8
BLACK
6
CONTINUOUS
10
6.0705305511811023
20
-3.9052610236220473
11
6.0810521653543308
21
-3.9140897244094486
0
LINE
8
BLACK
6
CONTINUOUS
10
6.0810521653543308
20
-3.9140897244094486
11
6.0904776771653539
21
-3.9240801968503938
0
LINE
8
BLACK
6
CONTINUOUS
10
6.0904776771653539
20
-3.9240801968503938
11
6.0986796456692911
21
-3.9350973622047243
0
LINE
8
BLACK
6
CONTINUOUS
10
6.0986796456692911
20
-3.9350973622047243
11
6.1055471653543307
21
-3.9469922047244093
0
LINE
8
BLACK
6
CONTINUOUS
10
6.1055471653543307
20
-3.9469922047244093
11
6.1109873228346459
21
-3.9596039370078739
0
LINE
8
BLACK
6
CONTINUOUS
10
6.1109873228346459
20
-3.9596039370078739
11
6.1149265748031496
21
-3.9727618897637793
0
LINE
8
BLACK
6
CONTINUOUS
10
6.1149265748031496
20
-3.9727618897637793
11
6.1173116141732278
21
-3.9862882283464565
0
LINE
8
BLACK
6
CONTINUOUS
10
6.1173116141732278
20
-3.9862882283464565
11
6.1181102362204722
21
-4.
0
LINE
8
BLACK
6
CONTINUOUS
10
6.1181102362204722
20
-4.
11
6.1173116141732278
21
-4.0137117716535435
0
LINE
8
BLACK
6
CONTINUOUS
10
6.1173116141732278
20
-4.0137117716535435
11
6.1149265748031496
21
-4.0272381102362207
0
LINE
8
BLACK
6
CONTINUOUS
10
6.1149265748031496
20
-4.0272381102362207
11
6.1109873228346459
21
-4.0403960629921256
0
LINE
8
BLACK
6
CONTINUOUS
10
6.1109873228346459
20
-4.0403960629921256
11
6.1055471653543307
21
-4.0530077952755903
0
LINE
8
BLACK
6
CONTINUOUS
10
6.1055471653543307
20
-4.0530077952755903
11
6.0986796456692911
21
-4.0649026377952753
0
LINE
8
BLACK
6
CONTINUOUS
10
6.0986796456692911
20
-4.0649026377952753
11
6.0904776771653539
21
-4.0759198031496062
0
LINE
8
BLACK
6
CONTINUOUS
10
6.0904776771653539
20
-4.0759198031496062
11
6.0810521653543308
21
-4.0859102755905514
0
LINE
8
BLACK
6
CONTINUOUS
10
6.0810521653543308
20
-4.0859102755905514
11
6.0705305511811023
21
-4.0947389763779523
0
LINE
8
BLACK
6
CONTINUOUS
10
6.0705305511811023
20
-4.0947389763779523
11
6.0590551181102361
21
-4.1022864566929131
0
LINE
8
BLACK
6
CONTINUOUS
10
6.0590551181102361
20
-4.1022864566929131
11
6.0467810629921255
21
-4.108450708661417
0
LINE
8
BLACK
6
CONTINUOUS
10
6.0467810629921255
20
-4.108450708661417
11
6.0338744094488188
21
-4.1131483858267712
0
LINE
8
BLACK
6
CONTINUOUS
10
6.0338744094488188
20
-4.1131483858267712
11
6.020509645669291
21
-4.1163158661417318
0
LINE
8
BLACK
6
CONTINUOUS
10
6.020509645669291
20
-4.1163158661417318
11
6.0068674803149609
21
-4.1179103937007877
0
LINE
8
BLACK
6
CONTINUOUS
10
6.0068674803149609
20
-4.1179103937007877
11
5.9931325196850391
21
-4.1179103937007877
0
LINE
8
BLACK
6
CONTINUOUS
10
5.9931325196850391
20
-4.1179103937007877
11
5.979490354330709
21
-4.1163158661417318
0
LINE
8
BLACK
6
CONTINUOUS
10
5.979490354330709
20
-4.1163158661417318
11
5.9661255905511812
21
-4.1131483858267712
0
LINE
8
BLACK
6
CONTINUOUS
10
5.9661255905511812
20
-4.1131483858267712
11
5.9532189370078736
21
-4.108450708661417
0
LINE
8
BLACK
6
CONTINUOUS
10
5.9532189370078736
20
-4.108450708661417
11
5.9409448818897639
21
-4.1022864566929131
0
LINE
8
BLACK
6
CONTINUOUS
10
5.9409448818897639
20
-4.1022864566929131
11
5.9294694488188977
21
-4.0947389763779523
0
LINE
8
BLACK
6
CONTINUOUS
10
5.9294694488188977
20
-4.0947389763779523
11
5.9189478346456692
21
-4.0859102755905514
0
LINE
8
BLACK
6
CONTINUOUS
10
5.9189478346456692
20
-4.0859102755905514
11
5.9095223228346452
21
-4.0759198031496062
0
LINE
8
BLACK
6
CONTINUOUS
10
5.9095223228346452
20
-4.0759198031496062
11
5.9013203543307089
21
-4.0649026377952753
0
LINE
8
BLACK
6
CONTINUOUS
10
5.9013203543307089
20
-4.0649026377952753
11
5.8944528346456693
21
-4.0530077952755903
0
LINE
8
BLACK
6
CONTINUOUS
10
5.8944528346456693
20
-4.0530077952755903
11
5.8890126771653541
21
-4.0403960629921256
0
LINE
8
BLACK
6
CONTINUOUS
10
5.8890126771653541
20
-4.0403960629921256
11
5.8850734251968504
21
-4.0272381102362207
0
LINE
8
BLACK
6
CONTINUOUS
10
5.8850734251968504
20
-4.0272381102362207
11
5.8826883858267713
21
-4.0137117716535435
0
LINE
8
BLACK
6
CONTINUOUS
10
5.8826883858267713
20
-4.0137117716535435
11
5.8818897637795278
21
-4.
0
LINE
8
BLACK
6
CONTINUOUS
10
5.8818897637795278
20
-4.
11
5.8826883858267713
21
-3.9862882283464565
0
LINE
8
BLACK
6
CONTINUOUS
10
5.8826883858267713
20
-3.9862882283464565
11
5.8850734251968504
21
-3.9727618897637793
0
LINE
8
BLACK
6
CONTINUOUS
10
5.8850734251968504
20
-3.9727618897637793
11
5.8890126771653541
21
-3.9596039370078739
0
LINE
8
BLACK
6
CONTINUOUS
10
5.8890126771653541
20
-3.9596039370078739
11
5.8944528346456693
21
-3.9469922047244093
0
LINE
8
BLACK
6
CONTINUOUS
10
5.8944528346456693
20
-3.9469922047244093
11
5.9013203543307089
21
-3.9350973622047243
0
LINE
8
BLACK
6
CONTINUOUS
10
5.9013203543307089
20
-3.9350973622047243
11
5.9095223228346452
21
-3.9240801968503938
0
LINE
8
BLACK
6
CONTINUOUS
10
5.9095223228346452
20
-3.9240801968503938
11
5.9189478346456692
21
-3.9140897244094486
0
LINE
8
BLACK
6
CONTINUOUS
10
5.9189478346456692
20
-3.9140897244094486
11
5.9294694488188977
21
-3.9052610236220473
0
LINE
8
BLACK
6
CONTINUOUS
10
5.9294694488188977
20
-3.9052610236220473
11
5.9409448818897639
21
-3.8977135433070864
0
LINE
8
BLACK
6
CONTINUOUS
10
5.9409448818897639
20
-3.8977135433070864
11
5.9532189370078736
21
-3.8915492913385825
0
LINE
8
BLACK
6
CONTINUOUS
10
5.9532189370078736
20
-3.8915492913385825
11
5.9661255905511812
21
-3.8868516141732283
0
LINE
8
BLACK
6
CONTINUOUS
10
5.9661255905511812
20
-3.8868516141732283
11
5.979490354330709
21
-3.8836841338582677
0
LINE
8
BLACK
6
CONTINUOUS
10
5.979490354330709
20
-3.8836841338582677
11
5.9931325196850391
21
-3.8820896062992123
0
LINE
8
BLACK
6
CONTINUOUS
10
5.9931325196850391
20
-3.8820896062992123
11
6.0068674803149609
21
-3.8820896062992123
0
LINE
8
BLACK
6
CONTINUOUS
10
6.0068674803149609
20
-3.8820896062992123
11
6.020509645669291
21
-3.8836841338582677
0
LINE
8
BLACK
6
CONTINUOUS
10
5.1820132677165356
20
-3.9437253543307085
11
5.1845677559055119
21
-3.945432244094488
0
LINE
8
BLACK
6
CONTINUOUS
10
5.1845677559055119
20
-3.945432244094488
11
5.1862746456692914
21
-3.9479867322834643
0
LINE
8
BLACK
6
CONTINUOUS
10
5.1862746456692914
20
-3.9479867322834643
11
5.1868740157480318
21
-3.9510000000000001
0
LINE
8
BLACK
6
CONTINUOUS
10
5.1868740157480318
20
-3.9510000000000001
11
5.1868740157480318
21
-4.0389999999999997
0
LINE
8
BLACK
6
CONTINUOUS
10
5.1868740157480318
20
-4.0389999999999997
11
5.1862746456692914
21
-4.042013267716535
0
LINE
8
BLACK
6
CONTINUOUS
10
5.1862746456692914
20
-4.042013267716535
11
5.1845677559055119
21
-4.0445677559055113
0
LINE
8
BLACK
6
CONTINUOUS
10
5.1845677559055119
20
-4.0445677559055113
11
5.1820132677165356
21
-4.0462746456692908
0
LINE
8
BLACK
6
CONTINUOUS
10
5.1820132677165356
20
-4.0462746456692908
11
5.1790000000000003
21
-4.0468740157480312
0
LINE
8
BLACK
6
CONTINUOUS
10
5.1790000000000003
20
-4.0468740157480312
11
5.0910000000000002
21
-4.0468740157480312
0
LINE
8
BLACK
6
CONTINUOUS
10
5.0910000000000002
20
-4.0468740157480312
11
5.0879867322834649
21
-4.0462746456692908
0
LINE
8
BLACK
6
CONTINUOUS
10
5.0879867322834649
20
-4.0462746456692908
11
5.0854322440944877
21
-4.0445677559055113
0
LINE
8
BLACK
6
CONTINUOUS
10
5.0854322440944877
20
-4.0445677559055113
11
5.0837253543307082
21
-4.042013267716535
0
LINE
8
BLACK
6
CONTINUOUS
10
5.0837253543307082
20
-4.042013267716535
11
5.0831259842519687
21
-4.0389999999999997
0
LINE
8
BLACK
6
CONTINUOUS
10
5.0831259842519687
20
-4.0389999999999997
11
5.0831259842519687
21
-3.9510000000000001
0
LINE
8
BLACK
6
CONTINUOUS
10
5.0831259842519687
20
-3.9510000000000001
11
5.0837253543307082
21
-3.9479867322834643
0
LINE
8
BLACK
6
CONTINUOUS
10
5.0837253543307082
20
-3.9479867322834643
11
5.0854322440944877
21
-3.945432244094488
0
LINE
8
BLACK
6
CONTINUOUS
10
5.0854322440944877
20
-3.945432244094488
11
5.0879867322834649
21
-3.9437253543307085
0
LINE
8
BLACK
6
CONTINUOUS
10
5.0879867322834649
20
-3.9437253543307085
11
5.0910000000000002
21
-3.9431259842519686
0
LINE
8
BLACK
6
CONTINUOUS
10
5.0910000000000002
20
-3.9431259842519686
11
5.1790000000000003
21
-3.9431259842519686
0
LINE
8
BLACK
6
CONTINUOUS
10
5.1790000000000003
20
-3.9431259842519686
11
5.1820132677165356
21
-3.9437253543307085
0
LINE
8
BLACK
6
CONTINUOUS
10
5.4753411023622043
20
-3.9565985039370077
11
5.4817322834645665
21
-3.9594440157480313
0
LINE
8
BLACK
6
CONTINUOUS
10
5.4817322834645665
20
-3.9594440157480313
11
5.4873921653543309
21
-3.9635561811023621
0
LINE
8
BLACK
6
CONTINUOUS
10
5.4873921653543309
20
-3.9635561811023621
11
5.4920733858267718
21
-3.9687552362204723
0
LINE
8
BLACK
6
CONTINUOUS
10
5.4920733858267718
20
-3.9687552362204723
11
5.4955714173228349
21
-3.9748139370078741
0
LINE
8
BLACK
6
CONTINUOUS
10
5.4955714173228349
20
-3.9748139370078741
11
5.4977332677165354
21
-3.9814675196850393
0
LINE
8
BLACK
6
CONTINUOUS
10
5.4977332677165354
20
-3.9814675196850393
11
5.4984645669291341
21
-3.9884251968503937
0
LINE
8
BLACK
6
CONTINUOUS
10
5.4984645669291341
20
-3.9884251968503937
11
5.4977332677165354
21
-3.995382874015748
0
LINE
8
BLACK
6
CONTINUOUS
10
5.4977332677165354
20
-3.995382874015748
11
5.4955714173228349
21
-4.0020364566929132
0
LINE
8
BLACK
6
CONTINUOUS
10
5.4955714173228349
20
-4.0020364566929132
11
5.4920733858267718
21
-4.008095157480315
0
LINE
8
BLACK
6
CONTINUOUS
10
5.4920733858267718
20
-4.008095157480315
11
5.4873921653543309
21
-4.0132942125984252
0
LINE
8
BLACK
6
CONTINUOUS
10
5.4873921653543309
20
-4.0132942125984252
11
5.4817322834645665
21
-4.0174063779527556
0
LINE
8
BLACK
6
CONTINUOUS
10
5.4817322834645665
20
-4.0174063779527556
11
5.4753411023622043
21
-4.0202518897637791
0
LINE
8
BLACK
6
CONTINUOUS
10
5.4753411023622043
20
-4.0202518897637791
11
5.4684979921259842
21
-4.0217064566929137
0
LINE
8
BLACK
6
CONTINUOUS
10
5.4684979921259842
20
-4.0217064566929137
11
5.4615020078740155
21
-4.0217064566929137
0
LINE
8
BLACK
6
CONTINUOUS
10
5.4615020078740155
20
-4.0217064566929137
11
5.4546588976377954
21
-4.0202518897637791
0
LINE
8
BLACK
6
CONTINUOUS
10
5.4546588976377954
20
-4.0202518897637791
11
5.4482677165354332
21
-4.0174063779527556
0
LINE
8
BLACK
6
CONTINUOUS
10
5.4482677165354332
20
-4.0174063779527556
11
5.4426078346456688
21
-4.0132942125984252
0
LINE
8
BLACK
6
CONTINUOUS
10
5.4426078346456688
20
-4.0132942125984252
11
5.4379266141732279
21
-4.008095157480315
0
LINE
8
BLACK
6
CONTINUOUS
10
5.4379266141732279
20
-4.008095157480315
11
5.4344285826771657
21
-4.0020364566929132
0
LINE
8
BLACK
6
CONTINUOUS
10
5.4344285826771657
20
-4.0020364566929132
11
5.4322667322834643
21
-3.995382874015748
0
LINE
8
BLACK
6
CONTINUOUS
10
5.4322667322834643
20
-3.995382874015748
11
5.4315354330708656
21
-3.9884251968503937
0
LINE
8
BLACK
6
CONTINUOUS
10
5.4315354330708656
20
-3.9884251968503937
11
5.4322667322834643
21
-3.9814675196850393
0
LINE
8
BLACK
6
CONTINUOUS
10
5.4322667322834643
20
-3.9814675196850393
11
5.4344285826771657
21
-3.9748139370078741
0
LINE
8
BLACK
6
CONTINUOUS
10
5.4344285826771657
20
-3.9748139370078741
11
5.4379266141732279
21
-3.9687552362204723
0
LINE
8
BLACK
6
CONTINUOUS
10
5.4379266141732279
20
-3.9687552362204723
11
5.4426078346456688
21
-3.9635561811023621
0
LINE
8
BLACK
6
CONTINUOUS
10
5.4426078346456688
20
-3.9635561811023621
11
5.4482677165354332
21
-3.9594440157480313
0
LINE
8
BLACK
6
CONTINUOUS
10
5.4482677165354332
20
-3.9594440157480313
11
5.4546588976377954
21
-3.9565985039370077
0
LINE
8
BLACK
6
CONTINUOUS
10
5.4546588976377954
20
-3.9565985039370077
11
5.4615020078740155
21
-3.955143937007874
0
LINE
8
BLACK
6
CONTINUOUS
10
5.4615020078740155
20
-3.955143937007874
11
5.4684979921259842
21
-3.955143937007874
0
LINE
8
BLACK
6
CONTINUOUS
10
5.4684979921259842
20
-3.955143937007874
11
5.4753411023622043
21
-3.9565985039370077
0
LINE
8
BLACK
6
CONTINUOUS
10
5.4936038188976379
20
-3.8571348031496062
11
5.4961583070866142
21
-3.8588416929133857
0
LINE
8
BLACK
6
CONTINUOUS
10
5.4961583070866142
20
-3.8588416929133857
11
5.4978651968503938
21
-3.861396181102362
0
LINE
8
BLACK
6
CONTINUOUS
10
5.4978651968503938
20
-3.861396181102362
11
5.4984645669291341
21
-3.8644094488188974
0
LINE
8
BLACK
6
CONTINUOUS
10
5.4984645669291341
20
-3.8644094488188974
11
5.4984645669291341
21
-3.9155905511811024
0
LINE
8
BLACK
6
CONTINUOUS
10
5.4984645669291341
20
-3.9155905511811024
11
5.4978651968503938
21
-3.9186038188976378
0
LINE
8
BLACK
6
CONTINUOUS
10
5.4978651968503938
20
-3.9186038188976378
11
5.4961583070866142
21
-3.9211583070866141
0
LINE
8
BLACK
6
CONTINUOUS
10
5.4961583070866142
20
-3.9211583070866141
11
5.4936038188976379
21
-3.9228651968503936
0
LINE
8
BLACK
6
CONTINUOUS
10
5.4936038188976379
20
-3.9228651968503936
11
5.4905905511811026
21
-3.9234645669291339
0
LINE
8
BLACK
6
CONTINUOUS
10
5.4905905511811026
20
-3.9234645669291339
11
5.4394094488188971
21
-3.9234645669291339
0
LINE
8
BLACK
6
CONTINUOUS
10
5.4394094488188971
20
-3.9234645669291339
11
5.4363961811023618
21
-3.9228651968503936
0
LINE
8
BLACK
6
CONTINUOUS
10
5.4363961811023618
20
-3.9228651968503936
11
5.4338416929133855
21
-3.9211583070866141
0
LINE
8
BLACK
6
CONTINUOUS
10
5.4338416929133855
20
-3.9211583070866141
11
5.432134803149606
21
-3.9186038188976378
0
LINE
8
BLACK
6
CONTINUOUS
10
5.432134803149606
20
-3.9186038188976378
11
5.4315354330708656
21
-3.9155905511811024
0
LINE
8
BLACK
6
CONTINUOUS
10
5.4315354330708656
20
-3.9155905511811024
11
5.4315354330708656
21
-3.8644094488188974
0
LINE
8
BLACK
6
CONTINUOUS
10
5.4315354330708656
20
-3.8644094488188974
11
5.432134803149606
21
-3.861396181102362
0
LINE
8
BLACK
6
CONTINUOUS
10
5.432134803149606
20
-3.861396181102362
11
5.4338416929133855
21
-3.8588416929133857
0
LINE
8
BLACK
6
CONTINUOUS
10
5.4338416929133855
20
-3.8588416929133857
11
5.4363961811023618
21
-3.8571348031496062
0
LINE
8
BLACK
6
CONTINUOUS
10
5.4363961811023618
20
-3.8571348031496062
11
5.4394094488188971
21
-3.8565354330708659
0
LINE
8
BLACK
6
CONTINUOUS
10
5.4394094488188971
20
-3.8565354330708659
11
5.4905905511811026
21
-3.8565354330708659
0
LINE
8
BLACK
6
CONTINUOUS
10
5.4905905511811026
20
-3.8565354330708659
11
5.4936038188976379
21
-3.8571348031496062
0
LINE
8
BLACK
6
CONTINUOUS
10
5.8480132677165351
20
-3.6177253543307084
11
5.8505677559055114
21
-3.6194322440944879
0
LINE
8
BLACK
6
CONTINUOUS
10
5.8505677559055114
20
-3.6194322440944879
11
5.8522746456692909
21
-3.6219867322834647
0
LINE
8
BLACK
6
CONTINUOUS
10
5.8522746456692909
20
-3.6219867322834647
11
5.8528740157480312
21
-3.625
0
LINE
8
BLACK
6
CONTINUOUS
10
5.8528740157480312
20
-3.625
11
5.8528740157480312
21
-3.7749999999999999
0
LINE
8
BLACK
6
CONTINUOUS
10
5.8528740157480312
20
-3.7749999999999999
11
5.8522746456692909
21
-3.7780132677165352
0
LINE
8
BLACK
6
CONTINUOUS
10
5.8522746456692909
20
-3.7780132677165352
11
5.8505677559055114
21
-3.7805677559055115
0
LINE
8
BLACK
6
CONTINUOUS
10
5.8505677559055114
20
-3.7805677559055115
11
5.8480132677165351
21
-3.7822746456692911
0
LINE
8
BLACK
6
CONTINUOUS
10
5.8480132677165351
20
-3.7822746456692911
11
5.8449999999999998
21
-3.7828740157480314
0
LINE
8
BLACK
6
CONTINUOUS
10
5.8449999999999998
20
-3.7828740157480314
11
5.6950000000000003
21
-3.7828740157480314
0
LINE
8
BLACK
6
CONTINUOUS
10
5.6950000000000003
20
-3.7828740157480314
11
5.6919867322834641
21
-3.7822746456692911
0
LINE
8
BLACK
6
CONTINUOUS
10
5.6919867322834641
20
-3.7822746456692911
11
5.6894322440944878
21
-3.7805677559055115
0
LINE
8
BLACK
6
CONTINUOUS
10
5.6894322440944878
20
-3.7805677559055115
11
5.6877253543307082
21
-3.7780132677165352
0
LINE
8
BLACK
6
CONTINUOUS
10
5.6877253543307082
20
-3.7780132677165352
11
5.6871259842519688
21
-3.7749999999999999
0
LINE
8
BLACK
6
CONTINUOUS
10
5.6871259842519688
20
-3.7749999999999999
11
5.6871259842519688
21
-3.625
0
LINE
8
BLACK
6
CONTINUOUS
10
5.6871259842519688
20
-3.625
11
5.6877253543307082
21
-3.6219867322834647
0
LINE
8
BLACK
6
CONTINUOUS
10
5.6877253543307082
20
-3.6219867322834647
11
5.6894322440944878
21
-3.6194322440944879
0
LINE
8
BLACK
6
CONTINUOUS
10
5.6894322440944878
20
-3.6194322440944879
11
5.6919867322834641
21
-3.6177253543307084
0
LINE
8
BLACK
6
CONTINUOUS
10
5.6919867322834641
20
-3.6177253543307084
11
5.6950000000000003
21
-3.6171259842519685
0
LINE
8
BLACK
6
CONTINUOUS
10
5.6950000000000003
20
-3.6171259842519685
11
5.8449999999999998
21
-3.6171259842519685
0
LINE
8
BLACK
6
CONTINUOUS
10
5.8449999999999998
20
-3.6171259842519685
11
5.8480132677165351
21
-3.6177253543307084
0
LINE
8
BLACK
6
CONTINUOUS
10
6.044863661417323
20
-3.6177253543307084
11
6.0474181496062993
21
-3.6194322440944879
0
LINE
8
BLACK
6
CONTINUOUS
10
6.0474181496062993
20
-3.6194322440944879
11
6.0491250393700788
21
-3.6219867322834647
0
LINE
8
BLACK
6
CONTINUOUS
10
6.0491250393700788
20
-3.6219867322834647
11
6.0497244094488192
21
-3.625
0
LINE
8
BLACK
6
CONTINUOUS
10
6.0497244094488192
20
-3.625
11
6.0497244094488192
21
-3.7749999999999999
0
LINE
8
BLACK
6
CONTINUOUS
10
6.0497244094488192
20
-3.7749999999999999
11
6.0491250393700788
21
-3.7780132677165352
0
LINE
8
BLACK
6
CONTINUOUS
10
6.0491250393700788
20
-3.7780132677165352
11
6.0474181496062993
21
-3.7805677559055115
0
LINE
8
BLACK
6
CONTINUOUS
10
6.0474181496062993
20
-3.7805677559055115
11
6.044863661417323
21
-3.7822746456692911
0
LINE
8
BLACK
6
CONTINUOUS
10
6.044863661417323
20
-3.7822746456692911
11
6.0418503937007877
21
-3.7828740157480314
0
LINE
8
BLACK
6
CONTINUOUS
10
6.0418503937007877
20
-3.7828740157480314
11
5.8918503937007873
21
-3.7828740157480314
0
LINE
8
BLACK
6
CONTINUOUS
10
5.8918503937007873
20
-3.7828740157480314
11
5.888837125984252
21
-3.7822746456692911
0
LINE
8
BLACK
6
CONTINUOUS
10
5.888837125984252
20
-3.7822746456692911
11
5.8862826377952757
21
-3.7805677559055115
0
LINE
8
BLACK
6
CONTINUOUS
10
5.8862826377952757
20
-3.7805677559055115
11
5.8845757480314962
21
-3.7780132677165352
0
LINE
8
BLACK
6
CONTINUOUS
10
5.8845757480314962
20
-3.7780132677165352
11
5.8839763779527559
21
-3.7749999999999999
0
LINE
8
BLACK
6
CONTINUOUS
10
5.8839763779527559
20
-3.7749999999999999
11
5.8839763779527559
21
-3.625
0
LINE
8
BLACK
6
CONTINUOUS
10
5.8839763779527559
20
-3.625
11
5.8845757480314962
21
-3.6219867322834647
0
LINE
8
BLACK
6
CONTINUOUS
10
5.8845757480314962
20
-3.6219867322834647
11
5.8862826377952757
21
-3.6194322440944879
0
LINE
8
BLACK
6
CONTINUOUS
10
5.8862826377952757
20
-3.6194322440944879
11
5.888837125984252
21
-3.6177253543307084
0
LINE
8
BLACK
6
CONTINUOUS
10
5.888837125984252
20
-3.6177253543307084
11
5.8918503937007873
21
-3.6171259842519685
0
LINE
8
BLACK
6
CONTINUOUS
10
5.8918503937007873
20
-3.6171259842519685
11
6.0418503937007877
21
-3.6171259842519685
0
LINE
8
BLACK
6
CONTINUOUS
10
6.0418503937007877
20
-3.6171259842519685
11
6.044863661417323
21
-3.6177253543307084
0
LINE
8
BLACK
6
CONTINUOUS
10
5.1956774803149601
20
-3.7370938582677162
11
5.2003909448818897
21
-3.7401230314960627
0
LINE
8
BLACK
6
CONTINUOUS
10
5.2003909448818897
20
-3.7401230314960627
11
5.2040601181102364
21
-3.7443574803149606
0
LINE
8
BLACK
6
CONTINUOUS
10
5.2040601181102364
20
-3.7443574803149606
11
5.2063876377952756
21
-3.7494540944881889
0
LINE
8
BLACK
6
CONTINUOUS
10
5.2063876377952756
20
-3.7494540944881889
11
5.2071850393700787
21
-3.7549999999999999
0
LINE
8
BLACK
6
CONTINUOUS
10
5.2071850393700787
20
-3.7549999999999999
11
5.2063876377952756
21
-3.7605459055118109
0
LINE
8
BLACK
6
CONTINUOUS
10
5.2063876377952756
20
-3.7605459055118109
11
5.2040601181102364
21
-3.7656425196850392
0
LINE
8
BLACK
6
CONTINUOUS
10
5.2040601181102364
20
-3.7656425196850392
11
5.2003909448818897
21
-3.7698769685039371
0
LINE
8
BLACK
6
CONTINUOUS
10
5.2003909448818897
20
-3.7698769685039371
11
5.1956774803149601
21
-3.7729061417322836
0
LINE
8
BLACK
6
CONTINUOUS
10
5.1956774803149601
20
-3.7729061417322836
11
5.1903014566929135
21
-3.7744846850393698
0
LINE
8
BLACK
6
CONTINUOUS
10
5.1903014566929135
20
-3.7744846850393698
11
5.1846985433070865
21
-3.7744846850393698
0
LINE
8
BLACK
6
CONTINUOUS
10
5.1846985433070865
20
-3.7744846850393698
11
5.179322519685039
21
-3.7729061417322836
0
LINE
8
BLACK
6
CONTINUOUS
10
5.179322519685039
20
-3.7729061417322836
11
5.1746090551181103
21
-3.7698769685039371
0
LINE
8
BLACK
6
CONTINUOUS
10
5.1746090551181103
20
-3.7698769685039371
11
5.1709398818897636
21
-3.7656425196850392
0
LINE
8
BLACK
6
CONTINUOUS
10
5.1709398818897636
20
-3.7656425196850392
11
5.1686123622047244
21
-3.7605459055118109
0
LINE
8
BLACK
6
CONTINUOUS
10
5.1686123622047244
20
-3.7605459055118109
11
5.1678149606299213
21
-3.7549999999999999
0
LINE
8
BLACK
6
CONTINUOUS
10
5.1678149606299213
20
-3.7549999999999999
11
5.1686123622047244
21
-3.7494540944881889
0
LINE
8
BLACK
6
CONTINUOUS
10
5.1686123622047244
20
-3.7494540944881889
11
5.1709398818897636
21
-3.7443574803149606
0
LINE
8
BLACK
6
CONTINUOUS
10
5.1709398818897636
20
-3.7443574803149606
11
5.1746090551181103
21
-3.7401230314960627
0
LINE
8
BLACK
6
CONTINUOUS
10
5.1746090551181103
20
-3.7401230314960627
11
5.179322519685039
21
-3.7370938582677162
0
LINE
8
BLACK
6
CONTINUOUS
10
5.179322519685039
20
-3.7370938582677162
11
5.1846985433070865
21
-3.7355153149606299
0
LINE
8
BLACK
6
CONTINUOUS
10
5.1846985433070865
20
-3.7355153149606299
11
5.1903014566929135
21
-3.7355153149606299
0
LINE
8
BLACK
6
CONTINUOUS
10
5.1903014566929135
20
-3.7355153149606299
11
5.1956774803149601
21
-3.7370938582677162
0
LINE
8
BLACK
6
CONTINUOUS
10
5.2381774803149606
20
-3.7370938582677162
11
5.2428909448818892
21
-3.7401230314960627
0
LINE
8
BLACK
6
CONTINUOUS
10
5.2428909448818892
20
-3.7401230314960627
11
5.2465601181102359
21
-3.7443574803149606
0
LINE
8
BLACK
6
CONTINUOUS
10
5.2465601181102359
20
-3.7443574803149606
11
5.2488876377952751
21
-3.7494540944881889
0
LINE
8
BLACK
6
CONTINUOUS
10
5.2488876377952751
20
-3.7494540944881889
11
5.2496850393700782
21
-3.7549999999999999
0
LINE
8
BLACK
6
CONTINUOUS
10
5.2496850393700782
20
-3.7549999999999999
11
5.2488876377952751
21
-3.7605459055118109
0
LINE
8
BLACK
6
CONTINUOUS
10
5.2488876377952751
20
-3.7605459055118109
11
5.2465601181102359
21
-3.7656425196850392
0
LINE
8
BLACK
6
CONTINUOUS
10
5.2465601181102359
20
-3.7656425196850392
11
5.2428909448818892
21
-3.7698769685039371
0
LINE
8
BLACK
6
CONTINUOUS
10
5.2428909448818892
20
-3.7698769685039371
11
5.2381774803149606
21
-3.7729061417322836
0
LINE
8
BLACK
6
CONTINUOUS
10
5.2381774803149606
20
-3.7729061417322836
11
5.2328014566929131
21
-3.7744846850393698
0
LINE
8
BLACK
6
CONTINUOUS
10
5.2328014566929131
20
-3.7744846850393698
11
5.2271985433070869
21
-3.7744846850393698
0
LINE
8
BLACK
6
CONTINUOUS
10
5.2271985433070869
20
-3.7744846850393698
11
5.2218225196850394
21
-3.7729061417322836
0
LINE
8
BLACK
6
CONTINUOUS
10
5.2218225196850394
20
-3.7729061417322836
11
5.2171090551181099
21
-3.7698769685039371
0
LINE
8
BLACK
6
CONTINUOUS
10
5.2171090551181099
20
-3.7698769685039371
11
5.213439881889764
21
-3.7656425196850392
0
LINE
8
BLACK
6
CONTINUOUS
10
5.213439881889764
20
-3.7656425196850392
11
5.211112362204724
21
-3.7605459055118109
0
LINE
8
BLACK
6
CONTINUOUS
10
5.211112362204724
20
-3.7605459055118109
11
5.2103149606299208
21
-3.7549999999999999
0
LINE
8
BLACK
6
CONTINUOUS
10
5.2103149606299208
20
-3.7549999999999999
11
5.211112362204724
21
-3.7494540944881889
0
LINE
8
BLACK
6
CONTINUOUS
10
5.211112362204724
20
-3.7494540944881889
11
5.213439881889764
21
-3.7443574803149606
0
LINE
8
BLACK
6
CONTINUOUS
10
5.213439881889764
20
-3.7443574803149606
11
5.2171090551181099
21
-3.7401230314960627
0
LINE
8
BLACK
6
CONTINUOUS
10
5.2171090551181099
20
-3.7401230314960627
11
5.2218225196850394
21
-3.7370938582677162
0
LINE
8
BLACK
6
CONTINUOUS
10
5.2218225196850394
20
-3.7370938582677162
11
5.2271985433070869
21
-3.7355153149606299
0
LINE
8
BLACK
6
CONTINUOUS
10
5.2271985433070869
20
-3.7355153149606299
11
5.2328014566929131
21
-3.7355153149606299
0
LINE
8
BLACK
6
CONTINUOUS
10
5.2328014566929131
20
-3.7355153149606299
11
5.2381774803149606
21
-3.7370938582677162
0
LINE
8
BLACK
6
CONTINUOUS
10
5.1956774803149601
20
-3.6920938582677163
11
5.2003909448818897
21
-3.6951230314960628
0
LINE
8
BLACK
6
CONTINUOUS
10
5.2003909448818897
20
-3.6951230314960628
11
5.2040601181102364
21
-3.6993574803149607
0
LINE
8
BLACK
6
CONTINUOUS
10
5.2040601181102364
20
-3.6993574803149607
11
5.2063876377952756
21
-3.704454094488189
0
LINE
8
BLACK
6
CONTINUOUS
10
5.2063876377952756
20
-3.704454094488189
11
5.2071850393700787
21
-3.71
0
LINE
8
BLACK
6
CONTINUOUS
10
5.2071850393700787
20
-3.71
11
5.2063876377952756
21
-3.715545905511811
0
LINE
8
BLACK
6
CONTINUOUS
10
5.2063876377952756
20
-3.715545905511811
11
5.2040601181102364
21
-3.7206425196850392
0
LINE
8
BLACK
6
CONTINUOUS
10
5.2040601181102364
20
-3.7206425196850392
11
5.2003909448818897
21
-3.7248769685039371
0
LINE
8
BLACK
6
CONTINUOUS
10
5.2003909448818897
20
-3.7248769685039371
11
5.1956774803149601
21
-3.7279061417322832
0
LINE
8
BLACK
6
CONTINUOUS
10
5.1956774803149601
20
-3.7279061417322832
11
5.1903014566929135
21
-3.7294846850393699
0
LINE
8
BLACK
6
CONTINUOUS
10
5.1903014566929135
20
-3.7294846850393699
11
5.1846985433070865
21
-3.7294846850393699
0
LINE
8
BLACK
6
CONTINUOUS
10
5.1846985433070865
20
-3.7294846850393699
11
5.179322519685039
21
-3.7279061417322832
0
LINE
8
BLACK
6
CONTINUOUS
10
5.179322519685039
20
-3.7279061417322832
11
5.1746090551181103
21
-3.7248769685039371
0
LINE
8
BLACK
6
CONTINUOUS
10
5.1746090551181103
20
-3.7248769685039371
11
5.1709398818897636
21
-3.7206425196850392
0
LINE
8
BLACK
6
CONTINUOUS
10
5.1709398818897636
20
-3.7206425196850392
11
5.1686123622047244
21
-3.715545905511811
0
LINE
8
BLACK
6
CONTINUOUS
10
5.1686123622047244
20
-3.715545905511811
11
5.1678149606299213
21
-3.71
0
LINE
8
BLACK
6
CONTINUOUS
10
5.1678149606299213
20
-3.71
11
5.1686123622047244
21
-3.704454094488189
0
LINE
8
BLACK
6
CONTINUOUS
10
5.1686123622047244
20
-3.704454094488189
11
5.1709398818897636
21
-3.6993574803149607
0
LINE
8
BLACK
6
CONTINUOUS
10
5.1709398818897636
20
-3.6993574803149607
11
5.1746090551181103
21
-3.6951230314960628
0
LINE
8
BLACK
6
CONTINUOUS
10
5.1746090551181103
20
-3.6951230314960628
11
5.179322519685039
21
-3.6920938582677163
0
LINE
8
BLACK
6
CONTINUOUS
10
5.179322519685039
20
-3.6920938582677163
11
5.1846985433070865
21
-3.69051531496063
0
LINE
8
BLACK
6
CONTINUOUS
10
5.1846985433070865
20
-3.69051531496063
11
5.1903014566929135
21
-3.69051531496063
0
LINE
8
BLACK
6
CONTINUOUS
10
5.1903014566929135
20
-3.69051531496063
11
5.1956774803149601
21
-3.6920938582677163
0
LINE
8
BLACK
6
CONTINUOUS
10
5.2381774803149606
20
-3.6920938582677163
11
5.2428909448818892
21
-3.6951230314960628
0
LINE
8
BLACK
6
CONTINUOUS
10
5.2428909448818892
20
-3.6951230314960628
11
5.2465601181102359
21
-3.6993574803149607
0
LINE
8
BLACK
6
CONTINUOUS
10
5.2465601181102359
20
-3.6993574803149607
11
5.2488876377952751
21
-3.704454094488189
0
LINE
8
BLACK
6
CONTINUOUS
10
5.2488876377952751
20
-3.704454094488189
11
5.2496850393700782
21
-3.71
0
LINE
8
BLACK
6
CONTINUOUS
10
5.2496850393700782
20
-3.71
11
5.2488876377952751
21
-3.715545905511811
0
LINE
8
BLACK
6
CONTINUOUS
10
5.2488876377952751
20
-3.715545905511811
11
5.2465601181102359
21
-3.7206425196850392
0
LINE
8
BLACK
6
CONTINUOUS
10
5.2465601181102359
20
-3.7206425196850392
11
5.2428909448818892
21
-3.7248769685039371
0
LINE
8
BLACK
6
CONTINUOUS
10
5.2428909448818892
20
-3.7248769685039371
11
5.2381774803149606
21
-3.7279061417322832
0
LINE
8
BLACK
6
CONTINUOUS
10
5.2381774803149606
20
-3.7279061417322832
11
5.2328014566929131
21
-3.7294846850393699
0
LINE
8
BLACK
6
CONTINUOUS
10
5.2328014566929131
20
-3.7294846850393699
11
5.2271985433070869
21
-3.7294846850393699
0
LINE
8
BLACK
6
CONTINUOUS
10
5.2271985433070869
20
-3.7294846850393699
11
5.2218225196850394
21
-3.7279061417322832
0
LINE
8
BLACK
6
CONTINUOUS
10
5.2218225196850394
20
-3.7279061417322832
11
5.2171090551181099
21
-3.7248769685039371
0
LINE
8
BLACK
6
CONTINUOUS
10
5.2171090551181099
20
-3.7248769685039371
11
5.213439881889764
21
-3.7206425196850392
0
LINE
8
BLACK
6
CONTINUOUS
10
5.213439881889764
20
-3.7206425196850392
11
5.211112362204724
21
-3.715545905511811
0
LINE
8
BLACK
6
CONTINUOUS
10
5.211112362204724
20
-3.715545905511811
11
5.2103149606299208
21
-3.71
0
LINE
8
BLACK
6
CONTINUOUS
10
5.2103149606299208
20
-3.71
11
5.211112362204724
21
-3.704454094488189
0
LINE
8
BLACK
6
CONTINUOUS
10
5.211112362204724
20
-3.704454094488189
11
5.213439881889764
21
-3.6993574803149607
0
LINE
8
BLACK
6
CONTINUOUS
10
5.213439881889764
20
-3.6993574803149607
11
5.2171090551181099
21
-3.6951230314960628
0
LINE
8
BLACK
6
CONTINUOUS
10
5.2171090551181099
20
-3.6951230314960628
11
5.2218225196850394
21
-3.6920938582677163
0
LINE
8
BLACK
6
CONTINUOUS
10
5.2218225196850394
20
-3.6920938582677163
11
5.2271985433070869
21
-3.69051531496063
0
LINE
8
BLACK
6
CONTINUOUS
10
5.2271985433070869
20
-3.69051531496063
11
5.2328014566929131
21
-3.69051531496063
0
LINE
8
BLACK
6
CONTINUOUS
10
5.2328014566929131
20
-3.69051531496063
11
5.2381774803149606
21
-3.6920938582677163
0
LINE
8
BLACK
6
CONTINUOUS
10
5.1956774803149601
20
-3.6445938582677164
11
5.2003909448818897
21
-3.6476230314960629
0
LINE
8
BLACK
6
CONTINUOUS
10
5.2003909448818897
20
-3.6476230314960629
11
5.2040601181102364
21
-3.6518574803149604
0
LINE
8
BLACK
6
CONTINUOUS
10
5.2040601181102364
20
-3.6518574803149604
11
5.2063876377952756
21
-3.6569540944881891
0
LINE
8
BLACK
6
CONTINUOUS
10
5.2063876377952756
20
-3.6569540944881891
11
5.2071850393700787
21
-3.6625000000000001
0
LINE
8
BLACK
6
CONTINUOUS
10
5.2071850393700787
20
-3.6625000000000001
11
5.2063876377952756
21
-3.6680459055118111
0
LINE
8
BLACK
6
CONTINUOUS
10
5.2063876377952756
20
-3.6680459055118111
11
5.2040601181102364
21
-3.6731425196850394
0
LINE
8
BLACK
6
CONTINUOUS
10
5.2040601181102364
20
-3.6731425196850394
11
5.2003909448818897
21
-3.6773769685039368
0
LINE
8
BLACK
6
CONTINUOUS
10
5.2003909448818897
20
-3.6773769685039368
11
5.1956774803149601
21
-3.6804061417322833
0
LINE
8
BLACK
6
CONTINUOUS
10
5.1956774803149601
20
-3.6804061417322833
11
5.1903014566929135
21
-3.68198468503937
0
LINE
8
BLACK
6
CONTINUOUS
10
5.1903014566929135
20
-3.68198468503937
11
5.1846985433070865
21
-3.68198468503937
0
LINE
8
BLACK
6
CONTINUOUS
10
5.1846985433070865
20
-3.68198468503937
11
5.179322519685039
21
-3.6804061417322833
0
LINE
8
BLACK
6
CONTINUOUS
10
5.179322519685039
20
-3.6804061417322833
11
5.1746090551181103
21
-3.6773769685039368
0
LINE
8
BLACK
6
CONTINUOUS
10
5.1746090551181103
20
-3.6773769685039368
11
5.1709398818897636
21
-3.6731425196850394
0
LINE
8
BLACK
6
CONTINUOUS
10
5.1709398818897636
20
-3.6731425196850394
11
5.1686123622047244
21
-3.6680459055118111
0
LINE
8
BLACK
6
CONTINUOUS
10
5.1686123622047244
20
-3.6680459055118111
11
5.1678149606299213
21
-3.6625000000000001
0
LINE
8
BLACK
6
CONTINUOUS
10
5.1678149606299213
20
-3.6625000000000001
11
5.1686123622047244
21
-3.6569540944881891
0
LINE
8
BLACK
6
CONTINUOUS
10
5.1686123622047244
20
-3.6569540944881891
11
5.1709398818897636
21
-3.6518574803149604
0
LINE
8
BLACK
6
CONTINUOUS
10
5.1709398818897636
20
-3.6518574803149604
11
5.1746090551181103
21
-3.6476230314960629
0
LINE
8
BLACK
6
CONTINUOUS
10
5.1746090551181103
20
-3.6476230314960629
11
5.179322519685039
21
-3.6445938582677164
0
LINE
8
BLACK
6
CONTINUOUS
10
5.179322519685039
20
-3.6445938582677164
11
5.1846985433070865
21
-3.6430153149606297
0
LINE
8
BLACK
6
CONTINUOUS
10
5.1846985433070865
20
-3.6430153149606297
11
5.1903014566929135
21
-3.6430153149606297
0
LINE
8
BLACK
6
CONTINUOUS
10
5.1903014566929135
20
-3.6430153149606297
11
5.1956774803149601
21
-3.6445938582677164
0
LINE
8
BLACK
6
CONTINUOUS
10
5.2406774803149609
20
-3.6445938582677164
11
5.2453909448818896
21
-3.6476230314960629
0
LINE
8
BLACK
6
CONTINUOUS
10
5.2453909448818896
20
-3.6476230314960629
11
5.2490601181102363
21
-3.6518574803149604
0
LINE
8
BLACK
6
CONTINUOUS
10
5.2490601181102363
20
-3.6518574803149604
11
5.2513876377952755
21
-3.6569540944881891
0
LINE
8
BLACK
6
CONTINUOUS
10
5.2513876377952755
20
-3.6569540944881891
11
5.2521850393700786
21
-3.6625000000000001
0
LINE
8
BLACK
6
CONTINUOUS
10
5.2521850393700786
20
-3.6625000000000001
11
5.2513876377952755
21
-3.6680459055118111
0
LINE
8
BLACK
6
CONTINUOUS
10
5.2513876377952755
20
-3.6680459055118111
11
5.2490601181102363
21
-3.6731425196850394
0
LINE
8
BLACK
6
CONTINUOUS
10
5.2490601181102363
20
-3.6731425196850394
11
5.2453909448818896
21
-3.6773769685039368
0
LINE
8
BLACK
6
CONTINUOUS
10
5.2453909448818896
20
-3.6773769685039368
11
5.2406774803149609
21
-3.6804061417322833
0
LINE
8
BLACK
6
CONTINUOUS
10
5.2406774803149609
20
-3.6804061417322833
11
5.2353014566929135
21
-3.68198468503937
0
LINE
8
BLACK
6
CONTINUOUS
10
5.2353014566929135
20
-3.68198468503937
11
5.2296985433070864
21
-3.68198468503937
0
LINE
8
BLACK
6
CONTINUOUS
10
5.2296985433070864
20
-3.68198468503937
11
5.2243225196850389
21
-3.6804061417322833
0
LINE
8
BLACK
6
CONTINUOUS
10
5.2243225196850389
20
-3.6804061417322833
11
5.2196090551181102
21
-3.6773769685039368
0
LINE
8
BLACK
6
CONTINUOUS
10
5.2196090551181102
20
-3.6773769685039368
11
5.2159398818897635
21
-3.6731425196850394
0
LINE
8
BLACK
6
CONTINUOUS
10
5.2159398818897635
20
-3.6731425196850394
11
5.2136123622047243
21
-3.6680459055118111
0
LINE
8
BLACK
6
CONTINUOUS
10
5.2136123622047243
20
-3.6680459055118111
11
5.2128149606299212
21
-3.6625000000000001
0
LINE
8
BLACK
6
CONTINUOUS
10
5.2128149606299212
20
-3.6625000000000001
11
5.2136123622047243
21
-3.6569540944881891
0
LINE
8
BLACK
6
CONTINUOUS
10
5.2136123622047243
20
-3.6569540944881891
11
5.2159398818897635
21
-3.6518574803149604
0
LINE
8
BLACK
6
CONTINUOUS
10
5.2159398818897635
20
-3.6518574803149604
11
5.2196090551181102
21
-3.6476230314960629
0
LINE
8
BLACK
6
CONTINUOUS
10
5.2196090551181102
20
-3.6476230314960629
11
5.2243225196850389
21
-3.6445938582677164
0
LINE
8
BLACK
6
CONTINUOUS
10
5.2243225196850389
20
-3.6445938582677164
11
5.2296985433070864
21
-3.6430153149606297
0
LINE
8
BLACK
6
CONTINUOUS
10
5.2296985433070864
20
-3.6430153149606297
11
5.2353014566929135
21
-3.6430153149606297
0
LINE
8
BLACK
6
CONTINUOUS
10
5.2353014566929135
20
-3.6430153149606297
11
5.2406774803149609
21
-3.6445938582677164
0
LINE
8
BLACK
6
CONTINUOUS
10
5.8480132677165351
20
-3.4177253543307087
11
5.8505677559055114
21
-3.4194322440944882
0
LINE
8
BLACK
6
CONTINUOUS
10
5.8505677559055114
20
-3.4194322440944882
11
5.8522746456692909
21
-3.4219867322834645
0
LINE
8
BLACK
6
CONTINUOUS
10
5.8522746456692909
20
-3.4219867322834645
11
5.8528740157480312
21
-3.4249999999999998
0
LINE
8
BLACK
6
CONTINUOUS
10
5.8528740157480312
20
-3.4249999999999998
11
5.8528740157480312
21
-3.5749999999999997
0
LINE
8
BLACK
6
CONTINUOUS
10
5.8528740157480312
20
-3.5749999999999997
11
5.8522746456692909
21
-3.5780132677165355
0
LINE
8
BLACK
6
CONTINUOUS
10
5.8522746456692909
20
-3.5780132677165355
11
5.8505677559055114
21
-3.5805677559055118
0
LINE
8
BLACK
6
CONTINUOUS
10
5.8505677559055114
20
-3.5805677559055118
11
5.8480132677165351
21
-3.5822746456692913
0
LINE
8
BLACK
6
CONTINUOUS
10
5.8480132677165351
20
-3.5822746456692913
11
5.8449999999999998
21
-3.5828740157480312
0
LINE
8
BLACK
6
CONTINUOUS
10
5.8449999999999998
20
-3.5828740157480312
11
5.6950000000000003
21
-3.5828740157480312
0
LINE
8
BLACK
6
CONTINUOUS
10
5.6950000000000003
20
-3.5828740157480312
11
5.6919867322834641
21
-3.5822746456692913
0
LINE
8
BLACK
6
CONTINUOUS
10
5.6919867322834641
20
-3.5822746456692913
11
5.6894322440944878
21
-3.5805677559055118
0
LINE
8
BLACK
6
CONTINUOUS
10
5.6894322440944878
20
-3.5805677559055118
11
5.6877253543307082
21
-3.5780132677165355
0
LINE
8
BLACK
6
CONTINUOUS
10
5.6877253543307082
20
-3.5780132677165355
11
5.6871259842519688
21
-3.5749999999999997
0
LINE
8
BLACK
6
CONTINUOUS
10
5.6871259842519688
20
-3.5749999999999997
11
5.6871259842519688
21
-3.4249999999999998
0
LINE
8
BLACK
6
CONTINUOUS
10
5.6871259842519688
20
-3.4249999999999998
11
5.6877253543307082
21
-3.4219867322834645
0
LINE
8
BLACK
6
CONTINUOUS
10
5.6877253543307082
20
-3.4219867322834645
11
5.6894322440944878
21
-3.4194322440944882
0
LINE
8
BLACK
6
CONTINUOUS
10
5.6894322440944878
20
-3.4194322440944882
11
5.6919867322834641
21
-3.4177253543307087
0
LINE
8
BLACK
6
CONTINUOUS
10
5.6919867322834641
20
-3.4177253543307087
11
5.6950000000000003
21
-3.4171259842519683
0
LINE
8
BLACK
6
CONTINUOUS
10
5.6950000000000003
20
-3.4171259842519683
11
5.8449999999999998
21
-3.4171259842519683
0
LINE
8
BLACK
6
CONTINUOUS
10
5.8449999999999998
20
-3.4171259842519683
11
5.8480132677165351
21
-3.4177253543307087
0
LINE
8
BLACK
6
CONTINUOUS
10
6.044863661417323
20
-3.4177253543307087
11
6.0474181496062993
21
-3.4194322440944882
0
LINE
8
BLACK
6
CONTINUOUS
10
6.0474181496062993
20
-3.4194322440944882
11
6.0491250393700788
21
-3.4219867322834645
0
LINE
8
BLACK
6
CONTINUOUS
10
6.0491250393700788
20
-3.4219867322834645
11
6.0497244094488192
21
-3.4249999999999998
0
LINE
8
BLACK
6
CONTINUOUS
10
6.0497244094488192
20
-3.4249999999999998
11
6.0497244094488192
21
-3.5749999999999997
0
LINE
8
BLACK
6
CONTINUOUS
10
6.0497244094488192
20
-3.5749999999999997
11
6.0491250393700788
21
-3.5780132677165355
0
LINE
8
BLACK
6
CONTINUOUS
10
6.0491250393700788
20
-3.5780132677165355
11
6.0474181496062993
21
-3.5805677559055118
0
LINE
8
BLACK
6
CONTINUOUS
10
6.0474181496062993
20
-3.5805677559055118
11
6.044863661417323
21
-3.5822746456692913
0
LINE
8
BLACK
6
CONTINUOUS
10
6.044863661417323
20
-3.5822746456692913
11
6.0418503937007877
21
-3.5828740157480312
0
LINE
8
BLACK
6
CONTINUOUS
10
6.0418503937007877
20
-3.5828740157480312
11
5.8918503937007873
21
-3.5828740157480312
0
LINE
8
BLACK
6
CONTINUOUS
10
5.8918503937007873
20
-3.5828740157480312
11
5.888837125984252
21
-3.5822746456692913
0
LINE
8
BLACK
6
CONTINUOUS
10
5.888837125984252
20
-3.5822746456692913
11
5.8862826377952757
21
-3.5805677559055118
0
LINE
8
BLACK
6
CONTINUOUS
10
5.8862826377952757
20
-3.5805677559055118
11
5.8845757480314962
21
-3.5780132677165355
0
LINE
8
BLACK
6
CONTINUOUS
10
5.8845757480314962
20
-3.5780132677165355
11
5.8839763779527559
21
-3.5749999999999997
0
LINE
8
BLACK
6
CONTINUOUS
10
5.8839763779527559
20
-3.5749999999999997
11
5.8839763779527559
21
-3.4249999999999998
0
LINE
8
BLACK
6
CONTINUOUS
10
5.8839763779527559
20
-3.4249999999999998
11
5.8845757480314962
21
-3.4219867322834645
0
LINE
8
BLACK
6
CONTINUOUS
10
5.8845757480314962
20
-3.4219867322834645
11
5.8862826377952757
21
-3.4194322440944882
0
LINE
8
BLACK
6
CONTINUOUS
10
5.8862826377952757
20
-3.4194322440944882
11
5.888837125984252
21
-3.4177253543307087
0
LINE
8
BLACK
6
CONTINUOUS
10
5.888837125984252
20
-3.4177253543307087
11
5.8918503937007873
21
-3.4171259842519683
0
LINE
8
BLACK
6
CONTINUOUS
10
5.8918503937007873
20
-3.4171259842519683
11
6.0418503937007877
21
-3.4171259842519683
0
LINE
8
BLACK
6
CONTINUOUS
10
6.0418503937007877
20
-3.4171259842519683
11
6.044863661417323
21
-3.4177253543307087
0
LINE
8
BLACK
6
CONTINUOUS
10
5.8480132677165351
20
-3.2177253543307085
11
5.8505677559055114
21
-3.219432244094488
0
LINE
8
BLACK
6
CONTINUOUS
10
5.8505677559055114
20
-3.219432244094488
11
5.8522746456692909
21
-3.2219867322834643
0
LINE
8
BLACK
6
CONTINUOUS
10
5.8522746456692909
20
-3.2219867322834643
11
5.8528740157480312
21
-3.2250000000000001
0
LINE
8
BLACK
6
CONTINUOUS
10
5.8528740157480312
20
-3.2250000000000001
11
5.8528740157480312
21
-3.375
0
LINE
8
BLACK
6
CONTINUOUS
10
5.8528740157480312
20
-3.375
11
5.8522746456692909
21
-3.3780132677165353
0
LINE
8
BLACK
6
CONTINUOUS
10
5.8522746456692909
20
-3.3780132677165353
11
5.8505677559055114
21
-3.3805677559055116
0
LINE
8
BLACK
6
CONTINUOUS
10
5.8505677559055114
20
-3.3805677559055116
11
5.8480132677165351
21
-3.3822746456692911
0
LINE
8
BLACK
6
CONTINUOUS
10
5.8480132677165351
20
-3.3822746456692911
11
5.8449999999999998
21
-3.3828740157480315
0
LINE
8
BLACK
6
CONTINUOUS
10
5.8449999999999998
20
-3.3828740157480315
11
5.6950000000000003
21
-3.3828740157480315
0
LINE
8
BLACK
6
CONTINUOUS
10
5.6950000000000003
20
-3.3828740157480315
11
5.6919867322834641
21
-3.3822746456692911
0
LINE
8
BLACK
6
CONTINUOUS
10
5.6919867322834641
20
-3.3822746456692911
11
5.6894322440944878
21
-3.3805677559055116
0
LINE
8
BLACK
6
CONTINUOUS
10
5.6894322440944878
20
-3.3805677559055116
11
5.6877253543307082
21
-3.3780132677165353
0
LINE
8
BLACK
6
CONTINUOUS
10
5.6877253543307082
20
-3.3780132677165353
11
5.6871259842519688
21
-3.375
0
LINE
8
BLACK
6
CONTINUOUS
10
5.6871259842519688
20
-3.375
11
5.6871259842519688
21
-3.2250000000000001
0
LINE
8
BLACK
6
CONTINUOUS
10
5.6871259842519688
20
-3.2250000000000001
11
5.6877253543307082
21
-3.2219867322834643
0
LINE
8
BLACK
6
CONTINUOUS
10
5.6877253543307082
20
-3.2219867322834643
11
5.6894322440944878
21
-3.219432244094488
0
LINE
8
BLACK
6
CONTINUOUS
10
5.6894322440944878
20
-3.219432244094488
11
5.6919867322834641
21
-3.2177253543307085
0
LINE
8
BLACK
6
CONTINUOUS
10
5.6919867322834641
20
-3.2177253543307085
11
5.6950000000000003
21
-3.2171259842519686
0
LINE
8
BLACK
6
CONTINUOUS
10
5.6950000000000003
20
-3.2171259842519686
11
5.8449999999999998
21
-3.2171259842519686
0
LINE
8
BLACK
6
CONTINUOUS
10
5.8449999999999998
20
-3.2171259842519686
11
5.8480132677165351
21
-3.2177253543307085
0
LINE
8
BLACK
6
CONTINUOUS
10
6.044863661417323
20
-3.2177253543307085
11
6.0474181496062993
21
-3.219432244094488
0
LINE
8
BLACK
6
CONTINUOUS
10
6.0474181496062993
20
-3.219432244094488
11
6.0491250393700788
21
-3.2219867322834643
0
LINE
8
BLACK
6
CONTINUOUS
10
6.0491250393700788
20
-3.2219867322834643
11
6.0497244094488192
21
-3.2250000000000001
0
LINE
8
BLACK
6
CONTINUOUS
10
6.0497244094488192
20
-3.2250000000000001
11
6.0497244094488192
21
-3.375
0
LINE
8
BLACK
6
CONTINUOUS
10
6.0497244094488192
20
-3.375
11
6.0491250393700788
21
-3.3780132677165353
0
LINE
8
BLACK
6
CONTINUOUS
10
6.0491250393700788
20
-3.3780132677165353
11
6.0474181496062993
21
-3.3805677559055116
0
LINE
8
BLACK
6
CONTINUOUS
10
6.0474181496062993
20
-3.3805677559055116
11
6.044863661417323
21
-3.3822746456692911
0
LINE
8
BLACK
6
CONTINUOUS
10
6.044863661417323
20
-3.3822746456692911
11
6.0418503937007877
21
-3.3828740157480315
0
LINE
8
BLACK
6
CONTINUOUS
10
6.0418503937007877
20
-3.3828740157480315
11
5.8918503937007873
21
-3.3828740157480315
0
LINE
8
BLACK
6
CONTINUOUS
10
5.8918503937007873
20
-3.3828740157480315
11
5.888837125984252
21
-3.3822746456692911
0
LINE
8
BLACK
6
CONTINUOUS
10
5.888837125984252
20
-3.3822746456692911
11
5.8862826377952757
21
-3.3805677559055116
0
LINE
8
BLACK
6
CONTINUOUS
10
5.8862826377952757
20
-3.3805677559055116
11
5.8845757480314962
21
-3.3780132677165353
0
LINE
8
BLACK
6
CONTINUOUS
10
5.8845757480314962
20
-3.3780132677165353
11
5.8839763779527559
21
-3.375
0
LINE
8
BLACK
6
CONTINUOUS
10
5.8839763779527559
20
-3.375
11
5.8839763779527559
21
-3.2250000000000001
0
LINE
8
BLACK
6
CONTINUOUS
10
5.8839763779527559
20
-3.2250000000000001
11
5.8845757480314962
21
-3.2219867322834643
0
LINE
8
BLACK
6
CONTINUOUS
10
5.8845757480314962
20
-3.2219867322834643
11
5.8862826377952757
21
-3.219432244094488
0
LINE
8
BLACK
6
CONTINUOUS
10
5.8862826377952757
20
-3.219432244094488
11
5.888837125984252
21
-3.2177253543307085
0
LINE
8
BLACK
6
CONTINUOUS
10
5.888837125984252
20
-3.2177253543307085
11
5.8918503937007873
21
-3.2171259842519686
0
LINE
8
BLACK
6
CONTINUOUS
10
5.8918503937007873
20
-3.2171259842519686
11
6.0418503937007877
21
-3.2171259842519686
0
LINE
8
BLACK
6
CONTINUOUS
10
6.0418503937007877
20
-3.2171259842519686
11
6.044863661417323
21
-3.2177253543307085
0
LINE
8
BLACK
6
CONTINUOUS
10
5.8480132677165351
20
-3.0177253543307088
11
5.8505677559055114
21
-3.0194322440944883
0
LINE
8
BLACK
6
CONTINUOUS
10
5.8505677559055114
20
-3.0194322440944883
11
5.8522746456692909
21
-3.0219867322834646
0
LINE
8
BLACK
6
CONTINUOUS
10
5.8522746456692909
20
-3.0219867322834646
11
5.8528740157480312
21
-3.0249999999999999
0
LINE
8
BLACK
6
CONTINUOUS
10
5.8528740157480312
20
-3.0249999999999999
11
5.8528740157480312
21
-3.1749999999999998
0
LINE
8
BLACK
6
CONTINUOUS
10
5.8528740157480312
20
-3.1749999999999998
11
5.8522746456692909
21
-3.1780132677165351
0
LINE
8
BLACK
6
CONTINUOUS
10
5.8522746456692909
20
-3.1780132677165351
11
5.8505677559055114
21
-3.1805677559055119
0
LINE
8
BLACK
6
CONTINUOUS
10
5.8505677559055114
20
-3.1805677559055119
11
5.8480132677165351
21
-3.1822746456692914
0
LINE
8
BLACK
6
CONTINUOUS
10
5.8480132677165351
20
-3.1822746456692914
11
5.8449999999999998
21
-3.1828740157480313
0
LINE
8
BLACK
6
CONTINUOUS
10
5.8449999999999998
20
-3.1828740157480313
11
5.6950000000000003
21
-3.1828740157480313
0
LINE
8
BLACK
6
CONTINUOUS
10
5.6950000000000003
20
-3.1828740157480313
11
5.6919867322834641
21
-3.1822746456692914
0
LINE
8
BLACK
6
CONTINUOUS
10
5.6919867322834641
20
-3.1822746456692914
11
5.6894322440944878
21
-3.1805677559055119
0
LINE
8
BLACK
6
CONTINUOUS
10
5.6894322440944878
20
-3.1805677559055119
11
5.6877253543307082
21
-3.1780132677165351
0
LINE
8
BLACK
6
CONTINUOUS
10
5.6877253543307082
20
-3.1780132677165351
11
5.6871259842519688
21
-3.1749999999999998
0
LINE
8
BLACK
6
CONTINUOUS
10
5.6871259842519688
20
-3.1749999999999998
11
5.6871259842519688
21
-3.0249999999999999
0
LINE
8
BLACK
6
CONTINUOUS
10
5.6871259842519688
20
-3.0249999999999999
11
5.6877253543307082
21
-3.0219867322834646
0
LINE
8
BLACK
6
CONTINUOUS
10
5.6877253543307082
20
-3.0219867322834646
11
5.6894322440944878
21
-3.0194322440944883
0
LINE
8
BLACK
6
CONTINUOUS
10
5.6894322440944878
20
-3.0194322440944883
11
5.6919867322834641
21
-3.0177253543307088
0
LINE
8
BLACK
6
CONTINUOUS
10
5.6919867322834641
20
-3.0177253543307088
11
5.6950000000000003
21
-3.0171259842519684
0
LINE
8
BLACK
6
CONTINUOUS
10
5.6950000000000003
20
-3.0171259842519684
11
5.8449999999999998
21
-3.0171259842519684
0
LINE
8
BLACK
6
CONTINUOUS
10
5.8449999999999998
20
-3.0171259842519684
11
5.8480132677165351
21
-3.0177253543307088
0
LINE
8
BLACK
6
CONTINUOUS
10
6.044863661417323
20
-3.0177253543307088
11
6.0474181496062993
21
-3.0194322440944883
0
LINE
8
BLACK
6
CONTINUOUS
10
6.0474181496062993
20
-3.0194322440944883
11
6.0491250393700788
21
-3.0219867322834646
0
LINE
8
BLACK
6
CONTINUOUS
10
6.0491250393700788
20
-3.0219867322834646
11
6.0497244094488192
21
-3.0249999999999999
0
LINE
8
BLACK
6
CONTINUOUS
10
6.0497244094488192
20
-3.0249999999999999
11
6.0497244094488192
21
-3.1749999999999998
0
LINE
8
BLACK
6
CONTINUOUS
10
6.0497244094488192
20
-3.1749999999999998
11
6.0491250393700788
21
-3.1780132677165351
0
LINE
8
BLACK
6
CONTINUOUS
10
6.0491250393700788
20
-3.1780132677165351
11
6.0474181496062993
21
-3.1805677559055119
0
LINE
8
BLACK
6
CONTINUOUS
10
6.0474181496062993
20
-3.1805677559055119
11
6.044863661417323
21
-3.1822746456692914
0
LINE
8
BLACK
6
CONTINUOUS
10
6.044863661417323
20
-3.1822746456692914
11
6.0418503937007877
21
-3.1828740157480313
0
LINE
8
BLACK
6
CONTINUOUS
10
6.0418503937007877
20
-3.1828740157480313
11
5.8918503937007873
21
-3.1828740157480313
0
LINE
8
BLACK
6
CONTINUOUS
10
5.8918503937007873
20
-3.1828740157480313
11
5.888837125984252
21
-3.1822746456692914
0
LINE
8
BLACK
6
CONTINUOUS
10
5.888837125984252
20
-3.1822746456692914
11
5.8862826377952757
21
-3.1805677559055119
0
LINE
8
BLACK
6
CONTINUOUS
10
5.8862826377952757
20
-3.1805677559055119
11
5.8845757480314962
21
-3.1780132677165351
0
LINE
8
BLACK
6
CONTINUOUS
10
5.8845757480314962
20
-3.1780132677165351
11
5.8839763779527559
21
-3.1749999999999998
0
LINE
8
BLACK
6
CONTINUOUS
10
5.8839763779527559
20
-3.1749999999999998
11
5.8839763779527559
21
-3.0249999999999999
0
LINE
8
BLACK
6
CONTINUOUS
10
5.8839763779527559
20
-3.0249999999999999
11
5.8845757480314962
21
-3.0219867322834646
0
LINE
8
BLACK
6
CONTINUOUS
10
5.8845757480314962
20
-3.0219867322834646
11
5.8862826377952757
21
-3.0194322440944883
0
LINE
8
BLACK
6
CONTINUOUS
10
5.8862826377952757
20
-3.0194322440944883
11
5.888837125984252
21
-3.0177253543307088
0
LINE
8
BLACK
6
CONTINUOUS
10
5.888837125984252
20
-3.0177253543307088
11
5.8918503937007873
21
-3.0171259842519684
0
LINE
8
BLACK
6
CONTINUOUS
10
5.8918503937007873
20
-3.0171259842519684
11
6.0418503937007877
21
-3.0171259842519684
0
LINE
8
BLACK
6
CONTINUOUS
10
6.0418503937007877
20
-3.0171259842519684
11
6.044863661417323
21
-3.0177253543307088
0
LINE
8
BLACK
6
CONTINUOUS
10
4.8205096456692909
20
-2.6836841338582675
11
4.8338744094488186
21
-2.6868516141732282
0
LINE
8
BLACK
6
CONTINUOUS
10
4.8338744094488186
20
-2.6868516141732282
11
4.8467810629921262
21
-2.6915492913385828
0
LINE
8
BLACK
6
CONTINUOUS
10
4.8467810629921262
20
-2.6915492913385828
11
4.8590551181102359
21
-2.6977135433070867
0
LINE
8
BLACK
6
CONTINUOUS
10
4.8590551181102359
20
-2.6977135433070867
11
4.8705305511811021
21
-2.7052610236220471
0
LINE
8
BLACK
6
CONTINUOUS
10
4.8705305511811021
20
-2.7052610236220471
11
4.8810521653543306
21
-2.7140897244094488
0
LINE
8
BLACK
6
CONTINUOUS
10
4.8810521653543306
20
-2.7140897244094488
11
4.8904776771653546
21
-2.7240801968503936
0
LINE
8
BLACK
6
CONTINUOUS
10
4.8904776771653546
20
-2.7240801968503936
11
4.8986796456692909
21
-2.7350973622047245
0
LINE
8
BLACK
6
CONTINUOUS
10
4.8986796456692909
20
-2.7350973622047245
11
4.9055471653543306
21
-2.7469922047244095
0
LINE
8
BLACK
6
CONTINUOUS
10
4.9055471653543306
20
-2.7469922047244095
11
4.9109873228346457
21
-2.7596039370078738
0
LINE
8
BLACK
6
CONTINUOUS
10
4.9109873228346457
20
-2.7596039370078738
11
4.9149265748031494
21
-2.7727618897637796
0
LINE
8
BLACK
6
CONTINUOUS
10
4.9149265748031494
20
-2.7727618897637796
11
4.9173116141732285
21
-2.7862882283464567
0
LINE
8
BLACK
6
CONTINUOUS
10
4.9173116141732285
20
-2.7862882283464567
11
4.9181102362204721
21
-2.7999999999999998
0
LINE
8
BLACK
6
CONTINUOUS
10
4.9181102362204721
20
-2.7999999999999998
11
4.9173116141732285
21
-2.8137117716535434
0
LINE
8
BLACK
6
CONTINUOUS
10
4.9173116141732285
20
-2.8137117716535434
11
4.9149265748031494
21
-2.8272381102362205
0
LINE
8
BLACK
6
CONTINUOUS
10
4.9149265748031494
20
-2.8272381102362205
11
4.9109873228346457
21
-2.8403960629921259
0
LINE
8
BLACK
6
CONTINUOUS
10
4.9109873228346457
20
-2.8403960629921259
11
4.9055471653543306
21
-2.8530077952755906
0
LINE
8
BLACK
6
CONTINUOUS
10
4.9055471653543306
20
-2.8530077952755906
11
4.8986796456692909
21
-2.8649026377952755
0
LINE
8
BLACK
6
CONTINUOUS
10
4.8986796456692909
20
-2.8649026377952755
11
4.8904776771653546
21
-2.875919803149606
0
LINE
8
BLACK
6
CONTINUOUS
10
4.8904776771653546
20
-2.875919803149606
11
4.8810521653543306
21
-2.8859102755905512
0
LINE
8
BLACK
6
CONTINUOUS
10
4.8810521653543306
20
-2.8859102755905512
11
4.8705305511811021
21
-2.8947389763779525
0
LINE
8
BLACK
6
CONTINUOUS
10
4.8705305511811021
20
-2.8947389763779525
11
4.8590551181102359
21
-2.9022864566929134
0
LINE
8
BLACK
6
CONTINUOUS
10
4.8590551181102359
20
-2.9022864566929134
11
4.8467810629921262
21
-2.9084507086614173
0
LINE
8
BLACK
6
CONTINUOUS
10
4.8467810629921262
20
-2.9084507086614173
11
4.8338744094488186
21
-2.9131483858267715
0
LINE
8
BLACK
6
CONTINUOUS
10
4.8338744094488186
20
-2.9131483858267715
11
4.8205096456692909
21
-2.9163158661417321
0
LINE
8
BLACK
6
CONTINUOUS
10
4.8205096456692909
20
-2.9163158661417321
11
4.8068674803149607
21
-2.9179103937007875
0
LINE
8
BLACK
6
CONTINUOUS
10
4.8068674803149607
20
-2.9179103937007875
11
4.793132519685039
21
-2.9179103937007875
0
LINE
8
BLACK
6
CONTINUOUS
10
4.793132519685039
20
-2.9179103937007875
11
4.7794903543307088
21
-2.9163158661417321
0
LINE
8
BLACK
6
CONTINUOUS
10
4.7794903543307088
20
-2.9163158661417321
11
4.766125590551181
21
-2.9131483858267715
0
LINE
8
BLACK
6
CONTINUOUS
10
4.766125590551181
20
-2.9131483858267715
11
4.7532189370078743
21
-2.9084507086614173
0
LINE
8
BLACK
6
CONTINUOUS
10
4.7532189370078743
20
-2.9084507086614173
11
4.7409448818897637
21
-2.9022864566929134
0
LINE
8
BLACK
6
CONTINUOUS
10
4.7409448818897637
20
-2.9022864566929134
11
4.7294694488188975
21
-2.8947389763779525
0
LINE
8
BLACK
6
CONTINUOUS
10
4.7294694488188975
20
-2.8947389763779525
11
4.718947834645669
21
-2.8859102755905512
0
LINE
8
BLACK
6
CONTINUOUS
10
4.718947834645669
20
-2.8859102755905512
11
4.7095223228346459
21
-2.875919803149606
0
LINE
8
BLACK
6
CONTINUOUS
10
4.7095223228346459
20
-2.875919803149606
11
4.7013203543307087
21
-2.8649026377952755
0
LINE
8
BLACK
6
CONTINUOUS
10
4.7013203543307087
20
-2.8649026377952755
11
4.6944528346456691
21
-2.8530077952755906
0
LINE
8
BLACK
6
CONTINUOUS
10
4.6944528346456691
20
-2.8530077952755906
11
4.689012677165354
21
-2.8403960629921259
0
LINE
8
BLACK
6
CONTINUOUS
10
4.689012677165354
20
-2.8403960629921259
11
4.6850734251968502
21
-2.8272381102362205
0
LINE
8
BLACK
6
CONTINUOUS
10
4.6850734251968502
20
-2.8272381102362205
11
4.6826883858267712
21
-2.8137117716535434
0
LINE
8
BLACK
6
CONTINUOUS
10
4.6826883858267712
20
-2.8137117716535434
11
4.6818897637795276
21
-2.7999999999999998
0
LINE
8
BLACK
6
CONTINUOUS
10
4.6818897637795276
20
-2.7999999999999998
11
4.6826883858267712
21
-2.7862882283464567
0
LINE
8
BLACK
6
CONTINUOUS
10
4.6826883858267712
20
-2.7862882283464567
11
4.6850734251968502
21
-2.7727618897637796
0
LINE
8
BLACK
6
CONTINUOUS
10
4.6850734251968502
20
-2.7727618897637796
11
4.689012677165354
21
-2.7596039370078738
0
LINE
8
BLACK
6
CONTINUOUS
10
4.689012677165354
20
-2.7596039370078738
11
4.6944528346456691
21
-2.7469922047244095
0
LINE
8
BLACK
6
CONTINUOUS
10
4.6944528346456691
20
-2.7469922047244095
11
4.7013203543307087
21
-2.7350973622047245
0
LINE
8
BLACK
6
CONTINUOUS
10
4.7013203543307087
20
-2.7350973622047245
11
4.7095223228346459
21
-2.7240801968503936
0
LINE
8
BLACK
6
CONTINUOUS
10
4.7095223228346459
20
-2.7240801968503936
11
4.718947834645669
21
-2.7140897244094488
0
LINE
8
BLACK
6
CONTINUOUS
10
4.718947834645669
20
-2.7140897244094488
11
4.7294694488188975
21
-2.7052610236220471
0
LINE
8
BLACK
6
CONTINUOUS
10
4.7294694488188975
20
-2.7052610236220471
11
4.7409448818897637
21
-2.6977135433070867
0
LINE
8
BLACK
6
CONTINUOUS
10
4.7409448818897637
20
-2.6977135433070867
11
4.7532189370078743
21
-2.6915492913385828
0
LINE
8
BLACK
6
CONTINUOUS
10
4.7532189370078743
20
-2.6915492913385828
11
4.766125590551181
21
-2.6868516141732282
0
LINE
8
BLACK
6
CONTINUOUS
10
4.766125590551181
20
-2.6868516141732282
11
4.7794903543307088
21
-2.6836841338582675
0
LINE
8
BLACK
6
CONTINUOUS
10
4.7794903543307088
20
-2.6836841338582675
11
4.793132519685039
21
-2.6820896062992126
0
LINE
8
BLACK
6
CONTINUOUS
10
4.793132519685039
20
-2.6820896062992126
11
4.8068674803149607
21
-2.6820896062992126
0
LINE
8
BLACK
6
CONTINUOUS
10
4.8068674803149607
20
-2.6820896062992126
11
4.8205096456692909
21
-2.6836841338582675
0
LINE
8
BLACK
6
CONTINUOUS
10
6.020509645669291
20
-2.6836841338582675
11
6.0338744094488188
21
-2.6868516141732282
0
LINE
8
BLACK
6
CONTINUOUS
10
6.0338744094488188
20
-2.6868516141732282
11
6.0467810629921255
21
-2.6915492913385828
0
LINE
8
BLACK
6
CONTINUOUS
10
6.0467810629921255
20
-2.6915492913385828
11
6.0590551181102361
21
-2.6977135433070867
0
LINE
8
BLACK
6
CONTINUOUS
10
6.0590551181102361
20
-2.6977135433070867
11
6.0705305511811023
21
-2.7052610236220471
0
LINE
8
BLACK
6
CONTINUOUS
10
6.0705305511811023
20
-2.7052610236220471
11
6.0810521653543308
21
-2.7140897244094488
0
LINE
8
BLACK
6
CONTINUOUS
10
6.0810521653543308
20
-2.7140897244094488
11
6.0904776771653539
21
-2.7240801968503936
0
LINE
8
BLACK
6
CONTINUOUS
10
6.0904776771653539
20
-2.7240801968503936
11
6.0986796456692911
21
-2.7350973622047245
0
LINE
8
BLACK
6
CONTINUOUS
10
6.0986796456692911
20
-2.7350973622047245
11
6.1055471653543307
21
-2.7469922047244095
0
LINE
8
BLACK
6
CONTINUOUS
10
6.1055471653543307
20
-2.7469922047244095
11
6.1109873228346459
21
-2.7596039370078738
0
LINE
8
BLACK
6
CONTINUOUS
10
6.1109873228346459
20
-2.7596039370078738
11
6.1149265748031496
21
-2.7727618897637796
0
LINE
8
BLACK
6
CONTINUOUS
10
6.1149265748031496
20
-2.7727618897637796
11
6.1173116141732278
21
-2.7862882283464567
0
LINE
8
BLACK
6
CONTINUOUS
10
6.1173116141732278
20
-2.7862882283464567
11
6.1181102362204722
21
-2.7999999999999998
0
LINE
8
BLACK
6
CONTINUOUS
10
6.1181102362204722
20
-2.7999999999999998
11
6.1173116141732278
21
-2.8137117716535434
0
LINE
8
BLACK
6
CONTINUOUS
10
6.1173116141732278
20
-2.8137117716535434
11
6.1149265748031496
21
-2.8272381102362205
0
LINE
8
BLACK
6
CONTINUOUS
10
6.1149265748031496
20
-2.8272381102362205
11
6.1109873228346459
21
-2.8403960629921259
0
LINE
8
BLACK
6
CONTINUOUS
10
6.1109873228346459
20
-2.8403960629921259
11
6.1055471653543307
21
-2.8530077952755906
0
LINE
8
BLACK
6
CONTINUOUS
10
6.1055471653543307
20
-2.8530077952755906
11
6.0986796456692911
21
-2.8649026377952755
0
LINE
8
BLACK
6
CONTINUOUS
10
6.0986796456692911
20
-2.8649026377952755
11
6.0904776771653539
21
-2.875919803149606
0
LINE
8
BLACK
6
CONTINUOUS
10
6.0904776771653539
20
-2.875919803149606
11
6.0810521653543308
21
-2.8859102755905512
0
LINE
8
BLACK
6
CONTINUOUS
10
6.0810521653543308
20
-2.8859102755905512
11
6.0705305511811023
21
-2.8947389763779525
0
LINE
8
BLACK
6
CONTINUOUS
10
6.0705305511811023
20
-2.8947389763779525
11
6.0590551181102361
21
-2.9022864566929134
0
LINE
8
BLACK
6
CONTINUOUS
10
6.0590551181102361
20
-2.9022864566929134
11
6.0467810629921255
21
-2.9084507086614173
0
LINE
8
BLACK
6
CONTINUOUS
10
6.0467810629921255
20
-2.9084507086614173
11
6.0338744094488188
21
-2.9131483858267715
0
LINE
8
BLACK
6
CONTINUOUS
10
6.0338744094488188
20
-2.9131483858267715
11
6.020509645669291
21
-2.9163158661417321
0
LINE
8
BLACK
6
CONTINUOUS
10
6.020509645669291
20
-2.9163158661417321
11
6.0068674803149609
21
-2.9179103937007875
0
LINE
8
BLACK
6
CONTINUOUS
10
6.0068674803149609
20
-2.9179103937007875
11
5.9931325196850391
21
-2.9179103937007875
0
LINE
8
BLACK
6
CONTINUOUS
10
5.9931325196850391
20
-2.9179103937007875
11
5.979490354330709
21
-2.9163158661417321
0
LINE
8
BLACK
6
CONTINUOUS
10
5.979490354330709
20
-2.9163158661417321
11
5.9661255905511812
21
-2.9131483858267715
0
LINE
8
BLACK
6
CONTINUOUS
10
5.9661255905511812
20
-2.9131483858267715
11
5.9532189370078736
21
-2.9084507086614173
0
LINE
8
BLACK
6
CONTINUOUS
10
5.9532189370078736
20
-2.9084507086614173
11
5.9409448818897639
21
-2.9022864566929134
0
LINE
8
BLACK
6
CONTINUOUS
10
5.9409448818897639
20
-2.9022864566929134
11
5.9294694488188977
21
-2.8947389763779525
0
LINE
8
BLACK
6
CONTINUOUS
10
5.9294694488188977
20
-2.8947389763779525
11
5.9189478346456692
21
-2.8859102755905512
0
LINE
8
BLACK
6
CONTINUOUS
10
5.9189478346456692
20
-2.8859102755905512
11
5.9095223228346452
21
-2.875919803149606
0
LINE
8
BLACK
6
CONTINUOUS
10
5.9095223228346452
20
-2.875919803149606
11
5.9013203543307089
21
-2.8649026377952755
0
LINE
8
BLACK
6
CONTINUOUS
10
5.9013203543307089
20
-2.8649026377952755
11
5.8944528346456693
21
-2.8530077952755906
0
LINE
8
BLACK
6
CONTINUOUS
10
5.8944528346456693
20
-2.8530077952755906
11
5.8890126771653541
21
-2.8403960629921259
0
LINE
8
BLACK
6
CONTINUOUS
10
5.8890126771653541
20
-2.8403960629921259
11
5.8850734251968504
21
-2.8272381102362205
0
LINE
8
BLACK
6
CONTINUOUS
10
5.8850734251968504
20
-2.8272381102362205
11
5.8826883858267713
21
-2.8137117716535434
0
LINE
8
BLACK
6
CONTINUOUS
10
5.8826883858267713
20
-2.8137117716535434
11
5.8818897637795278
21
-2.7999999999999998
0
LINE
8
BLACK
6
CONTINUOUS
10
5.8818897637795278
20
-2.7999999999999998
11
5.8826883858267713
21
-2.7862882283464567
0
LINE
8
BLACK
6
CONTINUOUS
10
5.8826883858267713
20
-2.7862882283464567
11
5.8850734251968504
21
-2.7727618897637796
0
LINE
8
BLACK
6
CONTINUOUS
10
5.8850734251968504
20
-2.7727618897637796
11
5.8890126771653541
21
-2.7596039370078738
0
LINE
8
BLACK
6
CONTINUOUS
10
5.8890126771653541
20
-2.7596039370078738
11
5.8944528346456693
21
-2.7469922047244095
0
LINE
8
BLACK
6
CONTINUOUS
10
5.8944528346456693
20
-2.7469922047244095
11
5.9013203543307089
21
-2.7350973622047245
0
LINE
8
BLACK
6
CONTINUOUS
10
5.9013203543307089
20
-2.7350973622047245
11
5.9095223228346452
21
-2.7240801968503936
0
LINE
8
BLACK
6
CONTINUOUS
10
5.9095223228346452
20
-2.7240801968503936
11
5.9189478346456692
21
-2.7140897244094488
0
LINE
8
BLACK
6
CONTINUOUS
10
5.9189478346456692
20
-2.7140897244094488
11
5.9294694488188977
21
-2.7052610236220471
0
LINE
8
BLACK
6
CONTINUOUS
10
5.9294694488188977
20
-2.7052610236220471
11
5.9409448818897639
21
-2.6977135433070867
0
LINE
8
BLACK
6
CONTINUOUS
10
5.9409448818897639
20
-2.6977135433070867
11
5.9532189370078736
21
-2.6915492913385828
0
LINE
8
BLACK
6
CONTINUOUS
10
5.9532189370078736
20
-2.6915492913385828
11
5.9661255905511812
21
-2.6868516141732282
0
LINE
8
BLACK
6
CONTINUOUS
10
5.9661255905511812
20
-2.6868516141732282
11
5.979490354330709
21
-2.6836841338582675
0
LINE
8
BLACK
6
CONTINUOUS
10
5.979490354330709
20
-2.6836841338582675
11
5.9931325196850391
21
-2.6820896062992126
0
LINE
8
BLACK
6
CONTINUOUS
10
5.9931325196850391
20
-2.6820896062992126
11
6.0068674803149609
21
-2.6820896062992126
0
LINE
8
BLACK
6
CONTINUOUS
10
6.0068674803149609
20
-2.6820896062992126
11
6.020509645669291
21
-2.6836841338582675
0
LINE
8
BLACK
6
CONTINUOUS
10
5.3653132677165356
20
-2.7691253543307086
11
5.3678677559055119
21
-2.7708322440944881
0
LINE
8
BLACK
6
CONTINUOUS
10
5.3678677559055119
20
-2.7708322440944881
11
5.3695746456692914
21
-2.7733867322834644
0
LINE
8
BLACK
6
CONTINUOUS
10
5.3695746456692914
20
-2.7733867322834644
11
5.3701740157480318
21
-2.7763999999999998
0
LINE
8
BLACK
6
CONTINUOUS
10
5.3701740157480318
20
-2.7763999999999998
11
5.3701740157480318
21
-2.8235999999999999
0
LINE
8
BLACK
6
CONTINUOUS
10
5.3701740157480318
20
-2.8235999999999999
11
5.3695746456692914
21
-2.8266132677165352
0
LINE
8
BLACK
6
CONTINUOUS
10
5.3695746456692914
20
-2.8266132677165352
11
5.3678677559055119
21
-2.8291677559055119
0
LINE
8
BLACK
6
CONTINUOUS
10
5.3678677559055119
20
-2.8291677559055119
11
5.3653132677165356
21
-2.8308746456692915
0
LINE
8
BLACK
6
CONTINUOUS
10
5.3653132677165356
20
-2.8308746456692915
11
5.3623000000000003
21
-2.8314740157480314
0
LINE
8
BLACK
6
CONTINUOUS
10
5.3623000000000003
20
-2.8314740157480314
11
5.3151000000000002
21
-2.8314740157480314
0
LINE
8
BLACK
6
CONTINUOUS
10
5.3151000000000002
20
-2.8314740157480314
11
5.3120867322834648
21
-2.8308746456692915
0
LINE
8
BLACK
6
CONTINUOUS
10
5.3120867322834648
20
-2.8308746456692915
11
5.3095322440944877
21
-2.8291677559055119
0
LINE
8
BLACK
6
CONTINUOUS
10
5.3095322440944877
20
-2.8291677559055119
11
5.3078253543307081
21
-2.8266132677165352
0
LINE
8
BLACK
6
CONTINUOUS
10
5.3078253543307081
20
-2.8266132677165352
11
5.3072259842519687
21
-2.8235999999999999
0
LINE
8
BLACK
6
CONTINUOUS
10
5.3072259842519687
20
-2.8235999999999999
11
5.3072259842519687
21
-2.7763999999999998
0
LINE
8
BLACK
6
CONTINUOUS
10
5.3072259842519687
20
-2.7763999999999998
11
5.3078253543307081
21
-2.7733867322834644
0
LINE
8
BLACK
6
CONTINUOUS
10
5.3078253543307081
20
-2.7733867322834644
11
5.3095322440944877
21
-2.7708322440944881
0
LINE
8
BLACK
6
CONTINUOUS
10
5.3095322440944877
20
-2.7708322440944881
11
5.3120867322834648
21
-2.7691253543307086
0
LINE
8
BLACK
6
CONTINUOUS
10
5.3120867322834648
20
-2.7691253543307086
11
5.3151000000000002
21
-2.7685259842519683
0
LINE
8
BLACK
6
CONTINUOUS
10
5.3151000000000002
20
-2.7685259842519683
11
5.3623000000000003
21
-2.7685259842519683
0
LINE
8
BLACK
6
CONTINUOUS
10
5.3623000000000003
20
-2.7685259842519683
11
5.3653132677165356
21
-2.7691253543307086
0
LINE
8
BLACK
6
CONTINUOUS
10
5.4479132677165349
20
-2.7691253543307086
11
5.4504677559055112
21
-2.7708322440944881
0
LINE
8
BLACK
6
CONTINUOUS
10
5.4504677559055112
20
-2.7708322440944881
11
5.4521746456692908
21
-2.7733867322834644
0
LINE
8
BLACK
6
CONTINUOUS
10
5.4521746456692908
20
-2.7733867322834644
11
5.4527740157480311
21
-2.7763999999999998
0
LINE
8
BLACK
6
CONTINUOUS
10
5.4527740157480311
20
-2.7763999999999998
11
5.4527740157480311
21
-2.8235999999999999
0
LINE
8
BLACK
6
CONTINUOUS
10
5.4527740157480311
20
-2.8235999999999999
11
5.4521746456692908
21
-2.8266132677165352
0
LINE
8
BLACK
6
CONTINUOUS
10
5.4521746456692908
20
-2.8266132677165352
11
5.4504677559055112
21
-2.8291677559055119
0
LINE
8
BLACK
6
CONTINUOUS
10
5.4504677559055112
20
-2.8291677559055119
11
5.4479132677165349
21
-2.8308746456692915
0
LINE
8
BLACK
6
CONTINUOUS
10
5.4479132677165349
20
-2.8308746456692915
11
5.4448999999999996
21
-2.8314740157480314
0
LINE
8
BLACK
6
CONTINUOUS
10
5.4448999999999996
20
-2.8314740157480314
11
5.3976999999999995
21
-2.8314740157480314
0
LINE
8
BLACK
6
CONTINUOUS
10
5.3976999999999995
20
-2.8314740157480314
11
5.3946867322834642
21
-2.8308746456692915
0
LINE
8
BLACK
6
CONTINUOUS
10
5.3946867322834642
20
-2.8308746456692915
11
5.3921322440944879
21
-2.8291677559055119
0
LINE
8
BLACK
6
CONTINUOUS
10
5.3921322440944879
20
-2.8291677559055119
11
5.3904253543307084
21
-2.8266132677165352
0
LINE
8
BLACK
6
CONTINUOUS
10
5.3904253543307084
20
-2.8266132677165352
11
5.389825984251968
21
-2.8235999999999999
0
LINE
8
BLACK
6
CONTINUOUS
10
5.389825984251968
20
-2.8235999999999999
11
5.389825984251968
21
-2.7763999999999998
0
LINE
8
BLACK
6
CONTINUOUS
10
5.389825984251968
20
-2.7763999999999998
11
5.3904253543307084
21
-2.7733867322834644
0
LINE
8
BLACK
6
CONTINUOUS
10
5.3904253543307084
20
-2.7733867322834644
11
5.3921322440944879
21
-2.7708322440944881
0
LINE
8
BLACK
6
CONTINUOUS
10
5.3921322440944879
20
-2.7708322440944881
11
5.3946867322834642
21
-2.7691253543307086
0
LINE
8
BLACK
6
CONTINUOUS
10
5.3946867322834642
20
-2.7691253543307086
11
5.3976999999999995
21
-2.7685259842519683
0
LINE
8
BLACK
6
CONTINUOUS
10
5.3976999999999995
20
-2.7685259842519683
11
5.4448999999999996
21
-2.7685259842519683
0
LINE
8
BLACK
6
CONTINUOUS
10
5.4448999999999996
20
-2.7685259842519683
11
5.4479132677165349
21
-2.7691253543307086
  0
ENDSEC
  0
EOF
