  0
SECTION
  2
HEADER
  9
$ANGBASE
  50
0.0
  9
$ANGDIR
  70
1
  9
$MEASUREMENT
  70
0
  0
ENDSEC
  0
SECTION
  2
TABLES
  0
TABLE
  2
LTYPE
  70
4
  0
LTYPE
  5
40F
  2
CONTINUOUS
  70
0
  3
Solid line
  72
65
  73
0
  40
0.0
  0
LTYPE
  5
410
  2
DASHDOT
 70
0
  3
Dash Dot ____ _ ____ _
 72
65
 73
4
 40
2.0
 49
1.25
 49
-0.25
 49
0.25
 49
-0.25
  0
LTYPE
  5
411
  2
DASHED
 70
0
  3
Dashed __ __ __ __ __
 72
65
 73
2
 40
0.75
 49
0.5
 49
-0.25
  0
LTYPE
  5
43B
  2
DOTTED
 70
0
  3
Dotted .  .  .  .
 72
65
 73
2
 40
0.2
 49
0.0
 49
-0.2
  0
ENDTAB
  0
TABLE
  2
STYLE
  70
4
  0
STYLE
  2
KICAD
  70
0
  40
0
  41
1
  42
1
  50
0
  71
0
  3
isocp.shx
  0
STYLE
  2
KICADB
  70
0
  40
0
  41
1
  42
1
  50
0
  71
0
  3
isocp.shx
  0
STYLE
  2
KICADI
  70
0
  40
0
  41
1
  42
1
  50
15
  71
0
  3
isocp.shx
  0
STYLE
  2
KICADBI
  70
0
  40
0
  41
1
  42
1
  50
15
  71
0
  3
isocp.shx
  0
ENDTAB
  0
TABLE
  2
LAYER
  70
1
  0
LAYER
  2
BLACK
  70
0
  62
7
  6
CONTINUOUS
  0
ENDTAB
  0
ENDSEC
  0
SECTION
  2
ENTITIES
0
LINE
8
BLACK
6
CONTINUOUS
10
5.36551
20
-3.72319
11
5.38
21
-3.72319
0
LINE
8
BLACK
6
CONTINUOUS
10
5.38
20
-3.72319
11
5.38038
21
-3.72322
0
LINE
8
BLACK
6
CONTINUOUS
10
5.38038
20
-3.72322
11
5.38055
21
-3.7232
0
LINE
8
BLACK
6
CONTINUOUS
10
5.38055
20
-3.7232
11
5.38081
21
-3.72326
0
LINE
8
BLACK
6
CONTINUOUS
10
5.38081
20
-3.72326
11
5.38217
21
-3.72339
0
LINE
8
BLACK
6
CONTINUOUS
10
5.38217
20
-3.72339
11
5.38344
21
-3.72388
0
LINE
8
BLACK
6
CONTINUOUS
10
5.38344
20
-3.72388
11
5.38477
21
-3.7242
0
LINE
8
BLACK
6
CONTINUOUS
10
5.38477
20
-3.7242
11
5.38545
21
-3.72466
0
LINE
8
BLACK
6
CONTINUOUS
10
5.38545
20
-3.72466
11
5.38622
21
-3.72496
0
LINE
8
BLACK
6
CONTINUOUS
10
5.38622
20
-3.72496
11
5.38723
21
-3.72588
0
LINE
8
BLACK
6
CONTINUOUS
10
5.38723
20
-3.72588
11
5.38835
21
-3.72665
0
LINE
8
BLACK
6
CONTINUOUS
10
5.38835
20
-3.72665
11
5.40335
21
-3.74165
0
LINE
8
BLACK
6
CONTINUOUS
10
5.40335
20
-3.74165
11
5.4036
21
-3.74194
0
LINE
8
BLACK
6
CONTINUOUS
10
5.4036
20
-3.74194
11
5.40373
21
-3.74204
0
LINE
8
BLACK
6
CONTINUOUS
10
5.40373
20
-3.74204
11
5.40387
21
-3.74228
0
LINE
8
BLACK
6
CONTINUOUS
10
5.40387
20
-3.74228
11
5.40474
21
-3.74333
0
LINE
8
BLACK
6
CONTINUOUS
10
5.40474
20
-3.74333
11
5.4053
21
-3.74457
0
LINE
8
BLACK
6
CONTINUOUS
10
5.4053
20
-3.74457
11
5.40601
21
-3.74573
0
LINE
8
BLACK
6
CONTINUOUS
10
5.40601
20
-3.74573
11
5.40616
21
-3.74654
0
LINE
8
BLACK
6
CONTINUOUS
10
5.40616
20
-3.74654
11
5.4065
21
-3.7473
0
LINE
8
BLACK
6
CONTINUOUS
10
5.4065
20
-3.7473
11
5.40656
21
-3.74866
0
LINE
8
BLACK
6
CONTINUOUS
10
5.40656
20
-3.74866
11
5.40681
21
-3.75
0
LINE
8
BLACK
6
CONTINUOUS
10
5.40681
20
-3.75
11
5.40681
21
-3.97
0
LINE
8
BLACK
6
CONTINUOUS
10
5.40681
20
-3.97
11
5.40678
21
-3.97038
0
LINE
8
BLACK
6
CONTINUOUS
10
5.40678
20
-3.97038
11
5.4068
21
-3.97055
0
LINE
8
BLACK
6
CONTINUOUS
10
5.4068
20
-3.97055
11
5.40674
21
-3.97081
0
LINE
8
BLACK
6
CONTINUOUS
10
5.40674
20
-3.97081
11
5.40661
21
-3.97217
0
LINE
8
BLACK
6
CONTINUOUS
10
5.40661
20
-3.97217
11
5.40612
21
-3.97344
0
LINE
8
BLACK
6
CONTINUOUS
10
5.40612
20
-3.97344
11
5.4058
21
-3.97477
0
LINE
8
BLACK
6
CONTINUOUS
10
5.4058
20
-3.97477
11
5.40534
21
-3.97545
0
LINE
8
BLACK
6
CONTINUOUS
10
5.40534
20
-3.97545
11
5.40504
21
-3.97622
0
LINE
8
BLACK
6
CONTINUOUS
10
5.40504
20
-3.97622
11
5.40412
21
-3.97723
0
LINE
8
BLACK
6
CONTINUOUS
10
5.40412
20
-3.97723
11
5.40335
21
-3.97835
0
LINE
8
BLACK
6
CONTINUOUS
10
5.40335
20
-3.97835
11
5.37835
21
-4.00335
0
LINE
8
BLACK
6
CONTINUOUS
10
5.37835
20
-4.00335
11
5.37806
21
-4.0036
0
LINE
8
BLACK
6
CONTINUOUS
10
5.37806
20
-4.0036
11
5.37796
21
-4.00373
0
LINE
8
BLACK
6
CONTINUOUS
10
5.37796
20
-4.00373
11
5.37772
21
-4.00387
0
LINE
8
BLACK
6
CONTINUOUS
10
5.37772
20
-4.00387
11
5.37667
21
-4.00474
0
LINE
8
BLACK
6
CONTINUOUS
10
5.37667
20
-4.00474
11
5.37543
21
-4.0053
0
LINE
8
BLACK
6
CONTINUOUS
10
5.37543
20
-4.0053
11
5.37427
21
-4.00601
0
LINE
8
BLACK
6
CONTINUOUS
10
5.37427
20
-4.00601
11
5.37346
21
-4.00616
0
LINE
8
BLACK
6
CONTINUOUS
10
5.37346
20
-4.00616
11
5.3727
21
-4.0065
0
LINE
8
BLACK
6
CONTINUOUS
10
5.3727
20
-4.0065
11
5.37134
21
-4.00656
0
LINE
8
BLACK
6
CONTINUOUS
10
5.37134
20
-4.00656
11
5.37
21
-4.00681
0
LINE
8
BLACK
6
CONTINUOUS
10
5.37
20
-4.00681
11
5.179
21
-4.00681
0
LINE
8
BLACK
6
CONTINUOUS
10
5.179
20
-4.00681
11
5.179
21
-4.039
0
LINE
8
BLACK
6
CONTINUOUS
10
5.179
20
-4.039
11
5.091
21
-4.039
0
LINE
8
BLACK
6
CONTINUOUS
10
5.091
20
-4.039
11
5.091
21
-3.951
0
LINE
8
BLACK
6
CONTINUOUS
10
5.091
20
-3.951
11
5.179
21
-3.951
0
LINE
8
BLACK
6
CONTINUOUS
10
5.179
20
-3.951
11
5.179
21
-3.98319
0
LINE
8
BLACK
6
CONTINUOUS
10
5.179
20
-3.98319
11
5.36511
21
-3.98319
0
LINE
8
BLACK
6
CONTINUOUS
10
5.36511
20
-3.98319
11
5.38319
21
-3.96511
0
LINE
8
BLACK
6
CONTINUOUS
10
5.38319
20
-3.96511
11
5.38319
21
-3.75489
0
LINE
8
BLACK
6
CONTINUOUS
10
5.38319
20
-3.75489
11
5.37511
21
-3.74681
0
LINE
8
BLACK
6
CONTINUOUS
10
5.37511
20
-3.74681
11
5.32319
21
-3.74681
0
LINE
8
BLACK
6
CONTINUOUS
10
5.32319
20
-3.74681
11
5.28087
21
-3.74681
0
LINE
8
BLACK
6
CONTINUOUS
10
5.28087
20
-3.74681
11
5.28087
21
-3.72319
0
LINE
8
BLACK
6
CONTINUOUS
10
5.28087
20
-3.72319
11
5.36551
21
-3.72319
0
LINE
8
BLACK
6
CONTINUOUS
10
5.59461
20
-3.625
11
5.62039
21
-3.625
0
LINE
8
BLACK
6
CONTINUOUS
10
5.62039
20
-3.625
11
5.62039
21
-3.62469
0
LINE
8
BLACK
6
CONTINUOUS
10
5.62039
20
-3.62469
11
5.66961
21
-3.62469
0
LINE
8
BLACK
6
CONTINUOUS
10
5.66961
20
-3.62469
11
5.66961
21
-3.625
0
LINE
8
BLACK
6
CONTINUOUS
10
5.66961
20
-3.625
11
6.03757
21
-3.625
0
LINE
8
BLACK
6
CONTINUOUS
10
6.03757
20
-3.625
11
6.04185
21
-3.625
0
LINE
8
BLACK
6
CONTINUOUS
10
6.04185
20
-3.625
11
6.04185
21
-3.62685
0
LINE
8
BLACK
6
CONTINUOUS
10
6.04185
20
-3.62685
11
6.05828
21
-3.64328
0
LINE
8
BLACK
6
CONTINUOUS
10
6.05828
20
-3.64328
11
6.0598
21
-3.64591
0
LINE
8
BLACK
6
CONTINUOUS
10
6.0598
20
-3.64591
11
6.06
21
-3.64743
0
LINE
8
BLACK
6
CONTINUOUS
10
6.06
20
-3.64743
11
6.06
21
-3.75304
0
LINE
8
BLACK
6
CONTINUOUS
10
6.06
20
-3.75304
11
6.05921
21
-3.75598
0
LINE
8
BLACK
6
CONTINUOUS
10
6.05921
20
-3.75598
11
6.05883
21
-3.75656
0
LINE
8
BLACK
6
CONTINUOUS
10
6.05883
20
-3.75656
11
6.04676
21
-3.77265
0
LINE
8
BLACK
6
CONTINUOUS
10
6.04676
20
-3.77265
11
6.04437
21
-3.77453
0
LINE
8
BLACK
6
CONTINUOUS
10
6.04437
20
-3.77453
11
6.04207
21
-3.775
0
LINE
8
BLACK
6
CONTINUOUS
10
6.04207
20
-3.775
11
5.58
21
-3.775
0
LINE
8
BLACK
6
CONTINUOUS
10
5.58
20
-3.775
11
5.555
21
-3.8
0
LINE
8
BLACK
6
CONTINUOUS
10
5.555
20
-3.8
11
5.555
21
-3.88257
0
LINE
8
BLACK
6
CONTINUOUS
10
5.555
20
-3.88257
11
5.55421
21
-3.8855
0
LINE
8
BLACK
6
CONTINUOUS
10
5.55421
20
-3.8855
11
5.55328
21
-3.88672
0
LINE
8
BLACK
6
CONTINUOUS
10
5.55328
20
-3.88672
11
5.52672
21
-3.91328
0
LINE
8
BLACK
6
CONTINUOUS
10
5.52672
20
-3.91328
11
5.52409
21
-3.9148
0
LINE
8
BLACK
6
CONTINUOUS
10
5.52409
20
-3.9148
11
5.52257
21
-3.915
0
LINE
8
BLACK
6
CONTINUOUS
10
5.52257
20
-3.915
11
5.49059
21
-3.915
0
LINE
8
BLACK
6
CONTINUOUS
10
5.49059
20
-3.915
11
5.49059
21
-3.91559
0
LINE
8
BLACK
6
CONTINUOUS
10
5.49059
20
-3.91559
11
5.43941
21
-3.91559
0
LINE
8
BLACK
6
CONTINUOUS
10
5.43941
20
-3.91559
11
5.43941
21
-3.91461
0
LINE
8
BLACK
6
CONTINUOUS
10
5.43941
20
-3.91461
11
5.43793
21
-3.91421
0
LINE
8
BLACK
6
CONTINUOUS
10
5.43793
20
-3.91421
11
5.43579
21
-3.91207
0
LINE
8
BLACK
6
CONTINUOUS
10
5.43579
20
-3.91207
11
5.435
21
-3.90913
0
LINE
8
BLACK
6
CONTINUOUS
10
5.435
20
-3.90913
11
5.435
21
-3.745
0
LINE
8
BLACK
6
CONTINUOUS
10
5.435
20
-3.745
11
5.43
21
-3.74
0
LINE
8
BLACK
6
CONTINUOUS
10
5.43
20
-3.74
11
5.385
21
-3.7
0
LINE
8
BLACK
6
CONTINUOUS
10
5.385
20
-3.7
11
5.28587
21
-3.7
0
LINE
8
BLACK
6
CONTINUOUS
10
5.28587
20
-3.7
11
5.28293
21
-3.69921
0
LINE
8
BLACK
6
CONTINUOUS
10
5.28293
20
-3.69921
11
5.28079
21
-3.69707
0
LINE
8
BLACK
6
CONTINUOUS
10
5.28079
20
-3.69707
11
5.28
21
-3.69413
0
LINE
8
BLACK
6
CONTINUOUS
10
5.28
20
-3.69413
11
5.28
21
-3.67587
0
LINE
8
BLACK
6
CONTINUOUS
10
5.28
20
-3.67587
11
5.28079
21
-3.67293
0
LINE
8
BLACK
6
CONTINUOUS
10
5.28079
20
-3.67293
11
5.28293
21
-3.67079
0
LINE
8
BLACK
6
CONTINUOUS
10
5.28293
20
-3.67079
11
5.28587
21
-3.67
0
LINE
8
BLACK
6
CONTINUOUS
10
5.28587
20
-3.67
11
5.37
21
-3.67
0
LINE
8
BLACK
6
CONTINUOUS
10
5.37
20
-3.67
11
5.41328
21
-3.62672
0
LINE
8
BLACK
6
CONTINUOUS
10
5.41328
20
-3.62672
11
5.41591
21
-3.6252
0
LINE
8
BLACK
6
CONTINUOUS
10
5.41591
20
-3.6252
11
5.41743
21
-3.625
0
LINE
8
BLACK
6
CONTINUOUS
10
5.41743
20
-3.625
11
5.54539
21
-3.625
0
LINE
8
BLACK
6
CONTINUOUS
10
5.54539
20
-3.625
11
5.54539
21
-3.62469
0
LINE
8
BLACK
6
CONTINUOUS
10
5.54539
20
-3.62469
11
5.59461
21
-3.62469
0
LINE
8
BLACK
6
CONTINUOUS
10
5.59461
20
-3.62469
11
5.59461
21
-3.625
0
LINE
8
BLACK
6
CONTINUOUS
10
5.36551
20
-3.79681
11
5.33118
21
-3.79681
0
LINE
8
BLACK
6
CONTINUOUS
10
5.33118
20
-3.79681
11
5.33118
21
-3.84539
0
LINE
8
BLACK
6
CONTINUOUS
10
5.33118
20
-3.84539
11
5.33906
21
-3.84539
0
LINE
8
BLACK
6
CONTINUOUS
10
5.33906
20
-3.84539
11
5.33906
21
-3.89461
0
LINE
8
BLACK
6
CONTINUOUS
10
5.33906
20
-3.89461
11
5.29969
21
-3.89461
0
LINE
8
BLACK
6
CONTINUOUS
10
5.29969
20
-3.89461
11
5.29969
21
-3.84539
0
LINE
8
BLACK
6
CONTINUOUS
10
5.29969
20
-3.84539
11
5.30756
21
-3.84539
0
LINE
8
BLACK
6
CONTINUOUS
10
5.30756
20
-3.84539
11
5.30756
21
-3.79681
0
LINE
8
BLACK
6
CONTINUOUS
10
5.30756
20
-3.79681
11
5.28087
21
-3.79681
0
LINE
8
BLACK
6
CONTINUOUS
10
5.28087
20
-3.79681
11
5.28087
21
-3.77319
0
LINE
8
BLACK
6
CONTINUOUS
10
5.28087
20
-3.77319
11
5.36551
21
-3.77319
0
LINE
8
BLACK
6
CONTINUOUS
10
5.36551
20
-3.77319
11
5.36551
21
-3.79681
0
LINE
8
BLACK
6
CONTINUOUS
10
5.30091
20
-3.56977
11
5.30405
21
-3.57241
0
LINE
8
BLACK
6
CONTINUOUS
10
5.30405
20
-3.57241
11
5.3061
21
-3.57596
0
LINE
8
BLACK
6
CONTINUOUS
10
5.3061
20
-3.57596
11
5.30681
21
-3.58
0
LINE
8
BLACK
6
CONTINUOUS
10
5.30681
20
-3.58
11
5.30629
21
-3.58294
0
LINE
8
BLACK
6
CONTINUOUS
10
5.30629
20
-3.58294
11
5.32736
21
-3.60401
0
LINE
8
BLACK
6
CONTINUOUS
10
5.32736
20
-3.60401
11
5.32775
21
-3.60469
0
LINE
8
BLACK
6
CONTINUOUS
10
5.32775
20
-3.60469
11
5.3283
21
-3.60524
0
LINE
8
BLACK
6
CONTINUOUS
10
5.3283
20
-3.60524
11
5.3285
21
-3.60599
0
LINE
8
BLACK
6
CONTINUOUS
10
5.3285
20
-3.60599
11
5.32889
21
-3.60666
0
LINE
8
BLACK
6
CONTINUOUS
10
5.32889
20
-3.60666
11
5.32889
21
-3.60744
0
LINE
8
BLACK
6
CONTINUOUS
10
5.32889
20
-3.60744
11
5.32909
21
-3.60819
0
LINE
8
BLACK
6
CONTINUOUS
10
5.32909
20
-3.60819
11
5.32909
21
-3.62319
0
LINE
8
BLACK
6
CONTINUOUS
10
5.32909
20
-3.62319
11
5.36551
21
-3.62319
0
LINE
8
BLACK
6
CONTINUOUS
10
5.36551
20
-3.62319
11
5.36551
21
-3.64681
0
LINE
8
BLACK
6
CONTINUOUS
10
5.36551
20
-3.64681
11
5.28087
21
-3.64681
0
LINE
8
BLACK
6
CONTINUOUS
10
5.28087
20
-3.64681
11
5.28087
21
-3.62319
0
LINE
8
BLACK
6
CONTINUOUS
10
5.28087
20
-3.62319
11
5.31728
21
-3.62319
0
LINE
8
BLACK
6
CONTINUOUS
10
5.31728
20
-3.62319
11
5.31728
21
-3.61064
0
LINE
8
BLACK
6
CONTINUOUS
10
5.31728
20
-3.61064
11
5.29795
21
-3.5913
0
LINE
8
BLACK
6
CONTINUOUS
10
5.29795
20
-3.5913
11
5.29705
21
-3.59163
0
LINE
8
BLACK
6
CONTINUOUS
10
5.29705
20
-3.59163
11
5.29295
21
-3.59163
0
LINE
8
BLACK
6
CONTINUOUS
10
5.29295
20
-3.59163
11
5.28909
21
-3.59023
0
LINE
8
BLACK
6
CONTINUOUS
10
5.28909
20
-3.59023
11
5.28595
21
-3.58759
0
LINE
8
BLACK
6
CONTINUOUS
10
5.28595
20
-3.58759
11
5.2839
21
-3.58404
0
LINE
8
BLACK
6
CONTINUOUS
10
5.2839
20
-3.58404
11
5.28319
21
-3.58
0
LINE
8
BLACK
6
CONTINUOUS
10
5.28319
20
-3.58
11
5.2839
21
-3.57596
0
LINE
8
BLACK
6
CONTINUOUS
10
5.2839
20
-3.57596
11
5.28595
21
-3.57241
0
LINE
8
BLACK
6
CONTINUOUS
10
5.28595
20
-3.57241
11
5.28909
21
-3.56977
0
LINE
8
BLACK
6
CONTINUOUS
10
5.28909
20
-3.56977
11
5.29295
21
-3.56837
0
LINE
8
BLACK
6
CONTINUOUS
10
5.29295
20
-3.56837
11
5.29705
21
-3.56837
0
LINE
8
BLACK
6
CONTINUOUS
10
5.29705
20
-3.56837
11
5.30091
21
-3.56977
0
LINE
8
BLACK
6
CONTINUOUS
10
4.78118
20
-3.68059
11
4.77921
21
-3.68059
0
LINE
8
BLACK
6
CONTINUOUS
10
4.77921
20
-3.68059
11
4.77921
21
-3.72941
0
LINE
8
BLACK
6
CONTINUOUS
10
4.77921
20
-3.72941
11
4.78118
21
-3.72941
0
LINE
8
BLACK
6
CONTINUOUS
10
4.78118
20
-3.72941
11
4.78118
21
-3.78059
0
LINE
8
BLACK
6
CONTINUOUS
10
4.78118
20
-3.78059
11
4.77921
21
-3.78059
0
LINE
8
BLACK
6
CONTINUOUS
10
4.77921
20
-3.78059
11
4.77921
21
-3.81251
0
LINE
8
BLACK
6
CONTINUOUS
10
4.77921
20
-3.81251
11
4.78989
21
-3.82319
0
LINE
8
BLACK
6
CONTINUOUS
10
4.78989
20
-3.82319
11
5.07011
21
-3.82319
0
LINE
8
BLACK
6
CONTINUOUS
10
5.07011
20
-3.82319
11
5.085
21
-3.8083
0
LINE
8
BLACK
6
CONTINUOUS
10
5.085
20
-3.8083
11
5.085
21
-3.79681
0
LINE
8
BLACK
6
CONTINUOUS
10
5.085
20
-3.79681
11
5.05449
21
-3.79681
0
LINE
8
BLACK
6
CONTINUOUS
10
5.05449
20
-3.79681
11
5.05449
21
-3.77319
0
LINE
8
BLACK
6
CONTINUOUS
10
5.05449
20
-3.77319
11
5.13913
21
-3.77319
0
LINE
8
BLACK
6
CONTINUOUS
10
5.13913
20
-3.77319
11
5.13913
21
-3.79681
0
LINE
8
BLACK
6
CONTINUOUS
10
5.13913
20
-3.79681
11
5.10862
21
-3.79681
0
LINE
8
BLACK
6
CONTINUOUS
10
5.10862
20
-3.79681
11
5.10862
21
-3.81319
0
LINE
8
BLACK
6
CONTINUOUS
10
5.10862
20
-3.81319
11
5.10859
21
-3.81357
0
LINE
8
BLACK
6
CONTINUOUS
10
5.10859
20
-3.81357
11
5.10861
21
-3.81373
0
LINE
8
BLACK
6
CONTINUOUS
10
5.10861
20
-3.81373
11
5.10855
21
-3.814
0
LINE
8
BLACK
6
CONTINUOUS
10
5.10855
20
-3.814
11
5.10842
21
-3.81536
0
LINE
8
BLACK
6
CONTINUOUS
10
5.10842
20
-3.81536
11
5.10793
21
-3.81663
0
LINE
8
BLACK
6
CONTINUOUS
10
5.10793
20
-3.81663
11
5.10762
21
-3.81796
0
LINE
8
BLACK
6
CONTINUOUS
10
5.10762
20
-3.81796
11
5.10715
21
-3.81864
0
LINE
8
BLACK
6
CONTINUOUS
10
5.10715
20
-3.81864
11
5.10685
21
-3.81941
0
LINE
8
BLACK
6
CONTINUOUS
10
5.10685
20
-3.81941
11
5.10593
21
-3.82041
0
LINE
8
BLACK
6
CONTINUOUS
10
5.10593
20
-3.82041
11
5.10516
21
-3.82154
0
LINE
8
BLACK
6
CONTINUOUS
10
5.10516
20
-3.82154
11
5.08335
21
-3.84335
0
LINE
8
BLACK
6
CONTINUOUS
10
5.08335
20
-3.84335
11
5.08306
21
-3.8436
0
LINE
8
BLACK
6
CONTINUOUS
10
5.08306
20
-3.8436
11
5.08296
21
-3.84373
0
LINE
8
BLACK
6
CONTINUOUS
10
5.08296
20
-3.84373
11
5.08272
21
-3.84387
0
LINE
8
BLACK
6
CONTINUOUS
10
5.08272
20
-3.84387
11
5.08167
21
-3.84474
0
LINE
8
BLACK
6
CONTINUOUS
10
5.08167
20
-3.84474
11
5.08043
21
-3.8453
0
LINE
8
BLACK
6
CONTINUOUS
10
5.08043
20
-3.8453
11
5.07927
21
-3.84601
0
LINE
8
BLACK
6
CONTINUOUS
10
5.07927
20
-3.84601
11
5.07846
21
-3.84616
0
LINE
8
BLACK
6
CONTINUOUS
10
5.07846
20
-3.84616
11
5.0777
21
-3.8465
0
LINE
8
BLACK
6
CONTINUOUS
10
5.0777
20
-3.8465
11
5.07634
21
-3.84656
0
LINE
8
BLACK
6
CONTINUOUS
10
5.07634
20
-3.84656
11
5.075
21
-3.84681
0
LINE
8
BLACK
6
CONTINUOUS
10
5.075
20
-3.84681
11
4.785
21
-3.84681
0
LINE
8
BLACK
6
CONTINUOUS
10
4.785
20
-3.84681
11
4.78462
21
-3.84678
0
LINE
8
BLACK
6
CONTINUOUS
10
4.78462
20
-3.84678
11
4.78445
21
-3.8468
0
LINE
8
BLACK
6
CONTINUOUS
10
4.78445
20
-3.8468
11
4.78419
21
-3.84674
0
LINE
8
BLACK
6
CONTINUOUS
10
4.78419
20
-3.84674
11
4.78283
21
-3.84661
0
LINE
8
BLACK
6
CONTINUOUS
10
4.78283
20
-3.84661
11
4.78156
21
-3.84612
0
LINE
8
BLACK
6
CONTINUOUS
10
4.78156
20
-3.84612
11
4.78023
21
-3.8458
0
LINE
8
BLACK
6
CONTINUOUS
10
4.78023
20
-3.8458
11
4.77955
21
-3.84534
0
LINE
8
BLACK
6
CONTINUOUS
10
4.77955
20
-3.84534
11
4.77878
21
-3.84504
0
LINE
8
BLACK
6
CONTINUOUS
10
4.77878
20
-3.84504
11
4.77777
21
-3.84412
0
LINE
8
BLACK
6
CONTINUOUS
10
4.77777
20
-3.84412
11
4.77665
21
-3.84335
0
LINE
8
BLACK
6
CONTINUOUS
10
4.77665
20
-3.84335
11
4.75905
21
-3.82575
0
LINE
8
BLACK
6
CONTINUOUS
10
4.75905
20
-3.82575
11
4.7588
21
-3.82546
0
LINE
8
BLACK
6
CONTINUOUS
10
4.7588
20
-3.82546
11
4.75867
21
-3.82536
0
LINE
8
BLACK
6
CONTINUOUS
10
4.75867
20
-3.82536
11
4.75853
21
-3.82513
0
LINE
8
BLACK
6
CONTINUOUS
10
4.75853
20
-3.82513
11
4.75766
21
-3.82408
0
LINE
8
BLACK
6
CONTINUOUS
10
4.75766
20
-3.82408
11
4.75711
21
-3.82283
0
LINE
8
BLACK
6
CONTINUOUS
10
4.75711
20
-3.82283
11
4.75639
21
-3.82167
0
LINE
8
BLACK
6
CONTINUOUS
10
4.75639
20
-3.82167
11
4.75624
21
-3.82086
0
LINE
8
BLACK
6
CONTINUOUS
10
4.75624
20
-3.82086
11
4.7559
21
-3.82011
0
LINE
8
BLACK
6
CONTINUOUS
10
4.7559
20
-3.82011
11
4.75584
21
-3.81874
0
LINE
8
BLACK
6
CONTINUOUS
10
4.75584
20
-3.81874
11
4.75559
21
-3.8174
0
LINE
8
BLACK
6
CONTINUOUS
10
4.75559
20
-3.8174
11
4.75559
21
-3.78059
0
LINE
8
BLACK
6
CONTINUOUS
10
4.75559
20
-3.78059
11
4.75362
21
-3.78059
0
LINE
8
BLACK
6
CONTINUOUS
10
4.75362
20
-3.78059
11
4.75362
21
-3.72941
0
LINE
8
BLACK
6
CONTINUOUS
10
4.75362
20
-3.72941
11
4.75559
21
-3.72941
0
LINE
8
BLACK
6
CONTINUOUS
10
4.75559
20
-3.72941
11
4.75559
21
-3.68059
0
LINE
8
BLACK
6
CONTINUOUS
10
4.75559
20
-3.68059
11
4.75362
21
-3.68059
0
LINE
8
BLACK
6
CONTINUOUS
10
4.75362
20
-3.68059
11
4.75362
21
-3.62941
0
LINE
8
BLACK
6
CONTINUOUS
10
4.75362
20
-3.62941
11
4.78118
21
-3.62941
0
LINE
8
BLACK
6
CONTINUOUS
10
4.78118
20
-3.62941
11
4.78118
21
-3.68059
0
LINE
8
BLACK
6
CONTINUOUS
10
5.13913
20
-3.74681
11
5.05449
21
-3.74681
0
LINE
8
BLACK
6
CONTINUOUS
10
5.05449
20
-3.74681
11
5.05449
21
-3.74287
0
LINE
8
BLACK
6
CONTINUOUS
10
5.05449
20
-3.74287
11
4.98826
21
-3.74287
0
LINE
8
BLACK
6
CONTINUOUS
10
4.98826
20
-3.74287
11
4.98787
21
-3.74326
0
LINE
8
BLACK
6
CONTINUOUS
10
4.98787
20
-3.74326
11
4.98787
21
-3.74969
0
LINE
8
BLACK
6
CONTINUOUS
10
4.98787
20
-3.74969
11
5.00461
21
-3.74969
0
LINE
8
BLACK
6
CONTINUOUS
10
5.00461
20
-3.74969
11
5.00461
21
-3.78906
0
LINE
8
BLACK
6
CONTINUOUS
10
5.00461
20
-3.78906
11
4.95539
21
-3.78906
0
LINE
8
BLACK
6
CONTINUOUS
10
4.95539
20
-3.78906
11
4.95539
21
-3.77724
0
LINE
8
BLACK
6
CONTINUOUS
10
4.95539
20
-3.77724
11
4.92118
21
-3.77724
0
LINE
8
BLACK
6
CONTINUOUS
10
4.92118
20
-3.77724
11
4.92118
21
-3.78559
0
LINE
8
BLACK
6
CONTINUOUS
10
4.92118
20
-3.78559
11
4.89362
21
-3.78559
0
LINE
8
BLACK
6
CONTINUOUS
10
4.89362
20
-3.78559
11
4.89362
21
-3.73441
0
LINE
8
BLACK
6
CONTINUOUS
10
4.89362
20
-3.73441
11
4.92118
21
-3.73441
0
LINE
8
BLACK
6
CONTINUOUS
10
4.92118
20
-3.73441
11
4.92118
21
-3.7615
0
LINE
8
BLACK
6
CONTINUOUS
10
4.92118
20
-3.7615
11
4.95539
21
-3.7615
0
LINE
8
BLACK
6
CONTINUOUS
10
4.95539
20
-3.7615
11
4.95539
21
-3.74969
0
LINE
8
BLACK
6
CONTINUOUS
10
4.95539
20
-3.74969
11
4.97213
21
-3.74969
0
LINE
8
BLACK
6
CONTINUOUS
10
4.97213
20
-3.74969
11
4.97213
21
-3.74
0
LINE
8
BLACK
6
CONTINUOUS
10
4.97213
20
-3.74
11
4.97242
21
-3.73871
0
LINE
8
BLACK
6
CONTINUOUS
10
4.97242
20
-3.73871
11
4.97257
21
-3.7374
0
LINE
8
BLACK
6
CONTINUOUS
10
4.97257
20
-3.7374
11
4.97281
21
-3.73702
0
LINE
8
BLACK
6
CONTINUOUS
10
4.97281
20
-3.73702
11
4.97291
21
-3.73658
0
LINE
8
BLACK
6
CONTINUOUS
10
4.97291
20
-3.73658
11
4.97373
21
-3.73555
0
LINE
8
BLACK
6
CONTINUOUS
10
4.97373
20
-3.73555
11
4.97443
21
-3.73443
0
LINE
8
BLACK
6
CONTINUOUS
10
4.97443
20
-3.73443
11
4.97943
21
-3.72943
0
LINE
8
BLACK
6
CONTINUOUS
10
4.97943
20
-3.72943
11
4.98055
21
-3.72873
0
LINE
8
BLACK
6
CONTINUOUS
10
4.98055
20
-3.72873
11
4.98158
21
-3.72791
0
LINE
8
BLACK
6
CONTINUOUS
10
4.98158
20
-3.72791
11
4.98202
21
-3.72781
0
LINE
8
BLACK
6
CONTINUOUS
10
4.98202
20
-3.72781
11
4.9824
21
-3.72757
0
LINE
8
BLACK
6
CONTINUOUS
10
4.9824
20
-3.72757
11
4.98371
21
-3.72742
0
LINE
8
BLACK
6
CONTINUOUS
10
4.98371
20
-3.72742
11
4.985
21
-3.72713
0
LINE
8
BLACK
6
CONTINUOUS
10
4.985
20
-3.72713
11
5.05449
21
-3.72713
0
LINE
8
BLACK
6
CONTINUOUS
10
5.05449
20
-3.72713
11
5.05449
21
-3.72319
0
LINE
8
BLACK
6
CONTINUOUS
10
5.05449
20
-3.72319
11
5.13913
21
-3.72319
0
LINE
8
BLACK
6
CONTINUOUS
10
5.13913
20
-3.72319
11
5.13913
21
-3.74681
0
LINE
8
BLACK
6
CONTINUOUS
10
4.85461
20
-3.70906
11
4.84047
21
-3.70906
0
LINE
8
BLACK
6
CONTINUOUS
10
4.84047
20
-3.70906
11
4.84047
21
-3.73441
0
LINE
8
BLACK
6
CONTINUOUS
10
4.84047
20
-3.73441
11
4.84638
21
-3.73441
0
LINE
8
BLACK
6
CONTINUOUS
10
4.84638
20
-3.73441
11
4.84638
21
-3.78559
0
LINE
8
BLACK
6
CONTINUOUS
10
4.84638
20
-3.78559
11
4.81882
21
-3.78559
0
LINE
8
BLACK
6
CONTINUOUS
10
4.81882
20
-3.78559
11
4.81882
21
-3.73441
0
LINE
8
BLACK
6
CONTINUOUS
10
4.81882
20
-3.73441
11
4.82472
21
-3.73441
0
LINE
8
BLACK
6
CONTINUOUS
10
4.82472
20
-3.73441
11
4.82472
21
-3.70906
0
LINE
8
BLACK
6
CONTINUOUS
10
4.82472
20
-3.70906
11
4.80539
21
-3.70906
0
LINE
8
BLACK
6
CONTINUOUS
10
4.80539
20
-3.70906
11
4.80539
21
-3.66969
0
LINE
8
BLACK
6
CONTINUOUS
10
4.80539
20
-3.66969
11
4.85461
21
-3.66969
0
LINE
8
BLACK
6
CONTINUOUS
10
4.85461
20
-3.66969
11
4.85461
21
-3.70906
0
LINE
8
BLACK
6
CONTINUOUS
10
5.2355
20
-3.03079
11
5.23672
21
-3.03172
0
LINE
8
BLACK
6
CONTINUOUS
10
5.23672
20
-3.03172
11
5.25328
21
-3.04828
0
LINE
8
BLACK
6
CONTINUOUS
10
5.25328
20
-3.04828
11
5.2548
21
-3.05091
0
LINE
8
BLACK
6
CONTINUOUS
10
5.2548
20
-3.05091
11
5.255
21
-3.05243
0
LINE
8
BLACK
6
CONTINUOUS
10
5.255
20
-3.05243
11
5.255
21
-3.05441
0
LINE
8
BLACK
6
CONTINUOUS
10
5.255
20
-3.05441
11
5.25638
21
-3.05441
0
LINE
8
BLACK
6
CONTINUOUS
10
5.25638
20
-3.05441
11
5.25638
21
-3.10559
0
LINE
8
BLACK
6
CONTINUOUS
10
5.25638
20
-3.10559
11
5.255
21
-3.10559
0
LINE
8
BLACK
6
CONTINUOUS
10
5.255
20
-3.10559
11
5.255
21
-3.11218
0
LINE
8
BLACK
6
CONTINUOUS
10
5.255
20
-3.11218
11
5.25421
21
-3.11511
0
LINE
8
BLACK
6
CONTINUOUS
10
5.25421
20
-3.11511
11
5.2528
21
-3.11676
0
LINE
8
BLACK
6
CONTINUOUS
10
5.2528
20
-3.11676
11
5.23161
21
-3.13371
0
LINE
8
BLACK
6
CONTINUOUS
10
5.23161
20
-3.13371
11
5.22883
21
-3.13493
0
LINE
8
BLACK
6
CONTINUOUS
10
5.22883
20
-3.13493
11
5.22794
21
-3.135
0
LINE
8
BLACK
6
CONTINUOUS
10
5.22794
20
-3.135
11
5.135
21
-3.135
0
LINE
8
BLACK
6
CONTINUOUS
10
5.135
20
-3.135
11
5.12
21
-3.15
0
LINE
8
BLACK
6
CONTINUOUS
10
5.12
20
-3.15
11
5.12
21
-3.25257
0
LINE
8
BLACK
6
CONTINUOUS
10
5.12
20
-3.25257
11
5.11921
21
-3.2555
0
LINE
8
BLACK
6
CONTINUOUS
10
5.11921
20
-3.2555
11
5.11828
21
-3.25672
0
LINE
8
BLACK
6
CONTINUOUS
10
5.11828
20
-3.25672
11
5.10672
21
-3.26828
0
LINE
8
BLACK
6
CONTINUOUS
10
5.10672
20
-3.26828
11
5.10409
21
-3.2698
0
LINE
8
BLACK
6
CONTINUOUS
10
5.10409
20
-3.2698
11
5.10257
21
-3.27
0
LINE
8
BLACK
6
CONTINUOUS
10
5.10257
20
-3.27
11
5.005
21
-3.27
0
LINE
8
BLACK
6
CONTINUOUS
10
5.005
20
-3.27
11
4.935
21
-3.355
0
LINE
8
BLACK
6
CONTINUOUS
10
4.935
20
-3.355
11
4.935
21
-3.41757
0
LINE
8
BLACK
6
CONTINUOUS
10
4.935
20
-3.41757
11
4.93421
21
-3.4205
0
LINE
8
BLACK
6
CONTINUOUS
10
4.93421
20
-3.4205
11
4.93328
21
-3.42172
0
LINE
8
BLACK
6
CONTINUOUS
10
4.93328
20
-3.42172
11
4.92284
21
-3.43216
0
LINE
8
BLACK
6
CONTINUOUS
10
4.92284
20
-3.43216
11
4.92284
21
-3.4364
0
LINE
8
BLACK
6
CONTINUOUS
10
4.92284
20
-3.4364
11
4.77716
21
-3.4364
0
LINE
8
BLACK
6
CONTINUOUS
10
4.77716
20
-3.4364
11
4.77716
21
-3.43345
0
LINE
8
BLACK
6
CONTINUOUS
10
4.77716
20
-3.43345
11
4.77579
21
-3.43207
0
LINE
8
BLACK
6
CONTINUOUS
10
4.77579
20
-3.43207
11
4.77551
21
-3.43105
0
LINE
8
BLACK
6
CONTINUOUS
10
4.77551
20
-3.43105
11
4.77545
21
-3.43108
0
LINE
8
BLACK
6
CONTINUOUS
10
4.77545
20
-3.43108
11
4.775
21
-3.43
0
LINE
8
BLACK
6
CONTINUOUS
10
4.775
20
-3.43
11
4.77351
21
-3.42851
0
LINE
8
BLACK
6
CONTINUOUS
10
4.77351
20
-3.42851
11
4.73819
21
-3.42851
0
LINE
8
BLACK
6
CONTINUOUS
10
4.73819
20
-3.42851
11
4.70441
21
-3.46229
0
LINE
8
BLACK
6
CONTINUOUS
10
4.70441
20
-3.46229
11
4.70441
21
-3.62941
0
LINE
8
BLACK
6
CONTINUOUS
10
4.70441
20
-3.62941
11
4.70638
21
-3.62941
0
LINE
8
BLACK
6
CONTINUOUS
10
4.70638
20
-3.62941
11
4.70638
21
-3.68059
0
LINE
8
BLACK
6
CONTINUOUS
10
4.70638
20
-3.68059
11
4.67882
21
-3.68059
0
LINE
8
BLACK
6
CONTINUOUS
10
4.67882
20
-3.68059
11
4.67882
21
-3.62941
0
LINE
8
BLACK
6
CONTINUOUS
10
4.67882
20
-3.62941
11
4.68079
21
-3.62941
0
LINE
8
BLACK
6
CONTINUOUS
10
4.68079
20
-3.62941
11
4.68079
21
-3.4574
0
LINE
8
BLACK
6
CONTINUOUS
10
4.68079
20
-3.4574
11
4.68082
21
-3.45702
0
LINE
8
BLACK
6
CONTINUOUS
10
4.68082
20
-3.45702
11
4.6808
21
-3.45686
0
LINE
8
BLACK
6
CONTINUOUS
10
4.6808
20
-3.45686
11
4.68086
21
-3.45659
0
LINE
8
BLACK
6
CONTINUOUS
10
4.68086
20
-3.45659
11
4.68099
21
-3.45523
0
LINE
8
BLACK
6
CONTINUOUS
10
4.68099
20
-3.45523
11
4.68148
21
-3.45396
0
LINE
8
BLACK
6
CONTINUOUS
10
4.68148
20
-3.45396
11
4.68179
21
-3.45263
0
LINE
8
BLACK
6
CONTINUOUS
10
4.68179
20
-3.45263
11
4.68226
21
-3.45195
0
LINE
8
BLACK
6
CONTINUOUS
10
4.68226
20
-3.45195
11
4.68256
21
-3.45118
0
LINE
8
BLACK
6
CONTINUOUS
10
4.68256
20
-3.45118
11
4.68348
21
-3.45018
0
LINE
8
BLACK
6
CONTINUOUS
10
4.68348
20
-3.45018
11
4.68425
21
-3.44905
0
LINE
8
BLACK
6
CONTINUOUS
10
4.68425
20
-3.44905
11
4.72495
21
-3.40835
0
LINE
8
BLACK
6
CONTINUOUS
10
4.72495
20
-3.40835
11
4.72524
21
-3.4081
0
LINE
8
BLACK
6
CONTINUOUS
10
4.72524
20
-3.4081
11
4.72534
21
-3.40797
0
LINE
8
BLACK
6
CONTINUOUS
10
4.72534
20
-3.40797
11
4.72558
21
-3.40783
0
LINE
8
BLACK
6
CONTINUOUS
10
4.72558
20
-3.40783
11
4.72663
21
-3.40696
0
LINE
8
BLACK
6
CONTINUOUS
10
4.72663
20
-3.40696
11
4.72787
21
-3.4064
0
LINE
8
BLACK
6
CONTINUOUS
10
4.72787
20
-3.4064
11
4.72903
21
-3.40569
0
LINE
8
BLACK
6
CONTINUOUS
10
4.72903
20
-3.40569
11
4.72984
21
-3.40554
0
LINE
8
BLACK
6
CONTINUOUS
10
4.72984
20
-3.40554
11
4.7306
21
-3.4052
0
LINE
8
BLACK
6
CONTINUOUS
10
4.7306
20
-3.4052
11
4.73196
21
-3.40514
0
LINE
8
BLACK
6
CONTINUOUS
10
4.73196
20
-3.40514
11
4.7333
21
-3.40489
0
LINE
8
BLACK
6
CONTINUOUS
10
4.7333
20
-3.40489
11
4.77
21
-3.40489
0
LINE
8
BLACK
6
CONTINUOUS
10
4.77
20
-3.40489
11
4.77
21
-3.35243
0
LINE
8
BLACK
6
CONTINUOUS
10
4.77
20
-3.35243
11
4.77079
21
-3.3495
0
LINE
8
BLACK
6
CONTINUOUS
10
4.77079
20
-3.3495
11
4.77172
21
-3.34828
0
LINE
8
BLACK
6
CONTINUOUS
10
4.77172
20
-3.34828
11
4.78828
21
-3.33172
0
LINE
8
BLACK
6
CONTINUOUS
10
4.78828
20
-3.33172
11
4.79091
21
-3.3302
0
LINE
8
BLACK
6
CONTINUOUS
10
4.79091
20
-3.3302
11
4.79243
21
-3.33
0
LINE
8
BLACK
6
CONTINUOUS
10
4.79243
20
-3.33
11
4.875
21
-3.33
0
LINE
8
BLACK
6
CONTINUOUS
10
4.875
20
-3.33
11
4.89
21
-3.315
0
LINE
8
BLACK
6
CONTINUOUS
10
4.89
20
-3.315
11
4.89
21
-3.3015
0
LINE
8
BLACK
6
CONTINUOUS
10
4.89
20
-3.3015
11
4.88937
21
-3.3015
0
LINE
8
BLACK
6
CONTINUOUS
10
4.88937
20
-3.3015
11
4.88937
21
-3.2385
0
LINE
8
BLACK
6
CONTINUOUS
10
4.88937
20
-3.2385
11
4.89
21
-3.2385
0
LINE
8
BLACK
6
CONTINUOUS
10
4.89
20
-3.2385
11
4.89
21
-3.22243
0
LINE
8
BLACK
6
CONTINUOUS
10
4.89
20
-3.22243
11
4.89079
21
-3.2195
0
LINE
8
BLACK
6
CONTINUOUS
10
4.89079
20
-3.2195
11
4.89172
21
-3.21828
0
LINE
8
BLACK
6
CONTINUOUS
10
4.89172
20
-3.21828
11
4.89828
21
-3.21172
0
LINE
8
BLACK
6
CONTINUOUS
10
4.89828
20
-3.21172
11
4.90091
21
-3.2102
0
LINE
8
BLACK
6
CONTINUOUS
10
4.90091
20
-3.2102
11
4.90243
21
-3.21
0
LINE
8
BLACK
6
CONTINUOUS
10
4.90243
20
-3.21
11
4.96
21
-3.21
0
LINE
8
BLACK
6
CONTINUOUS
10
4.96
20
-3.21
11
5.02
21
-3.15
0
LINE
8
BLACK
6
CONTINUOUS
10
5.02
20
-3.15
11
5.02
21
-3.08727
0
LINE
8
BLACK
6
CONTINUOUS
10
5.02
20
-3.08727
11
5.02079
21
-3.08433
0
LINE
8
BLACK
6
CONTINUOUS
10
5.02079
20
-3.08433
11
5.02153
21
-3.08332
0
LINE
8
BLACK
6
CONTINUOUS
10
5.02153
20
-3.08332
11
5.06825
21
-3.03192
0
LINE
8
BLACK
6
CONTINUOUS
10
5.06825
20
-3.03192
11
5.07081
21
-3.03028
0
LINE
8
BLACK
6
CONTINUOUS
10
5.07081
20
-3.03028
11
5.07259
21
-3.03
0
LINE
8
BLACK
6
CONTINUOUS
10
5.07259
20
-3.03
11
5.23257
21
-3.03
0
LINE
8
BLACK
6
CONTINUOUS
10
5.23257
20
-3.03
11
5.2355
21
-3.03079
0
LINE
8
BLACK
6
CONTINUOUS
10
5.0855
20
-3.34579
11
5.08672
21
-3.34672
0
LINE
8
BLACK
6
CONTINUOUS
10
5.08672
20
-3.34672
11
5.09201
21
-3.35201
0
LINE
8
BLACK
6
CONTINUOUS
10
5.09201
20
-3.35201
11
5.09445
21
-3.35201
0
LINE
8
BLACK
6
CONTINUOUS
10
5.09445
20
-3.35201
11
5.09445
21
-3.3553
0
LINE
8
BLACK
6
CONTINUOUS
10
5.09445
20
-3.3553
11
5.0948
21
-3.35591
0
LINE
8
BLACK
6
CONTINUOUS
10
5.0948
20
-3.35591
11
5.095
21
-3.35743
0
LINE
8
BLACK
6
CONTINUOUS
10
5.095
20
-3.35743
11
5.095
21
-3.48722
0
LINE
8
BLACK
6
CONTINUOUS
10
5.095
20
-3.48722
11
5.09421
21
-3.49015
0
LINE
8
BLACK
6
CONTINUOUS
10
5.09421
20
-3.49015
11
5.09285
21
-3.49176
0
LINE
8
BLACK
6
CONTINUOUS
10
5.09285
20
-3.49176
11
5.04162
21
-3.53367
0
LINE
8
BLACK
6
CONTINUOUS
10
5.04162
20
-3.53367
11
5.03885
21
-3.53492
0
LINE
8
BLACK
6
CONTINUOUS
10
5.03885
20
-3.53492
11
5.03791
21
-3.535
0
LINE
8
BLACK
6
CONTINUOUS
10
5.03791
20
-3.535
11
5.03
21
-3.535
0
LINE
8
BLACK
6
CONTINUOUS
10
5.03
20
-3.535
11
5.015
21
-3.55
0
LINE
8
BLACK
6
CONTINUOUS
10
5.015
20
-3.55
11
5.015
21
-3.55539
0
LINE
8
BLACK
6
CONTINUOUS
10
5.015
20
-3.55539
11
5.01531
21
-3.55539
0
LINE
8
BLACK
6
CONTINUOUS
10
5.01531
20
-3.55539
11
5.01531
21
-3.60461
0
LINE
8
BLACK
6
CONTINUOUS
10
5.01531
20
-3.60461
11
5.015
21
-3.60461
0
LINE
8
BLACK
6
CONTINUOUS
10
5.015
20
-3.60461
11
5.015
21
-3.615
0
LINE
8
BLACK
6
CONTINUOUS
10
5.015
20
-3.615
11
5.02
21
-3.62
0
LINE
8
BLACK
6
CONTINUOUS
10
5.02
20
-3.62
11
5.13413
21
-3.62
0
LINE
8
BLACK
6
CONTINUOUS
10
5.13413
20
-3.62
11
5.13707
21
-3.62079
0
LINE
8
BLACK
6
CONTINUOUS
10
5.13707
20
-3.62079
11
5.13921
21
-3.62293
0
LINE
8
BLACK
6
CONTINUOUS
10
5.13921
20
-3.62293
11
5.14
21
-3.62587
0
LINE
8
BLACK
6
CONTINUOUS
10
5.14
20
-3.62587
11
5.14
21
-3.64413
0
LINE
8
BLACK
6
CONTINUOUS
10
5.14
20
-3.64413
11
5.13921
21
-3.64707
0
LINE
8
BLACK
6
CONTINUOUS
10
5.13921
20
-3.64707
11
5.13707
21
-3.64921
0
LINE
8
BLACK
6
CONTINUOUS
10
5.13707
20
-3.64921
11
5.13413
21
-3.65
0
LINE
8
BLACK
6
CONTINUOUS
10
5.13413
20
-3.65
11
4.93206
21
-3.65
0
LINE
8
BLACK
6
CONTINUOUS
10
4.93206
20
-3.65
11
4.92912
21
-3.64921
0
LINE
8
BLACK
6
CONTINUOUS
10
4.92912
20
-3.64921
11
4.92839
21
-3.64871
0
LINE
8
BLACK
6
CONTINUOUS
10
4.92839
20
-3.64871
11
4.9072
21
-3.63176
0
LINE
8
BLACK
6
CONTINUOUS
10
4.9072
20
-3.63176
11
4.9054
21
-3.62932
0
LINE
8
BLACK
6
CONTINUOUS
10
4.9054
20
-3.62932
11
4.905
21
-3.62718
0
LINE
8
BLACK
6
CONTINUOUS
10
4.905
20
-3.62718
11
4.905
21
-3.615
0
LINE
8
BLACK
6
CONTINUOUS
10
4.905
20
-3.615
11
4.905
21
-3.615
0
LINE
8
BLACK
6
CONTINUOUS
10
4.905
20
-3.615
11
4.87
21
-3.575
0
LINE
8
BLACK
6
CONTINUOUS
10
4.87
20
-3.575
11
4.84743
21
-3.575
0
LINE
8
BLACK
6
CONTINUOUS
10
4.84743
20
-3.575
11
4.8445
21
-3.57421
0
LINE
8
BLACK
6
CONTINUOUS
10
4.8445
20
-3.57421
11
4.84328
21
-3.57328
0
LINE
8
BLACK
6
CONTINUOUS
10
4.84328
20
-3.57328
11
4.82
21
-3.55
0
LINE
8
BLACK
6
CONTINUOUS
10
4.82
20
-3.55
11
4.78814
21
-3.55
0
LINE
8
BLACK
6
CONTINUOUS
10
4.78814
20
-3.55
11
4.78521
21
-3.54921
0
LINE
8
BLACK
6
CONTINUOUS
10
4.78521
20
-3.54921
11
4.78326
21
-3.54739
0
LINE
8
BLACK
6
CONTINUOUS
10
4.78326
20
-3.54739
11
4.77599
21
-3.53648
0
LINE
8
BLACK
6
CONTINUOUS
10
4.77599
20
-3.53648
11
4.77501
21
-3.5336
0
LINE
8
BLACK
6
CONTINUOUS
10
4.77501
20
-3.5336
11
4.775
21
-3.53323
0
LINE
8
BLACK
6
CONTINUOUS
10
4.775
20
-3.53323
11
4.775
21
-3.48743
0
LINE
8
BLACK
6
CONTINUOUS
10
4.775
20
-3.48743
11
4.77579
21
-3.4845
0
LINE
8
BLACK
6
CONTINUOUS
10
4.77579
20
-3.4845
11
4.77672
21
-3.48328
0
LINE
8
BLACK
6
CONTINUOUS
10
4.77672
20
-3.48328
11
4.77828
21
-3.48172
0
LINE
8
BLACK
6
CONTINUOUS
10
4.77828
20
-3.48172
11
4.78091
21
-3.4802
0
LINE
8
BLACK
6
CONTINUOUS
10
4.78091
20
-3.4802
11
4.78243
21
-3.48
0
LINE
8
BLACK
6
CONTINUOUS
10
4.78243
20
-3.48
11
4.975
21
-3.48
0
LINE
8
BLACK
6
CONTINUOUS
10
4.975
20
-3.48
11
4.985
21
-3.47
0
LINE
8
BLACK
6
CONTINUOUS
10
4.985
20
-3.47
11
4.985
21
-3.35743
0
LINE
8
BLACK
6
CONTINUOUS
10
4.985
20
-3.35743
11
4.98579
21
-3.3545
0
LINE
8
BLACK
6
CONTINUOUS
10
4.98579
20
-3.3545
11
4.98672
21
-3.35328
0
LINE
8
BLACK
6
CONTINUOUS
10
4.98672
20
-3.35328
11
4.99328
21
-3.34672
0
LINE
8
BLACK
6
CONTINUOUS
10
4.99328
20
-3.34672
11
4.99591
21
-3.3452
0
LINE
8
BLACK
6
CONTINUOUS
10
4.99591
20
-3.3452
11
4.99743
21
-3.345
0
LINE
8
BLACK
6
CONTINUOUS
10
4.99743
20
-3.345
11
5.08257
21
-3.345
0
LINE
8
BLACK
6
CONTINUOUS
10
5.08257
20
-3.345
11
5.0855
21
-3.34579
0
LINE
8
BLACK
6
CONTINUOUS
10
5.09406
20
-3.57409
11
5.11498
21
-3.57409
0
LINE
8
BLACK
6
CONTINUOUS
10
5.11498
20
-3.57409
11
5.11595
21
-3.57241
0
LINE
8
BLACK
6
CONTINUOUS
10
5.11595
20
-3.57241
11
5.11909
21
-3.56977
0
LINE
8
BLACK
6
CONTINUOUS
10
5.11909
20
-3.56977
11
5.12295
21
-3.56837
0
LINE
8
BLACK
6
CONTINUOUS
10
5.12295
20
-3.56837
11
5.12705
21
-3.56837
0
LINE
8
BLACK
6
CONTINUOUS
10
5.12705
20
-3.56837
11
5.13091
21
-3.56977
0
LINE
8
BLACK
6
CONTINUOUS
10
5.13091
20
-3.56977
11
5.13405
21
-3.57241
0
LINE
8
BLACK
6
CONTINUOUS
10
5.13405
20
-3.57241
11
5.1361
21
-3.57596
0
LINE
8
BLACK
6
CONTINUOUS
10
5.1361
20
-3.57596
11
5.13681
21
-3.58
0
LINE
8
BLACK
6
CONTINUOUS
10
5.13681
20
-3.58
11
5.1361
21
-3.58404
0
LINE
8
BLACK
6
CONTINUOUS
10
5.1361
20
-3.58404
11
5.13405
21
-3.58759
0
LINE
8
BLACK
6
CONTINUOUS
10
5.13405
20
-3.58759
11
5.13091
21
-3.59023
0
LINE
8
BLACK
6
CONTINUOUS
10
5.13091
20
-3.59023
11
5.12705
21
-3.59163
0
LINE
8
BLACK
6
CONTINUOUS
10
5.12705
20
-3.59163
11
5.12295
21
-3.59163
0
LINE
8
BLACK
6
CONTINUOUS
10
5.12295
20
-3.59163
11
5.11909
21
-3.59023
0
LINE
8
BLACK
6
CONTINUOUS
10
5.11909
20
-3.59023
11
5.11595
21
-3.58759
0
LINE
8
BLACK
6
CONTINUOUS
10
5.11595
20
-3.58759
11
5.11498
21
-3.58591
0
LINE
8
BLACK
6
CONTINUOUS
10
5.11498
20
-3.58591
11
5.09406
21
-3.58591
0
LINE
8
BLACK
6
CONTINUOUS
10
5.09406
20
-3.58591
11
5.09406
21
-3.60461
0
LINE
8
BLACK
6
CONTINUOUS
10
5.09406
20
-3.60461
11
5.05469
21
-3.60461
0
LINE
8
BLACK
6
CONTINUOUS
10
5.05469
20
-3.60461
11
5.05469
21
-3.55539
0
LINE
8
BLACK
6
CONTINUOUS
10
5.05469
20
-3.55539
11
5.09406
21
-3.55539
0
LINE
8
BLACK
6
CONTINUOUS
10
5.09406
20
-3.55539
11
5.09406
21
-3.57409
0
LINE
8
BLACK
6
CONTINUOUS
10
5.51059
20
-2.99618
11
5.49287
21
-2.99618
0
LINE
8
BLACK
6
CONTINUOUS
10
5.49287
20
-2.99618
11
5.49287
21
-3.025
0
LINE
8
BLACK
6
CONTINUOUS
10
5.49287
20
-3.025
11
6.04257
21
-3.025
0
LINE
8
BLACK
6
CONTINUOUS
10
6.04257
20
-3.025
11
6.0455
21
-3.02579
0
LINE
8
BLACK
6
CONTINUOUS
10
6.0455
20
-3.02579
11
6.04672
21
-3.02672
0
LINE
8
BLACK
6
CONTINUOUS
10
6.04672
20
-3.02672
11
6.05828
21
-3.03828
0
LINE
8
BLACK
6
CONTINUOUS
10
6.05828
20
-3.03828
11
6.0598
21
-3.04091
0
LINE
8
BLACK
6
CONTINUOUS
10
6.0598
20
-3.04091
11
6.06
21
-3.04243
0
LINE
8
BLACK
6
CONTINUOUS
10
6.06
20
-3.04243
11
6.06
21
-3.16257
0
LINE
8
BLACK
6
CONTINUOUS
10
6.06
20
-3.16257
11
6.05921
21
-3.1655
0
LINE
8
BLACK
6
CONTINUOUS
10
6.05921
20
-3.1655
11
6.05828
21
-3.16672
0
LINE
8
BLACK
6
CONTINUOUS
10
6.05828
20
-3.16672
11
6.05172
21
-3.17328
0
LINE
8
BLACK
6
CONTINUOUS
10
6.05172
20
-3.17328
11
6.04909
21
-3.1748
0
LINE
8
BLACK
6
CONTINUOUS
10
6.04909
20
-3.1748
11
6.04757
21
-3.175
0
LINE
8
BLACK
6
CONTINUOUS
10
6.04757
20
-3.175
11
6.04185
21
-3.175
0
LINE
8
BLACK
6
CONTINUOUS
10
6.04185
20
-3.175
11
5.89185
21
-3.175
0
LINE
8
BLACK
6
CONTINUOUS
10
5.89185
20
-3.175
11
5.845
21
-3.175
0
LINE
8
BLACK
6
CONTINUOUS
10
5.845
20
-3.175
11
5.695
21
-3.175
0
LINE
8
BLACK
6
CONTINUOUS
10
5.695
20
-3.175
11
5.68662
21
-3.175
0
LINE
8
BLACK
6
CONTINUOUS
10
5.68662
20
-3.175
11
5.68369
21
-3.17421
0
LINE
8
BLACK
6
CONTINUOUS
10
5.68369
20
-3.17421
11
5.68361
21
-3.17416
0
LINE
8
BLACK
6
CONTINUOUS
10
5.68361
20
-3.17416
11
5.635
21
-3.145
0
LINE
8
BLACK
6
CONTINUOUS
10
5.635
20
-3.145
11
5.6215
21
-3.145
0
LINE
8
BLACK
6
CONTINUOUS
10
5.6215
20
-3.145
11
5.6215
21
-3.14563
0
LINE
8
BLACK
6
CONTINUOUS
10
5.6215
20
-3.14563
11
5.5585
21
-3.14563
0
LINE
8
BLACK
6
CONTINUOUS
10
5.5585
20
-3.14563
11
5.5585
21
-3.145
0
LINE
8
BLACK
6
CONTINUOUS
10
5.5585
20
-3.145
11
5.4939
21
-3.145
0
LINE
8
BLACK
6
CONTINUOUS
10
5.4939
20
-3.145
11
5.4939
21
-3.14795
0
LINE
8
BLACK
6
CONTINUOUS
10
5.4939
20
-3.14795
11
5.4061
21
-3.14795
0
LINE
8
BLACK
6
CONTINUOUS
10
5.4061
20
-3.14795
11
5.4061
21
-3.145
0
LINE
8
BLACK
6
CONTINUOUS
10
5.4061
20
-3.145
11
5.34243
21
-3.145
0
LINE
8
BLACK
6
CONTINUOUS
10
5.34243
20
-3.145
11
5.3395
21
-3.14421
0
LINE
8
BLACK
6
CONTINUOUS
10
5.3395
20
-3.14421
11
5.33828
21
-3.14328
0
LINE
8
BLACK
6
CONTINUOUS
10
5.33828
20
-3.14328
11
5.30672
21
-3.11172
0
LINE
8
BLACK
6
CONTINUOUS
10
5.30672
20
-3.11172
11
5.3052
21
-3.10909
0
LINE
8
BLACK
6
CONTINUOUS
10
5.3052
20
-3.10909
11
5.305
21
-3.10757
0
LINE
8
BLACK
6
CONTINUOUS
10
5.305
20
-3.10757
11
5.305
21
-3.10559
0
LINE
8
BLACK
6
CONTINUOUS
10
5.305
20
-3.10559
11
5.30362
21
-3.10559
0
LINE
8
BLACK
6
CONTINUOUS
10
5.30362
20
-3.10559
11
5.30362
21
-3.05441
0
LINE
8
BLACK
6
CONTINUOUS
10
5.30362
20
-3.05441
11
5.305
21
-3.05441
0
LINE
8
BLACK
6
CONTINUOUS
10
5.305
20
-3.05441
11
5.305
21
-3.04782
0
LINE
8
BLACK
6
CONTINUOUS
10
5.305
20
-3.04782
11
5.30579
21
-3.04489
0
LINE
8
BLACK
6
CONTINUOUS
10
5.30579
20
-3.04489
11
5.3072
21
-3.04324
0
LINE
8
BLACK
6
CONTINUOUS
10
5.3072
20
-3.04324
11
5.32839
21
-3.02629
0
LINE
8
BLACK
6
CONTINUOUS
10
5.32839
20
-3.02629
11
5.33117
21
-3.02507
0
LINE
8
BLACK
6
CONTINUOUS
10
5.33117
20
-3.02507
11
5.33206
21
-3.025
0
LINE
8
BLACK
6
CONTINUOUS
10
5.33206
20
-3.025
11
5.47713
21
-3.025
0
LINE
8
BLACK
6
CONTINUOUS
10
5.47713
20
-3.025
11
5.47713
21
-2.99618
0
LINE
8
BLACK
6
CONTINUOUS
10
5.47713
20
-2.99618
11
5.45941
21
-2.99618
0
LINE
8
BLACK
6
CONTINUOUS
10
5.45941
20
-2.99618
11
5.45941
21
-2.96862
0
LINE
8
BLACK
6
CONTINUOUS
10
5.45941
20
-2.96862
11
5.51059
21
-2.96862
0
LINE
8
BLACK
6
CONTINUOUS
10
5.51059
20
-2.96862
11
5.51059
21
-2.99618
0
LINE
8
BLACK
6
CONTINUOUS
10
5.48591
20
-2.83977
11
5.48905
21
-2.84241
0
LINE
8
BLACK
6
CONTINUOUS
10
5.48905
20
-2.84241
11
5.4911
21
-2.84596
0
LINE
8
BLACK
6
CONTINUOUS
10
5.4911
20
-2.84596
11
5.49181
21
-2.85
0
LINE
8
BLACK
6
CONTINUOUS
10
5.49181
20
-2.85
11
5.4911
21
-2.85404
0
LINE
8
BLACK
6
CONTINUOUS
10
5.4911
20
-2.85404
11
5.49079
21
-2.85457
0
LINE
8
BLACK
6
CONTINUOUS
10
5.49079
20
-2.85457
11
5.49091
21
-2.855
0
LINE
8
BLACK
6
CONTINUOUS
10
5.49091
20
-2.855
11
5.49091
21
-2.89382
0
LINE
8
BLACK
6
CONTINUOUS
10
5.49091
20
-2.89382
11
5.51059
21
-2.89382
0
LINE
8
BLACK
6
CONTINUOUS
10
5.51059
20
-2.89382
11
5.51059
21
-2.92138
0
LINE
8
BLACK
6
CONTINUOUS
10
5.51059
20
-2.92138
11
5.45941
21
-2.92138
0
LINE
8
BLACK
6
CONTINUOUS
10
5.45941
20
-2.92138
11
5.45941
21
-2.89382
0
LINE
8
BLACK
6
CONTINUOUS
10
5.45941
20
-2.89382
11
5.47909
21
-2.89382
0
LINE
8
BLACK
6
CONTINUOUS
10
5.47909
20
-2.89382
11
5.47909
21
-2.86163
0
LINE
8
BLACK
6
CONTINUOUS
10
5.47909
20
-2.86163
11
5.47795
21
-2.86163
0
LINE
8
BLACK
6
CONTINUOUS
10
5.47795
20
-2.86163
11
5.47409
21
-2.86023
0
LINE
8
BLACK
6
CONTINUOUS
10
5.47409
20
-2.86023
11
5.47095
21
-2.85759
0
LINE
8
BLACK
6
CONTINUOUS
10
5.47095
20
-2.85759
11
5.4689
21
-2.85404
0
LINE
8
BLACK
6
CONTINUOUS
10
5.4689
20
-2.85404
11
5.46819
21
-2.85
0
LINE
8
BLACK
6
CONTINUOUS
10
5.46819
20
-2.85
11
5.4689
21
-2.84596
0
LINE
8
BLACK
6
CONTINUOUS
10
5.4689
20
-2.84596
11
5.47095
21
-2.84241
0
LINE
8
BLACK
6
CONTINUOUS
10
5.47095
20
-2.84241
11
5.47409
21
-2.83977
0
LINE
8
BLACK
6
CONTINUOUS
10
5.47409
20
-2.83977
11
5.47795
21
-2.83837
0
LINE
8
BLACK
6
CONTINUOUS
10
5.47795
20
-2.83837
11
5.48205
21
-2.83837
0
LINE
8
BLACK
6
CONTINUOUS
10
5.48205
20
-2.83837
11
5.48591
21
-2.83977
0
LINE
8
BLACK
6
CONTINUOUS
10
6.18409
20
-2.61376
11
6.18624
21
-2.61591
0
LINE
8
BLACK
6
CONTINUOUS
10
6.18624
20
-2.61591
11
6.18703
21
-2.61884
0
LINE
8
BLACK
6
CONTINUOUS
10
6.18703
20
-2.61884
11
6.18703
21
-4.18116
0
LINE
8
BLACK
6
CONTINUOUS
10
6.18703
20
-4.18116
11
6.18624
21
-4.18409
0
LINE
8
BLACK
6
CONTINUOUS
10
6.18624
20
-4.18409
11
6.18409
21
-4.18624
0
LINE
8
BLACK
6
CONTINUOUS
10
6.18409
20
-4.18624
11
6.18116
21
-4.18703
0
LINE
8
BLACK
6
CONTINUOUS
10
6.18116
20
-4.18703
11
4.61884
21
-4.18703
0
LINE
8
BLACK
6
CONTINUOUS
10
4.61884
20
-4.18703
11
4.61591
21
-4.18624
0
LINE
8
BLACK
6
CONTINUOUS
10
4.61591
20
-4.18624
11
4.61376
21
-4.18409
0
LINE
8
BLACK
6
CONTINUOUS
10
4.61376
20
-4.18409
11
4.61297
21
-4.18116
0
LINE
8
BLACK
6
CONTINUOUS
10
4.61297
20
-4.18116
11
4.61297
21
-4.03999
0
LINE
8
BLACK
6
CONTINUOUS
10
4.61297
20
-4.03999
11
4.61297
21
-3.78158
0
LINE
8
BLACK
6
CONTINUOUS
10
4.61297
20
-3.78158
11
4.61297
21
-3.68158
0
LINE
8
BLACK
6
CONTINUOUS
10
4.61297
20
-3.68158
11
4.61297
21
-2.92236
0
LINE
8
BLACK
6
CONTINUOUS
10
4.61297
20
-2.92236
11
4.61297
21
-2.61884
0
LINE
8
BLACK
6
CONTINUOUS
10
4.61297
20
-2.61884
11
4.61376
21
-2.61591
0
LINE
8
BLACK
6
CONTINUOUS
10
4.61376
20
-2.61591
11
4.61591
21
-2.61376
0
LINE
8
BLACK
6
CONTINUOUS
10
4.61591
20
-2.61376
11
4.61884
21
-2.61297
0
LINE
8
BLACK
6
CONTINUOUS
10
4.61884
20
-2.61297
11
6.18116
21
-2.61297
0
LINE
8
BLACK
6
CONTINUOUS
10
6.18116
20
-2.61297
11
6.18409
21
-2.61376
0
LINE
8
BLACK
6
CONTINUOUS
10
5.2893
20
-3.55873
11
5.2893
21
-3.55873
0
LINE
8
BLACK
6
CONTINUOUS
10
5.2893
20
-3.55873
11
5.28399
21
-3.56093
0
LINE
8
BLACK
6
CONTINUOUS
10
5.28399
20
-3.56093
11
5.27943
21
-3.56443
0
LINE
8
BLACK
6
CONTINUOUS
10
5.27943
20
-3.56443
11
5.27593
21
-3.56899
0
LINE
8
BLACK
6
CONTINUOUS
10
5.27593
20
-3.56899
11
5.27373
21
-3.5743
0
LINE
8
BLACK
6
CONTINUOUS
10
5.27373
20
-3.5743
11
5.27373
21
-3.5743
0
LINE
8
BLACK
6
CONTINUOUS
10
5.27373
20
-3.5743
11
5.27298
21
-3.58
0
LINE
8
BLACK
6
CONTINUOUS
10
5.27298
20
-3.58
11
5.27298
21
-3.58
0
LINE
8
BLACK
6
CONTINUOUS
10
5.27298
20
-3.58
11
5.27373
21
-3.5857
0
LINE
8
BLACK
6
CONTINUOUS
10
5.27373
20
-3.5857
11
5.27593
21
-3.59101
0
LINE
8
BLACK
6
CONTINUOUS
10
5.27593
20
-3.59101
11
5.27943
21
-3.59557
0
LINE
8
BLACK
6
CONTINUOUS
10
5.27943
20
-3.59557
11
5.27943
21
-3.59557
0
LINE
8
BLACK
6
CONTINUOUS
10
5.27943
20
-3.59557
11
5.28399
21
-3.59907
0
LINE
8
BLACK
6
CONTINUOUS
10
5.28399
20
-3.59907
11
5.28399
21
-3.59907
0
LINE
8
BLACK
6
CONTINUOUS
10
5.28399
20
-3.59907
11
5.28734
21
-3.60046
0
LINE
8
BLACK
6
CONTINUOUS
10
5.28734
20
-3.60046
11
5.2893
21
-3.60127
0
LINE
8
BLACK
6
CONTINUOUS
10
5.2893
20
-3.60127
11
5.29096
21
-3.60149
0
LINE
8
BLACK
6
CONTINUOUS
10
5.29096
20
-3.60149
11
5.29377
21
-3.60265
0
LINE
8
BLACK
6
CONTINUOUS
10
5.29377
20
-3.60265
11
5.29561
21
-3.60506
0
LINE
8
BLACK
6
CONTINUOUS
10
5.29561
20
-3.60506
11
5.29601
21
-3.60807
0
LINE
8
BLACK
6
CONTINUOUS
10
5.29601
20
-3.60807
11
5.29485
21
-3.61087
0
LINE
8
BLACK
6
CONTINUOUS
10
5.29485
20
-3.61087
11
5.29244
21
-3.61272
0
LINE
8
BLACK
6
CONTINUOUS
10
5.29244
20
-3.61272
11
5.29019
21
-3.61317
0
LINE
8
BLACK
6
CONTINUOUS
10
5.29019
20
-3.61317
11
5.27988
21
-3.61317
0
LINE
8
BLACK
6
CONTINUOUS
10
5.27988
20
-3.61317
11
5.27696
21
-3.61375
0
LINE
8
BLACK
6
CONTINUOUS
10
5.27696
20
-3.61375
11
5.27364
21
-3.61597
0
LINE
8
BLACK
6
CONTINUOUS
10
5.27364
20
-3.61597
11
5.27364
21
-3.61597
0
LINE
8
BLACK
6
CONTINUOUS
10
5.27364
20
-3.61597
11
5.27143
21
-3.61928
0
LINE
8
BLACK
6
CONTINUOUS
10
5.27143
20
-3.61928
11
5.27085
21
-3.6222
0
LINE
8
BLACK
6
CONTINUOUS
10
5.27085
20
-3.6222
11
5.27085
21
-3.6478
0
LINE
8
BLACK
6
CONTINUOUS
10
5.27085
20
-3.6478
11
5.27143
21
-3.65072
0
LINE
8
BLACK
6
CONTINUOUS
10
5.27143
20
-3.65072
11
5.27364
21
-3.65403
0
LINE
8
BLACK
6
CONTINUOUS
10
5.27364
20
-3.65403
11
5.27364
21
-3.65403
0
LINE
8
BLACK
6
CONTINUOUS
10
5.27364
20
-3.65403
11
5.27465
21
-3.65471
0
LINE
8
BLACK
6
CONTINUOUS
10
5.27465
20
-3.65471
11
5.27665
21
-3.65699
0
LINE
8
BLACK
6
CONTINUOUS
10
5.27665
20
-3.65699
11
5.27724
21
-3.65997
0
LINE
8
BLACK
6
CONTINUOUS
10
5.27724
20
-3.65997
11
5.27627
21
-3.66284
0
LINE
8
BLACK
6
CONTINUOUS
10
5.27627
20
-3.66284
11
5.27554
21
-3.66373
0
LINE
8
BLACK
6
CONTINUOUS
10
5.27554
20
-3.66373
11
5.27356
21
-3.66571
0
LINE
8
BLACK
6
CONTINUOUS
10
5.27356
20
-3.66571
11
5.27356
21
-3.66571
0
LINE
8
BLACK
6
CONTINUOUS
10
5.27356
20
-3.66571
11
5.27286
21
-3.66651
0
LINE
8
BLACK
6
CONTINUOUS
10
5.27286
20
-3.66651
11
5.27268
21
-3.66671
0
LINE
8
BLACK
6
CONTINUOUS
10
5.27268
20
-3.66671
11
5.27092
21
-3.67029
0
LINE
8
BLACK
6
CONTINUOUS
10
5.27092
20
-3.67029
11
5.27092
21
-3.67029
0
LINE
8
BLACK
6
CONTINUOUS
10
5.27092
20
-3.67029
11
5.27013
21
-3.67322
0
LINE
8
BLACK
6
CONTINUOUS
10
5.27013
20
-3.67322
11
5.27013
21
-3.67322
0
LINE
8
BLACK
6
CONTINUOUS
10
5.27013
20
-3.67322
11
5.26978
21
-3.67587
0
LINE
8
BLACK
6
CONTINUOUS
10
5.26978
20
-3.67587
11
5.26978
21
-3.69413
0
LINE
8
BLACK
6
CONTINUOUS
10
5.26978
20
-3.69413
11
5.27013
21
-3.69678
0
LINE
8
BLACK
6
CONTINUOUS
10
5.27013
20
-3.69678
11
5.27013
21
-3.69678
0
LINE
8
BLACK
6
CONTINUOUS
10
5.27013
20
-3.69678
11
5.27092
21
-3.69971
0
LINE
8
BLACK
6
CONTINUOUS
10
5.27092
20
-3.69971
11
5.27092
21
-3.69971
0
LINE
8
BLACK
6
CONTINUOUS
10
5.27092
20
-3.69971
11
5.27135
21
-3.70098
0
LINE
8
BLACK
6
CONTINUOUS
10
5.27135
20
-3.70098
11
5.27135
21
-3.70098
0
LINE
8
BLACK
6
CONTINUOUS
10
5.27135
20
-3.70098
11
5.27135
21
-3.70098
0
LINE
8
BLACK
6
CONTINUOUS
10
5.27135
20
-3.70098
11
5.27356
21
-3.70429
0
LINE
8
BLACK
6
CONTINUOUS
10
5.27356
20
-3.70429
11
5.27356
21
-3.70429
0
LINE
8
BLACK
6
CONTINUOUS
10
5.27356
20
-3.70429
11
5.27554
21
-3.70627
0
LINE
8
BLACK
6
CONTINUOUS
10
5.27554
20
-3.70627
11
5.27706
21
-3.7089
0
LINE
8
BLACK
6
CONTINUOUS
10
5.27706
20
-3.7089
11
5.27706
21
-3.71193
0
LINE
8
BLACK
6
CONTINUOUS
10
5.27706
20
-3.71193
11
5.27554
21
-3.71456
0
LINE
8
BLACK
6
CONTINUOUS
10
5.27554
20
-3.71456
11
5.27465
21
-3.71529
0
LINE
8
BLACK
6
CONTINUOUS
10
5.27465
20
-3.71529
11
5.27364
21
-3.71597
0
LINE
8
BLACK
6
CONTINUOUS
10
5.27364
20
-3.71597
11
5.27364
21
-3.71597
0
LINE
8
BLACK
6
CONTINUOUS
10
5.27364
20
-3.71597
11
5.27143
21
-3.71928
0
LINE
8
BLACK
6
CONTINUOUS
10
5.27143
20
-3.71928
11
5.27085
21
-3.7222
0
LINE
8
BLACK
6
CONTINUOUS
10
5.27085
20
-3.7222
11
5.27085
21
-3.7478
0
LINE
8
BLACK
6
CONTINUOUS
10
5.27085
20
-3.7478
11
5.27143
21
-3.75072
0
LINE
8
BLACK
6
CONTINUOUS
10
5.27143
20
-3.75072
11
5.27364
21
-3.75403
0
LINE
8
BLACK
6
CONTINUOUS
10
5.27364
20
-3.75403
11
5.27364
21
-3.75403
0
LINE
8
BLACK
6
CONTINUOUS
10
5.27364
20
-3.75403
11
5.27527
21
-3.75512
0
LINE
8
BLACK
6
CONTINUOUS
10
5.27527
20
-3.75512
11
5.27727
21
-3.75741
0
LINE
8
BLACK
6
CONTINUOUS
10
5.27727
20
-3.75741
11
5.27786
21
-3.76038
0
LINE
8
BLACK
6
CONTINUOUS
10
5.27786
20
-3.76038
11
5.27689
21
-3.76326
0
LINE
8
BLACK
6
CONTINUOUS
10
5.27689
20
-3.76326
11
5.27527
21
-3.76488
0
LINE
8
BLACK
6
CONTINUOUS
10
5.27527
20
-3.76488
11
5.27364
21
-3.76597
0
LINE
8
BLACK
6
CONTINUOUS
10
5.27364
20
-3.76597
11
5.27364
21
-3.76597
0
LINE
8
BLACK
6
CONTINUOUS
10
5.27364
20
-3.76597
11
5.27143
21
-3.76928
0
LINE
8
BLACK
6
CONTINUOUS
10
5.27143
20
-3.76928
11
5.27085
21
-3.7722
0
LINE
8
BLACK
6
CONTINUOUS
10
5.27085
20
-3.7722
11
5.27085
21
-3.7978
0
LINE
8
BLACK
6
CONTINUOUS
10
5.27085
20
-3.7978
11
5.27143
21
-3.80072
0
LINE
8
BLACK
6
CONTINUOUS
10
5.27143
20
-3.80072
11
5.27364
21
-3.80403
0
LINE
8
BLACK
6
CONTINUOUS
10
5.27364
20
-3.80403
11
5.27364
21
-3.80403
0
LINE
8
BLACK
6
CONTINUOUS
10
5.27364
20
-3.80403
11
5.27696
21
-3.80625
0
LINE
8
BLACK
6
CONTINUOUS
10
5.27696
20
-3.80625
11
5.27696
21
-3.80625
0
LINE
8
BLACK
6
CONTINUOUS
10
5.27696
20
-3.80625
11
5.27988
21
-3.80683
0
LINE
8
BLACK
6
CONTINUOUS
10
5.27988
20
-3.80683
11
5.29167
21
-3.80683
0
LINE
8
BLACK
6
CONTINUOUS
10
5.29167
20
-3.80683
11
5.29461
21
-3.80762
0
LINE
8
BLACK
6
CONTINUOUS
10
5.29461
20
-3.80762
11
5.29675
21
-3.80976
0
LINE
8
BLACK
6
CONTINUOUS
10
5.29675
20
-3.80976
11
5.29754
21
-3.8127
0
LINE
8
BLACK
6
CONTINUOUS
10
5.29754
20
-3.8127
11
5.29754
21
-3.83164
0
LINE
8
BLACK
6
CONTINUOUS
10
5.29754
20
-3.83164
11
5.29675
21
-3.83457
0
LINE
8
BLACK
6
CONTINUOUS
10
5.29675
20
-3.83457
11
5.29493
21
-3.83652
0
LINE
8
BLACK
6
CONTINUOUS
10
5.29493
20
-3.83652
11
5.29246
21
-3.83817
0
LINE
8
BLACK
6
CONTINUOUS
10
5.29246
20
-3.83817
11
5.29246
21
-3.83817
0
LINE
8
BLACK
6
CONTINUOUS
10
5.29246
20
-3.83817
11
5.29025
21
-3.84148
0
LINE
8
BLACK
6
CONTINUOUS
10
5.29025
20
-3.84148
11
5.28967
21
-3.84441
0
LINE
8
BLACK
6
CONTINUOUS
10
5.28967
20
-3.84441
11
5.28967
21
-3.89559
0
LINE
8
BLACK
6
CONTINUOUS
10
5.28967
20
-3.89559
11
5.29025
21
-3.89852
0
LINE
8
BLACK
6
CONTINUOUS
10
5.29025
20
-3.89852
11
5.29246
21
-3.90183
0
LINE
8
BLACK
6
CONTINUOUS
10
5.29246
20
-3.90183
11
5.29246
21
-3.90183
0
LINE
8
BLACK
6
CONTINUOUS
10
5.29246
20
-3.90183
11
5.29578
21
-3.90404
0
LINE
8
BLACK
6
CONTINUOUS
10
5.29578
20
-3.90404
11
5.29578
21
-3.90404
0
LINE
8
BLACK
6
CONTINUOUS
10
5.29578
20
-3.90404
11
5.2987
21
-3.90463
0
LINE
8
BLACK
6
CONTINUOUS
10
5.2987
20
-3.90463
11
5.34004
21
-3.90463
0
LINE
8
BLACK
6
CONTINUOUS
10
5.34004
20
-3.90463
11
5.34296
21
-3.90404
0
LINE
8
BLACK
6
CONTINUOUS
10
5.34296
20
-3.90404
11
5.34628
21
-3.90183
0
LINE
8
BLACK
6
CONTINUOUS
10
5.34628
20
-3.90183
11
5.34849
21
-3.89852
0
LINE
8
BLACK
6
CONTINUOUS
10
5.34849
20
-3.89852
11
5.34907
21
-3.89559
0
LINE
8
BLACK
6
CONTINUOUS
10
5.34907
20
-3.89559
11
5.34907
21
-3.84441
0
LINE
8
BLACK
6
CONTINUOUS
10
5.34907
20
-3.84441
11
5.34849
21
-3.84148
0
LINE
8
BLACK
6
CONTINUOUS
10
5.34849
20
-3.84148
11
5.34628
21
-3.83817
0
LINE
8
BLACK
6
CONTINUOUS
10
5.34628
20
-3.83817
11
5.34628
21
-3.83817
0
LINE
8
BLACK
6
CONTINUOUS
10
5.34628
20
-3.83817
11
5.34381
21
-3.83652
0
LINE
8
BLACK
6
CONTINUOUS
10
5.34381
20
-3.83652
11
5.34181
21
-3.83424
0
LINE
8
BLACK
6
CONTINUOUS
10
5.34181
20
-3.83424
11
5.3412
21
-3.83164
0
LINE
8
BLACK
6
CONTINUOUS
10
5.3412
20
-3.83164
11
5.3412
21
-3.8127
0
LINE
8
BLACK
6
CONTINUOUS
10
5.3412
20
-3.8127
11
5.34199
21
-3.80976
0
LINE
8
BLACK
6
CONTINUOUS
10
5.34199
20
-3.80976
11
5.34413
21
-3.80762
0
LINE
8
BLACK
6
CONTINUOUS
10
5.34413
20
-3.80762
11
5.34707
21
-3.80683
0
LINE
8
BLACK
6
CONTINUOUS
10
5.34707
20
-3.80683
11
5.3665
21
-3.80683
0
LINE
8
BLACK
6
CONTINUOUS
10
5.3665
20
-3.80683
11
5.3665
21
-3.80683
0
LINE
8
BLACK
6
CONTINUOUS
10
5.3665
20
-3.80683
11
5.3665
21
-3.80683
0
LINE
8
BLACK
6
CONTINUOUS
10
5.3665
20
-3.80683
11
5.36673
21
-3.80681
0
LINE
8
BLACK
6
CONTINUOUS
10
5.36673
20
-3.80681
11
5.36972
21
-3.8073
0
LINE
8
BLACK
6
CONTINUOUS
10
5.36972
20
-3.8073
11
5.37207
21
-3.80923
0
LINE
8
BLACK
6
CONTINUOUS
10
5.37207
20
-3.80923
11
5.37314
21
-3.81207
0
LINE
8
BLACK
6
CONTINUOUS
10
5.37314
20
-3.81207
11
5.37317
21
-3.81265
0
LINE
8
BLACK
6
CONTINUOUS
10
5.37317
20
-3.81265
11
5.37317
21
-3.95853
0
LINE
8
BLACK
6
CONTINUOUS
10
5.37317
20
-3.95853
11
5.37238
21
-3.96146
0
LINE
8
BLACK
6
CONTINUOUS
10
5.37238
20
-3.96146
11
5.37145
21
-3.96268
0
LINE
8
BLACK
6
CONTINUOUS
10
5.37145
20
-3.96268
11
5.36268
21
-3.97145
0
LINE
8
BLACK
6
CONTINUOUS
10
5.36268
20
-3.97145
11
5.36005
21
-3.97297
0
LINE
8
BLACK
6
CONTINUOUS
10
5.36005
20
-3.97297
11
5.35853
21
-3.97317
0
LINE
8
BLACK
6
CONTINUOUS
10
5.35853
20
-3.97317
11
5.19489
21
-3.97317
0
LINE
8
BLACK
6
CONTINUOUS
10
5.19489
20
-3.97317
11
5.19195
21
-3.97238
0
LINE
8
BLACK
6
CONTINUOUS
10
5.19195
20
-3.97238
11
5.18981
21
-3.97024
0
LINE
8
BLACK
6
CONTINUOUS
10
5.18981
20
-3.97024
11
5.18902
21
-3.9673
0
LINE
8
BLACK
6
CONTINUOUS
10
5.18902
20
-3.9673
11
5.18902
21
-3.95001
0
LINE
8
BLACK
6
CONTINUOUS
10
5.18902
20
-3.95001
11
5.18902
21
-3.95001
0
LINE
8
BLACK
6
CONTINUOUS
10
5.18902
20
-3.95001
11
5.18844
21
-3.94709
0
LINE
8
BLACK
6
CONTINUOUS
10
5.18844
20
-3.94709
11
5.18622
21
-3.94378
0
LINE
8
BLACK
6
CONTINUOUS
10
5.18622
20
-3.94378
11
5.18622
21
-3.94378
0
LINE
8
BLACK
6
CONTINUOUS
10
5.18622
20
-3.94378
11
5.18622
21
-3.94378
0
LINE
8
BLACK
6
CONTINUOUS
10
5.18622
20
-3.94378
11
5.18291
21
-3.94156
0
LINE
8
BLACK
6
CONTINUOUS
10
5.18291
20
-3.94156
11
5.17999
21
-3.94098
0
LINE
8
BLACK
6
CONTINUOUS
10
5.17999
20
-3.94098
11
5.09001
21
-3.94098
0
LINE
8
BLACK
6
CONTINUOUS
10
5.09001
20
-3.94098
11
5.08709
21
-3.94156
0
LINE
8
BLACK
6
CONTINUOUS
10
5.08709
20
-3.94156
11
5.08378
21
-3.94378
0
LINE
8
BLACK
6
CONTINUOUS
10
5.08378
20
-3.94378
11
5.08378
21
-3.94378
0
LINE
8
BLACK
6
CONTINUOUS
10
5.08378
20
-3.94378
11
5.08156
21
-3.94709
0
LINE
8
BLACK
6
CONTINUOUS
10
5.08156
20
-3.94709
11
5.08098
21
-3.95001
0
LINE
8
BLACK
6
CONTINUOUS
10
5.08098
20
-3.95001
11
5.08098
21
-4.03999
0
LINE
8
BLACK
6
CONTINUOUS
10
5.08098
20
-4.03999
11
5.08156
21
-4.04291
0
LINE
8
BLACK
6
CONTINUOUS
10
5.08156
20
-4.04291
11
5.08378
21
-4.04622
0
LINE
8
BLACK
6
CONTINUOUS
10
5.08378
20
-4.04622
11
5.08378
21
-4.04622
0
LINE
8
BLACK
6
CONTINUOUS
10
5.08378
20
-4.04622
11
5.08709
21
-4.04844
0
LINE
8
BLACK
6
CONTINUOUS
10
5.08709
20
-4.04844
11
5.08709
21
-4.04844
0
LINE
8
BLACK
6
CONTINUOUS
10
5.08709
20
-4.04844
11
5.09001
21
-4.04902
0
LINE
8
BLACK
6
CONTINUOUS
10
5.09001
20
-4.04902
11
5.17999
21
-4.04902
0
LINE
8
BLACK
6
CONTINUOUS
10
5.17999
20
-4.04902
11
5.18291
21
-4.04844
0
LINE
8
BLACK
6
CONTINUOUS
10
5.18291
20
-4.04844
11
5.18622
21
-4.04622
0
LINE
8
BLACK
6
CONTINUOUS
10
5.18622
20
-4.04622
11
5.18844
21
-4.04291
0
LINE
8
BLACK
6
CONTINUOUS
10
5.18844
20
-4.04291
11
5.18902
21
-4.03999
0
LINE
8
BLACK
6
CONTINUOUS
10
5.18902
20
-4.03999
11
5.18902
21
-4.0227
0
LINE
8
BLACK
6
CONTINUOUS
10
5.18902
20
-4.0227
11
5.18981
21
-4.01976
0
LINE
8
BLACK
6
CONTINUOUS
10
5.18981
20
-4.01976
11
5.19195
21
-4.01762
0
LINE
8
BLACK
6
CONTINUOUS
10
5.19195
20
-4.01762
11
5.19489
21
-4.01683
0
LINE
8
BLACK
6
CONTINUOUS
10
5.19489
20
-4.01683
11
5.36963
21
-4.01683
0
LINE
8
BLACK
6
CONTINUOUS
10
5.36963
20
-4.01683
11
5.37225
21
-4.01692
0
LINE
8
BLACK
6
CONTINUOUS
10
5.37225
20
-4.01692
11
5.37394
21
-4.01651
0
LINE
8
BLACK
6
CONTINUOUS
10
5.37394
20
-4.01651
11
5.37423
21
-4.01645
0
LINE
8
BLACK
6
CONTINUOUS
10
5.37423
20
-4.01645
11
5.37595
21
-4.01622
0
LINE
8
BLACK
6
CONTINUOUS
10
5.37595
20
-4.01622
11
5.37652
21
-4.01597
0
LINE
8
BLACK
6
CONTINUOUS
10
5.37652
20
-4.01597
11
5.37747
21
-4.01565
0
LINE
8
BLACK
6
CONTINUOUS
10
5.37747
20
-4.01565
11
5.37808
21
-4.0155
0
LINE
8
BLACK
6
CONTINUOUS
10
5.37808
20
-4.0155
11
5.37959
21
-4.01465
0
LINE
8
BLACK
6
CONTINUOUS
10
5.37959
20
-4.01465
11
5.37986
21
-4.01452
0
LINE
8
BLACK
6
CONTINUOUS
10
5.37986
20
-4.01452
11
5.38145
21
-4.01383
0
LINE
8
BLACK
6
CONTINUOUS
10
5.38145
20
-4.01383
11
5.38194
21
-4.01343
0
LINE
8
BLACK
6
CONTINUOUS
10
5.38194
20
-4.01343
11
5.38277
21
-4.01287
0
LINE
8
BLACK
6
CONTINUOUS
10
5.38277
20
-4.01287
11
5.38331
21
-4.01256
0
LINE
8
BLACK
6
CONTINUOUS
10
5.38331
20
-4.01256
11
5.38454
21
-4.01133
0
LINE
8
BLACK
6
CONTINUOUS
10
5.38454
20
-4.01133
11
5.38476
21
-4.01113
0
LINE
8
BLACK
6
CONTINUOUS
10
5.38476
20
-4.01113
11
5.3861
21
-4.01004
0
LINE
8
BLACK
6
CONTINUOUS
10
5.3861
20
-4.01004
11
5.38647
21
-4.00953
0
LINE
8
BLACK
6
CONTINUOUS
10
5.38647
20
-4.00953
11
5.38711
21
-4.00876
0
LINE
8
BLACK
6
CONTINUOUS
10
5.38711
20
-4.00876
11
5.39864
21
-3.99723
0
LINE
8
BLACK
6
CONTINUOUS
10
5.39864
20
-3.99723
11
5.41017
21
-3.9857
0
LINE
8
BLACK
6
CONTINUOUS
10
5.41017
20
-3.9857
11
5.41124
21
-3.9847
0
LINE
8
BLACK
6
CONTINUOUS
10
5.41124
20
-3.9847
11
5.41209
21
-3.98391
0
LINE
8
BLACK
6
CONTINUOUS
10
5.41209
20
-3.98391
11
5.41299
21
-3.98243
0
LINE
8
BLACK
6
CONTINUOUS
10
5.41299
20
-3.98243
11
5.41316
21
-3.98218
0
LINE
8
BLACK
6
CONTINUOUS
10
5.41316
20
-3.98218
11
5.41421
21
-3.9808
0
LINE
8
BLACK
6
CONTINUOUS
10
5.41421
20
-3.9808
11
5.41444
21
-3.98021
0
LINE
8
BLACK
6
CONTINUOUS
10
5.41444
20
-3.98021
11
5.41488
21
-3.97932
0
LINE
8
BLACK
6
CONTINUOUS
10
5.41488
20
-3.97932
11
5.41521
21
-3.97878
0
LINE
8
BLACK
6
CONTINUOUS
10
5.41521
20
-3.97878
11
5.41568
21
-3.97711
0
LINE
8
BLACK
6
CONTINUOUS
10
5.41568
20
-3.97711
11
5.41577
21
-3.97683
0
LINE
8
BLACK
6
CONTINUOUS
10
5.41577
20
-3.97683
11
5.41641
21
-3.97522
0
LINE
8
BLACK
6
CONTINUOUS
10
5.41641
20
-3.97522
11
5.41647
21
-3.97459
0
LINE
8
BLACK
6
CONTINUOUS
10
5.41647
20
-3.97459
11
5.41666
21
-3.97361
0
LINE
8
BLACK
6
CONTINUOUS
10
5.41666
20
-3.97361
11
5.41683
21
-3.973
0
LINE
8
BLACK
6
CONTINUOUS
10
5.41683
20
-3.973
11
5.41683
21
-3.97127
0
LINE
8
BLACK
6
CONTINUOUS
10
5.41683
20
-3.97127
11
5.41685
21
-3.97097
0
LINE
8
BLACK
6
CONTINUOUS
10
5.41685
20
-3.97097
11
5.41689
21
-3.97056
0
LINE
8
BLACK
6
CONTINUOUS
10
5.41689
20
-3.97056
11
5.41702
21
-3.96925
0
LINE
8
BLACK
6
CONTINUOUS
10
5.41702
20
-3.96925
11
5.41692
21
-3.96863
0
LINE
8
BLACK
6
CONTINUOUS
10
5.41692
20
-3.96863
11
5.41683
21
-3.96763
0
LINE
8
BLACK
6
CONTINUOUS
10
5.41683
20
-3.96763
11
5.41683
21
-3.92107
0
LINE
8
BLACK
6
CONTINUOUS
10
5.41683
20
-3.92107
11
5.41762
21
-3.91814
0
LINE
8
BLACK
6
CONTINUOUS
10
5.41762
20
-3.91814
11
5.41976
21
-3.91599
0
LINE
8
BLACK
6
CONTINUOUS
10
5.41976
20
-3.91599
11
5.4227
21
-3.91521
0
LINE
8
BLACK
6
CONTINUOUS
10
5.4227
20
-3.91521
11
5.42563
21
-3.91599
0
LINE
8
BLACK
6
CONTINUOUS
10
5.42563
20
-3.91599
11
5.42757
21
-3.91781
0
LINE
8
BLACK
6
CONTINUOUS
10
5.42757
20
-3.91781
11
5.42856
21
-3.91929
0
LINE
8
BLACK
6
CONTINUOUS
10
5.42856
20
-3.91929
11
5.42856
21
-3.91929
0
LINE
8
BLACK
6
CONTINUOUS
10
5.42856
20
-3.91929
11
5.43071
21
-3.92144
0
LINE
8
BLACK
6
CONTINUOUS
10
5.43071
20
-3.92144
11
5.43071
21
-3.92144
0
LINE
8
BLACK
6
CONTINUOUS
10
5.43071
20
-3.92144
11
5.43071
21
-3.92144
0
LINE
8
BLACK
6
CONTINUOUS
10
5.43071
20
-3.92144
11
5.43147
21
-3.92211
0
LINE
8
BLACK
6
CONTINUOUS
10
5.43147
20
-3.92211
11
5.43175
21
-3.92243
0
LINE
8
BLACK
6
CONTINUOUS
10
5.43175
20
-3.92243
11
5.43178
21
-3.92241
0
LINE
8
BLACK
6
CONTINUOUS
10
5.43178
20
-3.92241
11
5.43219
21
-3.92281
0
LINE
8
BLACK
6
CONTINUOUS
10
5.43219
20
-3.92281
11
5.43219
21
-3.92281
0
LINE
8
BLACK
6
CONTINUOUS
10
5.43219
20
-3.92281
11
5.43219
21
-3.92281
0
LINE
8
BLACK
6
CONTINUOUS
10
5.43219
20
-3.92281
11
5.4355
21
-3.92503
0
LINE
8
BLACK
6
CONTINUOUS
10
5.4355
20
-3.92503
11
5.43842
21
-3.92561
0
LINE
8
BLACK
6
CONTINUOUS
10
5.43842
20
-3.92561
11
5.49158
21
-3.92561
0
LINE
8
BLACK
6
CONTINUOUS
10
5.49158
20
-3.92561
11
5.49268
21
-3.92539
0
LINE
8
BLACK
6
CONTINUOUS
10
5.49268
20
-3.92539
11
5.49299
21
-3.92533
0
LINE
8
BLACK
6
CONTINUOUS
10
5.49299
20
-3.92533
11
5.49413
21
-3.92522
0
LINE
8
BLACK
6
CONTINUOUS
10
5.49413
20
-3.92522
11
5.5229
21
-3.92522
0
LINE
8
BLACK
6
CONTINUOUS
10
5.5229
20
-3.92522
11
5.52357
21
-3.92517
0
LINE
8
BLACK
6
CONTINUOUS
10
5.52357
20
-3.92517
11
5.52467
21
-3.92503
0
LINE
8
BLACK
6
CONTINUOUS
10
5.52467
20
-3.92503
11
5.52542
21
-3.92493
0
LINE
8
BLACK
6
CONTINUOUS
10
5.52542
20
-3.92493
11
5.5292
21
-3.92365
0
LINE
8
BLACK
6
CONTINUOUS
10
5.5292
20
-3.92365
11
5.53183
21
-3.92213
0
LINE
8
BLACK
6
CONTINUOUS
10
5.53183
20
-3.92213
11
5.53394
21
-3.92051
0
LINE
8
BLACK
6
CONTINUOUS
10
5.53394
20
-3.92051
11
5.56074
21
-3.89371
0
LINE
8
BLACK
6
CONTINUOUS
10
5.56074
20
-3.89371
11
5.56118
21
-3.8932
0
LINE
8
BLACK
6
CONTINUOUS
10
5.56118
20
-3.8932
11
5.56118
21
-3.8932
0
LINE
8
BLACK
6
CONTINUOUS
10
5.56118
20
-3.8932
11
5.56118
21
-3.8932
0
LINE
8
BLACK
6
CONTINUOUS
10
5.56118
20
-3.8932
11
5.56118
21
-3.8932
0
LINE
8
BLACK
6
CONTINUOUS
10
5.56118
20
-3.8932
11
5.5622
21
-3.89187
0
LINE
8
BLACK
6
CONTINUOUS
10
5.5622
20
-3.89187
11
5.56224
21
-3.89183
0
LINE
8
BLACK
6
CONTINUOUS
10
5.56224
20
-3.89183
11
5.56232
21
-3.89172
0
LINE
8
BLACK
6
CONTINUOUS
10
5.56232
20
-3.89172
11
5.56232
21
-3.89172
0
LINE
8
BLACK
6
CONTINUOUS
10
5.56232
20
-3.89172
11
5.56232
21
-3.89172
0
LINE
8
BLACK
6
CONTINUOUS
10
5.56232
20
-3.89172
11
5.56232
21
-3.89172
0
LINE
8
BLACK
6
CONTINUOUS
10
5.56232
20
-3.89172
11
5.56321
21
-3.88991
0
LINE
8
BLACK
6
CONTINUOUS
10
5.56321
20
-3.88991
11
5.56408
21
-3.88815
0
LINE
8
BLACK
6
CONTINUOUS
10
5.56408
20
-3.88815
11
5.56487
21
-3.88521
0
LINE
8
BLACK
6
CONTINUOUS
10
5.56487
20
-3.88521
11
5.56487
21
-3.88521
0
LINE
8
BLACK
6
CONTINUOUS
10
5.56487
20
-3.88521
11
5.56487
21
-3.88521
0
LINE
8
BLACK
6
CONTINUOUS
10
5.56487
20
-3.88521
11
5.56522
21
-3.88257
0
LINE
8
BLACK
6
CONTINUOUS
10
5.56522
20
-3.88257
11
5.56522
21
-3.88257
0
LINE
8
BLACK
6
CONTINUOUS
10
5.56522
20
-3.88257
11
5.56522
21
-3.80666
0
LINE
8
BLACK
6
CONTINUOUS
10
5.56522
20
-3.80666
11
5.566
21
-3.80373
0
LINE
8
BLACK
6
CONTINUOUS
10
5.566
20
-3.80373
11
5.56693
21
-3.80251
0
LINE
8
BLACK
6
CONTINUOUS
10
5.56693
20
-3.80251
11
5.58251
21
-3.78693
0
LINE
8
BLACK
6
CONTINUOUS
10
5.58251
20
-3.78693
11
5.58514
21
-3.78542
0
LINE
8
BLACK
6
CONTINUOUS
10
5.58514
20
-3.78542
11
5.58666
21
-3.78522
0
LINE
8
BLACK
6
CONTINUOUS
10
5.58666
20
-3.78522
11
6.04207
21
-3.78522
0
LINE
8
BLACK
6
CONTINUOUS
10
6.04207
20
-3.78522
11
6.04207
21
-3.78522
0
LINE
8
BLACK
6
CONTINUOUS
10
6.04207
20
-3.78522
11
6.04412
21
-3.78501
0
LINE
8
BLACK
6
CONTINUOUS
10
6.04412
20
-3.78501
11
6.04642
21
-3.78454
0
LINE
8
BLACK
6
CONTINUOUS
10
6.04642
20
-3.78454
11
6.04712
21
-3.78437
0
LINE
8
BLACK
6
CONTINUOUS
10
6.04712
20
-3.78437
11
6.05068
21
-3.78256
0
LINE
8
BLACK
6
CONTINUOUS
10
6.05068
20
-3.78256
11
6.05307
21
-3.78069
0
LINE
8
BLACK
6
CONTINUOUS
10
6.05307
20
-3.78069
11
6.05493
21
-3.77878
0
LINE
8
BLACK
6
CONTINUOUS
10
6.05493
20
-3.77878
11
6.06709
21
-3.76257
0
LINE
8
BLACK
6
CONTINUOUS
10
6.06709
20
-3.76257
11
6.06727
21
-3.76232
0
LINE
8
BLACK
6
CONTINUOUS
10
6.06727
20
-3.76232
11
6.06774
21
-3.76161
0
LINE
8
BLACK
6
CONTINUOUS
10
6.06774
20
-3.76161
11
6.06908
21
-3.75862
0
LINE
8
BLACK
6
CONTINUOUS
10
6.06908
20
-3.75862
11
6.06987
21
-3.75569
0
LINE
8
BLACK
6
CONTINUOUS
10
6.06987
20
-3.75569
11
6.06987
21
-3.75569
0
LINE
8
BLACK
6
CONTINUOUS
10
6.06987
20
-3.75569
11
6.06987
21
-3.75569
0
LINE
8
BLACK
6
CONTINUOUS
10
6.06987
20
-3.75569
11
6.07022
21
-3.75304
0
LINE
8
BLACK
6
CONTINUOUS
10
6.07022
20
-3.75304
11
6.07022
21
-3.75304
0
LINE
8
BLACK
6
CONTINUOUS
10
6.07022
20
-3.75304
11
6.07022
21
-3.6471
0
LINE
8
BLACK
6
CONTINUOUS
10
6.07022
20
-3.6471
11
6.07017
21
-3.64643
0
LINE
8
BLACK
6
CONTINUOUS
10
6.07017
20
-3.64643
11
6.06993
21
-3.64458
0
LINE
8
BLACK
6
CONTINUOUS
10
6.06993
20
-3.64458
11
6.06978
21
-3.64413
0
LINE
8
BLACK
6
CONTINUOUS
10
6.06978
20
-3.64413
11
6.06865
21
-3.6408
0
LINE
8
BLACK
6
CONTINUOUS
10
6.06865
20
-3.6408
11
6.06713
21
-3.63817
0
LINE
8
BLACK
6
CONTINUOUS
10
6.06713
20
-3.63817
11
6.06551
21
-3.63606
0
LINE
8
BLACK
6
CONTINUOUS
10
6.06551
20
-3.63606
11
6.05264
21
-3.6232
0
LINE
8
BLACK
6
CONTINUOUS
10
6.05264
20
-3.6232
11
6.05137
21
-3.62129
0
LINE
8
BLACK
6
CONTINUOUS
10
6.05137
20
-3.62129
11
6.05129
21
-3.62109
0
LINE
8
BLACK
6
CONTINUOUS
10
6.05129
20
-3.62109
11
6.05054
21
-3.61997
0
LINE
8
BLACK
6
CONTINUOUS
10
6.05054
20
-3.61997
11
6.04907
21
-3.61778
0
LINE
8
BLACK
6
CONTINUOUS
10
6.04907
20
-3.61778
11
6.04907
21
-3.61778
0
LINE
8
BLACK
6
CONTINUOUS
10
6.04907
20
-3.61778
11
6.04907
21
-3.61778
0
LINE
8
BLACK
6
CONTINUOUS
10
6.04907
20
-3.61778
11
6.04576
21
-3.61556
0
LINE
8
BLACK
6
CONTINUOUS
10
6.04576
20
-3.61556
11
6.04284
21
-3.61498
0
LINE
8
BLACK
6
CONTINUOUS
10
6.04284
20
-3.61498
11
6.03926
21
-3.61498
0
LINE
8
BLACK
6
CONTINUOUS
10
6.03926
20
-3.61498
11
6.03887
21
-3.61496
0
LINE
8
BLACK
6
CONTINUOUS
10
6.03887
20
-3.61496
11
6.0379
21
-3.61483
0
LINE
8
BLACK
6
CONTINUOUS
10
6.0379
20
-3.61483
11
6.03757
21
-3.61478
0
LINE
8
BLACK
6
CONTINUOUS
10
6.03757
20
-3.61478
11
6.03757
21
-3.61478
0
LINE
8
BLACK
6
CONTINUOUS
10
6.03757
20
-3.61478
11
5.67176
21
-3.61478
0
LINE
8
BLACK
6
CONTINUOUS
10
5.67176
20
-3.61478
11
5.67062
21
-3.61467
0
LINE
8
BLACK
6
CONTINUOUS
10
5.67062
20
-3.61467
11
5.67059
21
-3.61467
0
LINE
8
BLACK
6
CONTINUOUS
10
5.67059
20
-3.61467
11
5.61941
21
-3.61467
0
LINE
8
BLACK
6
CONTINUOUS
10
5.61941
20
-3.61467
11
5.61938
21
-3.61467
0
LINE
8
BLACK
6
CONTINUOUS
10
5.61938
20
-3.61467
11
5.61938
21
-3.61467
0
LINE
8
BLACK
6
CONTINUOUS
10
5.61938
20
-3.61467
11
5.61824
21
-3.61478
0
LINE
8
BLACK
6
CONTINUOUS
10
5.61824
20
-3.61478
11
5.59676
21
-3.61478
0
LINE
8
BLACK
6
CONTINUOUS
10
5.59676
20
-3.61478
11
5.59562
21
-3.61467
0
LINE
8
BLACK
6
CONTINUOUS
10
5.59562
20
-3.61467
11
5.59559
21
-3.61467
0
LINE
8
BLACK
6
CONTINUOUS
10
5.59559
20
-3.61467
11
5.54441
21
-3.61467
0
LINE
8
BLACK
6
CONTINUOUS
10
5.54441
20
-3.61467
11
5.54438
21
-3.61467
0
LINE
8
BLACK
6
CONTINUOUS
10
5.54438
20
-3.61467
11
5.54438
21
-3.61467
0
LINE
8
BLACK
6
CONTINUOUS
10
5.54438
20
-3.61467
11
5.54324
21
-3.61478
0
LINE
8
BLACK
6
CONTINUOUS
10
5.54324
20
-3.61478
11
5.4171
21
-3.61478
0
LINE
8
BLACK
6
CONTINUOUS
10
5.4171
20
-3.61478
11
5.41643
21
-3.61483
0
LINE
8
BLACK
6
CONTINUOUS
10
5.41643
20
-3.61483
11
5.41458
21
-3.61507
0
LINE
8
BLACK
6
CONTINUOUS
10
5.41458
20
-3.61507
11
5.4108
21
-3.61635
0
LINE
8
BLACK
6
CONTINUOUS
10
5.4108
20
-3.61635
11
5.40817
21
-3.61787
0
LINE
8
BLACK
6
CONTINUOUS
10
5.40817
20
-3.61787
11
5.40817
21
-3.61787
0
LINE
8
BLACK
6
CONTINUOUS
10
5.40817
20
-3.61787
11
5.40606
21
-3.61949
0
LINE
8
BLACK
6
CONTINUOUS
10
5.40606
20
-3.61949
11
5.38555
21
-3.64001
0
LINE
8
BLACK
6
CONTINUOUS
10
5.38555
20
-3.64001
11
5.38292
21
-3.64152
0
LINE
8
BLACK
6
CONTINUOUS
10
5.38292
20
-3.64152
11
5.37988
21
-3.64152
0
LINE
8
BLACK
6
CONTINUOUS
10
5.37988
20
-3.64152
11
5.37725
21
-3.64001
0
LINE
8
BLACK
6
CONTINUOUS
10
5.37725
20
-3.64001
11
5.37573
21
-3.63738
0
LINE
8
BLACK
6
CONTINUOUS
10
5.37573
20
-3.63738
11
5.37553
21
-3.63586
0
LINE
8
BLACK
6
CONTINUOUS
10
5.37553
20
-3.63586
11
5.37553
21
-3.6222
0
LINE
8
BLACK
6
CONTINUOUS
10
5.37553
20
-3.6222
11
5.37495
21
-3.61928
0
LINE
8
BLACK
6
CONTINUOUS
10
5.37495
20
-3.61928
11
5.37274
21
-3.61597
0
LINE
8
BLACK
6
CONTINUOUS
10
5.37274
20
-3.61597
11
5.37274
21
-3.61597
0
LINE
8
BLACK
6
CONTINUOUS
10
5.37274
20
-3.61597
11
5.37274
21
-3.61597
0
LINE
8
BLACK
6
CONTINUOUS
10
5.37274
20
-3.61597
11
5.36942
21
-3.61375
0
LINE
8
BLACK
6
CONTINUOUS
10
5.36942
20
-3.61375
11
5.3665
21
-3.61317
0
LINE
8
BLACK
6
CONTINUOUS
10
5.3665
20
-3.61317
11
5.34498
21
-3.61317
0
LINE
8
BLACK
6
CONTINUOUS
10
5.34498
20
-3.61317
11
5.34205
21
-3.61238
0
LINE
8
BLACK
6
CONTINUOUS
10
5.34205
20
-3.61238
11
5.3399
21
-3.61024
0
LINE
8
BLACK
6
CONTINUOUS
10
5.3399
20
-3.61024
11
5.33911
21
-3.6073
0
LINE
8
BLACK
6
CONTINUOUS
10
5.33911
20
-3.6073
11
5.33911
21
-3.60567
0
LINE
8
BLACK
6
CONTINUOUS
10
5.33911
20
-3.60567
11
5.33909
21
-3.60559
0
LINE
8
BLACK
6
CONTINUOUS
10
5.33909
20
-3.60559
11
5.33886
21
-3.6049
0
LINE
8
BLACK
6
CONTINUOUS
10
5.33886
20
-3.6049
11
5.33865
21
-3.604
0
LINE
8
BLACK
6
CONTINUOUS
10
5.33865
20
-3.604
11
5.33852
21
-3.60321
0
LINE
8
BLACK
6
CONTINUOUS
10
5.33852
20
-3.60321
11
5.33816
21
-3.60249
0
LINE
8
BLACK
6
CONTINUOUS
10
5.33816
20
-3.60249
11
5.3378
21
-3.60164
0
LINE
8
BLACK
6
CONTINUOUS
10
5.3378
20
-3.60164
11
5.33756
21
-3.60087
0
LINE
8
BLACK
6
CONTINUOUS
10
5.33756
20
-3.60087
11
5.33708
21
-3.60022
0
LINE
8
BLACK
6
CONTINUOUS
10
5.33708
20
-3.60022
11
5.3366
21
-3.59943
0
LINE
8
BLACK
6
CONTINUOUS
10
5.3366
20
-3.59943
11
5.33623
21
-3.59871
0
LINE
8
BLACK
6
CONTINUOUS
10
5.33623
20
-3.59871
11
5.33534
21
-3.59781
0
LINE
8
BLACK
6
CONTINUOUS
10
5.33534
20
-3.59781
11
5.33534
21
-3.59781
0
LINE
8
BLACK
6
CONTINUOUS
10
5.33534
20
-3.59781
11
5.31835
21
-3.58083
0
LINE
8
BLACK
6
CONTINUOUS
10
5.31835
20
-3.58083
11
5.31683
21
-3.5782
0
LINE
8
BLACK
6
CONTINUOUS
10
5.31683
20
-3.5782
11
5.31668
21
-3.57745
0
LINE
8
BLACK
6
CONTINUOUS
10
5.31668
20
-3.57745
11
5.31627
21
-3.5743
0
LINE
8
BLACK
6
CONTINUOUS
10
5.31627
20
-3.5743
11
5.31407
21
-3.56899
0
LINE
8
BLACK
6
CONTINUOUS
10
5.31407
20
-3.56899
11
5.31407
21
-3.56899
0
LINE
8
BLACK
6
CONTINUOUS
10
5.31407
20
-3.56899
11
5.31057
21
-3.56443
0
LINE
8
BLACK
6
CONTINUOUS
10
5.31057
20
-3.56443
11
5.30601
21
-3.56093
0
LINE
8
BLACK
6
CONTINUOUS
10
5.30601
20
-3.56093
11
5.30601
21
-3.56093
0
LINE
8
BLACK
6
CONTINUOUS
10
5.30601
20
-3.56093
11
5.3007
21
-3.55873
0
LINE
8
BLACK
6
CONTINUOUS
10
5.3007
20
-3.55873
11
5.295
21
-3.55798
0
LINE
8
BLACK
6
CONTINUOUS
10
5.295
20
-3.55798
11
5.295
21
-3.55798
0
LINE
8
BLACK
6
CONTINUOUS
10
5.295
20
-3.55798
11
5.2893
21
-3.55873
0
LINE
8
BLACK
6
CONTINUOUS
10
4.7436
20
-3.78158
11
4.74418
21
-3.7845
0
LINE
8
BLACK
6
CONTINUOUS
10
4.74418
20
-3.7845
11
4.74452
21
-3.78501
0
LINE
8
BLACK
6
CONTINUOUS
10
4.74452
20
-3.78501
11
4.74458
21
-3.7851
0
LINE
8
BLACK
6
CONTINUOUS
10
4.74458
20
-3.7851
11
4.74556
21
-3.78797
0
LINE
8
BLACK
6
CONTINUOUS
10
4.74556
20
-3.78797
11
4.74557
21
-3.78836
0
LINE
8
BLACK
6
CONTINUOUS
10
4.74557
20
-3.78836
11
4.74557
21
-3.81703
0
LINE
8
BLACK
6
CONTINUOUS
10
4.74557
20
-3.81703
11
4.74548
21
-3.81966
0
LINE
8
BLACK
6
CONTINUOUS
10
4.74548
20
-3.81966
11
4.74589
21
-3.82134
0
LINE
8
BLACK
6
CONTINUOUS
10
4.74589
20
-3.82134
11
4.74595
21
-3.82163
0
LINE
8
BLACK
6
CONTINUOUS
10
4.74595
20
-3.82163
11
4.74618
21
-3.82335
0
LINE
8
BLACK
6
CONTINUOUS
10
4.74618
20
-3.82335
11
4.74618
21
-3.82335
0
LINE
8
BLACK
6
CONTINUOUS
10
4.74618
20
-3.82335
11
4.74643
21
-3.82393
0
LINE
8
BLACK
6
CONTINUOUS
10
4.74643
20
-3.82393
11
4.74675
21
-3.82487
0
LINE
8
BLACK
6
CONTINUOUS
10
4.74675
20
-3.82487
11
4.7469
21
-3.82549
0
LINE
8
BLACK
6
CONTINUOUS
10
4.7469
20
-3.82549
11
4.7469
21
-3.82549
0
LINE
8
BLACK
6
CONTINUOUS
10
4.7469
20
-3.82549
11
4.74698
21
-3.82562
0
LINE
8
BLACK
6
CONTINUOUS
10
4.74698
20
-3.82562
11
4.74775
21
-3.82699
0
LINE
8
BLACK
6
CONTINUOUS
10
4.74775
20
-3.82699
11
4.74788
21
-3.82726
0
LINE
8
BLACK
6
CONTINUOUS
10
4.74788
20
-3.82726
11
4.74857
21
-3.82885
0
LINE
8
BLACK
6
CONTINUOUS
10
4.74857
20
-3.82885
11
4.74897
21
-3.82934
0
LINE
8
BLACK
6
CONTINUOUS
10
4.74897
20
-3.82934
11
4.74953
21
-3.83017
0
LINE
8
BLACK
6
CONTINUOUS
10
4.74953
20
-3.83017
11
4.74984
21
-3.83072
0
LINE
8
BLACK
6
CONTINUOUS
10
4.74984
20
-3.83072
11
4.74984
21
-3.83072
0
LINE
8
BLACK
6
CONTINUOUS
10
4.74984
20
-3.83072
11
4.75107
21
-3.83194
0
LINE
8
BLACK
6
CONTINUOUS
10
4.75107
20
-3.83194
11
4.75127
21
-3.83216
0
LINE
8
BLACK
6
CONTINUOUS
10
4.75127
20
-3.83216
11
4.75236
21
-3.83351
0
LINE
8
BLACK
6
CONTINUOUS
10
4.75236
20
-3.83351
11
4.75288
21
-3.83387
0
LINE
8
BLACK
6
CONTINUOUS
10
4.75288
20
-3.83387
11
4.75364
21
-3.83451
0
LINE
8
BLACK
6
CONTINUOUS
10
4.75364
20
-3.83451
11
4.7693
21
-3.85017
0
LINE
8
BLACK
6
CONTINUOUS
10
4.7693
20
-3.85017
11
4.77109
21
-3.85209
0
LINE
8
BLACK
6
CONTINUOUS
10
4.77109
20
-3.85209
11
4.77257
21
-3.85299
0
LINE
8
BLACK
6
CONTINUOUS
10
4.77257
20
-3.85299
11
4.77282
21
-3.85316
0
LINE
8
BLACK
6
CONTINUOUS
10
4.77282
20
-3.85316
11
4.7742
21
-3.85421
0
LINE
8
BLACK
6
CONTINUOUS
10
4.7742
20
-3.85421
11
4.7742
21
-3.85421
0
LINE
8
BLACK
6
CONTINUOUS
10
4.7742
20
-3.85421
11
4.77479
21
-3.85444
0
LINE
8
BLACK
6
CONTINUOUS
10
4.77479
20
-3.85444
11
4.77568
21
-3.85488
0
LINE
8
BLACK
6
CONTINUOUS
10
4.77568
20
-3.85488
11
4.77622
21
-3.85521
0
LINE
8
BLACK
6
CONTINUOUS
10
4.77622
20
-3.85521
11
4.77789
21
-3.85568
0
LINE
8
BLACK
6
CONTINUOUS
10
4.77789
20
-3.85568
11
4.77817
21
-3.85577
0
LINE
8
BLACK
6
CONTINUOUS
10
4.77817
20
-3.85577
11
4.77978
21
-3.85641
0
LINE
8
BLACK
6
CONTINUOUS
10
4.77978
20
-3.85641
11
4.78013
21
-3.85644
0
LINE
8
BLACK
6
CONTINUOUS
10
4.78013
20
-3.85644
11
4.78041
21
-3.85647
0
LINE
8
BLACK
6
CONTINUOUS
10
4.78041
20
-3.85647
11
4.78139
21
-3.85666
0
LINE
8
BLACK
6
CONTINUOUS
10
4.78139
20
-3.85666
11
4.782
21
-3.85683
0
LINE
8
BLACK
6
CONTINUOUS
10
4.782
20
-3.85683
11
4.78373
21
-3.85683
0
LINE
8
BLACK
6
CONTINUOUS
10
4.78373
20
-3.85683
11
4.78403
21
-3.85685
0
LINE
8
BLACK
6
CONTINUOUS
10
4.78403
20
-3.85685
11
4.78428
21
-3.85687
0
LINE
8
BLACK
6
CONTINUOUS
10
4.78428
20
-3.85687
11
4.78575
21
-3.85702
0
LINE
8
BLACK
6
CONTINUOUS
10
4.78575
20
-3.85702
11
4.78637
21
-3.85692
0
LINE
8
BLACK
6
CONTINUOUS
10
4.78637
20
-3.85692
11
4.78737
21
-3.85683
0
LINE
8
BLACK
6
CONTINUOUS
10
4.78737
20
-3.85683
11
5.07463
21
-3.85683
0
LINE
8
BLACK
6
CONTINUOUS
10
5.07463
20
-3.85683
11
5.07725
21
-3.85692
0
LINE
8
BLACK
6
CONTINUOUS
10
5.07725
20
-3.85692
11
5.07894
21
-3.85651
0
LINE
8
BLACK
6
CONTINUOUS
10
5.07894
20
-3.85651
11
5.07923
21
-3.85645
0
LINE
8
BLACK
6
CONTINUOUS
10
5.07923
20
-3.85645
11
5.08095
21
-3.85622
0
LINE
8
BLACK
6
CONTINUOUS
10
5.08095
20
-3.85622
11
5.08152
21
-3.85597
0
LINE
8
BLACK
6
CONTINUOUS
10
5.08152
20
-3.85597
11
5.08247
21
-3.85565
0
LINE
8
BLACK
6
CONTINUOUS
10
5.08247
20
-3.85565
11
5.08308
21
-3.8555
0
LINE
8
BLACK
6
CONTINUOUS
10
5.08308
20
-3.8555
11
5.08459
21
-3.85465
0
LINE
8
BLACK
6
CONTINUOUS
10
5.08459
20
-3.85465
11
5.08486
21
-3.85452
0
LINE
8
BLACK
6
CONTINUOUS
10
5.08486
20
-3.85452
11
5.08645
21
-3.85383
0
LINE
8
BLACK
6
CONTINUOUS
10
5.08645
20
-3.85383
11
5.08694
21
-3.85343
0
LINE
8
BLACK
6
CONTINUOUS
10
5.08694
20
-3.85343
11
5.08777
21
-3.85287
0
LINE
8
BLACK
6
CONTINUOUS
10
5.08777
20
-3.85287
11
5.08831
21
-3.85256
0
LINE
8
BLACK
6
CONTINUOUS
10
5.08831
20
-3.85256
11
5.08954
21
-3.85133
0
LINE
8
BLACK
6
CONTINUOUS
10
5.08954
20
-3.85133
11
5.08976
21
-3.85113
0
LINE
8
BLACK
6
CONTINUOUS
10
5.08976
20
-3.85113
11
5.0911
21
-3.85004
0
LINE
8
BLACK
6
CONTINUOUS
10
5.0911
20
-3.85004
11
5.09147
21
-3.84953
0
LINE
8
BLACK
6
CONTINUOUS
10
5.09147
20
-3.84953
11
5.09211
21
-3.84876
0
LINE
8
BLACK
6
CONTINUOUS
10
5.09211
20
-3.84876
11
5.107
21
-3.83387
0
LINE
8
BLACK
6
CONTINUOUS
10
5.107
20
-3.83387
11
5.11198
21
-3.82889
0
LINE
8
BLACK
6
CONTINUOUS
10
5.11198
20
-3.82889
11
5.11305
21
-3.82789
0
LINE
8
BLACK
6
CONTINUOUS
10
5.11305
20
-3.82789
11
5.1139
21
-3.8271
0
LINE
8
BLACK
6
CONTINUOUS
10
5.1139
20
-3.8271
11
5.1148
21
-3.82562
0
LINE
8
BLACK
6
CONTINUOUS
10
5.1148
20
-3.82562
11
5.11497
21
-3.82537
0
LINE
8
BLACK
6
CONTINUOUS
10
5.11497
20
-3.82537
11
5.11602
21
-3.82399
0
LINE
8
BLACK
6
CONTINUOUS
10
5.11602
20
-3.82399
11
5.11625
21
-3.8234
0
LINE
8
BLACK
6
CONTINUOUS
10
5.11625
20
-3.8234
11
5.1167
21
-3.82251
0
LINE
8
BLACK
6
CONTINUOUS
10
5.1167
20
-3.82251
11
5.11702
21
-3.82197
0
LINE
8
BLACK
6
CONTINUOUS
10
5.11702
20
-3.82197
11
5.11749
21
-3.8203
0
LINE
8
BLACK
6
CONTINUOUS
10
5.11749
20
-3.8203
11
5.11759
21
-3.82002
0
LINE
8
BLACK
6
CONTINUOUS
10
5.11759
20
-3.82002
11
5.11822
21
-3.81841
0
LINE
8
BLACK
6
CONTINUOUS
10
5.11822
20
-3.81841
11
5.11822
21
-3.81841
0
LINE
8
BLACK
6
CONTINUOUS
10
5.11822
20
-3.81841
11
5.11828
21
-3.81778
0
LINE
8
BLACK
6
CONTINUOUS
10
5.11828
20
-3.81778
11
5.11847
21
-3.8168
0
LINE
8
BLACK
6
CONTINUOUS
10
5.11847
20
-3.8168
11
5.11864
21
-3.81619
0
LINE
8
BLACK
6
CONTINUOUS
10
5.11864
20
-3.81619
11
5.11864
21
-3.81446
0
LINE
8
BLACK
6
CONTINUOUS
10
5.11864
20
-3.81446
11
5.11866
21
-3.81416
0
LINE
8
BLACK
6
CONTINUOUS
10
5.11866
20
-3.81416
11
5.11876
21
-3.81316
0
LINE
8
BLACK
6
CONTINUOUS
10
5.11876
20
-3.81316
11
5.11883
21
-3.81244
0
LINE
8
BLACK
6
CONTINUOUS
10
5.11883
20
-3.81244
11
5.11883
21
-3.81244
0
LINE
8
BLACK
6
CONTINUOUS
10
5.11883
20
-3.81244
11
5.11887
21
-3.8121
0
LINE
8
BLACK
6
CONTINUOUS
10
5.11887
20
-3.8121
11
5.11995
21
-3.80926
0
LINE
8
BLACK
6
CONTINUOUS
10
5.11995
20
-3.80926
11
5.12231
21
-3.80734
0
LINE
8
BLACK
6
CONTINUOUS
10
5.12231
20
-3.80734
11
5.1247
21
-3.80683
0
LINE
8
BLACK
6
CONTINUOUS
10
5.1247
20
-3.80683
11
5.14012
21
-3.80683
0
LINE
8
BLACK
6
CONTINUOUS
10
5.14012
20
-3.80683
11
5.14012
21
-3.80683
0
LINE
8
BLACK
6
CONTINUOUS
10
5.14012
20
-3.80683
11
5.14304
21
-3.80625
0
LINE
8
BLACK
6
CONTINUOUS
10
5.14304
20
-3.80625
11
5.14636
21
-3.80403
0
LINE
8
BLACK
6
CONTINUOUS
10
5.14636
20
-3.80403
11
5.14857
21
-3.80072
0
LINE
8
BLACK
6
CONTINUOUS
10
5.14857
20
-3.80072
11
5.14915
21
-3.7978
0
LINE
8
BLACK
6
CONTINUOUS
10
5.14915
20
-3.7978
11
5.14915
21
-3.7722
0
LINE
8
BLACK
6
CONTINUOUS
10
5.14915
20
-3.7722
11
5.14857
21
-3.76928
0
LINE
8
BLACK
6
CONTINUOUS
10
5.14857
20
-3.76928
11
5.14636
21
-3.76597
0
LINE
8
BLACK
6
CONTINUOUS
10
5.14636
20
-3.76597
11
5.14636
21
-3.76597
0
LINE
8
BLACK
6
CONTINUOUS
10
5.14636
20
-3.76597
11
5.14473
21
-3.76488
0
LINE
8
BLACK
6
CONTINUOUS
10
5.14473
20
-3.76488
11
5.14273
21
-3.76259
0
LINE
8
BLACK
6
CONTINUOUS
10
5.14273
20
-3.76259
11
5.14214
21
-3.75962
0
LINE
8
BLACK
6
CONTINUOUS
10
5.14214
20
-3.75962
11
5.14311
21
-3.75674
0
LINE
8
BLACK
6
CONTINUOUS
10
5.14311
20
-3.75674
11
5.14473
21
-3.75512
0
LINE
8
BLACK
6
CONTINUOUS
10
5.14473
20
-3.75512
11
5.14636
21
-3.75403
0
LINE
8
BLACK
6
CONTINUOUS
10
5.14636
20
-3.75403
11
5.14857
21
-3.75072
0
LINE
8
BLACK
6
CONTINUOUS
10
5.14857
20
-3.75072
11
5.14915
21
-3.7478
0
LINE
8
BLACK
6
CONTINUOUS
10
5.14915
20
-3.7478
11
5.14915
21
-3.7222
0
LINE
8
BLACK
6
CONTINUOUS
10
5.14915
20
-3.7222
11
5.14857
21
-3.71928
0
LINE
8
BLACK
6
CONTINUOUS
10
5.14857
20
-3.71928
11
5.14636
21
-3.71597
0
LINE
8
BLACK
6
CONTINUOUS
10
5.14636
20
-3.71597
11
5.14636
21
-3.71597
0
LINE
8
BLACK
6
CONTINUOUS
10
5.14636
20
-3.71597
11
5.14304
21
-3.71375
0
LINE
8
BLACK
6
CONTINUOUS
10
5.14304
20
-3.71375
11
5.14012
21
-3.71317
0
LINE
8
BLACK
6
CONTINUOUS
10
5.14012
20
-3.71317
11
5.0535
21
-3.71317
0
LINE
8
BLACK
6
CONTINUOUS
10
5.0535
20
-3.71317
11
5.05058
21
-3.71375
0
LINE
8
BLACK
6
CONTINUOUS
10
5.05058
20
-3.71375
11
5.04704
21
-3.71612
0
LINE
8
BLACK
6
CONTINUOUS
10
5.04704
20
-3.71612
11
5.04416
21
-3.71709
0
LINE
8
BLACK
6
CONTINUOUS
10
5.04416
20
-3.71709
11
5.04378
21
-3.71711
0
LINE
8
BLACK
6
CONTINUOUS
10
5.04378
20
-3.71711
11
4.98617
21
-3.71711
0
LINE
8
BLACK
6
CONTINUOUS
10
4.98617
20
-3.71711
11
4.98584
21
-3.71709
0
LINE
8
BLACK
6
CONTINUOUS
10
4.98584
20
-3.71709
11
4.98432
21
-3.71692
0
LINE
8
BLACK
6
CONTINUOUS
10
4.98432
20
-3.71692
11
4.98432
21
-3.71692
0
LINE
8
BLACK
6
CONTINUOUS
10
4.98432
20
-3.71692
11
4.98432
21
-3.71692
0
LINE
8
BLACK
6
CONTINUOUS
10
4.98432
20
-3.71692
11
4.982
21
-3.71736
0
LINE
8
BLACK
6
CONTINUOUS
10
4.982
20
-3.71736
11
4.98028
21
-3.71762
0
LINE
8
BLACK
6
CONTINUOUS
10
4.98028
20
-3.71762
11
4.97967
21
-3.71771
0
LINE
8
BLACK
6
CONTINUOUS
10
4.97967
20
-3.71771
11
4.97934
21
-3.71781
0
LINE
8
BLACK
6
CONTINUOUS
10
4.97934
20
-3.71781
11
4.97902
21
-3.71792
0
LINE
8
BLACK
6
CONTINUOUS
10
4.97902
20
-3.71792
11
4.97693
21
-3.71902
0
LINE
8
BLACK
6
CONTINUOUS
10
4.97693
20
-3.71902
11
4.97481
21
-3.72005
0
LINE
8
BLACK
6
CONTINUOUS
10
4.97481
20
-3.72005
11
4.97453
21
-3.72024
0
LINE
8
BLACK
6
CONTINUOUS
10
4.97453
20
-3.72024
11
4.97425
21
-3.72044
0
LINE
8
BLACK
6
CONTINUOUS
10
4.97425
20
-3.72044
11
4.97258
21
-3.72211
0
LINE
8
BLACK
6
CONTINUOUS
10
4.97258
20
-3.72211
11
4.97085
21
-3.72372
0
LINE
8
BLACK
6
CONTINUOUS
10
4.97085
20
-3.72372
11
4.97058
21
-3.72406
0
LINE
8
BLACK
6
CONTINUOUS
10
4.97058
20
-3.72406
11
4.97054
21
-3.72403
0
LINE
8
BLACK
6
CONTINUOUS
10
4.97054
20
-3.72403
11
4.97014
21
-3.72456
0
LINE
8
BLACK
6
CONTINUOUS
10
4.97014
20
-3.72456
11
4.96817
21
-3.72652
0
LINE
8
BLACK
6
CONTINUOUS
10
4.96817
20
-3.72652
11
4.96793
21
-3.72674
0
LINE
8
BLACK
6
CONTINUOUS
10
4.96793
20
-3.72674
11
4.96673
21
-3.72769
0
LINE
8
BLACK
6
CONTINUOUS
10
4.96673
20
-3.72769
11
4.9654
21
-3.72964
0
LINE
8
BLACK
6
CONTINUOUS
10
4.9654
20
-3.72964
11
4.964
21
-3.73154
0
LINE
8
BLACK
6
CONTINUOUS
10
4.964
20
-3.73154
11
4.96384
21
-3.73184
0
LINE
8
BLACK
6
CONTINUOUS
10
4.96384
20
-3.73184
11
4.9637
21
-3.73215
0
LINE
8
BLACK
6
CONTINUOUS
10
4.9637
20
-3.73215
11
4.9637
21
-3.73215
0
LINE
8
BLACK
6
CONTINUOUS
10
4.9637
20
-3.73215
11
4.9637
21
-3.73215
0
LINE
8
BLACK
6
CONTINUOUS
10
4.9637
20
-3.73215
11
4.963
21
-3.73441
0
LINE
8
BLACK
6
CONTINUOUS
10
4.963
20
-3.73441
11
4.96267
21
-3.73536
0
LINE
8
BLACK
6
CONTINUOUS
10
4.96267
20
-3.73536
11
4.96253
21
-3.73574
0
LINE
8
BLACK
6
CONTINUOUS
10
4.96253
20
-3.73574
11
4.96082
21
-3.73825
0
LINE
8
BLACK
6
CONTINUOUS
10
4.96082
20
-3.73825
11
4.95809
21
-3.73956
0
LINE
8
BLACK
6
CONTINUOUS
10
4.95809
20
-3.73956
11
4.957
21
-3.73967
0
LINE
8
BLACK
6
CONTINUOUS
10
4.957
20
-3.73967
11
4.95441
21
-3.73967
0
LINE
8
BLACK
6
CONTINUOUS
10
4.95441
20
-3.73967
11
4.95148
21
-3.74025
0
LINE
8
BLACK
6
CONTINUOUS
10
4.95148
20
-3.74025
11
4.94817
21
-3.74246
0
LINE
8
BLACK
6
CONTINUOUS
10
4.94817
20
-3.74246
11
4.94817
21
-3.74246
0
LINE
8
BLACK
6
CONTINUOUS
10
4.94817
20
-3.74246
11
4.94596
21
-3.74578
0
LINE
8
BLACK
6
CONTINUOUS
10
4.94596
20
-3.74578
11
4.94576
21
-3.74675
0
LINE
8
BLACK
6
CONTINUOUS
10
4.94576
20
-3.74675
11
4.94442
21
-3.74948
0
LINE
8
BLACK
6
CONTINUOUS
10
4.94442
20
-3.74948
11
4.94189
21
-3.75117
0
LINE
8
BLACK
6
CONTINUOUS
10
4.94189
20
-3.75117
11
4.94001
21
-3.75148
0
LINE
8
BLACK
6
CONTINUOUS
10
4.94001
20
-3.75148
11
4.93707
21
-3.75148
0
LINE
8
BLACK
6
CONTINUOUS
10
4.93707
20
-3.75148
11
4.93413
21
-3.75069
0
LINE
8
BLACK
6
CONTINUOUS
10
4.93413
20
-3.75069
11
4.93199
21
-3.74854
0
LINE
8
BLACK
6
CONTINUOUS
10
4.93199
20
-3.74854
11
4.9312
21
-3.74561
0
LINE
8
BLACK
6
CONTINUOUS
10
4.9312
20
-3.74561
11
4.9312
21
-3.73342
0
LINE
8
BLACK
6
CONTINUOUS
10
4.9312
20
-3.73342
11
4.9312
21
-3.73342
0
LINE
8
BLACK
6
CONTINUOUS
10
4.9312
20
-3.73342
11
4.93062
21
-3.7305
0
LINE
8
BLACK
6
CONTINUOUS
10
4.93062
20
-3.7305
11
4.9284
21
-3.72719
0
LINE
8
BLACK
6
CONTINUOUS
10
4.9284
20
-3.72719
11
4.9284
21
-3.72719
0
LINE
8
BLACK
6
CONTINUOUS
10
4.9284
20
-3.72719
11
4.9284
21
-3.72719
0
LINE
8
BLACK
6
CONTINUOUS
10
4.9284
20
-3.72719
11
4.92509
21
-3.72497
0
LINE
8
BLACK
6
CONTINUOUS
10
4.92509
20
-3.72497
11
4.92217
21
-3.72439
0
LINE
8
BLACK
6
CONTINUOUS
10
4.92217
20
-3.72439
11
4.89264
21
-3.72439
0
LINE
8
BLACK
6
CONTINUOUS
10
4.89264
20
-3.72439
11
4.88971
21
-3.72497
0
LINE
8
BLACK
6
CONTINUOUS
10
4.88971
20
-3.72497
11
4.8864
21
-3.72719
0
LINE
8
BLACK
6
CONTINUOUS
10
4.8864
20
-3.72719
11
4.8864
21
-3.72719
0
LINE
8
BLACK
6
CONTINUOUS
10
4.8864
20
-3.72719
11
4.88418
21
-3.7305
0
LINE
8
BLACK
6
CONTINUOUS
10
4.88418
20
-3.7305
11
4.8836
21
-3.73342
0
LINE
8
BLACK
6
CONTINUOUS
10
4.8836
20
-3.73342
11
4.8836
21
-3.78658
0
LINE
8
BLACK
6
CONTINUOUS
10
4.8836
20
-3.78658
11
4.88418
21
-3.7895
0
LINE
8
BLACK
6
CONTINUOUS
10
4.88418
20
-3.7895
11
4.8864
21
-3.79281
0
LINE
8
BLACK
6
CONTINUOUS
10
4.8864
20
-3.79281
11
4.8864
21
-3.79281
0
LINE
8
BLACK
6
CONTINUOUS
10
4.8864
20
-3.79281
11
4.88971
21
-3.79503
0
LINE
8
BLACK
6
CONTINUOUS
10
4.88971
20
-3.79503
11
4.88971
21
-3.79503
0
LINE
8
BLACK
6
CONTINUOUS
10
4.88971
20
-3.79503
11
4.89264
21
-3.79561
0
LINE
8
BLACK
6
CONTINUOUS
10
4.89264
20
-3.79561
11
4.92217
21
-3.79561
0
LINE
8
BLACK
6
CONTINUOUS
10
4.92217
20
-3.79561
11
4.92509
21
-3.79503
0
LINE
8
BLACK
6
CONTINUOUS
10
4.92509
20
-3.79503
11
4.9284
21
-3.79281
0
LINE
8
BLACK
6
CONTINUOUS
10
4.9284
20
-3.79281
11
4.93037
21
-3.78987
0
LINE
8
BLACK
6
CONTINUOUS
10
4.93037
20
-3.78987
11
4.93265
21
-3.78787
0
LINE
8
BLACK
6
CONTINUOUS
10
4.93265
20
-3.78787
11
4.93525
21
-3.78726
0
LINE
8
BLACK
6
CONTINUOUS
10
4.93525
20
-3.78726
11
4.94001
21
-3.78726
0
LINE
8
BLACK
6
CONTINUOUS
10
4.94001
20
-3.78726
11
4.94294
21
-3.78805
0
LINE
8
BLACK
6
CONTINUOUS
10
4.94294
20
-3.78805
11
4.94509
21
-3.7902
0
LINE
8
BLACK
6
CONTINUOUS
10
4.94509
20
-3.7902
11
4.94576
21
-3.79199
0
LINE
8
BLACK
6
CONTINUOUS
10
4.94576
20
-3.79199
11
4.94596
21
-3.79296
0
LINE
8
BLACK
6
CONTINUOUS
10
4.94596
20
-3.79296
11
4.94817
21
-3.79628
0
LINE
8
BLACK
6
CONTINUOUS
10
4.94817
20
-3.79628
11
4.94817
21
-3.79628
0
LINE
8
BLACK
6
CONTINUOUS
10
4.94817
20
-3.79628
11
4.95148
21
-3.79849
0
LINE
8
BLACK
6
CONTINUOUS
10
4.95148
20
-3.79849
11
4.95148
21
-3.79849
0
LINE
8
BLACK
6
CONTINUOUS
10
4.95148
20
-3.79849
11
4.95441
21
-3.79907
0
LINE
8
BLACK
6
CONTINUOUS
10
4.95441
20
-3.79907
11
5.00559
21
-3.79907
0
LINE
8
BLACK
6
CONTINUOUS
10
5.00559
20
-3.79907
11
5.00852
21
-3.79849
0
LINE
8
BLACK
6
CONTINUOUS
10
5.00852
20
-3.79849
11
5.01183
21
-3.79628
0
LINE
8
BLACK
6
CONTINUOUS
10
5.01183
20
-3.79628
11
5.01404
21
-3.79296
0
LINE
8
BLACK
6
CONTINUOUS
10
5.01404
20
-3.79296
11
5.01463
21
-3.79004
0
LINE
8
BLACK
6
CONTINUOUS
10
5.01463
20
-3.79004
11
5.01463
21
-3.75876
0
LINE
8
BLACK
6
CONTINUOUS
10
5.01463
20
-3.75876
11
5.01541
21
-3.75583
0
LINE
8
BLACK
6
CONTINUOUS
10
5.01541
20
-3.75583
11
5.01756
21
-3.75368
0
LINE
8
BLACK
6
CONTINUOUS
10
5.01756
20
-3.75368
11
5.02049
21
-3.75289
0
LINE
8
BLACK
6
CONTINUOUS
10
5.02049
20
-3.75289
11
5.04378
21
-3.75289
0
LINE
8
BLACK
6
CONTINUOUS
10
5.04378
20
-3.75289
11
5.04671
21
-3.75368
0
LINE
8
BLACK
6
CONTINUOUS
10
5.04671
20
-3.75368
11
5.04704
21
-3.75388
0
LINE
8
BLACK
6
CONTINUOUS
10
5.04704
20
-3.75388
11
5.04889
21
-3.75512
0
LINE
8
BLACK
6
CONTINUOUS
10
5.04889
20
-3.75512
11
5.05089
21
-3.75741
0
LINE
8
BLACK
6
CONTINUOUS
10
5.05089
20
-3.75741
11
5.05149
21
-3.76038
0
LINE
8
BLACK
6
CONTINUOUS
10
5.05149
20
-3.76038
11
5.05051
21
-3.76326
0
LINE
8
BLACK
6
CONTINUOUS
10
5.05051
20
-3.76326
11
5.04889
21
-3.76488
0
LINE
8
BLACK
6
CONTINUOUS
10
5.04889
20
-3.76488
11
5.04726
21
-3.76597
0
LINE
8
BLACK
6
CONTINUOUS
10
5.04726
20
-3.76597
11
5.04726
21
-3.76597
0
LINE
8
BLACK
6
CONTINUOUS
10
5.04726
20
-3.76597
11
5.04505
21
-3.76928
0
LINE
8
BLACK
6
CONTINUOUS
10
5.04505
20
-3.76928
11
5.04447
21
-3.7722
0
LINE
8
BLACK
6
CONTINUOUS
10
5.04447
20
-3.7722
11
5.04447
21
-3.7978
0
LINE
8
BLACK
6
CONTINUOUS
10
5.04447
20
-3.7978
11
5.04505
21
-3.80072
0
LINE
8
BLACK
6
CONTINUOUS
10
5.04505
20
-3.80072
11
5.04727
21
-3.80404
0
LINE
8
BLACK
6
CONTINUOUS
10
5.04727
20
-3.80404
11
5.04825
21
-3.80692
0
LINE
8
BLACK
6
CONTINUOUS
10
5.04825
20
-3.80692
11
5.04765
21
-3.8099
0
LINE
8
BLACK
6
CONTINUOUS
10
5.04765
20
-3.8099
11
5.04565
21
-3.81218
0
LINE
8
BLACK
6
CONTINUOUS
10
5.04565
20
-3.81218
11
5.04278
21
-3.81316
0
LINE
8
BLACK
6
CONTINUOUS
10
5.04278
20
-3.81316
11
5.04239
21
-3.81317
0
LINE
8
BLACK
6
CONTINUOUS
10
5.04239
20
-3.81317
11
4.79647
21
-3.81317
0
LINE
8
BLACK
6
CONTINUOUS
10
4.79647
20
-3.81317
11
4.79354
21
-3.81238
0
LINE
8
BLACK
6
CONTINUOUS
10
4.79354
20
-3.81238
11
4.79232
21
-3.81145
0
LINE
8
BLACK
6
CONTINUOUS
10
4.79232
20
-3.81145
11
4.79095
21
-3.81008
0
LINE
8
BLACK
6
CONTINUOUS
10
4.79095
20
-3.81008
11
4.78943
21
-3.80745
0
LINE
8
BLACK
6
CONTINUOUS
10
4.78943
20
-3.80745
11
4.78923
21
-3.80593
0
LINE
8
BLACK
6
CONTINUOUS
10
4.78923
20
-3.80593
11
4.78923
21
-3.78836
0
LINE
8
BLACK
6
CONTINUOUS
10
4.78923
20
-3.78836
11
4.79002
21
-3.78542
0
LINE
8
BLACK
6
CONTINUOUS
10
4.79002
20
-3.78542
11
4.79022
21
-3.7851
0
LINE
8
BLACK
6
CONTINUOUS
10
4.79022
20
-3.7851
11
4.79062
21
-3.7845
0
LINE
8
BLACK
6
CONTINUOUS
10
4.79062
20
-3.7845
11
4.79065
21
-3.78437
0
LINE
8
BLACK
6
CONTINUOUS
10
4.79065
20
-3.78437
11
4.7912
21
-3.78158
0
LINE
8
BLACK
6
CONTINUOUS
10
4.7912
20
-3.78158
11
4.7912
21
-3.72842
0
LINE
8
BLACK
6
CONTINUOUS
10
4.7912
20
-3.72842
11
4.79062
21
-3.7255
0
LINE
8
BLACK
6
CONTINUOUS
10
4.79062
20
-3.7255
11
4.79022
21
-3.7249
0
LINE
8
BLACK
6
CONTINUOUS
10
4.79022
20
-3.7249
11
4.78924
21
-3.72203
0
LINE
8
BLACK
6
CONTINUOUS
10
4.78924
20
-3.72203
11
4.78923
21
-3.72164
0
LINE
8
BLACK
6
CONTINUOUS
10
4.78923
20
-3.72164
11
4.78923
21
-3.72128
0
LINE
8
BLACK
6
CONTINUOUS
10
4.78923
20
-3.72128
11
4.79002
21
-3.71835
0
LINE
8
BLACK
6
CONTINUOUS
10
4.79002
20
-3.71835
11
4.79217
21
-3.7162
0
LINE
8
BLACK
6
CONTINUOUS
10
4.79217
20
-3.7162
11
4.7951
21
-3.71542
0
LINE
8
BLACK
6
CONTINUOUS
10
4.7951
20
-3.71542
11
4.79803
21
-3.7162
0
LINE
8
BLACK
6
CONTINUOUS
10
4.79803
20
-3.7162
11
4.79836
21
-3.7164
0
LINE
8
BLACK
6
CONTINUOUS
10
4.79836
20
-3.7164
11
4.80148
21
-3.71849
0
LINE
8
BLACK
6
CONTINUOUS
10
4.80148
20
-3.71849
11
4.80148
21
-3.71849
0
LINE
8
BLACK
6
CONTINUOUS
10
4.80148
20
-3.71849
11
4.80441
21
-3.71907
0
LINE
8
BLACK
6
CONTINUOUS
10
4.80441
20
-3.71907
11
4.80604
21
-3.71907
0
LINE
8
BLACK
6
CONTINUOUS
10
4.80604
20
-3.71907
11
4.80897
21
-3.71986
0
LINE
8
BLACK
6
CONTINUOUS
10
4.80897
20
-3.71986
11
4.81112
21
-3.72201
0
LINE
8
BLACK
6
CONTINUOUS
10
4.81112
20
-3.72201
11
4.81191
21
-3.72494
0
LINE
8
BLACK
6
CONTINUOUS
10
4.81191
20
-3.72494
11
4.81112
21
-3.72787
0
LINE
8
BLACK
6
CONTINUOUS
10
4.81112
20
-3.72787
11
4.81092
21
-3.7282
0
LINE
8
BLACK
6
CONTINUOUS
10
4.81092
20
-3.7282
11
4.80938
21
-3.7305
0
LINE
8
BLACK
6
CONTINUOUS
10
4.80938
20
-3.7305
11
4.8088
21
-3.73342
0
LINE
8
BLACK
6
CONTINUOUS
10
4.8088
20
-3.73342
11
4.8088
21
-3.78658
0
LINE
8
BLACK
6
CONTINUOUS
10
4.8088
20
-3.78658
11
4.80938
21
-3.7895
0
LINE
8
BLACK
6
CONTINUOUS
10
4.80938
20
-3.7895
11
4.8116
21
-3.79281
0
LINE
8
BLACK
6
CONTINUOUS
10
4.8116
20
-3.79281
11
4.8116
21
-3.79281
0
LINE
8
BLACK
6
CONTINUOUS
10
4.8116
20
-3.79281
11
4.81491
21
-3.79503
0
LINE
8
BLACK
6
CONTINUOUS
10
4.81491
20
-3.79503
11
4.81491
21
-3.79503
0
LINE
8
BLACK
6
CONTINUOUS
10
4.81491
20
-3.79503
11
4.81783
21
-3.79561
0
LINE
8
BLACK
6
CONTINUOUS
10
4.81783
20
-3.79561
11
4.84736
21
-3.79561
0
LINE
8
BLACK
6
CONTINUOUS
10
4.84736
20
-3.79561
11
4.85029
21
-3.79503
0
LINE
8
BLACK
6
CONTINUOUS
10
4.85029
20
-3.79503
11
4.8536
21
-3.79281
0
LINE
8
BLACK
6
CONTINUOUS
10
4.8536
20
-3.79281
11
4.85582
21
-3.7895
0
LINE
8
BLACK
6
CONTINUOUS
10
4.85582
20
-3.7895
11
4.8564
21
-3.78658
0
LINE
8
BLACK
6
CONTINUOUS
10
4.8564
20
-3.78658
11
4.8564
21
-3.73342
0
LINE
8
BLACK
6
CONTINUOUS
10
4.8564
20
-3.73342
11
4.85582
21
-3.7305
0
LINE
8
BLACK
6
CONTINUOUS
10
4.85582
20
-3.7305
11
4.85393
21
-3.72768
0
LINE
8
BLACK
6
CONTINUOUS
10
4.85393
20
-3.72768
11
4.85295
21
-3.7248
0
LINE
8
BLACK
6
CONTINUOUS
10
4.85295
20
-3.7248
11
4.85355
21
-3.72182
0
LINE
8
BLACK
6
CONTINUOUS
10
4.85355
20
-3.72182
11
4.85555
21
-3.71954
0
LINE
8
BLACK
6
CONTINUOUS
10
4.85555
20
-3.71954
11
4.85766
21
-3.71866
0
LINE
8
BLACK
6
CONTINUOUS
10
4.85766
20
-3.71866
11
4.85852
21
-3.71849
0
LINE
8
BLACK
6
CONTINUOUS
10
4.85852
20
-3.71849
11
4.86183
21
-3.71628
0
LINE
8
BLACK
6
CONTINUOUS
10
4.86183
20
-3.71628
11
4.86404
21
-3.71296
0
LINE
8
BLACK
6
CONTINUOUS
10
4.86404
20
-3.71296
11
4.86463
21
-3.71004
0
LINE
8
BLACK
6
CONTINUOUS
10
4.86463
20
-3.71004
11
4.86463
21
-3.6687
0
LINE
8
BLACK
6
CONTINUOUS
10
4.86463
20
-3.6687
11
4.86404
21
-3.66578
0
LINE
8
BLACK
6
CONTINUOUS
10
4.86404
20
-3.66578
11
4.86183
21
-3.66246
0
LINE
8
BLACK
6
CONTINUOUS
10
4.86183
20
-3.66246
11
4.86183
21
-3.66246
0
LINE
8
BLACK
6
CONTINUOUS
10
4.86183
20
-3.66246
11
4.85852
21
-3.66025
0
LINE
8
BLACK
6
CONTINUOUS
10
4.85852
20
-3.66025
11
4.85559
21
-3.65967
0
LINE
8
BLACK
6
CONTINUOUS
10
4.85559
20
-3.65967
11
4.80441
21
-3.65967
0
LINE
8
BLACK
6
CONTINUOUS
10
4.80441
20
-3.65967
11
4.80148
21
-3.66025
0
LINE
8
BLACK
6
CONTINUOUS
10
4.80148
20
-3.66025
11
4.80033
21
-3.66102
0
LINE
8
BLACK
6
CONTINUOUS
10
4.80033
20
-3.66102
11
4.79745
21
-3.662
0
LINE
8
BLACK
6
CONTINUOUS
10
4.79745
20
-3.662
11
4.79447
21
-3.6614
0
LINE
8
BLACK
6
CONTINUOUS
10
4.79447
20
-3.6614
11
4.79219
21
-3.6594
0
LINE
8
BLACK
6
CONTINUOUS
10
4.79219
20
-3.6594
11
4.79121
21
-3.65653
0
LINE
8
BLACK
6
CONTINUOUS
10
4.79121
20
-3.65653
11
4.7912
21
-3.65614
0
LINE
8
BLACK
6
CONTINUOUS
10
4.7912
20
-3.65614
11
4.7912
21
-3.62842
0
LINE
8
BLACK
6
CONTINUOUS
10
4.7912
20
-3.62842
11
4.79062
21
-3.6255
0
LINE
8
BLACK
6
CONTINUOUS
10
4.79062
20
-3.6255
11
4.7884
21
-3.62219
0
LINE
8
BLACK
6
CONTINUOUS
10
4.7884
20
-3.62219
11
4.7884
21
-3.62219
0
LINE
8
BLACK
6
CONTINUOUS
10
4.7884
20
-3.62219
11
4.7884
21
-3.62219
0
LINE
8
BLACK
6
CONTINUOUS
10
4.7884
20
-3.62219
11
4.78509
21
-3.61997
0
LINE
8
BLACK
6
CONTINUOUS
10
4.78509
20
-3.61997
11
4.78217
21
-3.61939
0
LINE
8
BLACK
6
CONTINUOUS
10
4.78217
20
-3.61939
11
4.75264
21
-3.61939
0
LINE
8
BLACK
6
CONTINUOUS
10
4.75264
20
-3.61939
11
4.74971
21
-3.61997
0
LINE
8
BLACK
6
CONTINUOUS
10
4.74971
20
-3.61997
11
4.7464
21
-3.62219
0
LINE
8
BLACK
6
CONTINUOUS
10
4.7464
20
-3.62219
11
4.7464
21
-3.62219
0
LINE
8
BLACK
6
CONTINUOUS
10
4.7464
20
-3.62219
11
4.74418
21
-3.6255
0
LINE
8
BLACK
6
CONTINUOUS
10
4.74418
20
-3.6255
11
4.7436
21
-3.62842
0
LINE
8
BLACK
6
CONTINUOUS
10
4.7436
20
-3.62842
11
4.7436
21
-3.68158
0
LINE
8
BLACK
6
CONTINUOUS
10
4.7436
20
-3.68158
11
4.74418
21
-3.6845
0
LINE
8
BLACK
6
CONTINUOUS
10
4.74418
20
-3.6845
11
4.74458
21
-3.6851
0
LINE
8
BLACK
6
CONTINUOUS
10
4.74458
20
-3.6851
11
4.74556
21
-3.68797
0
LINE
8
BLACK
6
CONTINUOUS
10
4.74556
20
-3.68797
11
4.74557
21
-3.68836
0
LINE
8
BLACK
6
CONTINUOUS
10
4.74557
20
-3.68836
11
4.74557
21
-3.72164
0
LINE
8
BLACK
6
CONTINUOUS
10
4.74557
20
-3.72164
11
4.74478
21
-3.72458
0
LINE
8
BLACK
6
CONTINUOUS
10
4.74478
20
-3.72458
11
4.74458
21
-3.7249
0
LINE
8
BLACK
6
CONTINUOUS
10
4.74458
20
-3.7249
11
4.74418
21
-3.7255
0
LINE
8
BLACK
6
CONTINUOUS
10
4.74418
20
-3.7255
11
4.74418
21
-3.7255
0
LINE
8
BLACK
6
CONTINUOUS
10
4.74418
20
-3.7255
11
4.7436
21
-3.72842
0
LINE
8
BLACK
6
CONTINUOUS
10
4.7436
20
-3.72842
11
4.7436
21
-3.78158
0
LINE
8
BLACK
6
CONTINUOUS
10
4.7436
20
-3.78158
11
4.7436
21
-3.78158
0
LINE
8
BLACK
6
CONTINUOUS
10
4.66938
20
-3.6845
11
4.6716
21
-3.68781
0
LINE
8
BLACK
6
CONTINUOUS
10
4.6716
20
-3.68781
11
4.6716
21
-3.68781
0
LINE
8
BLACK
6
CONTINUOUS
10
4.6716
20
-3.68781
11
4.67491
21
-3.69003
0
LINE
8
BLACK
6
CONTINUOUS
10
4.67491
20
-3.69003
11
4.67491
21
-3.69003
0
LINE
8
BLACK
6
CONTINUOUS
10
4.67491
20
-3.69003
11
4.67783
21
-3.69061
0
LINE
8
BLACK
6
CONTINUOUS
10
4.67783
20
-3.69061
11
4.70736
21
-3.69061
0
LINE
8
BLACK
6
CONTINUOUS
10
4.70736
20
-3.69061
11
4.71029
21
-3.69003
0
LINE
8
BLACK
6
CONTINUOUS
10
4.71029
20
-3.69003
11
4.7136
21
-3.68781
0
LINE
8
BLACK
6
CONTINUOUS
10
4.7136
20
-3.68781
11
4.71582
21
-3.6845
0
LINE
8
BLACK
6
CONTINUOUS
10
4.71582
20
-3.6845
11
4.7164
21
-3.68158
0
LINE
8
BLACK
6
CONTINUOUS
10
4.7164
20
-3.68158
11
4.7164
21
-3.62842
0
LINE
8
BLACK
6
CONTINUOUS
10
4.7164
20
-3.62842
11
4.71582
21
-3.6255
0
LINE
8
BLACK
6
CONTINUOUS
10
4.71582
20
-3.6255
11
4.71542
21
-3.6249
0
LINE
8
BLACK
6
CONTINUOUS
10
4.71542
20
-3.6249
11
4.71444
21
-3.62203
0
LINE
8
BLACK
6
CONTINUOUS
10
4.71444
20
-3.62203
11
4.71443
21
-3.62164
0
LINE
8
BLACK
6
CONTINUOUS
10
4.71443
20
-3.62164
11
4.71443
21
-3.53339
0
LINE
8
BLACK
6
CONTINUOUS
10
4.71443
20
-3.53339
11
4.71443
21
-3.46887
0
LINE
8
BLACK
6
CONTINUOUS
10
4.71443
20
-3.46887
11
4.71522
21
-3.46594
0
LINE
8
BLACK
6
CONTINUOUS
10
4.71522
20
-3.46594
11
4.71615
21
-3.46473
0
LINE
8
BLACK
6
CONTINUOUS
10
4.71615
20
-3.46473
11
4.74062
21
-3.44025
0
LINE
8
BLACK
6
CONTINUOUS
10
4.74062
20
-3.44025
11
4.74325
21
-3.43873
0
LINE
8
BLACK
6
CONTINUOUS
10
4.74325
20
-3.43873
11
4.74477
21
-3.43853
0
LINE
8
BLACK
6
CONTINUOUS
10
4.74477
20
-3.43853
11
4.7634
21
-3.43853
0
LINE
8
BLACK
6
CONTINUOUS
10
4.7634
20
-3.43853
11
4.76634
21
-3.43932
0
LINE
8
BLACK
6
CONTINUOUS
10
4.76634
20
-3.43932
11
4.76828
21
-3.44114
0
LINE
8
BLACK
6
CONTINUOUS
10
4.76828
20
-3.44114
11
4.76994
21
-3.44362
0
LINE
8
BLACK
6
CONTINUOUS
10
4.76994
20
-3.44362
11
4.76994
21
-3.44362
0
LINE
8
BLACK
6
CONTINUOUS
10
4.76994
20
-3.44362
11
4.77326
21
-3.44584
0
LINE
8
BLACK
6
CONTINUOUS
10
4.77326
20
-3.44584
11
4.77326
21
-3.44584
0
LINE
8
BLACK
6
CONTINUOUS
10
4.77326
20
-3.44584
11
4.77618
21
-3.44642
0
LINE
8
BLACK
6
CONTINUOUS
10
4.77618
20
-3.44642
11
4.92382
21
-3.44642
0
LINE
8
BLACK
6
CONTINUOUS
10
4.92382
20
-3.44642
11
4.92674
21
-3.44584
0
LINE
8
BLACK
6
CONTINUOUS
10
4.92674
20
-3.44584
11
4.93006
21
-3.44362
0
LINE
8
BLACK
6
CONTINUOUS
10
4.93006
20
-3.44362
11
4.93227
21
-3.44031
0
LINE
8
BLACK
6
CONTINUOUS
10
4.93227
20
-3.44031
11
4.9327
21
-3.43814
0
LINE
8
BLACK
6
CONTINUOUS
10
4.9327
20
-3.43814
11
4.93405
21
-3.43542
0
LINE
8
BLACK
6
CONTINUOUS
10
4.93405
20
-3.43542
11
4.93431
21
-3.43514
0
LINE
8
BLACK
6
CONTINUOUS
10
4.93431
20
-3.43514
11
4.94074
21
-3.42871
0
LINE
8
BLACK
6
CONTINUOUS
10
4.94074
20
-3.42871
11
4.94118
21
-3.4282
0
LINE
8
BLACK
6
CONTINUOUS
10
4.94118
20
-3.4282
11
4.94118
21
-3.4282
0
LINE
8
BLACK
6
CONTINUOUS
10
4.94118
20
-3.4282
11
4.94118
21
-3.4282
0
LINE
8
BLACK
6
CONTINUOUS
10
4.94118
20
-3.4282
11
4.94118
21
-3.4282
0
LINE
8
BLACK
6
CONTINUOUS
10
4.94118
20
-3.4282
11
4.9422
21
-3.42687
0
LINE
8
BLACK
6
CONTINUOUS
10
4.9422
20
-3.42687
11
4.94224
21
-3.42683
0
LINE
8
BLACK
6
CONTINUOUS
10
4.94224
20
-3.42683
11
4.94232
21
-3.42672
0
LINE
8
BLACK
6
CONTINUOUS
10
4.94232
20
-3.42672
11
4.94232
21
-3.42672
0
LINE
8
BLACK
6
CONTINUOUS
10
4.94232
20
-3.42672
11
4.94232
21
-3.42672
0
LINE
8
BLACK
6
CONTINUOUS
10
4.94232
20
-3.42672
11
4.94232
21
-3.42672
0
LINE
8
BLACK
6
CONTINUOUS
10
4.94232
20
-3.42672
11
4.94321
21
-3.42491
0
LINE
8
BLACK
6
CONTINUOUS
10
4.94321
20
-3.42491
11
4.94408
21
-3.42315
0
LINE
8
BLACK
6
CONTINUOUS
10
4.94408
20
-3.42315
11
4.94487
21
-3.42021
0
LINE
8
BLACK
6
CONTINUOUS
10
4.94487
20
-3.42021
11
4.94487
21
-3.42021
0
LINE
8
BLACK
6
CONTINUOUS
10
4.94487
20
-3.42021
11
4.94487
21
-3.42021
0
LINE
8
BLACK
6
CONTINUOUS
10
4.94487
20
-3.42021
11
4.94522
21
-3.41757
0
LINE
8
BLACK
6
CONTINUOUS
10
4.94522
20
-3.41757
11
4.94522
21
-3.41757
0
LINE
8
BLACK
6
CONTINUOUS
10
4.94522
20
-3.41757
11
4.94522
21
-3.36077
0
LINE
8
BLACK
6
CONTINUOUS
10
4.94522
20
-3.36077
11
4.946
21
-3.35784
0
LINE
8
BLACK
6
CONTINUOUS
10
4.946
20
-3.35784
11
4.94655
21
-3.35704
0
LINE
8
BLACK
6
CONTINUOUS
10
4.94655
20
-3.35704
11
4.94895
21
-3.35414
0
LINE
8
BLACK
6
CONTINUOUS
10
4.94895
20
-3.35414
11
4.99016
21
-3.30409
0
LINE
8
BLACK
6
CONTINUOUS
10
4.99016
20
-3.30409
11
5.00806
21
-3.28235
0
LINE
8
BLACK
6
CONTINUOUS
10
5.00806
20
-3.28235
11
5.01053
21
-3.28059
0
LINE
8
BLACK
6
CONTINUOUS
10
5.01053
20
-3.28059
11
5.01259
21
-3.28022
0
LINE
8
BLACK
6
CONTINUOUS
10
5.01259
20
-3.28022
11
5.1029
21
-3.28022
0
LINE
8
BLACK
6
CONTINUOUS
10
5.1029
20
-3.28022
11
5.10357
21
-3.28017
0
LINE
8
BLACK
6
CONTINUOUS
10
5.10357
20
-3.28017
11
5.1045
21
-3.28005
0
LINE
8
BLACK
6
CONTINUOUS
10
5.1045
20
-3.28005
11
5.10542
21
-3.27993
0
LINE
8
BLACK
6
CONTINUOUS
10
5.10542
20
-3.27993
11
5.1092
21
-3.27865
0
LINE
8
BLACK
6
CONTINUOUS
10
5.1092
20
-3.27865
11
5.11183
21
-3.27713
0
LINE
8
BLACK
6
CONTINUOUS
10
5.11183
20
-3.27713
11
5.11394
21
-3.27551
0
LINE
8
BLACK
6
CONTINUOUS
10
5.11394
20
-3.27551
11
5.12574
21
-3.26371
0
LINE
8
BLACK
6
CONTINUOUS
10
5.12574
20
-3.26371
11
5.12618
21
-3.2632
0
LINE
8
BLACK
6
CONTINUOUS
10
5.12618
20
-3.2632
11
5.12618
21
-3.2632
0
LINE
8
BLACK
6
CONTINUOUS
10
5.12618
20
-3.2632
11
5.12618
21
-3.2632
0
LINE
8
BLACK
6
CONTINUOUS
10
5.12618
20
-3.2632
11
5.12618
21
-3.2632
0
LINE
8
BLACK
6
CONTINUOUS
10
5.12618
20
-3.2632
11
5.1272
21
-3.26187
0
LINE
8
BLACK
6
CONTINUOUS
10
5.1272
20
-3.26187
11
5.12724
21
-3.26183
0
LINE
8
BLACK
6
CONTINUOUS
10
5.12724
20
-3.26183
11
5.12732
21
-3.26172
0
LINE
8
BLACK
6
CONTINUOUS
10
5.12732
20
-3.26172
11
5.12732
21
-3.26172
0
LINE
8
BLACK
6
CONTINUOUS
10
5.12732
20
-3.26172
11
5.12732
21
-3.26172
0
LINE
8
BLACK
6
CONTINUOUS
10
5.12732
20
-3.26172
11
5.12732
21
-3.26172
0
LINE
8
BLACK
6
CONTINUOUS
10
5.12732
20
-3.26172
11
5.12821
21
-3.25991
0
LINE
8
BLACK
6
CONTINUOUS
10
5.12821
20
-3.25991
11
5.12908
21
-3.25815
0
LINE
8
BLACK
6
CONTINUOUS
10
5.12908
20
-3.25815
11
5.12987
21
-3.25521
0
LINE
8
BLACK
6
CONTINUOUS
10
5.12987
20
-3.25521
11
5.12987
21
-3.25521
0
LINE
8
BLACK
6
CONTINUOUS
10
5.12987
20
-3.25521
11
5.12987
21
-3.25521
0
LINE
8
BLACK
6
CONTINUOUS
10
5.12987
20
-3.25521
11
5.13022
21
-3.25257
0
LINE
8
BLACK
6
CONTINUOUS
10
5.13022
20
-3.25257
11
5.13022
21
-3.25257
0
LINE
8
BLACK
6
CONTINUOUS
10
5.13022
20
-3.25257
11
5.13022
21
-3.15666
0
LINE
8
BLACK
6
CONTINUOUS
10
5.13022
20
-3.15666
11
5.131
21
-3.15373
0
LINE
8
BLACK
6
CONTINUOUS
10
5.131
20
-3.15373
11
5.13193
21
-3.15251
0
LINE
8
BLACK
6
CONTINUOUS
10
5.13193
20
-3.15251
11
5.13751
21
-3.14693
0
LINE
8
BLACK
6
CONTINUOUS
10
5.13751
20
-3.14693
11
5.14014
21
-3.14542
0
LINE
8
BLACK
6
CONTINUOUS
10
5.14014
20
-3.14542
11
5.14166
21
-3.14522
0
LINE
8
BLACK
6
CONTINUOUS
10
5.14166
20
-3.14522
11
5.22814
21
-3.14522
0
LINE
8
BLACK
6
CONTINUOUS
10
5.22814
20
-3.14522
11
5.22852
21
-3.1452
0
LINE
8
BLACK
6
CONTINUOUS
10
5.22852
20
-3.1452
11
5.2296
21
-3.14512
0
LINE
8
BLACK
6
CONTINUOUS
10
5.2296
20
-3.14512
11
5.23293
21
-3.14429
0
LINE
8
BLACK
6
CONTINUOUS
10
5.23293
20
-3.14429
11
5.23571
21
-3.14307
0
LINE
8
BLACK
6
CONTINUOUS
10
5.23571
20
-3.14307
11
5.23799
21
-3.14169
0
LINE
8
BLACK
6
CONTINUOUS
10
5.23799
20
-3.14169
11
5.25918
21
-3.12474
0
LINE
8
BLACK
6
CONTINUOUS
10
5.25918
20
-3.12474
11
5.26055
21
-3.12342
0
LINE
8
BLACK
6
CONTINUOUS
10
5.26055
20
-3.12342
11
5.26113
21
-3.12275
0
LINE
8
BLACK
6
CONTINUOUS
10
5.26113
20
-3.12275
11
5.26196
21
-3.12177
0
LINE
8
BLACK
6
CONTINUOUS
10
5.26196
20
-3.12177
11
5.26215
21
-3.12154
0
LINE
8
BLACK
6
CONTINUOUS
10
5.26215
20
-3.12154
11
5.26232
21
-3.12133
0
LINE
8
BLACK
6
CONTINUOUS
10
5.26232
20
-3.12133
11
5.26408
21
-3.11776
0
LINE
8
BLACK
6
CONTINUOUS
10
5.26408
20
-3.11776
11
5.26487
21
-3.11482
0
LINE
8
BLACK
6
CONTINUOUS
10
5.26487
20
-3.11482
11
5.26487
21
-3.11482
0
LINE
8
BLACK
6
CONTINUOUS
10
5.26487
20
-3.11482
11
5.26487
21
-3.11482
0
LINE
8
BLACK
6
CONTINUOUS
10
5.26487
20
-3.11482
11
5.26522
21
-3.11218
0
LINE
8
BLACK
6
CONTINUOUS
10
5.26522
20
-3.11218
11
5.26522
21
-3.11218
0
LINE
8
BLACK
6
CONTINUOUS
10
5.26522
20
-3.11218
11
5.26522
21
-3.11211
0
LINE
8
BLACK
6
CONTINUOUS
10
5.26522
20
-3.11211
11
5.26522
21
-3.11208
0
LINE
8
BLACK
6
CONTINUOUS
10
5.26522
20
-3.11208
11
5.26523
21
-3.11199
0
LINE
8
BLACK
6
CONTINUOUS
10
5.26523
20
-3.11199
11
5.26524
21
-3.11199
0
LINE
8
BLACK
6
CONTINUOUS
10
5.26524
20
-3.11199
11
5.26566
21
-3.10987
0
LINE
8
BLACK
6
CONTINUOUS
10
5.26566
20
-3.10987
11
5.26582
21
-3.1095
0
LINE
8
BLACK
6
CONTINUOUS
10
5.26582
20
-3.1095
11
5.26582
21
-3.1095
0
LINE
8
BLACK
6
CONTINUOUS
10
5.26582
20
-3.1095
11
5.26582
21
-3.1095
0
LINE
8
BLACK
6
CONTINUOUS
10
5.26582
20
-3.1095
11
5.2664
21
-3.10658
0
LINE
8
BLACK
6
CONTINUOUS
10
5.2664
20
-3.10658
11
5.2664
21
-3.10658
0
LINE
8
BLACK
6
CONTINUOUS
10
5.2664
20
-3.10658
11
5.2664
21
-3.05342
0
LINE
8
BLACK
6
CONTINUOUS
10
5.2664
20
-3.05342
11
5.26582
21
-3.0505
0
LINE
8
BLACK
6
CONTINUOUS
10
5.26582
20
-3.0505
11
5.26508
21
-3.0494
0
LINE
8
BLACK
6
CONTINUOUS
10
5.26508
20
-3.0494
11
5.2644
21
-3.04802
0
LINE
8
BLACK
6
CONTINUOUS
10
5.2644
20
-3.04802
11
5.26365
21
-3.0458
0
LINE
8
BLACK
6
CONTINUOUS
10
5.26365
20
-3.0458
11
5.26365
21
-3.0458
0
LINE
8
BLACK
6
CONTINUOUS
10
5.26365
20
-3.0458
11
5.26213
21
-3.04317
0
LINE
8
BLACK
6
CONTINUOUS
10
5.26213
20
-3.04317
11
5.26051
21
-3.04106
0
LINE
8
BLACK
6
CONTINUOUS
10
5.26051
20
-3.04106
11
5.24371
21
-3.02426
0
LINE
8
BLACK
6
CONTINUOUS
10
5.24371
20
-3.02426
11
5.2432
21
-3.02382
0
LINE
8
BLACK
6
CONTINUOUS
10
5.2432
20
-3.02382
11
5.2432
21
-3.02382
0
LINE
8
BLACK
6
CONTINUOUS
10
5.2432
20
-3.02382
11
5.2432
21
-3.02382
0
LINE
8
BLACK
6
CONTINUOUS
10
5.2432
20
-3.02382
11
5.2432
21
-3.02382
0
LINE
8
BLACK
6
CONTINUOUS
10
5.2432
20
-3.02382
11
5.24188
21
-3.0228
0
LINE
8
BLACK
6
CONTINUOUS
10
5.24188
20
-3.0228
11
5.24183
21
-3.02276
0
LINE
8
BLACK
6
CONTINUOUS
10
5.24183
20
-3.02276
11
5.24172
21
-3.02268
0
LINE
8
BLACK
6
CONTINUOUS
10
5.24172
20
-3.02268
11
5.23815
21
-3.02092
0
LINE
8
BLACK
6
CONTINUOUS
10
5.23815
20
-3.02092
11
5.23815
21
-3.02092
0
LINE
8
BLACK
6
CONTINUOUS
10
5.23815
20
-3.02092
11
5.23521
21
-3.02013
0
LINE
8
BLACK
6
CONTINUOUS
10
5.23521
20
-3.02013
11
5.23521
21
-3.02013
0
LINE
8
BLACK
6
CONTINUOUS
10
5.23521
20
-3.02013
11
5.23257
21
-3.01978
0
LINE
8
BLACK
6
CONTINUOUS
10
5.23257
20
-3.01978
11
5.23257
21
-3.01978
0
LINE
8
BLACK
6
CONTINUOUS
10
5.23257
20
-3.01978
11
5.07259
21
-3.01978
0
LINE
8
BLACK
6
CONTINUOUS
10
5.07259
20
-3.01978
11
5.07165
21
-3.01986
0
LINE
8
BLACK
6
CONTINUOUS
10
5.07165
20
-3.01986
11
5.07102
21
-3.01991
0
LINE
8
BLACK
6
CONTINUOUS
10
5.07102
20
-3.01991
11
5.06923
21
-3.02018
0
LINE
8
BLACK
6
CONTINUOUS
10
5.06923
20
-3.02018
11
5.069
21
-3.02022
0
LINE
8
BLACK
6
CONTINUOUS
10
5.069
20
-3.02022
11
5.06529
21
-3.02168
0
LINE
8
BLACK
6
CONTINUOUS
10
5.06529
20
-3.02168
11
5.06529
21
-3.02168
0
LINE
8
BLACK
6
CONTINUOUS
10
5.06529
20
-3.02168
11
5.06273
21
-3.02333
0
LINE
8
BLACK
6
CONTINUOUS
10
5.06273
20
-3.02333
11
5.06273
21
-3.02333
0
LINE
8
BLACK
6
CONTINUOUS
10
5.06273
20
-3.02333
11
5.0607
21
-3.02505
0
LINE
8
BLACK
6
CONTINUOUS
10
5.0607
20
-3.02505
11
5.06069
21
-3.02505
0
LINE
8
BLACK
6
CONTINUOUS
10
5.06069
20
-3.02505
11
5.01378
21
-3.07665
0
LINE
8
BLACK
6
CONTINUOUS
10
5.01378
20
-3.07665
11
5.01378
21
-3.07665
0
LINE
8
BLACK
6
CONTINUOUS
10
5.01378
20
-3.07665
11
5.01344
21
-3.07708
0
LINE
8
BLACK
6
CONTINUOUS
10
5.01344
20
-3.07708
11
5.01344
21
-3.07708
0
LINE
8
BLACK
6
CONTINUOUS
10
5.01344
20
-3.07708
11
5.01254
21
-3.07831
0
LINE
8
BLACK
6
CONTINUOUS
10
5.01254
20
-3.07831
11
5.01254
21
-3.07831
0
LINE
8
BLACK
6
CONTINUOUS
10
5.01254
20
-3.07831
11
5.01253
21
-3.07831
0
LINE
8
BLACK
6
CONTINUOUS
10
5.01253
20
-3.07831
11
5.01092
21
-3.08169
0
LINE
8
BLACK
6
CONTINUOUS
10
5.01092
20
-3.08169
11
5.01092
21
-3.08169
0
LINE
8
BLACK
6
CONTINUOUS
10
5.01092
20
-3.08169
11
5.01013
21
-3.08462
0
LINE
8
BLACK
6
CONTINUOUS
10
5.01013
20
-3.08462
11
5.01013
21
-3.08462
0
LINE
8
BLACK
6
CONTINUOUS
10
5.01013
20
-3.08462
11
5.00978
21
-3.08727
0
LINE
8
BLACK
6
CONTINUOUS
10
5.00978
20
-3.08727
11
5.00978
21
-3.08727
0
LINE
8
BLACK
6
CONTINUOUS
10
5.00978
20
-3.08727
11
5.00978
21
-3.14334
0
LINE
8
BLACK
6
CONTINUOUS
10
5.00978
20
-3.14334
11
5.009
21
-3.14627
0
LINE
8
BLACK
6
CONTINUOUS
10
5.009
20
-3.14627
11
5.00807
21
-3.14749
0
LINE
8
BLACK
6
CONTINUOUS
10
5.00807
20
-3.14749
11
4.95749
21
-3.19807
0
LINE
8
BLACK
6
CONTINUOUS
10
4.95749
20
-3.19807
11
4.95486
21
-3.19958
0
LINE
8
BLACK
6
CONTINUOUS
10
4.95486
20
-3.19958
11
4.95334
21
-3.19978
0
LINE
8
BLACK
6
CONTINUOUS
10
4.95334
20
-3.19978
11
4.9021
21
-3.19978
0
LINE
8
BLACK
6
CONTINUOUS
10
4.9021
20
-3.19978
11
4.90143
21
-3.19983
0
LINE
8
BLACK
6
CONTINUOUS
10
4.90143
20
-3.19983
11
4.89958
21
-3.20007
0
LINE
8
BLACK
6
CONTINUOUS
10
4.89958
20
-3.20007
11
4.8958
21
-3.20135
0
LINE
8
BLACK
6
CONTINUOUS
10
4.8958
20
-3.20135
11
4.89317
21
-3.20287
0
LINE
8
BLACK
6
CONTINUOUS
10
4.89317
20
-3.20287
11
4.89317
21
-3.20287
0
LINE
8
BLACK
6
CONTINUOUS
10
4.89317
20
-3.20287
11
4.89106
21
-3.20449
0
LINE
8
BLACK
6
CONTINUOUS
10
4.89106
20
-3.20449
11
4.88766
21
-3.20789
0
LINE
8
BLACK
6
CONTINUOUS
10
4.88766
20
-3.20789
11
4.88426
21
-3.21129
0
LINE
8
BLACK
6
CONTINUOUS
10
4.88426
20
-3.21129
11
4.88426
21
-3.21129
0
LINE
8
BLACK
6
CONTINUOUS
10
4.88426
20
-3.21129
11
4.88426
21
-3.21129
0
LINE
8
BLACK
6
CONTINUOUS
10
4.88426
20
-3.21129
11
4.88382
21
-3.2118
0
LINE
8
BLACK
6
CONTINUOUS
10
4.88382
20
-3.2118
11
4.88382
21
-3.2118
0
LINE
8
BLACK
6
CONTINUOUS
10
4.88382
20
-3.2118
11
4.8828
21
-3.21312
0
LINE
8
BLACK
6
CONTINUOUS
10
4.8828
20
-3.21312
11
4.88276
21
-3.21317
0
LINE
8
BLACK
6
CONTINUOUS
10
4.88276
20
-3.21317
11
4.88268
21
-3.21328
0
LINE
8
BLACK
6
CONTINUOUS
10
4.88268
20
-3.21328
11
4.88092
21
-3.21685
0
LINE
8
BLACK
6
CONTINUOUS
10
4.88092
20
-3.21685
11
4.88092
21
-3.21685
0
LINE
8
BLACK
6
CONTINUOUS
10
4.88092
20
-3.21685
11
4.88013
21
-3.21979
0
LINE
8
BLACK
6
CONTINUOUS
10
4.88013
20
-3.21979
11
4.88013
21
-3.21979
0
LINE
8
BLACK
6
CONTINUOUS
10
4.88013
20
-3.21979
11
4.87978
21
-3.22243
0
LINE
8
BLACK
6
CONTINUOUS
10
4.87978
20
-3.22243
11
4.87978
21
-3.23476
0
LINE
8
BLACK
6
CONTINUOUS
10
4.87978
20
-3.23476
11
4.87967
21
-3.23591
0
LINE
8
BLACK
6
CONTINUOUS
10
4.87967
20
-3.23591
11
4.87935
21
-3.23752
0
LINE
8
BLACK
6
CONTINUOUS
10
4.87935
20
-3.23752
11
4.87935
21
-3.30248
0
LINE
8
BLACK
6
CONTINUOUS
10
4.87935
20
-3.30248
11
4.87954
21
-3.30346
0
LINE
8
BLACK
6
CONTINUOUS
10
4.87954
20
-3.30346
11
4.87967
21
-3.30409
0
LINE
8
BLACK
6
CONTINUOUS
10
4.87967
20
-3.30409
11
4.87978
21
-3.30524
0
LINE
8
BLACK
6
CONTINUOUS
10
4.87978
20
-3.30524
11
4.87978
21
-3.30834
0
LINE
8
BLACK
6
CONTINUOUS
10
4.87978
20
-3.30834
11
4.879
21
-3.31127
0
LINE
8
BLACK
6
CONTINUOUS
10
4.879
20
-3.31127
11
4.87807
21
-3.31249
0
LINE
8
BLACK
6
CONTINUOUS
10
4.87807
20
-3.31249
11
4.87249
21
-3.31807
0
LINE
8
BLACK
6
CONTINUOUS
10
4.87249
20
-3.31807
11
4.86986
21
-3.31958
0
LINE
8
BLACK
6
CONTINUOUS
10
4.86986
20
-3.31958
11
4.86834
21
-3.31978
0
LINE
8
BLACK
6
CONTINUOUS
10
4.86834
20
-3.31978
11
4.7921
21
-3.31978
0
LINE
8
BLACK
6
CONTINUOUS
10
4.7921
20
-3.31978
11
4.79143
21
-3.31983
0
LINE
8
BLACK
6
CONTINUOUS
10
4.79143
20
-3.31983
11
4.78958
21
-3.32007
0
LINE
8
BLACK
6
CONTINUOUS
10
4.78958
20
-3.32007
11
4.7858
21
-3.32135
0
LINE
8
BLACK
6
CONTINUOUS
10
4.7858
20
-3.32135
11
4.78317
21
-3.32287
0
LINE
8
BLACK
6
CONTINUOUS
10
4.78317
20
-3.32287
11
4.78317
21
-3.32287
0
LINE
8
BLACK
6
CONTINUOUS
10
4.78317
20
-3.32287
11
4.78106
21
-3.32449
0
LINE
8
BLACK
6
CONTINUOUS
10
4.78106
20
-3.32449
11
4.77266
21
-3.33289
0
LINE
8
BLACK
6
CONTINUOUS
10
4.77266
20
-3.33289
11
4.76426
21
-3.34129
0
LINE
8
BLACK
6
CONTINUOUS
10
4.76426
20
-3.34129
11
4.76426
21
-3.34129
0
LINE
8
BLACK
6
CONTINUOUS
10
4.76426
20
-3.34129
11
4.76426
21
-3.34129
0
LINE
8
BLACK
6
CONTINUOUS
10
4.76426
20
-3.34129
11
4.76382
21
-3.3418
0
LINE
8
BLACK
6
CONTINUOUS
10
4.76382
20
-3.3418
11
4.76382
21
-3.3418
0
LINE
8
BLACK
6
CONTINUOUS
10
4.76382
20
-3.3418
11
4.7628
21
-3.34312
0
LINE
8
BLACK
6
CONTINUOUS
10
4.7628
20
-3.34312
11
4.76276
21
-3.34317
0
LINE
8
BLACK
6
CONTINUOUS
10
4.76276
20
-3.34317
11
4.76268
21
-3.34328
0
LINE
8
BLACK
6
CONTINUOUS
10
4.76268
20
-3.34328
11
4.76092
21
-3.34685
0
LINE
8
BLACK
6
CONTINUOUS
10
4.76092
20
-3.34685
11
4.76092
21
-3.34685
0
LINE
8
BLACK
6
CONTINUOUS
10
4.76092
20
-3.34685
11
4.76013
21
-3.34979
0
LINE
8
BLACK
6
CONTINUOUS
10
4.76013
20
-3.34979
11
4.76013
21
-3.34979
0
LINE
8
BLACK
6
CONTINUOUS
10
4.76013
20
-3.34979
11
4.75978
21
-3.35243
0
LINE
8
BLACK
6
CONTINUOUS
10
4.75978
20
-3.35243
11
4.75978
21
-3.389
0
LINE
8
BLACK
6
CONTINUOUS
10
4.75978
20
-3.389
11
4.759
21
-3.39194
0
LINE
8
BLACK
6
CONTINUOUS
10
4.759
20
-3.39194
11
4.75685
21
-3.39408
0
LINE
8
BLACK
6
CONTINUOUS
10
4.75685
20
-3.39408
11
4.75392
21
-3.39487
0
LINE
8
BLACK
6
CONTINUOUS
10
4.75392
20
-3.39487
11
4.73367
21
-3.39487
0
LINE
8
BLACK
6
CONTINUOUS
10
4.73367
20
-3.39487
11
4.73105
21
-3.39478
0
LINE
8
BLACK
6
CONTINUOUS
10
4.73105
20
-3.39478
11
4.73105
21
-3.39478
0
LINE
8
BLACK
6
CONTINUOUS
10
4.73105
20
-3.39478
11
4.72936
21
-3.39519
0
LINE
8
BLACK
6
CONTINUOUS
10
4.72936
20
-3.39519
11
4.72907
21
-3.39525
0
LINE
8
BLACK
6
CONTINUOUS
10
4.72907
20
-3.39525
11
4.72735
21
-3.39548
0
LINE
8
BLACK
6
CONTINUOUS
10
4.72735
20
-3.39548
11
4.72735
21
-3.39548
0
LINE
8
BLACK
6
CONTINUOUS
10
4.72735
20
-3.39548
11
4.72678
21
-3.39573
0
LINE
8
BLACK
6
CONTINUOUS
10
4.72678
20
-3.39573
11
4.72583
21
-3.39605
0
LINE
8
BLACK
6
CONTINUOUS
10
4.72583
20
-3.39605
11
4.72522
21
-3.3962
0
LINE
8
BLACK
6
CONTINUOUS
10
4.72522
20
-3.3962
11
4.72522
21
-3.3962
0
LINE
8
BLACK
6
CONTINUOUS
10
4.72522
20
-3.3962
11
4.72371
21
-3.39705
0
LINE
8
BLACK
6
CONTINUOUS
10
4.72371
20
-3.39705
11
4.72344
21
-3.39718
0
LINE
8
BLACK
6
CONTINUOUS
10
4.72344
20
-3.39718
11
4.72185
21
-3.39787
0
LINE
8
BLACK
6
CONTINUOUS
10
4.72185
20
-3.39787
11
4.72136
21
-3.39827
0
LINE
8
BLACK
6
CONTINUOUS
10
4.72136
20
-3.39827
11
4.72053
21
-3.39883
0
LINE
8
BLACK
6
CONTINUOUS
10
4.72053
20
-3.39883
11
4.71999
21
-3.39914
0
LINE
8
BLACK
6
CONTINUOUS
10
4.71999
20
-3.39914
11
4.71999
21
-3.39914
0
LINE
8
BLACK
6
CONTINUOUS
10
4.71999
20
-3.39914
11
4.71876
21
-3.40037
0
LINE
8
BLACK
6
CONTINUOUS
10
4.71876
20
-3.40037
11
4.71854
21
-3.40057
0
LINE
8
BLACK
6
CONTINUOUS
10
4.71854
20
-3.40057
11
4.7172
21
-3.40166
0
LINE
8
BLACK
6
CONTINUOUS
10
4.7172
20
-3.40166
11
4.7172
21
-3.40166
0
LINE
8
BLACK
6
CONTINUOUS
10
4.7172
20
-3.40166
11
4.71683
21
-3.40217
0
LINE
8
BLACK
6
CONTINUOUS
10
4.71683
20
-3.40217
11
4.71619
21
-3.40294
0
LINE
8
BLACK
6
CONTINUOUS
10
4.71619
20
-3.40294
11
4.70156
21
-3.41757
0
LINE
8
BLACK
6
CONTINUOUS
10
4.70156
20
-3.41757
11
4.67743
21
-3.4417
0
LINE
8
BLACK
6
CONTINUOUS
10
4.67743
20
-3.4417
11
4.67647
21
-3.4426
0
LINE
8
BLACK
6
CONTINUOUS
10
4.67647
20
-3.4426
11
4.6755
21
-3.44349
0
LINE
8
BLACK
6
CONTINUOUS
10
4.6755
20
-3.44349
11
4.6755
21
-3.44349
0
LINE
8
BLACK
6
CONTINUOUS
10
4.6755
20
-3.44349
11
4.67461
21
-3.44497
0
LINE
8
BLACK
6
CONTINUOUS
10
4.67461
20
-3.44497
11
4.67444
21
-3.44522
0
LINE
8
BLACK
6
CONTINUOUS
10
4.67444
20
-3.44522
11
4.67339
21
-3.4466
0
LINE
8
BLACK
6
CONTINUOUS
10
4.67339
20
-3.4466
11
4.67339
21
-3.4466
0
LINE
8
BLACK
6
CONTINUOUS
10
4.67339
20
-3.4466
11
4.67316
21
-3.44719
0
LINE
8
BLACK
6
CONTINUOUS
10
4.67316
20
-3.44719
11
4.67271
21
-3.44808
0
LINE
8
BLACK
6
CONTINUOUS
10
4.67271
20
-3.44808
11
4.67239
21
-3.44862
0
LINE
8
BLACK
6
CONTINUOUS
10
4.67239
20
-3.44862
11
4.67239
21
-3.44862
0
LINE
8
BLACK
6
CONTINUOUS
10
4.67239
20
-3.44862
11
4.67192
21
-3.45029
0
LINE
8
BLACK
6
CONTINUOUS
10
4.67192
20
-3.45029
11
4.67182
21
-3.45057
0
LINE
8
BLACK
6
CONTINUOUS
10
4.67182
20
-3.45057
11
4.67119
21
-3.45218
0
LINE
8
BLACK
6
CONTINUOUS
10
4.67119
20
-3.45218
11
4.67119
21
-3.45218
0
LINE
8
BLACK
6
CONTINUOUS
10
4.67119
20
-3.45218
11
4.67112
21
-3.45281
0
LINE
8
BLACK
6
CONTINUOUS
10
4.67112
20
-3.45281
11
4.67094
21
-3.45379
0
LINE
8
BLACK
6
CONTINUOUS
10
4.67094
20
-3.45379
11
4.67077
21
-3.4544
0
LINE
8
BLACK
6
CONTINUOUS
10
4.67077
20
-3.4544
11
4.67077
21
-3.4544
0
LINE
8
BLACK
6
CONTINUOUS
10
4.67077
20
-3.4544
11
4.67077
21
-3.45613
0
LINE
8
BLACK
6
CONTINUOUS
10
4.67077
20
-3.45613
11
4.67075
21
-3.45643
0
LINE
8
BLACK
6
CONTINUOUS
10
4.67075
20
-3.45643
11
4.67058
21
-3.45815
0
LINE
8
BLACK
6
CONTINUOUS
10
4.67058
20
-3.45815
11
4.67068
21
-3.45877
0
LINE
8
BLACK
6
CONTINUOUS
10
4.67068
20
-3.45877
11
4.67077
21
-3.45977
0
LINE
8
BLACK
6
CONTINUOUS
10
4.67077
20
-3.45977
11
4.67077
21
-3.62164
0
LINE
8
BLACK
6
CONTINUOUS
10
4.67077
20
-3.62164
11
4.66998
21
-3.62458
0
LINE
8
BLACK
6
CONTINUOUS
10
4.66998
20
-3.62458
11
4.66978
21
-3.6249
0
LINE
8
BLACK
6
CONTINUOUS
10
4.66978
20
-3.6249
11
4.66938
21
-3.6255
0
LINE
8
BLACK
6
CONTINUOUS
10
4.66938
20
-3.6255
11
4.66938
21
-3.6255
0
LINE
8
BLACK
6
CONTINUOUS
10
4.66938
20
-3.6255
11
4.6688
21
-3.62842
0
LINE
8
BLACK
6
CONTINUOUS
10
4.6688
20
-3.62842
11
4.6688
21
-3.68158
0
LINE
8
BLACK
6
CONTINUOUS
10
4.6688
20
-3.68158
11
4.66938
21
-3.6845
0
LINE
8
BLACK
6
CONTINUOUS
10
4.7648
20
-3.53393
11
4.76533
21
-3.53688
0
LINE
8
BLACK
6
CONTINUOUS
10
4.76533
20
-3.53688
11
4.76631
21
-3.53975
0
LINE
8
BLACK
6
CONTINUOUS
10
4.76631
20
-3.53975
11
4.76748
21
-3.54214
0
LINE
8
BLACK
6
CONTINUOUS
10
4.76748
20
-3.54214
11
4.76748
21
-3.54214
0
LINE
8
BLACK
6
CONTINUOUS
10
4.76748
20
-3.54214
11
4.77476
21
-3.55306
0
LINE
8
BLACK
6
CONTINUOUS
10
4.77476
20
-3.55306
11
4.77627
21
-3.55484
0
LINE
8
BLACK
6
CONTINUOUS
10
4.77627
20
-3.55484
11
4.77822
21
-3.55667
0
LINE
8
BLACK
6
CONTINUOUS
10
4.77822
20
-3.55667
11
4.77822
21
-3.55667
0
LINE
8
BLACK
6
CONTINUOUS
10
4.77822
20
-3.55667
11
4.77899
21
-3.55732
0
LINE
8
BLACK
6
CONTINUOUS
10
4.77899
20
-3.55732
11
4.77899
21
-3.55732
0
LINE
8
BLACK
6
CONTINUOUS
10
4.77899
20
-3.55732
11
4.78256
21
-3.55908
0
LINE
8
BLACK
6
CONTINUOUS
10
4.78256
20
-3.55908
11
4.78256
21
-3.55908
0
LINE
8
BLACK
6
CONTINUOUS
10
4.78256
20
-3.55908
11
4.78403
21
-3.55948
0
LINE
8
BLACK
6
CONTINUOUS
10
4.78403
20
-3.55948
11
4.7855
21
-3.55987
0
LINE
8
BLACK
6
CONTINUOUS
10
4.7855
20
-3.55987
11
4.7855
21
-3.55987
0
LINE
8
BLACK
6
CONTINUOUS
10
4.7855
20
-3.55987
11
4.7855
21
-3.55987
0
LINE
8
BLACK
6
CONTINUOUS
10
4.7855
20
-3.55987
11
4.78813
21
-3.56022
0
LINE
8
BLACK
6
CONTINUOUS
10
4.78813
20
-3.56022
11
4.78814
21
-3.56022
0
LINE
8
BLACK
6
CONTINUOUS
10
4.78814
20
-3.56022
11
4.81334
21
-3.56022
0
LINE
8
BLACK
6
CONTINUOUS
10
4.81334
20
-3.56022
11
4.81627
21
-3.561
0
LINE
8
BLACK
6
CONTINUOUS
10
4.81627
20
-3.561
11
4.81749
21
-3.56193
0
LINE
8
BLACK
6
CONTINUOUS
10
4.81749
20
-3.56193
11
4.83629
21
-3.58074
0
LINE
8
BLACK
6
CONTINUOUS
10
4.83629
20
-3.58074
11
4.83629
21
-3.58074
0
LINE
8
BLACK
6
CONTINUOUS
10
4.83629
20
-3.58074
11
4.83629
21
-3.58074
0
LINE
8
BLACK
6
CONTINUOUS
10
4.83629
20
-3.58074
11
4.8368
21
-3.58118
0
LINE
8
BLACK
6
CONTINUOUS
10
4.8368
20
-3.58118
11
4.8368
21
-3.58118
0
LINE
8
BLACK
6
CONTINUOUS
10
4.8368
20
-3.58118
11
4.83812
21
-3.5822
0
LINE
8
BLACK
6
CONTINUOUS
10
4.83812
20
-3.5822
11
4.83817
21
-3.58224
0
LINE
8
BLACK
6
CONTINUOUS
10
4.83817
20
-3.58224
11
4.83828
21
-3.58232
0
LINE
8
BLACK
6
CONTINUOUS
10
4.83828
20
-3.58232
11
4.84176
21
-3.58404
0
LINE
8
BLACK
6
CONTINUOUS
10
4.84176
20
-3.58404
11
4.84185
21
-3.58408
0
LINE
8
BLACK
6
CONTINUOUS
10
4.84185
20
-3.58408
11
4.84185
21
-3.58408
0
LINE
8
BLACK
6
CONTINUOUS
10
4.84185
20
-3.58408
11
4.84185
21
-3.58408
0
LINE
8
BLACK
6
CONTINUOUS
10
4.84185
20
-3.58408
11
4.84332
21
-3.58448
0
LINE
8
BLACK
6
CONTINUOUS
10
4.84332
20
-3.58448
11
4.84479
21
-3.58487
0
LINE
8
BLACK
6
CONTINUOUS
10
4.84479
20
-3.58487
11
4.84479
21
-3.58487
0
LINE
8
BLACK
6
CONTINUOUS
10
4.84479
20
-3.58487
11
4.84479
21
-3.58487
0
LINE
8
BLACK
6
CONTINUOUS
10
4.84479
20
-3.58487
11
4.84743
21
-3.58522
0
LINE
8
BLACK
6
CONTINUOUS
10
4.84743
20
-3.58522
11
4.84743
21
-3.58522
0
LINE
8
BLACK
6
CONTINUOUS
10
4.84743
20
-3.58522
11
4.8627
21
-3.58522
0
LINE
8
BLACK
6
CONTINUOUS
10
4.8627
20
-3.58522
11
4.86564
21
-3.586
0
LINE
8
BLACK
6
CONTINUOUS
10
4.86564
20
-3.586
11
4.86712
21
-3.58722
0
LINE
8
BLACK
6
CONTINUOUS
10
4.86712
20
-3.58722
11
4.89227
21
-3.61597
0
LINE
8
BLACK
6
CONTINUOUS
10
4.89227
20
-3.61597
11
4.89333
21
-3.61718
0
LINE
8
BLACK
6
CONTINUOUS
10
4.89333
20
-3.61718
11
4.89467
21
-3.6199
0
LINE
8
BLACK
6
CONTINUOUS
10
4.89467
20
-3.6199
11
4.89478
21
-3.62104
0
LINE
8
BLACK
6
CONTINUOUS
10
4.89478
20
-3.62104
11
4.89478
21
-3.62718
0
LINE
8
BLACK
6
CONTINUOUS
10
4.89478
20
-3.62718
11
4.89496
21
-3.62907
0
LINE
8
BLACK
6
CONTINUOUS
10
4.89496
20
-3.62907
11
4.89496
21
-3.62907
0
LINE
8
BLACK
6
CONTINUOUS
10
4.89496
20
-3.62907
11
4.89536
21
-3.63121
0
LINE
8
BLACK
6
CONTINUOUS
10
4.89536
20
-3.63121
11
4.89548
21
-3.63176
0
LINE
8
BLACK
6
CONTINUOUS
10
4.89548
20
-3.63176
11
4.89548
21
-3.63176
0
LINE
8
BLACK
6
CONTINUOUS
10
4.89548
20
-3.63176
11
4.89717
21
-3.63537
0
LINE
8
BLACK
6
CONTINUOUS
10
4.89717
20
-3.63537
11
4.89717
21
-3.63537
0
LINE
8
BLACK
6
CONTINUOUS
10
4.89717
20
-3.63537
11
4.89717
21
-3.63537
0
LINE
8
BLACK
6
CONTINUOUS
10
4.89717
20
-3.63537
11
4.89717
21
-3.63537
0
LINE
8
BLACK
6
CONTINUOUS
10
4.89717
20
-3.63537
11
4.89897
21
-3.63782
0
LINE
8
BLACK
6
CONTINUOUS
10
4.89897
20
-3.63782
11
4.89897
21
-3.63782
0
LINE
8
BLACK
6
CONTINUOUS
10
4.89897
20
-3.63782
11
4.90082
21
-3.63974
0
LINE
8
BLACK
6
CONTINUOUS
10
4.90082
20
-3.63974
11
4.91455
21
-3.65072
0
LINE
8
BLACK
6
CONTINUOUS
10
4.91455
20
-3.65072
11
4.92216
21
-3.65681
0
LINE
8
BLACK
6
CONTINUOUS
10
4.92216
20
-3.65681
11
4.9224
21
-3.65699
0
LINE
8
BLACK
6
CONTINUOUS
10
4.9224
20
-3.65699
11
4.92247
21
-3.65704
0
LINE
8
BLACK
6
CONTINUOUS
10
4.92247
20
-3.65704
11
4.92336
21
-3.65765
0
LINE
8
BLACK
6
CONTINUOUS
10
4.92336
20
-3.65765
11
4.92648
21
-3.65908
0
LINE
8
BLACK
6
CONTINUOUS
10
4.92648
20
-3.65908
11
4.92648
21
-3.65908
0
LINE
8
BLACK
6
CONTINUOUS
10
4.92648
20
-3.65908
11
4.92648
21
-3.65908
0
LINE
8
BLACK
6
CONTINUOUS
10
4.92648
20
-3.65908
11
4.92648
21
-3.65908
0
LINE
8
BLACK
6
CONTINUOUS
10
4.92648
20
-3.65908
11
4.92824
21
-3.65955
0
LINE
8
BLACK
6
CONTINUOUS
10
4.92824
20
-3.65955
11
4.92941
21
-3.65987
0
LINE
8
BLACK
6
CONTINUOUS
10
4.92941
20
-3.65987
11
4.92941
21
-3.65987
0
LINE
8
BLACK
6
CONTINUOUS
10
4.92941
20
-3.65987
11
4.92941
21
-3.65987
0
LINE
8
BLACK
6
CONTINUOUS
10
4.92941
20
-3.65987
11
4.93206
21
-3.66022
0
LINE
8
BLACK
6
CONTINUOUS
10
4.93206
20
-3.66022
11
4.93206
21
-3.66022
0
LINE
8
BLACK
6
CONTINUOUS
10
4.93206
20
-3.66022
11
5.13413
21
-3.66022
0
LINE
8
BLACK
6
CONTINUOUS
10
5.13413
20
-3.66022
11
5.13443
21
-3.66018
0
LINE
8
BLACK
6
CONTINUOUS
10
5.13443
20
-3.66018
11
5.13678
21
-3.65987
0
LINE
8
BLACK
6
CONTINUOUS
10
5.13678
20
-3.65987
11
5.13678
21
-3.65987
0
LINE
8
BLACK
6
CONTINUOUS
10
5.13678
20
-3.65987
11
5.13678
21
-3.65987
0
LINE
8
BLACK
6
CONTINUOUS
10
5.13678
20
-3.65987
11
5.13971
21
-3.65908
0
LINE
8
BLACK
6
CONTINUOUS
10
5.13971
20
-3.65908
11
5.14098
21
-3.65865
0
LINE
8
BLACK
6
CONTINUOUS
10
5.14098
20
-3.65865
11
5.14429
21
-3.65644
0
LINE
8
BLACK
6
CONTINUOUS
10
5.14429
20
-3.65644
11
5.14536
21
-3.65536
0
LINE
8
BLACK
6
CONTINUOUS
10
5.14536
20
-3.65536
11
5.14644
21
-3.65429
0
LINE
8
BLACK
6
CONTINUOUS
10
5.14644
20
-3.65429
11
5.14644
21
-3.65429
0
LINE
8
BLACK
6
CONTINUOUS
10
5.14644
20
-3.65429
11
5.14644
21
-3.65429
0
LINE
8
BLACK
6
CONTINUOUS
10
5.14644
20
-3.65429
11
5.14732
21
-3.65329
0
LINE
8
BLACK
6
CONTINUOUS
10
5.14732
20
-3.65329
11
5.14908
21
-3.64971
0
LINE
8
BLACK
6
CONTINUOUS
10
5.14908
20
-3.64971
11
5.14987
21
-3.64678
0
LINE
8
BLACK
6
CONTINUOUS
10
5.14987
20
-3.64678
11
5.14987
21
-3.64678
0
LINE
8
BLACK
6
CONTINUOUS
10
5.14987
20
-3.64678
11
5.14987
21
-3.64678
0
LINE
8
BLACK
6
CONTINUOUS
10
5.14987
20
-3.64678
11
5.15022
21
-3.64413
0
LINE
8
BLACK
6
CONTINUOUS
10
5.15022
20
-3.64413
11
5.15022
21
-3.64413
0
LINE
8
BLACK
6
CONTINUOUS
10
5.15022
20
-3.64413
11
5.15022
21
-3.62587
0
LINE
8
BLACK
6
CONTINUOUS
10
5.15022
20
-3.62587
11
5.15022
21
-3.62587
0
LINE
8
BLACK
6
CONTINUOUS
10
5.15022
20
-3.62587
11
5.14987
21
-3.62322
0
LINE
8
BLACK
6
CONTINUOUS
10
5.14987
20
-3.62322
11
5.14987
21
-3.62322
0
LINE
8
BLACK
6
CONTINUOUS
10
5.14987
20
-3.62322
11
5.14987
21
-3.62322
0
LINE
8
BLACK
6
CONTINUOUS
10
5.14987
20
-3.62322
11
5.14908
21
-3.62029
0
LINE
8
BLACK
6
CONTINUOUS
10
5.14908
20
-3.62029
11
5.14865
21
-3.61902
0
LINE
8
BLACK
6
CONTINUOUS
10
5.14865
20
-3.61902
11
5.14644
21
-3.61571
0
LINE
8
BLACK
6
CONTINUOUS
10
5.14644
20
-3.61571
11
5.14539
21
-3.61467
0
LINE
8
BLACK
6
CONTINUOUS
10
5.14539
20
-3.61467
11
5.14429
21
-3.61356
0
LINE
8
BLACK
6
CONTINUOUS
10
5.14429
20
-3.61356
11
5.14429
21
-3.61356
0
LINE
8
BLACK
6
CONTINUOUS
10
5.14429
20
-3.61356
11
5.14429
21
-3.61356
0
LINE
8
BLACK
6
CONTINUOUS
10
5.14429
20
-3.61356
11
5.14329
21
-3.61268
0
LINE
8
BLACK
6
CONTINUOUS
10
5.14329
20
-3.61268
11
5.13971
21
-3.61092
0
LINE
8
BLACK
6
CONTINUOUS
10
5.13971
20
-3.61092
11
5.13971
21
-3.61092
0
LINE
8
BLACK
6
CONTINUOUS
10
5.13971
20
-3.61092
11
5.13971
21
-3.61092
0
LINE
8
BLACK
6
CONTINUOUS
10
5.13971
20
-3.61092
11
5.13679
21
-3.61013
0
LINE
8
BLACK
6
CONTINUOUS
10
5.13679
20
-3.61013
11
5.13416
21
-3.60862
0
LINE
8
BLACK
6
CONTINUOUS
10
5.13416
20
-3.60862
11
5.13264
21
-3.60599
0
LINE
8
BLACK
6
CONTINUOUS
10
5.13264
20
-3.60599
11
5.13264
21
-3.60295
0
LINE
8
BLACK
6
CONTINUOUS
10
5.13264
20
-3.60295
11
5.13416
21
-3.60032
0
LINE
8
BLACK
6
CONTINUOUS
10
5.13416
20
-3.60032
11
5.13569
21
-3.59929
0
LINE
8
BLACK
6
CONTINUOUS
10
5.13569
20
-3.59929
11
5.13568
21
-3.59926
0
LINE
8
BLACK
6
CONTINUOUS
10
5.13568
20
-3.59926
11
5.13601
21
-3.59907
0
LINE
8
BLACK
6
CONTINUOUS
10
5.13601
20
-3.59907
11
5.13601
21
-3.59907
0
LINE
8
BLACK
6
CONTINUOUS
10
5.13601
20
-3.59907
11
5.14057
21
-3.59557
0
LINE
8
BLACK
6
CONTINUOUS
10
5.14057
20
-3.59557
11
5.14407
21
-3.59101
0
LINE
8
BLACK
6
CONTINUOUS
10
5.14407
20
-3.59101
11
5.14407
21
-3.59101
0
LINE
8
BLACK
6
CONTINUOUS
10
5.14407
20
-3.59101
11
5.14407
21
-3.59101
0
LINE
8
BLACK
6
CONTINUOUS
10
5.14407
20
-3.59101
11
5.14627
21
-3.5857
0
LINE
8
BLACK
6
CONTINUOUS
10
5.14627
20
-3.5857
11
5.14702
21
-3.58
0
LINE
8
BLACK
6
CONTINUOUS
10
5.14702
20
-3.58
11
5.14702
21
-3.58
0
LINE
8
BLACK
6
CONTINUOUS
10
5.14702
20
-3.58
11
5.14627
21
-3.5743
0
LINE
8
BLACK
6
CONTINUOUS
10
5.14627
20
-3.5743
11
5.14627
21
-3.5743
0
LINE
8
BLACK
6
CONTINUOUS
10
5.14627
20
-3.5743
11
5.14407
21
-3.56899
0
LINE
8
BLACK
6
CONTINUOUS
10
5.14407
20
-3.56899
11
5.14407
21
-3.56899
0
LINE
8
BLACK
6
CONTINUOUS
10
5.14407
20
-3.56899
11
5.14407
21
-3.56899
0
LINE
8
BLACK
6
CONTINUOUS
10
5.14407
20
-3.56899
11
5.14057
21
-3.56443
0
LINE
8
BLACK
6
CONTINUOUS
10
5.14057
20
-3.56443
11
5.14057
21
-3.56443
0
LINE
8
BLACK
6
CONTINUOUS
10
5.14057
20
-3.56443
11
5.14057
21
-3.56443
0
LINE
8
BLACK
6
CONTINUOUS
10
5.14057
20
-3.56443
11
5.13601
21
-3.56093
0
LINE
8
BLACK
6
CONTINUOUS
10
5.13601
20
-3.56093
11
5.13601
21
-3.56093
0
LINE
8
BLACK
6
CONTINUOUS
10
5.13601
20
-3.56093
11
5.1307
21
-3.55873
0
LINE
8
BLACK
6
CONTINUOUS
10
5.1307
20
-3.55873
11
5.125
21
-3.55798
0
LINE
8
BLACK
6
CONTINUOUS
10
5.125
20
-3.55798
11
5.125
21
-3.55798
0
LINE
8
BLACK
6
CONTINUOUS
10
5.125
20
-3.55798
11
5.1193
21
-3.55873
0
LINE
8
BLACK
6
CONTINUOUS
10
5.1193
20
-3.55873
11
5.1193
21
-3.55873
0
LINE
8
BLACK
6
CONTINUOUS
10
5.1193
20
-3.55873
11
5.11399
21
-3.56093
0
LINE
8
BLACK
6
CONTINUOUS
10
5.11399
20
-3.56093
11
5.11399
21
-3.56093
0
LINE
8
BLACK
6
CONTINUOUS
10
5.11399
20
-3.56093
11
5.11351
21
-3.5613
0
LINE
8
BLACK
6
CONTINUOUS
10
5.11351
20
-3.5613
11
5.11071
21
-3.56246
0
LINE
8
BLACK
6
CONTINUOUS
10
5.11071
20
-3.56246
11
5.1077
21
-3.56206
0
LINE
8
BLACK
6
CONTINUOUS
10
5.1077
20
-3.56206
11
5.10529
21
-3.56022
0
LINE
8
BLACK
6
CONTINUOUS
10
5.10529
20
-3.56022
11
5.10412
21
-3.55741
0
LINE
8
BLACK
6
CONTINUOUS
10
5.10412
20
-3.55741
11
5.10407
21
-3.55664
0
LINE
8
BLACK
6
CONTINUOUS
10
5.10407
20
-3.55664
11
5.10407
21
-3.55441
0
LINE
8
BLACK
6
CONTINUOUS
10
5.10407
20
-3.55441
11
5.10407
21
-3.55441
0
LINE
8
BLACK
6
CONTINUOUS
10
5.10407
20
-3.55441
11
5.10349
21
-3.55148
0
LINE
8
BLACK
6
CONTINUOUS
10
5.10349
20
-3.55148
11
5.10128
21
-3.54817
0
LINE
8
BLACK
6
CONTINUOUS
10
5.10128
20
-3.54817
11
5.10128
21
-3.54817
0
LINE
8
BLACK
6
CONTINUOUS
10
5.10128
20
-3.54817
11
5.09796
21
-3.54596
0
LINE
8
BLACK
6
CONTINUOUS
10
5.09796
20
-3.54596
11
5.09504
21
-3.54537
0
LINE
8
BLACK
6
CONTINUOUS
10
5.09504
20
-3.54537
11
5.05989
21
-3.54537
0
LINE
8
BLACK
6
CONTINUOUS
10
5.05989
20
-3.54537
11
5.05695
21
-3.54459
0
LINE
8
BLACK
6
CONTINUOUS
10
5.05695
20
-3.54459
11
5.05481
21
-3.54244
0
LINE
8
BLACK
6
CONTINUOUS
10
5.05481
20
-3.54244
11
5.05402
21
-3.53951
0
LINE
8
BLACK
6
CONTINUOUS
10
5.05402
20
-3.53951
11
5.05481
21
-3.53657
0
LINE
8
BLACK
6
CONTINUOUS
10
5.05481
20
-3.53657
11
5.05617
21
-3.53497
0
LINE
8
BLACK
6
CONTINUOUS
10
5.05617
20
-3.53497
11
5.09932
21
-3.49967
0
LINE
8
BLACK
6
CONTINUOUS
10
5.09932
20
-3.49967
11
5.10063
21
-3.49838
0
LINE
8
BLACK
6
CONTINUOUS
10
5.10063
20
-3.49838
11
5.102
21
-3.49677
0
LINE
8
BLACK
6
CONTINUOUS
10
5.102
20
-3.49677
11
5.10232
21
-3.49637
0
LINE
8
BLACK
6
CONTINUOUS
10
5.10232
20
-3.49637
11
5.10408
21
-3.4928
0
LINE
8
BLACK
6
CONTINUOUS
10
5.10408
20
-3.4928
11
5.10487
21
-3.48986
0
LINE
8
BLACK
6
CONTINUOUS
10
5.10487
20
-3.48986
11
5.10487
21
-3.48986
0
LINE
8
BLACK
6
CONTINUOUS
10
5.10487
20
-3.48986
11
5.10487
21
-3.48986
0
LINE
8
BLACK
6
CONTINUOUS
10
5.10487
20
-3.48986
11
5.10522
21
-3.48722
0
LINE
8
BLACK
6
CONTINUOUS
10
5.10522
20
-3.48722
11
5.10522
21
-3.48722
0
LINE
8
BLACK
6
CONTINUOUS
10
5.10522
20
-3.48722
11
5.10522
21
-3.3571
0
LINE
8
BLACK
6
CONTINUOUS
10
5.10522
20
-3.3571
11
5.10517
21
-3.35643
0
LINE
8
BLACK
6
CONTINUOUS
10
5.10517
20
-3.35643
11
5.10493
21
-3.35458
0
LINE
8
BLACK
6
CONTINUOUS
10
5.10493
20
-3.35458
11
5.10493
21
-3.35458
0
LINE
8
BLACK
6
CONTINUOUS
10
5.10493
20
-3.35458
11
5.10478
21
-3.35414
0
LINE
8
BLACK
6
CONTINUOUS
10
5.10478
20
-3.35414
11
5.10447
21
-3.35225
0
LINE
8
BLACK
6
CONTINUOUS
10
5.10447
20
-3.35225
11
5.10447
21
-3.35102
0
LINE
8
BLACK
6
CONTINUOUS
10
5.10447
20
-3.35102
11
5.10447
21
-3.35102
0
LINE
8
BLACK
6
CONTINUOUS
10
5.10447
20
-3.35102
11
5.10389
21
-3.3481
0
LINE
8
BLACK
6
CONTINUOUS
10
5.10389
20
-3.3481
11
5.10167
21
-3.34478
0
LINE
8
BLACK
6
CONTINUOUS
10
5.10167
20
-3.34478
11
5.10167
21
-3.34478
0
LINE
8
BLACK
6
CONTINUOUS
10
5.10167
20
-3.34478
11
5.09836
21
-3.34257
0
LINE
8
BLACK
6
CONTINUOUS
10
5.09836
20
-3.34257
11
5.09782
21
-3.34235
0
LINE
8
BLACK
6
CONTINUOUS
10
5.09782
20
-3.34235
11
5.09785
21
-3.3423
0
LINE
8
BLACK
6
CONTINUOUS
10
5.09785
20
-3.3423
11
5.09571
21
-3.34124
0
LINE
8
BLACK
6
CONTINUOUS
10
5.09571
20
-3.34124
11
5.09543
21
-3.34098
0
LINE
8
BLACK
6
CONTINUOUS
10
5.09543
20
-3.34098
11
5.09371
21
-3.33926
0
LINE
8
BLACK
6
CONTINUOUS
10
5.09371
20
-3.33926
11
5.0932
21
-3.33882
0
LINE
8
BLACK
6
CONTINUOUS
10
5.0932
20
-3.33882
11
5.0932
21
-3.33882
0
LINE
8
BLACK
6
CONTINUOUS
10
5.0932
20
-3.33882
11
5.0932
21
-3.33882
0
LINE
8
BLACK
6
CONTINUOUS
10
5.0932
20
-3.33882
11
5.0932
21
-3.33882
0
LINE
8
BLACK
6
CONTINUOUS
10
5.0932
20
-3.33882
11
5.09188
21
-3.3378
0
LINE
8
BLACK
6
CONTINUOUS
10
5.09188
20
-3.3378
11
5.09183
21
-3.33776
0
LINE
8
BLACK
6
CONTINUOUS
10
5.09183
20
-3.33776
11
5.09172
21
-3.33768
0
LINE
8
BLACK
6
CONTINUOUS
10
5.09172
20
-3.33768
11
5.08815
21
-3.33592
0
LINE
8
BLACK
6
CONTINUOUS
10
5.08815
20
-3.33592
11
5.08815
21
-3.33592
0
LINE
8
BLACK
6
CONTINUOUS
10
5.08815
20
-3.33592
11
5.08521
21
-3.33513
0
LINE
8
BLACK
6
CONTINUOUS
10
5.08521
20
-3.33513
11
5.08521
21
-3.33513
0
LINE
8
BLACK
6
CONTINUOUS
10
5.08521
20
-3.33513
11
5.08257
21
-3.33478
0
LINE
8
BLACK
6
CONTINUOUS
10
5.08257
20
-3.33478
11
5.08257
21
-3.33478
0
LINE
8
BLACK
6
CONTINUOUS
10
5.08257
20
-3.33478
11
4.9971
21
-3.33478
0
LINE
8
BLACK
6
CONTINUOUS
10
4.9971
20
-3.33478
11
4.9971
21
-3.33478
0
LINE
8
BLACK
6
CONTINUOUS
10
4.9971
20
-3.33478
11
4.99643
21
-3.33483
0
LINE
8
BLACK
6
CONTINUOUS
10
4.99643
20
-3.33483
11
4.99458
21
-3.33507
0
LINE
8
BLACK
6
CONTINUOUS
10
4.99458
20
-3.33507
11
4.9908
21
-3.33635
0
LINE
8
BLACK
6
CONTINUOUS
10
4.9908
20
-3.33635
11
4.98817
21
-3.33787
0
LINE
8
BLACK
6
CONTINUOUS
10
4.98817
20
-3.33787
11
4.98817
21
-3.33787
0
LINE
8
BLACK
6
CONTINUOUS
10
4.98817
20
-3.33787
11
4.98606
21
-3.33949
0
LINE
8
BLACK
6
CONTINUOUS
10
4.98606
20
-3.33949
11
4.98431
21
-3.34124
0
LINE
8
BLACK
6
CONTINUOUS
10
4.98431
20
-3.34124
11
4.97926
21
-3.34629
0
LINE
8
BLACK
6
CONTINUOUS
10
4.97926
20
-3.34629
11
4.97926
21
-3.34629
0
LINE
8
BLACK
6
CONTINUOUS
10
4.97926
20
-3.34629
11
4.97926
21
-3.34629
0
LINE
8
BLACK
6
CONTINUOUS
10
4.97926
20
-3.34629
11
4.97882
21
-3.3468
0
LINE
8
BLACK
6
CONTINUOUS
10
4.97882
20
-3.3468
11
4.97882
21
-3.3468
0
LINE
8
BLACK
6
CONTINUOUS
10
4.97882
20
-3.3468
11
4.9778
21
-3.34812
0
LINE
8
BLACK
6
CONTINUOUS
10
4.9778
20
-3.34812
11
4.97776
21
-3.34817
0
LINE
8
BLACK
6
CONTINUOUS
10
4.97776
20
-3.34817
11
4.97768
21
-3.34828
0
LINE
8
BLACK
6
CONTINUOUS
10
4.97768
20
-3.34828
11
4.97592
21
-3.35185
0
LINE
8
BLACK
6
CONTINUOUS
10
4.97592
20
-3.35185
11
4.97592
21
-3.35185
0
LINE
8
BLACK
6
CONTINUOUS
10
4.97592
20
-3.35185
11
4.97513
21
-3.35479
0
LINE
8
BLACK
6
CONTINUOUS
10
4.97513
20
-3.35479
11
4.97513
21
-3.35479
0
LINE
8
BLACK
6
CONTINUOUS
10
4.97513
20
-3.35479
11
4.97478
21
-3.35743
0
LINE
8
BLACK
6
CONTINUOUS
10
4.97478
20
-3.35743
11
4.97478
21
-3.46334
0
LINE
8
BLACK
6
CONTINUOUS
10
4.97478
20
-3.46334
11
4.974
21
-3.46627
0
LINE
8
BLACK
6
CONTINUOUS
10
4.974
20
-3.46627
11
4.97307
21
-3.46749
0
LINE
8
BLACK
6
CONTINUOUS
10
4.97307
20
-3.46749
11
4.97249
21
-3.46807
0
LINE
8
BLACK
6
CONTINUOUS
10
4.97249
20
-3.46807
11
4.96986
21
-3.46958
0
LINE
8
BLACK
6
CONTINUOUS
10
4.96986
20
-3.46958
11
4.96834
21
-3.46978
0
LINE
8
BLACK
6
CONTINUOUS
10
4.96834
20
-3.46978
11
4.7821
21
-3.46978
0
LINE
8
BLACK
6
CONTINUOUS
10
4.7821
20
-3.46978
11
4.78143
21
-3.46983
0
LINE
8
BLACK
6
CONTINUOUS
10
4.78143
20
-3.46983
11
4.78143
21
-3.46983
0
LINE
8
BLACK
6
CONTINUOUS
10
4.78143
20
-3.46983
11
4.77958
21
-3.47007
0
LINE
8
BLACK
6
CONTINUOUS
10
4.77958
20
-3.47007
11
4.77958
21
-3.47007
0
LINE
8
BLACK
6
CONTINUOUS
10
4.77958
20
-3.47007
11
4.7758
21
-3.47135
0
LINE
8
BLACK
6
CONTINUOUS
10
4.7758
20
-3.47135
11
4.77317
21
-3.47287
0
LINE
8
BLACK
6
CONTINUOUS
10
4.77317
20
-3.47287
11
4.77317
21
-3.47287
0
LINE
8
BLACK
6
CONTINUOUS
10
4.77317
20
-3.47287
11
4.77106
21
-3.47449
0
LINE
8
BLACK
6
CONTINUOUS
10
4.77106
20
-3.47449
11
4.76926
21
-3.47629
0
LINE
8
BLACK
6
CONTINUOUS
10
4.76926
20
-3.47629
11
4.76926
21
-3.47629
0
LINE
8
BLACK
6
CONTINUOUS
10
4.76926
20
-3.47629
11
4.76882
21
-3.4768
0
LINE
8
BLACK
6
CONTINUOUS
10
4.76882
20
-3.4768
11
4.76882
21
-3.4768
0
LINE
8
BLACK
6
CONTINUOUS
10
4.76882
20
-3.4768
11
4.76768
21
-3.47828
0
LINE
8
BLACK
6
CONTINUOUS
10
4.76768
20
-3.47828
11
4.76768
21
-3.47828
0
LINE
8
BLACK
6
CONTINUOUS
10
4.76768
20
-3.47828
11
4.76592
21
-3.48185
0
LINE
8
BLACK
6
CONTINUOUS
10
4.76592
20
-3.48185
11
4.76592
21
-3.48185
0
LINE
8
BLACK
6
CONTINUOUS
10
4.76592
20
-3.48185
11
4.76513
21
-3.48479
0
LINE
8
BLACK
6
CONTINUOUS
10
4.76513
20
-3.48479
11
4.76513
21
-3.48479
0
LINE
8
BLACK
6
CONTINUOUS
10
4.76513
20
-3.48479
11
4.76478
21
-3.48743
0
LINE
8
BLACK
6
CONTINUOUS
10
4.76478
20
-3.48743
11
4.76478
21
-3.53339
0
LINE
8
BLACK
6
CONTINUOUS
10
4.76478
20
-3.53339
11
4.7648
21
-3.53393
0
LINE
8
BLACK
6
CONTINUOUS
10
5.29418
20
-3.1095
11
5.29418
21
-3.1095
0
LINE
8
BLACK
6
CONTINUOUS
10
5.29418
20
-3.1095
11
5.29492
21
-3.1106
0
LINE
8
BLACK
6
CONTINUOUS
10
5.29492
20
-3.1106
11
5.2956
21
-3.11198
0
LINE
8
BLACK
6
CONTINUOUS
10
5.2956
20
-3.11198
11
5.29635
21
-3.1142
0
LINE
8
BLACK
6
CONTINUOUS
10
5.29635
20
-3.1142
11
5.29787
21
-3.11683
0
LINE
8
BLACK
6
CONTINUOUS
10
5.29787
20
-3.11683
11
5.29949
21
-3.11894
0
LINE
8
BLACK
6
CONTINUOUS
10
5.29949
20
-3.11894
11
5.33129
21
-3.15074
0
LINE
8
BLACK
6
CONTINUOUS
10
5.33129
20
-3.15074
11
5.33129
21
-3.15074
0
LINE
8
BLACK
6
CONTINUOUS
10
5.33129
20
-3.15074
11
5.33129
21
-3.15074
0
LINE
8
BLACK
6
CONTINUOUS
10
5.33129
20
-3.15074
11
5.3318
21
-3.15118
0
LINE
8
BLACK
6
CONTINUOUS
10
5.3318
20
-3.15118
11
5.3318
21
-3.15118
0
LINE
8
BLACK
6
CONTINUOUS
10
5.3318
20
-3.15118
11
5.33312
21
-3.1522
0
LINE
8
BLACK
6
CONTINUOUS
10
5.33312
20
-3.1522
11
5.33317
21
-3.15224
0
LINE
8
BLACK
6
CONTINUOUS
10
5.33317
20
-3.15224
11
5.33328
21
-3.15232
0
LINE
8
BLACK
6
CONTINUOUS
10
5.33328
20
-3.15232
11
5.33676
21
-3.15404
0
LINE
8
BLACK
6
CONTINUOUS
10
5.33676
20
-3.15404
11
5.33685
21
-3.15408
0
LINE
8
BLACK
6
CONTINUOUS
10
5.33685
20
-3.15408
11
5.33685
21
-3.15408
0
LINE
8
BLACK
6
CONTINUOUS
10
5.33685
20
-3.15408
11
5.33685
21
-3.15408
0
LINE
8
BLACK
6
CONTINUOUS
10
5.33685
20
-3.15408
11
5.33832
21
-3.15448
0
LINE
8
BLACK
6
CONTINUOUS
10
5.33832
20
-3.15448
11
5.33979
21
-3.15487
0
LINE
8
BLACK
6
CONTINUOUS
10
5.33979
20
-3.15487
11
5.33979
21
-3.15487
0
LINE
8
BLACK
6
CONTINUOUS
10
5.33979
20
-3.15487
11
5.33979
21
-3.15487
0
LINE
8
BLACK
6
CONTINUOUS
10
5.33979
20
-3.15487
11
5.34243
21
-3.15522
0
LINE
8
BLACK
6
CONTINUOUS
10
5.34243
20
-3.15522
11
5.34243
21
-3.15522
0
LINE
8
BLACK
6
CONTINUOUS
10
5.34243
20
-3.15522
11
5.39716
21
-3.15522
0
LINE
8
BLACK
6
CONTINUOUS
10
5.39716
20
-3.15522
11
5.40009
21
-3.156
0
LINE
8
BLACK
6
CONTINUOUS
10
5.40009
20
-3.156
11
5.40042
21
-3.1562
0
LINE
8
BLACK
6
CONTINUOUS
10
5.40042
20
-3.1562
11
5.40219
21
-3.15739
0
LINE
8
BLACK
6
CONTINUOUS
10
5.40219
20
-3.15739
11
5.40512
21
-3.15797
0
LINE
8
BLACK
6
CONTINUOUS
10
5.40512
20
-3.15797
11
5.49488
21
-3.15797
0
LINE
8
BLACK
6
CONTINUOUS
10
5.49488
20
-3.15797
11
5.49781
21
-3.15739
0
LINE
8
BLACK
6
CONTINUOUS
10
5.49781
20
-3.15739
11
5.49958
21
-3.15621
0
LINE
8
BLACK
6
CONTINUOUS
10
5.49958
20
-3.15621
11
5.50246
21
-3.15523
0
LINE
8
BLACK
6
CONTINUOUS
10
5.50246
20
-3.15523
11
5.50284
21
-3.15522
0
LINE
8
BLACK
6
CONTINUOUS
10
5.50284
20
-3.15522
11
5.55476
21
-3.15522
0
LINE
8
BLACK
6
CONTINUOUS
10
5.55476
20
-3.15522
11
5.55591
21
-3.15533
0
LINE
8
BLACK
6
CONTINUOUS
10
5.55591
20
-3.15533
11
5.55752
21
-3.15565
0
LINE
8
BLACK
6
CONTINUOUS
10
5.55752
20
-3.15565
11
5.62248
21
-3.15565
0
LINE
8
BLACK
6
CONTINUOUS
10
5.62248
20
-3.15565
11
5.62409
21
-3.15533
0
LINE
8
BLACK
6
CONTINUOUS
10
5.62409
20
-3.15533
11
5.62524
21
-3.15522
0
LINE
8
BLACK
6
CONTINUOUS
10
5.62524
20
-3.15522
11
5.63055
21
-3.15522
0
LINE
8
BLACK
6
CONTINUOUS
10
5.63055
20
-3.15522
11
5.63348
21
-3.156
0
LINE
8
BLACK
6
CONTINUOUS
10
5.63348
20
-3.156
11
5.63356
21
-3.15605
0
LINE
8
BLACK
6
CONTINUOUS
10
5.63356
20
-3.15605
11
5.67839
21
-3.18295
0
LINE
8
BLACK
6
CONTINUOUS
10
5.67839
20
-3.18295
11
5.67851
21
-3.18302
0
LINE
8
BLACK
6
CONTINUOUS
10
5.67851
20
-3.18302
11
5.68105
21
-3.18408
0
LINE
8
BLACK
6
CONTINUOUS
10
5.68105
20
-3.18408
11
5.68398
21
-3.18487
0
LINE
8
BLACK
6
CONTINUOUS
10
5.68398
20
-3.18487
11
5.68398
21
-3.18487
0
LINE
8
BLACK
6
CONTINUOUS
10
5.68398
20
-3.18487
11
5.68398
21
-3.18487
0
LINE
8
BLACK
6
CONTINUOUS
10
5.68398
20
-3.18487
11
5.68662
21
-3.18522
0
LINE
8
BLACK
6
CONTINUOUS
10
5.68662
20
-3.18522
11
5.68662
21
-3.18522
0
LINE
8
BLACK
6
CONTINUOUS
10
5.68662
20
-3.18522
11
6.0479
21
-3.18522
0
LINE
8
BLACK
6
CONTINUOUS
10
6.0479
20
-3.18522
11
6.04857
21
-3.18517
0
LINE
8
BLACK
6
CONTINUOUS
10
6.04857
20
-3.18517
11
6.0495
21
-3.18505
0
LINE
8
BLACK
6
CONTINUOUS
10
6.0495
20
-3.18505
11
6.05042
21
-3.18493
0
LINE
8
BLACK
6
CONTINUOUS
10
6.05042
20
-3.18493
11
6.0542
21
-3.18365
0
LINE
8
BLACK
6
CONTINUOUS
10
6.0542
20
-3.18365
11
6.05683
21
-3.18213
0
LINE
8
BLACK
6
CONTINUOUS
10
6.05683
20
-3.18213
11
6.05894
21
-3.18051
0
LINE
8
BLACK
6
CONTINUOUS
10
6.05894
20
-3.18051
11
6.06574
21
-3.17371
0
LINE
8
BLACK
6
CONTINUOUS
10
6.06574
20
-3.17371
11
6.06618
21
-3.1732
0
LINE
8
BLACK
6
CONTINUOUS
10
6.06618
20
-3.1732
11
6.06618
21
-3.1732
0
LINE
8
BLACK
6
CONTINUOUS
10
6.06618
20
-3.1732
11
6.06618
21
-3.1732
0
LINE
8
BLACK
6
CONTINUOUS
10
6.06618
20
-3.1732
11
6.06618
21
-3.1732
0
LINE
8
BLACK
6
CONTINUOUS
10
6.06618
20
-3.1732
11
6.0672
21
-3.17187
0
LINE
8
BLACK
6
CONTINUOUS
10
6.0672
20
-3.17187
11
6.06724
21
-3.17183
0
LINE
8
BLACK
6
CONTINUOUS
10
6.06724
20
-3.17183
11
6.06732
21
-3.17172
0
LINE
8
BLACK
6
CONTINUOUS
10
6.06732
20
-3.17172
11
6.06732
21
-3.17172
0
LINE
8
BLACK
6
CONTINUOUS
10
6.06732
20
-3.17172
11
6.06732
21
-3.17172
0
LINE
8
BLACK
6
CONTINUOUS
10
6.06732
20
-3.17172
11
6.06732
21
-3.17172
0
LINE
8
BLACK
6
CONTINUOUS
10
6.06732
20
-3.17172
11
6.06821
21
-3.16991
0
LINE
8
BLACK
6
CONTINUOUS
10
6.06821
20
-3.16991
11
6.06908
21
-3.16815
0
LINE
8
BLACK
6
CONTINUOUS
10
6.06908
20
-3.16815
11
6.06987
21
-3.16521
0
LINE
8
BLACK
6
CONTINUOUS
10
6.06987
20
-3.16521
11
6.06987
21
-3.16521
0
LINE
8
BLACK
6
CONTINUOUS
10
6.06987
20
-3.16521
11
6.06987
21
-3.16521
0
LINE
8
BLACK
6
CONTINUOUS
10
6.06987
20
-3.16521
11
6.07022
21
-3.16257
0
LINE
8
BLACK
6
CONTINUOUS
10
6.07022
20
-3.16257
11
6.07022
21
-3.16257
0
LINE
8
BLACK
6
CONTINUOUS
10
6.07022
20
-3.16257
11
6.07022
21
-3.0421
0
LINE
8
BLACK
6
CONTINUOUS
10
6.07022
20
-3.0421
11
6.07017
21
-3.04143
0
LINE
8
BLACK
6
CONTINUOUS
10
6.07017
20
-3.04143
11
6.06993
21
-3.03958
0
LINE
8
BLACK
6
CONTINUOUS
10
6.06993
20
-3.03958
11
6.06947
21
-3.03823
0
LINE
8
BLACK
6
CONTINUOUS
10
6.06947
20
-3.03823
11
6.06865
21
-3.0358
0
LINE
8
BLACK
6
CONTINUOUS
10
6.06865
20
-3.0358
11
6.06713
21
-3.03317
0
LINE
8
BLACK
6
CONTINUOUS
10
6.06713
20
-3.03317
11
6.06551
21
-3.03106
0
LINE
8
BLACK
6
CONTINUOUS
10
6.06551
20
-3.03106
11
6.05371
21
-3.01926
0
LINE
8
BLACK
6
CONTINUOUS
10
6.05371
20
-3.01926
11
6.0532
21
-3.01882
0
LINE
8
BLACK
6
CONTINUOUS
10
6.0532
20
-3.01882
11
6.0532
21
-3.01882
0
LINE
8
BLACK
6
CONTINUOUS
10
6.0532
20
-3.01882
11
6.0532
21
-3.01882
0
LINE
8
BLACK
6
CONTINUOUS
10
6.0532
20
-3.01882
11
6.0532
21
-3.01882
0
LINE
8
BLACK
6
CONTINUOUS
10
6.0532
20
-3.01882
11
6.05188
21
-3.0178
0
LINE
8
BLACK
6
CONTINUOUS
10
6.05188
20
-3.0178
11
6.05183
21
-3.01776
0
LINE
8
BLACK
6
CONTINUOUS
10
6.05183
20
-3.01776
11
6.05172
21
-3.01768
0
LINE
8
BLACK
6
CONTINUOUS
10
6.05172
20
-3.01768
11
6.04815
21
-3.01592
0
LINE
8
BLACK
6
CONTINUOUS
10
6.04815
20
-3.01592
11
6.04815
21
-3.01592
0
LINE
8
BLACK
6
CONTINUOUS
10
6.04815
20
-3.01592
11
6.04521
21
-3.01513
0
LINE
8
BLACK
6
CONTINUOUS
10
6.04521
20
-3.01513
11
6.04521
21
-3.01513
0
LINE
8
BLACK
6
CONTINUOUS
10
6.04521
20
-3.01513
11
6.04257
21
-3.01478
0
LINE
8
BLACK
6
CONTINUOUS
10
6.04257
20
-3.01478
11
6.04257
21
-3.01478
0
LINE
8
BLACK
6
CONTINUOUS
10
6.04257
20
-3.01478
11
5.52012
21
-3.01478
0
LINE
8
BLACK
6
CONTINUOUS
10
5.52012
20
-3.01478
11
5.51719
21
-3.014
0
LINE
8
BLACK
6
CONTINUOUS
10
5.51719
20
-3.014
11
5.51504
21
-3.01185
0
LINE
8
BLACK
6
CONTINUOUS
10
5.51504
20
-3.01185
11
5.51426
21
-3.00892
0
LINE
8
BLACK
6
CONTINUOUS
10
5.51426
20
-3.00892
11
5.51504
21
-3.00598
0
LINE
8
BLACK
6
CONTINUOUS
10
5.51504
20
-3.00598
11
5.51686
21
-3.00404
0
LINE
8
BLACK
6
CONTINUOUS
10
5.51686
20
-3.00404
11
5.51749
21
-3.00362
0
LINE
8
BLACK
6
CONTINUOUS
10
5.51749
20
-3.00362
11
5.51781
21
-3.0034
0
LINE
8
BLACK
6
CONTINUOUS
10
5.51781
20
-3.0034
11
5.52003
21
-3.00009
0
LINE
8
BLACK
6
CONTINUOUS
10
5.52003
20
-3.00009
11
5.52061
21
-2.99717
0
LINE
8
BLACK
6
CONTINUOUS
10
5.52061
20
-2.99717
11
5.52061
21
-2.96764
0
LINE
8
BLACK
6
CONTINUOUS
10
5.52061
20
-2.96764
11
5.52003
21
-2.96471
0
LINE
8
BLACK
6
CONTINUOUS
10
5.52003
20
-2.96471
11
5.51781
21
-2.9614
0
LINE
8
BLACK
6
CONTINUOUS
10
5.51781
20
-2.9614
11
5.51781
21
-2.9614
0
LINE
8
BLACK
6
CONTINUOUS
10
5.51781
20
-2.9614
11
5.51781
21
-2.9614
0
LINE
8
BLACK
6
CONTINUOUS
10
5.51781
20
-2.9614
11
5.5145
21
-2.95918
0
LINE
8
BLACK
6
CONTINUOUS
10
5.5145
20
-2.95918
11
5.51158
21
-2.9586
0
LINE
8
BLACK
6
CONTINUOUS
10
5.51158
20
-2.9586
11
5.45842
21
-2.9586
0
LINE
8
BLACK
6
CONTINUOUS
10
5.45842
20
-2.9586
11
5.4555
21
-2.95918
0
LINE
8
BLACK
6
CONTINUOUS
10
5.4555
20
-2.95918
11
5.45219
21
-2.9614
0
LINE
8
BLACK
6
CONTINUOUS
10
5.45219
20
-2.9614
11
5.45219
21
-2.9614
0
LINE
8
BLACK
6
CONTINUOUS
10
5.45219
20
-2.9614
11
5.44997
21
-2.96471
0
LINE
8
BLACK
6
CONTINUOUS
10
5.44997
20
-2.96471
11
5.44939
21
-2.96764
0
LINE
8
BLACK
6
CONTINUOUS
10
5.44939
20
-2.96764
11
5.44939
21
-2.99717
0
LINE
8
BLACK
6
CONTINUOUS
10
5.44939
20
-2.99717
11
5.44997
21
-3.00009
0
LINE
8
BLACK
6
CONTINUOUS
10
5.44997
20
-3.00009
11
5.45219
21
-3.0034
0
LINE
8
BLACK
6
CONTINUOUS
10
5.45219
20
-3.0034
11
5.45219
21
-3.0034
0
LINE
8
BLACK
6
CONTINUOUS
10
5.45219
20
-3.0034
11
5.45314
21
-3.00404
0
LINE
8
BLACK
6
CONTINUOUS
10
5.45314
20
-3.00404
11
5.45514
21
-3.00632
0
LINE
8
BLACK
6
CONTINUOUS
10
5.45514
20
-3.00632
11
5.45573
21
-3.0093
0
LINE
8
BLACK
6
CONTINUOUS
10
5.45573
20
-3.0093
11
5.45475
21
-3.01218
0
LINE
8
BLACK
6
CONTINUOUS
10
5.45475
20
-3.01218
11
5.45247
21
-3.01418
0
LINE
8
BLACK
6
CONTINUOUS
10
5.45247
20
-3.01418
11
5.44988
21
-3.01478
0
LINE
8
BLACK
6
CONTINUOUS
10
5.44988
20
-3.01478
11
5.33186
21
-3.01478
0
LINE
8
BLACK
6
CONTINUOUS
10
5.33186
20
-3.01478
11
5.33148
21
-3.0148
0
LINE
8
BLACK
6
CONTINUOUS
10
5.33148
20
-3.0148
11
5.3304
21
-3.01488
0
LINE
8
BLACK
6
CONTINUOUS
10
5.3304
20
-3.01488
11
5.32707
21
-3.01571
0
LINE
8
BLACK
6
CONTINUOUS
10
5.32707
20
-3.01571
11
5.32707
21
-3.01571
0
LINE
8
BLACK
6
CONTINUOUS
10
5.32707
20
-3.01571
11
5.32429
21
-3.01693
0
LINE
8
BLACK
6
CONTINUOUS
10
5.32429
20
-3.01693
11
5.32429
21
-3.01693
0
LINE
8
BLACK
6
CONTINUOUS
10
5.32429
20
-3.01693
11
5.32201
21
-3.01831
0
LINE
8
BLACK
6
CONTINUOUS
10
5.32201
20
-3.01831
11
5.30082
21
-3.03526
0
LINE
8
BLACK
6
CONTINUOUS
10
5.30082
20
-3.03526
11
5.29945
21
-3.03658
0
LINE
8
BLACK
6
CONTINUOUS
10
5.29945
20
-3.03658
11
5.29804
21
-3.03823
0
LINE
8
BLACK
6
CONTINUOUS
10
5.29804
20
-3.03823
11
5.29768
21
-3.03867
0
LINE
8
BLACK
6
CONTINUOUS
10
5.29768
20
-3.03867
11
5.29768
21
-3.03867
0
LINE
8
BLACK
6
CONTINUOUS
10
5.29768
20
-3.03867
11
5.29592
21
-3.04224
0
LINE
8
BLACK
6
CONTINUOUS
10
5.29592
20
-3.04224
11
5.29592
21
-3.04224
0
LINE
8
BLACK
6
CONTINUOUS
10
5.29592
20
-3.04224
11
5.29513
21
-3.04517
0
LINE
8
BLACK
6
CONTINUOUS
10
5.29513
20
-3.04517
11
5.29513
21
-3.04518
0
LINE
8
BLACK
6
CONTINUOUS
10
5.29513
20
-3.04518
11
5.29478
21
-3.04782
0
LINE
8
BLACK
6
CONTINUOUS
10
5.29478
20
-3.04782
11
5.29478
21
-3.04789
0
LINE
8
BLACK
6
CONTINUOUS
10
5.29478
20
-3.04789
11
5.29478
21
-3.04792
0
LINE
8
BLACK
6
CONTINUOUS
10
5.29478
20
-3.04792
11
5.29477
21
-3.04801
0
LINE
8
BLACK
6
CONTINUOUS
10
5.29477
20
-3.04801
11
5.29476
21
-3.04801
0
LINE
8
BLACK
6
CONTINUOUS
10
5.29476
20
-3.04801
11
5.29434
21
-3.05013
0
LINE
8
BLACK
6
CONTINUOUS
10
5.29434
20
-3.05013
11
5.29418
21
-3.0505
0
LINE
8
BLACK
6
CONTINUOUS
10
5.29418
20
-3.0505
11
5.2936
21
-3.05342
0
LINE
8
BLACK
6
CONTINUOUS
10
5.2936
20
-3.05342
11
5.2936
21
-3.10658
0
LINE
8
BLACK
6
CONTINUOUS
10
5.2936
20
-3.10658
11
5.29418
21
-3.1095
0
LINE
8
BLACK
6
CONTINUOUS
10
5.44997
20
-2.92529
11
5.45219
21
-2.9286
0
LINE
8
BLACK
6
CONTINUOUS
10
5.45219
20
-2.9286
11
5.45219
21
-2.9286
0
LINE
8
BLACK
6
CONTINUOUS
10
5.45219
20
-2.9286
11
5.4555
21
-2.93082
0
LINE
8
BLACK
6
CONTINUOUS
10
5.4555
20
-2.93082
11
5.4555
21
-2.93082
0
LINE
8
BLACK
6
CONTINUOUS
10
5.4555
20
-2.93082
11
5.45842
21
-2.9314
0
LINE
8
BLACK
6
CONTINUOUS
10
5.45842
20
-2.9314
11
5.51158
21
-2.9314
0
LINE
8
BLACK
6
CONTINUOUS
10
5.51158
20
-2.9314
11
5.5145
21
-2.93082
0
LINE
8
BLACK
6
CONTINUOUS
10
5.5145
20
-2.93082
11
5.51781
21
-2.9286
0
LINE
8
BLACK
6
CONTINUOUS
10
5.51781
20
-2.9286
11
5.52003
21
-2.92529
0
LINE
8
BLACK
6
CONTINUOUS
10
5.52003
20
-2.92529
11
5.52061
21
-2.92236
0
LINE
8
BLACK
6
CONTINUOUS
10
5.52061
20
-2.92236
11
5.52061
21
-2.89283
0
LINE
8
BLACK
6
CONTINUOUS
10
5.52061
20
-2.89283
11
5.52003
21
-2.88991
0
LINE
8
BLACK
6
CONTINUOUS
10
5.52003
20
-2.88991
11
5.51781
21
-2.8866
0
LINE
8
BLACK
6
CONTINUOUS
10
5.51781
20
-2.8866
11
5.51781
21
-2.8866
0
LINE
8
BLACK
6
CONTINUOUS
10
5.51781
20
-2.8866
11
5.51781
21
-2.8866
0
LINE
8
BLACK
6
CONTINUOUS
10
5.51781
20
-2.8866
11
5.5145
21
-2.88438
0
LINE
8
BLACK
6
CONTINUOUS
10
5.5145
20
-2.88438
11
5.51158
21
-2.8838
0
LINE
8
BLACK
6
CONTINUOUS
10
5.51158
20
-2.8838
11
5.50679
21
-2.8838
0
LINE
8
BLACK
6
CONTINUOUS
10
5.50679
20
-2.8838
11
5.50386
21
-2.88301
0
LINE
8
BLACK
6
CONTINUOUS
10
5.50386
20
-2.88301
11
5.50171
21
-2.88087
0
LINE
8
BLACK
6
CONTINUOUS
10
5.50171
20
-2.88087
11
5.50093
21
-2.87793
0
LINE
8
BLACK
6
CONTINUOUS
10
5.50093
20
-2.87793
11
5.50093
21
-2.8577
0
LINE
8
BLACK
6
CONTINUOUS
10
5.50093
20
-2.8577
11
5.50124
21
-2.85609
0
LINE
8
BLACK
6
CONTINUOUS
10
5.50124
20
-2.85609
11
5.50117
21
-2.85607
0
LINE
8
BLACK
6
CONTINUOUS
10
5.50117
20
-2.85607
11
5.50127
21
-2.8557
0
LINE
8
BLACK
6
CONTINUOUS
10
5.50127
20
-2.8557
11
5.50127
21
-2.8557
0
LINE
8
BLACK
6
CONTINUOUS
10
5.50127
20
-2.8557
11
5.50202
21
-2.85
0
LINE
8
BLACK
6
CONTINUOUS
10
5.50202
20
-2.85
11
5.50127
21
-2.8443
0
LINE
8
BLACK
6
CONTINUOUS
10
5.50127
20
-2.8443
11
5.49907
21
-2.83899
0
LINE
8
BLACK
6
CONTINUOUS
10
5.49907
20
-2.83899
11
5.49557
21
-2.83443
0
LINE
8
BLACK
6
CONTINUOUS
10
5.49557
20
-2.83443
11
5.49557
21
-2.83443
0
LINE
8
BLACK
6
CONTINUOUS
10
5.49557
20
-2.83443
11
5.49557
21
-2.83443
0
LINE
8
BLACK
6
CONTINUOUS
10
5.49557
20
-2.83443
11
5.49101
21
-2.83093
0
LINE
8
BLACK
6
CONTINUOUS
10
5.49101
20
-2.83093
11
5.49101
21
-2.83093
0
LINE
8
BLACK
6
CONTINUOUS
10
5.49101
20
-2.83093
11
5.4857
21
-2.82873
0
LINE
8
BLACK
6
CONTINUOUS
10
5.4857
20
-2.82873
11
5.48
21
-2.82798
0
LINE
8
BLACK
6
CONTINUOUS
10
5.48
20
-2.82798
11
5.48
21
-2.82798
0
LINE
8
BLACK
6
CONTINUOUS
10
5.48
20
-2.82798
11
5.4743
21
-2.82873
0
LINE
8
BLACK
6
CONTINUOUS
10
5.4743
20
-2.82873
11
5.4743
21
-2.82873
0
LINE
8
BLACK
6
CONTINUOUS
10
5.4743
20
-2.82873
11
5.46899
21
-2.83093
0
LINE
8
BLACK
6
CONTINUOUS
10
5.46899
20
-2.83093
11
5.46443
21
-2.83443
0
LINE
8
BLACK
6
CONTINUOUS
10
5.46443
20
-2.83443
11
5.46093
21
-2.83899
0
LINE
8
BLACK
6
CONTINUOUS
10
5.46093
20
-2.83899
11
5.45873
21
-2.8443
0
LINE
8
BLACK
6
CONTINUOUS
10
5.45873
20
-2.8443
11
5.45873
21
-2.8443
0
LINE
8
BLACK
6
CONTINUOUS
10
5.45873
20
-2.8443
11
5.45798
21
-2.85
0
LINE
8
BLACK
6
CONTINUOUS
10
5.45798
20
-2.85
11
5.45798
21
-2.85
0
LINE
8
BLACK
6
CONTINUOUS
10
5.45798
20
-2.85
11
5.45873
21
-2.8557
0
LINE
8
BLACK
6
CONTINUOUS
10
5.45873
20
-2.8557
11
5.46093
21
-2.86101
0
LINE
8
BLACK
6
CONTINUOUS
10
5.46093
20
-2.86101
11
5.46093
21
-2.86101
0
LINE
8
BLACK
6
CONTINUOUS
10
5.46093
20
-2.86101
11
5.46443
21
-2.86557
0
LINE
8
BLACK
6
CONTINUOUS
10
5.46443
20
-2.86557
11
5.46678
21
-2.86737
0
LINE
8
BLACK
6
CONTINUOUS
10
5.46678
20
-2.86737
11
5.46863
21
-2.86978
0
LINE
8
BLACK
6
CONTINUOUS
10
5.46863
20
-2.86978
11
5.46907
21
-2.87203
0
LINE
8
BLACK
6
CONTINUOUS
10
5.46907
20
-2.87203
11
5.46907
21
-2.87793
0
LINE
8
BLACK
6
CONTINUOUS
10
5.46907
20
-2.87793
11
5.46829
21
-2.88087
0
LINE
8
BLACK
6
CONTINUOUS
10
5.46829
20
-2.88087
11
5.46614
21
-2.88301
0
LINE
8
BLACK
6
CONTINUOUS
10
5.46614
20
-2.88301
11
5.46321
21
-2.8838
0
LINE
8
BLACK
6
CONTINUOUS
10
5.46321
20
-2.8838
11
5.45842
21
-2.8838
0
LINE
8
BLACK
6
CONTINUOUS
10
5.45842
20
-2.8838
11
5.4555
21
-2.88438
0
LINE
8
BLACK
6
CONTINUOUS
10
5.4555
20
-2.88438
11
5.45219
21
-2.8866
0
LINE
8
BLACK
6
CONTINUOUS
10
5.45219
20
-2.8866
11
5.45219
21
-2.8866
0
LINE
8
BLACK
6
CONTINUOUS
10
5.45219
20
-2.8866
11
5.44997
21
-2.88991
0
LINE
8
BLACK
6
CONTINUOUS
10
5.44997
20
-2.88991
11
5.44939
21
-2.89283
0
LINE
8
BLACK
6
CONTINUOUS
10
5.44939
20
-2.89283
11
5.44939
21
-2.92236
0
LINE
8
BLACK
6
CONTINUOUS
10
5.44939
20
-2.92236
11
5.44997
21
-2.92529
0
CIRCLE
8
BLACK
10
4.8
20
-2.8
40
0.00688976
0
CIRCLE
8
BLACK
10
6
20
-2.8
40
0.00688976
0
CIRCLE
8
BLACK
10
4.8
20
-4
40
0.00688976
0
CIRCLE
8
BLACK
10
6
20
-4
40
0.00688976
0
CIRCLE
8
BLACK
10
5.96685
20
-3.7
40
0.00688976
0
CIRCLE
8
BLACK
10
5.77
20
-3.7
40
0.00688976
0
CIRCLE
8
BLACK
10
5.96685
20
-3.5
40
0.00688976
0
CIRCLE
8
BLACK
10
5.77
20
-3.5
40
0.00688976
0
CIRCLE
8
BLACK
10
5.96685
20
-3.1
40
0.00688976
0
CIRCLE
8
BLACK
10
5.77
20
-3.1
40
0.00688976
0
CIRCLE
8
BLACK
10
5.96685
20
-3.3
40
0.00688976
0
CIRCLE
8
BLACK
10
5.77
20
-3.3
40
0.00688976
0
CIRCLE
8
BLACK
10
5.135
20
-3.995
40
0.00688976
0
CIRCLE
8
BLACK
10
5.465
20
-3.89
40
0.00688976
0
CIRCLE
8
BLACK
10
5.465
20
-3.98843
40
0.00688976
0
CIRCLE
8
BLACK
10
5.2325
20
-3.6625
40
0.00590551
0
CIRCLE
8
BLACK
10
5.23
20
-3.755
40
0.00590551
0
CIRCLE
8
BLACK
10
5.23
20
-3.71
40
0.00590551
0
CIRCLE
8
BLACK
10
5.1875
20
-3.755
40
0.00590551
0
CIRCLE
8
BLACK
10
5.1875
20
-3.71
40
0.00590551
0
CIRCLE
8
BLACK
10
5.1875
20
-3.6625
40
0.00590551
0
CIRCLE
8
BLACK
10
5.4
20
-3.295
40
0.00590551
0
CIRCLE
8
BLACK
10
5.24
20
-3.47
40
0.00590551
0
CIRCLE
8
BLACK
10
5.405
20
-3.415
40
0.00590551
0
CIRCLE
8
BLACK
10
4.79094
20
-3.27
40
0.00590551
0
CIRCLE
8
BLACK
10
5.645
20
-3.57
40
0.00590551
0
CIRCLE
8
BLACK
10
5.355
20
-3.25
40
0.00590551
0
CIRCLE
8
BLACK
10
5.24
20
-3.42
40
0.00590551
0
CIRCLE
8
BLACK
10
5.315
20
-3.29
40
0.00590551
0
CIRCLE
8
BLACK
10
5.405
20
-3.475
40
0.00590551
0
CIRCLE
8
BLACK
10
5.5
20
-3.295
40
0.00590551
0
CIRCLE
8
BLACK
10
5.27
20
-3.29
40
0.00590551
0
CIRCLE
8
BLACK
10
5.24
20
-3.375
40
0.00590551
0
CIRCLE
8
BLACK
10
5.56
20
-3.4
40
0.00590551
0
CIRCLE
8
BLACK
10
5.57
20
-3.56563
40
0.00590551
0
CIRCLE
8
BLACK
10
5.56
20
-3.435
40
0.00590551
0
CIRCLE
8
BLACK
10
5.355
20
-3.21
40
0.00590551
0
CIRCLE
8
BLACK
10
4.98
20
-3.69
40
0.00590551
0
CIRCLE
8
BLACK
10
5.405
20
-3.37
40
0.00590551
0
CIRCLE
8
BLACK
10
5.45
20
-3.295
40
0.00590551
0
CIRCLE
8
BLACK
10
4.6926
20
-3.755
40
0.00590551
0
CIRCLE
8
BLACK
10
5.56
20
-3.475
40
0.00590551
0
CIRCLE
8
BLACK
10
5.59
20
-3.24406
40
0.00590551
0
CIRCLE
8
BLACK
10
5.22
20
-3.29
40
0.00590551
0
CIRCLE
8
BLACK
10
5.24063
20
-3.87
40
0.00590551
0
CIRCLE
8
BLACK
10
4.83
20
-3.61063
40
0.00590551
0
CIRCLE
8
BLACK
10
5.125
20
-3.58
40
0.00590551
0
CIRCLE
8
BLACK
10
5.295
20
-3.58
40
0.00590551
0
CIRCLE
8
BLACK
10
5.48
20
-2.85
40
0.00590551
  0
ENDSEC
  0
EOF
