<?xml version='1.0' encoding='ASCII' standalone='yes'?>
<svg xmlns:svg="http://www.w3.org/2000/svg" xmlns="http://www.w3.org/2000/svg" xmlns:xlink="http://www.w3.org/1999/xlink" version="1.1" width="297.0022mm" height="210.0072mm" viewBox="0.0000 0.0000 297.0022 210.0072">
<title>SVG Image created as STEPDOWN02-B_Fab.svg date 2023/09/17 10:02:17 </title>
  <desc>Image generated by PCBNEW </desc>
<g style="fill:#000084; fill-opacity:1.0000;stroke:#000084; stroke-opacity:1.0000; stroke-linecap:round; stroke-linejoin:round;" transform="translate(0 0) scale(1 1)">
</g>
<g style="fill:#000084; fill-opacity:0.0;  stroke:#000084; stroke-width:0.0000; stroke-opacity:1;  stroke-linecap:round; stroke-linejoin:round;">
</g>
<g style="fill:#000084; fill-opacity:0.01;  stroke:#000084; stroke-width:0.7820; stroke-opacity:1;  stroke-linecap:round; stroke-linejoin:round;">
<g transform="rotate(-90.000000 156.6712 125.3825)">
<text x="156.6712" y="127.9891" transform="scale(-1 1) translate(-313.342387 0)" textLength="15.9501" font-size="6.9510" lengthAdjust="spacingAndGlyphs" text-anchor="middle" opacity="0.01" style="font-family:monospace">22u</text>
</g>
<g class="stroked-text"><desc>22u</desc>
<path d="M159.0169 119.0521 L159.2651 119.3004 "/>
<path d="M159.2651 119.3004 L159.5134 119.7969 "/>
<path d="M159.5134 119.7969 L159.5134 121.0381 "/>
<path d="M159.5134 121.0381 L159.2651 121.5346 "/>
<path d="M159.2651 121.5346 L159.0169 121.7829 "/>
<path d="M159.0169 121.7829 L158.5204 122.0311 "/>
<path d="M158.5204 122.0311 L158.0239 122.0311 "/>
<path d="M158.0239 122.0311 L157.2791 121.7829 "/>
<path d="M157.2791 121.7829 L154.3001 118.8039 "/>
<path d="M154.3001 118.8039 L154.3001 122.0311 "/>
<path d="M159.0169 124.0171 L159.2651 124.2654 "/>
<path d="M159.2651 124.2654 L159.5134 124.7619 "/>
<path d="M159.5134 124.7619 L159.5134 126.0031 "/>
<path d="M159.5134 126.0031 L159.2651 126.4996 "/>
<path d="M159.2651 126.4996 L159.0169 126.7479 "/>
<path d="M159.0169 126.7479 L158.5204 126.9961 "/>
<path d="M158.5204 126.9961 L158.0239 126.9961 "/>
<path d="M158.0239 126.9961 L157.2791 126.7479 "/>
<path d="M157.2791 126.7479 L154.3001 123.7689 "/>
<path d="M154.3001 123.7689 L154.3001 126.9961 "/>
<path d="M157.7756 131.4646 L154.3001 131.4646 "/>
<path d="M157.7756 129.2304 L155.0449 129.2304 "/>
<path d="M155.0449 129.2304 L154.5484 129.4786 "/>
<path d="M154.5484 129.4786 L154.3001 129.9751 "/>
<path d="M154.3001 129.9751 L154.3001 130.7199 "/>
<path d="M154.3001 130.7199 L154.5484 131.2164 "/>
<path d="M154.5484 131.2164 L154.7966 131.4646 "/>
</g><g transform="rotate(-90.000000 136.9381 132.1490)">
<text x="136.9381" y="134.7556" transform="scale(-1 1) translate(-273.876234 0)" textLength="15.9501" font-size="6.9510" lengthAdjust="spacingAndGlyphs" text-anchor="middle" opacity="0.01" style="font-family:monospace">3u3</text>
</g>
<g class="stroked-text"><desc>3u3</desc>
<path d="M139.7803 125.5704 L139.7803 128.7976 "/>
<path d="M139.7803 128.7976 L137.7943 127.0599 "/>
<path d="M137.7943 127.0599 L137.7943 127.8046 "/>
<path d="M137.7943 127.8046 L137.5460 128.3011 "/>
<path d="M137.5460 128.3011 L137.2978 128.5494 "/>
<path d="M137.2978 128.5494 L136.8013 128.7976 "/>
<path d="M136.8013 128.7976 L135.5600 128.7976 "/>
<path d="M135.5600 128.7976 L135.0635 128.5494 "/>
<path d="M135.0635 128.5494 L134.8153 128.3011 "/>
<path d="M134.8153 128.3011 L134.5670 127.8046 "/>
<path d="M134.5670 127.8046 L134.5670 126.3151 "/>
<path d="M134.5670 126.3151 L134.8153 125.8186 "/>
<path d="M134.8153 125.8186 L135.0635 125.5704 "/>
<path d="M138.0425 133.2661 L134.5670 133.2661 "/>
<path d="M138.0425 131.0319 L135.3118 131.0319 "/>
<path d="M135.3118 131.0319 L134.8153 131.2801 "/>
<path d="M134.8153 131.2801 L134.5670 131.7766 "/>
<path d="M134.5670 131.7766 L134.5670 132.5213 "/>
<path d="M134.5670 132.5213 L134.8153 133.0178 "/>
<path d="M134.8153 133.0178 L135.0635 133.2661 "/>
<path d="M139.7803 135.2521 L139.7803 138.4793 "/>
<path d="M139.7803 138.4793 L137.7943 136.7416 "/>
<path d="M137.7943 136.7416 L137.7943 137.4863 "/>
<path d="M137.7943 137.4863 L137.5460 137.9828 "/>
<path d="M137.5460 137.9828 L137.2978 138.2311 "/>
<path d="M137.2978 138.2311 L136.8013 138.4793 "/>
<path d="M136.8013 138.4793 L135.5600 138.4793 "/>
<path d="M135.5600 138.4793 L135.0635 138.2311 "/>
<path d="M135.0635 138.2311 L134.8153 137.9828 "/>
<path d="M134.8153 137.9828 L134.5670 137.4863 "/>
<path d="M134.5670 137.4863 L134.5670 135.9968 "/>
<path d="M134.5670 135.9968 L134.8153 135.5003 "/>
<path d="M134.8153 135.5003 L135.0635 135.2521 "/>
</g><g transform="rotate(-90.000000 127.0069 132.1490)">
<text x="127.0069" y="134.7556" transform="scale(-1 1) translate(-254.013764 0)" textLength="10.9851" font-size="6.9510" lengthAdjust="spacingAndGlyphs" text-anchor="middle" opacity="0.01" style="font-family:monospace">1u</text>
</g>
<g class="stroked-text"><desc>1u</desc>
<path d="M124.6358 131.2801 L124.6358 128.3011 "/>
<path d="M124.6358 129.7906 L129.8490 129.7906 "/>
<path d="M129.8490 129.7906 L129.1043 129.2941 "/>
<path d="M129.1043 129.2941 L128.6078 128.7976 "/>
<path d="M128.6078 128.7976 L128.3595 128.3011 "/>
<path d="M128.1113 135.7486 L124.6358 135.7486 "/>
<path d="M128.1113 133.5144 L125.3806 133.5144 "/>
<path d="M125.3806 133.5144 L124.8840 133.7626 "/>
<path d="M124.8840 133.7626 L124.6358 134.2591 "/>
<path d="M124.6358 134.2591 L124.6358 135.0039 "/>
<path d="M124.6358 135.0039 L124.8840 135.5003 "/>
<path d="M124.8840 135.5003 L125.1323 135.7486 "/>
</g><g transform="rotate(-90.000000 215.0638 148.7010)">
<text x="215.0638" y="151.3077" transform="scale(-1 1) translate(-430.127661 0)" textLength="20.4186" font-size="6.9510" lengthAdjust="spacingAndGlyphs" text-anchor="middle" opacity="0.01" style="font-family:monospace">18pF</text>
</g>
<g class="stroked-text"><desc>18pF</desc>
<path d="M212.6927 143.1154 L212.6927 140.1364 "/>
<path d="M212.6927 141.6259 L217.9060 141.6259 "/>
<path d="M217.9060 141.6259 L217.1612 141.1294 "/>
<path d="M217.1612 141.1294 L216.6647 140.6329 "/>
<path d="M216.6647 140.6329 L216.4165 140.1364 "/>
<path d="M215.6717 146.0944 L215.9200 145.5979 "/>
<path d="M215.9200 145.5979 L216.1682 145.3497 "/>
<path d="M216.1682 145.3497 L216.6647 145.1014 "/>
<path d="M216.6647 145.1014 L216.9130 145.1014 "/>
<path d="M216.9130 145.1014 L217.4095 145.3497 "/>
<path d="M217.4095 145.3497 L217.6577 145.5979 "/>
<path d="M217.6577 145.5979 L217.9060 146.0944 "/>
<path d="M217.9060 146.0944 L217.9060 147.0874 "/>
<path d="M217.9060 147.0874 L217.6577 147.5839 "/>
<path d="M217.6577 147.5839 L217.4095 147.8322 "/>
<path d="M217.4095 147.8322 L216.9130 148.0804 "/>
<path d="M216.9130 148.0804 L216.6647 148.0804 "/>
<path d="M216.6647 148.0804 L216.1682 147.8322 "/>
<path d="M216.1682 147.8322 L215.9200 147.5839 "/>
<path d="M215.9200 147.5839 L215.6717 147.0874 "/>
<path d="M215.6717 147.0874 L215.6717 146.0944 "/>
<path d="M215.6717 146.0944 L215.4235 145.5979 "/>
<path d="M215.4235 145.5979 L215.1752 145.3497 "/>
<path d="M215.1752 145.3497 L214.6787 145.1014 "/>
<path d="M214.6787 145.1014 L213.6858 145.1014 "/>
<path d="M213.6858 145.1014 L213.1893 145.3497 "/>
<path d="M213.1893 145.3497 L212.9410 145.5979 "/>
<path d="M212.9410 145.5979 L212.6927 146.0944 "/>
<path d="M212.6927 146.0944 L212.6927 147.0874 "/>
<path d="M212.6927 147.0874 L212.9410 147.5839 "/>
<path d="M212.9410 147.5839 L213.1893 147.8322 "/>
<path d="M213.1893 147.8322 L213.6858 148.0804 "/>
<path d="M213.6858 148.0804 L214.6787 148.0804 "/>
<path d="M214.6787 148.0804 L215.1752 147.8322 "/>
<path d="M215.1752 147.8322 L215.4235 147.5839 "/>
<path d="M215.4235 147.5839 L215.6717 147.0874 "/>
<path d="M216.1682 150.3147 L210.9550 150.3147 "/>
<path d="M215.9200 150.3147 L216.1682 150.8112 "/>
<path d="M216.1682 150.8112 L216.1682 151.8042 "/>
<path d="M216.1682 151.8042 L215.9200 152.3007 "/>
<path d="M215.9200 152.3007 L215.6717 152.5489 "/>
<path d="M215.6717 152.5489 L215.1752 152.7972 "/>
<path d="M215.1752 152.7972 L213.6858 152.7972 "/>
<path d="M213.6858 152.7972 L213.1893 152.5489 "/>
<path d="M213.1893 152.5489 L212.9410 152.3007 "/>
<path d="M212.9410 152.3007 L212.6927 151.8042 "/>
<path d="M212.6927 151.8042 L212.6927 150.8112 "/>
<path d="M212.6927 150.8112 L212.9410 150.3147 "/>
<path d="M215.4235 156.7692 L215.4235 155.0314 "/>
<path d="M212.6927 155.0314 L217.9060 155.0314 "/>
<path d="M217.9060 155.0314 L217.9060 157.5139 "/>
</g><g transform="rotate(-90.000000 234.9263 138.1077)">
<text x="234.9263" y="140.7143" transform="scale(-1 1) translate(-469.852600 0)" textLength="25.3835" font-size="6.9510" lengthAdjust="spacingAndGlyphs" text-anchor="middle" opacity="0.01" style="font-family:monospace">680pF</text>
</g>
<g class="stroked-text"><desc>680pF</desc>
<path d="M237.7685 129.5431 L237.7685 128.5501 "/>
<path d="M237.7685 128.5501 L237.5202 128.0536 "/>
<path d="M237.5202 128.0536 L237.2720 127.8053 "/>
<path d="M237.2720 127.8053 L236.5272 127.3088 "/>
<path d="M236.5272 127.3088 L235.5342 127.0606 "/>
<path d="M235.5342 127.0606 L233.5482 127.0606 "/>
<path d="M233.5482 127.0606 L233.0517 127.3088 "/>
<path d="M233.0517 127.3088 L232.8035 127.5571 "/>
<path d="M232.8035 127.5571 L232.5552 128.0536 "/>
<path d="M232.5552 128.0536 L232.5552 129.0466 "/>
<path d="M232.5552 129.0466 L232.8035 129.5431 "/>
<path d="M232.8035 129.5431 L233.0517 129.7913 "/>
<path d="M233.0517 129.7913 L233.5482 130.0396 "/>
<path d="M233.5482 130.0396 L234.7895 130.0396 "/>
<path d="M234.7895 130.0396 L235.2860 129.7913 "/>
<path d="M235.2860 129.7913 L235.5342 129.5431 "/>
<path d="M235.5342 129.5431 L235.7825 129.0466 "/>
<path d="M235.7825 129.0466 L235.7825 128.0536 "/>
<path d="M235.7825 128.0536 L235.5342 127.5571 "/>
<path d="M235.5342 127.5571 L235.2860 127.3088 "/>
<path d="M235.2860 127.3088 L234.7895 127.0606 "/>
<path d="M235.5342 133.0186 L235.7825 132.5221 "/>
<path d="M235.7825 132.5221 L236.0307 132.2738 "/>
<path d="M236.0307 132.2738 L236.5272 132.0256 "/>
<path d="M236.5272 132.0256 L236.7755 132.0256 "/>
<path d="M236.7755 132.0256 L237.2720 132.2738 "/>
<path d="M237.2720 132.2738 L237.5202 132.5221 "/>
<path d="M237.5202 132.5221 L237.7685 133.0186 "/>
<path d="M237.7685 133.0186 L237.7685 134.0116 "/>
<path d="M237.7685 134.0116 L237.5202 134.5081 "/>
<path d="M237.5202 134.5081 L237.2720 134.7563 "/>
<path d="M237.2720 134.7563 L236.7755 135.0046 "/>
<path d="M236.7755 135.0046 L236.5272 135.0046 "/>
<path d="M236.5272 135.0046 L236.0307 134.7563 "/>
<path d="M236.0307 134.7563 L235.7825 134.5081 "/>
<path d="M235.7825 134.5081 L235.5342 134.0116 "/>
<path d="M235.5342 134.0116 L235.5342 133.0186 "/>
<path d="M235.5342 133.0186 L235.2860 132.5221 "/>
<path d="M235.2860 132.5221 L235.0377 132.2738 "/>
<path d="M235.0377 132.2738 L234.5412 132.0256 "/>
<path d="M234.5412 132.0256 L233.5482 132.0256 "/>
<path d="M233.5482 132.0256 L233.0517 132.2738 "/>
<path d="M233.0517 132.2738 L232.8035 132.5221 "/>
<path d="M232.8035 132.5221 L232.5552 133.0186 "/>
<path d="M232.5552 133.0186 L232.5552 134.0116 "/>
<path d="M232.5552 134.0116 L232.8035 134.5081 "/>
<path d="M232.8035 134.5081 L233.0517 134.7563 "/>
<path d="M233.0517 134.7563 L233.5482 135.0046 "/>
<path d="M233.5482 135.0046 L234.5412 135.0046 "/>
<path d="M234.5412 135.0046 L235.0377 134.7563 "/>
<path d="M235.0377 134.7563 L235.2860 134.5081 "/>
<path d="M235.2860 134.5081 L235.5342 134.0116 "/>
<path d="M237.7685 138.2318 L237.7685 138.7283 "/>
<path d="M237.7685 138.7283 L237.5202 139.2248 "/>
<path d="M237.5202 139.2248 L237.2720 139.4731 "/>
<path d="M237.2720 139.4731 L236.7755 139.7213 "/>
<path d="M236.7755 139.7213 L235.7825 139.9696 "/>
<path d="M235.7825 139.9696 L234.5412 139.9696 "/>
<path d="M234.5412 139.9696 L233.5482 139.7213 "/>
<path d="M233.5482 139.7213 L233.0517 139.4731 "/>
<path d="M233.0517 139.4731 L232.8035 139.2248 "/>
<path d="M232.8035 139.2248 L232.5552 138.7283 "/>
<path d="M232.5552 138.7283 L232.5552 138.2318 "/>
<path d="M232.5552 138.2318 L232.8035 137.7353 "/>
<path d="M232.8035 137.7353 L233.0517 137.4871 "/>
<path d="M233.0517 137.4871 L233.5482 137.2388 "/>
<path d="M233.5482 137.2388 L234.5412 136.9906 "/>
<path d="M234.5412 136.9906 L235.7825 136.9906 "/>
<path d="M235.7825 136.9906 L236.7755 137.2388 "/>
<path d="M236.7755 137.2388 L237.2720 137.4871 "/>
<path d="M237.2720 137.4871 L237.5202 137.7353 "/>
<path d="M237.5202 137.7353 L237.7685 138.2318 "/>
<path d="M236.0307 142.2038 L230.8175 142.2038 "/>
<path d="M235.7825 142.2038 L236.0307 142.7003 "/>
<path d="M236.0307 142.7003 L236.0307 143.6933 "/>
<path d="M236.0307 143.6933 L235.7825 144.1898 "/>
<path d="M235.7825 144.1898 L235.5342 144.4381 "/>
<path d="M235.5342 144.4381 L235.0377 144.6863 "/>
<path d="M235.0377 144.6863 L233.5482 144.6863 "/>
<path d="M233.5482 144.6863 L233.0517 144.4381 "/>
<path d="M233.0517 144.4381 L232.8035 144.1898 "/>
<path d="M232.8035 144.1898 L232.5552 143.6933 "/>
<path d="M232.5552 143.6933 L232.5552 142.7003 "/>
<path d="M232.5552 142.7003 L232.8035 142.2038 "/>
<path d="M235.2860 148.6583 L235.2860 146.9206 "/>
<path d="M232.5552 146.9206 L237.7685 146.9206 "/>
<path d="M237.7685 146.9206 L237.7685 149.4031 "/>
</g><text x="164.3911" y="180.7938" transform="scale(-1 1) translate(-328.782147 0)" textLength="15.9501" font-size="6.9510" lengthAdjust="spacingAndGlyphs" text-anchor="middle" opacity="0.01" style="font-family:monospace">8n2</text>
<g class="stroked-text"><desc>8n2</desc>
<path d="M159.0537 177.5792 L158.5572 177.3310 "/>
<path d="M158.5572 177.3310 L158.3090 177.0827 "/>
<path d="M158.3090 177.0827 L158.0607 176.5862 "/>
<path d="M158.0607 176.5862 L158.0607 176.3380 "/>
<path d="M158.0607 176.3380 L158.3090 175.8415 "/>
<path d="M158.3090 175.8415 L158.5572 175.5932 "/>
<path d="M158.5572 175.5932 L159.0537 175.3450 "/>
<path d="M159.0537 175.3450 L160.0467 175.3450 "/>
<path d="M160.0467 175.3450 L160.5432 175.5932 "/>
<path d="M160.5432 175.5932 L160.7915 175.8415 "/>
<path d="M160.7915 175.8415 L161.0397 176.3380 "/>
<path d="M161.0397 176.3380 L161.0397 176.5862 "/>
<path d="M161.0397 176.5862 L160.7915 177.0827 "/>
<path d="M160.7915 177.0827 L160.5432 177.3310 "/>
<path d="M160.5432 177.3310 L160.0467 177.5792 "/>
<path d="M160.0467 177.5792 L159.0537 177.5792 "/>
<path d="M159.0537 177.5792 L158.5572 177.8275 "/>
<path d="M158.5572 177.8275 L158.3090 178.0757 "/>
<path d="M158.3090 178.0757 L158.0607 178.5722 "/>
<path d="M158.0607 178.5722 L158.0607 179.5652 "/>
<path d="M158.0607 179.5652 L158.3090 180.0617 "/>
<path d="M158.3090 180.0617 L158.5572 180.3100 "/>
<path d="M158.5572 180.3100 L159.0537 180.5582 "/>
<path d="M159.0537 180.5582 L160.0467 180.5582 "/>
<path d="M160.0467 180.5582 L160.5432 180.3100 "/>
<path d="M160.5432 180.3100 L160.7915 180.0617 "/>
<path d="M160.7915 180.0617 L161.0397 179.5652 "/>
<path d="M161.0397 179.5652 L161.0397 178.5722 "/>
<path d="M161.0397 178.5722 L160.7915 178.0757 "/>
<path d="M160.7915 178.0757 L160.5432 177.8275 "/>
<path d="M160.5432 177.8275 L160.0467 177.5792 "/>
<path d="M163.2740 177.0827 L163.2740 180.5582 "/>
<path d="M163.2740 177.5792 L163.5222 177.3310 "/>
<path d="M163.5222 177.3310 L164.0187 177.0827 "/>
<path d="M164.0187 177.0827 L164.7635 177.0827 "/>
<path d="M164.7635 177.0827 L165.2599 177.3310 "/>
<path d="M165.2599 177.3310 L165.5082 177.8275 "/>
<path d="M165.5082 177.8275 L165.5082 180.5582 "/>
<path d="M167.7425 175.8415 L167.9907 175.5932 "/>
<path d="M167.9907 175.5932 L168.4872 175.3450 "/>
<path d="M168.4872 175.3450 L169.7284 175.3450 "/>
<path d="M169.7284 175.3450 L170.2249 175.5932 "/>
<path d="M170.2249 175.5932 L170.4732 175.8415 "/>
<path d="M170.4732 175.8415 L170.7214 176.3380 "/>
<path d="M170.7214 176.3380 L170.7214 176.8345 "/>
<path d="M170.7214 176.8345 L170.4732 177.5792 "/>
<path d="M170.4732 177.5792 L167.4942 180.5582 "/>
<path d="M167.4942 180.5582 L170.7214 180.5582 "/>
</g><text x="196.8331" y="120.4974" transform="scale(-1 1) translate(-393.666214 0)" textLength="20.9151" font-size="6.9510" lengthAdjust="spacingAndGlyphs" text-anchor="middle" opacity="0.01" style="font-family:monospace">100n</text>
<g class="stroked-text"><desc>100n</desc>
<path d="M190.9992 120.2618 L188.0202 120.2618 "/>
<path d="M189.5097 120.2618 L189.5097 115.0486 "/>
<path d="M189.5097 115.0486 L189.0132 115.7933 "/>
<path d="M189.0132 115.7933 L188.5167 116.2898 "/>
<path d="M188.5167 116.2898 L188.0202 116.5381 "/>
<path d="M194.2265 115.0486 L194.7230 115.0486 "/>
<path d="M194.7230 115.0486 L195.2195 115.2968 "/>
<path d="M195.2195 115.2968 L195.4677 115.5451 "/>
<path d="M195.4677 115.5451 L195.7160 116.0416 "/>
<path d="M195.7160 116.0416 L195.9642 117.0346 "/>
<path d="M195.9642 117.0346 L195.9642 118.2758 "/>
<path d="M195.9642 118.2758 L195.7160 119.2688 "/>
<path d="M195.7160 119.2688 L195.4677 119.7653 "/>
<path d="M195.4677 119.7653 L195.2195 120.0136 "/>
<path d="M195.2195 120.0136 L194.7230 120.2618 "/>
<path d="M194.7230 120.2618 L194.2265 120.2618 "/>
<path d="M194.2265 120.2618 L193.7300 120.0136 "/>
<path d="M193.7300 120.0136 L193.4817 119.7653 "/>
<path d="M193.4817 119.7653 L193.2335 119.2688 "/>
<path d="M193.2335 119.2688 L192.9852 118.2758 "/>
<path d="M192.9852 118.2758 L192.9852 117.0346 "/>
<path d="M192.9852 117.0346 L193.2335 116.0416 "/>
<path d="M193.2335 116.0416 L193.4817 115.5451 "/>
<path d="M193.4817 115.5451 L193.7300 115.2968 "/>
<path d="M193.7300 115.2968 L194.2265 115.0486 "/>
<path d="M199.1915 115.0486 L199.6880 115.0486 "/>
<path d="M199.6880 115.0486 L200.1845 115.2968 "/>
<path d="M200.1845 115.2968 L200.4327 115.5451 "/>
<path d="M200.4327 115.5451 L200.6810 116.0416 "/>
<path d="M200.6810 116.0416 L200.9292 117.0346 "/>
<path d="M200.9292 117.0346 L200.9292 118.2758 "/>
<path d="M200.9292 118.2758 L200.6810 119.2688 "/>
<path d="M200.6810 119.2688 L200.4327 119.7653 "/>
<path d="M200.4327 119.7653 L200.1845 120.0136 "/>
<path d="M200.1845 120.0136 L199.6880 120.2618 "/>
<path d="M199.6880 120.2618 L199.1915 120.2618 "/>
<path d="M199.1915 120.2618 L198.6950 120.0136 "/>
<path d="M198.6950 120.0136 L198.4467 119.7653 "/>
<path d="M198.4467 119.7653 L198.1985 119.2688 "/>
<path d="M198.1985 119.2688 L197.9502 118.2758 "/>
<path d="M197.9502 118.2758 L197.9502 117.0346 "/>
<path d="M197.9502 117.0346 L198.1985 116.0416 "/>
<path d="M198.1985 116.0416 L198.4467 115.5451 "/>
<path d="M198.4467 115.5451 L198.6950 115.2968 "/>
<path d="M198.6950 115.2968 L199.1915 115.0486 "/>
<path d="M203.1635 116.7863 L203.1635 120.2618 "/>
<path d="M203.1635 117.2828 L203.4117 117.0346 "/>
<path d="M203.4117 117.0346 L203.9082 116.7863 "/>
<path d="M203.9082 116.7863 L204.6530 116.7863 "/>
<path d="M204.6530 116.7863 L205.1495 117.0346 "/>
<path d="M205.1495 117.0346 L205.3977 117.5311 "/>
<path d="M205.3977 117.5311 L205.3977 120.2618 "/>
</g><text x="178.9569" y="67.3327" transform="scale(-1 1) translate(-357.913769 0)" textLength="15.9501" font-size="6.9510" lengthAdjust="spacingAndGlyphs" text-anchor="middle" opacity="0.01" style="font-family:monospace">22u</text>
<g class="stroked-text"><desc>22u</desc>
<path d="M172.6265 62.3804 L172.8748 62.1321 "/>
<path d="M172.8748 62.1321 L173.3713 61.8839 "/>
<path d="M173.3713 61.8839 L174.6125 61.8839 "/>
<path d="M174.6125 61.8839 L175.1090 62.1321 "/>
<path d="M175.1090 62.1321 L175.3573 62.3804 "/>
<path d="M175.3573 62.3804 L175.6055 62.8769 "/>
<path d="M175.6055 62.8769 L175.6055 63.3734 "/>
<path d="M175.6055 63.3734 L175.3573 64.1181 "/>
<path d="M175.3573 64.1181 L172.3783 67.0971 "/>
<path d="M172.3783 67.0971 L175.6055 67.0971 "/>
<path d="M177.5915 62.3804 L177.8398 62.1321 "/>
<path d="M177.8398 62.1321 L178.3363 61.8839 "/>
<path d="M178.3363 61.8839 L179.5775 61.8839 "/>
<path d="M179.5775 61.8839 L180.0740 62.1321 "/>
<path d="M180.0740 62.1321 L180.3223 62.3804 "/>
<path d="M180.3223 62.3804 L180.5705 62.8769 "/>
<path d="M180.5705 62.8769 L180.5705 63.3734 "/>
<path d="M180.5705 63.3734 L180.3223 64.1181 "/>
<path d="M180.3223 64.1181 L177.3433 67.0971 "/>
<path d="M177.3433 67.0971 L180.5705 67.0971 "/>
<path d="M185.0390 63.6216 L185.0390 67.0971 "/>
<path d="M182.8048 63.6216 L182.8048 66.3524 "/>
<path d="M182.8048 66.3524 L183.0530 66.8489 "/>
<path d="M183.0530 66.8489 L183.5495 67.0971 "/>
<path d="M183.5495 67.0971 L184.2943 67.0971 "/>
<path d="M184.2943 67.0971 L184.7908 66.8489 "/>
<path d="M184.7908 66.8489 L185.0390 66.6006 "/>
</g><text x="221.3302" y="102.3866" transform="scale(-1 1) translate(-442.660306 0)" textLength="15.9501" font-size="6.9510" lengthAdjust="spacingAndGlyphs" text-anchor="middle" opacity="0.01" style="font-family:monospace">1u5</text>
<g class="stroked-text"><desc>1u5</desc>
<path d="M217.9788 102.1510 L214.9998 102.1510 "/>
<path d="M216.4893 102.1510 L216.4893 96.9378 "/>
<path d="M216.4893 96.9378 L215.9928 97.6825 "/>
<path d="M215.9928 97.6825 L215.4963 98.1790 "/>
<path d="M215.4963 98.1790 L214.9998 98.4273 "/>
<path d="M222.4473 98.6755 L222.4473 102.1510 "/>
<path d="M220.2130 98.6755 L220.2130 101.4063 "/>
<path d="M220.2130 101.4063 L220.4613 101.9028 "/>
<path d="M220.4613 101.9028 L220.9578 102.1510 "/>
<path d="M220.9578 102.1510 L221.7025 102.1510 "/>
<path d="M221.7025 102.1510 L222.1990 101.9028 "/>
<path d="M222.1990 101.9028 L222.4473 101.6545 "/>
<path d="M227.4123 96.9378 L224.9298 96.9378 "/>
<path d="M224.9298 96.9378 L224.6815 99.4203 "/>
<path d="M224.6815 99.4203 L224.9298 99.1720 "/>
<path d="M224.9298 99.1720 L225.4263 98.9238 "/>
<path d="M225.4263 98.9238 L226.6675 98.9238 "/>
<path d="M226.6675 98.9238 L227.1640 99.1720 "/>
<path d="M227.1640 99.1720 L227.4123 99.4203 "/>
<path d="M227.4123 99.4203 L227.6605 99.9168 "/>
<path d="M227.6605 99.9168 L227.6605 101.1580 "/>
<path d="M227.6605 101.1580 L227.4123 101.6545 "/>
<path d="M227.4123 101.6545 L227.1640 101.9028 "/>
<path d="M227.1640 101.9028 L226.6675 102.1510 "/>
<path d="M226.6675 102.1510 L225.4263 102.1510 "/>
<path d="M225.4263 102.1510 L224.9298 101.9028 "/>
<path d="M224.9298 101.9028 L224.6815 101.6545 "/>
</g><g transform="rotate(-90.000000 127.8045 74.5478)">
<text x="127.8045" y="77.1544" transform="scale(-1 1) translate(-255.609017 0)" textLength="15.9501" font-size="6.9510" lengthAdjust="spacingAndGlyphs" text-anchor="middle" opacity="0.01" style="font-family:monospace">22u</text>
</g>
<g class="stroked-text"><desc>22u</desc>
<path d="M130.1502 68.2174 L130.3984 68.4657 "/>
<path d="M130.3984 68.4657 L130.6467 68.9622 "/>
<path d="M130.6467 68.9622 L130.6467 70.2034 "/>
<path d="M130.6467 70.2034 L130.3984 70.6999 "/>
<path d="M130.3984 70.6999 L130.1502 70.9482 "/>
<path d="M130.1502 70.9482 L129.6537 71.1964 "/>
<path d="M129.6537 71.1964 L129.1572 71.1964 "/>
<path d="M129.1572 71.1964 L128.4124 70.9482 "/>
<path d="M128.4124 70.9482 L125.4334 67.9692 "/>
<path d="M125.4334 67.9692 L125.4334 71.1964 "/>
<path d="M130.1502 73.1824 L130.3984 73.4307 "/>
<path d="M130.3984 73.4307 L130.6467 73.9272 "/>
<path d="M130.6467 73.9272 L130.6467 75.1684 "/>
<path d="M130.6467 75.1684 L130.3984 75.6649 "/>
<path d="M130.3984 75.6649 L130.1502 75.9132 "/>
<path d="M130.1502 75.9132 L129.6537 76.1614 "/>
<path d="M129.6537 76.1614 L129.1572 76.1614 "/>
<path d="M129.1572 76.1614 L128.4124 75.9132 "/>
<path d="M128.4124 75.9132 L125.4334 72.9342 "/>
<path d="M125.4334 72.9342 L125.4334 76.1614 "/>
<path d="M128.9089 80.6299 L125.4334 80.6299 "/>
<path d="M128.9089 78.3957 L126.1782 78.3957 "/>
<path d="M126.1782 78.3957 L125.6817 78.6439 "/>
<path d="M125.6817 78.6439 L125.4334 79.1404 "/>
<path d="M125.4334 79.1404 L125.4334 79.8852 "/>
<path d="M125.4334 79.8852 L125.6817 80.3817 "/>
<path d="M125.6817 80.3817 L125.9299 80.6299 "/>
</g><g transform="rotate(-90.000000 111.3515 76.5341)">
<text x="111.3515" y="79.1407" transform="scale(-1 1) translate(-222.703005 0)" textLength="15.9501" font-size="6.9510" lengthAdjust="spacingAndGlyphs" text-anchor="middle" opacity="0.01" style="font-family:monospace">1u5</text>
</g>
<g class="stroked-text"><desc>1u5</desc>
<path d="M108.9804 73.1827 L108.9804 70.2037 "/>
<path d="M108.9804 71.6932 L114.1937 71.6932 "/>
<path d="M114.1937 71.6932 L113.4489 71.1967 "/>
<path d="M113.4489 71.1967 L112.9524 70.7002 "/>
<path d="M112.9524 70.7002 L112.7042 70.2037 "/>
<path d="M112.4559 77.6512 L108.9804 77.6512 "/>
<path d="M112.4559 75.4169 L109.7252 75.4169 "/>
<path d="M109.7252 75.4169 L109.2287 75.6652 "/>
<path d="M109.2287 75.6652 L108.9804 76.1617 "/>
<path d="M108.9804 76.1617 L108.9804 76.9064 "/>
<path d="M108.9804 76.9064 L109.2287 77.4029 "/>
<path d="M109.2287 77.4029 L109.4769 77.6512 "/>
<path d="M114.1937 82.6162 L114.1937 80.1337 "/>
<path d="M114.1937 80.1337 L111.7112 79.8854 "/>
<path d="M111.7112 79.8854 L111.9594 80.1337 "/>
<path d="M111.9594 80.1337 L112.2077 80.6302 "/>
<path d="M112.2077 80.6302 L112.2077 81.8714 "/>
<path d="M112.2077 81.8714 L111.9594 82.3679 "/>
<path d="M111.9594 82.3679 L111.7112 82.6162 "/>
<path d="M111.7112 82.6162 L111.2147 82.8644 "/>
<path d="M111.2147 82.8644 L109.9734 82.8644 "/>
<path d="M109.9734 82.8644 L109.4769 82.6162 "/>
<path d="M109.4769 82.6162 L109.2287 82.3679 "/>
<path d="M109.2287 82.3679 L108.9804 81.8714 "/>
<path d="M108.9804 81.8714 L108.9804 80.6302 "/>
<path d="M108.9804 80.6302 L109.2287 80.1337 "/>
<path d="M109.2287 80.1337 L109.4769 79.8854 "/>
</g><text x="176.9706" y="85.6155" transform="scale(-1 1) translate(-353.941275 0)" textLength="43.5058" font-size="6.9510" lengthAdjust="spacingAndGlyphs" text-anchor="middle" opacity="0.01" style="font-family:monospace">D_Schottky</text>
<g class="stroked-text"><desc>D_Schottky</desc>
<path d="M157.1106 85.3800 L157.1106 80.1668 "/>
<path d="M157.1106 80.1668 L158.3519 80.1668 "/>
<path d="M158.3519 80.1668 L159.0966 80.4150 "/>
<path d="M159.0966 80.4150 L159.5931 80.9115 "/>
<path d="M159.5931 80.9115 L159.8414 81.4080 "/>
<path d="M159.8414 81.4080 L160.0896 82.4010 "/>
<path d="M160.0896 82.4010 L160.0896 83.1457 "/>
<path d="M160.0896 83.1457 L159.8414 84.1387 "/>
<path d="M159.8414 84.1387 L159.5931 84.6352 "/>
<path d="M159.5931 84.6352 L159.0966 85.1317 "/>
<path d="M159.0966 85.1317 L158.3519 85.3800 "/>
<path d="M158.3519 85.3800 L157.1106 85.3800 "/>
<path d="M161.0826 85.8765 L165.0546 85.8765 "/>
<path d="M166.0476 85.1317 L166.7924 85.3800 "/>
<path d="M166.7924 85.3800 L168.0336 85.3800 "/>
<path d="M168.0336 85.3800 L168.5301 85.1317 "/>
<path d="M168.5301 85.1317 L168.7784 84.8835 "/>
<path d="M168.7784 84.8835 L169.0266 84.3870 "/>
<path d="M169.0266 84.3870 L169.0266 83.8905 "/>
<path d="M169.0266 83.8905 L168.7784 83.3940 "/>
<path d="M168.7784 83.3940 L168.5301 83.1457 "/>
<path d="M168.5301 83.1457 L168.0336 82.8975 "/>
<path d="M168.0336 82.8975 L167.0406 82.6492 "/>
<path d="M167.0406 82.6492 L166.5441 82.4010 "/>
<path d="M166.5441 82.4010 L166.2959 82.1527 "/>
<path d="M166.2959 82.1527 L166.0476 81.6562 "/>
<path d="M166.0476 81.6562 L166.0476 81.1598 "/>
<path d="M166.0476 81.1598 L166.2959 80.6633 "/>
<path d="M166.2959 80.6633 L166.5441 80.4150 "/>
<path d="M166.5441 80.4150 L167.0406 80.1668 "/>
<path d="M167.0406 80.1668 L168.2819 80.1668 "/>
<path d="M168.2819 80.1668 L169.0266 80.4150 "/>
<path d="M173.4951 85.1317 L172.9986 85.3800 "/>
<path d="M172.9986 85.3800 L172.0056 85.3800 "/>
<path d="M172.0056 85.3800 L171.5091 85.1317 "/>
<path d="M171.5091 85.1317 L171.2609 84.8835 "/>
<path d="M171.2609 84.8835 L171.0126 84.3870 "/>
<path d="M171.0126 84.3870 L171.0126 82.8975 "/>
<path d="M171.0126 82.8975 L171.2609 82.4010 "/>
<path d="M171.2609 82.4010 L171.5091 82.1527 "/>
<path d="M171.5091 82.1527 L172.0056 81.9045 "/>
<path d="M172.0056 81.9045 L172.9986 81.9045 "/>
<path d="M172.9986 81.9045 L173.4951 82.1527 "/>
<path d="M175.7294 85.3800 L175.7294 80.1668 "/>
<path d="M177.9636 85.3800 L177.9636 82.6492 "/>
<path d="M177.9636 82.6492 L177.7154 82.1527 "/>
<path d="M177.7154 82.1527 L177.2189 81.9045 "/>
<path d="M177.2189 81.9045 L176.4741 81.9045 "/>
<path d="M176.4741 81.9045 L175.9776 82.1527 "/>
<path d="M175.9776 82.1527 L175.7294 82.4010 "/>
<path d="M181.1909 85.3800 L180.6944 85.1317 "/>
<path d="M180.6944 85.1317 L180.4461 84.8835 "/>
<path d="M180.4461 84.8835 L180.1979 84.3870 "/>
<path d="M180.1979 84.3870 L180.1979 82.8975 "/>
<path d="M180.1979 82.8975 L180.4461 82.4010 "/>
<path d="M180.4461 82.4010 L180.6944 82.1527 "/>
<path d="M180.6944 82.1527 L181.1909 81.9045 "/>
<path d="M181.1909 81.9045 L181.9356 81.9045 "/>
<path d="M181.9356 81.9045 L182.4321 82.1527 "/>
<path d="M182.4321 82.1527 L182.6804 82.4010 "/>
<path d="M182.6804 82.4010 L182.9286 82.8975 "/>
<path d="M182.9286 82.8975 L182.9286 84.3870 "/>
<path d="M182.9286 84.3870 L182.6804 84.8835 "/>
<path d="M182.6804 84.8835 L182.4321 85.1317 "/>
<path d="M182.4321 85.1317 L181.9356 85.3800 "/>
<path d="M181.9356 85.3800 L181.1909 85.3800 "/>
<path d="M184.4181 81.9045 L186.4041 81.9045 "/>
<path d="M185.1629 80.1668 L185.1629 84.6352 "/>
<path d="M185.1629 84.6352 L185.4111 85.1317 "/>
<path d="M185.4111 85.1317 L185.9076 85.3800 "/>
<path d="M185.9076 85.3800 L186.4041 85.3800 "/>
<path d="M187.3971 81.9045 L189.3831 81.9045 "/>
<path d="M188.1419 80.1668 L188.1419 84.6352 "/>
<path d="M188.1419 84.6352 L188.3901 85.1317 "/>
<path d="M188.3901 85.1317 L188.8866 85.3800 "/>
<path d="M188.8866 85.3800 L189.3831 85.3800 "/>
<path d="M191.1209 85.3800 L191.1209 80.1668 "/>
<path d="M191.6174 83.3940 L193.1069 85.3800 "/>
<path d="M193.1069 81.9045 L191.1209 83.8905 "/>
<path d="M194.8446 81.9045 L196.0859 85.3800 "/>
<path d="M197.3271 81.9045 L196.0859 85.3800 "/>
<path d="M196.0859 85.3800 L195.5894 86.6212 "/>
<path d="M195.5894 86.6212 L195.3411 86.8695 "/>
<path d="M195.3411 86.8695 L194.8446 87.1177 "/>
</g><g transform="rotate(-90.000000 240.3584 114.7759)">
<text x="240.3584" y="117.3826" transform="scale(-1 1) translate(-480.716798 0)" textLength="23.8940" font-size="6.9510" lengthAdjust="spacingAndGlyphs" text-anchor="middle" opacity="0.01" style="font-family:monospace">4.7uH</text>
</g>
<g class="stroked-text"><desc>4.7uH</desc>
<path d="M241.4628 106.9561 L237.9873 106.9561 "/>
<path d="M243.4488 105.7148 L239.7251 104.4736 "/>
<path d="M239.7251 104.4736 L239.7251 107.7008 "/>
<path d="M238.4838 109.6868 L238.2356 109.9351 "/>
<path d="M238.2356 109.9351 L237.9873 109.6868 "/>
<path d="M237.9873 109.6868 L238.2356 109.4386 "/>
<path d="M238.2356 109.4386 L238.4838 109.6868 "/>
<path d="M238.4838 109.6868 L237.9873 109.6868 "/>
<path d="M243.2006 111.6728 L243.2006 115.1483 "/>
<path d="M243.2006 115.1483 L237.9873 112.9141 "/>
<path d="M241.4628 119.3686 L237.9873 119.3686 "/>
<path d="M241.4628 117.1343 L238.7321 117.1343 "/>
<path d="M238.7321 117.1343 L238.2356 117.3826 "/>
<path d="M238.2356 117.3826 L237.9873 117.8791 "/>
<path d="M237.9873 117.8791 L237.9873 118.6238 "/>
<path d="M237.9873 118.6238 L238.2356 119.1203 "/>
<path d="M238.2356 119.1203 L238.4838 119.3686 "/>
<path d="M237.9873 121.8511 L243.2006 121.8511 "/>
<path d="M240.7181 121.8511 L240.7181 124.8301 "/>
<path d="M237.9873 124.8301 L243.2006 124.8301 "/>
</g><text x="164.3911" y="54.2891" transform="scale(-1 1) translate(-328.782147 0)" textLength="26.3765" font-size="6.9510" lengthAdjust="spacingAndGlyphs" text-anchor="middle" opacity="0.01" style="font-family:monospace">240nH</text>
<g class="stroked-text"><desc>240nH</desc>
<path d="M152.8475 49.3369 L153.0957 49.0886 "/>
<path d="M153.0957 49.0886 L153.5922 48.8404 "/>
<path d="M153.5922 48.8404 L154.8335 48.8404 "/>
<path d="M154.8335 48.8404 L155.3300 49.0886 "/>
<path d="M155.3300 49.0886 L155.5782 49.3369 "/>
<path d="M155.5782 49.3369 L155.8265 49.8334 "/>
<path d="M155.8265 49.8334 L155.8265 50.3299 "/>
<path d="M155.8265 50.3299 L155.5782 51.0746 "/>
<path d="M155.5782 51.0746 L152.5992 54.0536 "/>
<path d="M152.5992 54.0536 L155.8265 54.0536 "/>
<path d="M160.2950 50.5781 L160.2950 54.0536 "/>
<path d="M159.0537 48.5921 L157.8125 52.3158 "/>
<path d="M157.8125 52.3158 L161.0397 52.3158 "/>
<path d="M164.0187 48.8404 L164.5152 48.8404 "/>
<path d="M164.5152 48.8404 L165.0117 49.0886 "/>
<path d="M165.0117 49.0886 L165.2599 49.3369 "/>
<path d="M165.2599 49.3369 L165.5082 49.8334 "/>
<path d="M165.5082 49.8334 L165.7564 50.8263 "/>
<path d="M165.7564 50.8263 L165.7564 52.0676 "/>
<path d="M165.7564 52.0676 L165.5082 53.0606 "/>
<path d="M165.5082 53.0606 L165.2599 53.5571 "/>
<path d="M165.2599 53.5571 L165.0117 53.8054 "/>
<path d="M165.0117 53.8054 L164.5152 54.0536 "/>
<path d="M164.5152 54.0536 L164.0187 54.0536 "/>
<path d="M164.0187 54.0536 L163.5222 53.8054 "/>
<path d="M163.5222 53.8054 L163.2740 53.5571 "/>
<path d="M163.2740 53.5571 L163.0257 53.0606 "/>
<path d="M163.0257 53.0606 L162.7775 52.0676 "/>
<path d="M162.7775 52.0676 L162.7775 50.8263 "/>
<path d="M162.7775 50.8263 L163.0257 49.8334 "/>
<path d="M163.0257 49.8334 L163.2740 49.3369 "/>
<path d="M163.2740 49.3369 L163.5222 49.0886 "/>
<path d="M163.5222 49.0886 L164.0187 48.8404 "/>
<path d="M167.9907 50.5781 L167.9907 54.0536 "/>
<path d="M167.9907 51.0746 L168.2389 50.8263 "/>
<path d="M168.2389 50.8263 L168.7354 50.5781 "/>
<path d="M168.7354 50.5781 L169.4802 50.5781 "/>
<path d="M169.4802 50.5781 L169.9767 50.8263 "/>
<path d="M169.9767 50.8263 L170.2249 51.3228 "/>
<path d="M170.2249 51.3228 L170.2249 54.0536 "/>
<path d="M172.7074 54.0536 L172.7074 48.8404 "/>
<path d="M172.7074 51.3228 L175.6864 51.3228 "/>
<path d="M175.6864 54.0536 L175.6864 48.8404 "/>
</g><text x="218.6818" y="166.2280" transform="scale(-1 1) translate(-437.363647 0)" textLength="20.4186" font-size="6.9510" lengthAdjust="spacingAndGlyphs" text-anchor="middle" opacity="0.01" style="font-family:monospace">35k7</text>
<g class="stroked-text"><desc>35k7</desc>
<path d="M209.8690 160.7792 L213.0962 160.7792 "/>
<path d="M213.0962 160.7792 L211.3585 162.7652 "/>
<path d="M211.3585 162.7652 L212.1032 162.7652 "/>
<path d="M212.1032 162.7652 L212.5997 163.0134 "/>
<path d="M212.5997 163.0134 L212.8480 163.2617 "/>
<path d="M212.8480 163.2617 L213.0962 163.7582 "/>
<path d="M213.0962 163.7582 L213.0962 164.9994 "/>
<path d="M213.0962 164.9994 L212.8480 165.4959 "/>
<path d="M212.8480 165.4959 L212.5997 165.7442 "/>
<path d="M212.5997 165.7442 L212.1032 165.9924 "/>
<path d="M212.1032 165.9924 L210.6137 165.9924 "/>
<path d="M210.6137 165.9924 L210.1172 165.7442 "/>
<path d="M210.1172 165.7442 L209.8690 165.4959 "/>
<path d="M217.8130 160.7792 L215.3305 160.7792 "/>
<path d="M215.3305 160.7792 L215.0822 163.2617 "/>
<path d="M215.0822 163.2617 L215.3305 163.0134 "/>
<path d="M215.3305 163.0134 L215.8270 162.7652 "/>
<path d="M215.8270 162.7652 L217.0682 162.7652 "/>
<path d="M217.0682 162.7652 L217.5647 163.0134 "/>
<path d="M217.5647 163.0134 L217.8130 163.2617 "/>
<path d="M217.8130 163.2617 L218.0612 163.7582 "/>
<path d="M218.0612 163.7582 L218.0612 164.9994 "/>
<path d="M218.0612 164.9994 L217.8130 165.4959 "/>
<path d="M217.8130 165.4959 L217.5647 165.7442 "/>
<path d="M217.5647 165.7442 L217.0682 165.9924 "/>
<path d="M217.0682 165.9924 L215.8270 165.9924 "/>
<path d="M215.8270 165.9924 L215.3305 165.7442 "/>
<path d="M215.3305 165.7442 L215.0822 165.4959 "/>
<path d="M220.2955 165.9924 L220.2955 160.7792 "/>
<path d="M220.7920 164.0064 L222.2815 165.9924 "/>
<path d="M222.2815 162.5169 L220.2955 164.5029 "/>
<path d="M224.0192 160.7792 L227.4947 160.7792 "/>
<path d="M227.4947 160.7792 L225.2605 165.9924 "/>
</g><text x="237.2201" y="130.4286" transform="scale(-1 1) translate(-474.440257 0)" textLength="20.4186" font-size="6.9510" lengthAdjust="spacingAndGlyphs" text-anchor="middle" opacity="0.01" style="font-family:monospace">10k2</text>
<g class="stroked-text"><desc>10k2</desc>
<path d="M231.6345 130.1931 L228.6555 130.1931 "/>
<path d="M230.1450 130.1931 L230.1450 124.9798 "/>
<path d="M230.1450 124.9798 L229.6485 125.7246 "/>
<path d="M229.6485 125.7246 L229.1520 126.2211 "/>
<path d="M229.1520 126.2211 L228.6555 126.4693 "/>
<path d="M234.8618 124.9798 L235.3583 124.9798 "/>
<path d="M235.3583 124.9798 L235.8548 125.2281 "/>
<path d="M235.8548 125.2281 L236.1030 125.4763 "/>
<path d="M236.1030 125.4763 L236.3513 125.9728 "/>
<path d="M236.3513 125.9728 L236.5995 126.9658 "/>
<path d="M236.5995 126.9658 L236.5995 128.2071 "/>
<path d="M236.5995 128.2071 L236.3513 129.2001 "/>
<path d="M236.3513 129.2001 L236.1030 129.6966 "/>
<path d="M236.1030 129.6966 L235.8548 129.9448 "/>
<path d="M235.8548 129.9448 L235.3583 130.1931 "/>
<path d="M235.3583 130.1931 L234.8618 130.1931 "/>
<path d="M234.8618 130.1931 L234.3653 129.9448 "/>
<path d="M234.3653 129.9448 L234.1170 129.6966 "/>
<path d="M234.1170 129.6966 L233.8688 129.2001 "/>
<path d="M233.8688 129.2001 L233.6205 128.2071 "/>
<path d="M233.6205 128.2071 L233.6205 126.9658 "/>
<path d="M233.6205 126.9658 L233.8688 125.9728 "/>
<path d="M233.8688 125.9728 L234.1170 125.4763 "/>
<path d="M234.1170 125.4763 L234.3653 125.2281 "/>
<path d="M234.3653 125.2281 L234.8618 124.9798 "/>
<path d="M238.8338 130.1931 L238.8338 124.9798 "/>
<path d="M239.3303 128.2071 L240.8198 130.1931 "/>
<path d="M240.8198 126.7176 L238.8338 128.7036 "/>
<path d="M242.8058 125.4763 L243.0540 125.2281 "/>
<path d="M243.0540 125.2281 L243.5505 124.9798 "/>
<path d="M243.5505 124.9798 L244.7918 124.9798 "/>
<path d="M244.7918 124.9798 L245.2883 125.2281 "/>
<path d="M245.2883 125.2281 L245.5365 125.4763 "/>
<path d="M245.5365 125.4763 L245.7848 125.9728 "/>
<path d="M245.7848 125.9728 L245.7848 126.4693 "/>
<path d="M245.7848 126.4693 L245.5365 127.2141 "/>
<path d="M245.5365 127.2141 L242.5575 130.1931 "/>
<path d="M242.5575 130.1931 L245.7848 130.1931 "/>
</g><text x="237.2201" y="165.5659" transform="scale(-1 1) translate(-474.440257 0)" textLength="20.4186" font-size="6.9510" lengthAdjust="spacingAndGlyphs" text-anchor="middle" opacity="0.01" style="font-family:monospace">1k93</text>
<g class="stroked-text"><desc>1k93</desc>
<path d="M231.6345 165.3303 L228.6555 165.3303 "/>
<path d="M230.1450 165.3303 L230.1450 160.1171 "/>
<path d="M230.1450 160.1171 L229.6485 160.8619 "/>
<path d="M229.6485 160.8619 L229.1520 161.3583 "/>
<path d="M229.1520 161.3583 L228.6555 161.6066 "/>
<path d="M233.8688 165.3303 L233.8688 160.1171 "/>
<path d="M234.3653 163.3443 L235.8548 165.3303 "/>
<path d="M235.8548 161.8548 L233.8688 163.8408 "/>
<path d="M238.3373 165.3303 L239.3303 165.3303 "/>
<path d="M239.3303 165.3303 L239.8268 165.0821 "/>
<path d="M239.8268 165.0821 L240.0750 164.8338 "/>
<path d="M240.0750 164.8338 L240.5715 164.0891 "/>
<path d="M240.5715 164.0891 L240.8198 163.0961 "/>
<path d="M240.8198 163.0961 L240.8198 161.1101 "/>
<path d="M240.8198 161.1101 L240.5715 160.6136 "/>
<path d="M240.5715 160.6136 L240.3233 160.3654 "/>
<path d="M240.3233 160.3654 L239.8268 160.1171 "/>
<path d="M239.8268 160.1171 L238.8338 160.1171 "/>
<path d="M238.8338 160.1171 L238.3373 160.3654 "/>
<path d="M238.3373 160.3654 L238.0890 160.6136 "/>
<path d="M238.0890 160.6136 L237.8408 161.1101 "/>
<path d="M237.8408 161.1101 L237.8408 162.3513 "/>
<path d="M237.8408 162.3513 L238.0890 162.8478 "/>
<path d="M238.0890 162.8478 L238.3373 163.0961 "/>
<path d="M238.3373 163.0961 L238.8338 163.3443 "/>
<path d="M238.8338 163.3443 L239.8268 163.3443 "/>
<path d="M239.8268 163.3443 L240.3233 163.0961 "/>
<path d="M240.3233 163.0961 L240.5715 162.8478 "/>
<path d="M240.5715 162.8478 L240.8198 162.3513 "/>
<path d="M242.5575 160.1171 L245.7848 160.1171 "/>
<path d="M245.7848 160.1171 L244.0470 162.1031 "/>
<path d="M244.0470 162.1031 L244.7918 162.1031 "/>
<path d="M244.7918 162.1031 L245.2883 162.3513 "/>
<path d="M245.2883 162.3513 L245.5365 162.5996 "/>
<path d="M245.5365 162.5996 L245.7848 163.0961 "/>
<path d="M245.7848 163.0961 L245.7848 164.3373 "/>
<path d="M245.7848 164.3373 L245.5365 164.8338 "/>
<path d="M245.5365 164.8338 L245.2883 165.0821 "/>
<path d="M245.2883 165.0821 L244.7918 165.3303 "/>
<path d="M244.7918 165.3303 L243.3023 165.3303 "/>
<path d="M243.3023 165.3303 L242.8058 165.0821 "/>
<path d="M242.8058 165.0821 L242.5575 164.8338 "/>
</g><g transform="rotate(-90.000000 148.1935 44.7541)">
<text x="148.1935" y="47.3607" transform="scale(-1 1) translate(-296.387032 0)" textLength="15.4536" font-size="6.9510" lengthAdjust="spacingAndGlyphs" text-anchor="middle" opacity="0.01" style="font-family:monospace">1k2</text>
</g>
<g class="stroked-text"><desc>1k2</desc>
<path d="M145.8224 41.6510 L145.8224 38.6720 "/>
<path d="M145.8224 40.1615 L151.0357 40.1615 "/>
<path d="M151.0357 40.1615 L150.2909 39.6650 "/>
<path d="M150.2909 39.6650 L149.7944 39.1685 "/>
<path d="M149.7944 39.1685 L149.5462 38.6720 "/>
<path d="M145.8224 43.8852 L151.0357 43.8852 "/>
<path d="M147.8084 44.3817 L145.8224 45.8712 "/>
<path d="M149.2979 45.8712 L147.3119 43.8852 "/>
<path d="M150.5392 47.8572 L150.7874 48.1055 "/>
<path d="M150.7874 48.1055 L151.0357 48.6020 "/>
<path d="M151.0357 48.6020 L151.0357 49.8432 "/>
<path d="M151.0357 49.8432 L150.7874 50.3397 "/>
<path d="M150.7874 50.3397 L150.5392 50.5880 "/>
<path d="M150.5392 50.5880 L150.0427 50.8362 "/>
<path d="M150.0427 50.8362 L149.5462 50.8362 "/>
<path d="M149.5462 50.8362 L148.8014 50.5880 "/>
<path d="M148.8014 50.5880 L145.8224 47.6090 "/>
<path d="M145.8224 47.6090 L145.8224 50.8362 "/>
</g><text x="173.6602" y="166.9057" transform="scale(-1 1) translate(-347.320452 0)" textLength="40.2785" font-size="6.9510" lengthAdjust="spacingAndGlyphs" text-anchor="middle" opacity="0.01" style="font-family:monospace">TPS54332</text>
<g class="stroked-text"><desc>TPS54332</desc>
<path d="M154.6691 161.4569 L157.6481 161.4569 "/>
<path d="M156.1586 166.6702 L156.1586 161.4569 "/>
<path d="M159.3859 166.6702 L159.3859 161.4569 "/>
<path d="M159.3859 161.4569 L161.3719 161.4569 "/>
<path d="M161.3719 161.4569 L161.8684 161.7052 "/>
<path d="M161.8684 161.7052 L162.1166 161.9534 "/>
<path d="M162.1166 161.9534 L162.3649 162.4499 "/>
<path d="M162.3649 162.4499 L162.3649 163.1947 "/>
<path d="M162.3649 163.1947 L162.1166 163.6912 "/>
<path d="M162.1166 163.6912 L161.8684 163.9394 "/>
<path d="M161.8684 163.9394 L161.3719 164.1877 "/>
<path d="M161.3719 164.1877 L159.3859 164.1877 "/>
<path d="M164.3509 166.4219 L165.0956 166.6702 "/>
<path d="M165.0956 166.6702 L166.3369 166.6702 "/>
<path d="M166.3369 166.6702 L166.8334 166.4219 "/>
<path d="M166.8334 166.4219 L167.0816 166.1736 "/>
<path d="M167.0816 166.1736 L167.3299 165.6771 "/>
<path d="M167.3299 165.6771 L167.3299 165.1807 "/>
<path d="M167.3299 165.1807 L167.0816 164.6842 "/>
<path d="M167.0816 164.6842 L166.8334 164.4359 "/>
<path d="M166.8334 164.4359 L166.3369 164.1877 "/>
<path d="M166.3369 164.1877 L165.3439 163.9394 "/>
<path d="M165.3439 163.9394 L164.8474 163.6912 "/>
<path d="M164.8474 163.6912 L164.5991 163.4429 "/>
<path d="M164.5991 163.4429 L164.3509 162.9464 "/>
<path d="M164.3509 162.9464 L164.3509 162.4499 "/>
<path d="M164.3509 162.4499 L164.5991 161.9534 "/>
<path d="M164.5991 161.9534 L164.8474 161.7052 "/>
<path d="M164.8474 161.7052 L165.3439 161.4569 "/>
<path d="M165.3439 161.4569 L166.5851 161.4569 "/>
<path d="M166.5851 161.4569 L167.3299 161.7052 "/>
<path d="M172.0466 161.4569 L169.5641 161.4569 "/>
<path d="M169.5641 161.4569 L169.3159 163.9394 "/>
<path d="M169.3159 163.9394 L169.5641 163.6912 "/>
<path d="M169.5641 163.6912 L170.0606 163.4429 "/>
<path d="M170.0606 163.4429 L171.3019 163.4429 "/>
<path d="M171.3019 163.4429 L171.7984 163.6912 "/>
<path d="M171.7984 163.6912 L172.0466 163.9394 "/>
<path d="M172.0466 163.9394 L172.2949 164.4359 "/>
<path d="M172.2949 164.4359 L172.2949 165.6771 "/>
<path d="M172.2949 165.6771 L172.0466 166.1736 "/>
<path d="M172.0466 166.1736 L171.7984 166.4219 "/>
<path d="M171.7984 166.4219 L171.3019 166.6702 "/>
<path d="M171.3019 166.6702 L170.0606 166.6702 "/>
<path d="M170.0606 166.6702 L169.5641 166.4219 "/>
<path d="M169.5641 166.4219 L169.3159 166.1736 "/>
<path d="M176.7634 163.1947 L176.7634 166.6702 "/>
<path d="M175.5221 161.2087 L174.2809 164.9324 "/>
<path d="M174.2809 164.9324 L177.5081 164.9324 "/>
<path d="M178.9976 161.4569 L182.2248 161.4569 "/>
<path d="M182.2248 161.4569 L180.4871 163.4429 "/>
<path d="M180.4871 163.4429 L181.2319 163.4429 "/>
<path d="M181.2319 163.4429 L181.7284 163.6912 "/>
<path d="M181.7284 163.6912 L181.9766 163.9394 "/>
<path d="M181.9766 163.9394 L182.2248 164.4359 "/>
<path d="M182.2248 164.4359 L182.2248 165.6771 "/>
<path d="M182.2248 165.6771 L181.9766 166.1736 "/>
<path d="M181.9766 166.1736 L181.7284 166.4219 "/>
<path d="M181.7284 166.4219 L181.2319 166.6702 "/>
<path d="M181.2319 166.6702 L179.7424 166.6702 "/>
<path d="M179.7424 166.6702 L179.2459 166.4219 "/>
<path d="M179.2459 166.4219 L178.9976 166.1736 "/>
<path d="M183.9626 161.4569 L187.1898 161.4569 "/>
<path d="M187.1898 161.4569 L185.4521 163.4429 "/>
<path d="M185.4521 163.4429 L186.1968 163.4429 "/>
<path d="M186.1968 163.4429 L186.6933 163.6912 "/>
<path d="M186.6933 163.6912 L186.9416 163.9394 "/>
<path d="M186.9416 163.9394 L187.1898 164.4359 "/>
<path d="M187.1898 164.4359 L187.1898 165.6771 "/>
<path d="M187.1898 165.6771 L186.9416 166.1736 "/>
<path d="M186.9416 166.1736 L186.6933 166.4219 "/>
<path d="M186.6933 166.4219 L186.1968 166.6702 "/>
<path d="M186.1968 166.6702 L184.7074 166.6702 "/>
<path d="M184.7074 166.6702 L184.2109 166.4219 "/>
<path d="M184.2109 166.4219 L183.9626 166.1736 "/>
<path d="M189.1758 161.9534 L189.4241 161.7052 "/>
<path d="M189.4241 161.7052 L189.9206 161.4569 "/>
<path d="M189.9206 161.4569 L191.1618 161.4569 "/>
<path d="M191.1618 161.4569 L191.6583 161.7052 "/>
<path d="M191.6583 161.7052 L191.9066 161.9534 "/>
<path d="M191.9066 161.9534 L192.1548 162.4499 "/>
<path d="M192.1548 162.4499 L192.1548 162.9464 "/>
<path d="M192.1548 162.9464 L191.9066 163.6912 "/>
<path d="M191.9066 163.6912 L188.9276 166.6702 "/>
<path d="M188.9276 166.6702 L192.1548 166.6702 "/>
</g><g>
</g>
<g>
</g>
<g>
</g>
<g>
</g>
<g>
</g>
<g>
</g>
<g>
</g>
<g>
</g>
<g>
</g>
<g>
</g>
<g>
</g>
<g>
</g>
<g>
</g>
<g>
</g>
<g>
</g>
<g>
</g>
<g>
</g>
<g>
</g>
<g>
</g>
<g>
</g>
<g>
</g>
<g>
</g>
<g>
</g>
<g>
</g>
<g>
</g>
<g>
</g>
<g>
</g>
<g>
</g>
<g>
</g>
<g>
</g>
<g>
</g>
<g>
</g>
<g>
</g>
</g> 
<svg:g><svg:g><svg:title>SVG Image created as STEPDOWN02-Edge_Cuts.svg date 2023/09/17 10:02:17 </svg:title>
  <svg:desc>Image generated by PCBNEW </svg:desc>
<svg:g style="fill:#C2C200; fill-opacity:1.0000;stroke:#C2C200; stroke-opacity:1.0000; stroke-linecap:round; stroke-linejoin:round;" transform="translate(0 0) scale(1 1)">
</svg:g>
<svg:g style="fill:#C2C200; fill-opacity:0.0;  stroke:#C2C200; stroke-width:0.0000; stroke-opacity:1;  stroke-linecap:round; stroke-linejoin:round;">
</svg:g>
<svg:g style="fill:#C2C200; fill-opacity:0.0;  stroke:#C2C200; stroke-width:0.7820; stroke-opacity:1;  stroke-linecap:round; stroke-linejoin:round;">
<svg:path d="M253.1101 0.3946 L253.1101 209.6126 "/>
<svg:path d="M253.1101 209.6126 L43.8921 209.6126 "/>
<svg:path d="M43.8921 0.3946 L253.1101 0.3946 "/>
<svg:path d="M43.8921 209.6126 L43.8921 0.3946 "/>
<svg:g>
</svg:g>
<svg:g>
</svg:g>
<svg:g>
</svg:g>
<svg:g>
</svg:g>
<svg:g>
</svg:g>
<svg:g>
</svg:g>
<svg:g>
</svg:g>
<svg:g>
</svg:g>
<svg:g>
</svg:g>
<svg:g>
</svg:g>
<svg:g>
</svg:g>
<svg:g>
</svg:g>
<svg:g>
</svg:g>
<svg:g>
</svg:g>
<svg:g>
</svg:g>
<svg:g>
</svg:g>
<svg:g>
</svg:g>
<svg:g>
</svg:g>
<svg:g>
</svg:g>
<svg:g>
</svg:g>
<svg:g>
</svg:g>
<svg:g>
</svg:g>
<svg:g>
</svg:g>
<svg:g>
</svg:g>
<svg:g>
</svg:g>
<svg:g>
</svg:g>
<svg:g>
</svg:g>
<svg:g>
</svg:g>
<svg:g>
</svg:g>
<svg:g>
</svg:g>
<svg:g>
</svg:g>
<svg:g>
</svg:g>
<svg:g>
</svg:g>
</svg:g> 
</svg:g></svg:g></svg>
