<?xml version='1.0' encoding='ASCII' standalone='yes'?>
<svg xmlns:svg="http://www.w3.org/2000/svg" xmlns="http://www.w3.org/2000/svg" xmlns:xlink="http://www.w3.org/1999/xlink" version="1.1" width="297.0022mm" height="210.0072mm" viewBox="0.0000 0.0000 297.0022 210.0072">
<title>SVG Image created as STEPDOWN02-F_Fab.svg date 2023/09/17 10:02:17 </title>
  <desc>Image generated by PCBNEW </desc>
<g style="fill:#848484; fill-opacity:1.0000;stroke:#848484; stroke-opacity:1.0000; stroke-linecap:round; stroke-linejoin:round;" transform="translate(0 0) scale(1 1)">
</g>
<g style="fill:#848484; fill-opacity:0.0;  stroke:#848484; stroke-width:0.0000; stroke-opacity:1;  stroke-linecap:round; stroke-linejoin:round;">
</g>
<g style="fill:#848484; fill-opacity:0.01;  stroke:#848484; stroke-width:0.7820; stroke-opacity:1;  stroke-linecap:round; stroke-linejoin:round;">
<text x="113.4107" y="170.2370" textLength="51.6980" font-size="6.9510" lengthAdjust="spacingAndGlyphs" text-anchor="middle" opacity="0.01" style="font-family:monospace">CONN_01X01</text>
<g class="stroked-text"><desc>CONN_01X01</desc>
<path d="M92.4336 169.5049 L92.1854 169.7532 "/>
<path d="M92.1854 169.7532 L91.4406 170.0014 "/>
<path d="M91.4406 170.0014 L90.9441 170.0014 "/>
<path d="M90.9441 170.0014 L90.1994 169.7532 "/>
<path d="M90.1994 169.7532 L89.7029 169.2567 "/>
<path d="M89.7029 169.2567 L89.4546 168.7602 "/>
<path d="M89.4546 168.7602 L89.2064 167.7672 "/>
<path d="M89.2064 167.7672 L89.2064 167.0224 "/>
<path d="M89.2064 167.0224 L89.4546 166.0294 "/>
<path d="M89.4546 166.0294 L89.7029 165.5329 "/>
<path d="M89.7029 165.5329 L90.1994 165.0364 "/>
<path d="M90.1994 165.0364 L90.9441 164.7882 "/>
<path d="M90.9441 164.7882 L91.4406 164.7882 "/>
<path d="M91.4406 164.7882 L92.1854 165.0364 "/>
<path d="M92.1854 165.0364 L92.4336 165.2847 "/>
<path d="M95.6609 164.7882 L96.6539 164.7882 "/>
<path d="M96.6539 164.7882 L97.1504 165.0364 "/>
<path d="M97.1504 165.0364 L97.6469 165.5329 "/>
<path d="M97.6469 165.5329 L97.8951 166.5259 "/>
<path d="M97.8951 166.5259 L97.8951 168.2637 "/>
<path d="M97.8951 168.2637 L97.6469 169.2567 "/>
<path d="M97.6469 169.2567 L97.1504 169.7532 "/>
<path d="M97.1504 169.7532 L96.6539 170.0014 "/>
<path d="M96.6539 170.0014 L95.6609 170.0014 "/>
<path d="M95.6609 170.0014 L95.1644 169.7532 "/>
<path d="M95.1644 169.7532 L94.6679 169.2567 "/>
<path d="M94.6679 169.2567 L94.4196 168.2637 "/>
<path d="M94.4196 168.2637 L94.4196 166.5259 "/>
<path d="M94.4196 166.5259 L94.6679 165.5329 "/>
<path d="M94.6679 165.5329 L95.1644 165.0364 "/>
<path d="M95.1644 165.0364 L95.6609 164.7882 "/>
<path d="M100.1294 170.0014 L100.1294 164.7882 "/>
<path d="M100.1294 164.7882 L103.1084 170.0014 "/>
<path d="M103.1084 170.0014 L103.1084 164.7882 "/>
<path d="M105.5909 170.0014 L105.5909 164.7882 "/>
<path d="M105.5909 164.7882 L108.5699 170.0014 "/>
<path d="M108.5699 170.0014 L108.5699 164.7882 "/>
<path d="M109.8111 170.4979 L113.7831 170.4979 "/>
<path d="M116.0174 164.7882 L116.5139 164.7882 "/>
<path d="M116.5139 164.7882 L117.0104 165.0364 "/>
<path d="M117.0104 165.0364 L117.2586 165.2847 "/>
<path d="M117.2586 165.2847 L117.5069 165.7812 "/>
<path d="M117.5069 165.7812 L117.7551 166.7742 "/>
<path d="M117.7551 166.7742 L117.7551 168.0154 "/>
<path d="M117.7551 168.0154 L117.5069 169.0084 "/>
<path d="M117.5069 169.0084 L117.2586 169.5049 "/>
<path d="M117.2586 169.5049 L117.0104 169.7532 "/>
<path d="M117.0104 169.7532 L116.5139 170.0014 "/>
<path d="M116.5139 170.0014 L116.0174 170.0014 "/>
<path d="M116.0174 170.0014 L115.5209 169.7532 "/>
<path d="M115.5209 169.7532 L115.2726 169.5049 "/>
<path d="M115.2726 169.5049 L115.0244 169.0084 "/>
<path d="M115.0244 169.0084 L114.7761 168.0154 "/>
<path d="M114.7761 168.0154 L114.7761 166.7742 "/>
<path d="M114.7761 166.7742 L115.0244 165.7812 "/>
<path d="M115.0244 165.7812 L115.2726 165.2847 "/>
<path d="M115.2726 165.2847 L115.5209 165.0364 "/>
<path d="M115.5209 165.0364 L116.0174 164.7882 "/>
<path d="M122.7201 170.0014 L119.7411 170.0014 "/>
<path d="M121.2306 170.0014 L121.2306 164.7882 "/>
<path d="M121.2306 164.7882 L120.7341 165.5329 "/>
<path d="M120.7341 165.5329 L120.2376 166.0294 "/>
<path d="M120.2376 166.0294 L119.7411 166.2777 "/>
<path d="M124.4579 164.7882 L127.9334 170.0014 "/>
<path d="M127.9334 164.7882 L124.4579 170.0014 "/>
<path d="M130.9124 164.7882 L131.4089 164.7882 "/>
<path d="M131.4089 164.7882 L131.9054 165.0364 "/>
<path d="M131.9054 165.0364 L132.1536 165.2847 "/>
<path d="M132.1536 165.2847 L132.4019 165.7812 "/>
<path d="M132.4019 165.7812 L132.6501 166.7742 "/>
<path d="M132.6501 166.7742 L132.6501 168.0154 "/>
<path d="M132.6501 168.0154 L132.4019 169.0084 "/>
<path d="M132.4019 169.0084 L132.1536 169.5049 "/>
<path d="M132.1536 169.5049 L131.9054 169.7532 "/>
<path d="M131.9054 169.7532 L131.4089 170.0014 "/>
<path d="M131.4089 170.0014 L130.9124 170.0014 "/>
<path d="M130.9124 170.0014 L130.4159 169.7532 "/>
<path d="M130.4159 169.7532 L130.1676 169.5049 "/>
<path d="M130.1676 169.5049 L129.9194 169.0084 "/>
<path d="M129.9194 169.0084 L129.6711 168.0154 "/>
<path d="M129.6711 168.0154 L129.6711 166.7742 "/>
<path d="M129.6711 166.7742 L129.9194 165.7812 "/>
<path d="M129.9194 165.7812 L130.1676 165.2847 "/>
<path d="M130.1676 165.2847 L130.4159 165.0364 "/>
<path d="M130.4159 165.0364 L130.9124 164.7882 "/>
<path d="M137.6151 170.0014 L134.6361 170.0014 "/>
<path d="M136.1256 170.0014 L136.1256 164.7882 "/>
<path d="M136.1256 164.7882 L135.6291 165.5329 "/>
<path d="M135.6291 165.5329 L135.1326 166.0294 "/>
<path d="M135.1326 166.0294 L134.6361 166.2777 "/>
</g><g transform="rotate(-90.000000 134.1699 176.4042)">
<text x="134.1699" y="179.0109" textLength="15.9501" font-size="6.9510" lengthAdjust="spacingAndGlyphs" text-anchor="middle" opacity="0.01" style="font-family:monospace">47u</text>
</g>
<g class="stroked-text"><desc>47u</desc>
<path d="M133.0655 180.2521 L136.5410 180.2521 "/>
<path d="M131.0795 181.4933 L134.8032 182.7346 "/>
<path d="M134.8032 182.7346 L134.8032 179.5074 "/>
<path d="M131.3277 178.0178 L131.3277 174.5424 "/>
<path d="M131.3277 174.5424 L136.5410 176.7766 "/>
<path d="M133.0655 170.3221 L136.5410 170.3221 "/>
<path d="M133.0655 172.5564 L135.7962 172.5564 "/>
<path d="M135.7962 172.5564 L136.2927 172.3081 "/>
<path d="M136.2927 172.3081 L136.5410 171.8116 "/>
<path d="M136.5410 171.8116 L136.5410 171.0669 "/>
<path d="M136.5410 171.0669 L136.2927 170.5704 "/>
<path d="M136.2927 170.5704 L136.0445 170.3221 "/>
</g><text x="145.8528" y="37.2835" textLength="46.7330" font-size="6.9510" lengthAdjust="spacingAndGlyphs" text-anchor="middle" opacity="0.01" style="font-family:monospace">POWER OUT</text>
<g class="stroked-text"><desc>POWER OUT</desc>
<path d="M124.3792 37.0480 L124.3792 31.8347 "/>
<path d="M124.3792 31.8347 L126.3652 31.8347 "/>
<path d="M126.3652 31.8347 L126.8617 32.0830 "/>
<path d="M126.8617 32.0830 L127.1099 32.3312 "/>
<path d="M127.1099 32.3312 L127.3582 32.8277 "/>
<path d="M127.3582 32.8277 L127.3582 33.5725 "/>
<path d="M127.3582 33.5725 L127.1099 34.0690 "/>
<path d="M127.1099 34.0690 L126.8617 34.3172 "/>
<path d="M126.8617 34.3172 L126.3652 34.5655 "/>
<path d="M126.3652 34.5655 L124.3792 34.5655 "/>
<path d="M130.5854 31.8347 L131.5784 31.8347 "/>
<path d="M131.5784 31.8347 L132.0749 32.0830 "/>
<path d="M132.0749 32.0830 L132.5714 32.5795 "/>
<path d="M132.5714 32.5795 L132.8197 33.5725 "/>
<path d="M132.8197 33.5725 L132.8197 35.3102 "/>
<path d="M132.8197 35.3102 L132.5714 36.3032 "/>
<path d="M132.5714 36.3032 L132.0749 36.7997 "/>
<path d="M132.0749 36.7997 L131.5784 37.0480 "/>
<path d="M131.5784 37.0480 L130.5854 37.0480 "/>
<path d="M130.5854 37.0480 L130.0889 36.7997 "/>
<path d="M130.0889 36.7997 L129.5924 36.3032 "/>
<path d="M129.5924 36.3032 L129.3442 35.3102 "/>
<path d="M129.3442 35.3102 L129.3442 33.5725 "/>
<path d="M129.3442 33.5725 L129.5924 32.5795 "/>
<path d="M129.5924 32.5795 L130.0889 32.0830 "/>
<path d="M130.0889 32.0830 L130.5854 31.8347 "/>
<path d="M134.5574 31.8347 L135.7987 37.0480 "/>
<path d="M135.7987 37.0480 L136.7916 33.3242 "/>
<path d="M136.7916 33.3242 L137.7846 37.0480 "/>
<path d="M137.7846 37.0480 L139.0259 31.8347 "/>
<path d="M141.0119 34.3172 L142.7496 34.3172 "/>
<path d="M143.4944 37.0480 L141.0119 37.0480 "/>
<path d="M141.0119 37.0480 L141.0119 31.8347 "/>
<path d="M141.0119 31.8347 L143.4944 31.8347 "/>
<path d="M148.7076 37.0480 L146.9699 34.5655 "/>
<path d="M145.7286 37.0480 L145.7286 31.8347 "/>
<path d="M145.7286 31.8347 L147.7146 31.8347 "/>
<path d="M147.7146 31.8347 L148.2111 32.0830 "/>
<path d="M148.2111 32.0830 L148.4594 32.3312 "/>
<path d="M148.4594 32.3312 L148.7076 32.8277 "/>
<path d="M148.7076 32.8277 L148.7076 33.5725 "/>
<path d="M148.7076 33.5725 L148.4594 34.0690 "/>
<path d="M148.4594 34.0690 L148.2111 34.3172 "/>
<path d="M148.2111 34.3172 L147.7146 34.5655 "/>
<path d="M147.7146 34.5655 L145.7286 34.5655 "/>
<path d="M155.9069 31.8347 L156.8999 31.8347 "/>
<path d="M156.8999 31.8347 L157.3964 32.0830 "/>
<path d="M157.3964 32.0830 L157.8929 32.5795 "/>
<path d="M157.8929 32.5795 L158.1411 33.5725 "/>
<path d="M158.1411 33.5725 L158.1411 35.3102 "/>
<path d="M158.1411 35.3102 L157.8929 36.3032 "/>
<path d="M157.8929 36.3032 L157.3964 36.7997 "/>
<path d="M157.3964 36.7997 L156.8999 37.0480 "/>
<path d="M156.8999 37.0480 L155.9069 37.0480 "/>
<path d="M155.9069 37.0480 L155.4104 36.7997 "/>
<path d="M155.4104 36.7997 L154.9139 36.3032 "/>
<path d="M154.9139 36.3032 L154.6656 35.3102 "/>
<path d="M154.6656 35.3102 L154.6656 33.5725 "/>
<path d="M154.6656 33.5725 L154.9139 32.5795 "/>
<path d="M154.9139 32.5795 L155.4104 32.0830 "/>
<path d="M155.4104 32.0830 L155.9069 31.8347 "/>
<path d="M160.3754 31.8347 L160.3754 36.0550 "/>
<path d="M160.3754 36.0550 L160.6236 36.5515 "/>
<path d="M160.6236 36.5515 L160.8719 36.7997 "/>
<path d="M160.8719 36.7997 L161.3684 37.0480 "/>
<path d="M161.3684 37.0480 L162.3614 37.0480 "/>
<path d="M162.3614 37.0480 L162.8579 36.7997 "/>
<path d="M162.8579 36.7997 L163.1061 36.5515 "/>
<path d="M163.1061 36.5515 L163.3544 36.0550 "/>
<path d="M163.3544 36.0550 L163.3544 31.8347 "/>
<path d="M165.0921 31.8347 L168.0711 31.8347 "/>
<path d="M166.5816 37.0480 L166.5816 31.8347 "/>
</g><g>
</g>
<g>
</g>
<g>
</g>
<g>
</g>
<g>
</g>
<g>
</g>
<g>
</g>
<g>
</g>
<g>
</g>
<g>
</g>
<g>
</g>
<g>
</g>
<g>
</g>
<g>
</g>
<g>
</g>
<g>
</g>
<g>
</g>
<g>
</g>
<g>
</g>
<g>
</g>
<g>
</g>
<g>
</g>
<g>
</g>
<g>
</g>
<g>
</g>
<g>
</g>
<g>
</g>
<g>
</g>
<g>
</g>
<g>
</g>
<g>
</g>
<g>
</g>
<g>
</g>
</g> 
<svg:g><svg:g><svg:title>SVG Image created as STEPDOWN02-Edge_Cuts.svg date 2023/09/17 10:02:17 </svg:title>
  <svg:desc>Image generated by PCBNEW </svg:desc>
<svg:g style="fill:#C2C200; fill-opacity:1.0000;stroke:#C2C200; stroke-opacity:1.0000; stroke-linecap:round; stroke-linejoin:round;" transform="translate(0 0) scale(1 1)">
</svg:g>
<svg:g style="fill:#C2C200; fill-opacity:0.0;  stroke:#C2C200; stroke-width:0.0000; stroke-opacity:1;  stroke-linecap:round; stroke-linejoin:round;">
</svg:g>
<svg:g style="fill:#C2C200; fill-opacity:0.0;  stroke:#C2C200; stroke-width:0.7820; stroke-opacity:1;  stroke-linecap:round; stroke-linejoin:round;">
<svg:path d="M43.8921 0.3946 L43.8921 209.6126 "/>
<svg:path d="M43.8921 209.6126 L253.1101 209.6126 "/>
<svg:path d="M253.1101 0.3946 L43.8921 0.3946 "/>
<svg:path d="M253.1101 209.6126 L253.1101 0.3946 "/>
<svg:g>
</svg:g>
<svg:g>
</svg:g>
<svg:g>
</svg:g>
<svg:g>
</svg:g>
<svg:g>
</svg:g>
<svg:g>
</svg:g>
<svg:g>
</svg:g>
<svg:g>
</svg:g>
<svg:g>
</svg:g>
<svg:g>
</svg:g>
<svg:g>
</svg:g>
<svg:g>
</svg:g>
<svg:g>
</svg:g>
<svg:g>
</svg:g>
<svg:g>
</svg:g>
<svg:g>
</svg:g>
<svg:g>
</svg:g>
<svg:g>
</svg:g>
<svg:g>
</svg:g>
<svg:g>
</svg:g>
<svg:g>
</svg:g>
<svg:g>
</svg:g>
<svg:g>
</svg:g>
<svg:g>
</svg:g>
<svg:g>
</svg:g>
<svg:g>
</svg:g>
<svg:g>
</svg:g>
<svg:g>
</svg:g>
<svg:g>
</svg:g>
<svg:g>
</svg:g>
<svg:g>
</svg:g>
<svg:g>
</svg:g>
<svg:g>
</svg:g>
</svg:g> 
</svg:g></svg:g></svg>
