ISO-10303-21;
HEADER;
FILE_DESCRIPTION(('KiCad electronic assembly'),'2;1');
FILE_NAME('STEPDOWN02.step','2024-07-16T00:42:50',('Pcbnew'),('Kicad'),
  'Open CASCADE STEP processor 7.6','KiCad to STEP converter','Unknown'
  );
FILE_SCHEMA(('AUTOMOTIVE_DESIGN { 1 0 10303 214 1 1 1 1 }'));
ENDSEC;
DATA;
#1 = APPLICATION_PROTOCOL_DEFINITION('international standard',
  'automotive_design',2000,#2);
#2 = APPLICATION_CONTEXT(
  'core data for automotive mechanical design processes');
#3 = SHAPE_DEFINITION_REPRESENTATION(#4,#10);
#4 = PRODUCT_DEFINITION_SHAPE('','',#5);
#5 = PRODUCT_DEFINITION('design','',#6,#9);
#6 = PRODUCT_DEFINITION_FORMATION('','',#7);
#7 = PRODUCT('STEPDOWN02 1','STEPDOWN02 1','',(#8));
#8 = PRODUCT_CONTEXT('',#2,'mechanical');
#9 = PRODUCT_DEFINITION_CONTEXT('part definition',#2,'design');
#10 = SHAPE_REPRESENTATION('',(#11,#15),#19);
#11 = AXIS2_PLACEMENT_3D('',#12,#13,#14);
#12 = CARTESIAN_POINT('',(0.,0.,0.));
#13 = DIRECTION('',(0.,0.,1.));
#14 = DIRECTION('',(1.,0.,-0.));
#15 = AXIS2_PLACEMENT_3D('',#16,#17,#18);
#16 = CARTESIAN_POINT('',(0.,0.,0.));
#17 = DIRECTION('',(0.,0.,1.));
#18 = DIRECTION('',(1.,0.,-0.));
#19 = ( GEOMETRIC_REPRESENTATION_CONTEXT(3) 
GLOBAL_UNCERTAINTY_ASSIGNED_CONTEXT((#23)) GLOBAL_UNIT_ASSIGNED_CONTEXT(
(#20,#21,#22)) REPRESENTATION_CONTEXT('Context #1',
  '3D Context with UNIT and UNCERTAINTY') );
#20 = ( LENGTH_UNIT() NAMED_UNIT(*) SI_UNIT(.MILLI.,.METRE.) );
#21 = ( NAMED_UNIT(*) PLANE_ANGLE_UNIT() SI_UNIT($,.RADIAN.) );
#22 = ( NAMED_UNIT(*) SI_UNIT($,.STERADIAN.) SOLID_ANGLE_UNIT() );
#23 = UNCERTAINTY_MEASURE_WITH_UNIT(LENGTH_MEASURE(1.E-07),#20,
  'distance_accuracy_value','confusion accuracy');
#24 = PRODUCT_RELATED_PRODUCT_CATEGORY('part',$,(#7));
#25 = SHAPE_DEFINITION_REPRESENTATION(#26,#32);
#26 = PRODUCT_DEFINITION_SHAPE('','',#27);
#27 = PRODUCT_DEFINITION('design','',#28,#31);
#28 = PRODUCT_DEFINITION_FORMATION('','',#29);
#29 = PRODUCT('STEPDOWN02_PCB','STEPDOWN02_PCB','',(#30));
#30 = PRODUCT_CONTEXT('',#2,'mechanical');
#31 = PRODUCT_DEFINITION_CONTEXT('part definition',#2,'design');
#32 = ADVANCED_BREP_SHAPE_REPRESENTATION('',(#11,#33),#1002);
#33 = MANIFOLD_SOLID_BREP('',#34);
#34 = CLOSED_SHELL('',(#35,#75,#106,#137,#385,#633,#645,#662,#679,#696,
    #713,#730,#747,#764,#781,#798,#815,#832,#849,#866,#883,#900,#917,
    #934,#951,#968,#985));
#35 = ADVANCED_FACE('',(#36),#70,.T.);
#36 = FACE_BOUND('',#37,.T.);
#37 = EDGE_LOOP('',(#38,#48,#56,#64));
#38 = ORIENTED_EDGE('',*,*,#39,.T.);
#39 = EDGE_CURVE('',#40,#42,#44,.T.);
#40 = VERTEX_POINT('',#41);
#41 = CARTESIAN_POINT('',(157.226,-106.426,0.));
#42 = VERTEX_POINT('',#43);
#43 = CARTESIAN_POINT('',(157.226,-106.426,1.6));
#44 = LINE('',#45,#46);
#45 = CARTESIAN_POINT('',(157.226,-106.426,0.));
#46 = VECTOR('',#47,1.);
#47 = DIRECTION('',(0.,0.,1.));
#48 = ORIENTED_EDGE('',*,*,#49,.T.);
#49 = EDGE_CURVE('',#42,#50,#52,.T.);
#50 = VERTEX_POINT('',#51);
#51 = CARTESIAN_POINT('',(117.094,-106.426,1.6));
#52 = LINE('',#53,#54);
#53 = CARTESIAN_POINT('',(157.226,-106.426,1.6));
#54 = VECTOR('',#55,1.);
#55 = DIRECTION('',(-1.,0.,0.));
#56 = ORIENTED_EDGE('',*,*,#57,.F.);
#57 = EDGE_CURVE('',#58,#50,#60,.T.);
#58 = VERTEX_POINT('',#59);
#59 = CARTESIAN_POINT('',(117.094,-106.426,0.));
#60 = LINE('',#61,#62);
#61 = CARTESIAN_POINT('',(117.094,-106.426,0.));
#62 = VECTOR('',#63,1.);
#63 = DIRECTION('',(0.,0.,1.));
#64 = ORIENTED_EDGE('',*,*,#65,.F.);
#65 = EDGE_CURVE('',#40,#58,#66,.T.);
#66 = LINE('',#67,#68);
#67 = CARTESIAN_POINT('',(157.226,-106.426,0.));
#68 = VECTOR('',#69,1.);
#69 = DIRECTION('',(-1.,0.,0.));
#70 = PLANE('',#71);
#71 = AXIS2_PLACEMENT_3D('',#72,#73,#74);
#72 = CARTESIAN_POINT('',(157.226,-106.426,0.));
#73 = DIRECTION('',(0.,-1.,0.));
#74 = DIRECTION('',(-1.,0.,0.));
#75 = ADVANCED_FACE('',(#76),#101,.T.);
#76 = FACE_BOUND('',#77,.T.);
#77 = EDGE_LOOP('',(#78,#88,#94,#95));
#78 = ORIENTED_EDGE('',*,*,#79,.T.);
#79 = EDGE_CURVE('',#80,#82,#84,.T.);
#80 = VERTEX_POINT('',#81);
#81 = CARTESIAN_POINT('',(157.226,-66.294,0.));
#82 = VERTEX_POINT('',#83);
#83 = CARTESIAN_POINT('',(157.226,-66.294,1.6));
#84 = LINE('',#85,#86);
#85 = CARTESIAN_POINT('',(157.226,-66.294,0.));
#86 = VECTOR('',#87,1.);
#87 = DIRECTION('',(0.,0.,1.));
#88 = ORIENTED_EDGE('',*,*,#89,.T.);
#89 = EDGE_CURVE('',#82,#42,#90,.T.);
#90 = LINE('',#91,#92);
#91 = CARTESIAN_POINT('',(157.226,-66.294,1.6));
#92 = VECTOR('',#93,1.);
#93 = DIRECTION('',(0.,-1.,0.));
#94 = ORIENTED_EDGE('',*,*,#39,.F.);
#95 = ORIENTED_EDGE('',*,*,#96,.F.);
#96 = EDGE_CURVE('',#80,#40,#97,.T.);
#97 = LINE('',#98,#99);
#98 = CARTESIAN_POINT('',(157.226,-66.294,0.));
#99 = VECTOR('',#100,1.);
#100 = DIRECTION('',(0.,-1.,0.));
#101 = PLANE('',#102);
#102 = AXIS2_PLACEMENT_3D('',#103,#104,#105);
#103 = CARTESIAN_POINT('',(157.226,-66.294,0.));
#104 = DIRECTION('',(1.,0.,-0.));
#105 = DIRECTION('',(0.,-1.,0.));
#106 = ADVANCED_FACE('',(#107),#132,.T.);
#107 = FACE_BOUND('',#108,.T.);
#108 = EDGE_LOOP('',(#109,#110,#118,#126));
#109 = ORIENTED_EDGE('',*,*,#57,.T.);
#110 = ORIENTED_EDGE('',*,*,#111,.T.);
#111 = EDGE_CURVE('',#50,#112,#114,.T.);
#112 = VERTEX_POINT('',#113);
#113 = CARTESIAN_POINT('',(117.094,-66.294,1.6));
#114 = LINE('',#115,#116);
#115 = CARTESIAN_POINT('',(117.094,-106.426,1.6));
#116 = VECTOR('',#117,1.);
#117 = DIRECTION('',(0.,1.,0.));
#118 = ORIENTED_EDGE('',*,*,#119,.F.);
#119 = EDGE_CURVE('',#120,#112,#122,.T.);
#120 = VERTEX_POINT('',#121);
#121 = CARTESIAN_POINT('',(117.094,-66.294,0.));
#122 = LINE('',#123,#124);
#123 = CARTESIAN_POINT('',(117.094,-66.294,0.));
#124 = VECTOR('',#125,1.);
#125 = DIRECTION('',(0.,0.,1.));
#126 = ORIENTED_EDGE('',*,*,#127,.F.);
#127 = EDGE_CURVE('',#58,#120,#128,.T.);
#128 = LINE('',#129,#130);
#129 = CARTESIAN_POINT('',(117.094,-106.426,0.));
#130 = VECTOR('',#131,1.);
#131 = DIRECTION('',(0.,1.,0.));
#132 = PLANE('',#133);
#133 = AXIS2_PLACEMENT_3D('',#134,#135,#136);
#134 = CARTESIAN_POINT('',(117.094,-106.426,0.));
#135 = DIRECTION('',(-1.,0.,0.));
#136 = DIRECTION('',(0.,1.,0.));
#137 = ADVANCED_FACE('',(#138,#149,#160,#171,#182,#193,#204,#215,#226,
    #237,#248,#259,#270,#281,#292,#303,#314,#325,#336,#347,#358,#369),
  #380,.F.);
#138 = FACE_BOUND('',#139,.F.);
#139 = EDGE_LOOP('',(#140,#141,#142,#148));
#140 = ORIENTED_EDGE('',*,*,#65,.F.);
#141 = ORIENTED_EDGE('',*,*,#96,.F.);
#142 = ORIENTED_EDGE('',*,*,#143,.F.);
#143 = EDGE_CURVE('',#120,#80,#144,.T.);
#144 = LINE('',#145,#146);
#145 = CARTESIAN_POINT('',(117.094,-66.294,0.));
#146 = VECTOR('',#147,1.);
#147 = DIRECTION('',(1.,0.,0.));
#148 = ORIENTED_EDGE('',*,*,#127,.F.);
#149 = FACE_BOUND('',#150,.F.);
#150 = EDGE_LOOP('',(#151));
#151 = ORIENTED_EDGE('',*,*,#152,.T.);
#152 = EDGE_CURVE('',#153,#153,#155,.T.);
#153 = VERTEX_POINT('',#154);
#154 = CARTESIAN_POINT('',(121.92,-103.2,0.));
#155 = CIRCLE('',#156,1.6);
#156 = AXIS2_PLACEMENT_3D('',#157,#158,#159);
#157 = CARTESIAN_POINT('',(121.92,-101.6,0.));
#158 = DIRECTION('',(-0.,0.,-1.));
#159 = DIRECTION('',(8.881784197001E-15,-1.,-0.));
#160 = FACE_BOUND('',#161,.F.);
#161 = EDGE_LOOP('',(#162));
#162 = ORIENTED_EDGE('',*,*,#163,.T.);
#163 = EDGE_CURVE('',#164,#164,#166,.T.);
#164 = VERTEX_POINT('',#165);
#165 = CARTESIAN_POINT('',(130.429,-101.981,0.));
#166 = CIRCLE('',#167,0.508);
#167 = AXIS2_PLACEMENT_3D('',#168,#169,#170);
#168 = CARTESIAN_POINT('',(130.429,-101.473,0.));
#169 = DIRECTION('',(-0.,0.,-1.));
#170 = DIRECTION('',(-0.,-1.,0.));
#171 = FACE_BOUND('',#172,.F.);
#172 = EDGE_LOOP('',(#173));
#173 = ORIENTED_EDGE('',*,*,#174,.T.);
#174 = EDGE_CURVE('',#175,#175,#177,.T.);
#175 = VERTEX_POINT('',#176);
#176 = CARTESIAN_POINT('',(131.7625,-95.527,0.));
#177 = CIRCLE('',#178,0.15);
#178 = AXIS2_PLACEMENT_3D('',#179,#180,#181);
#179 = CARTESIAN_POINT('',(131.7625,-95.377,0.));
#180 = DIRECTION('',(-0.,0.,-1.));
#181 = DIRECTION('',(-0.,-1.,0.));
#182 = FACE_BOUND('',#183,.F.);
#183 = EDGE_LOOP('',(#184));
#184 = ORIENTED_EDGE('',*,*,#185,.T.);
#185 = EDGE_CURVE('',#186,#186,#188,.T.);
#186 = VERTEX_POINT('',#187);
#187 = CARTESIAN_POINT('',(132.842,-95.527,0.));
#188 = CIRCLE('',#189,0.15);
#189 = AXIS2_PLACEMENT_3D('',#190,#191,#192);
#190 = CARTESIAN_POINT('',(132.842,-95.377,0.));
#191 = DIRECTION('',(-0.,0.,-1.));
#192 = DIRECTION('',(1.894780628694E-13,-1.,-0.));
#193 = FACE_BOUND('',#194,.F.);
#194 = EDGE_LOOP('',(#195));
#195 = ORIENTED_EDGE('',*,*,#196,.T.);
#196 = EDGE_CURVE('',#197,#197,#199,.T.);
#197 = VERTEX_POINT('',#198);
#198 = CARTESIAN_POINT('',(131.7625,-94.384,0.));
#199 = CIRCLE('',#200,0.15);
#200 = AXIS2_PLACEMENT_3D('',#201,#202,#203);
#201 = CARTESIAN_POINT('',(131.7625,-94.234,0.));
#202 = DIRECTION('',(-0.,0.,-1.));
#203 = DIRECTION('',(-0.,-1.,0.));
#204 = FACE_BOUND('',#205,.F.);
#205 = EDGE_LOOP('',(#206));
#206 = ORIENTED_EDGE('',*,*,#207,.T.);
#207 = EDGE_CURVE('',#208,#208,#210,.T.);
#208 = VERTEX_POINT('',#209);
#209 = CARTESIAN_POINT('',(132.842,-94.384,0.));
#210 = CIRCLE('',#211,0.15);
#211 = AXIS2_PLACEMENT_3D('',#212,#213,#214);
#212 = CARTESIAN_POINT('',(132.842,-94.234,0.));
#213 = DIRECTION('',(-0.,0.,-1.));
#214 = DIRECTION('',(1.894780628694E-13,-1.,-0.));
#215 = FACE_BOUND('',#216,.F.);
#216 = EDGE_LOOP('',(#217));
#217 = ORIENTED_EDGE('',*,*,#218,.T.);
#218 = EDGE_CURVE('',#219,#219,#221,.T.);
#219 = VERTEX_POINT('',#220);
#220 = CARTESIAN_POINT('',(131.7625,-93.1775,0.));
#221 = CIRCLE('',#222,0.15);
#222 = AXIS2_PLACEMENT_3D('',#223,#224,#225);
#223 = CARTESIAN_POINT('',(131.7625,-93.0275,0.));
#224 = DIRECTION('',(-0.,0.,-1.));
#225 = DIRECTION('',(-0.,-1.,0.));
#226 = FACE_BOUND('',#227,.F.);
#227 = EDGE_LOOP('',(#228));
#228 = ORIENTED_EDGE('',*,*,#229,.T.);
#229 = EDGE_CURVE('',#230,#230,#232,.T.);
#230 = VERTEX_POINT('',#231);
#231 = CARTESIAN_POINT('',(132.9055,-93.1775,0.));
#232 = CIRCLE('',#233,0.15);
#233 = AXIS2_PLACEMENT_3D('',#234,#235,#236);
#234 = CARTESIAN_POINT('',(132.9055,-93.0275,0.));
#235 = DIRECTION('',(-0.,0.,-1.));
#236 = DIRECTION('',(-1.894780628694E-13,-1.,0.));
#237 = FACE_BOUND('',#238,.F.);
#238 = EDGE_LOOP('',(#239));
#239 = ORIENTED_EDGE('',*,*,#240,.T.);
#240 = EDGE_CURVE('',#241,#241,#243,.T.);
#241 = VERTEX_POINT('',#242);
#242 = CARTESIAN_POINT('',(138.811,-101.706,0.));
#243 = CIRCLE('',#244,0.4);
#244 = AXIS2_PLACEMENT_3D('',#245,#246,#247);
#245 = CARTESIAN_POINT('',(138.811,-101.306,0.));
#246 = DIRECTION('',(-0.,0.,-1.));
#247 = DIRECTION('',(-0.,-1.,0.));
#248 = FACE_BOUND('',#249,.F.);
#249 = EDGE_LOOP('',(#250));
#250 = ORIENTED_EDGE('',*,*,#251,.T.);
#251 = EDGE_CURVE('',#252,#252,#254,.T.);
#252 = VERTEX_POINT('',#253);
#253 = CARTESIAN_POINT('',(138.811,-99.206,0.));
#254 = CIRCLE('',#255,0.4);
#255 = AXIS2_PLACEMENT_3D('',#256,#257,#258);
#256 = CARTESIAN_POINT('',(138.811,-98.806,0.));
#257 = DIRECTION('',(-0.,0.,-1.));
#258 = DIRECTION('',(-0.,-1.,0.));
#259 = FACE_BOUND('',#260,.F.);
#260 = EDGE_LOOP('',(#261));
#261 = ORIENTED_EDGE('',*,*,#262,.T.);
#262 = EDGE_CURVE('',#263,#263,#265,.T.);
#263 = VERTEX_POINT('',#264);
#264 = CARTESIAN_POINT('',(152.4,-103.2,0.));
#265 = CIRCLE('',#266,1.6);
#266 = AXIS2_PLACEMENT_3D('',#267,#268,#269);
#267 = CARTESIAN_POINT('',(152.4,-101.6,0.));
#268 = DIRECTION('',(-0.,0.,-1.));
#269 = DIRECTION('',(-0.,-1.,0.));
#270 = FACE_BOUND('',#271,.F.);
#271 = EDGE_LOOP('',(#272));
#272 = ORIENTED_EDGE('',*,*,#273,.T.);
#273 = EDGE_CURVE('',#274,#274,#276,.T.);
#274 = VERTEX_POINT('',#275);
#275 = CARTESIAN_POINT('',(146.558,-94.63,0.));
#276 = CIRCLE('',#277,0.65);
#277 = AXIS2_PLACEMENT_3D('',#278,#279,#280);
#278 = CARTESIAN_POINT('',(146.558,-93.98,0.));
#279 = DIRECTION('',(-0.,0.,-1.));
#280 = DIRECTION('',(-0.,-1.,0.));
#281 = FACE_BOUND('',#282,.F.);
#282 = EDGE_LOOP('',(#283));
#283 = ORIENTED_EDGE('',*,*,#284,.T.);
#284 = EDGE_CURVE('',#285,#285,#287,.T.);
#285 = VERTEX_POINT('',#286);
#286 = CARTESIAN_POINT('',(151.558,-94.63,0.));
#287 = CIRCLE('',#288,0.65);
#288 = AXIS2_PLACEMENT_3D('',#289,#290,#291);
#289 = CARTESIAN_POINT('',(151.558,-93.98,0.));
#290 = DIRECTION('',(-0.,0.,-1.));
#291 = DIRECTION('',(-0.,-1.,0.));
#292 = FACE_BOUND('',#293,.F.);
#293 = EDGE_LOOP('',(#294));
#294 = ORIENTED_EDGE('',*,*,#295,.T.);
#295 = EDGE_CURVE('',#296,#296,#298,.T.);
#296 = VERTEX_POINT('',#297);
#297 = CARTESIAN_POINT('',(146.558,-89.55,0.));
#298 = CIRCLE('',#299,0.65);
#299 = AXIS2_PLACEMENT_3D('',#300,#301,#302);
#300 = CARTESIAN_POINT('',(146.558,-88.9,0.));
#301 = DIRECTION('',(-0.,0.,-1.));
#302 = DIRECTION('',(-0.,-1.,0.));
#303 = FACE_BOUND('',#304,.F.);
#304 = EDGE_LOOP('',(#305));
#305 = ORIENTED_EDGE('',*,*,#306,.T.);
#306 = EDGE_CURVE('',#307,#307,#309,.T.);
#307 = VERTEX_POINT('',#308);
#308 = CARTESIAN_POINT('',(151.558,-89.55,0.));
#309 = CIRCLE('',#310,0.65);
#310 = AXIS2_PLACEMENT_3D('',#311,#312,#313);
#311 = CARTESIAN_POINT('',(151.558,-88.9,0.));
#312 = DIRECTION('',(-0.,0.,-1.));
#313 = DIRECTION('',(-0.,-1.,0.));
#314 = FACE_BOUND('',#315,.F.);
#315 = EDGE_LOOP('',(#316));
#316 = ORIENTED_EDGE('',*,*,#317,.T.);
#317 = EDGE_CURVE('',#318,#318,#320,.T.);
#318 = VERTEX_POINT('',#319);
#319 = CARTESIAN_POINT('',(121.92,-72.72,0.));
#320 = CIRCLE('',#321,1.6);
#321 = AXIS2_PLACEMENT_3D('',#322,#323,#324);
#322 = CARTESIAN_POINT('',(121.92,-71.12,0.));
#323 = DIRECTION('',(-0.,0.,-1.));
#324 = DIRECTION('',(8.881784197001E-15,-1.,-0.));
#325 = FACE_BOUND('',#326,.F.);
#326 = EDGE_LOOP('',(#327));
#327 = ORIENTED_EDGE('',*,*,#328,.T.);
#328 = EDGE_CURVE('',#329,#329,#331,.T.);
#329 = VERTEX_POINT('',#330);
#330 = CARTESIAN_POINT('',(146.558,-84.47,0.));
#331 = CIRCLE('',#332,0.65);
#332 = AXIS2_PLACEMENT_3D('',#333,#334,#335);
#333 = CARTESIAN_POINT('',(146.558,-83.82,0.));
#334 = DIRECTION('',(-0.,0.,-1.));
#335 = DIRECTION('',(-0.,-1.,0.));
#336 = FACE_BOUND('',#337,.F.);
#337 = EDGE_LOOP('',(#338));
#338 = ORIENTED_EDGE('',*,*,#339,.T.);
#339 = EDGE_CURVE('',#340,#340,#342,.T.);
#340 = VERTEX_POINT('',#341);
#341 = CARTESIAN_POINT('',(151.558,-84.47,0.));
#342 = CIRCLE('',#343,0.65);
#343 = AXIS2_PLACEMENT_3D('',#344,#345,#346);
#344 = CARTESIAN_POINT('',(151.558,-83.82,0.));
#345 = DIRECTION('',(-0.,0.,-1.));
#346 = DIRECTION('',(-0.,-1.,0.));
#347 = FACE_BOUND('',#348,.F.);
#348 = EDGE_LOOP('',(#349));
#349 = ORIENTED_EDGE('',*,*,#350,.T.);
#350 = EDGE_CURVE('',#351,#351,#353,.T.);
#351 = VERTEX_POINT('',#352);
#352 = CARTESIAN_POINT('',(146.558,-79.39,0.));
#353 = CIRCLE('',#354,0.65);
#354 = AXIS2_PLACEMENT_3D('',#355,#356,#357);
#355 = CARTESIAN_POINT('',(146.558,-78.74,0.));
#356 = DIRECTION('',(-0.,0.,-1.));
#357 = DIRECTION('',(-0.,-1.,0.));
#358 = FACE_BOUND('',#359,.F.);
#359 = EDGE_LOOP('',(#360));
#360 = ORIENTED_EDGE('',*,*,#361,.T.);
#361 = EDGE_CURVE('',#362,#362,#364,.T.);
#362 = VERTEX_POINT('',#363);
#363 = CARTESIAN_POINT('',(151.558,-79.39,0.));
#364 = CIRCLE('',#365,0.65);
#365 = AXIS2_PLACEMENT_3D('',#366,#367,#368);
#366 = CARTESIAN_POINT('',(151.558,-78.74,0.));
#367 = DIRECTION('',(-0.,0.,-1.));
#368 = DIRECTION('',(-0.,-1.,0.));
#369 = FACE_BOUND('',#370,.F.);
#370 = EDGE_LOOP('',(#371));
#371 = ORIENTED_EDGE('',*,*,#372,.T.);
#372 = EDGE_CURVE('',#373,#373,#375,.T.);
#373 = VERTEX_POINT('',#374);
#374 = CARTESIAN_POINT('',(152.4,-72.72,0.));
#375 = CIRCLE('',#376,1.6);
#376 = AXIS2_PLACEMENT_3D('',#377,#378,#379);
#377 = CARTESIAN_POINT('',(152.4,-71.12,0.));
#378 = DIRECTION('',(-0.,0.,-1.));
#379 = DIRECTION('',(-0.,-1.,0.));
#380 = PLANE('',#381);
#381 = AXIS2_PLACEMENT_3D('',#382,#383,#384);
#382 = CARTESIAN_POINT('',(0.,0.,0.));
#383 = DIRECTION('',(0.,0.,1.));
#384 = DIRECTION('',(1.,0.,-0.));
#385 = ADVANCED_FACE('',(#386,#397,#408,#419,#430,#441,#452,#463,#474,
    #485,#496,#507,#518,#529,#540,#551,#562,#573,#584,#595,#606,#617),
  #628,.T.);
#386 = FACE_BOUND('',#387,.T.);
#387 = EDGE_LOOP('',(#388,#389,#390,#396));
#388 = ORIENTED_EDGE('',*,*,#49,.F.);
#389 = ORIENTED_EDGE('',*,*,#89,.F.);
#390 = ORIENTED_EDGE('',*,*,#391,.F.);
#391 = EDGE_CURVE('',#112,#82,#392,.T.);
#392 = LINE('',#393,#394);
#393 = CARTESIAN_POINT('',(117.094,-66.294,1.6));
#394 = VECTOR('',#395,1.);
#395 = DIRECTION('',(1.,0.,0.));
#396 = ORIENTED_EDGE('',*,*,#111,.F.);
#397 = FACE_BOUND('',#398,.T.);
#398 = EDGE_LOOP('',(#399));
#399 = ORIENTED_EDGE('',*,*,#400,.T.);
#400 = EDGE_CURVE('',#401,#401,#403,.T.);
#401 = VERTEX_POINT('',#402);
#402 = CARTESIAN_POINT('',(121.92,-103.2,1.6));
#403 = CIRCLE('',#404,1.6);
#404 = AXIS2_PLACEMENT_3D('',#405,#406,#407);
#405 = CARTESIAN_POINT('',(121.92,-101.6,1.6));
#406 = DIRECTION('',(-0.,0.,-1.));
#407 = DIRECTION('',(8.881784197001E-15,-1.,-0.));
#408 = FACE_BOUND('',#409,.T.);
#409 = EDGE_LOOP('',(#410));
#410 = ORIENTED_EDGE('',*,*,#411,.T.);
#411 = EDGE_CURVE('',#412,#412,#414,.T.);
#412 = VERTEX_POINT('',#413);
#413 = CARTESIAN_POINT('',(130.429,-101.981,1.6));
#414 = CIRCLE('',#415,0.508);
#415 = AXIS2_PLACEMENT_3D('',#416,#417,#418);
#416 = CARTESIAN_POINT('',(130.429,-101.473,1.6));
#417 = DIRECTION('',(-0.,0.,-1.));
#418 = DIRECTION('',(-0.,-1.,0.));
#419 = FACE_BOUND('',#420,.T.);
#420 = EDGE_LOOP('',(#421));
#421 = ORIENTED_EDGE('',*,*,#422,.T.);
#422 = EDGE_CURVE('',#423,#423,#425,.T.);
#423 = VERTEX_POINT('',#424);
#424 = CARTESIAN_POINT('',(131.7625,-95.527,1.6));
#425 = CIRCLE('',#426,0.15);
#426 = AXIS2_PLACEMENT_3D('',#427,#428,#429);
#427 = CARTESIAN_POINT('',(131.7625,-95.377,1.6));
#428 = DIRECTION('',(-0.,0.,-1.));
#429 = DIRECTION('',(-0.,-1.,0.));
#430 = FACE_BOUND('',#431,.T.);
#431 = EDGE_LOOP('',(#432));
#432 = ORIENTED_EDGE('',*,*,#433,.T.);
#433 = EDGE_CURVE('',#434,#434,#436,.T.);
#434 = VERTEX_POINT('',#435);
#435 = CARTESIAN_POINT('',(132.842,-95.527,1.6));
#436 = CIRCLE('',#437,0.15);
#437 = AXIS2_PLACEMENT_3D('',#438,#439,#440);
#438 = CARTESIAN_POINT('',(132.842,-95.377,1.6));
#439 = DIRECTION('',(-0.,0.,-1.));
#440 = DIRECTION('',(1.894780628694E-13,-1.,-0.));
#441 = FACE_BOUND('',#442,.T.);
#442 = EDGE_LOOP('',(#443));
#443 = ORIENTED_EDGE('',*,*,#444,.T.);
#444 = EDGE_CURVE('',#445,#445,#447,.T.);
#445 = VERTEX_POINT('',#446);
#446 = CARTESIAN_POINT('',(131.7625,-94.384,1.6));
#447 = CIRCLE('',#448,0.15);
#448 = AXIS2_PLACEMENT_3D('',#449,#450,#451);
#449 = CARTESIAN_POINT('',(131.7625,-94.234,1.6));
#450 = DIRECTION('',(-0.,0.,-1.));
#451 = DIRECTION('',(-0.,-1.,0.));
#452 = FACE_BOUND('',#453,.T.);
#453 = EDGE_LOOP('',(#454));
#454 = ORIENTED_EDGE('',*,*,#455,.T.);
#455 = EDGE_CURVE('',#456,#456,#458,.T.);
#456 = VERTEX_POINT('',#457);
#457 = CARTESIAN_POINT('',(132.842,-94.384,1.6));
#458 = CIRCLE('',#459,0.15);
#459 = AXIS2_PLACEMENT_3D('',#460,#461,#462);
#460 = CARTESIAN_POINT('',(132.842,-94.234,1.6));
#461 = DIRECTION('',(-0.,0.,-1.));
#462 = DIRECTION('',(1.894780628694E-13,-1.,-0.));
#463 = FACE_BOUND('',#464,.T.);
#464 = EDGE_LOOP('',(#465));
#465 = ORIENTED_EDGE('',*,*,#466,.T.);
#466 = EDGE_CURVE('',#467,#467,#469,.T.);
#467 = VERTEX_POINT('',#468);
#468 = CARTESIAN_POINT('',(131.7625,-93.1775,1.6));
#469 = CIRCLE('',#470,0.15);
#470 = AXIS2_PLACEMENT_3D('',#471,#472,#473);
#471 = CARTESIAN_POINT('',(131.7625,-93.0275,1.6));
#472 = DIRECTION('',(-0.,0.,-1.));
#473 = DIRECTION('',(-0.,-1.,0.));
#474 = FACE_BOUND('',#475,.T.);
#475 = EDGE_LOOP('',(#476));
#476 = ORIENTED_EDGE('',*,*,#477,.T.);
#477 = EDGE_CURVE('',#478,#478,#480,.T.);
#478 = VERTEX_POINT('',#479);
#479 = CARTESIAN_POINT('',(132.9055,-93.1775,1.6));
#480 = CIRCLE('',#481,0.15);
#481 = AXIS2_PLACEMENT_3D('',#482,#483,#484);
#482 = CARTESIAN_POINT('',(132.9055,-93.0275,1.6));
#483 = DIRECTION('',(-0.,0.,-1.));
#484 = DIRECTION('',(-1.894780628694E-13,-1.,0.));
#485 = FACE_BOUND('',#486,.T.);
#486 = EDGE_LOOP('',(#487));
#487 = ORIENTED_EDGE('',*,*,#488,.T.);
#488 = EDGE_CURVE('',#489,#489,#491,.T.);
#489 = VERTEX_POINT('',#490);
#490 = CARTESIAN_POINT('',(138.811,-101.706,1.6));
#491 = CIRCLE('',#492,0.4);
#492 = AXIS2_PLACEMENT_3D('',#493,#494,#495);
#493 = CARTESIAN_POINT('',(138.811,-101.306,1.6));
#494 = DIRECTION('',(-0.,0.,-1.));
#495 = DIRECTION('',(-0.,-1.,0.));
#496 = FACE_BOUND('',#497,.T.);
#497 = EDGE_LOOP('',(#498));
#498 = ORIENTED_EDGE('',*,*,#499,.T.);
#499 = EDGE_CURVE('',#500,#500,#502,.T.);
#500 = VERTEX_POINT('',#501);
#501 = CARTESIAN_POINT('',(138.811,-99.206,1.6));
#502 = CIRCLE('',#503,0.4);
#503 = AXIS2_PLACEMENT_3D('',#504,#505,#506);
#504 = CARTESIAN_POINT('',(138.811,-98.806,1.6));
#505 = DIRECTION('',(-0.,0.,-1.));
#506 = DIRECTION('',(-0.,-1.,0.));
#507 = FACE_BOUND('',#508,.T.);
#508 = EDGE_LOOP('',(#509));
#509 = ORIENTED_EDGE('',*,*,#510,.T.);
#510 = EDGE_CURVE('',#511,#511,#513,.T.);
#511 = VERTEX_POINT('',#512);
#512 = CARTESIAN_POINT('',(152.4,-103.2,1.6));
#513 = CIRCLE('',#514,1.6);
#514 = AXIS2_PLACEMENT_3D('',#515,#516,#517);
#515 = CARTESIAN_POINT('',(152.4,-101.6,1.6));
#516 = DIRECTION('',(-0.,0.,-1.));
#517 = DIRECTION('',(-0.,-1.,0.));
#518 = FACE_BOUND('',#519,.T.);
#519 = EDGE_LOOP('',(#520));
#520 = ORIENTED_EDGE('',*,*,#521,.T.);
#521 = EDGE_CURVE('',#522,#522,#524,.T.);
#522 = VERTEX_POINT('',#523);
#523 = CARTESIAN_POINT('',(146.558,-94.63,1.6));
#524 = CIRCLE('',#525,0.65);
#525 = AXIS2_PLACEMENT_3D('',#526,#527,#528);
#526 = CARTESIAN_POINT('',(146.558,-93.98,1.6));
#527 = DIRECTION('',(-0.,0.,-1.));
#528 = DIRECTION('',(-0.,-1.,0.));
#529 = FACE_BOUND('',#530,.T.);
#530 = EDGE_LOOP('',(#531));
#531 = ORIENTED_EDGE('',*,*,#532,.T.);
#532 = EDGE_CURVE('',#533,#533,#535,.T.);
#533 = VERTEX_POINT('',#534);
#534 = CARTESIAN_POINT('',(151.558,-94.63,1.6));
#535 = CIRCLE('',#536,0.65);
#536 = AXIS2_PLACEMENT_3D('',#537,#538,#539);
#537 = CARTESIAN_POINT('',(151.558,-93.98,1.6));
#538 = DIRECTION('',(-0.,0.,-1.));
#539 = DIRECTION('',(-0.,-1.,0.));
#540 = FACE_BOUND('',#541,.T.);
#541 = EDGE_LOOP('',(#542));
#542 = ORIENTED_EDGE('',*,*,#543,.T.);
#543 = EDGE_CURVE('',#544,#544,#546,.T.);
#544 = VERTEX_POINT('',#545);
#545 = CARTESIAN_POINT('',(146.558,-89.55,1.6));
#546 = CIRCLE('',#547,0.65);
#547 = AXIS2_PLACEMENT_3D('',#548,#549,#550);
#548 = CARTESIAN_POINT('',(146.558,-88.9,1.6));
#549 = DIRECTION('',(-0.,0.,-1.));
#550 = DIRECTION('',(-0.,-1.,0.));
#551 = FACE_BOUND('',#552,.T.);
#552 = EDGE_LOOP('',(#553));
#553 = ORIENTED_EDGE('',*,*,#554,.T.);
#554 = EDGE_CURVE('',#555,#555,#557,.T.);
#555 = VERTEX_POINT('',#556);
#556 = CARTESIAN_POINT('',(151.558,-89.55,1.6));
#557 = CIRCLE('',#558,0.65);
#558 = AXIS2_PLACEMENT_3D('',#559,#560,#561);
#559 = CARTESIAN_POINT('',(151.558,-88.9,1.6));
#560 = DIRECTION('',(-0.,0.,-1.));
#561 = DIRECTION('',(-0.,-1.,0.));
#562 = FACE_BOUND('',#563,.T.);
#563 = EDGE_LOOP('',(#564));
#564 = ORIENTED_EDGE('',*,*,#565,.T.);
#565 = EDGE_CURVE('',#566,#566,#568,.T.);
#566 = VERTEX_POINT('',#567);
#567 = CARTESIAN_POINT('',(121.92,-72.72,1.6));
#568 = CIRCLE('',#569,1.6);
#569 = AXIS2_PLACEMENT_3D('',#570,#571,#572);
#570 = CARTESIAN_POINT('',(121.92,-71.12,1.6));
#571 = DIRECTION('',(-0.,0.,-1.));
#572 = DIRECTION('',(8.881784197001E-15,-1.,-0.));
#573 = FACE_BOUND('',#574,.T.);
#574 = EDGE_LOOP('',(#575));
#575 = ORIENTED_EDGE('',*,*,#576,.T.);
#576 = EDGE_CURVE('',#577,#577,#579,.T.);
#577 = VERTEX_POINT('',#578);
#578 = CARTESIAN_POINT('',(146.558,-84.47,1.6));
#579 = CIRCLE('',#580,0.65);
#580 = AXIS2_PLACEMENT_3D('',#581,#582,#583);
#581 = CARTESIAN_POINT('',(146.558,-83.82,1.6));
#582 = DIRECTION('',(-0.,0.,-1.));
#583 = DIRECTION('',(-0.,-1.,0.));
#584 = FACE_BOUND('',#585,.T.);
#585 = EDGE_LOOP('',(#586));
#586 = ORIENTED_EDGE('',*,*,#587,.T.);
#587 = EDGE_CURVE('',#588,#588,#590,.T.);
#588 = VERTEX_POINT('',#589);
#589 = CARTESIAN_POINT('',(151.558,-84.47,1.6));
#590 = CIRCLE('',#591,0.65);
#591 = AXIS2_PLACEMENT_3D('',#592,#593,#594);
#592 = CARTESIAN_POINT('',(151.558,-83.82,1.6));
#593 = DIRECTION('',(-0.,0.,-1.));
#594 = DIRECTION('',(-0.,-1.,0.));
#595 = FACE_BOUND('',#596,.T.);
#596 = EDGE_LOOP('',(#597));
#597 = ORIENTED_EDGE('',*,*,#598,.T.);
#598 = EDGE_CURVE('',#599,#599,#601,.T.);
#599 = VERTEX_POINT('',#600);
#600 = CARTESIAN_POINT('',(146.558,-79.39,1.6));
#601 = CIRCLE('',#602,0.65);
#602 = AXIS2_PLACEMENT_3D('',#603,#604,#605);
#603 = CARTESIAN_POINT('',(146.558,-78.74,1.6));
#604 = DIRECTION('',(-0.,0.,-1.));
#605 = DIRECTION('',(-0.,-1.,0.));
#606 = FACE_BOUND('',#607,.T.);
#607 = EDGE_LOOP('',(#608));
#608 = ORIENTED_EDGE('',*,*,#609,.T.);
#609 = EDGE_CURVE('',#610,#610,#612,.T.);
#610 = VERTEX_POINT('',#611);
#611 = CARTESIAN_POINT('',(151.558,-79.39,1.6));
#612 = CIRCLE('',#613,0.65);
#613 = AXIS2_PLACEMENT_3D('',#614,#615,#616);
#614 = CARTESIAN_POINT('',(151.558,-78.74,1.6));
#615 = DIRECTION('',(-0.,0.,-1.));
#616 = DIRECTION('',(-0.,-1.,0.));
#617 = FACE_BOUND('',#618,.T.);
#618 = EDGE_LOOP('',(#619));
#619 = ORIENTED_EDGE('',*,*,#620,.T.);
#620 = EDGE_CURVE('',#621,#621,#623,.T.);
#621 = VERTEX_POINT('',#622);
#622 = CARTESIAN_POINT('',(152.4,-72.72,1.6));
#623 = CIRCLE('',#624,1.6);
#624 = AXIS2_PLACEMENT_3D('',#625,#626,#627);
#625 = CARTESIAN_POINT('',(152.4,-71.12,1.6));
#626 = DIRECTION('',(-0.,0.,-1.));
#627 = DIRECTION('',(-0.,-1.,0.));
#628 = PLANE('',#629);
#629 = AXIS2_PLACEMENT_3D('',#630,#631,#632);
#630 = CARTESIAN_POINT('',(0.,0.,1.6));
#631 = DIRECTION('',(0.,0.,1.));
#632 = DIRECTION('',(1.,0.,-0.));
#633 = ADVANCED_FACE('',(#634),#640,.T.);
#634 = FACE_BOUND('',#635,.T.);
#635 = EDGE_LOOP('',(#636,#637,#638,#639));
#636 = ORIENTED_EDGE('',*,*,#119,.T.);
#637 = ORIENTED_EDGE('',*,*,#391,.T.);
#638 = ORIENTED_EDGE('',*,*,#79,.F.);
#639 = ORIENTED_EDGE('',*,*,#143,.F.);
#640 = PLANE('',#641);
#641 = AXIS2_PLACEMENT_3D('',#642,#643,#644);
#642 = CARTESIAN_POINT('',(117.094,-66.294,0.));
#643 = DIRECTION('',(0.,1.,0.));
#644 = DIRECTION('',(1.,0.,0.));
#645 = ADVANCED_FACE('',(#646),#657,.F.);
#646 = FACE_BOUND('',#647,.T.);
#647 = EDGE_LOOP('',(#648,#649,#655,#656));
#648 = ORIENTED_EDGE('',*,*,#152,.T.);
#649 = ORIENTED_EDGE('',*,*,#650,.T.);
#650 = EDGE_CURVE('',#153,#401,#651,.T.);
#651 = LINE('',#652,#653);
#652 = CARTESIAN_POINT('',(121.92,-103.2,-4.5E-02));
#653 = VECTOR('',#654,1.);
#654 = DIRECTION('',(0.,0.,1.));
#655 = ORIENTED_EDGE('',*,*,#400,.F.);
#656 = ORIENTED_EDGE('',*,*,#650,.F.);
#657 = CYLINDRICAL_SURFACE('',#658,1.6);
#658 = AXIS2_PLACEMENT_3D('',#659,#660,#661);
#659 = CARTESIAN_POINT('',(121.92,-101.6,-4.5E-02));
#660 = DIRECTION('',(-0.,0.,-1.));
#661 = DIRECTION('',(8.881784197001E-15,-1.,-0.));
#662 = ADVANCED_FACE('',(#663),#674,.F.);
#663 = FACE_BOUND('',#664,.T.);
#664 = EDGE_LOOP('',(#665,#666,#672,#673));
#665 = ORIENTED_EDGE('',*,*,#163,.T.);
#666 = ORIENTED_EDGE('',*,*,#667,.T.);
#667 = EDGE_CURVE('',#164,#412,#668,.T.);
#668 = LINE('',#669,#670);
#669 = CARTESIAN_POINT('',(130.429,-101.981,-4.5E-02));
#670 = VECTOR('',#671,1.);
#671 = DIRECTION('',(0.,0.,1.));
#672 = ORIENTED_EDGE('',*,*,#411,.F.);
#673 = ORIENTED_EDGE('',*,*,#667,.F.);
#674 = CYLINDRICAL_SURFACE('',#675,0.508);
#675 = AXIS2_PLACEMENT_3D('',#676,#677,#678);
#676 = CARTESIAN_POINT('',(130.429,-101.473,-4.5E-02));
#677 = DIRECTION('',(-0.,-0.,-1.));
#678 = DIRECTION('',(-0.,-1.,0.));
#679 = ADVANCED_FACE('',(#680),#691,.F.);
#680 = FACE_BOUND('',#681,.T.);
#681 = EDGE_LOOP('',(#682,#683,#689,#690));
#682 = ORIENTED_EDGE('',*,*,#174,.T.);
#683 = ORIENTED_EDGE('',*,*,#684,.T.);
#684 = EDGE_CURVE('',#175,#423,#685,.T.);
#685 = LINE('',#686,#687);
#686 = CARTESIAN_POINT('',(131.7625,-95.527,-4.5E-02));
#687 = VECTOR('',#688,1.);
#688 = DIRECTION('',(0.,0.,1.));
#689 = ORIENTED_EDGE('',*,*,#422,.F.);
#690 = ORIENTED_EDGE('',*,*,#684,.F.);
#691 = CYLINDRICAL_SURFACE('',#692,0.15);
#692 = AXIS2_PLACEMENT_3D('',#693,#694,#695);
#693 = CARTESIAN_POINT('',(131.7625,-95.377,-4.5E-02));
#694 = DIRECTION('',(-0.,-0.,-1.));
#695 = DIRECTION('',(-0.,-1.,0.));
#696 = ADVANCED_FACE('',(#697),#708,.F.);
#697 = FACE_BOUND('',#698,.T.);
#698 = EDGE_LOOP('',(#699,#700,#706,#707));
#699 = ORIENTED_EDGE('',*,*,#185,.T.);
#700 = ORIENTED_EDGE('',*,*,#701,.T.);
#701 = EDGE_CURVE('',#186,#434,#702,.T.);
#702 = LINE('',#703,#704);
#703 = CARTESIAN_POINT('',(132.842,-95.527,-4.5E-02));
#704 = VECTOR('',#705,1.);
#705 = DIRECTION('',(0.,0.,1.));
#706 = ORIENTED_EDGE('',*,*,#433,.F.);
#707 = ORIENTED_EDGE('',*,*,#701,.F.);
#708 = CYLINDRICAL_SURFACE('',#709,0.15);
#709 = AXIS2_PLACEMENT_3D('',#710,#711,#712);
#710 = CARTESIAN_POINT('',(132.842,-95.377,-4.5E-02));
#711 = DIRECTION('',(-0.,0.,-1.));
#712 = DIRECTION('',(1.894780628694E-13,-1.,-0.));
#713 = ADVANCED_FACE('',(#714),#725,.F.);
#714 = FACE_BOUND('',#715,.T.);
#715 = EDGE_LOOP('',(#716,#717,#723,#724));
#716 = ORIENTED_EDGE('',*,*,#196,.T.);
#717 = ORIENTED_EDGE('',*,*,#718,.T.);
#718 = EDGE_CURVE('',#197,#445,#719,.T.);
#719 = LINE('',#720,#721);
#720 = CARTESIAN_POINT('',(131.7625,-94.384,-4.5E-02));
#721 = VECTOR('',#722,1.);
#722 = DIRECTION('',(0.,0.,1.));
#723 = ORIENTED_EDGE('',*,*,#444,.F.);
#724 = ORIENTED_EDGE('',*,*,#718,.F.);
#725 = CYLINDRICAL_SURFACE('',#726,0.15);
#726 = AXIS2_PLACEMENT_3D('',#727,#728,#729);
#727 = CARTESIAN_POINT('',(131.7625,-94.234,-4.5E-02));
#728 = DIRECTION('',(-0.,-0.,-1.));
#729 = DIRECTION('',(-0.,-1.,0.));
#730 = ADVANCED_FACE('',(#731),#742,.F.);
#731 = FACE_BOUND('',#732,.T.);
#732 = EDGE_LOOP('',(#733,#734,#740,#741));
#733 = ORIENTED_EDGE('',*,*,#207,.T.);
#734 = ORIENTED_EDGE('',*,*,#735,.T.);
#735 = EDGE_CURVE('',#208,#456,#736,.T.);
#736 = LINE('',#737,#738);
#737 = CARTESIAN_POINT('',(132.842,-94.384,-4.5E-02));
#738 = VECTOR('',#739,1.);
#739 = DIRECTION('',(0.,0.,1.));
#740 = ORIENTED_EDGE('',*,*,#455,.F.);
#741 = ORIENTED_EDGE('',*,*,#735,.F.);
#742 = CYLINDRICAL_SURFACE('',#743,0.15);
#743 = AXIS2_PLACEMENT_3D('',#744,#745,#746);
#744 = CARTESIAN_POINT('',(132.842,-94.234,-4.5E-02));
#745 = DIRECTION('',(-0.,0.,-1.));
#746 = DIRECTION('',(1.894780628694E-13,-1.,-0.));
#747 = ADVANCED_FACE('',(#748),#759,.F.);
#748 = FACE_BOUND('',#749,.T.);
#749 = EDGE_LOOP('',(#750,#751,#757,#758));
#750 = ORIENTED_EDGE('',*,*,#218,.T.);
#751 = ORIENTED_EDGE('',*,*,#752,.T.);
#752 = EDGE_CURVE('',#219,#467,#753,.T.);
#753 = LINE('',#754,#755);
#754 = CARTESIAN_POINT('',(131.7625,-93.1775,-4.5E-02));
#755 = VECTOR('',#756,1.);
#756 = DIRECTION('',(0.,0.,1.));
#757 = ORIENTED_EDGE('',*,*,#466,.F.);
#758 = ORIENTED_EDGE('',*,*,#752,.F.);
#759 = CYLINDRICAL_SURFACE('',#760,0.15);
#760 = AXIS2_PLACEMENT_3D('',#761,#762,#763);
#761 = CARTESIAN_POINT('',(131.7625,-93.0275,-4.5E-02));
#762 = DIRECTION('',(-0.,-0.,-1.));
#763 = DIRECTION('',(-0.,-1.,0.));
#764 = ADVANCED_FACE('',(#765),#776,.F.);
#765 = FACE_BOUND('',#766,.T.);
#766 = EDGE_LOOP('',(#767,#768,#774,#775));
#767 = ORIENTED_EDGE('',*,*,#229,.T.);
#768 = ORIENTED_EDGE('',*,*,#769,.T.);
#769 = EDGE_CURVE('',#230,#478,#770,.T.);
#770 = LINE('',#771,#772);
#771 = CARTESIAN_POINT('',(132.9055,-93.1775,-4.5E-02));
#772 = VECTOR('',#773,1.);
#773 = DIRECTION('',(0.,0.,1.));
#774 = ORIENTED_EDGE('',*,*,#477,.F.);
#775 = ORIENTED_EDGE('',*,*,#769,.F.);
#776 = CYLINDRICAL_SURFACE('',#777,0.15);
#777 = AXIS2_PLACEMENT_3D('',#778,#779,#780);
#778 = CARTESIAN_POINT('',(132.9055,-93.0275,-4.5E-02));
#779 = DIRECTION('',(-0.,-0.,-1.));
#780 = DIRECTION('',(-1.894780628694E-13,-1.,0.));
#781 = ADVANCED_FACE('',(#782),#793,.F.);
#782 = FACE_BOUND('',#783,.T.);
#783 = EDGE_LOOP('',(#784,#785,#791,#792));
#784 = ORIENTED_EDGE('',*,*,#240,.T.);
#785 = ORIENTED_EDGE('',*,*,#786,.T.);
#786 = EDGE_CURVE('',#241,#489,#787,.T.);
#787 = LINE('',#788,#789);
#788 = CARTESIAN_POINT('',(138.811,-101.706,-4.5E-02));
#789 = VECTOR('',#790,1.);
#790 = DIRECTION('',(0.,0.,1.));
#791 = ORIENTED_EDGE('',*,*,#488,.F.);
#792 = ORIENTED_EDGE('',*,*,#786,.F.);
#793 = CYLINDRICAL_SURFACE('',#794,0.4);
#794 = AXIS2_PLACEMENT_3D('',#795,#796,#797);
#795 = CARTESIAN_POINT('',(138.811,-101.306,-4.5E-02));
#796 = DIRECTION('',(-0.,-0.,-1.));
#797 = DIRECTION('',(-0.,-1.,0.));
#798 = ADVANCED_FACE('',(#799),#810,.F.);
#799 = FACE_BOUND('',#800,.T.);
#800 = EDGE_LOOP('',(#801,#802,#808,#809));
#801 = ORIENTED_EDGE('',*,*,#251,.T.);
#802 = ORIENTED_EDGE('',*,*,#803,.T.);
#803 = EDGE_CURVE('',#252,#500,#804,.T.);
#804 = LINE('',#805,#806);
#805 = CARTESIAN_POINT('',(138.811,-99.206,-4.5E-02));
#806 = VECTOR('',#807,1.);
#807 = DIRECTION('',(0.,0.,1.));
#808 = ORIENTED_EDGE('',*,*,#499,.F.);
#809 = ORIENTED_EDGE('',*,*,#803,.F.);
#810 = CYLINDRICAL_SURFACE('',#811,0.4);
#811 = AXIS2_PLACEMENT_3D('',#812,#813,#814);
#812 = CARTESIAN_POINT('',(138.811,-98.806,-4.5E-02));
#813 = DIRECTION('',(-0.,-0.,-1.));
#814 = DIRECTION('',(-0.,-1.,0.));
#815 = ADVANCED_FACE('',(#816),#827,.F.);
#816 = FACE_BOUND('',#817,.T.);
#817 = EDGE_LOOP('',(#818,#819,#825,#826));
#818 = ORIENTED_EDGE('',*,*,#262,.T.);
#819 = ORIENTED_EDGE('',*,*,#820,.T.);
#820 = EDGE_CURVE('',#263,#511,#821,.T.);
#821 = LINE('',#822,#823);
#822 = CARTESIAN_POINT('',(152.4,-103.2,-4.5E-02));
#823 = VECTOR('',#824,1.);
#824 = DIRECTION('',(0.,0.,1.));
#825 = ORIENTED_EDGE('',*,*,#510,.F.);
#826 = ORIENTED_EDGE('',*,*,#820,.F.);
#827 = CYLINDRICAL_SURFACE('',#828,1.6);
#828 = AXIS2_PLACEMENT_3D('',#829,#830,#831);
#829 = CARTESIAN_POINT('',(152.4,-101.6,-4.5E-02));
#830 = DIRECTION('',(-0.,-0.,-1.));
#831 = DIRECTION('',(-0.,-1.,0.));
#832 = ADVANCED_FACE('',(#833),#844,.F.);
#833 = FACE_BOUND('',#834,.T.);
#834 = EDGE_LOOP('',(#835,#836,#842,#843));
#835 = ORIENTED_EDGE('',*,*,#273,.T.);
#836 = ORIENTED_EDGE('',*,*,#837,.T.);
#837 = EDGE_CURVE('',#274,#522,#838,.T.);
#838 = LINE('',#839,#840);
#839 = CARTESIAN_POINT('',(146.558,-94.63,-4.5E-02));
#840 = VECTOR('',#841,1.);
#841 = DIRECTION('',(0.,0.,1.));
#842 = ORIENTED_EDGE('',*,*,#521,.F.);
#843 = ORIENTED_EDGE('',*,*,#837,.F.);
#844 = CYLINDRICAL_SURFACE('',#845,0.65);
#845 = AXIS2_PLACEMENT_3D('',#846,#847,#848);
#846 = CARTESIAN_POINT('',(146.558,-93.98,-4.5E-02));
#847 = DIRECTION('',(-0.,-0.,-1.));
#848 = DIRECTION('',(-0.,-1.,0.));
#849 = ADVANCED_FACE('',(#850),#861,.F.);
#850 = FACE_BOUND('',#851,.T.);
#851 = EDGE_LOOP('',(#852,#853,#859,#860));
#852 = ORIENTED_EDGE('',*,*,#284,.T.);
#853 = ORIENTED_EDGE('',*,*,#854,.T.);
#854 = EDGE_CURVE('',#285,#533,#855,.T.);
#855 = LINE('',#856,#857);
#856 = CARTESIAN_POINT('',(151.558,-94.63,-4.5E-02));
#857 = VECTOR('',#858,1.);
#858 = DIRECTION('',(0.,0.,1.));
#859 = ORIENTED_EDGE('',*,*,#532,.F.);
#860 = ORIENTED_EDGE('',*,*,#854,.F.);
#861 = CYLINDRICAL_SURFACE('',#862,0.65);
#862 = AXIS2_PLACEMENT_3D('',#863,#864,#865);
#863 = CARTESIAN_POINT('',(151.558,-93.98,-4.5E-02));
#864 = DIRECTION('',(-0.,-0.,-1.));
#865 = DIRECTION('',(-0.,-1.,0.));
#866 = ADVANCED_FACE('',(#867),#878,.F.);
#867 = FACE_BOUND('',#868,.T.);
#868 = EDGE_LOOP('',(#869,#870,#876,#877));
#869 = ORIENTED_EDGE('',*,*,#295,.T.);
#870 = ORIENTED_EDGE('',*,*,#871,.T.);
#871 = EDGE_CURVE('',#296,#544,#872,.T.);
#872 = LINE('',#873,#874);
#873 = CARTESIAN_POINT('',(146.558,-89.55,-4.5E-02));
#874 = VECTOR('',#875,1.);
#875 = DIRECTION('',(0.,0.,1.));
#876 = ORIENTED_EDGE('',*,*,#543,.F.);
#877 = ORIENTED_EDGE('',*,*,#871,.F.);
#878 = CYLINDRICAL_SURFACE('',#879,0.65);
#879 = AXIS2_PLACEMENT_3D('',#880,#881,#882);
#880 = CARTESIAN_POINT('',(146.558,-88.9,-4.5E-02));
#881 = DIRECTION('',(-0.,-0.,-1.));
#882 = DIRECTION('',(-0.,-1.,0.));
#883 = ADVANCED_FACE('',(#884),#895,.F.);
#884 = FACE_BOUND('',#885,.T.);
#885 = EDGE_LOOP('',(#886,#887,#893,#894));
#886 = ORIENTED_EDGE('',*,*,#306,.T.);
#887 = ORIENTED_EDGE('',*,*,#888,.T.);
#888 = EDGE_CURVE('',#307,#555,#889,.T.);
#889 = LINE('',#890,#891);
#890 = CARTESIAN_POINT('',(151.558,-89.55,-4.5E-02));
#891 = VECTOR('',#892,1.);
#892 = DIRECTION('',(0.,0.,1.));
#893 = ORIENTED_EDGE('',*,*,#554,.F.);
#894 = ORIENTED_EDGE('',*,*,#888,.F.);
#895 = CYLINDRICAL_SURFACE('',#896,0.65);
#896 = AXIS2_PLACEMENT_3D('',#897,#898,#899);
#897 = CARTESIAN_POINT('',(151.558,-88.9,-4.5E-02));
#898 = DIRECTION('',(-0.,-0.,-1.));
#899 = DIRECTION('',(-0.,-1.,0.));
#900 = ADVANCED_FACE('',(#901),#912,.F.);
#901 = FACE_BOUND('',#902,.T.);
#902 = EDGE_LOOP('',(#903,#904,#910,#911));
#903 = ORIENTED_EDGE('',*,*,#317,.T.);
#904 = ORIENTED_EDGE('',*,*,#905,.T.);
#905 = EDGE_CURVE('',#318,#566,#906,.T.);
#906 = LINE('',#907,#908);
#907 = CARTESIAN_POINT('',(121.92,-72.72,-4.5E-02));
#908 = VECTOR('',#909,1.);
#909 = DIRECTION('',(0.,0.,1.));
#910 = ORIENTED_EDGE('',*,*,#565,.F.);
#911 = ORIENTED_EDGE('',*,*,#905,.F.);
#912 = CYLINDRICAL_SURFACE('',#913,1.6);
#913 = AXIS2_PLACEMENT_3D('',#914,#915,#916);
#914 = CARTESIAN_POINT('',(121.92,-71.12,-4.5E-02));
#915 = DIRECTION('',(-0.,0.,-1.));
#916 = DIRECTION('',(8.881784197001E-15,-1.,-0.));
#917 = ADVANCED_FACE('',(#918),#929,.F.);
#918 = FACE_BOUND('',#919,.T.);
#919 = EDGE_LOOP('',(#920,#921,#927,#928));
#920 = ORIENTED_EDGE('',*,*,#328,.T.);
#921 = ORIENTED_EDGE('',*,*,#922,.T.);
#922 = EDGE_CURVE('',#329,#577,#923,.T.);
#923 = LINE('',#924,#925);
#924 = CARTESIAN_POINT('',(146.558,-84.47,-4.5E-02));
#925 = VECTOR('',#926,1.);
#926 = DIRECTION('',(0.,0.,1.));
#927 = ORIENTED_EDGE('',*,*,#576,.F.);
#928 = ORIENTED_EDGE('',*,*,#922,.F.);
#929 = CYLINDRICAL_SURFACE('',#930,0.65);
#930 = AXIS2_PLACEMENT_3D('',#931,#932,#933);
#931 = CARTESIAN_POINT('',(146.558,-83.82,-4.5E-02));
#932 = DIRECTION('',(-0.,-0.,-1.));
#933 = DIRECTION('',(-0.,-1.,0.));
#934 = ADVANCED_FACE('',(#935),#946,.F.);
#935 = FACE_BOUND('',#936,.T.);
#936 = EDGE_LOOP('',(#937,#938,#944,#945));
#937 = ORIENTED_EDGE('',*,*,#339,.T.);
#938 = ORIENTED_EDGE('',*,*,#939,.T.);
#939 = EDGE_CURVE('',#340,#588,#940,.T.);
#940 = LINE('',#941,#942);
#941 = CARTESIAN_POINT('',(151.558,-84.47,-4.5E-02));
#942 = VECTOR('',#943,1.);
#943 = DIRECTION('',(0.,0.,1.));
#944 = ORIENTED_EDGE('',*,*,#587,.F.);
#945 = ORIENTED_EDGE('',*,*,#939,.F.);
#946 = CYLINDRICAL_SURFACE('',#947,0.65);
#947 = AXIS2_PLACEMENT_3D('',#948,#949,#950);
#948 = CARTESIAN_POINT('',(151.558,-83.82,-4.5E-02));
#949 = DIRECTION('',(-0.,-0.,-1.));
#950 = DIRECTION('',(-0.,-1.,0.));
#951 = ADVANCED_FACE('',(#952),#963,.F.);
#952 = FACE_BOUND('',#953,.T.);
#953 = EDGE_LOOP('',(#954,#955,#961,#962));
#954 = ORIENTED_EDGE('',*,*,#350,.T.);
#955 = ORIENTED_EDGE('',*,*,#956,.T.);
#956 = EDGE_CURVE('',#351,#599,#957,.T.);
#957 = LINE('',#958,#959);
#958 = CARTESIAN_POINT('',(146.558,-79.39,-4.5E-02));
#959 = VECTOR('',#960,1.);
#960 = DIRECTION('',(0.,0.,1.));
#961 = ORIENTED_EDGE('',*,*,#598,.F.);
#962 = ORIENTED_EDGE('',*,*,#956,.F.);
#963 = CYLINDRICAL_SURFACE('',#964,0.65);
#964 = AXIS2_PLACEMENT_3D('',#965,#966,#967);
#965 = CARTESIAN_POINT('',(146.558,-78.74,-4.5E-02));
#966 = DIRECTION('',(-0.,-0.,-1.));
#967 = DIRECTION('',(-0.,-1.,0.));
#968 = ADVANCED_FACE('',(#969),#980,.F.);
#969 = FACE_BOUND('',#970,.T.);
#970 = EDGE_LOOP('',(#971,#972,#978,#979));
#971 = ORIENTED_EDGE('',*,*,#361,.T.);
#972 = ORIENTED_EDGE('',*,*,#973,.T.);
#973 = EDGE_CURVE('',#362,#610,#974,.T.);
#974 = LINE('',#975,#976);
#975 = CARTESIAN_POINT('',(151.558,-79.39,-4.5E-02));
#976 = VECTOR('',#977,1.);
#977 = DIRECTION('',(0.,0.,1.));
#978 = ORIENTED_EDGE('',*,*,#609,.F.);
#979 = ORIENTED_EDGE('',*,*,#973,.F.);
#980 = CYLINDRICAL_SURFACE('',#981,0.65);
#981 = AXIS2_PLACEMENT_3D('',#982,#983,#984);
#982 = CARTESIAN_POINT('',(151.558,-78.74,-4.5E-02));
#983 = DIRECTION('',(-0.,-0.,-1.));
#984 = DIRECTION('',(-0.,-1.,0.));
#985 = ADVANCED_FACE('',(#986),#997,.F.);
#986 = FACE_BOUND('',#987,.T.);
#987 = EDGE_LOOP('',(#988,#989,#995,#996));
#988 = ORIENTED_EDGE('',*,*,#372,.T.);
#989 = ORIENTED_EDGE('',*,*,#990,.T.);
#990 = EDGE_CURVE('',#373,#621,#991,.T.);
#991 = LINE('',#992,#993);
#992 = CARTESIAN_POINT('',(152.4,-72.72,-4.5E-02));
#993 = VECTOR('',#994,1.);
#994 = DIRECTION('',(0.,0.,1.));
#995 = ORIENTED_EDGE('',*,*,#620,.F.);
#996 = ORIENTED_EDGE('',*,*,#990,.F.);
#997 = CYLINDRICAL_SURFACE('',#998,1.6);
#998 = AXIS2_PLACEMENT_3D('',#999,#1000,#1001);
#999 = CARTESIAN_POINT('',(152.4,-71.12,-4.5E-02));
#1000 = DIRECTION('',(-0.,-0.,-1.));
#1001 = DIRECTION('',(-0.,-1.,0.));
#1002 = ( GEOMETRIC_REPRESENTATION_CONTEXT(3) 
GLOBAL_UNCERTAINTY_ASSIGNED_CONTEXT((#1006)) 
GLOBAL_UNIT_ASSIGNED_CONTEXT((#1003,#1004,#1005)) REPRESENTATION_CONTEXT
('Context #1','3D Context with UNIT and UNCERTAINTY') );
#1003 = ( LENGTH_UNIT() NAMED_UNIT(*) SI_UNIT(.MILLI.,.METRE.) );
#1004 = ( NAMED_UNIT(*) PLANE_ANGLE_UNIT() SI_UNIT($,.RADIAN.) );
#1005 = ( NAMED_UNIT(*) SI_UNIT($,.STERADIAN.) SOLID_ANGLE_UNIT() );
#1006 = UNCERTAINTY_MEASURE_WITH_UNIT(LENGTH_MEASURE(1.E-07),#1003,
  'distance_accuracy_value','confusion accuracy');
#1007 = CONTEXT_DEPENDENT_SHAPE_REPRESENTATION(#1008,#1010);
#1008 = ( REPRESENTATION_RELATIONSHIP('','',#32,#10) 
REPRESENTATION_RELATIONSHIP_WITH_TRANSFORMATION(#1009) 
SHAPE_REPRESENTATION_RELATIONSHIP() );
#1009 = ITEM_DEFINED_TRANSFORMATION('','',#11,#15);
#1010 = PRODUCT_DEFINITION_SHAPE('Placement','Placement of an item',
  #1011);
#1011 = NEXT_ASSEMBLY_USAGE_OCCURRENCE('1','=>[0:1:1:2]','',#5,#27,$);
#1012 = PRODUCT_RELATED_PRODUCT_CATEGORY('part',$,(#29));
#1013 = MECHANICAL_DESIGN_GEOMETRIC_PRESENTATION_REPRESENTATION('',(
    #1014),#1002);
#1014 = STYLED_ITEM('color',(#1015),#33);
#1015 = PRESENTATION_STYLE_ASSIGNMENT((#1016));
#1016 = SURFACE_STYLE_USAGE(.BOTH.,#1017);
#1017 = SURFACE_SIDE_STYLE('',(#1018));
#1018 = SURFACE_STYLE_FILL_AREA(#1019);
#1019 = FILL_AREA_STYLE('',(#1020));
#1020 = FILL_AREA_STYLE_COLOUR('',#1021);
#1021 = COLOUR_RGB('',0.313304153717,0.484529207832,0.410020903123);
ENDSEC;
END-ISO-10303-21;
