<?xml version='1.0' encoding='ASCII' standalone='yes'?>
<svg xmlns:svg="http://www.w3.org/2000/svg" xmlns="http://www.w3.org/2000/svg" xmlns:xlink="http://www.w3.org/1999/xlink" version="1.1" width="297.0022mm" height="210.0072mm" viewBox="0.0000 0.0000 297.0022 210.0072">
<title>SVG Image created as STEPDOWN02-F_Fab.svg date 2023/09/17 11:12:48 </title>
  <desc>Image generated by PCBNEW </desc>
<g style="fill:#848484; fill-opacity:1.0000;stroke:#848484; stroke-opacity:1.0000; stroke-linecap:round; stroke-linejoin:round;" transform="translate(0 0) scale(1 1)">
</g>
<g style="fill:#848484; fill-opacity:0.0;  stroke:#848484; stroke-width:0.0000; stroke-opacity:1;  stroke-linecap:round; stroke-linejoin:round;">
</g>
<g style="fill:#848484; fill-opacity:0.01;  stroke:#848484; stroke-width:0.7820; stroke-opacity:1;  stroke-linecap:round; stroke-linejoin:round;">
<text x="183.5915" y="170.2370" textLength="51.6980" font-size="6.9510" lengthAdjust="spacingAndGlyphs" text-anchor="middle" opacity="0.01" style="font-family:monospace">CONN_01X01</text>
<g class="stroked-text"><desc>CONN_01X01</desc>
<path d="M204.5686 169.5049 L204.8168 169.7532 "/>
<path d="M204.8168 169.7532 L205.5616 170.0014 "/>
<path d="M205.5616 170.0014 L206.0581 170.0014 "/>
<path d="M206.0581 170.0014 L206.8028 169.7532 "/>
<path d="M206.8028 169.7532 L207.2993 169.2567 "/>
<path d="M207.2993 169.2567 L207.5476 168.7602 "/>
<path d="M207.5476 168.7602 L207.7958 167.7672 "/>
<path d="M207.7958 167.7672 L207.7958 167.0224 "/>
<path d="M207.7958 167.0224 L207.5476 166.0294 "/>
<path d="M207.5476 166.0294 L207.2993 165.5329 "/>
<path d="M207.2993 165.5329 L206.8028 165.0364 "/>
<path d="M206.8028 165.0364 L206.0581 164.7882 "/>
<path d="M206.0581 164.7882 L205.5616 164.7882 "/>
<path d="M205.5616 164.7882 L204.8168 165.0364 "/>
<path d="M204.8168 165.0364 L204.5686 165.2847 "/>
<path d="M201.3413 164.7882 L200.3483 164.7882 "/>
<path d="M200.3483 164.7882 L199.8518 165.0364 "/>
<path d="M199.8518 165.0364 L199.3553 165.5329 "/>
<path d="M199.3553 165.5329 L199.1071 166.5259 "/>
<path d="M199.1071 166.5259 L199.1071 168.2637 "/>
<path d="M199.1071 168.2637 L199.3553 169.2567 "/>
<path d="M199.3553 169.2567 L199.8518 169.7532 "/>
<path d="M199.8518 169.7532 L200.3483 170.0014 "/>
<path d="M200.3483 170.0014 L201.3413 170.0014 "/>
<path d="M201.3413 170.0014 L201.8378 169.7532 "/>
<path d="M201.8378 169.7532 L202.3343 169.2567 "/>
<path d="M202.3343 169.2567 L202.5826 168.2637 "/>
<path d="M202.5826 168.2637 L202.5826 166.5259 "/>
<path d="M202.5826 166.5259 L202.3343 165.5329 "/>
<path d="M202.3343 165.5329 L201.8378 165.0364 "/>
<path d="M201.8378 165.0364 L201.3413 164.7882 "/>
<path d="M196.8728 170.0014 L196.8728 164.7882 "/>
<path d="M196.8728 164.7882 L193.8938 170.0014 "/>
<path d="M193.8938 170.0014 L193.8938 164.7882 "/>
<path d="M191.4113 170.0014 L191.4113 164.7882 "/>
<path d="M191.4113 164.7882 L188.4323 170.0014 "/>
<path d="M188.4323 170.0014 L188.4323 164.7882 "/>
<path d="M187.1911 170.4979 L183.2191 170.4979 "/>
<path d="M180.9848 164.7882 L180.4883 164.7882 "/>
<path d="M180.4883 164.7882 L179.9918 165.0364 "/>
<path d="M179.9918 165.0364 L179.7436 165.2847 "/>
<path d="M179.7436 165.2847 L179.4953 165.7812 "/>
<path d="M179.4953 165.7812 L179.2471 166.7742 "/>
<path d="M179.2471 166.7742 L179.2471 168.0154 "/>
<path d="M179.2471 168.0154 L179.4953 169.0084 "/>
<path d="M179.4953 169.0084 L179.7436 169.5049 "/>
<path d="M179.7436 169.5049 L179.9918 169.7532 "/>
<path d="M179.9918 169.7532 L180.4883 170.0014 "/>
<path d="M180.4883 170.0014 L180.9848 170.0014 "/>
<path d="M180.9848 170.0014 L181.4813 169.7532 "/>
<path d="M181.4813 169.7532 L181.7296 169.5049 "/>
<path d="M181.7296 169.5049 L181.9778 169.0084 "/>
<path d="M181.9778 169.0084 L182.2261 168.0154 "/>
<path d="M182.2261 168.0154 L182.2261 166.7742 "/>
<path d="M182.2261 166.7742 L181.9778 165.7812 "/>
<path d="M181.9778 165.7812 L181.7296 165.2847 "/>
<path d="M181.7296 165.2847 L181.4813 165.0364 "/>
<path d="M181.4813 165.0364 L180.9848 164.7882 "/>
<path d="M174.2821 170.0014 L177.2611 170.0014 "/>
<path d="M175.7716 170.0014 L175.7716 164.7882 "/>
<path d="M175.7716 164.7882 L176.2681 165.5329 "/>
<path d="M176.2681 165.5329 L176.7646 166.0294 "/>
<path d="M176.7646 166.0294 L177.2611 166.2777 "/>
<path d="M172.5443 164.7882 L169.0688 170.0014 "/>
<path d="M169.0688 164.7882 L172.5443 170.0014 "/>
<path d="M166.0898 164.7882 L165.5933 164.7882 "/>
<path d="M165.5933 164.7882 L165.0968 165.0364 "/>
<path d="M165.0968 165.0364 L164.8486 165.2847 "/>
<path d="M164.8486 165.2847 L164.6003 165.7812 "/>
<path d="M164.6003 165.7812 L164.3521 166.7742 "/>
<path d="M164.3521 166.7742 L164.3521 168.0154 "/>
<path d="M164.3521 168.0154 L164.6003 169.0084 "/>
<path d="M164.6003 169.0084 L164.8486 169.5049 "/>
<path d="M164.8486 169.5049 L165.0968 169.7532 "/>
<path d="M165.0968 169.7532 L165.5933 170.0014 "/>
<path d="M165.5933 170.0014 L166.0898 170.0014 "/>
<path d="M166.0898 170.0014 L166.5863 169.7532 "/>
<path d="M166.5863 169.7532 L166.8346 169.5049 "/>
<path d="M166.8346 169.5049 L167.0828 169.0084 "/>
<path d="M167.0828 169.0084 L167.3311 168.0154 "/>
<path d="M167.3311 168.0154 L167.3311 166.7742 "/>
<path d="M167.3311 166.7742 L167.0828 165.7812 "/>
<path d="M167.0828 165.7812 L166.8346 165.2847 "/>
<path d="M166.8346 165.2847 L166.5863 165.0364 "/>
<path d="M166.5863 165.0364 L166.0898 164.7882 "/>
<path d="M159.3871 170.0014 L162.3661 170.0014 "/>
<path d="M160.8766 170.0014 L160.8766 164.7882 "/>
<path d="M160.8766 164.7882 L161.3731 165.5329 "/>
<path d="M161.3731 165.5329 L161.8696 166.0294 "/>
<path d="M161.8696 166.0294 L162.3661 166.2777 "/>
</g><g transform="rotate(-90.000000 162.8323 176.4042)">
<text x="162.8323" y="179.0109" textLength="15.9501" font-size="6.9510" lengthAdjust="spacingAndGlyphs" text-anchor="middle" opacity="0.01" style="font-family:monospace">47u</text>
</g>
<g class="stroked-text"><desc>47u</desc>
<path d="M163.9367 180.2521 L160.4612 180.2521 "/>
<path d="M165.9227 181.4933 L162.1990 182.7346 "/>
<path d="M162.1990 182.7346 L162.1990 179.5074 "/>
<path d="M165.6745 178.0178 L165.6745 174.5424 "/>
<path d="M165.6745 174.5424 L160.4612 176.7766 "/>
<path d="M163.9367 170.3221 L160.4612 170.3221 "/>
<path d="M163.9367 172.5564 L161.2060 172.5564 "/>
<path d="M161.2060 172.5564 L160.7095 172.3081 "/>
<path d="M160.7095 172.3081 L160.4612 171.8116 "/>
<path d="M160.4612 171.8116 L160.4612 171.0669 "/>
<path d="M160.4612 171.0669 L160.7095 170.5704 "/>
<path d="M160.7095 170.5704 L160.9577 170.3221 "/>
</g><text x="151.1494" y="37.2835" textLength="46.7330" font-size="6.9510" lengthAdjust="spacingAndGlyphs" text-anchor="middle" opacity="0.01" style="font-family:monospace">POWER OUT</text>
<g class="stroked-text"><desc>POWER OUT</desc>
<path d="M172.6230 37.0480 L172.6230 31.8347 "/>
<path d="M172.6230 31.8347 L170.6370 31.8347 "/>
<path d="M170.6370 31.8347 L170.1405 32.0830 "/>
<path d="M170.1405 32.0830 L169.8923 32.3312 "/>
<path d="M169.8923 32.3312 L169.6440 32.8277 "/>
<path d="M169.6440 32.8277 L169.6440 33.5725 "/>
<path d="M169.6440 33.5725 L169.8923 34.0690 "/>
<path d="M169.8923 34.0690 L170.1405 34.3172 "/>
<path d="M170.1405 34.3172 L170.6370 34.5655 "/>
<path d="M170.6370 34.5655 L172.6230 34.5655 "/>
<path d="M166.4168 31.8347 L165.4238 31.8347 "/>
<path d="M165.4238 31.8347 L164.9273 32.0830 "/>
<path d="M164.9273 32.0830 L164.4308 32.5795 "/>
<path d="M164.4308 32.5795 L164.1825 33.5725 "/>
<path d="M164.1825 33.5725 L164.1825 35.3102 "/>
<path d="M164.1825 35.3102 L164.4308 36.3032 "/>
<path d="M164.4308 36.3032 L164.9273 36.7997 "/>
<path d="M164.9273 36.7997 L165.4238 37.0480 "/>
<path d="M165.4238 37.0480 L166.4168 37.0480 "/>
<path d="M166.4168 37.0480 L166.9133 36.7997 "/>
<path d="M166.9133 36.7997 L167.4098 36.3032 "/>
<path d="M167.4098 36.3032 L167.6580 35.3102 "/>
<path d="M167.6580 35.3102 L167.6580 33.5725 "/>
<path d="M167.6580 33.5725 L167.4098 32.5795 "/>
<path d="M167.4098 32.5795 L166.9133 32.0830 "/>
<path d="M166.9133 32.0830 L166.4168 31.8347 "/>
<path d="M162.4448 31.8347 L161.2035 37.0480 "/>
<path d="M161.2035 37.0480 L160.2106 33.3242 "/>
<path d="M160.2106 33.3242 L159.2176 37.0480 "/>
<path d="M159.2176 37.0480 L157.9763 31.8347 "/>
<path d="M155.9903 34.3172 L154.2526 34.3172 "/>
<path d="M153.5078 37.0480 L155.9903 37.0480 "/>
<path d="M155.9903 37.0480 L155.9903 31.8347 "/>
<path d="M155.9903 31.8347 L153.5078 31.8347 "/>
<path d="M148.2946 37.0480 L150.0323 34.5655 "/>
<path d="M151.2736 37.0480 L151.2736 31.8347 "/>
<path d="M151.2736 31.8347 L149.2876 31.8347 "/>
<path d="M149.2876 31.8347 L148.7911 32.0830 "/>
<path d="M148.7911 32.0830 L148.5428 32.3312 "/>
<path d="M148.5428 32.3312 L148.2946 32.8277 "/>
<path d="M148.2946 32.8277 L148.2946 33.5725 "/>
<path d="M148.2946 33.5725 L148.5428 34.0690 "/>
<path d="M148.5428 34.0690 L148.7911 34.3172 "/>
<path d="M148.7911 34.3172 L149.2876 34.5655 "/>
<path d="M149.2876 34.5655 L151.2736 34.5655 "/>
<path d="M141.0953 31.8347 L140.1023 31.8347 "/>
<path d="M140.1023 31.8347 L139.6058 32.0830 "/>
<path d="M139.6058 32.0830 L139.1093 32.5795 "/>
<path d="M139.1093 32.5795 L138.8611 33.5725 "/>
<path d="M138.8611 33.5725 L138.8611 35.3102 "/>
<path d="M138.8611 35.3102 L139.1093 36.3032 "/>
<path d="M139.1093 36.3032 L139.6058 36.7997 "/>
<path d="M139.6058 36.7997 L140.1023 37.0480 "/>
<path d="M140.1023 37.0480 L141.0953 37.0480 "/>
<path d="M141.0953 37.0480 L141.5918 36.7997 "/>
<path d="M141.5918 36.7997 L142.0883 36.3032 "/>
<path d="M142.0883 36.3032 L142.3366 35.3102 "/>
<path d="M142.3366 35.3102 L142.3366 33.5725 "/>
<path d="M142.3366 33.5725 L142.0883 32.5795 "/>
<path d="M142.0883 32.5795 L141.5918 32.0830 "/>
<path d="M141.5918 32.0830 L141.0953 31.8347 "/>
<path d="M136.6268 31.8347 L136.6268 36.0550 "/>
<path d="M136.6268 36.0550 L136.3786 36.5515 "/>
<path d="M136.3786 36.5515 L136.1303 36.7997 "/>
<path d="M136.1303 36.7997 L135.6338 37.0480 "/>
<path d="M135.6338 37.0480 L134.6408 37.0480 "/>
<path d="M134.6408 37.0480 L134.1443 36.7997 "/>
<path d="M134.1443 36.7997 L133.8961 36.5515 "/>
<path d="M133.8961 36.5515 L133.6478 36.0550 "/>
<path d="M133.6478 36.0550 L133.6478 31.8347 "/>
<path d="M131.9101 31.8347 L128.9311 31.8347 "/>
<path d="M130.4206 37.0480 L130.4206 31.8347 "/>
</g><g>
</g>
<g>
</g>
<g>
</g>
<g>
</g>
<g>
</g>
<g>
</g>
<g>
</g>
<g>
</g>
<g>
</g>
<g>
</g>
<g>
</g>
<g>
</g>
<g>
</g>
<g>
</g>
<g>
</g>
<g>
</g>
<g>
</g>
<g>
</g>
<g>
</g>
<g>
</g>
<g>
</g>
<g>
</g>
<g>
</g>
<g>
</g>
<g>
</g>
<g>
</g>
<g>
</g>
<g>
</g>
<g>
</g>
<g>
</g>
<g>
</g>
<g>
</g>
<g>
</g>
</g> 
<svg:g><svg:g><svg:title>SVG Image created as STEPDOWN02-Edge_Cuts.svg date 2023/09/17 11:12:48 </svg:title>
  <svg:desc>Image generated by PCBNEW </svg:desc>
<svg:g style="fill:#C2C200; fill-opacity:1.0000;stroke:#C2C200; stroke-opacity:1.0000; stroke-linecap:round; stroke-linejoin:round;" transform="translate(0 0) scale(1 1)">
</svg:g>
<svg:g style="fill:#C2C200; fill-opacity:0.0;  stroke:#C2C200; stroke-width:0.0000; stroke-opacity:1;  stroke-linecap:round; stroke-linejoin:round;">
</svg:g>
<svg:g style="fill:#C2C200; fill-opacity:0.0;  stroke:#C2C200; stroke-width:0.7820; stroke-opacity:1;  stroke-linecap:round; stroke-linejoin:round;">
<svg:path d="M253.1101 0.3946 L253.1101 209.6126 "/>
<svg:path d="M253.1101 209.6126 L43.8921 209.6126 "/>
<svg:path d="M43.8921 0.3946 L253.1101 0.3946 "/>
<svg:path d="M43.8921 209.6126 L43.8921 0.3946 "/>
<svg:g>
</svg:g>
<svg:g>
</svg:g>
<svg:g>
</svg:g>
<svg:g>
</svg:g>
<svg:g>
</svg:g>
<svg:g>
</svg:g>
<svg:g>
</svg:g>
<svg:g>
</svg:g>
<svg:g>
</svg:g>
<svg:g>
</svg:g>
<svg:g>
</svg:g>
<svg:g>
</svg:g>
<svg:g>
</svg:g>
<svg:g>
</svg:g>
<svg:g>
</svg:g>
<svg:g>
</svg:g>
<svg:g>
</svg:g>
<svg:g>
</svg:g>
<svg:g>
</svg:g>
<svg:g>
</svg:g>
<svg:g>
</svg:g>
<svg:g>
</svg:g>
<svg:g>
</svg:g>
<svg:g>
</svg:g>
<svg:g>
</svg:g>
<svg:g>
</svg:g>
<svg:g>
</svg:g>
<svg:g>
</svg:g>
<svg:g>
</svg:g>
<svg:g>
</svg:g>
<svg:g>
</svg:g>
<svg:g>
</svg:g>
<svg:g>
</svg:g>
</svg:g> 
</svg:g></svg:g></svg>
