<?xml version='1.0' encoding='ASCII' standalone='yes'?>
<svg xmlns:svg="http://www.w3.org/2000/svg" xmlns="http://www.w3.org/2000/svg" xmlns:xlink="http://www.w3.org/1999/xlink" version="1.1" width="297.0022mm" height="210.0072mm" viewBox="0.0000 0.0000 297.0022 210.0072">
<title>SVG Image created as STEPDOWN02-B_Fab.svg date 2023/09/17 11:12:48 </title>
  <desc>Image generated by PCBNEW </desc>
<g style="fill:#000084; fill-opacity:1.0000;stroke:#000084; stroke-opacity:1.0000; stroke-linecap:round; stroke-linejoin:round;" transform="translate(0 0) scale(1 1)">
</g>
<g style="fill:#000084; fill-opacity:0.0;  stroke:#000084; stroke-width:0.0000; stroke-opacity:1;  stroke-linecap:round; stroke-linejoin:round;">
</g>
<g style="fill:#000084; fill-opacity:0.01;  stroke:#000084; stroke-width:0.7820; stroke-opacity:1;  stroke-linecap:round; stroke-linejoin:round;">
<g transform="rotate(-90.000000 140.3310 125.3825)">
<text x="140.3310" y="127.9891" transform="scale(-1 1) translate(-280.662013 0)" textLength="15.9501" font-size="6.9510" lengthAdjust="spacingAndGlyphs" text-anchor="middle" opacity="0.01" style="font-family:monospace">22u</text>
</g>
<g class="stroked-text"><desc>22u</desc>
<path d="M137.9853 119.0521 L137.7371 119.3004 "/>
<path d="M137.7371 119.3004 L137.4888 119.7969 "/>
<path d="M137.4888 119.7969 L137.4888 121.0381 "/>
<path d="M137.4888 121.0381 L137.7371 121.5346 "/>
<path d="M137.7371 121.5346 L137.9853 121.7829 "/>
<path d="M137.9853 121.7829 L138.4818 122.0311 "/>
<path d="M138.4818 122.0311 L138.9783 122.0311 "/>
<path d="M138.9783 122.0311 L139.7231 121.7829 "/>
<path d="M139.7231 121.7829 L142.7021 118.8039 "/>
<path d="M142.7021 118.8039 L142.7021 122.0311 "/>
<path d="M137.9853 124.0171 L137.7371 124.2654 "/>
<path d="M137.7371 124.2654 L137.4888 124.7619 "/>
<path d="M137.4888 124.7619 L137.4888 126.0031 "/>
<path d="M137.4888 126.0031 L137.7371 126.4996 "/>
<path d="M137.7371 126.4996 L137.9853 126.7479 "/>
<path d="M137.9853 126.7479 L138.4818 126.9961 "/>
<path d="M138.4818 126.9961 L138.9783 126.9961 "/>
<path d="M138.9783 126.9961 L139.7231 126.7479 "/>
<path d="M139.7231 126.7479 L142.7021 123.7689 "/>
<path d="M142.7021 123.7689 L142.7021 126.9961 "/>
<path d="M139.2266 131.4646 L142.7021 131.4646 "/>
<path d="M139.2266 129.2304 L141.9573 129.2304 "/>
<path d="M141.9573 129.2304 L142.4538 129.4786 "/>
<path d="M142.4538 129.4786 L142.7021 129.9751 "/>
<path d="M142.7021 129.9751 L142.7021 130.7199 "/>
<path d="M142.7021 130.7199 L142.4538 131.2164 "/>
<path d="M142.4538 131.2164 L142.2056 131.4646 "/>
</g><g transform="rotate(-90.000000 160.0641 132.1490)">
<text x="160.0641" y="134.7556" transform="scale(-1 1) translate(-320.128166 0)" textLength="15.9501" font-size="6.9510" lengthAdjust="spacingAndGlyphs" text-anchor="middle" opacity="0.01" style="font-family:monospace">3u3</text>
</g>
<g class="stroked-text"><desc>3u3</desc>
<path d="M157.2219 125.5704 L157.2219 128.7976 "/>
<path d="M157.2219 128.7976 L159.2079 127.0599 "/>
<path d="M159.2079 127.0599 L159.2079 127.8046 "/>
<path d="M159.2079 127.8046 L159.4562 128.3011 "/>
<path d="M159.4562 128.3011 L159.7044 128.5494 "/>
<path d="M159.7044 128.5494 L160.2009 128.7976 "/>
<path d="M160.2009 128.7976 L161.4422 128.7976 "/>
<path d="M161.4422 128.7976 L161.9387 128.5494 "/>
<path d="M161.9387 128.5494 L162.1869 128.3011 "/>
<path d="M162.1869 128.3011 L162.4352 127.8046 "/>
<path d="M162.4352 127.8046 L162.4352 126.3151 "/>
<path d="M162.4352 126.3151 L162.1869 125.8186 "/>
<path d="M162.1869 125.8186 L161.9387 125.5704 "/>
<path d="M158.9597 133.2661 L162.4352 133.2661 "/>
<path d="M158.9597 131.0319 L161.6904 131.0319 "/>
<path d="M161.6904 131.0319 L162.1869 131.2801 "/>
<path d="M162.1869 131.2801 L162.4352 131.7766 "/>
<path d="M162.4352 131.7766 L162.4352 132.5213 "/>
<path d="M162.4352 132.5213 L162.1869 133.0178 "/>
<path d="M162.1869 133.0178 L161.9387 133.2661 "/>
<path d="M157.2219 135.2521 L157.2219 138.4793 "/>
<path d="M157.2219 138.4793 L159.2079 136.7416 "/>
<path d="M159.2079 136.7416 L159.2079 137.4863 "/>
<path d="M159.2079 137.4863 L159.4562 137.9828 "/>
<path d="M159.4562 137.9828 L159.7044 138.2311 "/>
<path d="M159.7044 138.2311 L160.2009 138.4793 "/>
<path d="M160.2009 138.4793 L161.4422 138.4793 "/>
<path d="M161.4422 138.4793 L161.9387 138.2311 "/>
<path d="M161.9387 138.2311 L162.1869 137.9828 "/>
<path d="M162.1869 137.9828 L162.4352 137.4863 "/>
<path d="M162.4352 137.4863 L162.4352 135.9968 "/>
<path d="M162.4352 135.9968 L162.1869 135.5003 "/>
<path d="M162.1869 135.5003 L161.9387 135.2521 "/>
</g><g transform="rotate(-90.000000 169.9953 132.1490)">
<text x="169.9953" y="134.7556" transform="scale(-1 1) translate(-339.990636 0)" textLength="10.9851" font-size="6.9510" lengthAdjust="spacingAndGlyphs" text-anchor="middle" opacity="0.01" style="font-family:monospace">1u</text>
</g>
<g class="stroked-text"><desc>1u</desc>
<path d="M172.3664 131.2801 L172.3664 128.3011 "/>
<path d="M172.3664 129.7906 L167.1532 129.7906 "/>
<path d="M167.1532 129.7906 L167.8979 129.2941 "/>
<path d="M167.8979 129.2941 L168.3944 128.7976 "/>
<path d="M168.3944 128.7976 L168.6427 128.3011 "/>
<path d="M168.8909 135.7486 L172.3664 135.7486 "/>
<path d="M168.8909 133.5144 L171.6216 133.5144 "/>
<path d="M171.6216 133.5144 L172.1182 133.7626 "/>
<path d="M172.1182 133.7626 L172.3664 134.2591 "/>
<path d="M172.3664 134.2591 L172.3664 135.0039 "/>
<path d="M172.3664 135.0039 L172.1182 135.5003 "/>
<path d="M172.1182 135.5003 L171.8699 135.7486 "/>
</g><g transform="rotate(-90.000000 81.9384 148.7010)">
<text x="81.9384" y="151.3077" transform="scale(-1 1) translate(-163.876739 0)" textLength="20.4186" font-size="6.9510" lengthAdjust="spacingAndGlyphs" text-anchor="middle" opacity="0.01" style="font-family:monospace">18pF</text>
</g>
<g class="stroked-text"><desc>18pF</desc>
<path d="M84.3095 143.1154 L84.3095 140.1364 "/>
<path d="M84.3095 141.6259 L79.0962 141.6259 "/>
<path d="M79.0962 141.6259 L79.8410 141.1294 "/>
<path d="M79.8410 141.1294 L80.3375 140.6329 "/>
<path d="M80.3375 140.6329 L80.5857 140.1364 "/>
<path d="M81.3305 146.0944 L81.0822 145.5979 "/>
<path d="M81.0822 145.5979 L80.8340 145.3497 "/>
<path d="M80.8340 145.3497 L80.3375 145.1014 "/>
<path d="M80.3375 145.1014 L80.0892 145.1014 "/>
<path d="M80.0892 145.1014 L79.5927 145.3497 "/>
<path d="M79.5927 145.3497 L79.3445 145.5979 "/>
<path d="M79.3445 145.5979 L79.0962 146.0944 "/>
<path d="M79.0962 146.0944 L79.0962 147.0874 "/>
<path d="M79.0962 147.0874 L79.3445 147.5839 "/>
<path d="M79.3445 147.5839 L79.5927 147.8322 "/>
<path d="M79.5927 147.8322 L80.0892 148.0804 "/>
<path d="M80.0892 148.0804 L80.3375 148.0804 "/>
<path d="M80.3375 148.0804 L80.8340 147.8322 "/>
<path d="M80.8340 147.8322 L81.0822 147.5839 "/>
<path d="M81.0822 147.5839 L81.3305 147.0874 "/>
<path d="M81.3305 147.0874 L81.3305 146.0944 "/>
<path d="M81.3305 146.0944 L81.5787 145.5979 "/>
<path d="M81.5787 145.5979 L81.8270 145.3497 "/>
<path d="M81.8270 145.3497 L82.3235 145.1014 "/>
<path d="M82.3235 145.1014 L83.3164 145.1014 "/>
<path d="M83.3164 145.1014 L83.8129 145.3497 "/>
<path d="M83.8129 145.3497 L84.0612 145.5979 "/>
<path d="M84.0612 145.5979 L84.3095 146.0944 "/>
<path d="M84.3095 146.0944 L84.3095 147.0874 "/>
<path d="M84.3095 147.0874 L84.0612 147.5839 "/>
<path d="M84.0612 147.5839 L83.8129 147.8322 "/>
<path d="M83.8129 147.8322 L83.3164 148.0804 "/>
<path d="M83.3164 148.0804 L82.3235 148.0804 "/>
<path d="M82.3235 148.0804 L81.8270 147.8322 "/>
<path d="M81.8270 147.8322 L81.5787 147.5839 "/>
<path d="M81.5787 147.5839 L81.3305 147.0874 "/>
<path d="M80.8340 150.3147 L86.0472 150.3147 "/>
<path d="M81.0822 150.3147 L80.8340 150.8112 "/>
<path d="M80.8340 150.8112 L80.8340 151.8042 "/>
<path d="M80.8340 151.8042 L81.0822 152.3007 "/>
<path d="M81.0822 152.3007 L81.3305 152.5489 "/>
<path d="M81.3305 152.5489 L81.8270 152.7972 "/>
<path d="M81.8270 152.7972 L83.3164 152.7972 "/>
<path d="M83.3164 152.7972 L83.8129 152.5489 "/>
<path d="M83.8129 152.5489 L84.0612 152.3007 "/>
<path d="M84.0612 152.3007 L84.3095 151.8042 "/>
<path d="M84.3095 151.8042 L84.3095 150.8112 "/>
<path d="M84.3095 150.8112 L84.0612 150.3147 "/>
<path d="M81.5787 156.7692 L81.5787 155.0314 "/>
<path d="M84.3095 155.0314 L79.0962 155.0314 "/>
<path d="M79.0962 155.0314 L79.0962 157.5139 "/>
</g><g transform="rotate(-90.000000 62.0759 138.1077)">
<text x="62.0759" y="140.7143" transform="scale(-1 1) translate(-124.151800 0)" textLength="25.3835" font-size="6.9510" lengthAdjust="spacingAndGlyphs" text-anchor="middle" opacity="0.01" style="font-family:monospace">680pF</text>
</g>
<g class="stroked-text"><desc>680pF</desc>
<path d="M59.2337 129.5431 L59.2337 128.5501 "/>
<path d="M59.2337 128.5501 L59.4820 128.0536 "/>
<path d="M59.4820 128.0536 L59.7302 127.8053 "/>
<path d="M59.7302 127.8053 L60.4750 127.3088 "/>
<path d="M60.4750 127.3088 L61.4680 127.0606 "/>
<path d="M61.4680 127.0606 L63.4540 127.0606 "/>
<path d="M63.4540 127.0606 L63.9505 127.3088 "/>
<path d="M63.9505 127.3088 L64.1987 127.5571 "/>
<path d="M64.1987 127.5571 L64.4470 128.0536 "/>
<path d="M64.4470 128.0536 L64.4470 129.0466 "/>
<path d="M64.4470 129.0466 L64.1987 129.5431 "/>
<path d="M64.1987 129.5431 L63.9505 129.7913 "/>
<path d="M63.9505 129.7913 L63.4540 130.0396 "/>
<path d="M63.4540 130.0396 L62.2127 130.0396 "/>
<path d="M62.2127 130.0396 L61.7162 129.7913 "/>
<path d="M61.7162 129.7913 L61.4680 129.5431 "/>
<path d="M61.4680 129.5431 L61.2197 129.0466 "/>
<path d="M61.2197 129.0466 L61.2197 128.0536 "/>
<path d="M61.2197 128.0536 L61.4680 127.5571 "/>
<path d="M61.4680 127.5571 L61.7162 127.3088 "/>
<path d="M61.7162 127.3088 L62.2127 127.0606 "/>
<path d="M61.4680 133.0186 L61.2197 132.5221 "/>
<path d="M61.2197 132.5221 L60.9715 132.2738 "/>
<path d="M60.9715 132.2738 L60.4750 132.0256 "/>
<path d="M60.4750 132.0256 L60.2267 132.0256 "/>
<path d="M60.2267 132.0256 L59.7302 132.2738 "/>
<path d="M59.7302 132.2738 L59.4820 132.5221 "/>
<path d="M59.4820 132.5221 L59.2337 133.0186 "/>
<path d="M59.2337 133.0186 L59.2337 134.0116 "/>
<path d="M59.2337 134.0116 L59.4820 134.5081 "/>
<path d="M59.4820 134.5081 L59.7302 134.7563 "/>
<path d="M59.7302 134.7563 L60.2267 135.0046 "/>
<path d="M60.2267 135.0046 L60.4750 135.0046 "/>
<path d="M60.4750 135.0046 L60.9715 134.7563 "/>
<path d="M60.9715 134.7563 L61.2197 134.5081 "/>
<path d="M61.2197 134.5081 L61.4680 134.0116 "/>
<path d="M61.4680 134.0116 L61.4680 133.0186 "/>
<path d="M61.4680 133.0186 L61.7162 132.5221 "/>
<path d="M61.7162 132.5221 L61.9645 132.2738 "/>
<path d="M61.9645 132.2738 L62.4610 132.0256 "/>
<path d="M62.4610 132.0256 L63.4540 132.0256 "/>
<path d="M63.4540 132.0256 L63.9505 132.2738 "/>
<path d="M63.9505 132.2738 L64.1987 132.5221 "/>
<path d="M64.1987 132.5221 L64.4470 133.0186 "/>
<path d="M64.4470 133.0186 L64.4470 134.0116 "/>
<path d="M64.4470 134.0116 L64.1987 134.5081 "/>
<path d="M64.1987 134.5081 L63.9505 134.7563 "/>
<path d="M63.9505 134.7563 L63.4540 135.0046 "/>
<path d="M63.4540 135.0046 L62.4610 135.0046 "/>
<path d="M62.4610 135.0046 L61.9645 134.7563 "/>
<path d="M61.9645 134.7563 L61.7162 134.5081 "/>
<path d="M61.7162 134.5081 L61.4680 134.0116 "/>
<path d="M59.2337 138.2318 L59.2337 138.7283 "/>
<path d="M59.2337 138.7283 L59.4820 139.2248 "/>
<path d="M59.4820 139.2248 L59.7302 139.4731 "/>
<path d="M59.7302 139.4731 L60.2267 139.7213 "/>
<path d="M60.2267 139.7213 L61.2197 139.9696 "/>
<path d="M61.2197 139.9696 L62.4610 139.9696 "/>
<path d="M62.4610 139.9696 L63.4540 139.7213 "/>
<path d="M63.4540 139.7213 L63.9505 139.4731 "/>
<path d="M63.9505 139.4731 L64.1987 139.2248 "/>
<path d="M64.1987 139.2248 L64.4470 138.7283 "/>
<path d="M64.4470 138.7283 L64.4470 138.2318 "/>
<path d="M64.4470 138.2318 L64.1987 137.7353 "/>
<path d="M64.1987 137.7353 L63.9505 137.4871 "/>
<path d="M63.9505 137.4871 L63.4540 137.2388 "/>
<path d="M63.4540 137.2388 L62.4610 136.9906 "/>
<path d="M62.4610 136.9906 L61.2197 136.9906 "/>
<path d="M61.2197 136.9906 L60.2267 137.2388 "/>
<path d="M60.2267 137.2388 L59.7302 137.4871 "/>
<path d="M59.7302 137.4871 L59.4820 137.7353 "/>
<path d="M59.4820 137.7353 L59.2337 138.2318 "/>
<path d="M60.9715 142.2038 L66.1847 142.2038 "/>
<path d="M61.2197 142.2038 L60.9715 142.7003 "/>
<path d="M60.9715 142.7003 L60.9715 143.6933 "/>
<path d="M60.9715 143.6933 L61.2197 144.1898 "/>
<path d="M61.2197 144.1898 L61.4680 144.4381 "/>
<path d="M61.4680 144.4381 L61.9645 144.6863 "/>
<path d="M61.9645 144.6863 L63.4540 144.6863 "/>
<path d="M63.4540 144.6863 L63.9505 144.4381 "/>
<path d="M63.9505 144.4381 L64.1987 144.1898 "/>
<path d="M64.1987 144.1898 L64.4470 143.6933 "/>
<path d="M64.4470 143.6933 L64.4470 142.7003 "/>
<path d="M64.4470 142.7003 L64.1987 142.2038 "/>
<path d="M61.7162 148.6583 L61.7162 146.9206 "/>
<path d="M64.4470 146.9206 L59.2337 146.9206 "/>
<path d="M59.2337 146.9206 L59.2337 149.4031 "/>
</g><text x="132.6111" y="180.7938" transform="scale(-1 1) translate(-265.222253 0)" textLength="15.9501" font-size="6.9510" lengthAdjust="spacingAndGlyphs" text-anchor="middle" opacity="0.01" style="font-family:monospace">8n2</text>
<g class="stroked-text"><desc>8n2</desc>
<path d="M137.9485 177.5792 L138.4450 177.3310 "/>
<path d="M138.4450 177.3310 L138.6932 177.0827 "/>
<path d="M138.6932 177.0827 L138.9415 176.5862 "/>
<path d="M138.9415 176.5862 L138.9415 176.3380 "/>
<path d="M138.9415 176.3380 L138.6932 175.8415 "/>
<path d="M138.6932 175.8415 L138.4450 175.5932 "/>
<path d="M138.4450 175.5932 L137.9485 175.3450 "/>
<path d="M137.9485 175.3450 L136.9555 175.3450 "/>
<path d="M136.9555 175.3450 L136.4590 175.5932 "/>
<path d="M136.4590 175.5932 L136.2107 175.8415 "/>
<path d="M136.2107 175.8415 L135.9625 176.3380 "/>
<path d="M135.9625 176.3380 L135.9625 176.5862 "/>
<path d="M135.9625 176.5862 L136.2107 177.0827 "/>
<path d="M136.2107 177.0827 L136.4590 177.3310 "/>
<path d="M136.4590 177.3310 L136.9555 177.5792 "/>
<path d="M136.9555 177.5792 L137.9485 177.5792 "/>
<path d="M137.9485 177.5792 L138.4450 177.8275 "/>
<path d="M138.4450 177.8275 L138.6932 178.0757 "/>
<path d="M138.6932 178.0757 L138.9415 178.5722 "/>
<path d="M138.9415 178.5722 L138.9415 179.5652 "/>
<path d="M138.9415 179.5652 L138.6932 180.0617 "/>
<path d="M138.6932 180.0617 L138.4450 180.3100 "/>
<path d="M138.4450 180.3100 L137.9485 180.5582 "/>
<path d="M137.9485 180.5582 L136.9555 180.5582 "/>
<path d="M136.9555 180.5582 L136.4590 180.3100 "/>
<path d="M136.4590 180.3100 L136.2107 180.0617 "/>
<path d="M136.2107 180.0617 L135.9625 179.5652 "/>
<path d="M135.9625 179.5652 L135.9625 178.5722 "/>
<path d="M135.9625 178.5722 L136.2107 178.0757 "/>
<path d="M136.2107 178.0757 L136.4590 177.8275 "/>
<path d="M136.4590 177.8275 L136.9555 177.5792 "/>
<path d="M133.7282 177.0827 L133.7282 180.5582 "/>
<path d="M133.7282 177.5792 L133.4800 177.3310 "/>
<path d="M133.4800 177.3310 L132.9835 177.0827 "/>
<path d="M132.9835 177.0827 L132.2387 177.0827 "/>
<path d="M132.2387 177.0827 L131.7423 177.3310 "/>
<path d="M131.7423 177.3310 L131.4940 177.8275 "/>
<path d="M131.4940 177.8275 L131.4940 180.5582 "/>
<path d="M129.2597 175.8415 L129.0115 175.5932 "/>
<path d="M129.0115 175.5932 L128.5150 175.3450 "/>
<path d="M128.5150 175.3450 L127.2738 175.3450 "/>
<path d="M127.2738 175.3450 L126.7773 175.5932 "/>
<path d="M126.7773 175.5932 L126.5290 175.8415 "/>
<path d="M126.5290 175.8415 L126.2808 176.3380 "/>
<path d="M126.2808 176.3380 L126.2808 176.8345 "/>
<path d="M126.2808 176.8345 L126.5290 177.5792 "/>
<path d="M126.5290 177.5792 L129.5080 180.5582 "/>
<path d="M129.5080 180.5582 L126.2808 180.5582 "/>
</g><text x="100.1691" y="120.4974" transform="scale(-1 1) translate(-200.338186 0)" textLength="20.9151" font-size="6.9510" lengthAdjust="spacingAndGlyphs" text-anchor="middle" opacity="0.01" style="font-family:monospace">100n</text>
<g class="stroked-text"><desc>100n</desc>
<path d="M106.0030 120.2618 L108.9820 120.2618 "/>
<path d="M107.4925 120.2618 L107.4925 115.0486 "/>
<path d="M107.4925 115.0486 L107.9890 115.7933 "/>
<path d="M107.9890 115.7933 L108.4855 116.2898 "/>
<path d="M108.4855 116.2898 L108.9820 116.5381 "/>
<path d="M102.7757 115.0486 L102.2792 115.0486 "/>
<path d="M102.2792 115.0486 L101.7827 115.2968 "/>
<path d="M101.7827 115.2968 L101.5345 115.5451 "/>
<path d="M101.5345 115.5451 L101.2862 116.0416 "/>
<path d="M101.2862 116.0416 L101.0380 117.0346 "/>
<path d="M101.0380 117.0346 L101.0380 118.2758 "/>
<path d="M101.0380 118.2758 L101.2862 119.2688 "/>
<path d="M101.2862 119.2688 L101.5345 119.7653 "/>
<path d="M101.5345 119.7653 L101.7827 120.0136 "/>
<path d="M101.7827 120.0136 L102.2792 120.2618 "/>
<path d="M102.2792 120.2618 L102.7757 120.2618 "/>
<path d="M102.7757 120.2618 L103.2722 120.0136 "/>
<path d="M103.2722 120.0136 L103.5205 119.7653 "/>
<path d="M103.5205 119.7653 L103.7687 119.2688 "/>
<path d="M103.7687 119.2688 L104.0170 118.2758 "/>
<path d="M104.0170 118.2758 L104.0170 117.0346 "/>
<path d="M104.0170 117.0346 L103.7687 116.0416 "/>
<path d="M103.7687 116.0416 L103.5205 115.5451 "/>
<path d="M103.5205 115.5451 L103.2722 115.2968 "/>
<path d="M103.2722 115.2968 L102.7757 115.0486 "/>
<path d="M97.8107 115.0486 L97.3142 115.0486 "/>
<path d="M97.3142 115.0486 L96.8177 115.2968 "/>
<path d="M96.8177 115.2968 L96.5695 115.5451 "/>
<path d="M96.5695 115.5451 L96.3212 116.0416 "/>
<path d="M96.3212 116.0416 L96.0730 117.0346 "/>
<path d="M96.0730 117.0346 L96.0730 118.2758 "/>
<path d="M96.0730 118.2758 L96.3212 119.2688 "/>
<path d="M96.3212 119.2688 L96.5695 119.7653 "/>
<path d="M96.5695 119.7653 L96.8177 120.0136 "/>
<path d="M96.8177 120.0136 L97.3142 120.2618 "/>
<path d="M97.3142 120.2618 L97.8107 120.2618 "/>
<path d="M97.8107 120.2618 L98.3072 120.0136 "/>
<path d="M98.3072 120.0136 L98.5555 119.7653 "/>
<path d="M98.5555 119.7653 L98.8037 119.2688 "/>
<path d="M98.8037 119.2688 L99.0520 118.2758 "/>
<path d="M99.0520 118.2758 L99.0520 117.0346 "/>
<path d="M99.0520 117.0346 L98.8037 116.0416 "/>
<path d="M98.8037 116.0416 L98.5555 115.5451 "/>
<path d="M98.5555 115.5451 L98.3072 115.2968 "/>
<path d="M98.3072 115.2968 L97.8107 115.0486 "/>
<path d="M93.8387 116.7863 L93.8387 120.2618 "/>
<path d="M93.8387 117.2828 L93.5905 117.0346 "/>
<path d="M93.5905 117.0346 L93.0940 116.7863 "/>
<path d="M93.0940 116.7863 L92.3492 116.7863 "/>
<path d="M92.3492 116.7863 L91.8527 117.0346 "/>
<path d="M91.8527 117.0346 L91.6045 117.5311 "/>
<path d="M91.6045 117.5311 L91.6045 120.2618 "/>
</g><text x="118.0453" y="67.3327" transform="scale(-1 1) translate(-236.090631 0)" textLength="15.9501" font-size="6.9510" lengthAdjust="spacingAndGlyphs" text-anchor="middle" opacity="0.01" style="font-family:monospace">22u</text>
<g class="stroked-text"><desc>22u</desc>
<path d="M124.3757 62.3804 L124.1274 62.1321 "/>
<path d="M124.1274 62.1321 L123.6309 61.8839 "/>
<path d="M123.6309 61.8839 L122.3897 61.8839 "/>
<path d="M122.3897 61.8839 L121.8932 62.1321 "/>
<path d="M121.8932 62.1321 L121.6449 62.3804 "/>
<path d="M121.6449 62.3804 L121.3967 62.8769 "/>
<path d="M121.3967 62.8769 L121.3967 63.3734 "/>
<path d="M121.3967 63.3734 L121.6449 64.1181 "/>
<path d="M121.6449 64.1181 L124.6239 67.0971 "/>
<path d="M124.6239 67.0971 L121.3967 67.0971 "/>
<path d="M119.4107 62.3804 L119.1624 62.1321 "/>
<path d="M119.1624 62.1321 L118.6659 61.8839 "/>
<path d="M118.6659 61.8839 L117.4247 61.8839 "/>
<path d="M117.4247 61.8839 L116.9282 62.1321 "/>
<path d="M116.9282 62.1321 L116.6799 62.3804 "/>
<path d="M116.6799 62.3804 L116.4317 62.8769 "/>
<path d="M116.4317 62.8769 L116.4317 63.3734 "/>
<path d="M116.4317 63.3734 L116.6799 64.1181 "/>
<path d="M116.6799 64.1181 L119.6589 67.0971 "/>
<path d="M119.6589 67.0971 L116.4317 67.0971 "/>
<path d="M111.9632 63.6216 L111.9632 67.0971 "/>
<path d="M114.1974 63.6216 L114.1974 66.3524 "/>
<path d="M114.1974 66.3524 L113.9492 66.8489 "/>
<path d="M113.9492 66.8489 L113.4527 67.0971 "/>
<path d="M113.4527 67.0971 L112.7079 67.0971 "/>
<path d="M112.7079 67.0971 L112.2114 66.8489 "/>
<path d="M112.2114 66.8489 L111.9632 66.6006 "/>
</g><text x="75.6720" y="102.3866" transform="scale(-1 1) translate(-151.344094 0)" textLength="15.9501" font-size="6.9510" lengthAdjust="spacingAndGlyphs" text-anchor="middle" opacity="0.01" style="font-family:monospace">1u5</text>
<g class="stroked-text"><desc>1u5</desc>
<path d="M79.0234 102.1510 L82.0024 102.1510 "/>
<path d="M80.5129 102.1510 L80.5129 96.9378 "/>
<path d="M80.5129 96.9378 L81.0094 97.6825 "/>
<path d="M81.0094 97.6825 L81.5059 98.1790 "/>
<path d="M81.5059 98.1790 L82.0024 98.4273 "/>
<path d="M74.5549 98.6755 L74.5549 102.1510 "/>
<path d="M76.7892 98.6755 L76.7892 101.4063 "/>
<path d="M76.7892 101.4063 L76.5409 101.9028 "/>
<path d="M76.5409 101.9028 L76.0444 102.1510 "/>
<path d="M76.0444 102.1510 L75.2997 102.1510 "/>
<path d="M75.2997 102.1510 L74.8032 101.9028 "/>
<path d="M74.8032 101.9028 L74.5549 101.6545 "/>
<path d="M69.5899 96.9378 L72.0724 96.9378 "/>
<path d="M72.0724 96.9378 L72.3207 99.4203 "/>
<path d="M72.3207 99.4203 L72.0724 99.1720 "/>
<path d="M72.0724 99.1720 L71.5759 98.9238 "/>
<path d="M71.5759 98.9238 L70.3347 98.9238 "/>
<path d="M70.3347 98.9238 L69.8382 99.1720 "/>
<path d="M69.8382 99.1720 L69.5899 99.4203 "/>
<path d="M69.5899 99.4203 L69.3417 99.9168 "/>
<path d="M69.3417 99.9168 L69.3417 101.1580 "/>
<path d="M69.3417 101.1580 L69.5899 101.6545 "/>
<path d="M69.5899 101.6545 L69.8382 101.9028 "/>
<path d="M69.8382 101.9028 L70.3347 102.1510 "/>
<path d="M70.3347 102.1510 L71.5759 102.1510 "/>
<path d="M71.5759 102.1510 L72.0724 101.9028 "/>
<path d="M72.0724 101.9028 L72.3207 101.6545 "/>
</g><g transform="rotate(-90.000000 169.1977 74.5478)">
<text x="169.1977" y="77.1544" transform="scale(-1 1) translate(-338.395383 0)" textLength="15.9501" font-size="6.9510" lengthAdjust="spacingAndGlyphs" text-anchor="middle" opacity="0.01" style="font-family:monospace">22u</text>
</g>
<g class="stroked-text"><desc>22u</desc>
<path d="M166.8520 68.2174 L166.6038 68.4657 "/>
<path d="M166.6038 68.4657 L166.3555 68.9622 "/>
<path d="M166.3555 68.9622 L166.3555 70.2034 "/>
<path d="M166.3555 70.2034 L166.6038 70.6999 "/>
<path d="M166.6038 70.6999 L166.8520 70.9482 "/>
<path d="M166.8520 70.9482 L167.3485 71.1964 "/>
<path d="M167.3485 71.1964 L167.8450 71.1964 "/>
<path d="M167.8450 71.1964 L168.5898 70.9482 "/>
<path d="M168.5898 70.9482 L171.5688 67.9692 "/>
<path d="M171.5688 67.9692 L171.5688 71.1964 "/>
<path d="M166.8520 73.1824 L166.6038 73.4307 "/>
<path d="M166.6038 73.4307 L166.3555 73.9272 "/>
<path d="M166.3555 73.9272 L166.3555 75.1684 "/>
<path d="M166.3555 75.1684 L166.6038 75.6649 "/>
<path d="M166.6038 75.6649 L166.8520 75.9132 "/>
<path d="M166.8520 75.9132 L167.3485 76.1614 "/>
<path d="M167.3485 76.1614 L167.8450 76.1614 "/>
<path d="M167.8450 76.1614 L168.5898 75.9132 "/>
<path d="M168.5898 75.9132 L171.5688 72.9342 "/>
<path d="M171.5688 72.9342 L171.5688 76.1614 "/>
<path d="M168.0933 80.6299 L171.5688 80.6299 "/>
<path d="M168.0933 78.3957 L170.8240 78.3957 "/>
<path d="M170.8240 78.3957 L171.3205 78.6439 "/>
<path d="M171.3205 78.6439 L171.5688 79.1404 "/>
<path d="M171.5688 79.1404 L171.5688 79.8852 "/>
<path d="M171.5688 79.8852 L171.3205 80.3817 "/>
<path d="M171.3205 80.3817 L171.0723 80.6299 "/>
</g><g transform="rotate(-90.000000 185.6507 76.5341)">
<text x="185.6507" y="79.1407" transform="scale(-1 1) translate(-371.301395 0)" textLength="15.9501" font-size="6.9510" lengthAdjust="spacingAndGlyphs" text-anchor="middle" opacity="0.01" style="font-family:monospace">1u5</text>
</g>
<g class="stroked-text"><desc>1u5</desc>
<path d="M188.0218 73.1827 L188.0218 70.2037 "/>
<path d="M188.0218 71.6932 L182.8085 71.6932 "/>
<path d="M182.8085 71.6932 L183.5533 71.1967 "/>
<path d="M183.5533 71.1967 L184.0498 70.7002 "/>
<path d="M184.0498 70.7002 L184.2980 70.2037 "/>
<path d="M184.5463 77.6512 L188.0218 77.6512 "/>
<path d="M184.5463 75.4169 L187.2770 75.4169 "/>
<path d="M187.2770 75.4169 L187.7735 75.6652 "/>
<path d="M187.7735 75.6652 L188.0218 76.1617 "/>
<path d="M188.0218 76.1617 L188.0218 76.9064 "/>
<path d="M188.0218 76.9064 L187.7735 77.4029 "/>
<path d="M187.7735 77.4029 L187.5253 77.6512 "/>
<path d="M182.8085 82.6162 L182.8085 80.1337 "/>
<path d="M182.8085 80.1337 L185.2910 79.8854 "/>
<path d="M185.2910 79.8854 L185.0428 80.1337 "/>
<path d="M185.0428 80.1337 L184.7945 80.6302 "/>
<path d="M184.7945 80.6302 L184.7945 81.8714 "/>
<path d="M184.7945 81.8714 L185.0428 82.3679 "/>
<path d="M185.0428 82.3679 L185.2910 82.6162 "/>
<path d="M185.2910 82.6162 L185.7875 82.8644 "/>
<path d="M185.7875 82.8644 L187.0288 82.8644 "/>
<path d="M187.0288 82.8644 L187.5253 82.6162 "/>
<path d="M187.5253 82.6162 L187.7735 82.3679 "/>
<path d="M187.7735 82.3679 L188.0218 81.8714 "/>
<path d="M188.0218 81.8714 L188.0218 80.6302 "/>
<path d="M188.0218 80.6302 L187.7735 80.1337 "/>
<path d="M187.7735 80.1337 L187.5253 79.8854 "/>
</g><text x="120.0316" y="85.6155" transform="scale(-1 1) translate(-240.063125 0)" textLength="43.5058" font-size="6.9510" lengthAdjust="spacingAndGlyphs" text-anchor="middle" opacity="0.01" style="font-family:monospace">D_Schottky</text>
<g class="stroked-text"><desc>D_Schottky</desc>
<path d="M139.8916 85.3800 L139.8916 80.1668 "/>
<path d="M139.8916 80.1668 L138.6503 80.1668 "/>
<path d="M138.6503 80.1668 L137.9056 80.4150 "/>
<path d="M137.9056 80.4150 L137.4091 80.9115 "/>
<path d="M137.4091 80.9115 L137.1608 81.4080 "/>
<path d="M137.1608 81.4080 L136.9126 82.4010 "/>
<path d="M136.9126 82.4010 L136.9126 83.1457 "/>
<path d="M136.9126 83.1457 L137.1608 84.1387 "/>
<path d="M137.1608 84.1387 L137.4091 84.6352 "/>
<path d="M137.4091 84.6352 L137.9056 85.1317 "/>
<path d="M137.9056 85.1317 L138.6503 85.3800 "/>
<path d="M138.6503 85.3800 L139.8916 85.3800 "/>
<path d="M135.9196 85.8765 L131.9476 85.8765 "/>
<path d="M130.9546 85.1317 L130.2098 85.3800 "/>
<path d="M130.2098 85.3800 L128.9686 85.3800 "/>
<path d="M128.9686 85.3800 L128.4721 85.1317 "/>
<path d="M128.4721 85.1317 L128.2238 84.8835 "/>
<path d="M128.2238 84.8835 L127.9756 84.3870 "/>
<path d="M127.9756 84.3870 L127.9756 83.8905 "/>
<path d="M127.9756 83.8905 L128.2238 83.3940 "/>
<path d="M128.2238 83.3940 L128.4721 83.1457 "/>
<path d="M128.4721 83.1457 L128.9686 82.8975 "/>
<path d="M128.9686 82.8975 L129.9616 82.6492 "/>
<path d="M129.9616 82.6492 L130.4581 82.4010 "/>
<path d="M130.4581 82.4010 L130.7063 82.1527 "/>
<path d="M130.7063 82.1527 L130.9546 81.6562 "/>
<path d="M130.9546 81.6562 L130.9546 81.1598 "/>
<path d="M130.9546 81.1598 L130.7063 80.6633 "/>
<path d="M130.7063 80.6633 L130.4581 80.4150 "/>
<path d="M130.4581 80.4150 L129.9616 80.1668 "/>
<path d="M129.9616 80.1668 L128.7203 80.1668 "/>
<path d="M128.7203 80.1668 L127.9756 80.4150 "/>
<path d="M123.5071 85.1317 L124.0036 85.3800 "/>
<path d="M124.0036 85.3800 L124.9966 85.3800 "/>
<path d="M124.9966 85.3800 L125.4931 85.1317 "/>
<path d="M125.4931 85.1317 L125.7413 84.8835 "/>
<path d="M125.7413 84.8835 L125.9896 84.3870 "/>
<path d="M125.9896 84.3870 L125.9896 82.8975 "/>
<path d="M125.9896 82.8975 L125.7413 82.4010 "/>
<path d="M125.7413 82.4010 L125.4931 82.1527 "/>
<path d="M125.4931 82.1527 L124.9966 81.9045 "/>
<path d="M124.9966 81.9045 L124.0036 81.9045 "/>
<path d="M124.0036 81.9045 L123.5071 82.1527 "/>
<path d="M121.2728 85.3800 L121.2728 80.1668 "/>
<path d="M119.0386 85.3800 L119.0386 82.6492 "/>
<path d="M119.0386 82.6492 L119.2868 82.1527 "/>
<path d="M119.2868 82.1527 L119.7833 81.9045 "/>
<path d="M119.7833 81.9045 L120.5281 81.9045 "/>
<path d="M120.5281 81.9045 L121.0246 82.1527 "/>
<path d="M121.0246 82.1527 L121.2728 82.4010 "/>
<path d="M115.8113 85.3800 L116.3078 85.1317 "/>
<path d="M116.3078 85.1317 L116.5561 84.8835 "/>
<path d="M116.5561 84.8835 L116.8043 84.3870 "/>
<path d="M116.8043 84.3870 L116.8043 82.8975 "/>
<path d="M116.8043 82.8975 L116.5561 82.4010 "/>
<path d="M116.5561 82.4010 L116.3078 82.1527 "/>
<path d="M116.3078 82.1527 L115.8113 81.9045 "/>
<path d="M115.8113 81.9045 L115.0666 81.9045 "/>
<path d="M115.0666 81.9045 L114.5701 82.1527 "/>
<path d="M114.5701 82.1527 L114.3218 82.4010 "/>
<path d="M114.3218 82.4010 L114.0736 82.8975 "/>
<path d="M114.0736 82.8975 L114.0736 84.3870 "/>
<path d="M114.0736 84.3870 L114.3218 84.8835 "/>
<path d="M114.3218 84.8835 L114.5701 85.1317 "/>
<path d="M114.5701 85.1317 L115.0666 85.3800 "/>
<path d="M115.0666 85.3800 L115.8113 85.3800 "/>
<path d="M112.5841 81.9045 L110.5981 81.9045 "/>
<path d="M111.8393 80.1668 L111.8393 84.6352 "/>
<path d="M111.8393 84.6352 L111.5911 85.1317 "/>
<path d="M111.5911 85.1317 L111.0946 85.3800 "/>
<path d="M111.0946 85.3800 L110.5981 85.3800 "/>
<path d="M109.6051 81.9045 L107.6191 81.9045 "/>
<path d="M108.8603 80.1668 L108.8603 84.6352 "/>
<path d="M108.8603 84.6352 L108.6121 85.1317 "/>
<path d="M108.6121 85.1317 L108.1156 85.3800 "/>
<path d="M108.1156 85.3800 L107.6191 85.3800 "/>
<path d="M105.8813 85.3800 L105.8813 80.1668 "/>
<path d="M105.3848 83.3940 L103.8953 85.3800 "/>
<path d="M103.8953 81.9045 L105.8813 83.8905 "/>
<path d="M102.1576 81.9045 L100.9163 85.3800 "/>
<path d="M99.6751 81.9045 L100.9163 85.3800 "/>
<path d="M100.9163 85.3800 L101.4128 86.6212 "/>
<path d="M101.4128 86.6212 L101.6611 86.8695 "/>
<path d="M101.6611 86.8695 L102.1576 87.1177 "/>
</g><g transform="rotate(-90.000000 56.6438 114.7759)">
<text x="56.6438" y="117.3826" transform="scale(-1 1) translate(-113.287602 0)" textLength="23.8940" font-size="6.9510" lengthAdjust="spacingAndGlyphs" text-anchor="middle" opacity="0.01" style="font-family:monospace">4.7uH</text>
</g>
<g class="stroked-text"><desc>4.7uH</desc>
<path d="M55.5394 106.9561 L59.0149 106.9561 "/>
<path d="M53.5534 105.7148 L57.2771 104.4736 "/>
<path d="M57.2771 104.4736 L57.2771 107.7008 "/>
<path d="M58.5184 109.6868 L58.7666 109.9351 "/>
<path d="M58.7666 109.9351 L59.0149 109.6868 "/>
<path d="M59.0149 109.6868 L58.7666 109.4386 "/>
<path d="M58.7666 109.4386 L58.5184 109.6868 "/>
<path d="M58.5184 109.6868 L59.0149 109.6868 "/>
<path d="M53.8016 111.6728 L53.8016 115.1483 "/>
<path d="M53.8016 115.1483 L59.0149 112.9141 "/>
<path d="M55.5394 119.3686 L59.0149 119.3686 "/>
<path d="M55.5394 117.1343 L58.2701 117.1343 "/>
<path d="M58.2701 117.1343 L58.7666 117.3826 "/>
<path d="M58.7666 117.3826 L59.0149 117.8791 "/>
<path d="M59.0149 117.8791 L59.0149 118.6238 "/>
<path d="M59.0149 118.6238 L58.7666 119.1203 "/>
<path d="M58.7666 119.1203 L58.5184 119.3686 "/>
<path d="M59.0149 121.8511 L53.8016 121.8511 "/>
<path d="M56.2841 121.8511 L56.2841 124.8301 "/>
<path d="M59.0149 124.8301 L53.8016 124.8301 "/>
</g><text x="132.6111" y="54.2891" transform="scale(-1 1) translate(-265.222253 0)" textLength="26.3765" font-size="6.9510" lengthAdjust="spacingAndGlyphs" text-anchor="middle" opacity="0.01" style="font-family:monospace">240nH</text>
<g class="stroked-text"><desc>240nH</desc>
<path d="M144.1547 49.3369 L143.9065 49.0886 "/>
<path d="M143.9065 49.0886 L143.4100 48.8404 "/>
<path d="M143.4100 48.8404 L142.1687 48.8404 "/>
<path d="M142.1687 48.8404 L141.6722 49.0886 "/>
<path d="M141.6722 49.0886 L141.4240 49.3369 "/>
<path d="M141.4240 49.3369 L141.1757 49.8334 "/>
<path d="M141.1757 49.8334 L141.1757 50.3299 "/>
<path d="M141.1757 50.3299 L141.4240 51.0746 "/>
<path d="M141.4240 51.0746 L144.4030 54.0536 "/>
<path d="M144.4030 54.0536 L141.1757 54.0536 "/>
<path d="M136.7072 50.5781 L136.7072 54.0536 "/>
<path d="M137.9485 48.5921 L139.1897 52.3158 "/>
<path d="M139.1897 52.3158 L135.9625 52.3158 "/>
<path d="M132.9835 48.8404 L132.4870 48.8404 "/>
<path d="M132.4870 48.8404 L131.9905 49.0886 "/>
<path d="M131.9905 49.0886 L131.7423 49.3369 "/>
<path d="M131.7423 49.3369 L131.4940 49.8334 "/>
<path d="M131.4940 49.8334 L131.2458 50.8263 "/>
<path d="M131.2458 50.8263 L131.2458 52.0676 "/>
<path d="M131.2458 52.0676 L131.4940 53.0606 "/>
<path d="M131.4940 53.0606 L131.7423 53.5571 "/>
<path d="M131.7423 53.5571 L131.9905 53.8054 "/>
<path d="M131.9905 53.8054 L132.4870 54.0536 "/>
<path d="M132.4870 54.0536 L132.9835 54.0536 "/>
<path d="M132.9835 54.0536 L133.4800 53.8054 "/>
<path d="M133.4800 53.8054 L133.7282 53.5571 "/>
<path d="M133.7282 53.5571 L133.9765 53.0606 "/>
<path d="M133.9765 53.0606 L134.2247 52.0676 "/>
<path d="M134.2247 52.0676 L134.2247 50.8263 "/>
<path d="M134.2247 50.8263 L133.9765 49.8334 "/>
<path d="M133.9765 49.8334 L133.7282 49.3369 "/>
<path d="M133.7282 49.3369 L133.4800 49.0886 "/>
<path d="M133.4800 49.0886 L132.9835 48.8404 "/>
<path d="M129.0115 50.5781 L129.0115 54.0536 "/>
<path d="M129.0115 51.0746 L128.7633 50.8263 "/>
<path d="M128.7633 50.8263 L128.2668 50.5781 "/>
<path d="M128.2668 50.5781 L127.5220 50.5781 "/>
<path d="M127.5220 50.5781 L127.0255 50.8263 "/>
<path d="M127.0255 50.8263 L126.7773 51.3228 "/>
<path d="M126.7773 51.3228 L126.7773 54.0536 "/>
<path d="M124.2948 54.0536 L124.2948 48.8404 "/>
<path d="M124.2948 51.3228 L121.3158 51.3228 "/>
<path d="M121.3158 54.0536 L121.3158 48.8404 "/>
</g><text x="78.3204" y="166.2280" transform="scale(-1 1) translate(-156.640753 0)" textLength="20.4186" font-size="6.9510" lengthAdjust="spacingAndGlyphs" text-anchor="middle" opacity="0.01" style="font-family:monospace">35k7</text>
<g class="stroked-text"><desc>35k7</desc>
<path d="M87.1332 160.7792 L83.9060 160.7792 "/>
<path d="M83.9060 160.7792 L85.6437 162.7652 "/>
<path d="M85.6437 162.7652 L84.8990 162.7652 "/>
<path d="M84.8990 162.7652 L84.4025 163.0134 "/>
<path d="M84.4025 163.0134 L84.1542 163.2617 "/>
<path d="M84.1542 163.2617 L83.9060 163.7582 "/>
<path d="M83.9060 163.7582 L83.9060 164.9994 "/>
<path d="M83.9060 164.9994 L84.1542 165.4959 "/>
<path d="M84.1542 165.4959 L84.4025 165.7442 "/>
<path d="M84.4025 165.7442 L84.8990 165.9924 "/>
<path d="M84.8990 165.9924 L86.3885 165.9924 "/>
<path d="M86.3885 165.9924 L86.8850 165.7442 "/>
<path d="M86.8850 165.7442 L87.1332 165.4959 "/>
<path d="M79.1892 160.7792 L81.6717 160.7792 "/>
<path d="M81.6717 160.7792 L81.9200 163.2617 "/>
<path d="M81.9200 163.2617 L81.6717 163.0134 "/>
<path d="M81.6717 163.0134 L81.1752 162.7652 "/>
<path d="M81.1752 162.7652 L79.9340 162.7652 "/>
<path d="M79.9340 162.7652 L79.4375 163.0134 "/>
<path d="M79.4375 163.0134 L79.1892 163.2617 "/>
<path d="M79.1892 163.2617 L78.9410 163.7582 "/>
<path d="M78.9410 163.7582 L78.9410 164.9994 "/>
<path d="M78.9410 164.9994 L79.1892 165.4959 "/>
<path d="M79.1892 165.4959 L79.4375 165.7442 "/>
<path d="M79.4375 165.7442 L79.9340 165.9924 "/>
<path d="M79.9340 165.9924 L81.1752 165.9924 "/>
<path d="M81.1752 165.9924 L81.6717 165.7442 "/>
<path d="M81.6717 165.7442 L81.9200 165.4959 "/>
<path d="M76.7067 165.9924 L76.7067 160.7792 "/>
<path d="M76.2102 164.0064 L74.7207 165.9924 "/>
<path d="M74.7207 162.5169 L76.7067 164.5029 "/>
<path d="M72.9830 160.7792 L69.5075 160.7792 "/>
<path d="M69.5075 160.7792 L71.7417 165.9924 "/>
</g><text x="59.7821" y="130.4286" transform="scale(-1 1) translate(-119.564143 0)" textLength="20.4186" font-size="6.9510" lengthAdjust="spacingAndGlyphs" text-anchor="middle" opacity="0.01" style="font-family:monospace">10k2</text>
<g class="stroked-text"><desc>10k2</desc>
<path d="M65.3677 130.1931 L68.3467 130.1931 "/>
<path d="M66.8572 130.1931 L66.8572 124.9798 "/>
<path d="M66.8572 124.9798 L67.3537 125.7246 "/>
<path d="M67.3537 125.7246 L67.8502 126.2211 "/>
<path d="M67.8502 126.2211 L68.3467 126.4693 "/>
<path d="M62.1404 124.9798 L61.6439 124.9798 "/>
<path d="M61.6439 124.9798 L61.1474 125.2281 "/>
<path d="M61.1474 125.2281 L60.8992 125.4763 "/>
<path d="M60.8992 125.4763 L60.6509 125.9728 "/>
<path d="M60.6509 125.9728 L60.4027 126.9658 "/>
<path d="M60.4027 126.9658 L60.4027 128.2071 "/>
<path d="M60.4027 128.2071 L60.6509 129.2001 "/>
<path d="M60.6509 129.2001 L60.8992 129.6966 "/>
<path d="M60.8992 129.6966 L61.1474 129.9448 "/>
<path d="M61.1474 129.9448 L61.6439 130.1931 "/>
<path d="M61.6439 130.1931 L62.1404 130.1931 "/>
<path d="M62.1404 130.1931 L62.6369 129.9448 "/>
<path d="M62.6369 129.9448 L62.8852 129.6966 "/>
<path d="M62.8852 129.6966 L63.1334 129.2001 "/>
<path d="M63.1334 129.2001 L63.3817 128.2071 "/>
<path d="M63.3817 128.2071 L63.3817 126.9658 "/>
<path d="M63.3817 126.9658 L63.1334 125.9728 "/>
<path d="M63.1334 125.9728 L62.8852 125.4763 "/>
<path d="M62.8852 125.4763 L62.6369 125.2281 "/>
<path d="M62.6369 125.2281 L62.1404 124.9798 "/>
<path d="M58.1684 130.1931 L58.1684 124.9798 "/>
<path d="M57.6719 128.2071 L56.1824 130.1931 "/>
<path d="M56.1824 126.7176 L58.1684 128.7036 "/>
<path d="M54.1964 125.4763 L53.9482 125.2281 "/>
<path d="M53.9482 125.2281 L53.4517 124.9798 "/>
<path d="M53.4517 124.9798 L52.2104 124.9798 "/>
<path d="M52.2104 124.9798 L51.7139 125.2281 "/>
<path d="M51.7139 125.2281 L51.4657 125.4763 "/>
<path d="M51.4657 125.4763 L51.2174 125.9728 "/>
<path d="M51.2174 125.9728 L51.2174 126.4693 "/>
<path d="M51.2174 126.4693 L51.4657 127.2141 "/>
<path d="M51.4657 127.2141 L54.4447 130.1931 "/>
<path d="M54.4447 130.1931 L51.2174 130.1931 "/>
</g><text x="59.7821" y="165.5659" transform="scale(-1 1) translate(-119.564143 0)" textLength="20.4186" font-size="6.9510" lengthAdjust="spacingAndGlyphs" text-anchor="middle" opacity="0.01" style="font-family:monospace">1k93</text>
<g class="stroked-text"><desc>1k93</desc>
<path d="M65.3677 165.3303 L68.3467 165.3303 "/>
<path d="M66.8572 165.3303 L66.8572 160.1171 "/>
<path d="M66.8572 160.1171 L67.3537 160.8619 "/>
<path d="M67.3537 160.8619 L67.8502 161.3583 "/>
<path d="M67.8502 161.3583 L68.3467 161.6066 "/>
<path d="M63.1334 165.3303 L63.1334 160.1171 "/>
<path d="M62.6369 163.3443 L61.1474 165.3303 "/>
<path d="M61.1474 161.8548 L63.1334 163.8408 "/>
<path d="M58.6649 165.3303 L57.6719 165.3303 "/>
<path d="M57.6719 165.3303 L57.1754 165.0821 "/>
<path d="M57.1754 165.0821 L56.9272 164.8338 "/>
<path d="M56.9272 164.8338 L56.4307 164.0891 "/>
<path d="M56.4307 164.0891 L56.1824 163.0961 "/>
<path d="M56.1824 163.0961 L56.1824 161.1101 "/>
<path d="M56.1824 161.1101 L56.4307 160.6136 "/>
<path d="M56.4307 160.6136 L56.6789 160.3654 "/>
<path d="M56.6789 160.3654 L57.1754 160.1171 "/>
<path d="M57.1754 160.1171 L58.1684 160.1171 "/>
<path d="M58.1684 160.1171 L58.6649 160.3654 "/>
<path d="M58.6649 160.3654 L58.9132 160.6136 "/>
<path d="M58.9132 160.6136 L59.1614 161.1101 "/>
<path d="M59.1614 161.1101 L59.1614 162.3513 "/>
<path d="M59.1614 162.3513 L58.9132 162.8478 "/>
<path d="M58.9132 162.8478 L58.6649 163.0961 "/>
<path d="M58.6649 163.0961 L58.1684 163.3443 "/>
<path d="M58.1684 163.3443 L57.1754 163.3443 "/>
<path d="M57.1754 163.3443 L56.6789 163.0961 "/>
<path d="M56.6789 163.0961 L56.4307 162.8478 "/>
<path d="M56.4307 162.8478 L56.1824 162.3513 "/>
<path d="M54.4447 160.1171 L51.2174 160.1171 "/>
<path d="M51.2174 160.1171 L52.9552 162.1031 "/>
<path d="M52.9552 162.1031 L52.2104 162.1031 "/>
<path d="M52.2104 162.1031 L51.7139 162.3513 "/>
<path d="M51.7139 162.3513 L51.4657 162.5996 "/>
<path d="M51.4657 162.5996 L51.2174 163.0961 "/>
<path d="M51.2174 163.0961 L51.2174 164.3373 "/>
<path d="M51.2174 164.3373 L51.4657 164.8338 "/>
<path d="M51.4657 164.8338 L51.7139 165.0821 "/>
<path d="M51.7139 165.0821 L52.2104 165.3303 "/>
<path d="M52.2104 165.3303 L53.6999 165.3303 "/>
<path d="M53.6999 165.3303 L54.1964 165.0821 "/>
<path d="M54.1964 165.0821 L54.4447 164.8338 "/>
</g><g transform="rotate(-90.000000 148.8087 44.7541)">
<text x="148.8087" y="47.3607" transform="scale(-1 1) translate(-297.617368 0)" textLength="15.4536" font-size="6.9510" lengthAdjust="spacingAndGlyphs" text-anchor="middle" opacity="0.01" style="font-family:monospace">1k2</text>
</g>
<g class="stroked-text"><desc>1k2</desc>
<path d="M151.1798 41.6510 L151.1798 38.6720 "/>
<path d="M151.1798 40.1615 L145.9665 40.1615 "/>
<path d="M145.9665 40.1615 L146.7113 39.6650 "/>
<path d="M146.7113 39.6650 L147.2078 39.1685 "/>
<path d="M147.2078 39.1685 L147.4560 38.6720 "/>
<path d="M151.1798 43.8852 L145.9665 43.8852 "/>
<path d="M149.1938 44.3817 L151.1798 45.8712 "/>
<path d="M147.7043 45.8712 L149.6903 43.8852 "/>
<path d="M146.4630 47.8572 L146.2148 48.1055 "/>
<path d="M146.2148 48.1055 L145.9665 48.6020 "/>
<path d="M145.9665 48.6020 L145.9665 49.8432 "/>
<path d="M145.9665 49.8432 L146.2148 50.3397 "/>
<path d="M146.2148 50.3397 L146.4630 50.5880 "/>
<path d="M146.4630 50.5880 L146.9595 50.8362 "/>
<path d="M146.9595 50.8362 L147.4560 50.8362 "/>
<path d="M147.4560 50.8362 L148.2008 50.5880 "/>
<path d="M148.2008 50.5880 L151.1798 47.6090 "/>
<path d="M151.1798 47.6090 L151.1798 50.8362 "/>
</g><text x="123.3420" y="166.9057" transform="scale(-1 1) translate(-246.683948 0)" textLength="40.2785" font-size="6.9510" lengthAdjust="spacingAndGlyphs" text-anchor="middle" opacity="0.01" style="font-family:monospace">TPS54332</text>
<g class="stroked-text"><desc>TPS54332</desc>
<path d="M142.3331 161.4569 L139.3541 161.4569 "/>
<path d="M140.8436 166.6702 L140.8436 161.4569 "/>
<path d="M137.6163 166.6702 L137.6163 161.4569 "/>
<path d="M137.6163 161.4569 L135.6303 161.4569 "/>
<path d="M135.6303 161.4569 L135.1338 161.7052 "/>
<path d="M135.1338 161.7052 L134.8856 161.9534 "/>
<path d="M134.8856 161.9534 L134.6373 162.4499 "/>
<path d="M134.6373 162.4499 L134.6373 163.1947 "/>
<path d="M134.6373 163.1947 L134.8856 163.6912 "/>
<path d="M134.8856 163.6912 L135.1338 163.9394 "/>
<path d="M135.1338 163.9394 L135.6303 164.1877 "/>
<path d="M135.6303 164.1877 L137.6163 164.1877 "/>
<path d="M132.6513 166.4219 L131.9066 166.6702 "/>
<path d="M131.9066 166.6702 L130.6653 166.6702 "/>
<path d="M130.6653 166.6702 L130.1688 166.4219 "/>
<path d="M130.1688 166.4219 L129.9206 166.1736 "/>
<path d="M129.9206 166.1736 L129.6723 165.6771 "/>
<path d="M129.6723 165.6771 L129.6723 165.1807 "/>
<path d="M129.6723 165.1807 L129.9206 164.6842 "/>
<path d="M129.9206 164.6842 L130.1688 164.4359 "/>
<path d="M130.1688 164.4359 L130.6653 164.1877 "/>
<path d="M130.6653 164.1877 L131.6583 163.9394 "/>
<path d="M131.6583 163.9394 L132.1548 163.6912 "/>
<path d="M132.1548 163.6912 L132.4031 163.4429 "/>
<path d="M132.4031 163.4429 L132.6513 162.9464 "/>
<path d="M132.6513 162.9464 L132.6513 162.4499 "/>
<path d="M132.6513 162.4499 L132.4031 161.9534 "/>
<path d="M132.4031 161.9534 L132.1548 161.7052 "/>
<path d="M132.1548 161.7052 L131.6583 161.4569 "/>
<path d="M131.6583 161.4569 L130.4171 161.4569 "/>
<path d="M130.4171 161.4569 L129.6723 161.7052 "/>
<path d="M124.9556 161.4569 L127.4381 161.4569 "/>
<path d="M127.4381 161.4569 L127.6863 163.9394 "/>
<path d="M127.6863 163.9394 L127.4381 163.6912 "/>
<path d="M127.4381 163.6912 L126.9416 163.4429 "/>
<path d="M126.9416 163.4429 L125.7003 163.4429 "/>
<path d="M125.7003 163.4429 L125.2038 163.6912 "/>
<path d="M125.2038 163.6912 L124.9556 163.9394 "/>
<path d="M124.9556 163.9394 L124.7073 164.4359 "/>
<path d="M124.7073 164.4359 L124.7073 165.6771 "/>
<path d="M124.7073 165.6771 L124.9556 166.1736 "/>
<path d="M124.9556 166.1736 L125.2038 166.4219 "/>
<path d="M125.2038 166.4219 L125.7003 166.6702 "/>
<path d="M125.7003 166.6702 L126.9416 166.6702 "/>
<path d="M126.9416 166.6702 L127.4381 166.4219 "/>
<path d="M127.4381 166.4219 L127.6863 166.1736 "/>
<path d="M120.2388 163.1947 L120.2388 166.6702 "/>
<path d="M121.4801 161.2087 L122.7213 164.9324 "/>
<path d="M122.7213 164.9324 L119.4941 164.9324 "/>
<path d="M118.0046 161.4569 L114.7774 161.4569 "/>
<path d="M114.7774 161.4569 L116.5151 163.4429 "/>
<path d="M116.5151 163.4429 L115.7703 163.4429 "/>
<path d="M115.7703 163.4429 L115.2738 163.6912 "/>
<path d="M115.2738 163.6912 L115.0256 163.9394 "/>
<path d="M115.0256 163.9394 L114.7774 164.4359 "/>
<path d="M114.7774 164.4359 L114.7774 165.6771 "/>
<path d="M114.7774 165.6771 L115.0256 166.1736 "/>
<path d="M115.0256 166.1736 L115.2738 166.4219 "/>
<path d="M115.2738 166.4219 L115.7703 166.6702 "/>
<path d="M115.7703 166.6702 L117.2598 166.6702 "/>
<path d="M117.2598 166.6702 L117.7563 166.4219 "/>
<path d="M117.7563 166.4219 L118.0046 166.1736 "/>
<path d="M113.0396 161.4569 L109.8124 161.4569 "/>
<path d="M109.8124 161.4569 L111.5501 163.4429 "/>
<path d="M111.5501 163.4429 L110.8054 163.4429 "/>
<path d="M110.8054 163.4429 L110.3089 163.6912 "/>
<path d="M110.3089 163.6912 L110.0606 163.9394 "/>
<path d="M110.0606 163.9394 L109.8124 164.4359 "/>
<path d="M109.8124 164.4359 L109.8124 165.6771 "/>
<path d="M109.8124 165.6771 L110.0606 166.1736 "/>
<path d="M110.0606 166.1736 L110.3089 166.4219 "/>
<path d="M110.3089 166.4219 L110.8054 166.6702 "/>
<path d="M110.8054 166.6702 L112.2948 166.6702 "/>
<path d="M112.2948 166.6702 L112.7913 166.4219 "/>
<path d="M112.7913 166.4219 L113.0396 166.1736 "/>
<path d="M107.8264 161.9534 L107.5781 161.7052 "/>
<path d="M107.5781 161.7052 L107.0816 161.4569 "/>
<path d="M107.0816 161.4569 L105.8404 161.4569 "/>
<path d="M105.8404 161.4569 L105.3439 161.7052 "/>
<path d="M105.3439 161.7052 L105.0956 161.9534 "/>
<path d="M105.0956 161.9534 L104.8474 162.4499 "/>
<path d="M104.8474 162.4499 L104.8474 162.9464 "/>
<path d="M104.8474 162.9464 L105.0956 163.6912 "/>
<path d="M105.0956 163.6912 L108.0746 166.6702 "/>
<path d="M108.0746 166.6702 L104.8474 166.6702 "/>
</g><g>
</g>
<g>
</g>
<g>
</g>
<g>
</g>
<g>
</g>
<g>
</g>
<g>
</g>
<g>
</g>
<g>
</g>
<g>
</g>
<g>
</g>
<g>
</g>
<g>
</g>
<g>
</g>
<g>
</g>
<g>
</g>
<g>
</g>
<g>
</g>
<g>
</g>
<g>
</g>
<g>
</g>
<g>
</g>
<g>
</g>
<g>
</g>
<g>
</g>
<g>
</g>
<g>
</g>
<g>
</g>
<g>
</g>
<g>
</g>
<g>
</g>
<g>
</g>
<g>
</g>
</g> 
<svg:g><svg:g><svg:title>SVG Image created as STEPDOWN02-Edge_Cuts.svg date 2023/09/17 11:12:48 </svg:title>
  <svg:desc>Image generated by PCBNEW </svg:desc>
<svg:g style="fill:#C2C200; fill-opacity:1.0000;stroke:#C2C200; stroke-opacity:1.0000; stroke-linecap:round; stroke-linejoin:round;" transform="translate(0 0) scale(1 1)">
</svg:g>
<svg:g style="fill:#C2C200; fill-opacity:0.0;  stroke:#C2C200; stroke-width:0.0000; stroke-opacity:1;  stroke-linecap:round; stroke-linejoin:round;">
</svg:g>
<svg:g style="fill:#C2C200; fill-opacity:0.0;  stroke:#C2C200; stroke-width:0.7820; stroke-opacity:1;  stroke-linecap:round; stroke-linejoin:round;">
<svg:path d="M43.8921 0.3946 L43.8921 209.6126 "/>
<svg:path d="M43.8921 209.6126 L253.1101 209.6126 "/>
<svg:path d="M253.1101 0.3946 L43.8921 0.3946 "/>
<svg:path d="M253.1101 209.6126 L253.1101 0.3946 "/>
<svg:g>
</svg:g>
<svg:g>
</svg:g>
<svg:g>
</svg:g>
<svg:g>
</svg:g>
<svg:g>
</svg:g>
<svg:g>
</svg:g>
<svg:g>
</svg:g>
<svg:g>
</svg:g>
<svg:g>
</svg:g>
<svg:g>
</svg:g>
<svg:g>
</svg:g>
<svg:g>
</svg:g>
<svg:g>
</svg:g>
<svg:g>
</svg:g>
<svg:g>
</svg:g>
<svg:g>
</svg:g>
<svg:g>
</svg:g>
<svg:g>
</svg:g>
<svg:g>
</svg:g>
<svg:g>
</svg:g>
<svg:g>
</svg:g>
<svg:g>
</svg:g>
<svg:g>
</svg:g>
<svg:g>
</svg:g>
<svg:g>
</svg:g>
<svg:g>
</svg:g>
<svg:g>
</svg:g>
<svg:g>
</svg:g>
<svg:g>
</svg:g>
<svg:g>
</svg:g>
<svg:g>
</svg:g>
<svg:g>
</svg:g>
<svg:g>
</svg:g>
</svg:g> 
</svg:g></svg:g></svg>
