%TF.GenerationSoftware,KiCad,Pcbnew,7.0.7-7.0.7~ubuntu23.04.1*%
%TF.CreationDate,2023-09-17T11:12:04+00:00*%
%TF.ProjectId,STEPDOWN02,53544550-444f-4574-9e30-322e6b696361,rev?*%
%TF.SameCoordinates,Original*%
%TF.FileFunction,Copper,L2,Bot*%
%TF.FilePolarity,Positive*%
%FSLAX46Y46*%
G04 Gerber Fmt 4.6, Leading zero omitted, Abs format (unit mm)*
G04 Created by KiCad (PCBNEW 7.0.7-7.0.7~ubuntu23.04.1) date 2023-09-17 11:12:04*
%MOMM*%
%LPD*%
G01*
G04 APERTURE LIST*
%TA.AperFunction,ComponentPad*%
%ADD10C,5.600000*%
%TD*%
%TA.AperFunction,ComponentPad*%
%ADD11R,3.810000X3.810000*%
%TD*%
%TA.AperFunction,ComponentPad*%
%ADD12R,2.235200X2.235200*%
%TD*%
%TA.AperFunction,ComponentPad*%
%ADD13R,1.300000X1.300000*%
%TD*%
%TA.AperFunction,ComponentPad*%
%ADD14C,1.300000*%
%TD*%
%TA.AperFunction,SMDPad,CuDef*%
%ADD15R,2.430000X2.370000*%
%TD*%
%TA.AperFunction,SMDPad,CuDef*%
%ADD16R,1.250000X1.000000*%
%TD*%
%TA.AperFunction,SMDPad,CuDef*%
%ADD17R,1.000000X1.250000*%
%TD*%
%TA.AperFunction,SMDPad,CuDef*%
%ADD18R,2.370000X2.230000*%
%TD*%
%TA.AperFunction,SMDPad,CuDef*%
%ADD19R,1.000000X1.600000*%
%TD*%
%TA.AperFunction,SMDPad,CuDef*%
%ADD20R,2.230000X1.800000*%
%TD*%
%TA.AperFunction,SMDPad,CuDef*%
%ADD21R,1.600000X1.000000*%
%TD*%
%TA.AperFunction,SMDPad,CuDef*%
%ADD22R,2.600000X3.200000*%
%TD*%
%TA.AperFunction,SMDPad,CuDef*%
%ADD23R,3.700020X1.000760*%
%TD*%
%TA.AperFunction,SMDPad,CuDef*%
%ADD24R,0.700000X1.300000*%
%TD*%
%TA.AperFunction,SMDPad,CuDef*%
%ADD25R,1.300000X0.700000*%
%TD*%
%TA.AperFunction,SMDPad,CuDef*%
%ADD26R,2.150000X0.600000*%
%TD*%
%TA.AperFunction,SMDPad,CuDef*%
%ADD27R,1.175000X1.175000*%
%TD*%
%TA.AperFunction,ComponentPad*%
%ADD28C,0.600000*%
%TD*%
%TA.AperFunction,ViaPad*%
%ADD29C,0.600000*%
%TD*%
%TA.AperFunction,Conductor*%
%ADD30C,1.000000*%
%TD*%
%TA.AperFunction,Conductor*%
%ADD31C,0.300000*%
%TD*%
%TA.AperFunction,Conductor*%
%ADD32C,0.400000*%
%TD*%
%TA.AperFunction,Conductor*%
%ADD33C,0.600000*%
%TD*%
%TA.AperFunction,Conductor*%
%ADD34C,1.500000*%
%TD*%
%TA.AperFunction,Conductor*%
%ADD35C,2.500000*%
%TD*%
%TA.AperFunction,Conductor*%
%ADD36C,0.500000*%
%TD*%
G04 APERTURE END LIST*
D10*
%TO.P,P1,1*%
%TO.N,GND*%
X121920000Y-71120000D03*
%TD*%
%TO.P,P2,1*%
%TO.N,GND*%
X152400000Y-71120000D03*
%TD*%
%TO.P,P3,1*%
%TO.N,GND*%
X121920000Y-101600000D03*
%TD*%
%TO.P,P4,1*%
%TO.N,GND*%
X152400000Y-101600000D03*
%TD*%
D11*
%TO.P,J1,1*%
%TO.N,+12V*%
X151558000Y-93980000D03*
X146558000Y-93980000D03*
%TD*%
%TO.P,J2,1*%
%TO.N,GND*%
X151558000Y-88900000D03*
X146558000Y-88900000D03*
%TD*%
%TO.P,J3,1*%
%TO.N,+5V*%
X151558000Y-78740000D03*
X146558000Y-78740000D03*
%TD*%
%TO.P,J4,1*%
%TO.N,GND*%
X151558000Y-83820000D03*
X146558000Y-83820000D03*
%TD*%
D12*
%TO.P,P5,1*%
%TO.N,/ENABLE*%
X130429000Y-101473000D03*
%TD*%
D13*
%TO.P,C12,1*%
%TO.N,+12V*%
X138811000Y-98806000D03*
D14*
%TO.P,C12,2*%
%TO.N,GND*%
X138811000Y-101306000D03*
%TD*%
D15*
%TO.P,C1,1*%
%TO.N,+12V*%
X139192000Y-93290000D03*
%TO.P,C1,2*%
%TO.N,GND*%
X139192000Y-87050000D03*
%TD*%
D16*
%TO.P,C2,1*%
%TO.N,+12V*%
X141478000Y-92567000D03*
%TO.P,C2,2*%
%TO.N,GND*%
X141478000Y-90567000D03*
%TD*%
%TO.P,C3,1*%
%TO.N,+12V*%
X143383000Y-92567000D03*
%TO.P,C3,2*%
%TO.N,GND*%
X143383000Y-90567000D03*
%TD*%
%TO.P,C4,1*%
%TO.N,Net-(C4-Pad1)*%
X126492000Y-95742000D03*
%TO.P,C4,2*%
%TO.N,GND*%
X126492000Y-93742000D03*
%TD*%
%TO.P,C5,1*%
%TO.N,Net-(C5-Pad1)*%
X122682000Y-93710000D03*
%TO.P,C5,2*%
%TO.N,GND*%
X122682000Y-91710000D03*
%TD*%
D17*
%TO.P,C6,1*%
%TO.N,Net-(C6-Pad1)*%
X135112000Y-98298000D03*
%TO.P,C6,2*%
%TO.N,GND*%
X133112000Y-98298000D03*
%TD*%
%TO.P,C7,1*%
%TO.N,Net-(C7-Pad1)*%
X126889000Y-90932000D03*
%TO.P,C7,2*%
%TO.N,Net-(C7-Pad2)*%
X128889000Y-90932000D03*
%TD*%
D18*
%TO.P,C8,1*%
%TO.N,Net-(C8-Pad1)*%
X128848000Y-81534000D03*
%TO.P,C8,2*%
%TO.N,GND*%
X133788000Y-81534000D03*
%TD*%
D19*
%TO.P,C9,1*%
%TO.N,Net-(C8-Pad1)*%
X124690000Y-83058000D03*
%TO.P,C9,2*%
%TO.N,GND*%
X121690000Y-83058000D03*
%TD*%
D20*
%TO.P,C10,1*%
%TO.N,+5V*%
X138430000Y-79058000D03*
%TO.P,C10,2*%
%TO.N,GND*%
X138430000Y-81978000D03*
%TD*%
D21*
%TO.P,C11,1*%
%TO.N,+5V*%
X141986000Y-79399000D03*
%TO.P,C11,2*%
%TO.N,GND*%
X141986000Y-82399000D03*
%TD*%
D22*
%TO.P,D1,1*%
%TO.N,Net-(C7-Pad1)*%
X128099000Y-86741000D03*
%TO.P,D1,2*%
%TO.N,GND*%
X135299000Y-86741000D03*
%TD*%
D23*
%TO.P,L1,1*%
%TO.N,Net-(C7-Pad1)*%
X123190000Y-88983820D03*
%TO.P,L1,2*%
%TO.N,Net-(C8-Pad1)*%
X123190000Y-86784180D03*
%TD*%
D24*
%TO.P,L2,1*%
%TO.N,Net-(C8-Pad1)*%
X133162000Y-78232000D03*
%TO.P,L2,2*%
%TO.N,+5V*%
X135062000Y-78232000D03*
%TD*%
%TO.P,R1,1*%
%TO.N,Net-(C4-Pad1)*%
X124648000Y-95504000D03*
%TO.P,R1,2*%
%TO.N,Net-(C5-Pad1)*%
X122748000Y-95504000D03*
%TD*%
%TO.P,R2,1*%
%TO.N,Net-(C8-Pad1)*%
X119192000Y-92837000D03*
%TO.P,R2,2*%
%TO.N,Net-(R2-Pad2)*%
X121092000Y-92837000D03*
%TD*%
%TO.P,R3,1*%
%TO.N,Net-(R2-Pad2)*%
X121092000Y-95377000D03*
%TO.P,R3,2*%
%TO.N,GND*%
X119192000Y-95377000D03*
%TD*%
D25*
%TO.P,R4,1*%
%TO.N,+5V*%
X139319000Y-75753000D03*
%TO.P,R4,2*%
%TO.N,Net-(D2-Pad2)*%
X139319000Y-73853000D03*
%TD*%
D26*
%TO.P,U1,1*%
%TO.N,Net-(C7-Pad2)*%
X135209000Y-92329000D03*
%TO.P,U1,2*%
%TO.N,+12V*%
X135209000Y-93599000D03*
%TO.P,U1,3*%
%TO.N,/ENABLE*%
X135209000Y-94869000D03*
%TO.P,U1,4*%
%TO.N,Net-(C6-Pad1)*%
X135209000Y-96139000D03*
%TO.P,U1,5*%
%TO.N,Net-(R2-Pad2)*%
X129459000Y-96139000D03*
%TO.P,U1,6*%
%TO.N,Net-(C4-Pad1)*%
X129459000Y-94869000D03*
%TO.P,U1,7*%
%TO.N,GND*%
X129459000Y-93599000D03*
%TO.P,U1,8*%
%TO.N,Net-(C7-Pad1)*%
X129459000Y-92329000D03*
D27*
%TO.P,U1,9*%
%TO.N,GND*%
X132923280Y-93055440D03*
X132921500Y-95405700D03*
X132921500Y-94230700D03*
D28*
X132905500Y-93027500D03*
X132842000Y-95377000D03*
X132842000Y-94234000D03*
X131762500Y-95377000D03*
X131762500Y-94234000D03*
X131762500Y-93027500D03*
D27*
X131747260Y-93055440D03*
X131746500Y-95405700D03*
X131746500Y-94230700D03*
%TD*%
D29*
%TO.N,GND*%
X137160000Y-83693000D03*
X133096000Y-88138000D03*
X137287000Y-86741000D03*
X121690000Y-83058000D03*
X143383000Y-90678000D03*
X136017000Y-82550000D03*
X133096000Y-86868000D03*
X135001000Y-83566000D03*
X137287000Y-88265000D03*
X139700000Y-83693000D03*
X133858000Y-83566000D03*
X133096000Y-85725000D03*
X141224000Y-86360000D03*
X141478000Y-90567000D03*
X141224000Y-87249000D03*
X136017000Y-81534000D03*
X126492000Y-93726000D03*
X137287000Y-85598000D03*
X138430000Y-83693000D03*
X119192000Y-95377000D03*
X141224000Y-88265000D03*
X141986000Y-82399000D03*
X132588000Y-83566000D03*
X133112000Y-98298000D03*
X122682000Y-91710000D03*
%TO.N,Net-(C7-Pad2)*%
X130175000Y-90932000D03*
X134493000Y-90932000D03*
%TO.N,Net-(D2-Pad2)*%
X139192000Y-72390000D03*
%TD*%
D30*
%TO.N,GND*%
X126492000Y-93726000D02*
X126492000Y-93742000D01*
D31*
X139010000Y-87122000D02*
X139192000Y-87304000D01*
X133788000Y-83496000D02*
X133858000Y-83566000D01*
X137287000Y-87304000D02*
X137287000Y-87376000D01*
X137287000Y-87376000D02*
X137287000Y-88265000D01*
X141169000Y-87304000D02*
X141224000Y-87249000D01*
X143383000Y-90678000D02*
X143383000Y-90567000D01*
X137287000Y-86741000D02*
X137287000Y-87376000D01*
X138430000Y-81978000D02*
X138430000Y-83693000D01*
X135299000Y-86868000D02*
X133096000Y-86868000D01*
X133788000Y-81534000D02*
X133788000Y-83496000D01*
X133788000Y-81534000D02*
X136017000Y-81534000D01*
X133096000Y-86868000D02*
X133096000Y-88138000D01*
X139192000Y-87304000D02*
X137287000Y-87304000D01*
X135299000Y-86741000D02*
X137287000Y-86741000D01*
X139192000Y-87304000D02*
X141169000Y-87304000D01*
X138430000Y-83693000D02*
X139700000Y-83693000D01*
X141224000Y-87249000D02*
X141224000Y-88265000D01*
X133858000Y-83566000D02*
X132588000Y-83566000D01*
D32*
%TO.N,+12V*%
X139137000Y-93599000D02*
X139192000Y-93544000D01*
D30*
X146122000Y-93544000D02*
X146558000Y-93980000D01*
D33*
X135209000Y-93599000D02*
X139137000Y-93599000D01*
D34*
X139192000Y-93544000D02*
X146122000Y-93544000D01*
D35*
X146558000Y-93980000D02*
X151558000Y-93980000D01*
D32*
%TO.N,Net-(C4-Pad1)*%
X126619000Y-94869000D02*
X126492000Y-94996000D01*
X126492000Y-94996000D02*
X126492000Y-95742000D01*
X124886000Y-95742000D02*
X124648000Y-95504000D01*
X129459000Y-94869000D02*
X126619000Y-94869000D01*
X126492000Y-95742000D02*
X124886000Y-95742000D01*
%TO.N,Net-(C5-Pad1)*%
X122748000Y-93776000D02*
X122682000Y-93710000D01*
X122748000Y-95504000D02*
X122748000Y-93776000D01*
%TO.N,Net-(C6-Pad1)*%
X135112000Y-96236000D02*
X135209000Y-96139000D01*
D33*
X135112000Y-98298000D02*
X135112000Y-96236000D01*
D30*
%TO.N,Net-(C7-Pad1)*%
X126916180Y-88983820D02*
X127464000Y-88436000D01*
X127464000Y-88436000D02*
X127464000Y-86868000D01*
D33*
X123190000Y-89916000D02*
X123444000Y-90170000D01*
X123444000Y-90170000D02*
X124968000Y-90170000D01*
X124968000Y-90170000D02*
X125238000Y-90440000D01*
X125238000Y-90440000D02*
X125238000Y-90932000D01*
X125238000Y-91964000D02*
X125603000Y-92329000D01*
X125603000Y-92329000D02*
X129459000Y-92329000D01*
D31*
X125238000Y-90932000D02*
X125349000Y-90932000D01*
X125349000Y-90932000D02*
X125238000Y-90932000D01*
D33*
X125238000Y-90932000D02*
X125238000Y-91186000D01*
X126889000Y-90932000D02*
X125238000Y-90932000D01*
D30*
X123190000Y-88983820D02*
X126916180Y-88983820D01*
D33*
X125238000Y-91186000D02*
X125238000Y-91964000D01*
X123190000Y-88983820D02*
X123190000Y-89916000D01*
D31*
%TO.N,Net-(C7-Pad2)*%
X134493000Y-90932000D02*
X135209000Y-91648000D01*
X135209000Y-92329000D02*
X135209000Y-91648000D01*
X130175000Y-90932000D02*
X128889000Y-90932000D01*
D30*
%TO.N,Net-(C8-Pad1)*%
X130556000Y-78232000D02*
X129356000Y-79432000D01*
X129356000Y-79432000D02*
X129356000Y-81534000D01*
D33*
X123190000Y-85852000D02*
X123698000Y-85344000D01*
X123698000Y-85344000D02*
X124333000Y-85344000D01*
X124333000Y-85344000D02*
X124690000Y-84987000D01*
X124690000Y-84987000D02*
X124690000Y-83566000D01*
X120225820Y-86784180D02*
X119192000Y-87818000D01*
X119192000Y-87818000D02*
X119192000Y-92837000D01*
X123190000Y-86784180D02*
X120225820Y-86784180D01*
X123190000Y-86784180D02*
X123190000Y-85852000D01*
X133162000Y-78232000D02*
X130556000Y-78232000D01*
D30*
%TO.N,+5V*%
X142518000Y-78740000D02*
X142200000Y-79058000D01*
X142200000Y-79058000D02*
X138430000Y-79058000D01*
X136716000Y-79058000D02*
X135890000Y-78232000D01*
D36*
X138364000Y-78992000D02*
X138430000Y-79058000D01*
D32*
X139319000Y-77470000D02*
X138430000Y-78359000D01*
X138430000Y-78359000D02*
X138430000Y-79058000D01*
X139319000Y-75753000D02*
X139319000Y-77470000D01*
D30*
X146558000Y-78740000D02*
X142518000Y-78740000D01*
D35*
X146558000Y-78740000D02*
X151558000Y-78740000D01*
D30*
X136716000Y-79058000D02*
X138430000Y-79058000D01*
D33*
X135062000Y-78232000D02*
X135890000Y-78232000D01*
D31*
%TO.N,Net-(D2-Pad2)*%
X139319000Y-72517000D02*
X139192000Y-72390000D01*
X139319000Y-73853000D02*
X139319000Y-72517000D01*
D33*
%TO.N,/ENABLE*%
X130556000Y-101346000D02*
X130429000Y-101473000D01*
X136652000Y-94869000D02*
X137033000Y-95250000D01*
X137033000Y-95250000D02*
X137033000Y-100838000D01*
X137033000Y-100838000D02*
X136398000Y-101473000D01*
X136398000Y-101473000D02*
X130429000Y-101473000D01*
X135209000Y-94869000D02*
X136652000Y-94869000D01*
%TO.N,Net-(R2-Pad2)*%
X129459000Y-96855000D02*
X128905000Y-97409000D01*
X128905000Y-97409000D02*
X121539000Y-97409000D01*
X121539000Y-97409000D02*
X121092000Y-96962000D01*
X121092000Y-96962000D02*
X121092000Y-95377000D01*
X121092000Y-95377000D02*
X121092000Y-92837000D01*
X129459000Y-96139000D02*
X129459000Y-96855000D01*
%TD*%
%TA.AperFunction,Conductor*%
%TO.N,GND*%
G36*
X157076000Y-66389462D02*
G01*
X157130538Y-66444000D01*
X157150500Y-66518500D01*
X157150500Y-106201500D01*
X157130538Y-106276000D01*
X157076000Y-106330538D01*
X157001500Y-106350500D01*
X117318500Y-106350500D01*
X117244000Y-106330538D01*
X117189462Y-106276000D01*
X117169500Y-106201500D01*
X117169500Y-102615662D01*
X129056900Y-102615662D01*
X129071665Y-102689900D01*
X129127915Y-102774083D01*
X129127917Y-102774085D01*
X129212097Y-102830333D01*
X129212099Y-102830334D01*
X129286333Y-102845100D01*
X131571666Y-102845099D01*
X131645901Y-102830334D01*
X131730084Y-102774084D01*
X131786334Y-102689901D01*
X131801100Y-102615667D01*
X131801100Y-102176500D01*
X131821062Y-102102000D01*
X131875600Y-102047462D01*
X131950100Y-102027500D01*
X136388537Y-102027500D01*
X136455239Y-102029779D01*
X136497971Y-102019364D01*
X136505444Y-102017944D01*
X136549009Y-102011957D01*
X136563692Y-102005578D01*
X136587772Y-101997480D01*
X136603333Y-101993689D01*
X136641683Y-101972125D01*
X136648464Y-101968757D01*
X136688818Y-101951230D01*
X136701239Y-101941124D01*
X136722243Y-101926828D01*
X136736199Y-101918982D01*
X136767299Y-101887880D01*
X136772936Y-101882793D01*
X136807058Y-101855034D01*
X136816291Y-101841952D01*
X136832653Y-101822526D01*
X137125525Y-101529654D01*
X137418392Y-101236789D01*
X137445466Y-101211502D01*
X137467176Y-101191228D01*
X137490031Y-101153642D01*
X137494298Y-101147372D01*
X137520880Y-101112320D01*
X137526754Y-101097422D01*
X137538051Y-101074677D01*
X137546375Y-101060990D01*
X137558242Y-101018633D01*
X137560667Y-101011425D01*
X137576799Y-100970520D01*
X137578435Y-100954595D01*
X137583179Y-100929633D01*
X137587500Y-100914214D01*
X137587500Y-100870250D01*
X137587891Y-100862628D01*
X137588960Y-100852221D01*
X137592387Y-100818891D01*
X137589666Y-100803107D01*
X137587500Y-100777794D01*
X137587500Y-99595241D01*
X137607462Y-99520741D01*
X137662000Y-99466203D01*
X137736500Y-99446241D01*
X137811000Y-99466203D01*
X137860389Y-99512461D01*
X137885465Y-99549990D01*
X137885470Y-99549996D01*
X137940002Y-99604529D01*
X137940002Y-99604528D01*
X137940006Y-99604532D01*
X137959451Y-99621585D01*
X137966556Y-99629684D01*
X137967136Y-99629105D01*
X137977511Y-99639480D01*
X137977515Y-99639482D01*
X137977516Y-99639484D01*
X138061699Y-99695734D01*
X138135933Y-99710500D01*
X139486066Y-99710499D01*
X139513973Y-99704948D01*
X139521950Y-99703362D01*
X139551014Y-99700500D01*
X140281784Y-99700500D01*
X140298732Y-99699389D01*
X140326493Y-99695734D01*
X140345717Y-99693203D01*
X140441596Y-99660657D01*
X140508391Y-99622093D01*
X140562135Y-99580853D01*
X141242860Y-98900128D01*
X141254063Y-98887354D01*
X141254063Y-98887352D01*
X141254069Y-98887347D01*
X141254070Y-98887346D01*
X141279946Y-98853623D01*
X141281016Y-98852403D01*
X141282913Y-98849756D01*
X141282914Y-98849755D01*
X141282915Y-98849752D01*
X141282917Y-98849750D01*
X141305596Y-98803758D01*
X141327696Y-98758945D01*
X141347658Y-98684445D01*
X141347659Y-98684434D01*
X141347661Y-98684427D01*
X141356499Y-98617289D01*
X141356500Y-98617281D01*
X141356500Y-96689206D01*
X141376462Y-96614706D01*
X141400141Y-96583847D01*
X141795847Y-96188141D01*
X141862642Y-96149577D01*
X141901206Y-96144500D01*
X153468497Y-96144500D01*
X153468500Y-96144500D01*
X153520523Y-96139232D01*
X153579053Y-96127255D01*
X153596946Y-96122927D01*
X153687258Y-96077148D01*
X153747928Y-96029525D01*
X153795300Y-95981100D01*
X154104133Y-95569322D01*
X154108612Y-95562962D01*
X154120592Y-95544817D01*
X154154696Y-95468996D01*
X154174658Y-95394496D01*
X154174659Y-95394485D01*
X154174661Y-95394478D01*
X154183499Y-95327340D01*
X154183500Y-95327333D01*
X154183500Y-92636216D01*
X154182389Y-92619268D01*
X154176203Y-92572283D01*
X154172373Y-92560999D01*
X154143657Y-92476404D01*
X154105093Y-92409609D01*
X154063853Y-92355865D01*
X153737159Y-92029170D01*
X153704858Y-91980828D01*
X153702734Y-91975699D01*
X153683735Y-91947265D01*
X153646484Y-91891516D01*
X153646482Y-91891515D01*
X153646482Y-91891514D01*
X153562302Y-91835266D01*
X153488067Y-91820500D01*
X153397147Y-91820500D01*
X153387417Y-91819862D01*
X153362721Y-91816611D01*
X153354283Y-91815500D01*
X153354282Y-91815500D01*
X144062824Y-91815500D01*
X144033756Y-91812637D01*
X144033067Y-91812500D01*
X142732934Y-91812500D01*
X142732341Y-91812618D01*
X142732249Y-91812637D01*
X142703183Y-91815500D01*
X142157824Y-91815500D01*
X142128756Y-91812637D01*
X142128067Y-91812500D01*
X140827934Y-91812500D01*
X140827341Y-91812618D01*
X140827249Y-91812637D01*
X140798183Y-91815500D01*
X137594216Y-91815500D01*
X137577268Y-91816611D01*
X137530283Y-91822796D01*
X137434404Y-91855343D01*
X137367615Y-91893903D01*
X137367608Y-91893908D01*
X137313866Y-91935145D01*
X136792858Y-92456152D01*
X136726063Y-92494716D01*
X136648935Y-92494716D01*
X136582140Y-92456152D01*
X136543576Y-92389357D01*
X136538499Y-92350797D01*
X136538499Y-92003934D01*
X136523734Y-91929699D01*
X136467484Y-91845516D01*
X136467483Y-91845515D01*
X136467482Y-91845514D01*
X136383302Y-91789266D01*
X136309067Y-91774500D01*
X135762500Y-91774500D01*
X135688000Y-91754538D01*
X135633462Y-91700000D01*
X135613500Y-91625500D01*
X135613500Y-91583935D01*
X135612893Y-91582066D01*
X135607161Y-91564424D01*
X135601706Y-91541704D01*
X135598498Y-91521445D01*
X135589191Y-91503180D01*
X135580241Y-91481575D01*
X135573905Y-91462071D01*
X135561848Y-91445477D01*
X135549633Y-91425545D01*
X135540326Y-91407277D01*
X135517537Y-91384488D01*
X135517535Y-91384485D01*
X135086112Y-90953062D01*
X135047549Y-90886268D01*
X135043749Y-90867165D01*
X135033228Y-90787246D01*
X134977356Y-90652360D01*
X134977356Y-90652359D01*
X134888472Y-90536524D01*
X134772642Y-90447644D01*
X134772642Y-90447643D01*
X134637751Y-90391770D01*
X134493003Y-90372715D01*
X134492997Y-90372715D01*
X134348251Y-90391770D01*
X134348246Y-90391771D01*
X134213360Y-90447643D01*
X134097526Y-90536526D01*
X134008643Y-90652360D01*
X133952771Y-90787246D01*
X133952770Y-90787251D01*
X133933715Y-90931997D01*
X133933715Y-90932002D01*
X133952770Y-91076751D01*
X134008644Y-91211642D01*
X134097524Y-91327472D01*
X134097527Y-91327475D01*
X134213357Y-91416355D01*
X134213357Y-91416356D01*
X134298417Y-91451588D01*
X134348246Y-91472228D01*
X134390382Y-91477775D01*
X134461638Y-91507288D01*
X134508592Y-91568477D01*
X134518661Y-91644945D01*
X134489147Y-91716203D01*
X134427958Y-91763157D01*
X134370936Y-91774500D01*
X134108937Y-91774500D01*
X134034699Y-91789265D01*
X133950516Y-91845515D01*
X133950514Y-91845517D01*
X133894266Y-91929697D01*
X133879500Y-92003932D01*
X133879500Y-92654062D01*
X133894265Y-92728300D01*
X133950515Y-92812483D01*
X133950517Y-92812485D01*
X133976081Y-92829567D01*
X134026935Y-92887555D01*
X134041981Y-92963202D01*
X134017188Y-93036236D01*
X133998660Y-93058813D01*
X133948471Y-93109002D01*
X133948468Y-93109006D01*
X133930562Y-93129422D01*
X133926085Y-93134528D01*
X133881301Y-93225342D01*
X133881301Y-93225343D01*
X133861343Y-93299831D01*
X133861338Y-93299854D01*
X133852500Y-93366992D01*
X133852500Y-93831007D01*
X133861338Y-93898145D01*
X133861342Y-93898164D01*
X133881302Y-93972655D01*
X133881304Y-93972663D01*
X133892215Y-94004806D01*
X133892216Y-94004808D01*
X133892217Y-94004809D01*
X133948465Y-94088990D01*
X133948469Y-94088995D01*
X133998659Y-94139185D01*
X134037223Y-94205980D01*
X134037223Y-94283108D01*
X133998659Y-94349903D01*
X133976084Y-94368431D01*
X133950515Y-94385516D01*
X133950514Y-94385517D01*
X133894266Y-94469697D01*
X133879500Y-94543932D01*
X133879500Y-95194062D01*
X133894265Y-95268300D01*
X133950515Y-95352483D01*
X133950516Y-95352484D01*
X133991863Y-95380112D01*
X134042716Y-95438101D01*
X134057762Y-95513747D01*
X134032969Y-95586782D01*
X133991863Y-95627888D01*
X133950516Y-95655515D01*
X133950514Y-95655517D01*
X133894266Y-95739697D01*
X133879500Y-95813932D01*
X133879500Y-96464062D01*
X133894265Y-96538300D01*
X133950515Y-96622483D01*
X133950517Y-96622485D01*
X134034697Y-96678733D01*
X134034699Y-96678734D01*
X134108933Y-96693500D01*
X134408501Y-96693499D01*
X134483000Y-96713461D01*
X134537538Y-96767999D01*
X134557500Y-96842499D01*
X134557500Y-97323688D01*
X134537538Y-97398188D01*
X134491281Y-97447576D01*
X134428517Y-97489514D01*
X134428514Y-97489517D01*
X134372266Y-97573697D01*
X134357500Y-97647932D01*
X134357500Y-98948062D01*
X134372265Y-99022300D01*
X134428515Y-99106483D01*
X134428517Y-99106485D01*
X134512697Y-99162733D01*
X134512699Y-99162734D01*
X134586933Y-99177500D01*
X135637066Y-99177499D01*
X135711301Y-99162734D01*
X135795484Y-99106484D01*
X135851734Y-99022301D01*
X135866500Y-98948067D01*
X135866499Y-97647934D01*
X135851734Y-97573699D01*
X135795484Y-97489516D01*
X135795482Y-97489514D01*
X135732719Y-97447576D01*
X135681865Y-97389587D01*
X135666500Y-97323688D01*
X135666500Y-96842499D01*
X135686462Y-96767999D01*
X135741000Y-96713461D01*
X135815500Y-96693499D01*
X136309065Y-96693499D01*
X136309066Y-96693499D01*
X136309066Y-96693498D01*
X136314892Y-96692925D01*
X136390990Y-96705487D01*
X136450612Y-96754415D01*
X136477782Y-96826599D01*
X136478500Y-96841207D01*
X136478500Y-100546601D01*
X136458538Y-100621101D01*
X136434859Y-100651960D01*
X136211960Y-100874859D01*
X136145165Y-100913423D01*
X136106601Y-100918500D01*
X131950099Y-100918500D01*
X131875599Y-100898538D01*
X131821061Y-100844000D01*
X131801099Y-100769500D01*
X131801099Y-100330337D01*
X131801099Y-100330334D01*
X131786334Y-100256099D01*
X131730084Y-100171916D01*
X131730083Y-100171915D01*
X131730082Y-100171914D01*
X131645902Y-100115666D01*
X131571667Y-100100900D01*
X129286337Y-100100900D01*
X129212099Y-100115665D01*
X129127916Y-100171915D01*
X129127914Y-100171917D01*
X129071666Y-100256097D01*
X129056900Y-100330332D01*
X129056900Y-102615662D01*
X117169500Y-102615662D01*
X117169500Y-96052062D01*
X120487500Y-96052062D01*
X120487501Y-96052066D01*
X120502266Y-96126301D01*
X120510906Y-96139232D01*
X120512386Y-96141446D01*
X120537181Y-96214480D01*
X120537500Y-96224230D01*
X120537500Y-96952536D01*
X120535220Y-97019240D01*
X120545631Y-97061961D01*
X120547056Y-97069458D01*
X120553043Y-97113008D01*
X120553043Y-97113009D01*
X120559422Y-97127697D01*
X120567515Y-97151765D01*
X120571308Y-97167328D01*
X120571308Y-97167329D01*
X120573180Y-97170658D01*
X120592860Y-97205659D01*
X120596251Y-97212487D01*
X120613769Y-97252818D01*
X120623873Y-97265236D01*
X120638167Y-97286237D01*
X120646018Y-97300199D01*
X120646023Y-97300204D01*
X120677107Y-97331288D01*
X120682220Y-97336954D01*
X120709966Y-97371058D01*
X120723043Y-97380288D01*
X120742476Y-97396657D01*
X121140224Y-97794406D01*
X121185772Y-97843176D01*
X121223341Y-97866022D01*
X121229649Y-97870315D01*
X121264672Y-97896875D01*
X121264681Y-97896880D01*
X121279565Y-97902749D01*
X121302322Y-97914051D01*
X121316010Y-97922375D01*
X121358346Y-97934237D01*
X121365583Y-97936671D01*
X121406479Y-97952799D01*
X121415217Y-97953697D01*
X121422404Y-97954436D01*
X121447369Y-97959180D01*
X121462786Y-97963500D01*
X121506757Y-97963500D01*
X121514380Y-97963891D01*
X121520712Y-97964541D01*
X121558109Y-97968386D01*
X121573879Y-97965666D01*
X121599196Y-97963500D01*
X128895537Y-97963500D01*
X128962239Y-97965779D01*
X129004971Y-97955364D01*
X129012444Y-97953944D01*
X129056009Y-97947957D01*
X129070692Y-97941578D01*
X129094772Y-97933480D01*
X129110333Y-97929689D01*
X129148683Y-97908125D01*
X129155464Y-97904757D01*
X129195818Y-97887230D01*
X129208239Y-97877124D01*
X129229243Y-97862828D01*
X129243199Y-97854982D01*
X129274299Y-97823880D01*
X129279936Y-97818793D01*
X129314058Y-97791034D01*
X129323291Y-97777952D01*
X129339653Y-97758526D01*
X129717894Y-97380286D01*
X129844392Y-97253789D01*
X129871466Y-97228502D01*
X129893176Y-97208228D01*
X129916026Y-97170649D01*
X129920307Y-97164359D01*
X129946879Y-97129321D01*
X129952750Y-97114431D01*
X129964058Y-97091664D01*
X129972375Y-97077990D01*
X129984235Y-97035658D01*
X129986668Y-97028424D01*
X130002799Y-96987521D01*
X130002799Y-96987520D01*
X130004436Y-96971595D01*
X130009181Y-96946627D01*
X130013500Y-96931214D01*
X130013499Y-96887246D01*
X130013890Y-96879622D01*
X130016505Y-96854181D01*
X130018386Y-96835891D01*
X130018385Y-96835889D01*
X130019273Y-96827260D01*
X130046750Y-96755192D01*
X130106580Y-96706518D01*
X130167492Y-96693499D01*
X130559063Y-96693499D01*
X130559066Y-96693499D01*
X130633301Y-96678734D01*
X130717484Y-96622484D01*
X130773734Y-96538301D01*
X130788500Y-96464067D01*
X130788499Y-95813934D01*
X130773734Y-95739699D01*
X130717484Y-95655516D01*
X130717483Y-95655515D01*
X130676136Y-95627887D01*
X130625283Y-95569898D01*
X130610237Y-95494251D01*
X130635030Y-95421217D01*
X130676135Y-95380112D01*
X130717484Y-95352484D01*
X130773734Y-95268301D01*
X130788500Y-95194067D01*
X130788499Y-94543934D01*
X130773734Y-94469699D01*
X130717484Y-94385516D01*
X130717482Y-94385514D01*
X130633302Y-94329266D01*
X130559067Y-94314500D01*
X128358937Y-94314500D01*
X128284699Y-94329265D01*
X128194719Y-94389389D01*
X128121684Y-94414181D01*
X128111939Y-94414500D01*
X126648715Y-94414500D01*
X126640367Y-94414031D01*
X126601816Y-94409687D01*
X126601815Y-94409687D01*
X126601814Y-94409687D01*
X126542851Y-94420843D01*
X126499062Y-94427443D01*
X126483519Y-94429786D01*
X126475308Y-94432319D01*
X126467190Y-94435159D01*
X126414141Y-94463197D01*
X126360080Y-94489232D01*
X126352953Y-94494091D01*
X126346061Y-94499178D01*
X126303627Y-94541612D01*
X126259642Y-94582424D01*
X126252686Y-94591148D01*
X126251747Y-94590399D01*
X126241442Y-94603796D01*
X126191627Y-94653610D01*
X126185395Y-94659180D01*
X126155064Y-94683368D01*
X126121260Y-94732949D01*
X126085630Y-94781228D01*
X126081603Y-94788848D01*
X126077884Y-94796571D01*
X126077883Y-94796572D01*
X126077884Y-94796572D01*
X126060196Y-94853915D01*
X126051699Y-94878197D01*
X126048369Y-94887714D01*
X126004920Y-94951439D01*
X125935430Y-94984903D01*
X125907733Y-94987500D01*
X125841936Y-94987500D01*
X125767699Y-95002265D01*
X125683516Y-95058515D01*
X125683514Y-95058517D01*
X125627266Y-95142697D01*
X125622319Y-95167569D01*
X125588206Y-95236743D01*
X125524076Y-95279593D01*
X125476182Y-95287500D01*
X125401499Y-95287500D01*
X125326999Y-95267538D01*
X125272461Y-95213000D01*
X125252499Y-95138500D01*
X125252499Y-94828937D01*
X125252499Y-94828934D01*
X125237734Y-94754699D01*
X125181484Y-94670516D01*
X125181483Y-94670515D01*
X125181482Y-94670514D01*
X125097302Y-94614266D01*
X125023067Y-94599500D01*
X124272937Y-94599500D01*
X124198699Y-94614265D01*
X124114516Y-94670515D01*
X124114514Y-94670517D01*
X124058266Y-94754697D01*
X124043500Y-94828932D01*
X124043500Y-96179062D01*
X124058265Y-96253300D01*
X124114515Y-96337483D01*
X124114517Y-96337485D01*
X124198697Y-96393733D01*
X124198699Y-96393734D01*
X124272933Y-96408500D01*
X125023066Y-96408499D01*
X125097301Y-96393734D01*
X125181484Y-96337484D01*
X125231440Y-96262719D01*
X125289428Y-96211866D01*
X125355329Y-96196500D01*
X125476182Y-96196500D01*
X125550682Y-96216462D01*
X125605220Y-96271000D01*
X125622319Y-96316433D01*
X125627264Y-96341299D01*
X125683515Y-96425483D01*
X125683517Y-96425485D01*
X125767697Y-96481733D01*
X125767699Y-96481734D01*
X125841933Y-96496500D01*
X127142066Y-96496499D01*
X127216301Y-96481734D01*
X127300484Y-96425484D01*
X127356734Y-96341301D01*
X127371500Y-96267067D01*
X127371499Y-95472499D01*
X127391461Y-95398000D01*
X127445999Y-95343462D01*
X127520499Y-95323500D01*
X128111939Y-95323500D01*
X128186439Y-95343462D01*
X128194720Y-95348612D01*
X128241862Y-95380112D01*
X128292716Y-95438100D01*
X128307762Y-95513747D01*
X128282969Y-95586781D01*
X128241863Y-95627888D01*
X128200516Y-95655515D01*
X128200514Y-95655517D01*
X128144266Y-95739697D01*
X128129500Y-95813932D01*
X128129500Y-96464062D01*
X128144266Y-96538301D01*
X128200673Y-96622719D01*
X128225466Y-96695754D01*
X128210419Y-96771400D01*
X128159566Y-96829388D01*
X128086531Y-96854181D01*
X128076785Y-96854500D01*
X121830400Y-96854500D01*
X121755900Y-96834538D01*
X121725041Y-96810859D01*
X121690140Y-96775958D01*
X121651576Y-96709163D01*
X121646499Y-96670605D01*
X121646499Y-96224231D01*
X121666461Y-96149732D01*
X121671613Y-96141448D01*
X121681734Y-96126301D01*
X121682405Y-96122926D01*
X121696500Y-96052067D01*
X121696499Y-94701934D01*
X121681734Y-94627699D01*
X121671610Y-94612548D01*
X121646819Y-94539514D01*
X121646500Y-94529769D01*
X121646500Y-94520556D01*
X121666462Y-94446056D01*
X121721000Y-94391518D01*
X121795500Y-94371556D01*
X121870000Y-94391518D01*
X121878281Y-94396668D01*
X121957697Y-94449733D01*
X121957699Y-94449734D01*
X122031933Y-94464500D01*
X122073411Y-94464499D01*
X122147908Y-94484460D01*
X122202447Y-94538996D01*
X122222411Y-94613496D01*
X122202450Y-94687996D01*
X122197300Y-94696278D01*
X122158266Y-94754696D01*
X122143500Y-94828932D01*
X122143500Y-96179062D01*
X122158265Y-96253300D01*
X122214515Y-96337483D01*
X122214517Y-96337485D01*
X122298697Y-96393733D01*
X122298699Y-96393734D01*
X122372933Y-96408500D01*
X123123066Y-96408499D01*
X123197301Y-96393734D01*
X123281484Y-96337484D01*
X123337734Y-96253301D01*
X123352500Y-96179067D01*
X123352499Y-94828934D01*
X123337734Y-94754699D01*
X123289801Y-94682963D01*
X123265009Y-94609929D01*
X123280056Y-94534282D01*
X123330910Y-94476294D01*
X123384623Y-94454045D01*
X123406301Y-94449734D01*
X123490484Y-94393484D01*
X123546734Y-94309301D01*
X123561500Y-94235067D01*
X123561499Y-93184934D01*
X123546734Y-93110699D01*
X123490484Y-93026516D01*
X123490482Y-93026514D01*
X123406302Y-92970266D01*
X123332067Y-92955500D01*
X122031937Y-92955500D01*
X121957697Y-92970266D01*
X121928277Y-92989924D01*
X121855242Y-93014715D01*
X121779596Y-92999667D01*
X121721609Y-92948812D01*
X121696818Y-92875777D01*
X121696499Y-92866049D01*
X121696499Y-92161934D01*
X121681734Y-92087699D01*
X121625484Y-92003516D01*
X121625483Y-92003515D01*
X121625482Y-92003514D01*
X121541302Y-91947266D01*
X121467067Y-91932500D01*
X120716937Y-91932500D01*
X120642699Y-91947265D01*
X120558516Y-92003515D01*
X120558514Y-92003517D01*
X120502266Y-92087697D01*
X120487500Y-92161932D01*
X120487500Y-93512062D01*
X120502266Y-93586301D01*
X120512386Y-93601446D01*
X120537181Y-93674480D01*
X120537500Y-93684230D01*
X120537500Y-94529769D01*
X120517538Y-94604269D01*
X120512389Y-94612549D01*
X120502266Y-94627697D01*
X120502265Y-94627701D01*
X120487500Y-94701932D01*
X120487500Y-96052062D01*
X117169500Y-96052062D01*
X117169500Y-93512062D01*
X118587500Y-93512062D01*
X118602265Y-93586300D01*
X118658515Y-93670483D01*
X118658517Y-93670485D01*
X118742697Y-93726733D01*
X118742699Y-93726734D01*
X118816933Y-93741500D01*
X119567066Y-93741499D01*
X119641301Y-93726734D01*
X119725484Y-93670484D01*
X119781734Y-93586301D01*
X119796500Y-93512067D01*
X119796499Y-92161934D01*
X119781734Y-92087699D01*
X119771610Y-92072548D01*
X119746819Y-91999514D01*
X119746500Y-91989769D01*
X119746500Y-89748098D01*
X121025500Y-89748098D01*
X121025943Y-89761833D01*
X121039494Y-89836638D01*
X121064206Y-89909689D01*
X121094104Y-89970476D01*
X121094105Y-89970478D01*
X121278851Y-90247598D01*
X121317273Y-90292955D01*
X121366756Y-90339350D01*
X121366755Y-90339348D01*
X121386268Y-90355913D01*
X121386272Y-90355916D01*
X121477075Y-90400695D01*
X121477085Y-90400698D01*
X121514328Y-90410676D01*
X121551579Y-90420658D01*
X121551587Y-90420659D01*
X121551596Y-90420661D01*
X121618461Y-90429463D01*
X121618742Y-90429500D01*
X122258794Y-90429500D01*
X122333294Y-90449462D01*
X122364153Y-90473141D01*
X122841872Y-90950860D01*
X122841880Y-90950867D01*
X122841884Y-90950871D01*
X122854653Y-90962069D01*
X122854655Y-90962070D01*
X122888369Y-90987940D01*
X122889592Y-90989012D01*
X122892249Y-90990917D01*
X122980688Y-91034529D01*
X122983055Y-91035696D01*
X122983058Y-91035696D01*
X122983061Y-91035698D01*
X123020304Y-91045676D01*
X123057555Y-91055658D01*
X123057563Y-91055659D01*
X123057572Y-91055661D01*
X123124710Y-91064499D01*
X123124718Y-91064500D01*
X123512636Y-91064500D01*
X123587136Y-91084462D01*
X123624768Y-91115381D01*
X124263636Y-91845516D01*
X124290633Y-91876369D01*
X124324668Y-91945581D01*
X124327499Y-91974485D01*
X124327499Y-92130393D01*
X124331984Y-92178411D01*
X124331987Y-92178433D01*
X124342203Y-92232656D01*
X124345249Y-92246683D01*
X124345250Y-92246685D01*
X124388186Y-92338383D01*
X124388187Y-92338385D01*
X124388188Y-92338386D01*
X124388189Y-92338387D01*
X124433886Y-92400506D01*
X124433890Y-92400510D01*
X124480812Y-92449371D01*
X124829473Y-92728300D01*
X125022907Y-92883048D01*
X125029000Y-92887555D01*
X125030788Y-92888878D01*
X125053416Y-92904332D01*
X125132603Y-92940696D01*
X125132609Y-92940697D01*
X125132610Y-92940698D01*
X125132612Y-92940699D01*
X125177302Y-92952673D01*
X125207103Y-92960658D01*
X125207111Y-92960659D01*
X125207120Y-92960661D01*
X125274258Y-92969499D01*
X125274266Y-92969500D01*
X130407000Y-92969500D01*
X130414438Y-92968520D01*
X130474145Y-92960661D01*
X130474152Y-92960659D01*
X130474163Y-92960658D01*
X130548663Y-92940696D01*
X130580806Y-92929785D01*
X130664994Y-92873532D01*
X130692262Y-92846263D01*
X130719529Y-92818998D01*
X130719528Y-92818998D01*
X130719532Y-92818994D01*
X130741914Y-92793473D01*
X130786696Y-92702663D01*
X130806658Y-92628163D01*
X130806659Y-92628152D01*
X130806661Y-92628145D01*
X130815499Y-92561007D01*
X130815500Y-92560999D01*
X130815500Y-92097000D01*
X130815499Y-92096992D01*
X130806661Y-92029854D01*
X130806658Y-92029844D01*
X130806658Y-92029837D01*
X130786696Y-91955337D01*
X130775785Y-91923194D01*
X130719532Y-91839006D01*
X130693026Y-91812500D01*
X130664998Y-91784471D01*
X130664998Y-91784472D01*
X130664994Y-91784468D01*
X130639473Y-91762086D01*
X130548663Y-91717304D01*
X130548660Y-91717303D01*
X130548658Y-91717302D01*
X130474388Y-91697402D01*
X130407593Y-91658839D01*
X130369028Y-91592044D01*
X130369028Y-91514916D01*
X130407591Y-91448121D01*
X130446641Y-91422030D01*
X130446185Y-91421239D01*
X130454639Y-91416356D01*
X130454643Y-91416355D01*
X130570474Y-91327474D01*
X130659355Y-91211643D01*
X130659355Y-91211642D01*
X130659356Y-91211642D01*
X130715229Y-91076751D01*
X130734285Y-90932002D01*
X130734285Y-90931997D01*
X130715229Y-90787251D01*
X130715228Y-90787246D01*
X130659356Y-90652360D01*
X130659355Y-90652359D01*
X130659355Y-90652358D01*
X130570474Y-90536526D01*
X130570472Y-90536525D01*
X130570472Y-90536524D01*
X130454642Y-90447644D01*
X130454642Y-90447643D01*
X130319751Y-90391770D01*
X130175003Y-90372715D01*
X130174997Y-90372715D01*
X130030251Y-90391770D01*
X130030246Y-90391771D01*
X129895356Y-90447645D01*
X129895355Y-90447646D01*
X129883202Y-90456971D01*
X129811945Y-90486486D01*
X129735477Y-90476417D01*
X129674288Y-90429463D01*
X129644773Y-90358206D01*
X129643499Y-90338760D01*
X129643499Y-90281937D01*
X129643499Y-90281934D01*
X129628734Y-90207699D01*
X129572484Y-90123516D01*
X129572482Y-90123514D01*
X129488302Y-90067266D01*
X129414067Y-90052500D01*
X128521150Y-90052500D01*
X128446650Y-90032538D01*
X128392112Y-89978000D01*
X128372150Y-89903500D01*
X128392112Y-89829000D01*
X128426792Y-89788186D01*
X129522677Y-88891554D01*
X129556102Y-88858746D01*
X129590788Y-88817926D01*
X129598914Y-88807865D01*
X129643696Y-88717055D01*
X129663658Y-88642555D01*
X129663659Y-88642544D01*
X129663661Y-88642537D01*
X129672499Y-88575399D01*
X129672500Y-88575391D01*
X129672500Y-85270216D01*
X129671389Y-85253268D01*
X129665203Y-85206285D01*
X129665202Y-85206279D01*
X129661406Y-85195096D01*
X129653499Y-85147203D01*
X129653499Y-85115937D01*
X129653499Y-85115934D01*
X129638734Y-85041699D01*
X129582484Y-84957516D01*
X129582482Y-84957514D01*
X129498301Y-84901265D01*
X129484744Y-84895650D01*
X129485296Y-84894315D01*
X129430950Y-84867511D01*
X129423840Y-84860852D01*
X129380128Y-84817140D01*
X129367354Y-84805937D01*
X129367352Y-84805936D01*
X129367347Y-84805931D01*
X129367345Y-84805929D01*
X129333630Y-84780059D01*
X129332408Y-84778987D01*
X129329750Y-84777082D01*
X129238948Y-84732305D01*
X129238938Y-84732301D01*
X129164450Y-84712343D01*
X129164427Y-84712338D01*
X129097289Y-84703500D01*
X129097282Y-84703500D01*
X126926223Y-84703500D01*
X126926216Y-84703500D01*
X126909268Y-84704611D01*
X126862283Y-84710796D01*
X126766404Y-84743343D01*
X126699615Y-84781903D01*
X126699608Y-84781908D01*
X126645866Y-84823145D01*
X126601501Y-84867511D01*
X126473140Y-84995872D01*
X126473132Y-84995880D01*
X126473129Y-84995884D01*
X126461931Y-85008653D01*
X126461929Y-85008656D01*
X126436064Y-85042362D01*
X126434995Y-85043581D01*
X126433082Y-85046249D01*
X126388305Y-85137051D01*
X126388301Y-85137061D01*
X126368343Y-85211549D01*
X126368338Y-85211572D01*
X126359500Y-85278710D01*
X126359500Y-87968793D01*
X126339538Y-88043293D01*
X126315862Y-88074148D01*
X126301156Y-88088855D01*
X126234363Y-88127422D01*
X126195794Y-88132500D01*
X121465215Y-88132500D01*
X121448267Y-88133611D01*
X121448268Y-88133611D01*
X121401285Y-88139796D01*
X121401279Y-88139797D01*
X121305418Y-88172336D01*
X121238622Y-88210898D01*
X121238611Y-88210905D01*
X121184864Y-88252146D01*
X121139142Y-88297868D01*
X121139135Y-88297875D01*
X121127932Y-88310651D01*
X121127927Y-88310657D01*
X121099085Y-88348244D01*
X121099080Y-88348253D01*
X121054303Y-88439051D01*
X121054300Y-88439061D01*
X121034343Y-88513545D01*
X121034338Y-88513568D01*
X121025500Y-88580706D01*
X121025500Y-89748098D01*
X119746500Y-89748098D01*
X119746500Y-88109398D01*
X119766462Y-88034898D01*
X119790137Y-88004043D01*
X120411859Y-87382321D01*
X120478655Y-87343757D01*
X120517219Y-87338680D01*
X120990425Y-87338680D01*
X121064925Y-87358642D01*
X121114314Y-87404900D01*
X121156505Y-87468043D01*
X121156507Y-87468045D01*
X121240687Y-87524293D01*
X121240689Y-87524294D01*
X121314923Y-87539060D01*
X125065076Y-87539059D01*
X125139311Y-87524294D01*
X125223494Y-87468044D01*
X125279744Y-87383861D01*
X125290695Y-87328802D01*
X125324805Y-87259633D01*
X125331455Y-87252531D01*
X125494860Y-87089128D01*
X125506063Y-87076354D01*
X125506063Y-87076352D01*
X125506069Y-87076347D01*
X125506070Y-87076346D01*
X125531946Y-87042623D01*
X125533016Y-87041403D01*
X125534913Y-87038756D01*
X125534914Y-87038755D01*
X125534915Y-87038752D01*
X125534917Y-87038750D01*
X125557596Y-86992758D01*
X125579696Y-86947945D01*
X125599658Y-86873445D01*
X125599659Y-86873434D01*
X125599661Y-86873427D01*
X125608499Y-86806289D01*
X125608500Y-86806282D01*
X125608500Y-85363554D01*
X125628462Y-85289054D01*
X125642482Y-85268834D01*
X125703208Y-85195096D01*
X126750019Y-83923969D01*
X127204763Y-83371780D01*
X127267533Y-83326961D01*
X127319781Y-83317500D01*
X129613784Y-83317500D01*
X129630732Y-83316389D01*
X129654224Y-83313296D01*
X129677717Y-83310203D01*
X129773596Y-83277657D01*
X129840391Y-83239093D01*
X129894135Y-83197853D01*
X130193860Y-82898128D01*
X130205063Y-82885354D01*
X130205063Y-82885352D01*
X130205069Y-82885347D01*
X130205070Y-82885346D01*
X130230946Y-82851623D01*
X130232016Y-82850403D01*
X130233913Y-82847756D01*
X130233914Y-82847755D01*
X130233915Y-82847752D01*
X130233917Y-82847750D01*
X130256596Y-82801758D01*
X130278696Y-82756945D01*
X130298658Y-82682445D01*
X130298659Y-82682434D01*
X130298661Y-82682427D01*
X130307499Y-82615289D01*
X130307500Y-82615282D01*
X130307499Y-80179203D01*
X130327461Y-80104704D01*
X130351136Y-80073849D01*
X130492848Y-79932139D01*
X130559642Y-79893577D01*
X130598205Y-79888500D01*
X132794638Y-79888500D01*
X132804440Y-79888129D01*
X132831765Y-79886060D01*
X132916308Y-79864988D01*
X132986953Y-79834036D01*
X133044923Y-79798984D01*
X133583188Y-79368370D01*
X133617903Y-79334852D01*
X133632580Y-79317769D01*
X133653861Y-79293004D01*
X133658562Y-79287214D01*
X133662913Y-79281859D01*
X133707695Y-79191049D01*
X133727657Y-79116549D01*
X133727658Y-79116538D01*
X133727660Y-79116531D01*
X133736498Y-79049393D01*
X133736499Y-79049386D01*
X133736499Y-79047719D01*
X133736661Y-79046899D01*
X133736818Y-79044519D01*
X133737131Y-79044539D01*
X133747842Y-78990698D01*
X133751733Y-78981302D01*
X133751732Y-78981302D01*
X133751734Y-78981301D01*
X133766500Y-78907067D01*
X133766500Y-78907066D01*
X134457500Y-78907066D01*
X134472265Y-78981300D01*
X134472266Y-78981301D01*
X134491007Y-79009348D01*
X134508211Y-79044235D01*
X134527343Y-79100596D01*
X134565907Y-79167391D01*
X134607147Y-79221135D01*
X135414872Y-80028860D01*
X135414880Y-80028867D01*
X135414884Y-80028871D01*
X135427653Y-80040069D01*
X135427655Y-80040070D01*
X135461369Y-80065940D01*
X135462592Y-80067012D01*
X135465249Y-80068917D01*
X135553688Y-80112529D01*
X135556055Y-80113696D01*
X135556058Y-80113696D01*
X135556061Y-80113698D01*
X135593304Y-80123676D01*
X135630555Y-80133658D01*
X135630563Y-80133659D01*
X135630572Y-80133661D01*
X135697710Y-80142499D01*
X135697718Y-80142500D01*
X137087838Y-80142500D01*
X137162338Y-80162462D01*
X137170606Y-80167603D01*
X137215699Y-80197734D01*
X137289933Y-80212500D01*
X139570066Y-80212499D01*
X139644301Y-80197734D01*
X139689380Y-80167612D01*
X139762416Y-80142819D01*
X139772162Y-80142500D01*
X141090957Y-80142500D01*
X141120025Y-80145363D01*
X141160933Y-80153500D01*
X142811066Y-80153499D01*
X142851972Y-80145362D01*
X142881038Y-80142500D01*
X143015853Y-80142500D01*
X143090353Y-80162462D01*
X143092514Y-80163734D01*
X144231012Y-80846833D01*
X144234090Y-80848646D01*
X144298607Y-80875696D01*
X144373107Y-80895658D01*
X144373114Y-80895658D01*
X144373124Y-80895661D01*
X144440262Y-80904499D01*
X144440270Y-80904500D01*
X153616784Y-80904500D01*
X153633732Y-80903389D01*
X153657224Y-80900296D01*
X153680717Y-80897203D01*
X153776596Y-80864657D01*
X153843391Y-80826093D01*
X153897135Y-80784853D01*
X154069860Y-80612128D01*
X154081063Y-80599354D01*
X154081063Y-80599352D01*
X154081069Y-80599347D01*
X154081070Y-80599346D01*
X154106946Y-80565623D01*
X154108016Y-80564403D01*
X154109913Y-80561756D01*
X154109914Y-80561755D01*
X154109915Y-80561752D01*
X154109917Y-80561750D01*
X154132596Y-80515758D01*
X154154696Y-80470945D01*
X154174658Y-80396445D01*
X154174659Y-80396434D01*
X154174661Y-80396427D01*
X154183499Y-80329289D01*
X154183500Y-80329282D01*
X154183500Y-77269216D01*
X154182389Y-77252268D01*
X154176203Y-77205283D01*
X154164565Y-77170998D01*
X154143657Y-77109404D01*
X154105093Y-77042609D01*
X154063853Y-76988865D01*
X153764128Y-76689140D01*
X153751354Y-76677937D01*
X153751352Y-76677936D01*
X153751347Y-76677931D01*
X153751345Y-76677929D01*
X153717630Y-76652059D01*
X153716408Y-76650987D01*
X153713750Y-76649082D01*
X153622948Y-76604305D01*
X153622938Y-76604301D01*
X153548450Y-76584343D01*
X153548427Y-76584338D01*
X153481289Y-76575500D01*
X153481282Y-76575500D01*
X140211129Y-76575500D01*
X140136629Y-76555538D01*
X140082091Y-76501000D01*
X140062129Y-76426500D01*
X140082091Y-76352000D01*
X140128348Y-76302612D01*
X140144121Y-76292071D01*
X140152484Y-76286484D01*
X140208734Y-76202301D01*
X140223500Y-76128067D01*
X140223499Y-75377934D01*
X140208734Y-75303699D01*
X140152484Y-75219516D01*
X140152483Y-75219515D01*
X140152482Y-75219514D01*
X140068302Y-75163266D01*
X139994067Y-75148500D01*
X138643937Y-75148500D01*
X138569699Y-75163265D01*
X138485516Y-75219515D01*
X138485514Y-75219517D01*
X138429266Y-75303697D01*
X138414500Y-75377932D01*
X138414500Y-76128062D01*
X138429265Y-76202300D01*
X138485515Y-76286483D01*
X138485517Y-76286485D01*
X138509652Y-76302612D01*
X138560506Y-76360600D01*
X138575552Y-76436246D01*
X138550759Y-76509281D01*
X138492771Y-76560135D01*
X138426871Y-76575500D01*
X135429362Y-76575500D01*
X135419560Y-76575871D01*
X135392231Y-76577940D01*
X135307705Y-76599007D01*
X135307699Y-76599009D01*
X135237055Y-76629959D01*
X135237042Y-76629966D01*
X135179080Y-76665013D01*
X134640814Y-77095624D01*
X134606087Y-77129153D01*
X134570135Y-77170998D01*
X134561087Y-77182138D01*
X134561081Y-77182146D01*
X134516304Y-77272945D01*
X134516301Y-77272955D01*
X134496343Y-77347443D01*
X134496338Y-77347466D01*
X134487500Y-77414604D01*
X134487500Y-77416282D01*
X134487336Y-77417102D01*
X134487181Y-77419479D01*
X134486868Y-77419458D01*
X134476160Y-77473298D01*
X134472265Y-77482699D01*
X134457500Y-77556932D01*
X134457500Y-78907066D01*
X133766500Y-78907066D01*
X133766499Y-77556934D01*
X133751734Y-77482699D01*
X133732989Y-77454647D01*
X133715787Y-77419762D01*
X133696657Y-77363405D01*
X133696657Y-77363404D01*
X133658093Y-77296609D01*
X133616853Y-77242865D01*
X133190128Y-76816140D01*
X133177354Y-76804937D01*
X133177352Y-76804936D01*
X133177347Y-76804931D01*
X133177345Y-76804929D01*
X133143630Y-76779059D01*
X133142408Y-76777987D01*
X133139750Y-76776082D01*
X133048948Y-76731305D01*
X133048938Y-76731301D01*
X132974450Y-76711343D01*
X132974427Y-76711338D01*
X132907289Y-76702500D01*
X132907282Y-76702500D01*
X128843913Y-76702500D01*
X128819924Y-76704358D01*
X128803930Y-76705598D01*
X128758569Y-76712671D01*
X128752475Y-76713696D01*
X128658252Y-76750767D01*
X128658248Y-76750769D01*
X128593380Y-76792456D01*
X128593366Y-76792466D01*
X128541655Y-76836206D01*
X128541642Y-76836219D01*
X127350052Y-78146969D01*
X127350053Y-78146968D01*
X127341276Y-78157728D01*
X127341275Y-78157729D01*
X127318392Y-78189065D01*
X127318390Y-78189067D01*
X127318389Y-78189070D01*
X127277305Y-78274939D01*
X127277304Y-78274940D01*
X127257341Y-78349443D01*
X127257338Y-78349458D01*
X127248500Y-78416596D01*
X127248499Y-78416603D01*
X127248500Y-79840793D01*
X127228538Y-79915293D01*
X127204859Y-79946152D01*
X125920153Y-81230859D01*
X125853358Y-81269423D01*
X125814794Y-81274500D01*
X124513216Y-81274500D01*
X124496268Y-81275611D01*
X124449283Y-81281796D01*
X124353404Y-81314343D01*
X124286615Y-81352903D01*
X124286608Y-81352908D01*
X124232866Y-81394145D01*
X124146497Y-81480514D01*
X124060140Y-81566872D01*
X124060132Y-81566880D01*
X124060129Y-81566884D01*
X124048931Y-81579653D01*
X124048929Y-81579656D01*
X124023064Y-81613362D01*
X124021995Y-81614581D01*
X124020082Y-81617249D01*
X123975305Y-81708051D01*
X123975301Y-81708061D01*
X123955343Y-81782549D01*
X123955338Y-81782572D01*
X123946500Y-81849710D01*
X123946500Y-82162957D01*
X123943637Y-82192025D01*
X123935500Y-82232932D01*
X123935500Y-83883065D01*
X123940437Y-83907886D01*
X123943637Y-83923974D01*
X123946500Y-83953037D01*
X123946500Y-84031794D01*
X123926538Y-84106294D01*
X123902859Y-84137153D01*
X123761153Y-84278859D01*
X123694358Y-84317423D01*
X123655794Y-84322500D01*
X121719216Y-84322500D01*
X121702268Y-84323611D01*
X121655283Y-84329796D01*
X121559404Y-84362343D01*
X121492615Y-84400903D01*
X121492608Y-84400908D01*
X121438866Y-84442145D01*
X121225497Y-84655514D01*
X121012140Y-84868872D01*
X121012132Y-84868880D01*
X121012129Y-84868884D01*
X121000931Y-84881653D01*
X121000929Y-84881656D01*
X120975064Y-84915362D01*
X120973995Y-84916581D01*
X120972082Y-84919249D01*
X120927305Y-85010051D01*
X120927301Y-85010061D01*
X120907343Y-85084549D01*
X120907338Y-85084572D01*
X120898500Y-85151710D01*
X120898500Y-86080680D01*
X120878538Y-86155180D01*
X120824000Y-86209718D01*
X120749500Y-86229680D01*
X120235283Y-86229680D01*
X120168581Y-86227401D01*
X120168580Y-86227401D01*
X120125866Y-86237810D01*
X120118369Y-86239235D01*
X120074808Y-86245223D01*
X120074805Y-86245224D01*
X120060112Y-86251606D01*
X120036045Y-86259699D01*
X120020492Y-86263489D01*
X120020484Y-86263493D01*
X119982169Y-86285036D01*
X119975334Y-86288431D01*
X119935002Y-86305949D01*
X119922571Y-86316062D01*
X119901579Y-86330348D01*
X119887626Y-86338194D01*
X119887622Y-86338196D01*
X119856533Y-86369284D01*
X119850869Y-86374396D01*
X119816764Y-86402143D01*
X119816760Y-86402147D01*
X119807524Y-86415231D01*
X119791160Y-86434657D01*
X119419536Y-86806282D01*
X118806607Y-87419211D01*
X118782215Y-87441991D01*
X118757824Y-87464771D01*
X118757823Y-87464773D01*
X118734981Y-87502335D01*
X118730687Y-87508643D01*
X118704121Y-87543676D01*
X118704117Y-87543684D01*
X118698239Y-87558588D01*
X118686947Y-87581323D01*
X118678626Y-87595008D01*
X118678625Y-87595010D01*
X118666761Y-87637346D01*
X118664330Y-87644575D01*
X118648200Y-87685479D01*
X118648200Y-87685481D01*
X118646563Y-87701407D01*
X118641821Y-87726360D01*
X118637501Y-87741779D01*
X118637500Y-87741788D01*
X118637500Y-87785748D01*
X118637109Y-87793371D01*
X118632613Y-87837109D01*
X118635333Y-87852883D01*
X118637500Y-87878202D01*
X118637499Y-91989769D01*
X118617537Y-92064269D01*
X118612390Y-92072546D01*
X118602267Y-92087696D01*
X118602265Y-92087701D01*
X118587500Y-92161932D01*
X118587500Y-93512062D01*
X117169500Y-93512062D01*
X117169500Y-74228062D01*
X138414500Y-74228062D01*
X138429265Y-74302300D01*
X138485515Y-74386483D01*
X138485517Y-74386485D01*
X138569697Y-74442733D01*
X138569699Y-74442734D01*
X138643933Y-74457500D01*
X139994066Y-74457499D01*
X140068301Y-74442734D01*
X140152484Y-74386484D01*
X140208734Y-74302301D01*
X140223500Y-74228067D01*
X140223499Y-73477934D01*
X140208734Y-73403699D01*
X140152484Y-73319516D01*
X140152483Y-73319515D01*
X140152482Y-73319514D01*
X140068302Y-73263266D01*
X139994067Y-73248500D01*
X139872500Y-73248500D01*
X139798000Y-73228538D01*
X139743462Y-73174000D01*
X139723500Y-73099500D01*
X139723500Y-72585463D01*
X139731609Y-72544695D01*
X139729701Y-72544184D01*
X139732226Y-72534758D01*
X139732228Y-72534754D01*
X139751285Y-72390000D01*
X139732228Y-72245246D01*
X139676355Y-72110358D01*
X139587474Y-71994526D01*
X139587472Y-71994525D01*
X139587472Y-71994524D01*
X139471642Y-71905644D01*
X139471642Y-71905643D01*
X139336751Y-71849770D01*
X139192003Y-71830715D01*
X139191997Y-71830715D01*
X139047251Y-71849770D01*
X139047246Y-71849771D01*
X138912360Y-71905643D01*
X138796526Y-71994526D01*
X138707643Y-72110360D01*
X138651771Y-72245246D01*
X138651770Y-72245251D01*
X138632715Y-72389997D01*
X138632715Y-72390002D01*
X138651770Y-72534751D01*
X138707644Y-72669642D01*
X138707645Y-72669643D01*
X138796526Y-72785474D01*
X138856206Y-72831268D01*
X138903158Y-72892457D01*
X138914500Y-72949477D01*
X138914500Y-73099500D01*
X138894538Y-73174000D01*
X138840000Y-73228538D01*
X138765501Y-73248500D01*
X138643936Y-73248500D01*
X138569699Y-73263265D01*
X138485516Y-73319515D01*
X138485514Y-73319517D01*
X138429266Y-73403697D01*
X138414500Y-73477932D01*
X138414500Y-74228062D01*
X117169500Y-74228062D01*
X117169500Y-66518500D01*
X117189462Y-66444000D01*
X117244000Y-66389462D01*
X117318500Y-66369500D01*
X157001500Y-66369500D01*
X157076000Y-66389462D01*
G37*
%TD.AperFunction*%
%TD*%
%TA.AperFunction,Conductor*%
%TO.N,+12V*%
G36*
X153428782Y-92094962D02*
G01*
X153459641Y-92118641D01*
X153880359Y-92539359D01*
X153918923Y-92606154D01*
X153924000Y-92644718D01*
X153924000Y-95327333D01*
X153904038Y-95401833D01*
X153894200Y-95416733D01*
X153587700Y-95825400D01*
X153527030Y-95873023D01*
X153468500Y-95885000D01*
X141732000Y-95885000D01*
X141097000Y-96520000D01*
X141097000Y-98617282D01*
X141077038Y-98691782D01*
X141053359Y-98722641D01*
X140378641Y-99397359D01*
X140311846Y-99435923D01*
X140273282Y-99441000D01*
X138198000Y-99441000D01*
X138123500Y-99421038D01*
X138068962Y-99366500D01*
X138049000Y-99292000D01*
X138049000Y-95123000D01*
X137922001Y-94996001D01*
X136779000Y-93980000D01*
X134261000Y-93980000D01*
X134186500Y-93960038D01*
X134131962Y-93905500D01*
X134112000Y-93831000D01*
X134112000Y-93367000D01*
X134131962Y-93292500D01*
X134186500Y-93237962D01*
X134261000Y-93218000D01*
X136398000Y-93218000D01*
X137497359Y-92118641D01*
X137564154Y-92080077D01*
X137602718Y-92075000D01*
X153354282Y-92075000D01*
X153428782Y-92094962D01*
G37*
%TD.AperFunction*%
%TD*%
%TA.AperFunction,Conductor*%
%TO.N,+5V*%
G36*
X153555782Y-76854962D02*
G01*
X153586641Y-76878641D01*
X153880359Y-77172359D01*
X153918923Y-77239154D01*
X153924000Y-77277718D01*
X153924000Y-80329282D01*
X153904038Y-80403782D01*
X153880359Y-80434641D01*
X153713641Y-80601359D01*
X153646846Y-80639923D01*
X153608282Y-80645000D01*
X144440270Y-80645000D01*
X144365770Y-80625038D01*
X144363610Y-80623766D01*
X143129000Y-79883000D01*
X135697718Y-79883000D01*
X135623218Y-79863038D01*
X135592359Y-79839359D01*
X134790641Y-79037641D01*
X134752077Y-78970846D01*
X134747000Y-78932282D01*
X134747000Y-77414612D01*
X134766962Y-77340112D01*
X134802917Y-77298265D01*
X135341188Y-76867649D01*
X135411832Y-76836699D01*
X135434266Y-76835000D01*
X153481282Y-76835000D01*
X153555782Y-76854962D01*
G37*
%TD.AperFunction*%
%TD*%
%TA.AperFunction,Conductor*%
%TO.N,Net-(C7-Pad1)*%
G36*
X129171782Y-84982962D02*
G01*
X129202641Y-85006641D01*
X129369359Y-85173359D01*
X129407923Y-85240154D01*
X129413000Y-85278718D01*
X129413000Y-88575392D01*
X129393038Y-88649892D01*
X129358352Y-88690712D01*
X128057164Y-89755320D01*
X127986864Y-89787046D01*
X127962812Y-89789000D01*
X127762000Y-89789000D01*
X127381000Y-90170000D01*
X127381000Y-91821000D01*
X127508000Y-91948000D01*
X130407000Y-91948000D01*
X130481500Y-91967962D01*
X130536038Y-92022500D01*
X130556000Y-92097000D01*
X130556000Y-92561000D01*
X130536038Y-92635500D01*
X130481500Y-92690038D01*
X130407000Y-92710000D01*
X125274266Y-92710000D01*
X125199766Y-92690038D01*
X125181186Y-92677349D01*
X124642920Y-92246736D01*
X124597216Y-92184609D01*
X124587000Y-92130387D01*
X124587000Y-91821000D01*
X124586999Y-91820998D01*
X123698000Y-90805000D01*
X123124718Y-90805000D01*
X123050218Y-90785038D01*
X123019359Y-90761359D01*
X122428000Y-90170000D01*
X121618742Y-90170000D01*
X121544242Y-90150038D01*
X121494767Y-90103651D01*
X121310022Y-89826533D01*
X121285308Y-89753477D01*
X121285000Y-89743918D01*
X121285000Y-88580714D01*
X121304961Y-88506218D01*
X121328637Y-88475362D01*
X121368360Y-88435639D01*
X121435156Y-88397077D01*
X121473718Y-88392000D01*
X126365000Y-88392000D01*
X126619000Y-88138000D01*
X126619000Y-85278718D01*
X126638962Y-85204218D01*
X126662641Y-85173359D01*
X126829359Y-85006641D01*
X126896154Y-84968077D01*
X126934718Y-84963000D01*
X129097282Y-84963000D01*
X129171782Y-84982962D01*
G37*
%TD.AperFunction*%
%TD*%
%TA.AperFunction,Conductor*%
%TO.N,Net-(C8-Pad1)*%
G36*
X132981782Y-76981962D02*
G01*
X133012641Y-77005641D01*
X133433359Y-77426359D01*
X133471923Y-77493154D01*
X133477000Y-77531718D01*
X133476999Y-79049386D01*
X133457037Y-79123886D01*
X133421079Y-79165735D01*
X132882814Y-79596349D01*
X132812169Y-79627301D01*
X132789734Y-79629000D01*
X130429000Y-79629000D01*
X130048000Y-80009999D01*
X130048000Y-82615282D01*
X130028038Y-82689782D01*
X130004359Y-82720641D01*
X129710641Y-83014359D01*
X129643846Y-83052923D01*
X129605282Y-83058000D01*
X127127000Y-83058000D01*
X125349000Y-85216999D01*
X125349000Y-86806282D01*
X125329038Y-86880782D01*
X125305359Y-86911641D01*
X125011641Y-87205359D01*
X124944846Y-87243923D01*
X124906282Y-87249000D01*
X121434000Y-87249000D01*
X121359500Y-87229038D01*
X121304962Y-87174500D01*
X121298042Y-87148677D01*
X121296342Y-87149382D01*
X121284999Y-87121997D01*
X121201641Y-87038639D01*
X121163077Y-86971844D01*
X121158000Y-86933281D01*
X121158000Y-85151718D01*
X121177962Y-85077218D01*
X121201641Y-85046359D01*
X121622359Y-84625641D01*
X121689154Y-84587077D01*
X121727718Y-84582000D01*
X123825000Y-84582000D01*
X124206000Y-84201000D01*
X124206000Y-81849718D01*
X124225962Y-81775218D01*
X124249641Y-81744359D01*
X124416359Y-81577641D01*
X124483154Y-81539077D01*
X124521718Y-81534000D01*
X125984000Y-81534000D01*
X127508000Y-80010000D01*
X127508000Y-78416604D01*
X127527962Y-78342104D01*
X127546749Y-78316376D01*
X128733662Y-77010772D01*
X128798547Y-76969074D01*
X128843913Y-76962000D01*
X132907282Y-76962000D01*
X132981782Y-76981962D01*
G37*
%TD.AperFunction*%
%TD*%
M02*
