M48
; DRILL file {KiCad 7.0.7-7.0.7~ubuntu23.04.1} date Sun Sep 17 11:12:04 2023
; FORMAT={3:3/ absolute / metric / suppress leading zeros}
; #@! TF.CreationDate,2023-09-17T11:12:04+00:00
; #@! TF.GenerationSoftware,Kicad,Pcbnew,7.0.7-7.0.7~ubuntu23.04.1
; #@! TF.FileFunction,Plated,1,2,PTH
FMAT,2
METRIC,TZ
; #@! TA.AperFunction,Plated,PTH,ViaDrill
T1C0.300
; #@! TA.AperFunction,Plated,PTH,ComponentDrill
T2C0.300
; #@! TA.AperFunction,Plated,PTH,ComponentDrill
T3C0.800
; #@! TA.AperFunction,Plated,PTH,ComponentDrill
T4C1.016
; #@! TA.AperFunction,Plated,PTH,ComponentDrill
T5C1.300
; #@! TA.AperFunction,Plated,PTH,ComponentDrill
T6C3.200
%
G90
G05
T1
X119192Y-95377
X121690Y-83058
X122682Y-91710
X126492Y-93726
X130175Y-90932
X132588Y-83566
X133096Y-85725
X133096Y-86868
X133096Y-88138
X133112Y-98298
X133858Y-83566
X134493Y-90932
X135001Y-83566
X136017Y-81534
X136017Y-82550
X137160Y-83693
X137287Y-85598
X137287Y-86741
X137287Y-88265
X138430Y-83693
X139192Y-72390
X139700Y-83693
X141224Y-86360
X141224Y-87249
X141224Y-88265
X141478Y-90567
X141986Y-82399
X143383Y-90678
T2
X131763Y-93027
X131763Y-94234
X131763Y-95377
X132842Y-94234
X132842Y-95377
X132906Y-93027
T3
X138811Y-98806
X138811Y-101306
T4
X130429Y-101473
T5
X146558Y-78740
X146558Y-83820
X146558Y-88900
X146558Y-93980
X151558Y-78740
X151558Y-83820
X151558Y-88900
X151558Y-93980
T6
X121920Y-71120
X121920Y-101600
X152400Y-71120
X152400Y-101600
T0
M30
