%TF.GenerationSoftware,KiCad,Pcbnew,7.0.7-7.0.7~ubuntu23.04.1*%
%TF.CreationDate,2023-09-17T11:12:04+00:00*%
%TF.ProjectId,STEPDOWN02,53544550-444f-4574-9e30-322e6b696361,rev?*%
%TF.SameCoordinates,Original*%
%TF.FileFunction,Copper,L1,Top*%
%TF.FilePolarity,Positive*%
%FSLAX46Y46*%
G04 Gerber Fmt 4.6, Leading zero omitted, Abs format (unit mm)*
G04 Created by KiCad (PCBNEW 7.0.7-7.0.7~ubuntu23.04.1) date 2023-09-17 11:12:04*
%MOMM*%
%LPD*%
G01*
G04 APERTURE LIST*
%TA.AperFunction,ComponentPad*%
%ADD10C,5.600000*%
%TD*%
%TA.AperFunction,ComponentPad*%
%ADD11R,3.810000X3.810000*%
%TD*%
%TA.AperFunction,ComponentPad*%
%ADD12R,2.235200X2.235200*%
%TD*%
%TA.AperFunction,ComponentPad*%
%ADD13R,1.300000X1.300000*%
%TD*%
%TA.AperFunction,ComponentPad*%
%ADD14C,1.300000*%
%TD*%
%TA.AperFunction,SMDPad,CuDef*%
%ADD15R,1.198880X1.198880*%
%TD*%
%TA.AperFunction,ComponentPad*%
%ADD16C,0.600000*%
%TD*%
%TA.AperFunction,ViaPad*%
%ADD17C,0.600000*%
%TD*%
%TA.AperFunction,Conductor*%
%ADD18C,1.000000*%
%TD*%
%TA.AperFunction,Conductor*%
%ADD19C,0.300000*%
%TD*%
G04 APERTURE END LIST*
D10*
%TO.P,P1,1*%
%TO.N,GND*%
X121920000Y-71120000D03*
%TD*%
%TO.P,P2,1*%
%TO.N,GND*%
X152400000Y-71120000D03*
%TD*%
%TO.P,P3,1*%
%TO.N,GND*%
X121920000Y-101600000D03*
%TD*%
%TO.P,P4,1*%
%TO.N,GND*%
X152400000Y-101600000D03*
%TD*%
D11*
%TO.P,J1,1*%
%TO.N,+12V*%
X151558000Y-93980000D03*
X146558000Y-93980000D03*
%TD*%
%TO.P,J2,1*%
%TO.N,GND*%
X151558000Y-88900000D03*
X146558000Y-88900000D03*
%TD*%
%TO.P,J3,1*%
%TO.N,+5V*%
X151558000Y-78740000D03*
X146558000Y-78740000D03*
%TD*%
%TO.P,J4,1*%
%TO.N,GND*%
X151558000Y-83820000D03*
X146558000Y-83820000D03*
%TD*%
D12*
%TO.P,P5,1*%
%TO.N,/ENABLE*%
X130429000Y-101473000D03*
%TD*%
D13*
%TO.P,C12,1*%
%TO.N,+12V*%
X138811000Y-98806000D03*
D14*
%TO.P,C12,2*%
%TO.N,GND*%
X138811000Y-101306000D03*
%TD*%
D15*
%TO.P,D2,1*%
%TO.N,GND*%
X135602980Y-71120000D03*
%TO.P,D2,2*%
%TO.N,Net-(D2-Pad2)*%
X137701020Y-71120000D03*
%TD*%
D16*
%TO.P,U1,9*%
%TO.N,GND*%
X132905500Y-93027500D03*
X132842000Y-95377000D03*
X132842000Y-94234000D03*
X131762500Y-95377000D03*
X131762500Y-94234000D03*
X131762500Y-93027500D03*
%TD*%
D17*
%TO.N,GND*%
X137160000Y-83693000D03*
X133096000Y-88138000D03*
X137287000Y-86741000D03*
X121690000Y-83058000D03*
X143383000Y-90678000D03*
X136017000Y-82550000D03*
X133096000Y-86868000D03*
X135001000Y-83566000D03*
X137287000Y-88265000D03*
X139700000Y-83693000D03*
X133858000Y-83566000D03*
X133096000Y-85725000D03*
X141224000Y-86360000D03*
X141478000Y-90567000D03*
X141224000Y-87249000D03*
X136017000Y-81534000D03*
X126492000Y-93726000D03*
X137287000Y-85598000D03*
X138430000Y-83693000D03*
X119192000Y-95377000D03*
X141224000Y-88265000D03*
X141986000Y-82399000D03*
X132588000Y-83566000D03*
X133112000Y-98298000D03*
X122682000Y-91710000D03*
%TO.N,Net-(C7-Pad2)*%
X130175000Y-90932000D03*
X134493000Y-90932000D03*
%TO.N,Net-(D2-Pad2)*%
X139192000Y-72390000D03*
%TD*%
D18*
%TO.N,GND*%
X133112000Y-98298000D02*
X133096000Y-98298000D01*
X122682000Y-91710000D02*
X122682000Y-91694000D01*
D19*
X138430000Y-83693000D02*
X137160000Y-83693000D01*
X133858000Y-83566000D02*
X135001000Y-83566000D01*
X121690000Y-83058000D02*
X121666000Y-83058000D01*
X133096000Y-86868000D02*
X133096000Y-85725000D01*
X137287000Y-86741000D02*
X137287000Y-85598000D01*
X136017000Y-81534000D02*
X136017000Y-82550000D01*
X119192000Y-95377000D02*
X119253000Y-95377000D01*
X141224000Y-87249000D02*
X141224000Y-86360000D01*
X141478000Y-90567000D02*
X141478000Y-90551000D01*
X141986000Y-82399000D02*
X141986000Y-82423000D01*
%TO.N,Net-(C7-Pad2)*%
X130175000Y-90932000D02*
X134493000Y-90932000D01*
%TO.N,Net-(D2-Pad2)*%
X139192000Y-72390000D02*
X139192000Y-71628000D01*
X139192000Y-71628000D02*
X138684000Y-71120000D01*
X138684000Y-71120000D02*
X137701020Y-71120000D01*
%TD*%
%TA.AperFunction,Conductor*%
%TO.N,GND*%
G36*
X157076000Y-66389462D02*
G01*
X157130538Y-66444000D01*
X157150500Y-66518500D01*
X157150500Y-106201500D01*
X157130538Y-106276000D01*
X157076000Y-106330538D01*
X157001500Y-106350500D01*
X117318500Y-106350500D01*
X117244000Y-106330538D01*
X117189462Y-106276000D01*
X117169500Y-106201500D01*
X117169500Y-102615662D01*
X129056900Y-102615662D01*
X129071665Y-102689900D01*
X129127915Y-102774083D01*
X129127917Y-102774085D01*
X129212097Y-102830333D01*
X129212099Y-102830334D01*
X129286333Y-102845100D01*
X131571666Y-102845099D01*
X131645901Y-102830334D01*
X131730084Y-102774084D01*
X131786334Y-102689901D01*
X131801100Y-102615667D01*
X131801099Y-100330334D01*
X131786334Y-100256099D01*
X131730084Y-100171916D01*
X131730083Y-100171915D01*
X131730082Y-100171914D01*
X131645902Y-100115666D01*
X131571667Y-100100900D01*
X129286337Y-100100900D01*
X129212099Y-100115665D01*
X129127916Y-100171915D01*
X129127914Y-100171917D01*
X129071666Y-100256097D01*
X129056900Y-100330332D01*
X129056900Y-102615662D01*
X117169500Y-102615662D01*
X117169500Y-99481062D01*
X137906500Y-99481062D01*
X137921265Y-99555300D01*
X137977515Y-99639483D01*
X137977517Y-99639485D01*
X138061697Y-99695733D01*
X138061699Y-99695734D01*
X138135933Y-99710500D01*
X139486066Y-99710499D01*
X139560301Y-99695734D01*
X139644484Y-99639484D01*
X139700734Y-99555301D01*
X139715500Y-99481067D01*
X139715499Y-98130934D01*
X139700734Y-98056699D01*
X139644484Y-97972516D01*
X139644483Y-97972515D01*
X139644482Y-97972514D01*
X139560302Y-97916266D01*
X139486067Y-97901500D01*
X138135937Y-97901500D01*
X138061699Y-97916265D01*
X137977516Y-97972515D01*
X137977514Y-97972517D01*
X137921266Y-98056697D01*
X137906500Y-98130932D01*
X137906500Y-99481062D01*
X117169500Y-99481062D01*
X117169500Y-95910062D01*
X144398500Y-95910062D01*
X144413265Y-95984300D01*
X144469515Y-96068483D01*
X144469517Y-96068485D01*
X144553697Y-96124733D01*
X144553699Y-96124734D01*
X144627933Y-96139500D01*
X148488066Y-96139499D01*
X148562301Y-96124734D01*
X148646484Y-96068484D01*
X148702734Y-95984301D01*
X148717500Y-95910067D01*
X148717500Y-95910062D01*
X149398500Y-95910062D01*
X149413265Y-95984300D01*
X149469515Y-96068483D01*
X149469517Y-96068485D01*
X149553697Y-96124733D01*
X149553699Y-96124734D01*
X149627933Y-96139500D01*
X153488066Y-96139499D01*
X153562301Y-96124734D01*
X153646484Y-96068484D01*
X153702734Y-95984301D01*
X153717500Y-95910067D01*
X153717499Y-92049934D01*
X153702734Y-91975699D01*
X153646484Y-91891516D01*
X153646483Y-91891515D01*
X153646482Y-91891514D01*
X153562302Y-91835266D01*
X153488067Y-91820500D01*
X149627937Y-91820500D01*
X149553699Y-91835265D01*
X149469516Y-91891515D01*
X149469514Y-91891517D01*
X149413266Y-91975697D01*
X149398500Y-92049932D01*
X149398500Y-95910062D01*
X148717500Y-95910062D01*
X148717499Y-92049934D01*
X148702734Y-91975699D01*
X148646484Y-91891516D01*
X148646483Y-91891515D01*
X148646482Y-91891514D01*
X148562302Y-91835266D01*
X148488067Y-91820500D01*
X144627937Y-91820500D01*
X144553699Y-91835265D01*
X144469516Y-91891515D01*
X144469514Y-91891517D01*
X144413266Y-91975697D01*
X144398500Y-92049932D01*
X144398500Y-95910062D01*
X117169500Y-95910062D01*
X117169500Y-90932002D01*
X129615715Y-90932002D01*
X129634770Y-91076751D01*
X129690644Y-91211642D01*
X129779524Y-91327472D01*
X129779527Y-91327475D01*
X129895357Y-91416355D01*
X129895357Y-91416356D01*
X130030248Y-91472229D01*
X130174997Y-91491285D01*
X130175000Y-91491285D01*
X130175003Y-91491285D01*
X130319751Y-91472229D01*
X130319753Y-91472228D01*
X130319754Y-91472228D01*
X130362966Y-91454328D01*
X130454637Y-91416358D01*
X130454638Y-91416356D01*
X130454643Y-91416355D01*
X130518586Y-91367289D01*
X130589841Y-91337775D01*
X130609290Y-91336500D01*
X134058710Y-91336500D01*
X134133210Y-91356462D01*
X134149407Y-91367284D01*
X134213357Y-91416355D01*
X134213359Y-91416355D01*
X134213362Y-91416358D01*
X134348248Y-91472229D01*
X134492997Y-91491285D01*
X134493000Y-91491285D01*
X134493003Y-91491285D01*
X134637751Y-91472229D01*
X134637753Y-91472228D01*
X134637754Y-91472228D01*
X134677260Y-91455864D01*
X134772642Y-91416356D01*
X134772642Y-91416355D01*
X134772643Y-91416355D01*
X134888474Y-91327474D01*
X134977355Y-91211643D01*
X134977355Y-91211642D01*
X134977356Y-91211642D01*
X135033229Y-91076751D01*
X135052285Y-90932002D01*
X135052285Y-90931997D01*
X135033229Y-90787251D01*
X135033228Y-90787246D01*
X134977356Y-90652360D01*
X134977355Y-90652359D01*
X134977355Y-90652358D01*
X134888474Y-90536526D01*
X134888472Y-90536525D01*
X134888472Y-90536524D01*
X134772642Y-90447644D01*
X134772642Y-90447643D01*
X134637751Y-90391770D01*
X134493003Y-90372715D01*
X134492997Y-90372715D01*
X134348251Y-90391770D01*
X134348246Y-90391771D01*
X134213357Y-90447644D01*
X134149416Y-90496709D01*
X134078159Y-90526225D01*
X134058710Y-90527500D01*
X130609290Y-90527500D01*
X130534790Y-90507538D01*
X130518592Y-90496715D01*
X130454643Y-90447645D01*
X130454641Y-90447644D01*
X130454637Y-90447641D01*
X130319751Y-90391770D01*
X130175003Y-90372715D01*
X130174997Y-90372715D01*
X130030251Y-90391770D01*
X130030246Y-90391771D01*
X129895360Y-90447643D01*
X129779526Y-90536526D01*
X129690643Y-90652360D01*
X129634771Y-90787246D01*
X129634770Y-90787251D01*
X129615715Y-90931997D01*
X129615715Y-90932002D01*
X117169500Y-90932002D01*
X117169500Y-80670062D01*
X144398500Y-80670062D01*
X144413265Y-80744300D01*
X144469515Y-80828483D01*
X144469517Y-80828485D01*
X144553697Y-80884733D01*
X144553699Y-80884734D01*
X144627933Y-80899500D01*
X148488066Y-80899499D01*
X148562301Y-80884734D01*
X148646484Y-80828484D01*
X148702734Y-80744301D01*
X148717500Y-80670067D01*
X148717500Y-80670062D01*
X149398500Y-80670062D01*
X149413265Y-80744300D01*
X149469515Y-80828483D01*
X149469517Y-80828485D01*
X149553697Y-80884733D01*
X149553699Y-80884734D01*
X149627933Y-80899500D01*
X153488066Y-80899499D01*
X153562301Y-80884734D01*
X153646484Y-80828484D01*
X153702734Y-80744301D01*
X153717500Y-80670067D01*
X153717499Y-76809934D01*
X153702734Y-76735699D01*
X153646484Y-76651516D01*
X153646483Y-76651515D01*
X153646482Y-76651514D01*
X153562302Y-76595266D01*
X153488067Y-76580500D01*
X149627937Y-76580500D01*
X149553699Y-76595265D01*
X149469516Y-76651515D01*
X149469514Y-76651517D01*
X149413266Y-76735697D01*
X149398500Y-76809932D01*
X149398500Y-80670062D01*
X148717500Y-80670062D01*
X148717499Y-76809934D01*
X148702734Y-76735699D01*
X148646484Y-76651516D01*
X148646483Y-76651515D01*
X148646482Y-76651514D01*
X148562302Y-76595266D01*
X148488067Y-76580500D01*
X144627937Y-76580500D01*
X144553699Y-76595265D01*
X144469516Y-76651515D01*
X144469514Y-76651517D01*
X144413266Y-76735697D01*
X144398500Y-76809932D01*
X144398500Y-80670062D01*
X117169500Y-80670062D01*
X117169500Y-71744502D01*
X136847080Y-71744502D01*
X136861845Y-71818740D01*
X136918095Y-71902923D01*
X136918097Y-71902925D01*
X137002277Y-71959173D01*
X137002279Y-71959174D01*
X137076513Y-71973940D01*
X138325526Y-71973939D01*
X138399761Y-71959174D01*
X138483944Y-71902924D01*
X138514611Y-71857027D01*
X138572599Y-71806174D01*
X138648245Y-71791127D01*
X138721280Y-71815919D01*
X138772134Y-71873907D01*
X138787500Y-71939808D01*
X138787500Y-71955709D01*
X138767538Y-72030209D01*
X138756711Y-72046413D01*
X138707643Y-72110360D01*
X138651771Y-72245246D01*
X138651770Y-72245251D01*
X138632715Y-72389997D01*
X138632715Y-72390002D01*
X138651770Y-72534751D01*
X138707644Y-72669642D01*
X138796524Y-72785472D01*
X138796527Y-72785475D01*
X138912357Y-72874355D01*
X138912357Y-72874356D01*
X139047248Y-72930229D01*
X139191997Y-72949285D01*
X139192000Y-72949285D01*
X139192003Y-72949285D01*
X139336751Y-72930229D01*
X139336753Y-72930228D01*
X139336754Y-72930228D01*
X139376260Y-72913863D01*
X139471642Y-72874356D01*
X139471642Y-72874355D01*
X139471643Y-72874355D01*
X139587474Y-72785474D01*
X139676355Y-72669643D01*
X139676355Y-72669642D01*
X139676356Y-72669642D01*
X139732229Y-72534751D01*
X139751285Y-72390002D01*
X139751285Y-72389997D01*
X139732229Y-72245251D01*
X139732228Y-72245246D01*
X139676356Y-72110360D01*
X139676355Y-72110359D01*
X139676355Y-72110358D01*
X139627289Y-72046413D01*
X139597775Y-71975156D01*
X139596500Y-71955709D01*
X139596500Y-71593373D01*
X139596499Y-71593343D01*
X139596499Y-71563935D01*
X139596499Y-71563934D01*
X139590162Y-71544432D01*
X139584706Y-71521703D01*
X139581498Y-71501445D01*
X139572187Y-71483172D01*
X139563240Y-71461572D01*
X139556903Y-71442069D01*
X139544849Y-71425478D01*
X139532636Y-71405548D01*
X139530251Y-71400869D01*
X139523326Y-71387277D01*
X139432723Y-71296674D01*
X138947515Y-70811465D01*
X138947514Y-70811464D01*
X138943776Y-70807726D01*
X138943775Y-70807726D01*
X138924724Y-70788675D01*
X138924723Y-70788674D01*
X138906453Y-70779365D01*
X138886521Y-70767150D01*
X138869930Y-70755095D01*
X138850420Y-70748756D01*
X138828821Y-70739809D01*
X138810556Y-70730502D01*
X138802488Y-70729224D01*
X138790293Y-70727292D01*
X138767573Y-70721837D01*
X138748067Y-70715500D01*
X138748066Y-70715500D01*
X138715834Y-70715500D01*
X138703959Y-70715500D01*
X138629459Y-70695538D01*
X138574921Y-70641000D01*
X138554959Y-70566500D01*
X138554959Y-70495497D01*
X138554959Y-70495496D01*
X138554959Y-70495494D01*
X138540194Y-70421259D01*
X138483944Y-70337076D01*
X138483943Y-70337075D01*
X138483942Y-70337074D01*
X138399762Y-70280826D01*
X138325527Y-70266060D01*
X137076517Y-70266060D01*
X137002279Y-70280825D01*
X136918096Y-70337075D01*
X136918094Y-70337077D01*
X136861846Y-70421257D01*
X136847080Y-70495492D01*
X136847080Y-71744502D01*
X117169500Y-71744502D01*
X117169500Y-66518500D01*
X117189462Y-66444000D01*
X117244000Y-66389462D01*
X117318500Y-66369500D01*
X157001500Y-66369500D01*
X157076000Y-66389462D01*
G37*
%TD.AperFunction*%
%TD*%
M02*
