%TF.GenerationSoftware,KiCad,Pcbnew,7.0.7-7.0.7~ubuntu23.04.1*%
%TF.CreationDate,2023-09-17T11:12:04+00:00*%
%TF.ProjectId,STEPDOWN02,53544550-444f-4574-9e30-322e6b696361,rev?*%
%TF.SameCoordinates,Original*%
%TF.FileFunction,Soldermask,Bot*%
%TF.FilePolarity,Negative*%
%FSLAX46Y46*%
G04 Gerber Fmt 4.6, Leading zero omitted, Abs format (unit mm)*
G04 Created by KiCad (PCBNEW 7.0.7-7.0.7~ubuntu23.04.1) date 2023-09-17 11:12:04*
%MOMM*%
%LPD*%
G01*
G04 APERTURE LIST*
G04 Aperture macros list*
%AMRoundRect*
0 Rectangle with rounded corners*
0 $1 Rounding radius*
0 $2 $3 $4 $5 $6 $7 $8 $9 X,Y pos of 4 corners*
0 Add a 4 corners polygon primitive as box body*
4,1,4,$2,$3,$4,$5,$6,$7,$8,$9,$2,$3,0*
0 Add four circle primitives for the rounded corners*
1,1,$1+$1,$2,$3*
1,1,$1+$1,$4,$5*
1,1,$1+$1,$6,$7*
1,1,$1+$1,$8,$9*
0 Add four rect primitives between the rounded corners*
20,1,$1+$1,$2,$3,$4,$5,0*
20,1,$1+$1,$4,$5,$6,$7,0*
20,1,$1+$1,$6,$7,$8,$9,0*
20,1,$1+$1,$8,$9,$2,$3,0*%
G04 Aperture macros list end*
%ADD10C,6.000000*%
%ADD11RoundRect,0.200000X-1.905000X1.905000X-1.905000X-1.905000X1.905000X-1.905000X1.905000X1.905000X0*%
%ADD12RoundRect,0.200000X-1.117600X-1.117600X1.117600X-1.117600X1.117600X1.117600X-1.117600X1.117600X0*%
%ADD13RoundRect,0.200000X-0.650000X0.650000X-0.650000X-0.650000X0.650000X-0.650000X0.650000X0.650000X0*%
%ADD14C,1.700000*%
%ADD15RoundRect,0.200000X1.215000X-1.185000X1.215000X1.185000X-1.215000X1.185000X-1.215000X-1.185000X0*%
%ADD16RoundRect,0.200000X0.625000X-0.500000X0.625000X0.500000X-0.625000X0.500000X-0.625000X-0.500000X0*%
%ADD17RoundRect,0.200000X0.500000X0.625000X-0.500000X0.625000X-0.500000X-0.625000X0.500000X-0.625000X0*%
%ADD18RoundRect,0.200000X-0.500000X-0.625000X0.500000X-0.625000X0.500000X0.625000X-0.500000X0.625000X0*%
%ADD19RoundRect,0.200000X-1.185000X-1.115000X1.185000X-1.115000X1.185000X1.115000X-1.185000X1.115000X0*%
%ADD20RoundRect,0.200000X0.500000X0.800000X-0.500000X0.800000X-0.500000X-0.800000X0.500000X-0.800000X0*%
%ADD21RoundRect,0.200000X-1.115000X0.900000X-1.115000X-0.900000X1.115000X-0.900000X1.115000X0.900000X0*%
%ADD22RoundRect,0.200000X-0.800000X0.500000X-0.800000X-0.500000X0.800000X-0.500000X0.800000X0.500000X0*%
%ADD23RoundRect,0.200000X-1.300000X-1.600000X1.300000X-1.600000X1.300000X1.600000X-1.300000X1.600000X0*%
%ADD24RoundRect,0.200000X1.850010X-0.500380X1.850010X0.500380X-1.850010X0.500380X-1.850010X-0.500380X0*%
%ADD25RoundRect,0.200000X-0.350000X-0.650000X0.350000X-0.650000X0.350000X0.650000X-0.350000X0.650000X0*%
%ADD26RoundRect,0.200000X0.350000X0.650000X-0.350000X0.650000X-0.350000X-0.650000X0.350000X-0.650000X0*%
%ADD27RoundRect,0.200000X0.650000X-0.350000X0.650000X0.350000X-0.650000X0.350000X-0.650000X-0.350000X0*%
%ADD28RoundRect,0.200000X1.075000X0.300000X-1.075000X0.300000X-1.075000X-0.300000X1.075000X-0.300000X0*%
%ADD29RoundRect,0.200000X0.587500X0.587500X-0.587500X0.587500X-0.587500X-0.587500X0.587500X-0.587500X0*%
%ADD30C,1.000000*%
G04 APERTURE END LIST*
D10*
%TO.C,P1*%
X121920000Y-71120000D03*
%TD*%
%TO.C,P2*%
X152400000Y-71120000D03*
%TD*%
%TO.C,P3*%
X121920000Y-101600000D03*
%TD*%
%TO.C,P4*%
X152400000Y-101600000D03*
%TD*%
D11*
%TO.C,J1*%
X151558000Y-93980000D03*
X146558000Y-93980000D03*
%TD*%
%TO.C,J2*%
X151558000Y-88900000D03*
X146558000Y-88900000D03*
%TD*%
%TO.C,J3*%
X151558000Y-78740000D03*
X146558000Y-78740000D03*
%TD*%
%TO.C,J4*%
X151558000Y-83820000D03*
X146558000Y-83820000D03*
%TD*%
D12*
%TO.C,P5*%
X130429000Y-101473000D03*
%TD*%
D13*
%TO.C,C12*%
X138811000Y-98806000D03*
D14*
X138811000Y-101306000D03*
%TD*%
D15*
%TO.C,C1*%
X139192000Y-93290000D03*
X139192000Y-87050000D03*
%TD*%
D16*
%TO.C,C2*%
X141478000Y-92567000D03*
X141478000Y-90567000D03*
%TD*%
%TO.C,C3*%
X143383000Y-92567000D03*
X143383000Y-90567000D03*
%TD*%
%TO.C,C4*%
X126492000Y-95742000D03*
X126492000Y-93742000D03*
%TD*%
%TO.C,C5*%
X122682000Y-93710000D03*
X122682000Y-91710000D03*
%TD*%
D17*
%TO.C,C6*%
X135112000Y-98298000D03*
X133112000Y-98298000D03*
%TD*%
D18*
%TO.C,C7*%
X126889000Y-90932000D03*
X128889000Y-90932000D03*
%TD*%
D19*
%TO.C,C8*%
X128848000Y-81534000D03*
X133788000Y-81534000D03*
%TD*%
D20*
%TO.C,C9*%
X124690000Y-83058000D03*
X121690000Y-83058000D03*
%TD*%
D21*
%TO.C,C10*%
X138430000Y-79058000D03*
X138430000Y-81978000D03*
%TD*%
D22*
%TO.C,C11*%
X141986000Y-79399000D03*
X141986000Y-82399000D03*
%TD*%
D23*
%TO.C,D1*%
X128099000Y-86741000D03*
X135299000Y-86741000D03*
%TD*%
D24*
%TO.C,L1*%
X123190000Y-88983820D03*
X123190000Y-86784180D03*
%TD*%
D25*
%TO.C,L2*%
X133162000Y-78232000D03*
X135062000Y-78232000D03*
%TD*%
D26*
%TO.C,R1*%
X124648000Y-95504000D03*
X122748000Y-95504000D03*
%TD*%
D25*
%TO.C,R2*%
X119192000Y-92837000D03*
X121092000Y-92837000D03*
%TD*%
D26*
%TO.C,R3*%
X121092000Y-95377000D03*
X119192000Y-95377000D03*
%TD*%
D27*
%TO.C,R4*%
X139319000Y-75753000D03*
X139319000Y-73853000D03*
%TD*%
D28*
%TO.C,U1*%
X135209000Y-92329000D03*
X135209000Y-93599000D03*
X135209000Y-94869000D03*
X135209000Y-96139000D03*
X129459000Y-96139000D03*
X129459000Y-94869000D03*
X129459000Y-93599000D03*
X129459000Y-92329000D03*
D29*
X132923280Y-93055440D03*
X132921500Y-95405700D03*
X132921500Y-94230700D03*
D30*
X132905500Y-93027500D03*
X132842000Y-95377000D03*
X132842000Y-94234000D03*
X131762500Y-95377000D03*
X131762500Y-94234000D03*
X131762500Y-93027500D03*
D29*
X131747260Y-93055440D03*
X131746500Y-95405700D03*
X131746500Y-94230700D03*
%TD*%
M02*
