%TF.GenerationSoftware,KiCad,Pcbnew,7.0.7-7.0.7~ubuntu23.04.1*%
%TF.CreationDate,2023-09-17T11:12:04+00:00*%
%TF.ProjectId,STEPDOWN02,53544550-444f-4574-9e30-322e6b696361,rev?*%
%TF.SameCoordinates,Original*%
%TF.FileFunction,Paste,Bot*%
%TF.FilePolarity,Positive*%
%FSLAX46Y46*%
G04 Gerber Fmt 4.6, Leading zero omitted, Abs format (unit mm)*
G04 Created by KiCad (PCBNEW 7.0.7-7.0.7~ubuntu23.04.1) date 2023-09-17 11:12:04*
%MOMM*%
%LPD*%
G01*
G04 APERTURE LIST*
%ADD10R,2.430000X2.370000*%
%ADD11R,1.250000X1.000000*%
%ADD12R,1.000000X1.250000*%
%ADD13R,2.370000X2.230000*%
%ADD14R,1.000000X1.600000*%
%ADD15R,2.230000X1.800000*%
%ADD16R,1.600000X1.000000*%
%ADD17R,2.600000X3.200000*%
%ADD18R,3.700020X1.000760*%
%ADD19R,0.700000X1.300000*%
%ADD20R,1.300000X0.700000*%
%ADD21R,2.150000X0.600000*%
%ADD22R,0.705000X0.705000*%
G04 APERTURE END LIST*
D10*
%TO.C,C1*%
X139192000Y-93290000D03*
X139192000Y-87050000D03*
%TD*%
D11*
%TO.C,C2*%
X141478000Y-92567000D03*
X141478000Y-90567000D03*
%TD*%
%TO.C,C3*%
X143383000Y-92567000D03*
X143383000Y-90567000D03*
%TD*%
%TO.C,C4*%
X126492000Y-95742000D03*
X126492000Y-93742000D03*
%TD*%
%TO.C,C5*%
X122682000Y-93710000D03*
X122682000Y-91710000D03*
%TD*%
D12*
%TO.C,C6*%
X135112000Y-98298000D03*
X133112000Y-98298000D03*
%TD*%
%TO.C,C7*%
X126889000Y-90932000D03*
X128889000Y-90932000D03*
%TD*%
D13*
%TO.C,C8*%
X128848000Y-81534000D03*
X133788000Y-81534000D03*
%TD*%
D14*
%TO.C,C9*%
X124690000Y-83058000D03*
X121690000Y-83058000D03*
%TD*%
D15*
%TO.C,C10*%
X138430000Y-79058000D03*
X138430000Y-81978000D03*
%TD*%
D16*
%TO.C,C11*%
X141986000Y-79399000D03*
X141986000Y-82399000D03*
%TD*%
D17*
%TO.C,D1*%
X128099000Y-86741000D03*
X135299000Y-86741000D03*
%TD*%
D18*
%TO.C,L1*%
X123190000Y-88983820D03*
X123190000Y-86784180D03*
%TD*%
D19*
%TO.C,L2*%
X133162000Y-78232000D03*
X135062000Y-78232000D03*
%TD*%
%TO.C,R1*%
X124648000Y-95504000D03*
X122748000Y-95504000D03*
%TD*%
%TO.C,R2*%
X119192000Y-92837000D03*
X121092000Y-92837000D03*
%TD*%
%TO.C,R3*%
X121092000Y-95377000D03*
X119192000Y-95377000D03*
%TD*%
D20*
%TO.C,R4*%
X139319000Y-75753000D03*
X139319000Y-73853000D03*
%TD*%
D21*
%TO.C,U1*%
X135209000Y-92329000D03*
X135209000Y-93599000D03*
X135209000Y-94869000D03*
X135209000Y-96139000D03*
X129459000Y-96139000D03*
X129459000Y-94869000D03*
X129459000Y-93599000D03*
X129459000Y-92329000D03*
D22*
X132923280Y-93055440D03*
X132921500Y-95405700D03*
X132921500Y-94230700D03*
X131747260Y-93055440D03*
X131746500Y-95405700D03*
X131746500Y-94230700D03*
%TD*%
M02*
