%TF.GenerationSoftware,KiCad,Pcbnew,7.0.7-7.0.7~ubuntu23.04.1*%
%TF.CreationDate,2023-09-17T10:01:33+00:00*%
%TF.ProjectId,STEPDOWN02,53544550-444f-4574-9e30-322e6b696361,rev?*%
%TF.SameCoordinates,Original*%
%TF.FileFunction,Legend,Top*%
%TF.FilePolarity,Positive*%
%FSLAX46Y46*%
G04 Gerber Fmt 4.6, Leading zero omitted, Abs format (unit mm)*
G04 Created by KiCad (PCBNEW 7.0.7-7.0.7~ubuntu23.04.1) date 2023-09-17 10:01:33*
%MOMM*%
%LPD*%
G01*
G04 APERTURE LIST*
%ADD10C,0.250000*%
%ADD11C,0.200000*%
%ADD12C,0.150000*%
%ADD13C,5.600000*%
%ADD14R,3.810000X3.810000*%
%ADD15R,2.235200X2.235200*%
%ADD16R,1.300000X1.300000*%
%ADD17C,1.300000*%
G04 APERTURE END LIST*
D10*
X141350951Y-83888666D02*
X140589047Y-83888666D01*
D11*
X132786952Y-69286219D02*
X132786952Y-68286219D01*
X132786952Y-68286219D02*
X133167904Y-68286219D01*
X133167904Y-68286219D02*
X133263142Y-68333838D01*
X133263142Y-68333838D02*
X133310761Y-68381457D01*
X133310761Y-68381457D02*
X133358380Y-68476695D01*
X133358380Y-68476695D02*
X133358380Y-68619552D01*
X133358380Y-68619552D02*
X133310761Y-68714790D01*
X133310761Y-68714790D02*
X133263142Y-68762409D01*
X133263142Y-68762409D02*
X133167904Y-68810028D01*
X133167904Y-68810028D02*
X132786952Y-68810028D01*
X133977428Y-68286219D02*
X134167904Y-68286219D01*
X134167904Y-68286219D02*
X134263142Y-68333838D01*
X134263142Y-68333838D02*
X134358380Y-68429076D01*
X134358380Y-68429076D02*
X134405999Y-68619552D01*
X134405999Y-68619552D02*
X134405999Y-68952885D01*
X134405999Y-68952885D02*
X134358380Y-69143361D01*
X134358380Y-69143361D02*
X134263142Y-69238600D01*
X134263142Y-69238600D02*
X134167904Y-69286219D01*
X134167904Y-69286219D02*
X133977428Y-69286219D01*
X133977428Y-69286219D02*
X133882190Y-69238600D01*
X133882190Y-69238600D02*
X133786952Y-69143361D01*
X133786952Y-69143361D02*
X133739333Y-68952885D01*
X133739333Y-68952885D02*
X133739333Y-68619552D01*
X133739333Y-68619552D02*
X133786952Y-68429076D01*
X133786952Y-68429076D02*
X133882190Y-68333838D01*
X133882190Y-68333838D02*
X133977428Y-68286219D01*
X134739333Y-68286219D02*
X134977428Y-69286219D01*
X134977428Y-69286219D02*
X135167904Y-68571933D01*
X135167904Y-68571933D02*
X135358380Y-69286219D01*
X135358380Y-69286219D02*
X135596476Y-68286219D01*
X135977428Y-68762409D02*
X136310761Y-68762409D01*
X136453618Y-69286219D02*
X135977428Y-69286219D01*
X135977428Y-69286219D02*
X135977428Y-68286219D01*
X135977428Y-68286219D02*
X136453618Y-68286219D01*
X137453618Y-69286219D02*
X137120285Y-68810028D01*
X136882190Y-69286219D02*
X136882190Y-68286219D01*
X136882190Y-68286219D02*
X137263142Y-68286219D01*
X137263142Y-68286219D02*
X137358380Y-68333838D01*
X137358380Y-68333838D02*
X137405999Y-68381457D01*
X137405999Y-68381457D02*
X137453618Y-68476695D01*
X137453618Y-68476695D02*
X137453618Y-68619552D01*
X137453618Y-68619552D02*
X137405999Y-68714790D01*
X137405999Y-68714790D02*
X137358380Y-68762409D01*
X137358380Y-68762409D02*
X137263142Y-68810028D01*
X137263142Y-68810028D02*
X136882190Y-68810028D01*
X138834571Y-68286219D02*
X139025047Y-68286219D01*
X139025047Y-68286219D02*
X139120285Y-68333838D01*
X139120285Y-68333838D02*
X139215523Y-68429076D01*
X139215523Y-68429076D02*
X139263142Y-68619552D01*
X139263142Y-68619552D02*
X139263142Y-68952885D01*
X139263142Y-68952885D02*
X139215523Y-69143361D01*
X139215523Y-69143361D02*
X139120285Y-69238600D01*
X139120285Y-69238600D02*
X139025047Y-69286219D01*
X139025047Y-69286219D02*
X138834571Y-69286219D01*
X138834571Y-69286219D02*
X138739333Y-69238600D01*
X138739333Y-69238600D02*
X138644095Y-69143361D01*
X138644095Y-69143361D02*
X138596476Y-68952885D01*
X138596476Y-68952885D02*
X138596476Y-68619552D01*
X138596476Y-68619552D02*
X138644095Y-68429076D01*
X138644095Y-68429076D02*
X138739333Y-68333838D01*
X138739333Y-68333838D02*
X138834571Y-68286219D01*
X139691714Y-68286219D02*
X139691714Y-69095742D01*
X139691714Y-69095742D02*
X139739333Y-69190980D01*
X139739333Y-69190980D02*
X139786952Y-69238600D01*
X139786952Y-69238600D02*
X139882190Y-69286219D01*
X139882190Y-69286219D02*
X140072666Y-69286219D01*
X140072666Y-69286219D02*
X140167904Y-69238600D01*
X140167904Y-69238600D02*
X140215523Y-69190980D01*
X140215523Y-69190980D02*
X140263142Y-69095742D01*
X140263142Y-69095742D02*
X140263142Y-68286219D01*
X140596476Y-68286219D02*
X141167904Y-68286219D01*
X140882190Y-69286219D02*
X140882190Y-68286219D01*
D10*
X144542095Y-74633619D02*
X144875428Y-75633619D01*
X144875428Y-75633619D02*
X145208761Y-74633619D01*
X145732571Y-74633619D02*
X145923047Y-74633619D01*
X145923047Y-74633619D02*
X146018285Y-74681238D01*
X146018285Y-74681238D02*
X146113523Y-74776476D01*
X146113523Y-74776476D02*
X146161142Y-74966952D01*
X146161142Y-74966952D02*
X146161142Y-75300285D01*
X146161142Y-75300285D02*
X146113523Y-75490761D01*
X146113523Y-75490761D02*
X146018285Y-75586000D01*
X146018285Y-75586000D02*
X145923047Y-75633619D01*
X145923047Y-75633619D02*
X145732571Y-75633619D01*
X145732571Y-75633619D02*
X145637333Y-75586000D01*
X145637333Y-75586000D02*
X145542095Y-75490761D01*
X145542095Y-75490761D02*
X145494476Y-75300285D01*
X145494476Y-75300285D02*
X145494476Y-74966952D01*
X145494476Y-74966952D02*
X145542095Y-74776476D01*
X145542095Y-74776476D02*
X145637333Y-74681238D01*
X145637333Y-74681238D02*
X145732571Y-74633619D01*
X146589714Y-74633619D02*
X146589714Y-75443142D01*
X146589714Y-75443142D02*
X146637333Y-75538380D01*
X146637333Y-75538380D02*
X146684952Y-75586000D01*
X146684952Y-75586000D02*
X146780190Y-75633619D01*
X146780190Y-75633619D02*
X146970666Y-75633619D01*
X146970666Y-75633619D02*
X147065904Y-75586000D01*
X147065904Y-75586000D02*
X147113523Y-75538380D01*
X147113523Y-75538380D02*
X147161142Y-75443142D01*
X147161142Y-75443142D02*
X147161142Y-74633619D01*
X147494476Y-74633619D02*
X148065904Y-74633619D01*
X147780190Y-75633619D02*
X147780190Y-74633619D01*
X141350951Y-78681666D02*
X140589047Y-78681666D01*
X140969999Y-79062619D02*
X140969999Y-78300714D01*
X144954762Y-97239619D02*
X145288095Y-98239619D01*
X145288095Y-98239619D02*
X145621428Y-97239619D01*
X145954762Y-98239619D02*
X145954762Y-97239619D01*
X146430952Y-98239619D02*
X146430952Y-97239619D01*
X146430952Y-97239619D02*
X147002380Y-98239619D01*
X147002380Y-98239619D02*
X147002380Y-97239619D01*
D11*
X132771143Y-105052600D02*
X132914000Y-105100219D01*
X132914000Y-105100219D02*
X133152095Y-105100219D01*
X133152095Y-105100219D02*
X133247333Y-105052600D01*
X133247333Y-105052600D02*
X133294952Y-105004980D01*
X133294952Y-105004980D02*
X133342571Y-104909742D01*
X133342571Y-104909742D02*
X133342571Y-104814504D01*
X133342571Y-104814504D02*
X133294952Y-104719266D01*
X133294952Y-104719266D02*
X133247333Y-104671647D01*
X133247333Y-104671647D02*
X133152095Y-104624028D01*
X133152095Y-104624028D02*
X132961619Y-104576409D01*
X132961619Y-104576409D02*
X132866381Y-104528790D01*
X132866381Y-104528790D02*
X132818762Y-104481171D01*
X132818762Y-104481171D02*
X132771143Y-104385933D01*
X132771143Y-104385933D02*
X132771143Y-104290695D01*
X132771143Y-104290695D02*
X132818762Y-104195457D01*
X132818762Y-104195457D02*
X132866381Y-104147838D01*
X132866381Y-104147838D02*
X132961619Y-104100219D01*
X132961619Y-104100219D02*
X133199714Y-104100219D01*
X133199714Y-104100219D02*
X133342571Y-104147838D01*
X133628286Y-104100219D02*
X134199714Y-104100219D01*
X133914000Y-105100219D02*
X133914000Y-104100219D01*
X134533048Y-104576409D02*
X134866381Y-104576409D01*
X135009238Y-105100219D02*
X134533048Y-105100219D01*
X134533048Y-105100219D02*
X134533048Y-104100219D01*
X134533048Y-104100219D02*
X135009238Y-104100219D01*
X135437810Y-105100219D02*
X135437810Y-104100219D01*
X135437810Y-104100219D02*
X135818762Y-104100219D01*
X135818762Y-104100219D02*
X135914000Y-104147838D01*
X135914000Y-104147838D02*
X135961619Y-104195457D01*
X135961619Y-104195457D02*
X136009238Y-104290695D01*
X136009238Y-104290695D02*
X136009238Y-104433552D01*
X136009238Y-104433552D02*
X135961619Y-104528790D01*
X135961619Y-104528790D02*
X135914000Y-104576409D01*
X135914000Y-104576409D02*
X135818762Y-104624028D01*
X135818762Y-104624028D02*
X135437810Y-104624028D01*
X136437810Y-105100219D02*
X136437810Y-104100219D01*
X136437810Y-104100219D02*
X136675905Y-104100219D01*
X136675905Y-104100219D02*
X136818762Y-104147838D01*
X136818762Y-104147838D02*
X136914000Y-104243076D01*
X136914000Y-104243076D02*
X136961619Y-104338314D01*
X136961619Y-104338314D02*
X137009238Y-104528790D01*
X137009238Y-104528790D02*
X137009238Y-104671647D01*
X137009238Y-104671647D02*
X136961619Y-104862123D01*
X136961619Y-104862123D02*
X136914000Y-104957361D01*
X136914000Y-104957361D02*
X136818762Y-105052600D01*
X136818762Y-105052600D02*
X136675905Y-105100219D01*
X136675905Y-105100219D02*
X136437810Y-105100219D01*
X137628286Y-104100219D02*
X137818762Y-104100219D01*
X137818762Y-104100219D02*
X137914000Y-104147838D01*
X137914000Y-104147838D02*
X138009238Y-104243076D01*
X138009238Y-104243076D02*
X138056857Y-104433552D01*
X138056857Y-104433552D02*
X138056857Y-104766885D01*
X138056857Y-104766885D02*
X138009238Y-104957361D01*
X138009238Y-104957361D02*
X137914000Y-105052600D01*
X137914000Y-105052600D02*
X137818762Y-105100219D01*
X137818762Y-105100219D02*
X137628286Y-105100219D01*
X137628286Y-105100219D02*
X137533048Y-105052600D01*
X137533048Y-105052600D02*
X137437810Y-104957361D01*
X137437810Y-104957361D02*
X137390191Y-104766885D01*
X137390191Y-104766885D02*
X137390191Y-104433552D01*
X137390191Y-104433552D02*
X137437810Y-104243076D01*
X137437810Y-104243076D02*
X137533048Y-104147838D01*
X137533048Y-104147838D02*
X137628286Y-104100219D01*
X138390191Y-104100219D02*
X138628286Y-105100219D01*
X138628286Y-105100219D02*
X138818762Y-104385933D01*
X138818762Y-104385933D02*
X139009238Y-105100219D01*
X139009238Y-105100219D02*
X139247334Y-104100219D01*
X139628286Y-105100219D02*
X139628286Y-104100219D01*
X139628286Y-104100219D02*
X140199714Y-105100219D01*
X140199714Y-105100219D02*
X140199714Y-104100219D01*
X140628286Y-104195457D02*
X140675905Y-104147838D01*
X140675905Y-104147838D02*
X140771143Y-104100219D01*
X140771143Y-104100219D02*
X141009238Y-104100219D01*
X141009238Y-104100219D02*
X141104476Y-104147838D01*
X141104476Y-104147838D02*
X141152095Y-104195457D01*
X141152095Y-104195457D02*
X141199714Y-104290695D01*
X141199714Y-104290695D02*
X141199714Y-104385933D01*
X141199714Y-104385933D02*
X141152095Y-104528790D01*
X141152095Y-104528790D02*
X140580667Y-105100219D01*
X140580667Y-105100219D02*
X141199714Y-105100219D01*
X141580667Y-104814504D02*
X142056857Y-104814504D01*
X141485429Y-105100219D02*
X141818762Y-104100219D01*
X141818762Y-104100219D02*
X142152095Y-105100219D01*
D10*
X141223951Y-89095666D02*
X140462047Y-89095666D01*
X141096951Y-93921666D02*
X140335047Y-93921666D01*
X140715999Y-94302619D02*
X140715999Y-93540714D01*
D12*
X129690905Y-99387819D02*
X129690905Y-98387819D01*
X129690905Y-98387819D02*
X130071857Y-98387819D01*
X130071857Y-98387819D02*
X130167095Y-98435438D01*
X130167095Y-98435438D02*
X130214714Y-98483057D01*
X130214714Y-98483057D02*
X130262333Y-98578295D01*
X130262333Y-98578295D02*
X130262333Y-98721152D01*
X130262333Y-98721152D02*
X130214714Y-98816390D01*
X130214714Y-98816390D02*
X130167095Y-98864009D01*
X130167095Y-98864009D02*
X130071857Y-98911628D01*
X130071857Y-98911628D02*
X129690905Y-98911628D01*
X131167095Y-98387819D02*
X130690905Y-98387819D01*
X130690905Y-98387819D02*
X130643286Y-98864009D01*
X130643286Y-98864009D02*
X130690905Y-98816390D01*
X130690905Y-98816390D02*
X130786143Y-98768771D01*
X130786143Y-98768771D02*
X131024238Y-98768771D01*
X131024238Y-98768771D02*
X131119476Y-98816390D01*
X131119476Y-98816390D02*
X131167095Y-98864009D01*
X131167095Y-98864009D02*
X131214714Y-98959247D01*
X131214714Y-98959247D02*
X131214714Y-99197342D01*
X131214714Y-99197342D02*
X131167095Y-99292580D01*
X131167095Y-99292580D02*
X131119476Y-99340200D01*
X131119476Y-99340200D02*
X131024238Y-99387819D01*
X131024238Y-99387819D02*
X130786143Y-99387819D01*
X130786143Y-99387819D02*
X130690905Y-99340200D01*
X130690905Y-99340200D02*
X130643286Y-99292580D01*
X143570580Y-100698857D02*
X143618200Y-100746476D01*
X143618200Y-100746476D02*
X143665819Y-100889333D01*
X143665819Y-100889333D02*
X143665819Y-100984571D01*
X143665819Y-100984571D02*
X143618200Y-101127428D01*
X143618200Y-101127428D02*
X143522961Y-101222666D01*
X143522961Y-101222666D02*
X143427723Y-101270285D01*
X143427723Y-101270285D02*
X143237247Y-101317904D01*
X143237247Y-101317904D02*
X143094390Y-101317904D01*
X143094390Y-101317904D02*
X142903914Y-101270285D01*
X142903914Y-101270285D02*
X142808676Y-101222666D01*
X142808676Y-101222666D02*
X142713438Y-101127428D01*
X142713438Y-101127428D02*
X142665819Y-100984571D01*
X142665819Y-100984571D02*
X142665819Y-100889333D01*
X142665819Y-100889333D02*
X142713438Y-100746476D01*
X142713438Y-100746476D02*
X142761057Y-100698857D01*
X143665819Y-99746476D02*
X143665819Y-100317904D01*
X143665819Y-100032190D02*
X142665819Y-100032190D01*
X142665819Y-100032190D02*
X142808676Y-100127428D01*
X142808676Y-100127428D02*
X142903914Y-100222666D01*
X142903914Y-100222666D02*
X142951533Y-100317904D01*
X142761057Y-99365523D02*
X142713438Y-99317904D01*
X142713438Y-99317904D02*
X142665819Y-99222666D01*
X142665819Y-99222666D02*
X142665819Y-98984571D01*
X142665819Y-98984571D02*
X142713438Y-98889333D01*
X142713438Y-98889333D02*
X142761057Y-98841714D01*
X142761057Y-98841714D02*
X142856295Y-98794095D01*
X142856295Y-98794095D02*
X142951533Y-98794095D01*
X142951533Y-98794095D02*
X143094390Y-98841714D01*
X143094390Y-98841714D02*
X143665819Y-99413142D01*
X143665819Y-99413142D02*
X143665819Y-98794095D01*
X135913905Y-73606819D02*
X135913905Y-72606819D01*
X135913905Y-72606819D02*
X136152000Y-72606819D01*
X136152000Y-72606819D02*
X136294857Y-72654438D01*
X136294857Y-72654438D02*
X136390095Y-72749676D01*
X136390095Y-72749676D02*
X136437714Y-72844914D01*
X136437714Y-72844914D02*
X136485333Y-73035390D01*
X136485333Y-73035390D02*
X136485333Y-73178247D01*
X136485333Y-73178247D02*
X136437714Y-73368723D01*
X136437714Y-73368723D02*
X136390095Y-73463961D01*
X136390095Y-73463961D02*
X136294857Y-73559200D01*
X136294857Y-73559200D02*
X136152000Y-73606819D01*
X136152000Y-73606819D02*
X135913905Y-73606819D01*
X136866286Y-72702057D02*
X136913905Y-72654438D01*
X136913905Y-72654438D02*
X137009143Y-72606819D01*
X137009143Y-72606819D02*
X137247238Y-72606819D01*
X137247238Y-72606819D02*
X137342476Y-72654438D01*
X137342476Y-72654438D02*
X137390095Y-72702057D01*
X137390095Y-72702057D02*
X137437714Y-72797295D01*
X137437714Y-72797295D02*
X137437714Y-72892533D01*
X137437714Y-72892533D02*
X137390095Y-73035390D01*
X137390095Y-73035390D02*
X136818667Y-73606819D01*
X136818667Y-73606819D02*
X137437714Y-73606819D01*
%TO.C,J1*%
X156558000Y-96480000D02*
X147558000Y-96480000D01*
X156558000Y-91479900D02*
X156558000Y-96480100D01*
X156058100Y-95980000D02*
X148058100Y-95980000D01*
X156058100Y-91980000D02*
X156058100Y-95980000D01*
X156058100Y-91980000D02*
X148058100Y-91980000D01*
X148058100Y-95980000D02*
X148058100Y-91980000D01*
X148058100Y-94980000D02*
X147558000Y-94980000D01*
X148058100Y-92980000D02*
X147558000Y-92980000D01*
X147558000Y-96480000D02*
X141558000Y-96480000D01*
X147558000Y-91480000D02*
X156558000Y-91480000D01*
X147558000Y-91480000D02*
X141558000Y-91480000D01*
X147558000Y-91479900D02*
X147558000Y-96480100D01*
X145558000Y-95480000D02*
X142558000Y-95480000D01*
X145558000Y-92480000D02*
X142558000Y-92480000D01*
X145558000Y-92479900D02*
X145558000Y-95480100D01*
X142558000Y-95980000D02*
X142558000Y-91980000D01*
X142558000Y-95980000D02*
X139057000Y-95980000D01*
X142558000Y-91980000D02*
X139057900Y-91980000D01*
X142057900Y-95480000D02*
X139558000Y-95480000D01*
X142057900Y-92480000D02*
X139558000Y-92480000D01*
X142057900Y-92479000D02*
X142057900Y-95481000D01*
X141558000Y-95980000D02*
X141558000Y-96480000D01*
X141558000Y-91480000D02*
X141558000Y-91980000D01*
X139558000Y-92479000D02*
X139558000Y-95481000D01*
X139057900Y-95980000D02*
X139057900Y-91980000D01*
%TO.C,J2*%
X156558000Y-91400000D02*
X147558000Y-91400000D01*
X156558000Y-86399900D02*
X156558000Y-91400100D01*
X156058100Y-90900000D02*
X148058100Y-90900000D01*
X156058100Y-86900000D02*
X156058100Y-90900000D01*
X156058100Y-86900000D02*
X148058100Y-86900000D01*
X148058100Y-90900000D02*
X148058100Y-86900000D01*
X148058100Y-89900000D02*
X147558000Y-89900000D01*
X148058100Y-87900000D02*
X147558000Y-87900000D01*
X147558000Y-91400000D02*
X141558000Y-91400000D01*
X147558000Y-86400000D02*
X156558000Y-86400000D01*
X147558000Y-86400000D02*
X141558000Y-86400000D01*
X147558000Y-86399900D02*
X147558000Y-91400100D01*
X145558000Y-90400000D02*
X142558000Y-90400000D01*
X145558000Y-87400000D02*
X142558000Y-87400000D01*
X145558000Y-87399900D02*
X145558000Y-90400100D01*
X142558000Y-90900000D02*
X142558000Y-86900000D01*
X142558000Y-90900000D02*
X139057000Y-90900000D01*
X142558000Y-86900000D02*
X139057900Y-86900000D01*
X142057900Y-90400000D02*
X139558000Y-90400000D01*
X142057900Y-87400000D02*
X139558000Y-87400000D01*
X142057900Y-87399000D02*
X142057900Y-90401000D01*
X141558000Y-90900000D02*
X141558000Y-91400000D01*
X141558000Y-86400000D02*
X141558000Y-86900000D01*
X139558000Y-87399000D02*
X139558000Y-90401000D01*
X139057900Y-90900000D02*
X139057900Y-86900000D01*
%TO.C,J3*%
X156558000Y-81240000D02*
X147558000Y-81240000D01*
X156558000Y-76239900D02*
X156558000Y-81240100D01*
X156058100Y-80740000D02*
X148058100Y-80740000D01*
X156058100Y-76740000D02*
X156058100Y-80740000D01*
X156058100Y-76740000D02*
X148058100Y-76740000D01*
X148058100Y-80740000D02*
X148058100Y-76740000D01*
X148058100Y-79740000D02*
X147558000Y-79740000D01*
X148058100Y-77740000D02*
X147558000Y-77740000D01*
X147558000Y-81240000D02*
X141558000Y-81240000D01*
X147558000Y-76240000D02*
X156558000Y-76240000D01*
X147558000Y-76240000D02*
X141558000Y-76240000D01*
X147558000Y-76239900D02*
X147558000Y-81240100D01*
X145558000Y-80240000D02*
X142558000Y-80240000D01*
X145558000Y-77240000D02*
X142558000Y-77240000D01*
X145558000Y-77239900D02*
X145558000Y-80240100D01*
X142558000Y-80740000D02*
X142558000Y-76740000D01*
X142558000Y-80740000D02*
X139057000Y-80740000D01*
X142558000Y-76740000D02*
X139057900Y-76740000D01*
X142057900Y-80240000D02*
X139558000Y-80240000D01*
X142057900Y-77240000D02*
X139558000Y-77240000D01*
X142057900Y-77239000D02*
X142057900Y-80241000D01*
X141558000Y-80740000D02*
X141558000Y-81240000D01*
X141558000Y-76240000D02*
X141558000Y-76740000D01*
X139558000Y-77239000D02*
X139558000Y-80241000D01*
X139057900Y-80740000D02*
X139057900Y-76740000D01*
%TO.C,J4*%
X156558000Y-86320000D02*
X147558000Y-86320000D01*
X156558000Y-81319900D02*
X156558000Y-86320100D01*
X156058100Y-85820000D02*
X148058100Y-85820000D01*
X156058100Y-81820000D02*
X156058100Y-85820000D01*
X156058100Y-81820000D02*
X148058100Y-81820000D01*
X148058100Y-85820000D02*
X148058100Y-81820000D01*
X148058100Y-84820000D02*
X147558000Y-84820000D01*
X148058100Y-82820000D02*
X147558000Y-82820000D01*
X147558000Y-86320000D02*
X141558000Y-86320000D01*
X147558000Y-81320000D02*
X156558000Y-81320000D01*
X147558000Y-81320000D02*
X141558000Y-81320000D01*
X147558000Y-81319900D02*
X147558000Y-86320100D01*
X145558000Y-85320000D02*
X142558000Y-85320000D01*
X145558000Y-82320000D02*
X142558000Y-82320000D01*
X145558000Y-82319900D02*
X145558000Y-85320100D01*
X142558000Y-85820000D02*
X142558000Y-81820000D01*
X142558000Y-85820000D02*
X139057000Y-85820000D01*
X142558000Y-81820000D02*
X139057900Y-81820000D01*
X142057900Y-85320000D02*
X139558000Y-85320000D01*
X142057900Y-82320000D02*
X139558000Y-82320000D01*
X142057900Y-82319000D02*
X142057900Y-85321000D01*
X141558000Y-85820000D02*
X141558000Y-86320000D01*
X141558000Y-81320000D02*
X141558000Y-81820000D01*
X139558000Y-82319000D02*
X139558000Y-85321000D01*
X139057900Y-85820000D02*
X139057900Y-81820000D01*
%TO.C,P5*%
X128879000Y-99923000D02*
X131979000Y-99923000D01*
X128879000Y-101473000D02*
X128879000Y-99923000D01*
X129159000Y-102743000D02*
X131699000Y-102743000D01*
X131979000Y-99923000D02*
X131979000Y-101473000D01*
%TO.C,C12*%
X141960000Y-100131000D02*
X135662000Y-100131000D01*
X141954000Y-100271000D02*
X135668000Y-100271000D01*
X141941000Y-100411000D02*
X139257000Y-100411000D01*
X138365000Y-100411000D02*
X135681000Y-100411000D01*
X141922000Y-100551000D02*
X139467000Y-100551000D01*
X138155000Y-100551000D02*
X135700000Y-100551000D01*
X141896000Y-100691000D02*
X139600000Y-100691000D01*
X138022000Y-100691000D02*
X135726000Y-100691000D01*
X141864000Y-100831000D02*
X139691000Y-100831000D01*
X137931000Y-100831000D02*
X135758000Y-100831000D01*
X141825000Y-100971000D02*
X139753000Y-100971000D01*
X137869000Y-100971000D02*
X135797000Y-100971000D01*
X141779000Y-101111000D02*
X139792000Y-101111000D01*
X137830000Y-101111000D02*
X135843000Y-101111000D01*
X141726000Y-101251000D02*
X139809000Y-101251000D01*
X137813000Y-101251000D02*
X135896000Y-101251000D01*
X141664000Y-101391000D02*
X139807000Y-101391000D01*
X137815000Y-101391000D02*
X135958000Y-101391000D01*
X141594000Y-101531000D02*
X139785000Y-101531000D01*
X137837000Y-101531000D02*
X136028000Y-101531000D01*
X141515000Y-101671000D02*
X139742000Y-101671000D01*
X137880000Y-101671000D02*
X136107000Y-101671000D01*
X141427000Y-101811000D02*
X139674000Y-101811000D01*
X137948000Y-101811000D02*
X136195000Y-101811000D01*
X141327000Y-101951000D02*
X139575000Y-101951000D01*
X138047000Y-101951000D02*
X136295000Y-101951000D01*
X141215000Y-102091000D02*
X139430000Y-102091000D01*
X138192000Y-102091000D02*
X136407000Y-102091000D01*
X141090000Y-102231000D02*
X139191000Y-102231000D01*
X138431000Y-102231000D02*
X136532000Y-102231000D01*
X140947000Y-102371000D02*
X136675000Y-102371000D01*
X140785000Y-102511000D02*
X136837000Y-102511000D01*
X140597000Y-102651000D02*
X137025000Y-102651000D01*
X140374000Y-102791000D02*
X137248000Y-102791000D01*
X140098000Y-102931000D02*
X137524000Y-102931000D01*
X139723000Y-103071000D02*
X137899000Y-103071000D01*
X141998500Y-100056000D02*
G75*
G03*
X141998500Y-100056000I-3187500J0D01*
G01*
X139811000Y-101306000D02*
G75*
G03*
X139811000Y-101306000I-1000000J0D01*
G01*
%TO.C,D2*%
X135052000Y-70370000D02*
X137752000Y-70370000D01*
X135052000Y-71870000D02*
X137752000Y-71870000D01*
X136302000Y-70770000D02*
X136302000Y-71470000D01*
X136302000Y-71120000D02*
X136652000Y-70770000D01*
X136552000Y-71020000D02*
X136402000Y-71170000D01*
X136552000Y-71270000D02*
X136552000Y-71020000D01*
X136652000Y-70770000D02*
X136652000Y-71470000D01*
X136652000Y-71120000D02*
X137002000Y-71120000D01*
X136652000Y-71470000D02*
X136302000Y-71120000D01*
%TD*%
D13*
%TO.C,P1*%
X121920000Y-71120000D03*
%TD*%
%TO.C,P2*%
X152400000Y-71120000D03*
%TD*%
%TO.C,P3*%
X121920000Y-101600000D03*
%TD*%
%TO.C,P4*%
X152400000Y-101600000D03*
%TD*%
D14*
%TO.C,J1*%
X151558000Y-93980000D03*
X146558000Y-93980000D03*
%TD*%
%TO.C,J2*%
X151558000Y-88900000D03*
X146558000Y-88900000D03*
%TD*%
%TO.C,J3*%
X151558000Y-78740000D03*
X146558000Y-78740000D03*
%TD*%
%TO.C,J4*%
X151558000Y-83820000D03*
X146558000Y-83820000D03*
%TD*%
D15*
%TO.C,P5*%
X130429000Y-101473000D03*
%TD*%
D16*
%TO.C,C12*%
X138811000Y-98806000D03*
D17*
X138811000Y-101306000D03*
%TD*%
M02*
