%TF.GenerationSoftware,KiCad,Pcbnew,7.0.7-7.0.7~ubuntu23.04.1*%
%TF.CreationDate,2023-09-17T10:01:33+00:00*%
%TF.ProjectId,STEPDOWN02,53544550-444f-4574-9e30-322e6b696361,rev?*%
%TF.SameCoordinates,Original*%
%TF.FileFunction,Legend,Bot*%
%TF.FilePolarity,Positive*%
%FSLAX46Y46*%
G04 Gerber Fmt 4.6, Leading zero omitted, Abs format (unit mm)*
G04 Created by KiCad (PCBNEW 7.0.7-7.0.7~ubuntu23.04.1) date 2023-09-17 10:01:33*
%MOMM*%
%LPD*%
G01*
G04 APERTURE LIST*
%ADD10C,0.250000*%
%ADD11C,0.150000*%
%ADD12C,0.600000*%
G04 APERTURE END LIST*
D10*
X136651999Y-91540380D02*
X136604380Y-91588000D01*
X136604380Y-91588000D02*
X136651999Y-91635619D01*
X136651999Y-91635619D02*
X136699618Y-91588000D01*
X136699618Y-91588000D02*
X136651999Y-91540380D01*
X136651999Y-91540380D02*
X136651999Y-91635619D01*
D11*
X142853580Y-88352333D02*
X142901200Y-88304714D01*
X142901200Y-88304714D02*
X142948819Y-88161857D01*
X142948819Y-88161857D02*
X142948819Y-88066619D01*
X142948819Y-88066619D02*
X142901200Y-87923762D01*
X142901200Y-87923762D02*
X142805961Y-87828524D01*
X142805961Y-87828524D02*
X142710723Y-87780905D01*
X142710723Y-87780905D02*
X142520247Y-87733286D01*
X142520247Y-87733286D02*
X142377390Y-87733286D01*
X142377390Y-87733286D02*
X142186914Y-87780905D01*
X142186914Y-87780905D02*
X142091676Y-87828524D01*
X142091676Y-87828524D02*
X141996438Y-87923762D01*
X141996438Y-87923762D02*
X141948819Y-88066619D01*
X141948819Y-88066619D02*
X141948819Y-88161857D01*
X141948819Y-88161857D02*
X141996438Y-88304714D01*
X141996438Y-88304714D02*
X142044057Y-88352333D01*
X142948819Y-89304714D02*
X142948819Y-88733286D01*
X142948819Y-89019000D02*
X141948819Y-89019000D01*
X141948819Y-89019000D02*
X142091676Y-88923762D01*
X142091676Y-88923762D02*
X142186914Y-88828524D01*
X142186914Y-88828524D02*
X142234533Y-88733286D01*
X141837580Y-95337333D02*
X141885200Y-95289714D01*
X141885200Y-95289714D02*
X141932819Y-95146857D01*
X141932819Y-95146857D02*
X141932819Y-95051619D01*
X141932819Y-95051619D02*
X141885200Y-94908762D01*
X141885200Y-94908762D02*
X141789961Y-94813524D01*
X141789961Y-94813524D02*
X141694723Y-94765905D01*
X141694723Y-94765905D02*
X141504247Y-94718286D01*
X141504247Y-94718286D02*
X141361390Y-94718286D01*
X141361390Y-94718286D02*
X141170914Y-94765905D01*
X141170914Y-94765905D02*
X141075676Y-94813524D01*
X141075676Y-94813524D02*
X140980438Y-94908762D01*
X140980438Y-94908762D02*
X140932819Y-95051619D01*
X140932819Y-95051619D02*
X140932819Y-95146857D01*
X140932819Y-95146857D02*
X140980438Y-95289714D01*
X140980438Y-95289714D02*
X141028057Y-95337333D01*
X141028057Y-95718286D02*
X140980438Y-95765905D01*
X140980438Y-95765905D02*
X140932819Y-95861143D01*
X140932819Y-95861143D02*
X140932819Y-96099238D01*
X140932819Y-96099238D02*
X140980438Y-96194476D01*
X140980438Y-96194476D02*
X141028057Y-96242095D01*
X141028057Y-96242095D02*
X141123295Y-96289714D01*
X141123295Y-96289714D02*
X141218533Y-96289714D01*
X141218533Y-96289714D02*
X141361390Y-96242095D01*
X141361390Y-96242095D02*
X141932819Y-95670667D01*
X141932819Y-95670667D02*
X141932819Y-96289714D01*
X143869580Y-95337333D02*
X143917200Y-95289714D01*
X143917200Y-95289714D02*
X143964819Y-95146857D01*
X143964819Y-95146857D02*
X143964819Y-95051619D01*
X143964819Y-95051619D02*
X143917200Y-94908762D01*
X143917200Y-94908762D02*
X143821961Y-94813524D01*
X143821961Y-94813524D02*
X143726723Y-94765905D01*
X143726723Y-94765905D02*
X143536247Y-94718286D01*
X143536247Y-94718286D02*
X143393390Y-94718286D01*
X143393390Y-94718286D02*
X143202914Y-94765905D01*
X143202914Y-94765905D02*
X143107676Y-94813524D01*
X143107676Y-94813524D02*
X143012438Y-94908762D01*
X143012438Y-94908762D02*
X142964819Y-95051619D01*
X142964819Y-95051619D02*
X142964819Y-95146857D01*
X142964819Y-95146857D02*
X143012438Y-95289714D01*
X143012438Y-95289714D02*
X143060057Y-95337333D01*
X142964819Y-95670667D02*
X142964819Y-96289714D01*
X142964819Y-96289714D02*
X143345771Y-95956381D01*
X143345771Y-95956381D02*
X143345771Y-96099238D01*
X143345771Y-96099238D02*
X143393390Y-96194476D01*
X143393390Y-96194476D02*
X143441009Y-96242095D01*
X143441009Y-96242095D02*
X143536247Y-96289714D01*
X143536247Y-96289714D02*
X143774342Y-96289714D01*
X143774342Y-96289714D02*
X143869580Y-96242095D01*
X143869580Y-96242095D02*
X143917200Y-96194476D01*
X143917200Y-96194476D02*
X143964819Y-96099238D01*
X143964819Y-96099238D02*
X143964819Y-95813524D01*
X143964819Y-95813524D02*
X143917200Y-95718286D01*
X143917200Y-95718286D02*
X143869580Y-95670667D01*
X126658666Y-97641580D02*
X126706285Y-97689200D01*
X126706285Y-97689200D02*
X126849142Y-97736819D01*
X126849142Y-97736819D02*
X126944380Y-97736819D01*
X126944380Y-97736819D02*
X127087237Y-97689200D01*
X127087237Y-97689200D02*
X127182475Y-97593961D01*
X127182475Y-97593961D02*
X127230094Y-97498723D01*
X127230094Y-97498723D02*
X127277713Y-97308247D01*
X127277713Y-97308247D02*
X127277713Y-97165390D01*
X127277713Y-97165390D02*
X127230094Y-96974914D01*
X127230094Y-96974914D02*
X127182475Y-96879676D01*
X127182475Y-96879676D02*
X127087237Y-96784438D01*
X127087237Y-96784438D02*
X126944380Y-96736819D01*
X126944380Y-96736819D02*
X126849142Y-96736819D01*
X126849142Y-96736819D02*
X126706285Y-96784438D01*
X126706285Y-96784438D02*
X126658666Y-96832057D01*
X125801523Y-97070152D02*
X125801523Y-97736819D01*
X126039618Y-96689200D02*
X126277713Y-97403485D01*
X126277713Y-97403485D02*
X125658666Y-97403485D01*
X124946580Y-92543333D02*
X124994200Y-92495714D01*
X124994200Y-92495714D02*
X125041819Y-92352857D01*
X125041819Y-92352857D02*
X125041819Y-92257619D01*
X125041819Y-92257619D02*
X124994200Y-92114762D01*
X124994200Y-92114762D02*
X124898961Y-92019524D01*
X124898961Y-92019524D02*
X124803723Y-91971905D01*
X124803723Y-91971905D02*
X124613247Y-91924286D01*
X124613247Y-91924286D02*
X124470390Y-91924286D01*
X124470390Y-91924286D02*
X124279914Y-91971905D01*
X124279914Y-91971905D02*
X124184676Y-92019524D01*
X124184676Y-92019524D02*
X124089438Y-92114762D01*
X124089438Y-92114762D02*
X124041819Y-92257619D01*
X124041819Y-92257619D02*
X124041819Y-92352857D01*
X124041819Y-92352857D02*
X124089438Y-92495714D01*
X124089438Y-92495714D02*
X124137057Y-92543333D01*
X124041819Y-93448095D02*
X124041819Y-92971905D01*
X124041819Y-92971905D02*
X124518009Y-92924286D01*
X124518009Y-92924286D02*
X124470390Y-92971905D01*
X124470390Y-92971905D02*
X124422771Y-93067143D01*
X124422771Y-93067143D02*
X124422771Y-93305238D01*
X124422771Y-93305238D02*
X124470390Y-93400476D01*
X124470390Y-93400476D02*
X124518009Y-93448095D01*
X124518009Y-93448095D02*
X124613247Y-93495714D01*
X124613247Y-93495714D02*
X124851342Y-93495714D01*
X124851342Y-93495714D02*
X124946580Y-93448095D01*
X124946580Y-93448095D02*
X124994200Y-93400476D01*
X124994200Y-93400476D02*
X125041819Y-93305238D01*
X125041819Y-93305238D02*
X125041819Y-93067143D01*
X125041819Y-93067143D02*
X124994200Y-92971905D01*
X124994200Y-92971905D02*
X124946580Y-92924286D01*
X134278666Y-100435580D02*
X134326285Y-100483200D01*
X134326285Y-100483200D02*
X134469142Y-100530819D01*
X134469142Y-100530819D02*
X134564380Y-100530819D01*
X134564380Y-100530819D02*
X134707237Y-100483200D01*
X134707237Y-100483200D02*
X134802475Y-100387961D01*
X134802475Y-100387961D02*
X134850094Y-100292723D01*
X134850094Y-100292723D02*
X134897713Y-100102247D01*
X134897713Y-100102247D02*
X134897713Y-99959390D01*
X134897713Y-99959390D02*
X134850094Y-99768914D01*
X134850094Y-99768914D02*
X134802475Y-99673676D01*
X134802475Y-99673676D02*
X134707237Y-99578438D01*
X134707237Y-99578438D02*
X134564380Y-99530819D01*
X134564380Y-99530819D02*
X134469142Y-99530819D01*
X134469142Y-99530819D02*
X134326285Y-99578438D01*
X134326285Y-99578438D02*
X134278666Y-99626057D01*
X133421523Y-99530819D02*
X133611999Y-99530819D01*
X133611999Y-99530819D02*
X133707237Y-99578438D01*
X133707237Y-99578438D02*
X133754856Y-99626057D01*
X133754856Y-99626057D02*
X133850094Y-99768914D01*
X133850094Y-99768914D02*
X133897713Y-99959390D01*
X133897713Y-99959390D02*
X133897713Y-100340342D01*
X133897713Y-100340342D02*
X133850094Y-100435580D01*
X133850094Y-100435580D02*
X133802475Y-100483200D01*
X133802475Y-100483200D02*
X133707237Y-100530819D01*
X133707237Y-100530819D02*
X133516761Y-100530819D01*
X133516761Y-100530819D02*
X133421523Y-100483200D01*
X133421523Y-100483200D02*
X133373904Y-100435580D01*
X133373904Y-100435580D02*
X133326285Y-100340342D01*
X133326285Y-100340342D02*
X133326285Y-100102247D01*
X133326285Y-100102247D02*
X133373904Y-100007009D01*
X133373904Y-100007009D02*
X133421523Y-99959390D01*
X133421523Y-99959390D02*
X133516761Y-99911771D01*
X133516761Y-99911771D02*
X133707237Y-99911771D01*
X133707237Y-99911771D02*
X133802475Y-99959390D01*
X133802475Y-99959390D02*
X133850094Y-100007009D01*
X133850094Y-100007009D02*
X133897713Y-100102247D01*
X125261666Y-91418580D02*
X125309285Y-91466200D01*
X125309285Y-91466200D02*
X125452142Y-91513819D01*
X125452142Y-91513819D02*
X125547380Y-91513819D01*
X125547380Y-91513819D02*
X125690237Y-91466200D01*
X125690237Y-91466200D02*
X125785475Y-91370961D01*
X125785475Y-91370961D02*
X125833094Y-91275723D01*
X125833094Y-91275723D02*
X125880713Y-91085247D01*
X125880713Y-91085247D02*
X125880713Y-90942390D01*
X125880713Y-90942390D02*
X125833094Y-90751914D01*
X125833094Y-90751914D02*
X125785475Y-90656676D01*
X125785475Y-90656676D02*
X125690237Y-90561438D01*
X125690237Y-90561438D02*
X125547380Y-90513819D01*
X125547380Y-90513819D02*
X125452142Y-90513819D01*
X125452142Y-90513819D02*
X125309285Y-90561438D01*
X125309285Y-90561438D02*
X125261666Y-90609057D01*
X124928332Y-90513819D02*
X124261666Y-90513819D01*
X124261666Y-90513819D02*
X124690237Y-91513819D01*
X131357666Y-79353580D02*
X131405285Y-79401200D01*
X131405285Y-79401200D02*
X131548142Y-79448819D01*
X131548142Y-79448819D02*
X131643380Y-79448819D01*
X131643380Y-79448819D02*
X131786237Y-79401200D01*
X131786237Y-79401200D02*
X131881475Y-79305961D01*
X131881475Y-79305961D02*
X131929094Y-79210723D01*
X131929094Y-79210723D02*
X131976713Y-79020247D01*
X131976713Y-79020247D02*
X131976713Y-78877390D01*
X131976713Y-78877390D02*
X131929094Y-78686914D01*
X131929094Y-78686914D02*
X131881475Y-78591676D01*
X131881475Y-78591676D02*
X131786237Y-78496438D01*
X131786237Y-78496438D02*
X131643380Y-78448819D01*
X131643380Y-78448819D02*
X131548142Y-78448819D01*
X131548142Y-78448819D02*
X131405285Y-78496438D01*
X131405285Y-78496438D02*
X131357666Y-78544057D01*
X130786237Y-78877390D02*
X130881475Y-78829771D01*
X130881475Y-78829771D02*
X130929094Y-78782152D01*
X130929094Y-78782152D02*
X130976713Y-78686914D01*
X130976713Y-78686914D02*
X130976713Y-78639295D01*
X130976713Y-78639295D02*
X130929094Y-78544057D01*
X130929094Y-78544057D02*
X130881475Y-78496438D01*
X130881475Y-78496438D02*
X130786237Y-78448819D01*
X130786237Y-78448819D02*
X130595761Y-78448819D01*
X130595761Y-78448819D02*
X130500523Y-78496438D01*
X130500523Y-78496438D02*
X130452904Y-78544057D01*
X130452904Y-78544057D02*
X130405285Y-78639295D01*
X130405285Y-78639295D02*
X130405285Y-78686914D01*
X130405285Y-78686914D02*
X130452904Y-78782152D01*
X130452904Y-78782152D02*
X130500523Y-78829771D01*
X130500523Y-78829771D02*
X130595761Y-78877390D01*
X130595761Y-78877390D02*
X130786237Y-78877390D01*
X130786237Y-78877390D02*
X130881475Y-78925009D01*
X130881475Y-78925009D02*
X130929094Y-78972628D01*
X130929094Y-78972628D02*
X130976713Y-79067866D01*
X130976713Y-79067866D02*
X130976713Y-79258342D01*
X130976713Y-79258342D02*
X130929094Y-79353580D01*
X130929094Y-79353580D02*
X130881475Y-79401200D01*
X130881475Y-79401200D02*
X130786237Y-79448819D01*
X130786237Y-79448819D02*
X130595761Y-79448819D01*
X130595761Y-79448819D02*
X130500523Y-79401200D01*
X130500523Y-79401200D02*
X130452904Y-79353580D01*
X130452904Y-79353580D02*
X130405285Y-79258342D01*
X130405285Y-79258342D02*
X130405285Y-79067866D01*
X130405285Y-79067866D02*
X130452904Y-78972628D01*
X130452904Y-78972628D02*
X130500523Y-78925009D01*
X130500523Y-78925009D02*
X130595761Y-78877390D01*
X123356666Y-81117580D02*
X123404285Y-81165200D01*
X123404285Y-81165200D02*
X123547142Y-81212819D01*
X123547142Y-81212819D02*
X123642380Y-81212819D01*
X123642380Y-81212819D02*
X123785237Y-81165200D01*
X123785237Y-81165200D02*
X123880475Y-81069961D01*
X123880475Y-81069961D02*
X123928094Y-80974723D01*
X123928094Y-80974723D02*
X123975713Y-80784247D01*
X123975713Y-80784247D02*
X123975713Y-80641390D01*
X123975713Y-80641390D02*
X123928094Y-80450914D01*
X123928094Y-80450914D02*
X123880475Y-80355676D01*
X123880475Y-80355676D02*
X123785237Y-80260438D01*
X123785237Y-80260438D02*
X123642380Y-80212819D01*
X123642380Y-80212819D02*
X123547142Y-80212819D01*
X123547142Y-80212819D02*
X123404285Y-80260438D01*
X123404285Y-80260438D02*
X123356666Y-80308057D01*
X122880475Y-81212819D02*
X122689999Y-81212819D01*
X122689999Y-81212819D02*
X122594761Y-81165200D01*
X122594761Y-81165200D02*
X122547142Y-81117580D01*
X122547142Y-81117580D02*
X122451904Y-80974723D01*
X122451904Y-80974723D02*
X122404285Y-80784247D01*
X122404285Y-80784247D02*
X122404285Y-80403295D01*
X122404285Y-80403295D02*
X122451904Y-80308057D01*
X122451904Y-80308057D02*
X122499523Y-80260438D01*
X122499523Y-80260438D02*
X122594761Y-80212819D01*
X122594761Y-80212819D02*
X122785237Y-80212819D01*
X122785237Y-80212819D02*
X122880475Y-80260438D01*
X122880475Y-80260438D02*
X122928094Y-80308057D01*
X122928094Y-80308057D02*
X122975713Y-80403295D01*
X122975713Y-80403295D02*
X122975713Y-80641390D01*
X122975713Y-80641390D02*
X122928094Y-80736628D01*
X122928094Y-80736628D02*
X122880475Y-80784247D01*
X122880475Y-80784247D02*
X122785237Y-80831866D01*
X122785237Y-80831866D02*
X122594761Y-80831866D01*
X122594761Y-80831866D02*
X122499523Y-80784247D01*
X122499523Y-80784247D02*
X122451904Y-80736628D01*
X122451904Y-80736628D02*
X122404285Y-80641390D01*
X136189580Y-79875142D02*
X136237200Y-79827523D01*
X136237200Y-79827523D02*
X136284819Y-79684666D01*
X136284819Y-79684666D02*
X136284819Y-79589428D01*
X136284819Y-79589428D02*
X136237200Y-79446571D01*
X136237200Y-79446571D02*
X136141961Y-79351333D01*
X136141961Y-79351333D02*
X136046723Y-79303714D01*
X136046723Y-79303714D02*
X135856247Y-79256095D01*
X135856247Y-79256095D02*
X135713390Y-79256095D01*
X135713390Y-79256095D02*
X135522914Y-79303714D01*
X135522914Y-79303714D02*
X135427676Y-79351333D01*
X135427676Y-79351333D02*
X135332438Y-79446571D01*
X135332438Y-79446571D02*
X135284819Y-79589428D01*
X135284819Y-79589428D02*
X135284819Y-79684666D01*
X135284819Y-79684666D02*
X135332438Y-79827523D01*
X135332438Y-79827523D02*
X135380057Y-79875142D01*
X136284819Y-80827523D02*
X136284819Y-80256095D01*
X136284819Y-80541809D02*
X135284819Y-80541809D01*
X135284819Y-80541809D02*
X135427676Y-80446571D01*
X135427676Y-80446571D02*
X135522914Y-80351333D01*
X135522914Y-80351333D02*
X135570533Y-80256095D01*
X135284819Y-81446571D02*
X135284819Y-81541809D01*
X135284819Y-81541809D02*
X135332438Y-81637047D01*
X135332438Y-81637047D02*
X135380057Y-81684666D01*
X135380057Y-81684666D02*
X135475295Y-81732285D01*
X135475295Y-81732285D02*
X135665771Y-81779904D01*
X135665771Y-81779904D02*
X135903866Y-81779904D01*
X135903866Y-81779904D02*
X136094342Y-81732285D01*
X136094342Y-81732285D02*
X136189580Y-81684666D01*
X136189580Y-81684666D02*
X136237200Y-81637047D01*
X136237200Y-81637047D02*
X136284819Y-81541809D01*
X136284819Y-81541809D02*
X136284819Y-81446571D01*
X136284819Y-81446571D02*
X136237200Y-81351333D01*
X136237200Y-81351333D02*
X136189580Y-81303714D01*
X136189580Y-81303714D02*
X136094342Y-81256095D01*
X136094342Y-81256095D02*
X135903866Y-81208476D01*
X135903866Y-81208476D02*
X135665771Y-81208476D01*
X135665771Y-81208476D02*
X135475295Y-81256095D01*
X135475295Y-81256095D02*
X135380057Y-81303714D01*
X135380057Y-81303714D02*
X135332438Y-81351333D01*
X135332438Y-81351333D02*
X135284819Y-81446571D01*
X144123580Y-80383142D02*
X144171200Y-80335523D01*
X144171200Y-80335523D02*
X144218819Y-80192666D01*
X144218819Y-80192666D02*
X144218819Y-80097428D01*
X144218819Y-80097428D02*
X144171200Y-79954571D01*
X144171200Y-79954571D02*
X144075961Y-79859333D01*
X144075961Y-79859333D02*
X143980723Y-79811714D01*
X143980723Y-79811714D02*
X143790247Y-79764095D01*
X143790247Y-79764095D02*
X143647390Y-79764095D01*
X143647390Y-79764095D02*
X143456914Y-79811714D01*
X143456914Y-79811714D02*
X143361676Y-79859333D01*
X143361676Y-79859333D02*
X143266438Y-79954571D01*
X143266438Y-79954571D02*
X143218819Y-80097428D01*
X143218819Y-80097428D02*
X143218819Y-80192666D01*
X143218819Y-80192666D02*
X143266438Y-80335523D01*
X143266438Y-80335523D02*
X143314057Y-80383142D01*
X144218819Y-81335523D02*
X144218819Y-80764095D01*
X144218819Y-81049809D02*
X143218819Y-81049809D01*
X143218819Y-81049809D02*
X143361676Y-80954571D01*
X143361676Y-80954571D02*
X143456914Y-80859333D01*
X143456914Y-80859333D02*
X143504533Y-80764095D01*
X144218819Y-82287904D02*
X144218819Y-81716476D01*
X144218819Y-82002190D02*
X143218819Y-82002190D01*
X143218819Y-82002190D02*
X143361676Y-81906952D01*
X143361676Y-81906952D02*
X143456914Y-81811714D01*
X143456914Y-81811714D02*
X143504533Y-81716476D01*
X136755094Y-89862819D02*
X136755094Y-88862819D01*
X136755094Y-88862819D02*
X136516999Y-88862819D01*
X136516999Y-88862819D02*
X136374142Y-88910438D01*
X136374142Y-88910438D02*
X136278904Y-89005676D01*
X136278904Y-89005676D02*
X136231285Y-89100914D01*
X136231285Y-89100914D02*
X136183666Y-89291390D01*
X136183666Y-89291390D02*
X136183666Y-89434247D01*
X136183666Y-89434247D02*
X136231285Y-89624723D01*
X136231285Y-89624723D02*
X136278904Y-89719961D01*
X136278904Y-89719961D02*
X136374142Y-89815200D01*
X136374142Y-89815200D02*
X136516999Y-89862819D01*
X136516999Y-89862819D02*
X136755094Y-89862819D01*
X135231285Y-89862819D02*
X135802713Y-89862819D01*
X135516999Y-89862819D02*
X135516999Y-88862819D01*
X135516999Y-88862819D02*
X135612237Y-89005676D01*
X135612237Y-89005676D02*
X135707475Y-89100914D01*
X135707475Y-89100914D02*
X135802713Y-89148533D01*
X120723819Y-87717333D02*
X120723819Y-87241143D01*
X120723819Y-87241143D02*
X119723819Y-87241143D01*
X120723819Y-88574476D02*
X120723819Y-88003048D01*
X120723819Y-88288762D02*
X119723819Y-88288762D01*
X119723819Y-88288762D02*
X119866676Y-88193524D01*
X119866676Y-88193524D02*
X119961914Y-88098286D01*
X119961914Y-88098286D02*
X120009533Y-88003048D01*
X134151666Y-76654819D02*
X134627856Y-76654819D01*
X134627856Y-76654819D02*
X134627856Y-75654819D01*
X133865951Y-75750057D02*
X133818332Y-75702438D01*
X133818332Y-75702438D02*
X133723094Y-75654819D01*
X133723094Y-75654819D02*
X133484999Y-75654819D01*
X133484999Y-75654819D02*
X133389761Y-75702438D01*
X133389761Y-75702438D02*
X133342142Y-75750057D01*
X133342142Y-75750057D02*
X133294523Y-75845295D01*
X133294523Y-75845295D02*
X133294523Y-75940533D01*
X133294523Y-75940533D02*
X133342142Y-76083390D01*
X133342142Y-76083390D02*
X133913570Y-76654819D01*
X133913570Y-76654819D02*
X133294523Y-76654819D01*
X123737666Y-97736819D02*
X124070999Y-97260628D01*
X124309094Y-97736819D02*
X124309094Y-96736819D01*
X124309094Y-96736819D02*
X123928142Y-96736819D01*
X123928142Y-96736819D02*
X123832904Y-96784438D01*
X123832904Y-96784438D02*
X123785285Y-96832057D01*
X123785285Y-96832057D02*
X123737666Y-96927295D01*
X123737666Y-96927295D02*
X123737666Y-97070152D01*
X123737666Y-97070152D02*
X123785285Y-97165390D01*
X123785285Y-97165390D02*
X123832904Y-97213009D01*
X123832904Y-97213009D02*
X123928142Y-97260628D01*
X123928142Y-97260628D02*
X124309094Y-97260628D01*
X122785285Y-97736819D02*
X123356713Y-97736819D01*
X123070999Y-97736819D02*
X123070999Y-96736819D01*
X123070999Y-96736819D02*
X123166237Y-96879676D01*
X123166237Y-96879676D02*
X123261475Y-96974914D01*
X123261475Y-96974914D02*
X123356713Y-97022533D01*
X120562666Y-91640819D02*
X120895999Y-91164628D01*
X121134094Y-91640819D02*
X121134094Y-90640819D01*
X121134094Y-90640819D02*
X120753142Y-90640819D01*
X120753142Y-90640819D02*
X120657904Y-90688438D01*
X120657904Y-90688438D02*
X120610285Y-90736057D01*
X120610285Y-90736057D02*
X120562666Y-90831295D01*
X120562666Y-90831295D02*
X120562666Y-90974152D01*
X120562666Y-90974152D02*
X120610285Y-91069390D01*
X120610285Y-91069390D02*
X120657904Y-91117009D01*
X120657904Y-91117009D02*
X120753142Y-91164628D01*
X120753142Y-91164628D02*
X121134094Y-91164628D01*
X120181713Y-90736057D02*
X120134094Y-90688438D01*
X120134094Y-90688438D02*
X120038856Y-90640819D01*
X120038856Y-90640819D02*
X119800761Y-90640819D01*
X119800761Y-90640819D02*
X119705523Y-90688438D01*
X119705523Y-90688438D02*
X119657904Y-90736057D01*
X119657904Y-90736057D02*
X119610285Y-90831295D01*
X119610285Y-90831295D02*
X119610285Y-90926533D01*
X119610285Y-90926533D02*
X119657904Y-91069390D01*
X119657904Y-91069390D02*
X120229332Y-91640819D01*
X120229332Y-91640819D02*
X119610285Y-91640819D01*
X120054666Y-97736819D02*
X120387999Y-97260628D01*
X120626094Y-97736819D02*
X120626094Y-96736819D01*
X120626094Y-96736819D02*
X120245142Y-96736819D01*
X120245142Y-96736819D02*
X120149904Y-96784438D01*
X120149904Y-96784438D02*
X120102285Y-96832057D01*
X120102285Y-96832057D02*
X120054666Y-96927295D01*
X120054666Y-96927295D02*
X120054666Y-97070152D01*
X120054666Y-97070152D02*
X120102285Y-97165390D01*
X120102285Y-97165390D02*
X120149904Y-97213009D01*
X120149904Y-97213009D02*
X120245142Y-97260628D01*
X120245142Y-97260628D02*
X120626094Y-97260628D01*
X119721332Y-96736819D02*
X119102285Y-96736819D01*
X119102285Y-96736819D02*
X119435618Y-97117771D01*
X119435618Y-97117771D02*
X119292761Y-97117771D01*
X119292761Y-97117771D02*
X119197523Y-97165390D01*
X119197523Y-97165390D02*
X119149904Y-97213009D01*
X119149904Y-97213009D02*
X119102285Y-97308247D01*
X119102285Y-97308247D02*
X119102285Y-97546342D01*
X119102285Y-97546342D02*
X119149904Y-97641580D01*
X119149904Y-97641580D02*
X119197523Y-97689200D01*
X119197523Y-97689200D02*
X119292761Y-97736819D01*
X119292761Y-97736819D02*
X119578475Y-97736819D01*
X119578475Y-97736819D02*
X119673713Y-97689200D01*
X119673713Y-97689200D02*
X119721332Y-97641580D01*
X141678819Y-74509333D02*
X141202628Y-74176000D01*
X141678819Y-73937905D02*
X140678819Y-73937905D01*
X140678819Y-73937905D02*
X140678819Y-74318857D01*
X140678819Y-74318857D02*
X140726438Y-74414095D01*
X140726438Y-74414095D02*
X140774057Y-74461714D01*
X140774057Y-74461714D02*
X140869295Y-74509333D01*
X140869295Y-74509333D02*
X141012152Y-74509333D01*
X141012152Y-74509333D02*
X141107390Y-74461714D01*
X141107390Y-74461714D02*
X141155009Y-74414095D01*
X141155009Y-74414095D02*
X141202628Y-74318857D01*
X141202628Y-74318857D02*
X141202628Y-73937905D01*
X141012152Y-75366476D02*
X141678819Y-75366476D01*
X140631200Y-75128381D02*
X141345485Y-74890286D01*
X141345485Y-74890286D02*
X141345485Y-75509333D01*
X133095904Y-90188819D02*
X133095904Y-90998342D01*
X133095904Y-90998342D02*
X133048285Y-91093580D01*
X133048285Y-91093580D02*
X133000666Y-91141200D01*
X133000666Y-91141200D02*
X132905428Y-91188819D01*
X132905428Y-91188819D02*
X132714952Y-91188819D01*
X132714952Y-91188819D02*
X132619714Y-91141200D01*
X132619714Y-91141200D02*
X132572095Y-91093580D01*
X132572095Y-91093580D02*
X132524476Y-90998342D01*
X132524476Y-90998342D02*
X132524476Y-90188819D01*
X131524476Y-91188819D02*
X132095904Y-91188819D01*
X131810190Y-91188819D02*
X131810190Y-90188819D01*
X131810190Y-90188819D02*
X131905428Y-90331676D01*
X131905428Y-90331676D02*
X132000666Y-90426914D01*
X132000666Y-90426914D02*
X132095904Y-90474533D01*
%TO.C,C1*%
X136992000Y-94370000D02*
X136992000Y-86370000D01*
X141392000Y-86370000D02*
X141392000Y-94470000D01*
%TO.C,C2*%
X140628000Y-92067000D02*
X140628000Y-91067000D01*
X142328000Y-91067000D02*
X142328000Y-92067000D01*
%TO.C,C3*%
X142533000Y-92067000D02*
X142533000Y-91067000D01*
X144233000Y-91067000D02*
X144233000Y-92067000D01*
%TO.C,C4*%
X125642000Y-95242000D02*
X125642000Y-94242000D01*
X127342000Y-94242000D02*
X127342000Y-95242000D01*
%TO.C,C5*%
X121832000Y-93210000D02*
X121832000Y-92210000D01*
X123532000Y-92210000D02*
X123532000Y-93210000D01*
%TO.C,C6*%
X134612000Y-99148000D02*
X133612000Y-99148000D01*
X133612000Y-97448000D02*
X134612000Y-97448000D01*
%TO.C,C7*%
X127389000Y-90082000D02*
X128389000Y-90082000D01*
X128389000Y-91782000D02*
X127389000Y-91782000D01*
%TO.C,C8*%
X134318000Y-79834000D02*
X127818000Y-79834000D01*
X134318000Y-83234000D02*
X127818000Y-83234000D01*
%TO.C,C9*%
X124190000Y-84083000D02*
X122190000Y-84083000D01*
X122190000Y-82033000D02*
X124190000Y-82033000D01*
%TO.C,C10*%
X139930000Y-82318000D02*
X139930000Y-78218000D01*
X136930000Y-82318000D02*
X136930000Y-78218000D01*
%TO.C,C11*%
X143011000Y-79899000D02*
X143011000Y-81899000D01*
X140961000Y-81899000D02*
X140961000Y-79899000D01*
%TO.C,D1*%
X126899000Y-89941000D02*
X135199000Y-89941000D01*
X135199000Y-83541000D02*
X126899000Y-83541000D01*
%TO.C,L1*%
X125340000Y-90034000D02*
X121040000Y-90034000D01*
X121040000Y-85734000D02*
X121040000Y-90034000D01*
X125340000Y-85734000D02*
X125340000Y-90034000D01*
X125340000Y-85734000D02*
X121040000Y-85734000D01*
%TO.C,L2*%
X133512000Y-79107000D02*
X134712000Y-79107000D01*
X134712000Y-77357000D02*
X133512000Y-77357000D01*
%TO.C,R1*%
X124298000Y-94629000D02*
X123098000Y-94629000D01*
X123098000Y-96379000D02*
X124298000Y-96379000D01*
%TO.C,R2*%
X119542000Y-93712000D02*
X120742000Y-93712000D01*
X120742000Y-91962000D02*
X119542000Y-91962000D01*
%TO.C,R3*%
X120742000Y-94502000D02*
X119542000Y-94502000D01*
X119542000Y-96252000D02*
X120742000Y-96252000D01*
%TO.C,R4*%
X140194000Y-75403000D02*
X140194000Y-74203000D01*
X138444000Y-74203000D02*
X138444000Y-75403000D01*
%TO.C,U1*%
X134409000Y-96809000D02*
X134409000Y-96664000D01*
X134409000Y-96809000D02*
X130259000Y-96809000D01*
X134409000Y-91804000D02*
X135809000Y-91804000D01*
X134409000Y-91659000D02*
X134409000Y-91804000D01*
X134409000Y-91659000D02*
X130259000Y-91659000D01*
X130259000Y-96809000D02*
X130259000Y-96664000D01*
X130259000Y-91659000D02*
X130259000Y-91804000D01*
%TD*%
D12*
%TO.C,U1*%
X132905500Y-93027500D03*
X132842000Y-95377000D03*
X132842000Y-94234000D03*
X131762500Y-95377000D03*
X131762500Y-94234000D03*
X131762500Y-93027500D03*
%TD*%
M02*
